<svg xmlns="http://www.w3.org/2000/svg" width="1em" height="1em" viewBox="0 0 24 24"><path fill="currentColor" fill-rule="evenodd" d="M9 15a6 6 0 1 1 12 0a6 6 0 0 1-12 0m3.845-1.855a2.4 2.4 0 0 1 1.2-1.226a1 1 0 0 1 1.992-.026c.426.15.809.408 1.111.749a1 1 0 1 1-1.496 1.327a.682.682 0 0 0-.36-.213a.997.997 0 0 1-.113-.032a.4.4 0 0 0-.394.074a.93.93 0 0 0 .455.254a2.914 2.914 0 0 1 1.504.9c.373.433.669 1.092.464 1.823a.996.996 0 0 1-.046.129c-.226.519-.627.94-1.132 1.192a1 1 0 0 1-1.956.093a2.68 2.68 0 0 1-1.227-.798a1 1 0 1 1 1.506-1.315a.682.682 0 0 0 .363.216c.038.009.075.02.111.032a.4.4 0 0 0 .395-.074a.93.93 0 0 0-.455-.254a2.91 2.91 0 0 1-1.503-.9c-.375-.433-.666-1.089-.466-1.817a.994.994 0 0 1 .047-.134m1.884.573l.003.008c-.003-.005-.003-.008-.003-.008m.55 2.613s-.002-.002-.003-.007a.032.032 0 0 1 .003.007M4 14a1 1 0 0 1 1 1v4a1 1 0 1 1-2 0v-4a1 1 0 0 1 1-1m3-2a1 1 0 0 1 1 1v6a1 1 0 1 1-2 0v-6a1 1 0 0 1 1-1m6.5-8a1 1 0 0 1 1-1H18a1 1 0 0 1 1 1v3a1 1 0 1 1-2 0v-.796l-2.341 2.049a1 1 0 0 1-1.24.06l-2.894-2.066L6.614 9.29a1 1 0 1 1-1.228-1.578l4.5-3.5a1 1 0 0 1 1.195-.025l2.856 2.04L15.34 5h-.84a1 1 0 0 1-1-1" clip-rule="evenodd"/></svg>