<svg xmlns="http://www.w3.org/2000/svg" width="1em" height="1em" viewBox="0 0 24 24"><path fill="currentColor" d="M21.972 11.517a.527.527 0 0 0-1.034-.105a1.377 1.377 0 0 1-1.324 1.01a1.467 1.467 0 0 1-1.4-1.009a.526.526 0 0 0-1.015 0a1.467 1.467 0 0 1-2.737.143l-.049-.204l.021-.146V9.369h2.304a2.632 2.632 0 0 0 2.631-2.632a2.678 2.678 0 0 0-2.654-2.632l-.526.022l-.13-.369A2.632 2.632 0 0 0 13.579 2c-.461 0-.915.124-1.313.358L12 2.513l-.266-.155A2.603 2.603 0 0 0 10.422 2a2.632 2.632 0 0 0-2.483 1.759l-.13.37l-.518-.024a2.681 2.681 0 0 0-2.66 2.632A2.632 2.632 0 0 0 7.264 9.37H9.61v1.887l-.007.09l-.028.08a1.328 1.328 0 0 1-1.301.996a1.632 1.632 0 0 1-1.502-1.024a.526.526 0 0 0-1.01.013a1.474 1.474 0 0 1-1.404 1.01a1.381 1.381 0 0 1-1.325-1.01a.547.547 0 0 0-.569-.382h-.008a.526.526 0 0 0-.456.526v.446a10.012 10.012 0 0 0 10 10a9.904 9.904 0 0 0 7.067-2.94A10.019 10.019 0 0 0 22 11.966zM8.316 15.685a1.053 1.053 0 1 1 2.105 0a1.053 1.053 0 0 1-2.105 0m1.58 3.684a2.105 2.105 0 0 1 4.21 0zm4.736-2.631a1.052 1.052 0 1 1 0-2.105a1.052 1.052 0 0 1 0 2.105"/></svg>