<svg xmlns="http://www.w3.org/2000/svg" width="1em" height="1em" viewBox="0 0 24 24"><path fill="none" stroke="currentColor" stroke-linecap="round" stroke-linejoin="round" stroke-width="2" d="M18.122 17.645a7.185 7.185 0 0 1-2.656 2.495a7.06 7.06 0 0 1-3.52.853a6.617 6.617 0 0 1-3.306-.718a6.73 6.73 0 0 1-2.54-2.266c-2.672-4.57.287-8.846.887-9.668A4.448 4.448 0 0 0 8.07 6.31A4.49 4.49 0 0 0 7.997 4c1.284.965 6.43 3.258 5.525 10.631c1.496-1.136 2.7-3.046 2.846-6.216c1.43 1.061 3.985 5.462 1.754 9.23"/></svg>