<svg xmlns="http://www.w3.org/2000/svg" width="1em" height="1em" viewBox="0 0 24 24"><path fill="currentColor" fill-rule="evenodd" d="M21.7 8.037a4.26 4.26 0 0 0-.789-1.964a2.84 2.84 0 0 0-1.984-.839c-2.767-.2-6.926-.2-6.926-.2s-4.157 0-6.928.2a2.836 2.836 0 0 0-1.983.839a4.225 4.225 0 0 0-.79 1.965a30.146 30.146 0 0 0-.2 3.206v1.5a30.12 30.12 0 0 0 .2 3.206c.094.712.364 1.39.784 1.972c.604.536 1.38.837 2.187.848c1.583.151 6.731.2 6.731.2s4.161 0 6.928-.2a2.844 2.844 0 0 0 1.985-.84a4.27 4.27 0 0 0 .787-1.965a30.12 30.12 0 0 0 .2-3.206v-1.516a30.672 30.672 0 0 0-.202-3.206m-11.692 6.554v-5.62l5.4 2.819z" clip-rule="evenodd"/></svg>