<svg xmlns="http://www.w3.org/2000/svg" width="1em" height="1em" viewBox="0 0 24 24"><path fill="currentColor" d="m4.822 13.107l.112-.07A1.357 1.357 0 0 1 4.453 12a1.37 1.37 0 0 1 1.374-1.365c.41 0 .776.18 1.03.462l.016-.027c.115-.203.226-.402.31-.6c.038-.078.066-.157.097-.233a2.284 2.284 0 0 0-1.452-.517A2.287 2.287 0 0 0 3.533 12c0 .562.205 1.076.544 1.473a2.494 2.494 0 0 0 .14-.058c.2-.085.4-.194.605-.308m2.702-2.642a4.828 4.828 0 0 1-.312.787a6.709 6.709 0 0 1-.118.216a1.36 1.36 0 0 1 .108.532a1.37 1.37 0 0 1-1.88 1.269a5.832 5.832 0 0 1-.316.175a4.86 4.86 0 0 1-.673.272l-.012.004a2.293 2.293 0 0 0 1.506.56A2.287 2.287 0 0 0 8.122 12a2.257 2.257 0 0 0-.598-1.535m-6.202-.673H2.72v2.754c0 .592-.146 1.028-.437 1.31c-.292.28-.745.42-1.36.42A3.71 3.71 0 0 1 0 14.16v-.96a1.418 1.418 0 0 0 .446.076c.316 0 .54-.077.674-.23c.135-.154.202-.419.202-.795zm7.555 0h1.4v2.55c0 .373.065.643.199.811c.133.166.346.25.638.25c.3 0 .527-.09.68-.27c.153-.177.228-.442.228-.791v-2.55h1.332v2.55c0 .645-.187 1.13-.56 1.45c-.373.323-.932.484-1.68.484c-.74 0-1.298-.162-1.673-.486c-.376-.325-.563-.807-.563-1.448zm6.914 0h1.687l1.985 4.383h-1.495l-.372-.928h-2.02l-.39.928h-1.385zm.815.978l-.68 1.644h1.337zm2.174-.978h1.462l1.17 3.41l1.156-3.41H24l-1.778 4.383h-1.754z"/></svg>