<svg xmlns="http://www.w3.org/2000/svg" width="1em" height="1em" viewBox="0 0 24 24"><path fill="currentColor" fill-rule="evenodd" d="M3.6 2.25A1.35 1.35 0 0 0 2.25 3.6v16.8c0 .746.604 1.35 1.35 1.35h16.8a1.35 1.35 0 0 0 1.35-1.35V3.6a1.35 1.35 0 0 0-1.35-1.35zm10.27 4c-2.52 0-4.633 1.689-5.354 4H8a.75.75 0 0 0 0 1.5h.255a5.962 5.962 0 0 0 0 .5H8a.75.75 0 0 0 0 1.5h.516c.721 2.311 2.834 4 5.354 4c.883 0 1.72-.21 2.466-.582a.75.75 0 0 0-.671-1.341a3.997 3.997 0 0 1-1.795.423c-1.66 0-3.107-1.02-3.756-2.5H14a.75.75 0 0 0 0-1.5H9.757a4.48 4.48 0 0 1 0-.5H14a.75.75 0 0 0 0-1.5h-3.886c.649-1.48 2.096-2.5 3.756-2.5c.644 0 1.252.152 1.794.423a.75.75 0 1 0 .672-1.341a5.495 5.495 0 0 0-2.466-.582" clip-rule="evenodd"/></svg>