<svg xmlns="http://www.w3.org/2000/svg" width="1em" height="1em" viewBox="0 0 15 15"><path fill="currentColor" d="M5.447.027a.75.75 0 0 1 .527.92l-.235.86c-.25.916.003 1.895.664 2.576c.73.753 1.85.977 2.815.564l.287-.123a2.305 2.305 0 0 0 1.251-1.31A3.83 3.83 0 0 0 11 2.17V2a.75.75 0 0 1 1.5 0v.17c0 .639-.115 1.273-.34 1.871a3.805 3.805 0 0 1-1.823 2.049l-.073.046a1.875 1.875 0 0 0-.857 1.748l.129 1.424c.02.089.034.18.042.272l.419 4.602a.75.75 0 0 1-1.494.136l-.418-4.603a.564.564 0 0 0-.043-.17a.56.56 0 0 0-.148-.186a.56.56 0 0 0-.2-.13l-.016-.005a.564.564 0 0 0-.612.21l-.972 1.337a1.5 1.5 0 0 0-.283.998l.187 2.424a.75.75 0 0 1-1.496.114l-.186-2.423a3 3 0 0 1 .565-1.995l.972-1.337c.127-.174.229-.37.25-.585l.082-.822c.06-.599-.263-1.158-.705-1.567a4.183 4.183 0 0 1-1.188-4.165l.234-.86a.75.75 0 0 1 .921-.526M8.25 4.125a1.5 1.5 0 1 0 0-3a1.5 1.5 0 0 0 0 3m-5.887.669a.371.371 0 0 0-.726 0l-.104.484a.984.984 0 0 1-.755.756l-.485.103a.371.371 0 0 0 0 .726l.485.104a.984.984 0 0 1 .755.756l.104.484a.371.371 0 0 0 .726 0l.104-.484a.984.984 0 0 1 .755-.756l.485-.104a.371.371 0 0 0 0-.726l-.485-.103a.984.984 0 0 1-.755-.756zM13 7c.175 0 .326.122.363.294l.104.484a.984.984 0 0 0 .755.756l.485.103a.371.371 0 0 1 0 .726l-.485.104a.984.984 0 0 0-.755.756l-.104.484a.371.371 0 0 1-.726 0l-.104-.484a.984.984 0 0 0-.755-.756l-.485-.104a.371.371 0 0 1 0-.726l.485-.103a.984.984 0 0 0 .755-.756l.104-.484A.371.371 0 0 1 13 7"/></svg>