<svg xmlns="http://www.w3.org/2000/svg" width="1em" height="1em" viewBox="0 0 32 32"><defs><path id="unjsOfetch0" fill="#EB8F00" d="M27.873 7.417c1.332 2.15 2.027 4.71 2.027 7.558c0 4.225-1.525 7.8-4.4 10.35c-2.65 2.325-6.25 3.625-10.1 3.625c-4.515 0-9.25-1.837-12.045-5.735C6.045 27.63 11.105 29.7 15.9 29.7c3.85 0 7.45-1.3 10.1-3.625c2.875-2.55 4.4-6.125 4.4-10.35c0-3.185-.867-6.015-2.527-8.308"/></defs><g fill="none"><path fill="url(#unjsOfetch5)" d="M15.9 29.7c-6.975 0-14.5-4.375-14.5-13.975S8.925 1.75 15.9 1.75c3.875 0 7.45 1.275 10.1 3.6c2.875 2.55 4.4 6.15 4.4 10.375s-1.525 7.8-4.4 10.35C23.35 28.4 19.75 29.7 15.9 29.7"/><use href="#unjsOfetch0"/><path fill="url(#unjsOfetch1)" d="M15.9 29.7c-6.975 0-14.5-4.375-14.5-13.975S8.925 1.75 15.9 1.75c3.875 0 7.45 1.275 10.1 3.6c2.875 2.55 4.4 6.15 4.4 10.375s-1.525 7.8-4.4 10.35C23.35 28.4 19.75 29.7 15.9 29.7"/><path fill="url(#unjsOfetch2)" d="M15.9 29.7c-6.975 0-14.5-4.375-14.5-13.975S8.925 1.75 15.9 1.75c3.875 0 7.45 1.275 10.1 3.6c2.875 2.55 4.4 6.15 4.4 10.375s-1.525 7.8-4.4 10.35C23.35 28.4 19.75 29.7 15.9 29.7"/><use href="#unjsOfetch0"/><path fill="#422B0D" d="M16 27.433a2.75 2.75 0 0 1-2.732-2.733v-3.15A2.731 2.731 0 0 1 16 18.817a2.731 2.731 0 0 1 2.733 2.733v3.153A2.749 2.749 0 0 1 16 27.433"/><path fill="#fff" d="M10.823 10.455c.51 0 1.01.147 1.44.422c1.41.893 2 3 .862 5.178c-.785 1.5-1.965 2.192-3.082 2.192c-.511 0-1.01-.147-1.44-.422c-1.41-.892-2-3-.863-5.177c.785-1.5 1.963-2.193 3.082-2.193"/><path fill="url(#unjsOfetch3)" d="M29.735 18.25c-.343-.25-.3-.527-1.25-.145c-.392.16-.843 1.06-.843 1.06s-.677-1.355-2.017.448c-2.435 3.27-3.5 3.12-4.933 4.62c-.922.96-1.72 1.875-1.412 3.692c.172 1.015.655 1.293.655 1.293s.295 0 3.19-1.5s5.422-3.623 6.813-7.023" opacity=".66"/><path fill="url(#unjsOfetch6)" d="M21.935 24.88c1.088-.825 2.138-1.582 2.633-2.235c.494-.652 1.027-2.02 1.347-2.915c.32-.895 1.25-1.332 1.75-.567c.13.204.027 1 0 1.305c.273-.453.465-.95.57-1.468c.25-1.22 1.525-1.615 1.75.025c0 0 .948.038.527 2.978a11.687 11.687 0 0 1-1.125 3.287c-1.347 2.54-2.402 3.718-3.767 4.653c-2.135 1.46-4.158 1.112-4.79.282c-1.08-1.428-.79-3.908 1.105-5.345"/><path fill="#ED6C30" d="M27.655 19.163c0 .487-.47 2.185-.648 2.62c-.612 1.612-1.73 2.362-1.417 2.617c.313.255.91-.287 1.773-2.335c.265-.698.42-1.43.454-2.175a1.776 1.776 0 0 0-.162-.727m1.645-1.236c.317.138.79 1.043.082 3.578c-.437 1.915-1.892 3.405-1.542 3.573c.413.277 1.355-1.285 2.023-3.45a9.873 9.873 0 0 0 .322-2c.01-.34-.105-1.608-.885-1.7"/><path fill="url(#unjsOfetch4)" d="M2.132 18.25c.343-.25.3-.527 1.25-.145c.393.16.843 1.06.843 1.06s.677-1.355 2.017.448c2.435 3.27 3.5 3.12 4.933 4.62c.92.96 1.717 1.875 1.41 3.692c-.17 1.015-.653 1.293-.653 1.293s-.48 0-2.782-1.175c-.198-.1-.18-.203-.408-.323c-2.895-1.5-5.422-3.622-6.812-7.022" opacity=".66"/><path fill="url(#unjsOfetch7)" d="M9.933 24.88c-1.088-.825-2.138-1.582-2.633-2.235c-.495-.652-1.027-2.02-1.35-2.915c-.322-.895-1.25-1.332-1.737-.567c-.13.204-.028 1 0 1.305A4.653 4.653 0 0 1 3.633 19c-.25-1.22-1.525-1.615-1.75.025c0 0-.948.038-.528 2.978c.21 1.145.588 2.255 1.125 3.287c1.345 2.54 2.403 3.718 3.768 4.653c2.132 1.46 4.155 1.112 4.79.282c1.072-1.428.79-3.908-1.105-5.345"/><path fill="#ED6C30" d="M4.213 19.163c0 .487.47 2.185.647 2.62c.613 1.612 1.728 2.362 1.418 2.617c-.31.255-.913-.287-1.775-2.335a7.049 7.049 0 0 1-.453-2.175c0-.253.055-.5.163-.727m-1.648-1.236c-.315.138-.787 1.043-.08 3.573c.438 1.915 1.893 3.405 1.543 3.573c-.413.277-1.355-1.285-2.023-3.45a9.873 9.873 0 0 1-.322-2c-.01-.335.105-1.603.882-1.696"/><path fill="#EB8F00" d="M13.158 16.073a4.095 4.095 0 0 1-1 1.735a3.277 3.277 0 0 1-1.908.967a3.107 3.107 0 0 1-2.2-.562a3.746 3.746 0 0 1-1.483-2.373a5.127 5.127 0 0 1-.067-.553L6.482 15l.013-.275a3.57 3.57 0 0 1 .062-.543a5.39 5.39 0 0 1 .8-1.932a4.465 4.465 0 0 1 1.5-1.455a2.866 2.866 0 0 1 1.978-.367v.072a2.978 2.978 0 0 0-1.75.613c-.5.382-.913.87-1.21 1.425a5.256 5.256 0 0 0-.625 1.76a3.958 3.958 0 0 0 .155 1.847c.19.595.557 1.12 1.055 1.5c.497.387 1.12.58 1.75.54a3.014 3.014 0 0 0 1.705-.685a4.661 4.661 0 0 0 1.178-1.46z"/><path fill="#fff" d="M21.203 10.455c1.12 0 2.297.7 3.082 2.193c1.142 2.167.547 4.285-.863 5.177a2.66 2.66 0 0 1-1.44.425c-1.117 0-2.297-.7-3.082-2.192c-1.15-2.17-.547-4.288.863-5.18c.43-.276.929-.422 1.44-.423"/><path fill="#EB8F00" d="M21.203 10.418c.682-.12 1.384.01 1.977.367a4.47 4.47 0 0 1 1.5 1.455c.393.592.665 1.255.8 1.953c.032.18.055.36.063.542v.553a3.924 3.924 0 0 1-.206 1.097a3.724 3.724 0 0 1-1.342 1.825c-.635.46-1.42.66-2.198.563a3.273 3.273 0 0 1-1.922-.968a4.046 4.046 0 0 1-1-1.732l.065-.035c.287.56.685 1.057 1.17 1.462a3.014 3.014 0 0 0 1.71.688c.63.04 1.253-.153 1.75-.54a3.08 3.08 0 0 0 1.052-1.5c.198-.595.25-1.228.155-1.848a5.242 5.242 0 0 0-.614-1.767a4.43 4.43 0 0 0-1.21-1.425a2.978 2.978 0 0 0-1.75-.613z"/><defs><linearGradient id="unjsOfetch1" x1="15.9" x2="15.9" y1="29.7" y2="1.75" gradientUnits="userSpaceOnUse"><stop offset=".39" stop-color="#40C0E7" stop-opacity="0"/><stop offset="1" stop-color="#5F7AFF"/></linearGradient><linearGradient id="unjsOfetch2" x1="15.9" x2="15.9" y1="29.7" y2="1.75" gradientUnits="userSpaceOnUse"><stop offset=".16" stop-color="#F4A223"/><stop offset=".33" stop-color="#F7C02B"/><stop offset=".81" stop-color="#FDE030" stop-opacity="0"/></linearGradient><linearGradient id="unjsOfetch3" x1="24.575" x2="24.575" y1="31.955" y2="19.53" gradientUnits="userSpaceOnUse"><stop stop-color="#ED6C30"/><stop offset="1" stop-color="#ED6C30" stop-opacity=".2"/></linearGradient><linearGradient id="unjsOfetch4" x1="7.291" x2="7.291" y1="31.955" y2="19.53" gradientUnits="userSpaceOnUse"><stop stop-color="#ED6C30"/><stop offset="1" stop-color="#ED6C30" stop-opacity=".2"/></linearGradient><radialGradient id="unjsOfetch5" cx="0" cy="0" r="1" gradientTransform="translate(15.9 15.725)scale(14.24)" gradientUnits="userSpaceOnUse"><stop offset=".5" stop-color="#FDE030"/><stop offset=".92" stop-color="#F7C02B"/><stop offset="1" stop-color="#F4A223"/></radialGradient><radialGradient id="unjsOfetch6" cx="0" cy="0" r="1" gradientTransform="matrix(-8.74776 6.9533 -6.4084 -8.06224 22.875 23.57)" gradientUnits="userSpaceOnUse"><stop offset=".27" stop-color="#FFF176"/><stop offset="1" stop-color="#FFC400"/></radialGradient><radialGradient id="unjsOfetch7" cx="0" cy="0" r="1" gradientTransform="matrix(8.74776 6.9533 -6.4084 8.06224 8.98 23.552)" gradientUnits="userSpaceOnUse"><stop offset=".27" stop-color="#FFF176"/><stop offset="1" stop-color="#FFC400"/></radialGradient></defs></g></svg>