<svg xmlns="http://www.w3.org/2000/svg" width="1em" height="1em" viewBox="0 0 32 32"><path fill="#40C0E7" d="M31.823 4.108a.605.605 0 0 0-.468-.228h-6.198a.59.59 0 0 0-.582.48L22.18 16.53L18.813 4.315a.583.583 0 0 0-.098-.193c-.003-.002-.003-.01-.008-.012c-.007-.01-.02-.013-.027-.022a.547.547 0 0 0-.15-.123c-.02-.01-.038-.022-.058-.03a.57.57 0 0 0-.235-.055H13.76a.579.579 0 0 0-.235.055l-.058.03a.547.547 0 0 0-.15.123c-.01.01-.02.012-.027.022c-.002.005-.002.01-.007.012a.608.608 0 0 0-.098.193L9.822 16.53L7.425 4.36a.596.596 0 0 0-.583-.48H.647a.594.594 0 0 0-.467.228a.59.59 0 0 0-.113.507l6.198 25.112c.002.008.01.015.01.026a.62.62 0 0 0 .057.132c.008.012.013.025.023.037c.005.008.007.015.015.023c.03.04.062.072.102.105c.005.005.013.008.02.012a.525.525 0 0 0 .175.088c.055.018.115.03.175.03h4.946c.082 0 .157-.02.23-.052l.057-.03a.579.579 0 0 0 .138-.11c.01-.01.025-.015.035-.026c.005-.007.005-.014.01-.022a.582.582 0 0 0 .105-.207L16 15.583l3.637 14.152a.58.58 0 0 0 .105.207c.005.008.005.015.013.023c.008.01.023.015.033.025c.04.045.084.08.137.11c.02.01.037.022.058.03c.072.03.147.053.23.053h4.944c.06 0 .118-.013.175-.03l.046-.015a.627.627 0 0 0 .132-.073l.02-.013a.583.583 0 0 0 .102-.104c.005-.008.008-.015.015-.023c.008-.012.013-.025.023-.038a.786.786 0 0 0 .057-.132c.003-.008.01-.015.01-.025l6.198-25.112a.61.61 0 0 0-.112-.51"/></svg>