<svg xmlns="http://www.w3.org/2000/svg" width="1em" height="1em" viewBox="0 0 24 24"><path fill="currentColor" d="M10.096 21.538q-1.863 0-3.2-1.337Q5.557 18.863 5.557 17q0-1.506.844-2.638q.844-1.133 2.217-1.577q.177-.097.366-.012q.188.085.284.262t.015.365q-.082.188-.259.285q-1.075.328-1.771 1.216q-.696.887-.696 2.099q0 1.48 1.029 2.51q1.028 1.028 2.51 1.028q1.21 0 2.098-.696q.888-.696 1.217-1.77q.096-.178.284-.26t.366.015q.176.096.261.275t-.011.375q-.425 1.354-1.577 2.208q-1.152.853-2.639.853m7.73 0q-.213 0-.356-.143t-.143-.357V17q0-.23-.135-.365q-.134-.135-.365-.135h-4.692q-.633 0-1.086-.453q-.453-.453-.453-1.085V9q0-.633.434-1.066q.433-.434 1.066-.434q.35 0 .701.195t.832.751q1.26 1.466 2.191 2.08q.932.616 2.097.855q.214.056.37.211q.155.156.155.37q0 .213-.168.344q-.168.13-.376.075q-1.292-.239-2.32-.854q-1.028-.615-2.136-1.785v5.412h3.346q.633 0 1.086.453q.453.453.453 1.085v4.346q0 .214-.143.357q-.144.143-.357.143M12.097 6.27q-.69 0-1.191-.5q-.501-.502-.501-1.192t.5-1.191q.502-.501 1.192-.501t1.191.5q.501.502.501 1.192t-.5 1.191q-.501.501-1.192.501"/></svg>