<svg xmlns="http://www.w3.org/2000/svg" width="1em" height="1em" viewBox="0 0 24 24"><path fill="currentColor" d="M8.192 21q-1.748 0-2.97-1.251Q4 18.5 4 16.75q0-1.59 1.056-2.787q1.056-1.196 2.634-1.39q.208-.042.375.084q.168.126.21.333q.042.208-.084.366q-.126.157-.333.2q-1.218.134-2.038 1.053Q5 15.527 5 16.75q0 1.327.942 2.27q.943.942 2.289.942q1.16 0 2.046-.722q.886-.72 1.123-1.83q.067-.208.225-.324t.365-.05q.208.068.324.235q.117.167.05.375q-.316 1.458-1.5 2.406Q9.681 21 8.192 21M14.77 6.808q-.67 0-1.133-.463t-.463-1.133q0-.672.463-1.134q.462-.463 1.133-.463t1.124.463q.453.462.453 1.134q0 .67-.453 1.133q-.453.463-1.124.463M11 15.827q-1.004 0-1.575-.87t-.14-1.8l2.042-4.484H8.802l-.525 1.392q-.067.177-.254.269t-.37.024q-.193-.068-.288-.263q-.094-.195-.015-.39l.473-1.313q.167-.44.488-.656t.785-.217h3.873q.875 0 1.328.644q.453.643.06 1.514l-2.207 4.785h3.927q.613 0 1.037.433q.424.434.424 1.047V19.5q0 .213-.143.357q-.143.143-.357.143q-.213 0-.356-.143q-.144-.144-.144-.357v-3.25q0-.192-.105-.308q-.106-.115-.318-.115z"/></svg>