<svg xmlns="http://www.w3.org/2000/svg" width="1em" height="1em" viewBox="0 0 24 24"><path fill="currentColor" d="M12 20q1.344 0 2.59-.441t2.287-1.26L14.579 16q-.627-.25-1.27-.375Q12.665 15.5 12 15.5q-1.312 0-2.554.37q-1.242.368-2.379 1.029q-.367.21-.385.623q-.019.413.293.685q1.062.872 2.354 1.332Q10.62 20 12 20m8.756 2.171l-3.135-3.129q-1.206.954-2.634 1.456Q13.557 21 12 21q-1.863 0-3.506-.71t-2.857-1.927Q4.42 17.148 3.71 15.506Q3 13.863 3 12q0-1.533.49-2.962q.489-1.428 1.462-2.64L2.24 3.662q-.146-.147-.153-.348q-.006-.2.16-.366q.165-.165.356-.165t.357.165l18.51 18.515q.145.147.155.345q.01.198-.156.363q-.165.166-.356.166t-.357-.166m-1.373-6.01q-.212 0-.389-.068t-.338-.23l-4.018-4.017q-.161-.161-.183-.385q-.022-.224.108-.417q.212-.361.325-.744q.112-.383.112-.8q0-1.258-.871-2.129T12 6.5q-.417 0-.8.115q-.383.116-.744.322q-.193.125-.417.105q-.224-.019-.385-.18L8.137 5.344q-.162-.161-.23-.338t-.069-.389q0-.292.134-.522q.134-.23.426-.36q.854-.368 1.76-.551T12 3q1.863 0 3.506.71t2.857 1.927q1.216 1.215 1.926 2.857Q21 10.137 21 12q0 .935-.184 1.841t-.55 1.76q-.131.293-.361.427q-.23.134-.522.134"/></svg>