<svg xmlns="http://www.w3.org/2000/svg" width="1em" height="1em" viewBox="0 0 24 24"><path fill="currentColor" d="M12 20q1.39 0 2.69-.455t2.345-1.353q-1.083-.84-2.364-1.266Q13.391 16.5 12 16.5t-2.69.407q-1.3.406-2.345 1.285q1.045.898 2.345 1.353Q10.61 20 12 20m2.129-12.629q.736.737.85 1.764q.113 1.027-.414 1.911q-.142.252-.347.309q-.205.057-.393-.028q-.202-.117-.256-.322q-.054-.205.07-.388q.411-.598.346-1.313q-.066-.716-.57-1.22q-.517-.517-1.204-.566q-.688-.049-1.286.319q-.158.067-.354.01q-.196-.057-.283-.264q-.073-.195.005-.4q.078-.204.33-.34q.817-.466 1.818-.312q1.001.154 1.688.84M12 21q-1.863 0-3.506-.71t-2.857-1.927Q4.42 17.148 3.71 15.506Q3 13.863 3 12q0-1.533.49-2.971q.489-1.439 1.462-2.63L2.24 3.661q-.146-.147-.153-.348q-.006-.2.16-.366q.165-.165.356-.165t.357.165l18.51 18.515q.145.147.152.348q.007.2-.159.366q-.165.165-.353.165q-.189 0-.354-.165L5.676 7.123Q4.859 8.183 4.43 9.42Q4 10.656 4 12q0 1.54.562 2.956q.561 1.415 1.634 2.529q1.292-.91 2.759-1.447T12 15.5q1.335 0 2.602.412q1.267.411 2.398 1.107l1.363 1.364q-1.27 1.29-2.923 1.954Q13.788 21 12 21M7.812 4.035q.955-.547 2.015-.79Q10.887 3 12 3q1.788 0 3.44.683q1.652.682 2.923 1.954q1.272 1.27 1.954 2.923Q21 10.212 21 12q0 1.094-.254 2.135q-.254 1.04-.742 1.996q-.098.182-.306.237q-.208.055-.385-.049t-.234-.311q-.058-.208.04-.396q.44-.847.66-1.762Q20 12.935 20 12q0-3.35-2.325-5.675T12 4q-.935 0-1.85.22t-1.762.66q-.188.099-.396.05q-.207-.047-.33-.224q-.124-.177-.078-.375q.045-.198.228-.296"/></svg>