<svg xmlns="http://www.w3.org/2000/svg" width="1em" height="1em" viewBox="0 0 24 24"><path fill="currentColor" d="M11.558 21v-1.954q-1.627-.16-2.737-1.396q-1.11-1.237-1.11-2.938h.866q0 1.45.996 2.465T12 18.192t2.427-1.019q.996-1.02.996-2.461h.885q0 1.701-1.12 2.938q-1.119 1.237-2.746 1.396V21zM12 16.173q-.613 0-1.028-.424q-.414-.424-.414-1.037v-2.885q0-.614.414-1.038q.415-.424 1.028-.424t1.028.424q.414.424.414 1.038v2.885q0 .613-.414 1.037q-.415.424-1.028.424m-10-3.25v-.883q0-.76.295-1.274t.926-.845q.904-.467 1.92-.704q1.015-.236 2.109-.236q.677 0 1.314.094q.638.094 1.251.277q-1.165.458-2.01 1.417q-.845.96-1.23 2.154zm15.425 0q-.385-1.194-1.23-2.141q-.845-.947-2.01-1.43q.613-.183 1.25-.277t1.315-.094q1.094 0 2.11.236q1.015.237 1.919.704q.63.33.926.845q.295.515.295 1.274v.883zM7.251 7.846q-1.001 0-1.703-.707q-.702-.706-.702-1.716t.701-1.716Q6.247 3 7.249 3q1.001 0 1.703.707q.702.706.702 1.716T8.953 7.14q-.7.707-1.702.707m9.5 0q-1.001 0-1.703-.707q-.702-.706-.702-1.716t.7-1.716Q15.749 3 16.75 3t1.703.707q.702.706.702 1.716t-.7 1.716q-.702.707-1.703.707"/></svg>