<svg xmlns="http://www.w3.org/2000/svg" width="1em" height="1em" viewBox="0 0 24 24"><path fill="currentColor" d="M20.948 22.37L2.054 3.474l.708-.713l18.894 18.9zM22 12.922h-4.575q-.075-.275-.17-.515q-.095-.24-.23-.485h3.958q-.043-.425-.216-.694q-.173-.27-.54-.446q-.765-.414-1.632-.608q-.866-.194-1.845-.194q-.333 0-.663.029t-.662.105q-.265-.249-.576-.433q-.31-.184-.664-.33q.613-.183 1.25-.277t1.315-.094q1.094 0 2.11.236q1.015.237 1.919.704q.63.33.926.845q.295.515.295 1.274zm-5.249-5.077q-1.001 0-1.703-.707q-.702-.706-.702-1.716t.7-1.716Q15.749 3 16.75 3t1.703.707q.702.706.702 1.716t-.7 1.716q-.702.707-1.703.707m0-1q.597 0 1-.408q.403-.407.403-1.01t-.404-1.016Q17.346 4 16.749 4t-1 .408t-.403 1.01q0 .603.404 1.016q.404.412 1.001.412M2 12.923v-.883q0-.76.295-1.274t.926-.845q.904-.467 1.92-.704q1.015-.236 2.109-.236q.41 0 .805.041q.395.041.797.11v1q-.402-.088-.797-.12q-.394-.031-.805-.031q-.979 0-1.845.194t-1.632.608q-.367.177-.54.446q-.173.27-.216.694h3.958q-.135.244-.23.485q-.095.24-.17.515zM9.365 6.56L5.96 3.135q.215-.193.428-.327q.214-.135.439-.231q1.327.327 2.077 1.077t.75 1.77q0 .316-.077.599t-.212.537M12 16.173q-.613 0-1.028-.424q-.414-.424-.414-1.037v-2.885q0-.28.082-.51q.083-.23.243-.429l2.56 2.56v1.264q0 .613-.415 1.037q-.415.424-1.028.424M11.558 21v-1.954q-1.627-.16-2.737-1.396q-1.11-1.237-1.11-2.938h.866q0 1.45.996 2.465T12 18.192q1.267 0 2.197-.807q.93-.808 1.163-2.025l.725.73q-.398 1.218-1.381 2.016t-2.262.94V21z"/></svg>