<svg xmlns="http://www.w3.org/2000/svg" width="1em" height="1em" viewBox="0 0 24 24"><path fill="currentColor" d="M20.594 22.015L2.408 3.83q-.14-.14-.15-.342q-.01-.2.145-.366q.17-.165.361-.165q.192 0 .357.165l18.18 18.187q.141.14.154.341q.012.201-.157.37q-.156.156-.35.156q-.194 0-.354-.16m-3.843-14.17q-1.001 0-1.703-.707q-.702-.706-.702-1.716t.7-1.716Q15.749 3 16.75 3t1.703.707q.702.706.702 1.716t-.7 1.716q-.702.707-1.703.707m0-1q.597 0 1-.408q.403-.407.403-1.01t-.404-1.016Q17.346 4 16.749 4t-1 .408t-.403 1.01q0 .603.404 1.016q.404.412 1.001.412M2.75 12.923q-.319 0-.534-.216T2 12.173v-.133q0-.76.295-1.274t.926-.845q.904-.467 1.92-.704q1.015-.236 2.109-.236q.41 0 .805.041q.395.041.797.11v1q-.402-.088-.797-.12q-.394-.031-.805-.031q-.979 0-1.845.194t-1.632.608q-.367.177-.54.446q-.173.27-.216.694H6.5q.213 0 .356.144t.144.357q0 .213-.144.356q-.143.143-.356.143zm6.144-9.279q.368.368.564.814q.196.446.196.965q0 .115-.006.235q-.006.119-.042.229q-.062.242-.307.301q-.245.06-.437-.132L6.31 3.485q-.148-.148-.137-.336q.012-.187.171-.312q.13-.095.239-.158q.11-.064.244-.102q.663.154 1.182.427q.518.273.885.64M12 16.174q-.613 0-1.028-.425q-.414-.424-.414-1.037v-2.885q0-.28.082-.51q.083-.23.243-.429l2.56 2.56v1.264q0 .613-.415 1.037q-.415.424-1.028.424M12 21q-.19 0-.316-.125q-.126-.126-.126-.317v-1.512q-1.53-.154-2.595-1.246q-1.067-1.092-1.215-2.617q-.03-.196.098-.334t.335-.137q.161 0 .278.114q.118.114.149.293q.16 1.32 1.11 2.196q.95.877 2.282.877q1.267 0 2.197-.807q.93-.808 1.163-2.025l.725.73q-.398 1.218-1.381 2.016t-2.262.94v1.512q0 .191-.125.317q-.125.125-.316.125m5.499-8.077q-.213 0-.356-.144q-.144-.144-.144-.357q0-.212.144-.356q.144-.143.356-.143h3.483q-.043-.425-.216-.694q-.173-.27-.54-.446q-.765-.414-1.564-.608q-.8-.194-1.913-.194q-.26 0-.513.019t-.512.058q-.213.019-.354-.131q-.14-.15-.14-.354t.132-.341q.131-.138.345-.169q.26-.044.52-.063q.262-.02.522-.02q1.229 0 2.177.237t1.852.704q.63.33.926.845q.295.515.295 1.274v.133q0 .319-.216.534t-.534.216z"/></svg>