<svg xmlns="http://www.w3.org/2000/svg" width="1em" height="1em" viewBox="0 0 24 24"><path fill="currentColor" d="M20.594 22.015L2.408 3.83q-.14-.14-.15-.342q-.01-.2.15-.366q.165-.165.356-.165t.357.165l18.18 18.187q.141.14.154.341q.012.201-.153.366q-.16.16-.354.16t-.354-.16M16.75 7.846q-1 0-1.702-.702t-.702-1.72q0-1.02.702-1.722T16.75 3t1.702.702q.702.702.702 1.721q0 1.02-.702 1.721q-.702.702-1.702.702M8.894 3.644q.368.368.564.819q.196.45.196.96q0 .115-.006.235q-.006.119-.042.229q-.062.242-.307.301q-.245.06-.437-.132L6.31 3.485q-.148-.148-.137-.336q.012-.187.171-.312q.13-.095.239-.158q.11-.064.244-.102q.663.154 1.182.427q.518.273.885.64M12 16.174q-.613 0-1.028-.425q-.414-.424-.414-1.037v-2.885q0-.271.082-.506q.083-.234.243-.433l2.56 2.56v1.264q0 .613-.415 1.037q-.415.424-1.028.424M12 21q-.19 0-.316-.126t-.126-.316v-1.512q-1.53-.154-2.595-1.246q-1.067-1.092-1.215-2.617q-.03-.196.098-.334t.325-.137q.179 0 .292.114q.114.114.145.293q.16 1.32 1.11 2.196q.95.877 2.282.877q1.267 0 2.197-.807q.93-.808 1.163-2.025l.725.73q-.398 1.218-1.381 2.016t-2.262.94v1.512q0 .19-.126.316T12 21m-9.25-8.077q-.31 0-.53-.22q-.22-.22-.22-.53v-.133q0-.76.295-1.274t.926-.845q.904-.467 1.92-.704q1.015-.236 2.109-.236q.477 0 .92.044q.442.044.874.133q.206.05.224.243q.019.193-.162.299q-.818.483-1.448 1.235q-.631.752-.964 1.642q-.05.142-.186.244q-.137.102-.298.102zm15.04 0q-.161 0-.298-.102q-.136-.102-.186-.244q-.333-.89-.96-1.642q-.629-.752-1.446-1.235q-.18-.106-.153-.299q.028-.193.209-.243q.432-.089.875-.133q.442-.044.919-.044q1.094 0 2.11.236q1.015.237 1.919.704q.63.33.926.845q.295.515.295 1.274v.133q0 .31-.22.53q-.22.22-.53.22z"/></svg>