<svg xmlns="http://www.w3.org/2000/svg" width="1em" height="1em" viewBox="0 0 24 24"><path fill="currentColor" d="M22 12.923h-4.575q-.075-.275-.17-.515q-.095-.24-.23-.485h3.958q-.043-.425-.216-.694q-.173-.27-.54-.446q-.765-.414-1.632-.608q-.866-.194-1.845-.194q-.333 0-.663.029t-.662.105q-.265-.249-.576-.433q-.31-.184-.664-.33q.613-.183 1.25-.277t1.315-.094q1.094 0 2.11.236q1.015.237 1.919.704q.63.33.926.845q.295.515.295 1.274zm-5.249-5.077q-1.001 0-1.703-.707q-.702-.706-.702-1.716t.7-1.716Q15.749 3 16.75 3t1.703.707q.702.706.702 1.716t-.7 1.716q-.702.707-1.703.707m0-1q.597 0 1-.408q.403-.407.403-1.01t-.404-1.016Q17.346 4 16.749 4t-1 .408t-.403 1.01q0 .603.404 1.016q.404.412 1.001.412M2 12.923v-.883q0-.76.295-1.274t.926-.845q.904-.467 1.92-.704q1.015-.236 2.109-.236q.677 0 1.314.094q.638.094 1.251.277q-.353.146-.664.33q-.311.184-.576.433q-.333-.077-.663-.105t-.662-.03q-.979 0-1.845.195t-1.632.608q-.367.177-.54.446q-.173.27-.216.694h3.958q-.135.244-.23.485q-.095.24-.17.515zm5.251-5.077q-1.001 0-1.703-.707q-.702-.706-.702-1.716t.7-1.716Q6.249 3 7.25 3t1.703.707q.702.706.702 1.716T8.953 7.14q-.7.707-1.702.707m0-1q.597 0 1-.408q.403-.407.403-1.01T8.25 4.412Q7.846 4 7.249 4q-.597 0-1 .408t-.403 1.01q0 .603.404 1.016q.404.412 1.001.412M12 16.173q-.613 0-1.028-.424q-.414-.424-.414-1.037v-2.885q0-.614.414-1.038q.415-.424 1.028-.424t1.028.424q.414.424.414 1.038v2.885q0 .613-.414 1.037q-.415.424-1.028.424M11.558 21v-1.954q-1.627-.16-2.737-1.396q-1.11-1.237-1.11-2.938h.866q0 1.45.996 2.465T12 18.192t2.427-1.019q.996-1.02.996-2.461h.885q0 1.701-1.12 2.938q-1.119 1.237-2.746 1.396V21z"/></svg>