<svg xmlns="http://www.w3.org/2000/svg" width="1em" height="1em" viewBox="0 0 24 24"><path fill="currentColor" d="M20.948 22.37L2.054 3.474l.708-.713l18.894 18.9zM16.75 7.845q-1 0-1.702-.702t-.702-1.72q0-1.02.702-1.722T16.75 3t1.702.702q.702.702.702 1.721q0 1.02-.702 1.721q-.702.702-1.702.702M9.365 6.56L5.96 3.135q.215-.193.428-.327q.214-.135.439-.231q1.327.327 2.077 1.077t.75 1.77q0 .32-.077.601q-.077.28-.212.535M12 16.173q-.613 0-1.028-.424q-.414-.424-.414-1.037v-2.885q0-.271.082-.506q.083-.234.243-.433l2.56 2.56v1.264q0 .613-.415 1.037q-.415.424-1.028.424M11.558 21v-1.954q-1.627-.16-2.737-1.396q-1.11-1.237-1.11-2.938h.866q0 1.45.996 2.465T12 18.192q1.267 0 2.197-.807q.93-.808 1.163-2.025l.725.73q-.398 1.218-1.381 2.016t-2.262.94V21zm5.867-8.077q-.385-1.194-1.23-2.141q-.845-.947-2.01-1.43q.613-.183 1.254-.277t1.311-.094q1.094 0 2.11.236q1.015.237 1.919.704q.63.33.926.845q.295.515.295 1.274v.883zM2 12.923v-.883q0-.76.295-1.274t.926-.845q.904-.467 1.92-.704q1.015-.236 2.109-.236q.5 0 .985.05q.484.05.953.163l.308.302q-1.06.508-1.82 1.417q-.76.91-1.101 2.01z"/></svg>