<svg xmlns="http://www.w3.org/2000/svg" width="1em" height="1em" viewBox="0 0 24 24"><path fill="currentColor" d="M11.5 12.5v2.615q0 .214.143.357q.144.143.357.143t.357-.143q.143-.143.143-.357V12.5h2.615q.214 0 .357-.143q.143-.144.143-.357t-.143-.357q-.143-.143-.357-.143H12.5V8.885q0-.214-.143-.357q-.144-.143-.357-.143t-.357.143q-.143.143-.143.357V11.5H8.885q-.214 0-.357.143q-.143.144-.143.357t.143.357q.143.143.357.143zM12 21q-.323 0-.618-.118q-.295-.119-.551-.36l-7.34-7.347q-.237-.262-.364-.557Q3 12.323 3 12q0-.304.127-.609q.127-.304.363-.541l7.34-7.346q.262-.262.555-.383Q11.677 3 12 3q.304 0 .612.121q.307.121.544.383l7.334 7.346q.256.242.383.544q.127.302.127.606q0 .323-.124.618t-.386.557l-7.334 7.346q-.237.237-.544.358Q12.304 21 12 21m.462-1.192l7.32-7.327q.174-.173.174-.471t-.173-.472l-7.321-7.326q-.174-.174-.472-.174t-.47.174l-7.322 7.326q-.154.174-.154.472t.154.47l7.321 7.328q.173.154.471.154t.472-.154M12 12"/></svg>