<svg xmlns="http://www.w3.org/2000/svg" width="1em" height="1em" viewBox="0 0 24 24"><path fill="currentColor" d="M17.615 16.385V18.5q0 .154.116.27q.115.115.269.115t.27-.116q.115-.115.115-.269v-2.115H20.5q.154 0 .27-.116q.115-.115.115-.269t-.116-.27q-.115-.115-.269-.115h-2.115V13.5q0-.154-.116-.27q-.115-.115-.269-.115t-.27.116q-.115.115-.115.269v2.115H15.5q-.154 0-.27.116q-.115.115-.115.269t.116.27q.115.115.269.115zM18 20q-1.671 0-2.836-1.164T14 16q0-1.671 1.164-2.836T18 12q1.671 0 2.836 1.164T22 16q0 1.671-1.164 2.836T18 20M5 16.385V8.308q0-.384.172-.727q.171-.343.474-.566l5.385-4.077q.223-.161.466-.242t.507-.08q.263 0 .504.08q.24.08.461.242l5.396 4.089q.252.183.397.475q.146.292.146.621v.327q0 .204-.144.343t-.356.138q-.156 0-.268-.089q-.111-.088-.14-.227v-.307q0-.154-.067-.28q-.068-.124-.183-.22L12.365 3.75q-.153-.135-.365-.135t-.365.135L6.25 7.808q-.115.096-.183.22Q6 8.155 6 8.309v8.077q0 .269.173.442t.442.173h3.943q.212 0 .356.144t.144.357q0 .212-.144.356q-.144.143-.356.143H6.615q-.666 0-1.14-.475Q5 17.051 5 16.385m7-6.097"/></svg>