<svg xmlns="http://www.w3.org/2000/svg" width="1em" height="1em" viewBox="0 0 24 24"><path fill="currentColor" d="M11.99 21q-.313 0-.608-.118q-.295-.119-.551-.36l-7.34-7.347q-.237-.262-.364-.556T3 12q0-.304.127-.609q.127-.304.363-.541l7.34-7.346q.262-.262.551-.383Q11.67 3 12 3q.304 0 .612.121q.307.121.544.383l7.334 7.346q.256.242.383.544q.127.302.127.616q0 .313-.124.608t-.386.557l-7.334 7.346q-.237.237-.544.358q-.308.121-.622.121m-.49-8.5v2.615q0 .213.144.357q.144.143.357.143t.356-.143q.143-.144.143-.357V12.5h2.615q.213 0 .357-.144q.143-.144.143-.357t-.143-.356q-.144-.143-.357-.143H12.5V8.885q0-.213-.144-.357q-.144-.143-.357-.143t-.356.143q-.143.144-.143.357V11.5H8.885q-.213 0-.357.144q-.143.144-.143.357t.143.356q.144.143.357.143z"/></svg>