<svg xmlns="http://www.w3.org/2000/svg" width="1em" height="1em" viewBox="0 0 24 24"><path fill="currentColor" d="M17.615 16.385V18.5q0 .154.116.27q.115.115.269.115t.27-.116q.115-.115.115-.269v-2.115H20.5q.154 0 .27-.116q.115-.115.115-.269t-.116-.27q-.115-.115-.269-.115h-2.115V13.5q0-.154-.116-.27q-.115-.115-.269-.115t-.27.116q-.115.115-.115.269v2.115H15.5q-.154 0-.27.116q-.115.115-.115.269t.116.27q.115.115.269.115zM18 20q-1.671 0-2.836-1.164T14 16q0-1.671 1.164-2.836T18 12q1.671 0 2.836 1.164T22 16q0 1.671-1.164 2.836T18 20M5 16.385V8.308q0-.384.172-.727q.171-.343.474-.566l5.385-4.077q.422-.323.966-.323q.543 0 .972.323l5.385 4.077q.303.223.474.567q.172.345.172.73v.425q0 .223-.17.385q-.17.163-.413.132q-1.425-.108-2.812.414q-1.388.522-2.401 1.536q-1.177 1.177-1.665 2.727t-.199 3.144q.068.373-.153.649q-.222.276-.57.276H6.615q-.666 0-1.14-.475Q5 17.051 5 16.385"/></svg>