<svg xmlns="http://www.w3.org/2000/svg" width="1em" height="1em" viewBox="0 0 24 24"><path fill="currentColor" d="M12 8q-1.65 0-2.825 1.175T8 12q0 1.26.716 2.277t1.89 1.465q.188.085.283.28q.096.195.017.384q-.08.177-.246.275q-.168.098-.345.019q-1.498-.538-2.406-1.821Q7 13.596 7 12q0-2.077 1.462-3.538Q9.923 7 12 7q1.583 0 2.878.909q1.295.908 1.828 2.399q.073.177-.032.354q-.105.176-.282.25q-.207.078-.396-.02q-.188-.098-.273-.305q-.448-1.174-1.465-1.88Q13.24 8 12 8m0-4Q8.65 4 6.325 6.325T4 12q0 3.342 2.248 5.63q2.248 2.29 5.546 2.358q.214.012.363.164t.143.365q-.006.214-.149.364t-.357.144q-1.873-.029-3.474-.783q-1.6-.754-2.786-1.991t-1.86-2.856Q3 13.777 3 12q0-1.863.71-3.506t1.927-2.857Q6.852 4.42 8.494 3.71Q10.137 3 12 3q3.56 0 6.251 2.512q2.691 2.511 2.774 6.263q.012.208-.132.36t-.356.16q-.214.005-.378-.15t-.176-.37q-.087-3.154-2.42-5.464T12 4m7.242 16.27l-4.28-4.295l-.52 1.583q-.105.292-.398.29q-.292-.004-.379-.296l-1.448-4.825q-.061-.237.106-.404t.404-.106l4.825 1.448q.292.087.295.38q.003.292-.29.397l-1.582.52l4.3 4.28q.213.214.213.514q0 .3-.213.513q-.213.214-.516.214q-.303 0-.517-.214"/></svg>