<svg xmlns="http://www.w3.org/2000/svg" width="1em" height="1em" viewBox="0 0 24 24"><path fill="currentColor" d="M3 12q0-2.027.802-3.738q.802-1.712 2.18-2.952q1.38-1.24 3.19-1.857q1.809-.616 3.816-.39q.214.031.33.18q.115.15.078.358q-.037.21-.203.339q-.166.13-.376.104q-1.763-.19-3.343.353q-1.58.543-2.807 1.643Q5.44 7.14 4.72 8.676T4 12q0 3.35 2.325 5.675T12 20q1.783 0 3.298-.709q1.516-.709 2.637-1.94q1.15-1.257 1.68-2.859q.531-1.602.34-3.31q-.024-.209.105-.375q.13-.166.339-.203q.209-.037.358.079q.149.115.18.329q.207 2.001-.39 3.801q-.597 1.8-1.829 3.184q-1.3 1.455-3.033 2.229Q13.952 21 12 21q-1.868 0-3.51-.709t-2.857-1.923q-1.215-1.215-1.924-2.858Q3 13.868 3 12m14.618-3.115q-1.041 0-1.772-.729q-.73-.728-.73-1.77q0-1.04.728-1.77q.728-.731 1.77-.731q1.04 0 1.77.728q.731.729.731 1.77q0 1.04-.728 1.77q-.729.732-1.77.732"/></svg>