<svg xmlns="http://www.w3.org/2000/svg" width="1em" height="1em" viewBox="0 0 24 24"><path fill="currentColor" d="M17.618 8.885q-1.041 0-1.772-.729q-.73-.728-.73-1.77q0-1.04.728-1.77q.728-.731 1.77-.731q1.04 0 1.77.728q.731.729.731 1.77q0 1.04-.728 1.77q-.729.732-1.77.732M11.998 21q-1.86 0-3.504-.708q-1.643-.709-2.859-1.924q-1.216-1.214-1.925-2.856Q3 13.87 3 12.003q0-1.866.701-3.5q.7-1.632 1.926-2.857T8.482 3.72q1.63-.7 3.493-.7q.688 0 .938.086t.375.34q.081.167.06.373q-.022.205-.108.41q-.267.486-.388 1.02t-.121 1.136q0 2.027 1.429 3.455q1.428 1.43 3.455 1.43q.554 0 1.1-.122q.545-.121 1.056-.388q.192-.087.385-.096q.192-.008.373.073q.273.125.362.384t.09.904q0 1.863-.701 3.493t-1.926 2.855t-2.861 1.926Q13.857 21 11.997 21"/></svg>