<svg xmlns="http://www.w3.org/2000/svg" width="1em" height="1em" viewBox="0 0 24 24"><path fill="currentColor" d="M18.38 12.5H12q-.27 0-.442.173t-.173.442v2.5q0 .213-.144.357t-.357.143q-.213 0-.356-.143q-.143-.144-.143-.357v-2.5q0-.666.474-1.14q.475-.475 1.141-.475h6.38l-1.74-1.746q-.14-.14-.15-.341q-.01-.201.16-.371q.156-.155.35-.155t.354.16l2.388 2.388q.243.242.243.565q0 .323-.243.565l-2.388 2.389q-.14.14-.341.153t-.371-.157q-.155-.156-.158-.347q-.003-.191.156-.357zM7.616 22q-.666 0-1.14-.475Q6 21.052 6 20.386V3.615q0-.666.475-1.14Q6.949 2 7.615 2h8.77q.666 0 1.14.475q.475.474.475 1.14v2.808q0 .213-.144.356q-.144.144-.357.144q-.212 0-.356-.144Q17 6.636 17 6.423V5.5H7v13h10v-.923q0-.213.144-.356t.357-.144q.212 0 .356.144q.143.143.143.356v2.808q0 .666-.475 1.14q-.474.475-1.14.475z"/></svg>