<svg xmlns="http://www.w3.org/2000/svg" width="1em" height="1em" viewBox="0 0 24 24"><path fill="currentColor" d="M12 12q-.213 0-.357-.144q-.143-.143-.143-.356V4.863L6.677 9.681q-.14.14-.332.133q-.191-.006-.34-.152q-.138-.134-.138-.342q0-.207.14-.347l5.428-5.427q.13-.13.27-.183q.139-.053.298-.053q.159 0 .295.053q.137.052.267.183l5.447 5.446q.14.136.14.34t-.14.349q-.147.165-.357.156q-.21-.01-.357-.156L12.5 4.883V11.5q0 .213-.144.356Q12.212 12 12 12m0 5q-.212 0-.356-.144q-.143-.143-.143-.356v-2q0-.213.144-.356Q11.788 14 12 14t.356.144q.143.144.143.356v2q0 .213-.144.356Q12.212 17 12 17m0 4q-.212 0-.356-.144q-.143-.143-.143-.356v-1q0-.213.144-.356Q11.788 19 12 19t.356.144q.143.144.143.356v1q0 .213-.144.356Q12.212 21 12 21"/></svg>