<svg xmlns="http://www.w3.org/2000/svg" width="1em" height="1em" viewBox="0 0 24 24"><path fill="currentColor" d="M17.501 18.615q-.84 0-1.42-.58q-.581-.579-.581-1.419q0-.84.58-1.42t1.42-.58q.315 0 .594.095q.28.095.521.297v-4.354q0-.343.233-.576q.232-.232.575-.232h1.308q.31 0 .54.221q.229.221.229.548q0 .31-.23.54q-.23.23-.54.23H19.5v5.23q0 .84-.58 1.42t-1.419.58m-13.193 0q-.344 0-.576-.232q-.232-.232-.232-.575v-.839q0-.625.36-1.161q.361-.537.97-.835q1.455-.698 2.853-1.028q1.398-.33 2.817-.33q.652 0 1.242.067q.59.066 1.166.191q.255.062.34.22q.085.157.054.34q-.03.182-.167.304q-.137.12-.343.078q-.525-.1-1.114-.15q-.59-.05-1.178-.05q-1.329 0-2.627.312q-1.298.311-2.565.923q-.38.183-.594.485q-.214.302-.214.634v.646h7.998q.25 0 .375.156q.125.155.125.34q0 .187-.125.346q-.125.158-.375.158zm6.192-7.23q-1.237 0-2.119-.882T7.5 8.385q0-1.238.881-2.12q.881-.88 2.119-.88t2.119.88q.881.882.881 2.12q0 1.237-.881 2.118t-2.119.882m0-1q.825 0 1.413-.588t.587-1.412q0-.825-.587-1.413T10.5 6.385q-.825 0-1.412.587T8.5 8.385q0 .825.588 1.412t1.412.588m0 7.23"/></svg>