<svg xmlns="http://www.w3.org/2000/svg" width="1em" height="1em" viewBox="0 0 24 24"><path fill="currentColor" d="M17.501 18.615q-.84 0-1.42-.58q-.581-.579-.581-1.419q0-.84.58-1.42t1.42-.58q.315 0 .594.095q.28.095.521.297v-4.354q0-.343.233-.576q.232-.232.575-.232h1.308q.31 0 .54.221q.229.221.229.548q0 .31-.23.54q-.23.23-.54.23H19.5v5.23q0 .84-.58 1.42t-1.419.58m-7.001-7.23q-1.237 0-2.119-.882T7.5 8.385q0-1.238.881-2.12q.881-.88 2.119-.88t2.119.88q.881.882.881 2.12q0 1.237-.881 2.118t-2.119.882m-6.192 7.23q-.344 0-.576-.232q-.232-.232-.232-.575v-.839q0-.625.36-1.161q.361-.537.97-.835q1.455-.698 2.853-1.028q1.398-.33 2.817-.33q.585 0 1.128.047q.543.046 1.07.157q.348.062.49.39q.14.33-.036.66q-.217.433-.316.892q-.1.458-.1.931q0 .253.028.496t.09.472q.086.373-.122.664q-.209.291-.557.291z"/></svg>