<svg xmlns="http://www.w3.org/2000/svg" width="1em" height="1em" viewBox="0 0 24 24"><path fill="currentColor" d="M3.615 19q-.69 0-1.152-.462Q2 18.075 2 17.385V6.615q0-.69.463-1.152Q2.925 5 3.615 5h16.77q.69 0 1.152.463q.463.462.463 1.152v10.77q0 .69-.462 1.152q-.463.463-1.153.463zm2.539-6h2.27v1.25q0 .19.125.316q.126.126.316.126t.317-.126q.126-.126.126-.316v-3.865q0-.445-.317-.761q-.316-.316-.76-.316H6.346q-.444 0-.76.316q-.317.316-.317.76v3.866q0 .19.126.316t.317.126q.19 0 .316-.126t.126-.316zm0-.885V10.5q0-.115.096-.212q.096-.096.212-.096h1.653q.116 0 .212.096q.096.097.096.212v1.615zm6.596 1.445l-1.138-3.94q-.056-.148-.167-.23q-.11-.083-.264-.083q-.235 0-.36.172q-.127.172-.065.387l1.286 4.416q.056.186.205.298q.15.111.341.111h.324q.192 0 .34-.111q.15-.112.206-.298l1.286-4.416q.062-.215-.064-.387q-.126-.172-.36-.172q-.155 0-.265.082q-.11.083-.167.231zm5.096-3.368v4.058q0 .19.126.316t.316.126q.19 0 .317-.126q.126-.126.126-.316v-4.5q0-.19-.126-.316t-.317-.126h-1.346q-.19 0-.316.126t-.126.316t.126.316q.126.126.316.126z"/></svg>