<svg xmlns="http://www.w3.org/2000/svg" width="1em" height="1em" viewBox="0 0 24 24"><path fill="currentColor" d="M3.615 19q-.69 0-1.152-.462Q2 18.075 2 17.385V6.615q0-.69.463-1.152Q2.925 5 3.615 5h16.77q.69 0 1.152.463q.463.462.463 1.152v10.77q0 .69-.462 1.152q-.463.463-1.153.463zm0-1h16.77q.269 0 .442-.173t.173-.442V6.615q0-.269-.173-.442T20.385 6H3.615q-.269 0-.442.173T3 6.615v10.77q0 .269.173.442t.442.173M3 18V6zm2.27-3.308h.884V13h2.27v1.692h.884v-4.307q0-.445-.317-.761q-.316-.316-.76-.316H6.346q-.444 0-.76.316q-.317.316-.317.76zm.884-2.577V10.5q0-.115.096-.212q.096-.096.212-.096h1.653q.116 0 .212.096q.096.097.096.212v1.615zm6 2.577h1.192l1.558-5.384h-.923L12.75 13.56l-1.23-4.252h-.924zm5.692 0h.885V9.308H16.5v.884h1.346z"/></svg>