<svg xmlns="http://www.w3.org/2000/svg" width="1em" height="1em" viewBox="0 0 24 24"><path fill="currentColor" d="M3.615 19q-.69 0-1.152-.462Q2 18.075 2 17.385V6.615q0-.69.463-1.152Q2.925 5 3.615 5h16.77q.69 0 1.152.463q.463.462.463 1.152v10.77q0 .69-.462 1.152q-.463.463-1.153.463zm0-1h16.77q.269 0 .442-.173t.173-.442V6.615q0-.269-.173-.442T20.385 6H3.615q-.269 0-.442.173T3 6.615v10.77q0 .269.173.442t.442.173M3 18V6zm2.27-3.308h.884V13h2.115v1.692h.885v-4.307q0-.445-.316-.761q-.317-.316-.761-.316h-1.73q-.445 0-.761.316q-.317.316-.317.76zm.884-2.577V10.5q0-.115.096-.212q.096-.096.212-.096h1.5q.115 0 .211.096q.096.097.096.212v1.615zm5.346 2.577h1.192l1.558-5.384h-.923l-1.23 4.252l-1.232-4.252h-.923zm4.423 0h1.73q.445 0 .761-.316q.317-.316.317-.76v-.385h-.885v.269q0 .135-.086.221q-.087.087-.222.087h-1.5q-.134 0-.22-.087q-.087-.086-.087-.221v-3q0-.135.086-.221q.087-.087.221-.087h1.5q.135 0 .222.087q.086.086.086.221v.308h.885v-.423q0-.445-.317-.761q-.316-.316-.76-.316h-1.73q-.445 0-.761.316q-.317.316-.317.76v3.231q0 .445.317.761q.316.316.76.316"/></svg>