<svg xmlns="http://www.w3.org/2000/svg" width="1em" height="1em" viewBox="0 0 24 24"><path fill="currentColor" d="M5.5 20q0 .213-.144.357q-.143.143-.356.143H2.308q-.344 0-.576-.232q-.232-.232-.232-.576V17q0-.213.144-.356t.357-.144q.212 0 .356.144q.143.144.143.356v2.5H5q.213 0 .356.144q.144.144.144.357M22 16.5q.213 0 .357.144q.143.144.143.356v2.692q0 .344-.232.576q-.232.232-.576.232H19q-.213 0-.356-.144q-.144-.144-.144-.357t.144-.356q.144-.143.356-.143h2.5V17q0-.213.144-.356q.144-.144.357-.144M4.404 18q-.162 0-.283-.121T4 17.596V6.404q0-.162.121-.283T4.404 6h1.192q.162 0 .283.121T6 6.404v11.192q0 .162-.121.283T5.596 18zM7.5 18q-.2 0-.35-.15T7 17.5v-11q0-.2.15-.35T7.5 6q.2 0 .35.15T8 6.5v11q0 .2-.15.35T7.5 18m2.904 0q-.162 0-.283-.121T10 17.596V6.404q0-.162.121-.283T10.404 6h1.192q.162 0 .283.121t.121.283v11.192q0 .162-.121.283t-.283.121zm3 0q-.162 0-.283-.121T13 17.596V6.404q0-.162.121-.283T13.404 6h2.192q.162 0 .283.121t.121.283v11.192q0 .162-.121.283t-.283.121zm4.096 0q-.2 0-.35-.15T17 17.5v-11q0-.2.15-.35T17.5 6q.2 0 .35.15t.15.35v11q0 .2-.15.35t-.35.15m2 0q-.2 0-.35-.15T19 17.5v-11q0-.2.15-.35T19.5 6q.2 0 .35.15t.15.35v11q0 .2-.15.35t-.35.15M5.5 4q0 .213-.144.357Q5.213 4.5 5 4.5H2.5V7q0 .213-.144.356T2 7.5q-.212 0-.356-.144Q1.5 7.213 1.5 7V4.308q0-.344.232-.576q.232-.232.576-.232H5q.213 0 .356.144q.144.144.144.357m13-.002q0-.212.144-.356q.144-.143.356-.143h2.692q.344 0 .576.232q.232.232.232.576V7q0 .213-.144.356q-.144.144-.357.144t-.356-.144Q21.5 7.213 21.5 7V4.5H19q-.213 0-.356-.144q-.144-.144-.144-.357"/></svg>