<svg xmlns="http://www.w3.org/2000/svg" width="1em" height="1em" viewBox="0 0 24 24"><path fill="currentColor" d="m15.95 19.062l3.171-3.19q.148-.147.345-.147q.197 0 .363.146q.165.146.156.357q-.01.21-.156.357l-3.314 3.313q-.243.242-.578.242q-.335 0-.577-.242l-1.189-1.194q-.146-.146-.156-.344q-.01-.198.156-.364q.146-.146.35-.14q.205.006.358.14zM8.692 21q-.343 0-.575-.232q-.232-.232-.232-.576V5.288q0-.343.232-.575q.232-.232.575-.232h1.616v-.673q0-.344.232-.576q.232-.232.575-.232h1.77q.343 0 .575.232q.232.232.232.576v.673h1.62q.344 0 .574.232q.23.232.23.575v6.422q0 .217-.133.372t-.35.199q-.916.202-1.7.668q-.785.466-1.386 1.14q-.687.769-1.079 1.75q-.391.982-.391 2.103q0 .565.098 1.092q.098.527.294 1.016q.143.348-.048.649q-.19.301-.538.301z"/></svg>