<svg xmlns="http://www.w3.org/2000/svg" width="1em" height="1em" viewBox="0 0 24 24"><path fill="currentColor" d="m15.95 19.062l3.171-3.19q.148-.147.345-.147q.197 0 .363.146q.165.146.156.357q-.01.21-.156.357l-3.314 3.313q-.243.242-.578.242q-.335 0-.577-.242l-1.189-1.194q-.146-.146-.156-.344q-.01-.198.156-.364q.146-.146.35-.14q.205.006.358.14zM8.692 21q-.343 0-.575-.232q-.232-.232-.232-.576V5.288q0-.343.232-.575q.232-.232.575-.232h1.616v-.673q0-.344.232-.576q.232-.232.575-.232h1.77q.343 0 .575.232q.232.232.232.576v.673h1.62q.344 0 .574.232q.23.232.23.575v6.27q0 .212-.145.356t-.356.144q-.213 0-.356-.144t-.144-.356V5.462h-6.23V20h2.582q.213 0 .357.144t.143.357q0 .212-.143.356q-.144.143-.357.143z"/></svg>