<svg xmlns="http://www.w3.org/2000/svg" width="1em" height="1em" viewBox="0 0 24 24"><path fill="currentColor" d="M8.692 21q-.348 0-.578-.23q-.23-.23-.23-.578V5.288q0-.348.23-.577q.23-.23.578-.23h1.616v-.673q0-.348.23-.578q.23-.23.577-.23h1.77q.348 0 .578.23q.23.23.23.578v.673h1.615q.348 0 .578.23q.23.23.23.577v6.949q0 .223-.13.412q-.13.19-.348.295q-1.513.733-2.4 2.15q-.886 1.416-.886 3.123q0 .466.064.922t.213.911q.117.348-.072.65q-.19.3-.538.3zm9.52-2.075l-1.766 1.74q-.14.14-.332.134q-.19-.007-.337-.153q-.14-.14-.14-.344t.14-.344l1.746-1.746l-1.765-1.766q-.14-.14-.131-.344q.01-.204.15-.344q.14-.14.344-.14t.344.14l1.747 1.765l1.765-1.765q.14-.14.341-.134q.201.007.347.153q.14.14.14.335q0 .194-.14.334l-1.74 1.766l1.74 1.765q.14.14.134.341q-.007.201-.153.347q-.14.14-.334.14q-.195 0-.335-.14z"/></svg>