<svg xmlns="http://www.w3.org/2000/svg" width="1em" height="1em" viewBox="0 0 24 24"><path fill="currentColor" d="M5.615 20q-.666 0-1.14-.475Q4 19.051 4 18.385V7.487q0-.283.093-.546q.094-.262.28-.48l1.558-1.87q.217-.286.543-.438Q6.8 4 7.176 4h9.61q.376 0 .709.153q.333.152.555.437l1.577 1.91q.186.225.28.491q.093.267.093.553v2.752q0 .424-.276.683q-.276.26-.707.256q-.823.01-1.626.261t-1.466.702q-.31.183-.617.032q-.308-.151-.308-.48V7.808H9v5.47q0 .47.379.705q.379.234.783.023l1.838-.91l1.448.721q.234.127.322.381t-.032.502q-.26.542-.393 1.141q-.133.6-.133 1.25q0 .494.088.988t.265.971q.13.348-.061.65q-.19.3-.539.3zm12.981-2.404h-2.5q-.212 0-.356-.144t-.144-.357q0-.212.144-.356q.144-.143.356-.143h2.5v-2.5q0-.212.144-.356t.357-.144q.213 0 .356.144t.143.356v2.5h2.5q.213 0 .356.144t.144.357q0 .213-.144.356q-.143.143-.356.143h-2.5v2.5q0 .213-.144.356q-.144.144-.357.144q-.212 0-.356-.144q-.143-.143-.143-.356zM5.381 6.808H18.6l-1.33-1.596q-.097-.097-.222-.154Q16.923 5 16.788 5H7.192q-.134 0-.26.058q-.124.057-.22.154z"/></svg>