<svg xmlns="http://www.w3.org/2000/svg" width="1em" height="1em" viewBox="0 0 24 24"><path fill="currentColor" d="M4.615 19q-.666 0-1.14-.475Q3 18.051 3 17.385V9.308q0-.384.172-.727q.171-.343.474-.566l5.385-4.038q.223-.162.466-.242q.243-.081.507-.081t.504.08q.24.081.461.243l3.833 2.858q.208.165.21.35q.003.186-.106.352q-.11.165-.305.22q-.195.055-.403-.11l-3.833-2.878q-.153-.134-.365-.134t-.365.134L4.25 8.808q-.115.096-.183.22Q4 9.155 4 9.309v8.077q0 .269.173.442t.442.173H9.52q.213 0 .356.144t.144.357q0 .212-.144.356Q9.732 19 9.52 19zm12.38-9.308q-2.205 0-3.754 1.54Q11.692 12.77 11.692 15q0 .987.366 1.913q.365.925 1.032 1.652q.123.14.13.316q.007.175-.122.323t-.306.142q-.178-.007-.296-.134q-.804-.856-1.246-1.944q-.442-1.087-.442-2.268q0-2.596 1.809-4.394q1.808-1.798 4.379-1.798q2.594 0 4.395 1.798q1.801 1.798 1.801 4.394q0 1.181-.427 2.269q-.427 1.087-1.255 1.923q-.123.135-.289.138q-.165.003-.294-.145q-.129-.148-.122-.317q.007-.168.13-.308q.667-.708 1.02-1.638q.353-.93.353-1.922q0-2.23-1.54-3.768q-1.542-1.54-3.773-1.54m.005 2.5q-1.165 0-1.987.815q-.82.814-.82 1.993q0 .49.19.94q.19.448.513.839q.112.152.112.34t-.13.316q-.147.148-.325.145q-.178-.003-.295-.163q-.446-.5-.698-1.12q-.252-.62-.252-1.297q0-1.546 1.083-2.62q1.084-1.072 2.605-1.072q1.544 0 2.62 1.073T20.692 15q0 .671-.24 1.304q-.239.633-.704 1.133q-.117.153-.292.147q-.175-.007-.304-.155t-.122-.32q.007-.17.118-.33q.317-.371.489-.82q.17-.447.17-.959q0-1.18-.814-1.993q-.814-.815-1.993-.815m0 8.5q-.19 0-.316-.125t-.126-.317v-4.423q-.225-.123-.363-.347q-.137-.224-.137-.48q0-.396.281-.669q.282-.273.657-.273q.394 0 .67.273t.276.669q0 .256-.122.473q-.122.217-.378.354v4.423q0 .192-.125.317t-.316.125"/></svg>