<svg xmlns="http://www.w3.org/2000/svg" width="1em" height="1em" viewBox="0 0 24 24"><path fill="currentColor" d="M12 7.75q.213 0 .357.144q.143.143.143.356V19.5q0 .213-.144.356Q12.212 20 12 20t-.356-.144q-.143-.143-.143-.356V8.25q0-.213.144-.356q.144-.144.357-.144m-3.77 2.808q.213 0 .357.143q.143.144.143.357v5.615q0 .213-.144.356t-.357.144q-.213 0-.356-.144q-.143-.143-.143-.356v-5.615q0-.213.144-.357q.144-.143.356-.143m7.539 0q.213 0 .356.143q.143.144.143.357v5.615q0 .213-.144.356q-.144.144-.356.144q-.213 0-.357-.144q-.143-.143-.143-.356v-5.615q0-.213.144-.357t.357-.143M12 5q-1.174 0-2.204.572q-1.03.572-1.644 1.605q-.723 1.177-1.918 1.846q-1.196.67-2.58.67H3.5q-.213 0-.356-.145Q3 9.404 3 9.192q0-.213.144-.356q.143-.144.356-.144h.156q1.113 0 2.08-.544q.968-.544 1.537-1.483q.754-1.252 2.01-1.958Q10.537 4 12 4q1.462 0 2.717.707t2.009 1.958q.55.939 1.51 1.483t2.107.544h.156q.213 0 .356.144t.144.357q0 .213-.144.356t-.356.143h-.15q-1.383 0-2.578-.669q-1.195-.67-1.899-1.846q-.613-1.033-1.643-1.605Q13.2 5 12 5m-7.54 9.365q-.212 0-.355-.144q-.143-.143-.143-.356t.143-.356q.144-.144.357-.144t.356.144t.144.357q0 .213-.144.356t-.357.143m15.077 0q-.213 0-.356-.144t-.144-.356q0-.213.144-.356q.144-.144.357-.144t.356.144q.143.144.143.357t-.143.356t-.357.143"/></svg>