<svg xmlns="http://www.w3.org/2000/svg" width="1em" height="1em" viewBox="0 0 24 24"><path fill="currentColor" d="M3.613 20q-.257 0-.435-.18Q3 19.642 3 19.386v-6.958q0-.137.015-.273q.016-.137.066-.267L4.985 6.5q.073-.238.281-.37q.209-.13.465-.13h2.884q.213 0 .357.144q.143.144.143.357q0 .212-.143.356Q8.828 7 8.615 7H5.888l-1.473 4.154h7.397q.331 0 .632.13q.3.131.518.349l1.967 1.967q-.039.065-.07.135q-.032.069-.013.169q-.173.24-.178.524q-.005.284.14.495q.115.327.429.479q.313.152.669.042q.39.012.672-.197q.282-.209.345-.541q.31.09.614.104q.303.013.613-.037q.327-.073.588.114q.262.186.262.507v3.99q0 .257-.18.437q-.18.179-.438.179t-.435-.18q-.178-.179-.178-.435V18H4.231v1.385q0 .256-.18.436q-.18.179-.438.179m2.815-4.308q.466 0 .788-.326q.322-.327.322-.794t-.326-.788q-.327-.322-.793-.322t-.79.326q-.321.327-.321.793t.326.79q.327.321.794.321m8.571-9.961q.31 0 .521-.21t.21-.52q0-.31-.21-.521T15 4.27q-.31 0-.52.21t-.21.52q0 .31.21.52t.52.21m1.762 6.32l-4.908-4.908q-.157-.157-.256-.383q-.098-.225-.098-.46V2.711q0-.53.353-.87q.354-.342.859-.342h3.586q.236 0 .461.098q.226.099.383.256l4.908 4.908q.367.367.367.86t-.367.86l-3.567 3.568q-.368.367-.86.367q-.494 0-.861-.367"/></svg>