<svg xmlns="http://www.w3.org/2000/svg" width="1em" height="1em" viewBox="0 0 24 24"><path fill="currentColor" d="M17.23 9.578v4.85q0 .343-.231.573q-.233.23-.576.23H14.21q-.168 0-.305-.092q-.136-.092-.2-.256q-.59-1.583-1.585-2.906q-.995-1.323-2.366-2.28q-.323-.212-.229-.57q.095-.358.453-.358h6.436q.357 0 .587.233q.23.232.23.576M7.804 19q-.204 0-.35-.141q-.146-.142-.183-.35q-.16-1.497-1.24-2.54q-1.08-1.042-2.596-1.24q-.204-.025-.32-.181Q3 14.39 3 14.19q0-.212.16-.355q.16-.144.361-.113q1.908.185 3.243 1.523q1.336 1.339 1.507 3.246q.03.208-.11.358t-.357.15m3.773 0q-.233 0-.366-.179q-.134-.179-.165-.43q-.234-3.028-2.372-5.147q-2.137-2.119-5.184-2.31q-.207-.01-.349-.161q-.141-.15-.141-.35q0-.213.157-.36t.378-.134q3.467.19 5.898 2.628t2.632 5.899q.012.232-.132.388q-.144.156-.356.156m-7.615 0q-.414 0-.688-.274Q3 18.452 3 18.038q0-.413.274-.687q.274-.274.688-.274q.413 0 .687.274q.274.274.274.687q0 .414-.274.688q-.274.274-.687.274M21 6.615v10.77q0 .666-.475 1.14q-.474.475-1.14.475H14.95q-.212 0-.356-.144t-.144-.357q0-.212.144-.356q.144-.143.356-.143h4.435q.269 0 .442-.173t.173-.442V6.615q0-.269-.173-.442T19.385 6H4.615q-.269 0-.442.173T4 6.615v.477q0 .213-.144.357t-.357.143q-.212 0-.356-.143Q3 7.305 3 7.092v-.477q0-.666.475-1.14Q3.949 5 4.615 5h14.77q.666 0 1.14.475q.475.474.475 1.14"/></svg>