<svg xmlns="http://www.w3.org/2000/svg" width="1em" height="1em" viewBox="0 0 24 24"><path fill="currentColor" d="M18 8.846q.2 0 .33-.13q.132-.131.132-.331t-.131-.331q-.131-.13-.331-.13t-.33.13q-.132.13-.132.33t.131.331q.131.131.331.131M18 7q.162 0 .273-.112q.112-.111.112-.273v-2.23q0-.162-.112-.273Q18.162 4 18 4t-.273.112q-.112.111-.112.273v2.23q0 .162.112.273Q17.838 7 18 7m0 5.808q.533 0 1.043-.093q.51-.092 1.007-.257q.348-.123.649.066q.301.19.301.557v4.304q0 .67-.472 1.143q-.472.472-1.143.472h-4.252q-.293 0-.482-.205q-.19-.205-.214-.497q-.112-2.067-.944-3.89q-.831-1.821-2.18-3.248q-1.35-1.427-3.131-2.347q-1.782-.919-3.8-1.175q-.592-.075-.987-.435T3 6.269q0-.573.405-.92Q3.81 5 4.402 5h6.575q.31 0 .517.241q.208.242.152.557q-.006.046-.008.098q-.003.052-.003.104q-.193 2.765 1.684 4.787q1.877 2.02 4.681 2.02m0-2.384q-1.671 0-2.836-1.164T14 6.423q0-1.671 1.164-2.835T18 2.423q1.671 0 2.836 1.165T22 6.423q0 1.671-1.164 2.836T18 10.423M3.962 19q-.414 0-.688-.274Q3 18.452 3 18.038q0-.413.274-.687q.274-.274.688-.274q.413 0 .687.274q.274.274.274.687q0 .414-.274.688q-.274.274-.687.274m3.846 0q-.208 0-.354-.141q-.146-.142-.183-.35q-.16-1.497-1.24-2.54q-1.08-1.042-2.596-1.24q-.202-.03-.319-.18Q3 14.4 3 14.192q0-.213.157-.356t.358-.113q1.908.185 3.247 1.523q1.338 1.339 1.51 3.246q.03.208-.11.358t-.354.15m3.769 0q-.233 0-.366-.179q-.134-.179-.165-.43q-.234-3.028-2.372-5.147q-2.137-2.119-5.184-2.31q-.207-.01-.349-.157Q3 10.63 3 10.423q0-.213.157-.36t.378-.134q3.467.19 5.898 2.628t2.632 5.899q.012.232-.131.388q-.144.156-.357.156"/></svg>