<svg xmlns="http://www.w3.org/2000/svg" width="1em" height="1em" viewBox="0 0 24 24"><path fill="currentColor" d="m16.173 10.325l2.52-1.446q.21-.13.21-.348q0-.218-.21-.348l-2.52-1.446q-.186-.106-.404-.106q-.217 0-.404.106l-2.519 1.446q-.211.13-.211.348q0 .217.211.348l2.52 1.446q.186.106.403.106q.218 0 .404-.106m0 2.871l1.789-1.02q.186-.105.295-.294t.108-.407v-1.294l-2.192 1.28q-.186.126-.404.126q-.217 0-.404-.125l-2.192-1.281v1.294q0 .217.109.407q.108.19.295.295l1.788 1.02q.187.105.404.105q.218 0 .404-.106M15.133 19q-.293 0-.482-.205q-.19-.205-.214-.497q-.112-2.067-.944-3.89q-.831-1.821-2.18-3.248q-1.35-1.427-3.131-2.347q-1.782-.919-3.8-1.175q-.592-.075-.987-.435T3 6.269q0-.573.405-.92Q3.81 5 4.402 5h14.983q.67 0 1.143.472q.472.472.472 1.143v10.77q0 .67-.472 1.143q-.472.472-1.143.472zm-7.325 0q-.208 0-.354-.141q-.146-.142-.183-.35q-.16-1.497-1.24-2.55t-2.596-1.23q-.202-.03-.319-.18Q3 14.4 3 14.192q0-.213.16-.356q.16-.144.361-.113q1.908.185 3.243 1.523q1.336 1.339 1.507 3.246q.03.208-.11.358t-.353.15m3.769 0q-.233 0-.366-.179q-.134-.179-.165-.43q-.234-3.028-2.372-5.147q-2.137-2.119-5.184-2.31q-.207-.01-.349-.157Q3 10.63 3 10.423q0-.213.157-.36t.378-.134q3.467.19 5.898 2.625q2.43 2.434 2.632 5.902q.012.232-.131.388q-.144.156-.357.156m-7.789 0q-.332 0-.56-.228Q3 18.544 3 18.212q0-.333.228-.561q.228-.228.56-.228q.333 0 .561.228q.228.228.228.56q0 .333-.228.561q-.228.228-.56.228"/></svg>