<svg xmlns="http://www.w3.org/2000/svg" width="1em" height="1em" viewBox="0 0 24 24"><path fill="currentColor" d="M21 17.385q0 .666-.475 1.14q-.474.475-1.14.475h-4.252q-.285 0-.478-.205t-.218-.497q-.112-2.067-.944-3.89q-.831-1.821-2.18-3.248q-1.35-1.427-3.131-2.347q-1.782-.919-3.8-1.175q-.592-.075-.987-.435T3 6.269q0-.573.405-.92Q3.81 5 4.403 5h14.982q.666 0 1.14.475q.475.474.475 1.14zM7.804 19q-.204 0-.35-.141q-.146-.142-.183-.35q-.16-1.497-1.24-2.55t-2.596-1.23q-.204-.025-.32-.181Q3 14.39 3 14.19q0-.212.16-.355q.16-.144.361-.113q1.908.185 3.243 1.523q1.336 1.339 1.507 3.246q.03.208-.11.358t-.357.15m3.773 0q-.233 0-.366-.179q-.134-.179-.165-.43q-.234-3.028-2.372-5.147q-2.137-2.119-5.184-2.31q-.207-.01-.349-.161q-.141-.15-.141-.35q0-.213.157-.36t.378-.134q3.467.19 5.898 2.625q2.43 2.434 2.632 5.902q.012.232-.132.388q-.144.156-.356.156m-7.79 0q-.331 0-.56-.229Q3 18.542 3 18.211q0-.332.229-.56q.229-.228.56-.228q.332 0 .56.23q.228.228.228.56q0 .331-.229.56q-.229.227-.56.227"/></svg>