<svg xmlns="http://www.w3.org/2000/svg" width="1em" height="1em" viewBox="0 0 24 24"><path fill="currentColor" d="M14.45 19.5q-.212 0-.356-.144T13.95 19t.144-.356q.144-.143.356-.143h4.402l-3.589-2.529q-.18-.123-.212-.314q-.032-.192.079-.37q.11-.179.308-.21q.197-.033.374.077l3.632 2.523l-1.532-4.15q-.074-.183.025-.375q.098-.192.286-.265q.189-.074.39.025q.202.098.275.286l1.489 4.112l1.154-4.225q.067-.189.231-.305t.353-.05q.189.068.315.233q.126.164.058.352l-1.511 5.589q-.079.278-.285.437q-.205.159-.498.159zm-6.835-11h6.77q.212 0 .356-.144t.144-.357t-.144-.356q-.144-.143-.356-.143h-6.77q-.212 0-.356.144T7.115 8t.144.356q.144.143.356.143m0 4h3.77q.212 0 .356-.144t.144-.357t-.144-.356q-.144-.143-.356-.143h-3.77q-.212 0-.356.144T7.115 12t.144.356q.144.143.356.143m-1.827 4l-1.592 1.592q-.211.212-.454.11q-.242-.1-.242-.383V5.115q0-.666.475-1.14q.474-.475 1.14-.475h11.77q.666 0 1.14.475q.475.474.475 1.14v4.331q0 .249-.164.404q-.165.156-.407.15q-1.198.027-2.306.432q-1.108.405-1.959 1.247q-.827.842-1.232 1.947T12 15.929q.006.242-.16.407q-.166.164-.394.164z"/></svg>