<svg xmlns="http://www.w3.org/2000/svg" width="1em" height="1em" viewBox="0 0 24 24"><path fill="currentColor" d="M7 14.5h7.575q.25 0 .375-.155t.125-.342q0-.186-.125-.344t-.375-.159H7q-.213 0-.356.144q-.144.144-.144.357t.144.356q.144.143.356.143m0-4h4q.213 0 .356-.144q.144-.144.144-.357t-.144-.356Q11.213 9.5 11 9.5H7q-.213 0-.356.144Q6.5 9.788 6.5 10t.144.356q.144.143.356.143M4.615 18q-.666 0-1.14-.475Q3 17.051 3 16.385v-8.77q0-.666.475-1.14Q3.949 6 4.615 6h14.77q.666 0 1.14.475q.475.474.475 1.14v1.77q0 .212-.144.356t-.357.144q-.212 0-.356-.144Q20 9.597 20 9.385v-1.77q0-.269-.173-.442T19.385 7H4.615q-.269 0-.442.173T4 7.615v8.77q0 .269.173.442t.442.173h7.173q.213 0 .357.144t.143.357q0 .212-.143.356Q12 18 11.788 18zm16.939-6.046q.106.108.106.238t-.109.238l-.782.782l-.788-.789l.782-.782q.109-.108.24-.108q.13 0 .235.105zm-1.346 1.858l-5.966 5.965q-.074.073-.167.11q-.093.036-.192.036h-.306q-.108 0-.189-.08q-.08-.081-.08-.19v-.305q0-.1.036-.192q.037-.093.11-.168l5.965-5.965zM4 7v10z"/></svg>