<svg xmlns="http://www.w3.org/2000/svg" width="1em" height="1em" viewBox="0 0 24 24"><path fill="currentColor" d="M20.577 14q-.343 0-.576-.23q-.232-.23-.232-.57v-2.4q0-.34.232-.57q.233-.23.576-.23h.961q.344 0 .576.23q.232.23.232.57v2.4q0 .34-.232.57q-.232.23-.576.23zm-3.808 1H11q-.515 0-1.024.132q-.509.131-1.23.445q-.879.367-1.48.52q-.6.153-1.266.153q-1.546 0-2.773-.871T2 13.308v-2.616Q2 9.467 3.227 8.61Q4.454 7.75 6 7.75q.665 0 1.266.153t1.48.52q.721.314 1.23.445Q10.485 9 11 9h5.77q.666 0 1.14.475q.475.474.475 1.14v2.77q0 .666-.475 1.14q-.474.475-1.14.475M2.884 12.385h.692q.154 0 .27-.116q.115-.115.115-.269t-.116-.27q-.115-.115-.27-.115h-.691q-.154 0-.27.116q-.115.115-.115.269t.115.27q.116.115.27.115"/></svg>