<svg xmlns="http://www.w3.org/2000/svg" width="1em" height="1em" viewBox="0 0 24 24"><path fill="currentColor" d="M12.923 14.692h3.539q.205-.155.407-.283q.202-.128.439-.253v-.925h-.885v.577h-2.615v-3.616h2.615v.616h.885v-1.5h-4.385zm-6.23 0h4.384v-1.461h-.885v.577H7.577v-3.616h2.615v.616h.885v-1.5H6.692zM5.614 19q-.69 0-1.152-.462Q4 18.075 4 17.385V6.615q0-.69.463-1.152Q4.925 5 5.615 5h12.77q.69 0 1.152.463q.463.462.463 1.152v7.043q-1.071-.16-2.13.237q-1.058.397-1.818 1.157q-.765.765-1.157 1.818q-.391 1.053-.237 2.13zM19 21v-2h-2v-1h2v-2h1v2h2v1h-2v2z"/></svg>