<svg xmlns="http://www.w3.org/2000/svg" width="1em" height="1em" viewBox="0 0 24 24"><path fill="currentColor" d="M14 14.692h2.23q.126-.023.238-.06q.113-.036.232-.124q.08-.05.18-.122q.1-.073.2-.123q.128-.182.175-.324q.047-.14.047-.324l.006-.165q0-.19-.126-.316t-.317-.126q-.19 0-.316.126t-.126.316v.05q0 .135-.086.221q-.087.087-.222.087h-2q-.115 0-.211-.096q-.096-.097-.096-.212v-3q0-.115.096-.212q.096-.096.211-.096h2q.135 0 .222.087q.086.086.086.221v.05q0 .19.126.316t.316.126q.19 0 .317-.126q.126-.126.126-.316v-.165q0-.445-.317-.761q-.316-.316-.76-.316H14q-.444 0-.76.316q-.317.316-.317.76v3.231q0 .445.316.761q.317.316.761.316M5.615 19q-.69 0-1.152-.462Q4 18.075 4 17.385V6.615q0-.69.463-1.152Q4.925 5 5.615 5h12.77q.69 0 1.152.463q.463.462.463 1.152v6.466q0 .217-.177.381t-.4.153q-.935.008-1.829.398q-.894.39-1.542 1.039q-.66.66-1.044 1.548q-.385.888-.393 1.823q.006.223-.155.4q-.162.177-.38.177zM19 19h-1.5q-.213 0-.357-.143Q17 18.713 17 18.5t.143-.357T17.5 18H19v-1.5q0-.213.143-.357T19.5 16q.213 0 .357.143q.143.144.143.357V18h1.5q.213 0 .357.143q.143.144.143.357t-.143.357Q21.713 19 21.5 19H20v1.5q0 .213-.143.357q-.144.143-.357.143t-.357-.143Q19 20.713 19 20.5zM7.77 14.692H10q.444 0 .76-.316q.317-.316.317-.76v-.166q0-.19-.126-.316t-.316-.126q-.19 0-.317.126q-.126.126-.126.316v.05q0 .135-.086.221q-.087.087-.221.087h-2q-.116 0-.212-.096q-.096-.097-.096-.212v-3q0-.115.096-.212q.096-.096.212-.096h2q.134 0 .22.087q.087.086.087.221v.05q0 .19.126.316t.317.126q.19 0 .316-.126t.126-.316v-.165q0-.445-.316-.761q-.317-.316-.761-.316H7.77q-.445 0-.761.316q-.317.316-.317.76v3.231q0 .445.317.761q.316.316.76.316"/></svg>