<svg xmlns="http://www.w3.org/2000/svg" width="1em" height="1em" viewBox="0 0 24 24"><path fill="currentColor" d="M14.246 16.483q-.177-.073-.265-.272q-.089-.2-.021-.382q.136-.379.23-.76q.093-.382.143-.767l.879.879q-.05.263-.125.51t-.17.51q-.067.209-.272.285q-.205.076-.399-.003m-3.244-1.32q-.183-.073-.268-.252t-.019-.374q.175-.614.257-1.256q.082-.643.082-1.281q0-.263-.006-.521t-.067-.51l1.073 1.073q-.006.72-.1 1.436q-.092.716-.292 1.385q-.068.202-.26.288q-.192.086-.4.012M7.694 13.75q-.157-.073-.236-.23q-.08-.158-.043-.328q.05-.288.095-.596q.044-.308.044-.596t-.044-.596q-.045-.308-.095-.596q-.036-.17.043-.33q.079-.16.236-.228q.233-.098.435-.01q.202.089.263.34q.081.362.121.708q.04.345.04.712t-.04.713q-.04.345-.12.706q-.062.252-.264.34q-.202.09-.435-.009m7.854-1.044l-1-.981q-.011-.93-.171-1.824q-.16-.893-.417-1.73q-.068-.183.018-.382q.085-.199.262-.272q.214-.104.412-.015q.198.088.265.296q.331.992.484 2.051q.153 1.059.153 2.151v.353q0 .18-.006.353M12 21q-1.863 0-3.506-.71t-2.857-1.927Q4.42 17.148 3.71 15.506Q3 13.863 3 12q0-1.608.521-3.024t1.456-2.578l-2.73-2.756Q2.1 3.496 2.1 3.295q0-.2.146-.347q.166-.165.367-.165q.2 0 .347.165l18.528 18.51q.147.146.147.347q0 .2-.166.366q-.146.146-.347.146q-.2 0-.366-.146l-3.154-3.148q-1.162.935-2.578 1.456Q13.608 21 12 21m0-1q1.394 0 2.628-.454t2.249-1.248L5.702 7.123q-.794 1.015-1.248 2.25Q4 10.605 4 12q0 3.325 2.338 5.663T12 20M7.812 4.035q.955-.547 2.015-.79Q10.887 3 12 3q1.788 0 3.44.683q1.652.682 2.923 1.954q1.272 1.27 1.954 2.923Q21 10.212 21 12q0 1.094-.254 2.135q-.254 1.04-.742 1.996q-.098.182-.306.237q-.208.055-.385-.049t-.234-.311q-.058-.208.04-.396q.44-.847.66-1.762Q20 12.935 20 12q0-3.35-2.325-5.675T12 4q-.935 0-1.85.22t-1.762.66q-.188.099-.396.05q-.207-.047-.33-.224q-.124-.177-.078-.375q.045-.198.228-.296"/></svg>