<svg xmlns="http://www.w3.org/2000/svg" width="1em" height="1em" viewBox="0 0 24 24"><path fill="currentColor" d="M19.5 16.73q-.183 0-.341-.127q-.159-.128-.159-.378V5.615q0-.23-.192-.423Q18.615 5 18.385 5H16v1.423q0 .348-.23.578q-.23.23-.578.23h-4.479q-.323 0-.627-.131q-.305-.13-.523-.348L8.185 5.373q-.131-.13-.187-.277t-.056-.288q0-.304.22-.556T8.756 4h1.496q.14-.587.623-.986T12 2.615q.654 0 1.134.4q.48.398.62.985h4.63q.672 0 1.144.472q.472.472.472 1.143v10.616q0 .25-.159.375t-.341.125M12 5.23q.348 0 .578-.23q.23-.23.23-.578t-.23-.578q-.23-.23-.578-.23t-.578.23q-.23.23-.23.578t.23.578q.23.23.578.23M17.573 19L5 6.427v11.958q0 .23.192.423q.193.192.423.192zM5.615 20q-.67 0-1.143-.472Q4 19.056 4 18.385V5.812q0-.097.01-.164t.048-.163l-.964-.964q-.146-.146-.156-.347q-.01-.2.156-.366q.166-.166.357-.166t.357.166l16.384 16.384q.146.146.156.345q.01.198-.156.363q-.165.165-.356.165t-.357-.165l-.964-.958q-.096.039-.163.048q-.067.01-.164.01z"/></svg>