<svg xmlns="http://www.w3.org/2000/svg" width="1em" height="1em" viewBox="0 0 24 24"><path fill="currentColor" d="M20.75 22.171L2.235 3.661q-.147-.146-.156-.347q-.01-.2.156-.366q.165-.165.356-.165t.357.165l18.515 18.515q.147.147.156.345q.01.198-.156.363q-.165.166-.356.166t-.357-.166M11 18.5q-1.458 0-2.479-1.021T7.5 15q0-1.458 1.021-2.479T11 11.5h.5l1 1H11q-1.037 0-1.768.732Q8.5 13.963 8.5 15t.732 1.768q.731.732 1.768.732h6.5l2.685 2.685q-.273.142-.565.228q-.291.087-.62.087q-.898 0-1.587-.562q-.688-.563-.853-1.438zm9.779-2.279q.384.385.561.867q.177.483.154 1.004q-.011.162-.16.221q-.15.06-.28-.07l-1.198-1.199l-1.098-1.098q-.131-.13-.069-.28q.063-.149.224-.16q.522-.023 1.001.154q.48.177.865.561M5 8.5q-1.038 0-1.77-.73Q2.5 7.037 2.5 6q0-.704.362-1.283q.361-.579.953-.902l3.389 3.389q-.323.592-.921.944Q5.685 8.5 5 8.5m9.86 3.346q-.214 0-.357-.143t-.143-.357q0-.102.22-.434q.437-.322.679-.826Q15.5 9.58 15.5 9q0-1.037-.732-1.768Q14.037 6.5 13 6.5H9.525q-.25 0-.375-.159T9.025 6q0-.183.125-.341t.375-.159H13q1.458 0 2.479 1.021T16.5 9q0 .813-.342 1.527q-.343.713-.952 1.18q-.068.074-.162.106q-.094.033-.184.033"/></svg>