<svg xmlns="http://www.w3.org/2000/svg" width="1em" height="1em" viewBox="0 0 24 24"><path fill="currentColor" d="m19.625 16.788l-.738-.738q.507-.833.763-1.855t.33-2.087q-1.21-.493-1.923-1.366t-.847-2.125q-1.887-.16-3.166-1.4t-1.411-3.184q-1.302-.108-2.49.173q-1.19.28-2.199.902l-.732-.733q1.313-.858 2.985-1.203q1.672-.345 3.416-.03q-.07 1.03.247 1.882q.317.853.942 1.451q.625.598 1.515.896q.89.298 1.977.25q-.332 1.437.583 2.489q.915 1.052 2.111 1.217q.047 1.454-.295 2.892q-.341 1.439-1.068 2.57M8.5 14.807q-.529 0-.918-.39q-.39-.39-.39-.918q0-.548.39-.928t.918-.38q.548 0 .928.38t.38.928q0 .529-.38.918q-.38.39-.928.39m12.61 7.723l-3.508-3.508q-1.162.935-2.578 1.456Q13.608 21 12 21q-1.863 0-3.506-.71t-2.857-1.927Q4.42 17.148 3.71 15.506Q3 13.863 3 12q0-1.608.521-3.024t1.456-2.578l-3.09-3.09l.713-.714l19.223 19.223zM12 20q1.394 0 2.628-.454t2.249-1.248L5.702 7.123q-.794 1.015-1.248 2.25Q4 10.605 4 12q0 3.325 2.338 5.663T12 20m1.975-10.025"/></svg>