<svg xmlns="http://www.w3.org/2000/svg" width="1em" height="1em" viewBox="0 0 24 24"><path fill="currentColor" d="M18.27 8.335q-.012.965.593 1.815q.604.85 1.477 1.09q.287.089.483.278q.196.19.177.476q-.038 1.073-.302 2.1q-.263 1.025-.771 1.96q-.098.183-.296.237t-.375-.049q-.177-.104-.232-.302q-.055-.198.043-.386q.41-.754.666-1.596q.255-.843.305-1.793q-1.25-.511-1.943-1.423q-.693-.911-.828-2.182q-1.944-.16-3.29-1.352q-1.346-1.193-1.479-3.175q-1.156-.108-2.16.134q-1.005.243-1.923.74q-.202.099-.41.044q-.207-.055-.33-.232t-.064-.388q.058-.212.24-.31q1.086-.563 2.258-.79q1.172-.225 2.39-.225q.378 0 .68.204q.302.203.302.563q0 1.66 1.238 2.695q1.239 1.036 2.833 1.097q.31.008.516.234q.207.226.201.536M8.5 14.808q-.529 0-.918-.39q-.39-.39-.39-.918q0-.548.39-.928t.918-.38q.548 0 .928.38t.38.928q0 .529-.38.918q-.38.39-.928.39M12 21q-1.863 0-3.506-.71t-2.857-1.927Q4.42 17.148 3.71 15.506Q3 13.863 3 12q0-1.608.521-3.024t1.456-2.578L2.24 3.662q-.146-.147-.155-.348q-.01-.2.155-.366q.166-.165.357-.165q.191 0 .357.165l18.515 18.515q.146.147.156.345q.01.198-.156.363q-.165.166-.356.166t-.357-.166l-3.154-3.148q-1.162.935-2.578 1.456Q13.608 21 12 21m0-1q1.394 0 2.628-.454t2.249-1.248L5.702 7.123q-.794 1.015-1.248 2.25Q4 10.605 4 12q0 3.325 2.338 5.663T12 20m1.994-10.044"/></svg>