<svg xmlns="http://www.w3.org/2000/svg" width="1em" height="1em" viewBox="0 0 24 24"><path fill="currentColor" d="M8.5 14.808q.548 0 .928-.39t.38-.918q0-.548-.38-.928t-.928-.38q-.529 0-.918.38q-.39.38-.39.928q0 .529.39.918q.39.39.918.39M12 21q-1.863 0-3.506-.71t-2.857-1.927Q4.42 17.148 3.71 15.506Q3 13.863 3 12q0-1.608.521-3.024t1.456-2.578L2.24 3.662q-.146-.147-.155-.348q-.01-.2.155-.366q.166-.165.357-.165q.191 0 .357.165l18.515 18.515q.146.147.156.345q.01.198-.156.363q-.165.166-.356.166t-.357-.166l-3.154-3.148q-1.162.935-2.578 1.456Q13.608 21 12 21m6.27-12.665q-.012.965.593 1.815q.604.85 1.477 1.09q.287.089.483.278q.196.19.177.476q-.038.985-.277 1.942q-.238.956-.663 1.847q-.087.165-.222.263q-.134.098-.294.148q-.16.05-.331.02t-.326-.145L7.923 5.125q-.135-.154-.174-.348q-.04-.194.01-.36q.05-.165.158-.319t.273-.24q1.01-.47 2.098-.66q1.087-.192 2.21-.192q.379 0 .68.204q.303.203.303.563q0 1.66 1.238 2.695q1.239 1.036 2.833 1.097q.31.008.516.234q.207.226.201.536"/></svg>