<svg xmlns="http://www.w3.org/2000/svg" width="1em" height="1em" viewBox="0 0 24 24"><path fill="currentColor" d="M5 12.626q0-1.484.555-2.694t1.487-2.19l4.12-4.025q.186-.18.403-.264q.218-.084.435-.084t.435.084q.217.084.403.264l4.12 4.025q.647.68 1.127 1.5q.48.821.717 1.745q.061.176-.07.314q-.132.137-.309.174q-.177.037-.365-.08q-.189-.116-.28-.403q-.205-.71-.59-1.33q-.386-.622-.938-1.162L12 4.3L7.75 8.5q-.875.829-1.312 1.871Q6 11.414 6 12.62q0 2.035 1.282 3.618q1.281 1.582 3.224 2.073q.286.084.4.273q.113.188.082.365q-.03.177-.168.309q-.137.131-.314.09q-2.394-.522-3.95-2.385Q5 15.1 5 12.626m12.49 2.97q-.488-.2-.97-.36q-.482-.16-1.024-.16q-.434 0-.829.098q-.394.097-.782.266q-.16.068-.34.008q-.181-.06-.257-.223q-.067-.165.001-.338q.069-.173.232-.245q.475-.2.973-.325t.997-.125q.546 0 1.08.128q.533.128 1.039.328q.488.2.97.36q.482.16 1.025.16q.434 0 .842-.099t.788-.265q.16-.067.353-.006q.195.062.262.226q.067.18-.01.353q-.077.172-.261.244q-.477.192-.978.311q-.5.12-1.001.12q-.542 0-1.073-.128q-.53-.128-1.037-.328m0 2.616q-.488-.2-.97-.36q-.482-.16-1.024-.16q-.434 0-.829.097q-.394.098-.782.267q-.16.067-.34.008q-.181-.06-.257-.224q-.067-.165.001-.338q.069-.172.232-.244q.475-.2.973-.325t.997-.125q.546 0 1.08.128q.533.127 1.039.327q.488.2.97.36q.482.16 1.025.16q.434 0 .842-.098q.407-.098.788-.266q.16-.067.353-.006q.195.062.262.227q.067.18-.01.352q-.077.173-.261.245q-.477.191-.978.31q-.5.12-1.001.12q-.542 0-1.073-.128q-.53-.127-1.037-.327m0 2.615q-.488-.2-.97-.36q-.482-.16-1.024-.16q-.434 0-.829.098q-.394.097-.782.266q-.16.067-.34.008q-.181-.06-.257-.223q-.067-.166.001-.338q.069-.173.232-.245q.475-.2.973-.325t.997-.125q.546 0 1.08.128q.533.128 1.039.328q.488.2.97.36q.482.16 1.025.16q.434 0 .842-.099t.788-.265q.16-.068.353-.006q.195.061.262.226q.067.18-.01.352q-.077.173-.261.245q-.477.191-.978.311q-.5.12-1.001.12q-.542 0-1.073-.128q-.53-.128-1.037-.328"/></svg>