<svg xmlns="http://www.w3.org/2000/svg" width="1em" height="1em" viewBox="0 0 24 24"><path fill="currentColor" d="M17.49 15.596q-.488-.2-.97-.36q-.482-.16-1.024-.16q-.434 0-.829.098q-.394.097-.782.266q-.16.068-.34.008q-.181-.06-.257-.223q-.067-.165.001-.338q.069-.173.232-.245q.475-.2.973-.325t.997-.125q.546 0 1.08.128q.533.128 1.039.328q.488.2.97.36q.482.16 1.025.16q.434 0 .842-.099t.788-.265q.16-.067.353-.006q.195.062.262.226q.067.18-.01.353q-.077.172-.261.244q-.477.192-.978.311q-.5.12-1.001.12q-.542 0-1.073-.128q-.53-.128-1.037-.328m0 2.616q-.488-.2-.97-.36q-.482-.16-1.024-.16q-.434 0-.829.097q-.394.098-.782.267q-.16.067-.34.008q-.181-.06-.257-.224q-.067-.165.001-.338q.069-.172.232-.244q.475-.2.973-.325t.997-.125q.546 0 1.08.128q.533.127 1.039.327q.488.2.97.36q.482.16 1.025.16q.434 0 .842-.098q.407-.098.788-.266q.16-.067.353-.006q.195.062.262.227q.067.18-.01.352q-.077.173-.261.245q-.477.191-.978.31q-.5.12-1.001.12q-.542 0-1.073-.128q-.53-.127-1.037-.327m0 2.615q-.488-.2-.97-.36q-.482-.16-1.024-.16q-.434 0-.829.098q-.394.097-.782.266q-.16.067-.34.008q-.181-.06-.257-.223q-.067-.166.001-.338q.069-.173.232-.245q.475-.2.973-.325t.997-.125q.546 0 1.08.128q.533.128 1.039.328q.488.2.97.36q.482.16 1.025.16q.434 0 .842-.099t.788-.265q.16-.068.353-.006q.195.061.262.226q.067.18-.01.352q-.077.173-.261.245q-.477.191-.978.311q-.5.12-1.001.12q-.542 0-1.073-.128q-.53-.128-1.037-.328M7.042 7.742l4.12-4.025q.186-.18.403-.264q.218-.084.435-.084t.435.084q.217.084.403.264l4.12 4.025q.529.523.917 1.14q.388.616.67 1.3q.186.46-.13.877q-.317.416-.852.416h-4.948q-.666 0-1.14.475T11 13.09v4.998q0 .535-.416.861q-.417.326-.901.164q-2.112-.703-3.397-2.482Q5 14.853 5 12.62q0-1.477.536-2.716t1.506-2.16"/></svg>