<svg xmlns="http://www.w3.org/2000/svg" width="1em" height="1em" viewBox="0 0 24 24"><path fill="currentColor" d="m6.158 12l2.796 2.796q.146.146.153.344q.006.198-.153.364q-.166.165-.357.168q-.191.003-.357-.162l-2.944-2.945q-.242-.242-.242-.565q0-.323.242-.565L8.24 8.49q.147-.146.348-.152q.2-.007.366.158q.16.166.162.354q.003.188-.162.354zM7 19.5v.885q0 .23.192.423q.193.192.423.192h8.77q.23 0 .423-.192q.192-.193.192-.423V19.5zm0-15h10v-.885q0-.23-.192-.423Q16.615 3 16.385 3h-8.77q-.23 0-.423.192Q7 3.385 7 3.615zM17.842 12l-2.796-2.796q-.146-.146-.153-.344q-.006-.198.153-.364q.166-.165.357-.168q.191-.003.357.162l2.944 2.945q.242.242.242.565q0 .323-.242.565L15.76 15.51q-.147.146-.347.153q-.201.006-.367-.16q-.16-.165-.162-.353q-.003-.188.162-.354zM7 4.5V3zm0 15V21zm.615 2.5q-.69 0-1.152-.462Q6 21.075 6 20.385V17.5q0-.213.143-.357Q6.287 17 6.5 17t.357.143T7 17.5v1h10v-1q0-.213.143-.357T17.5 17q.213 0 .357.143q.143.144.143.357v2.885q0 .69-.462 1.152q-.463.463-1.153.463zm0-20h8.77q.69 0 1.152.463q.463.462.463 1.152V6.5q0 .213-.143.357Q17.713 7 17.5 7t-.357-.143T17 6.5v-1H7v1q0 .213-.143.357T6.5 7q-.213 0-.357-.143Q6 6.713 6 6.5V3.615q0-.69.463-1.152Q6.925 2 7.615 2"/></svg>