<svg xmlns="http://www.w3.org/2000/svg" width="1em" height="1em" viewBox="0 0 24 24"><path fill="currentColor" d="M4.423 5.5h8v-.885q0-.23-.192-.423Q12.038 4 11.808 4h-6.77q-.23 0-.423.192q-.192.193-.192.423zM5.038 21q-.69 0-1.152-.462q-.463-.463-.463-1.153V4.615q0-.69.463-1.152Q4.348 3 5.045 3H11.8q.697 0 1.16.463q.462.462.462 1.152v3.568q0 .204-.144.342q-.144.138-.357.138q-.212 0-.356-.143q-.143-.144-.143-.357V6.5h-8v11h5.96q.212 0 .356.141t.144.35q0 .197-.144.353q-.144.156-.356.156h-5.96v.885q0 .23.192.423q.193.192.423.192h7.552q.213 0 .357.144q.143.144.143.357q0 .212-.143.356q-.144.143-.357.143zm11.885-3q1.508 0 2.562-1.054t1.053-2.561q0-1.508-1.053-2.562t-2.562-1.054q-1.508 0-2.561 1.054q-1.054 1.054-1.054 2.562q0 1.507 1.054 2.561Q15.415 18 16.923 18m-1.2 3q-.34 0-.57-.232q-.23-.232-.23-.576v-1.638q-1.177-.56-1.896-1.672q-.72-1.112-.72-2.502q0-1.39.72-2.497q.72-1.108 1.896-1.668V8.577q0-.343.23-.576q.23-.232.57-.232h2.4q.34 0 .57.232q.23.233.23.576v1.638q1.177.56 1.896 1.672q.72 1.112.72 2.502q0 1.39-.72 2.498q-.719 1.107-1.896 1.667v1.638q0 .344-.23.576q-.23.232-.57.232zm-11.3-2.5V20zm0-13V4z"/></svg>