<svg xmlns="http://www.w3.org/2000/svg" width="1em" height="1em" viewBox="0 0 24 24"><path fill="currentColor" d="M16.923 18q1.508 0 2.562-1.054t1.053-2.561q0-1.508-1.053-2.562t-2.562-1.054q-1.508 0-2.561 1.054q-1.054 1.054-1.054 2.562q0 1.507 1.054 2.561Q15.415 18 16.923 18M5.038 21q-.666 0-1.14-.475q-.475-.474-.475-1.14V4.615q0-.666.475-1.14Q4.372 3 5.038 3h6.77q.666 0 1.14.475q.475.474.475 1.14v3.568q0 .204-.144.342q-.144.138-.357.138q-.212 0-.356-.143q-.143-.144-.143-.357V6.5h-8v11H9.9q.36 0 .648.195q.289.195.489.505q.278.462.646.852q.367.39.792.717q.137.103.214.257q.078.154.078.32q0 .339-.312.496q-.312.158-.686.158zm9.885-.808v-1.638q-1.208-.585-1.911-1.705q-.704-1.12-.704-2.464q0-1.345.704-2.465q.703-1.12 1.911-1.705V8.577q0-.343.23-.576q.23-.232.57-.232h2.4q.34 0 .57.232q.23.233.23.576v1.638q1.208.585 1.912 1.705q.703 1.12.703 2.465q0 1.344-.703 2.464q-.704 1.12-1.912 1.705v1.638q0 .344-.23.576q-.23.232-.57.232h-2.4q-.34 0-.57-.232q-.23-.232-.23-.576"/></svg>