<svg xmlns="http://www.w3.org/2000/svg" width="1em" height="1em" viewBox="0 0 24 24"><path fill="currentColor" d="M17 20q1.475 0 2.738-.675T21.75 17.5q-.75-1.15-2.013-1.825T17 15q-1.475 0-2.738.675T12.25 17.5q.75 1.15 2.013 1.825T17 20m0 1q-1.546 0-2.883-.638q-1.336-.639-2.246-1.718q-.2-.242-.293-.531q-.093-.29-.093-.582q0-.293.09-.61t.296-.565q.885-1.08 2.234-1.718Q15.454 14 17 14t2.883.638q1.336.639 2.246 1.718q.2.242.293.531q.093.29.093.582q0 .293-.09.61t-.296.565q-.885 1.08-2.234 1.718Q18.546 21 17 21m0-2.192q-.529 0-.918-.39q-.39-.39-.39-.918q0-.548.39-.928t.918-.38q.548 0 .928.38t.38.928q0 .529-.38.918q-.38.39-.928.39m-8.121 1.636q-2.692-.95-4.286-3.27Q3 14.851 3 12q0-1.883.701-3.525q.7-1.642 1.916-2.858q1.216-1.215 2.858-1.916Q10.117 3 12 3q3.76 0 6.274 2.487q2.514 2.486 2.709 6.176q.03.25-.12.388t-.332.149q-.183.012-.357-.105q-.174-.116-.186-.385q-.119-3.218-2.442-5.464Q15.223 4 12 4q-1.592 0-2.926.565q-1.334.566-2.359 1.443l5.822 5.82q.176.178.158.373q-.018.195-.158.336q-.14.14-.336.158q-.195.018-.372-.158L6.008 6.715q-.877.968-1.443 2.36Q4 10.464 4 12q0 2.61 1.479 4.64t3.796 2.877q.23.085.292.27q.062.186-.011.363t-.244.278q-.17.1-.433.016"/></svg>