<svg xmlns="http://www.w3.org/2000/svg" width="1em" height="1em" viewBox="0 0 24 24"><path fill="currentColor" d="M1.73 21.038q-.309 0-.52-.21q-.21-.21-.21-.52v-.133q0-.66.508-1.167q.507-.508 1.373-.764q.592-.18 1.069-.196q.477-.015 1.038.035q.212.025.305.19q.094.164.032.35q-.098.285-.154.591t-.056.623v.394q0 .348-.23.578q-.23.23-.577.23zm6.078 0q-.348 0-.578-.23q-.23-.23-.23-.577v-.318q0-1.24 1.384-1.97q1.383-.731 3.616-.731q2.258 0 3.629.73Q17 18.673 17 19.913v.318q0 .348-.23.578q-.23.23-.578.23zm11.884 0q-.348 0-.578-.23q-.23-.23-.23-.577v-.394q0-.316-.055-.623q-.056-.306-.154-.59q-.062-.187.032-.352q.093-.164.305-.19q.561-.05 1.038-.034q.477.015 1.07.196q.865.256 1.372.764q.508.507.508 1.167v.133q0 .31-.21.52t-.52.21zM4.52 17.096q-.594 0-1.008-.414q-.415-.415-.415-1.009q0-.58.415-.992q.414-.412 1.008-.412q.581 0 1.002.412q.421.411.421.992q0 .594-.42 1.009q-.422.414-1.003.414m14.981 0q-.575 0-1-.414q-.423-.415-.423-1.009q0-.58.424-.992q.424-.412.999-.412q.6 0 1.012.412q.411.411.411.992q0 .594-.411 1.009q-.412.414-1.012.414m-7.5-.634q-.904 0-1.548-.645q-.644-.644-.644-1.548q0-.929.644-1.56q.644-.632 1.548-.632q.929 0 1.56.632q.632.631.632 1.56q0 .904-.631 1.548q-.632.645-1.561.645m0-9.404q1.09-1.483 2.487-2.27Q15.883 4 17.4 4q2.327 0 3.963 1.637Q23 7.273 23 9.6q0 .802-.216 1.572q-.217.77-.572 1.49q-.087.213-.283.31t-.41.028q-.188-.062-.285-.238q-.097-.177-.01-.366q.35-.658.563-1.357Q22 10.34 22 9.6q0-1.925-1.338-3.262T17.4 5q-1.433 0-2.606.82q-1.173.82-2.111 1.928q-.273.329-.683.329q-.41 0-.683-.329Q10.385 6.64 9.21 5.82Q8.033 5 6.6 5Q4.675 5 3.338 6.338T2 9.6q0 .74.204 1.449t.554 1.366q.061.183-.017.357t-.26.236q-.214.086-.4-.014q-.187-.1-.293-.313q-.355-.72-.572-1.5T1 9.6q0-2.327 1.637-3.963Q4.273 4 6.6 4q1.517 0 2.913.788q1.397.787 2.487 2.27"/></svg>