<svg xmlns="http://www.w3.org/2000/svg" width="1em" height="1em" viewBox="0 0 24 24"><path fill="currentColor" d="M12 7.058q1.09-1.483 2.487-2.27Q15.883 4 17.4 4q2.333 0 3.967 1.633Q23 7.267 23 9.6q0 .795-.216 1.569q-.217.773-.572 1.493q-.087.213-.283.31t-.403.024q-.195-.058-.292-.234q-.097-.177-.01-.366q.35-.658.563-1.357Q22 10.34 22 9.6q0-1.925-1.338-3.262T17.4 5q-1.433 0-2.606.82q-1.173.82-2.111 1.928q-.273.329-.683.329q-.41 0-.683-.329q-.932-1.108-2.112-1.928Q8.025 5 6.6 5Q4.675 5 3.338 6.338T2 9.6q0 .736.204 1.447q.204.71.554 1.368q.061.183-.017.357t-.263.24q-.21.082-.397-.018q-.187-.1-.293-.313q-.355-.72-.572-1.5Q1 10.401 1 9.6q0-2.333 1.633-3.967Q4.267 4 6.6 4q1.517 0 2.913.788q1.397.787 2.487 2.27M1.73 21.038q-.31 0-.52-.21q-.21-.21-.21-.52v-.133q0-.66.508-1.167q.507-.508 1.373-.764q.592-.18 1.069-.196q.477-.015 1.038.035q.21.02.304.186q.095.168.033.354q-.098.285-.154.591t-.056.623v.394q0 .343-.232.575q-.232.232-.575.232zM7 20.231v-.318q0-1.24 1.387-1.97q1.387-.731 3.618-.731q2.253 0 3.624.73Q17 18.673 17 19.913v.318q0 .343-.232.575q-.232.232-.576.232H7.816q-.356 0-.586-.232q-.23-.232-.23-.575m12.692.807q-.343 0-.575-.232q-.232-.232-.232-.575v-.394q0-.316-.056-.623q-.056-.306-.154-.59q-.062-.187.033-.355q.094-.167.304-.186q.561-.05 1.038-.035t1.07.196q.865.256 1.372.764q.508.507.508 1.167v.133q0 .31-.21.52q-.21.21-.52.21zm-7.694-2.826q-1.692 0-2.808.451q-1.115.452-1.161 1.164v.211h7.948v-.211q-.052-.712-1.155-1.164q-1.103-.451-2.824-.451m-7.479-1.116q-.587 0-1.005-.418q-.418-.418-.418-1.005q0-.58.418-.992q.418-.412 1.005-.412q.581 0 1.002.412q.421.411.421.992q0 .587-.42 1.005q-.422.418-1.003.418m14.981 0q-.575 0-.999-.418q-.424-.418-.424-1.005q0-.58.424-.992q.424-.412 1.003-.412q.596 0 1.008.412q.411.411.411.992q0 .587-.409 1.005q-.41.418-1.014.418m-7.493-.634q-.91 0-1.555-.64q-.644-.64-.644-1.553q0-.932.64-1.562q.639-.63 1.552-.63q.932 0 1.562.628q.63.629.63 1.557q0 .911-.628 1.555t-1.557.645M12 13.077q-.483 0-.837.343q-.355.343-.355.85q0 .482.355.837t.847.355q.492 0 .837-.355t.345-.847q0-.493-.342-.838q-.343-.345-.85-.345m.006 6.961"/></svg>