<svg xmlns="http://www.w3.org/2000/svg" width="1em" height="1em" viewBox="0 0 24 24"><path fill="currentColor" d="M9.173 21.694q-1.15 0-2.014-.696q-.865-.696-1.192-1.785q-.304.506-.84.774q-.535.269-1.127.269q-1.044 0-1.772-.731q-.728-.73-.728-1.77q0-.92.642-1.677q.643-.757 1.621-.766q-.503-.462-.797-1.111q-.293-.65-.293-1.351q0-.656.283-1.263q.282-.608.81-1.047q.142-.163.337-.185q.195-.022.359.12q.163.142.178.337q.016.196-.127.36q-.407.334-.611.774q-.204.44-.204.929q0 1.506 1.084 1.967q1.083.462 2.276.695q.104.03.173.082q.069.052.13.131q.062.079.055.17q-.006.092-.043.195q-.27.733-.41 1.256q-.14.523-.14.967q0 .943.682 1.64t1.649.697q.973 0 1.625-.67t1.087-1.64q.436-.97.693-2.053q.256-1.083.426-1.908q.055-.252.232-.393t.385-.074q.233.067.33.278q.097.212.035.464q-.205 1.015-.507 2.238q-.302 1.223-.832 2.285q-.53 1.061-1.356 1.777q-.826.715-2.099.715m5.602.02q-.22-.02-.372-.163q-.153-.143-.134-.357q.02-.213.172-.366q.153-.153.367-.134q.973 0 1.664-.697t.691-1.664q0-.464-.152-.986q-.153-.522-.428-1.285q-.031-.08-.031-.155q0-.076.061-.15q.062-.072.12-.112q.057-.04.142-.07q1.217-.233 2.325-.71t1.108-1.996q0-1.211-.853-1.796t-1.92-.585q-.914 0-2.112.29t-2.73.785q-.253.068-.47.001q-.217-.066-.285-.299q-.067-.232.077-.425q.145-.192.377-.26q1.518-.48 2.745-.805t2.288-.325q1.513 0 2.698.89t1.185 2.53q0 .701-.284 1.321t-.787 1.12q.978.03 1.62.767t.643 1.678q0 1.019-.728 1.76q-.728.74-1.772.74q-.592 0-1.128-.269q-.535-.268-.84-.774q-.326 1.083-1.207 1.789q-.88.706-2.05.711M9.59 14.678q-1.828-1.654-2.96-2.992Q5.5 10.348 5.5 8.775q0-1.413.968-2.382q.969-.968 2.382-.968q.273 0 .492.032t.416.09q-.12-.232-.189-.472q-.069-.24-.069-.515q0-1.039.73-1.77q.732-.73 1.77-.73t1.77.73q.73.731.73 1.77q0 .275-.07.512t-.188.468q.18-.057.416-.086q.236-.029.492-.029q.842 0 1.536.392t1.135 1.037q.139.154.121.352q-.017.198-.17.336q-.155.139-.353.121q-.198-.017-.336-.17q-.308-.49-.804-.779q-.496-.289-1.129-.289q-.896 0-1.441.46q-.546.46-1.392 1.43q-.067.073-.16.11q-.092.037-.176.037q-.085 0-.17-.037t-.153-.11q-.852-1.015-1.401-1.452q-.55-.438-1.407-.438q-1.012 0-1.68.67q-.67.668-.67 1.68q0 1.108.997 2.332q.997 1.224 2.788 2.864q.196.166.258.401q.063.236-.103.401q-.17.171-.412.124q-.241-.047-.438-.218M4 19.256q.617 0 1.059-.442q.441-.44.441-1.058q0-.618-.441-1.059q-.442-.441-1.059-.441t-1.059.441q-.441.441-.441 1.059q0 .617.441 1.058q.442.442 1.059.442M12 6.06q.617 0 1.059-.442q.441-.441.441-1.058q0-.618-.441-1.059Q12.617 3.06 12 3.06t-1.059.44q-.441.442-.441 1.06q0 .617.441 1.058q.442.442 1.059.442m8.025 13.196q.617 0 1.046-.442q.429-.44.429-1.058q0-.618-.441-1.071q-.442-.454-1.059-.454t-1.059.441q-.441.441-.441 1.059q0 .617.454 1.07q.454.455 1.071.455M20 17.73"/></svg>