<svg xmlns="http://www.w3.org/2000/svg" width="1em" height="1em" viewBox="0 0 24 24"><path fill="currentColor" d="m15.317 12.5l-1-1H16.5v1zm-4.238-1v1H7.5v-1zm10.03 11.03l-3.507-3.507q-1.162.935-2.578 1.456Q13.608 21 12 21q-1.868 0-3.51-.709t-2.857-1.923q-1.215-1.215-1.924-2.858Q3 13.868 3 12q0-1.608.521-3.024t1.456-2.578l-3.09-3.09l.713-.714l19.223 19.223zM12 20q1.394 0 2.628-.454t2.249-1.248L5.702 7.123q-.794 1.015-1.248 2.25Q4 10.605 4 12q0 3.325 2.338 5.663T12 20m7.625-3.192l-.744-.745q.544-.894.832-1.912Q20 13.13 20 12q0-3.325-2.337-5.663T12 4q-1.125 0-2.147.288q-1.022.287-1.916.831l-.745-.744q1.05-.656 2.262-1.015Q10.667 3 12 3q1.868 0 3.51.709t2.858 1.924q1.215 1.215 1.923 2.857Q21 10.133 21 12q0 1.333-.36 2.546q-.36 1.213-1.015 2.262m-8.333-4.1"/></svg>