<svg xmlns="http://www.w3.org/2000/svg" width="1em" height="1em" viewBox="0 0 24 24"><path fill="currentColor" d="m15.312 12.5l-1-1h1.713q.194 0 .335.144q.14.144.14.357t-.144.356q-.143.143-.356.143zm-4.233-1v1H8q-.213 0-.356-.144Q7.5 12.212 7.5 12t.144-.356Q7.788 11.5 8 11.5zM12 21q-1.868 0-3.51-.709t-2.857-1.923q-1.215-1.215-1.924-2.858Q3 13.868 3 12q0-1.608.521-3.024t1.456-2.578l-2.73-2.756Q2.1 3.496 2.1 3.295q0-.2.146-.347q.166-.165.367-.165q.2 0 .347.165l18.528 18.51q.147.146.147.347q0 .2-.166.366q-.146.146-.347.146q-.2 0-.366-.146l-3.154-3.148q-1.162.935-2.578 1.456Q13.608 21 12 21m0-1q1.394 0 2.628-.454t2.249-1.248L5.702 7.123q-.794 1.015-1.248 2.25Q4 10.605 4 12q0 3.325 2.338 5.663T12 20M7.812 4.035q.955-.547 2.015-.79Q10.887 3 12 3q1.788 0 3.44.683q1.652.682 2.923 1.954q1.272 1.27 1.954 2.923Q21 10.212 21 12q0 1.094-.254 2.135q-.254 1.04-.742 1.996q-.092.182-.303.237t-.383-.049q-.173-.104-.235-.311q-.062-.208.036-.396q.44-.855.66-1.766Q20 12.935 20 12q0-3.35-2.325-5.675T12 4q-.935 0-1.846.22t-1.766.66q-.188.099-.396.05q-.207-.047-.33-.224q-.124-.177-.078-.375q.045-.198.228-.296"/></svg>