<svg xmlns="http://www.w3.org/2000/svg" width="1em" height="1em" viewBox="0 0 24 24"><path fill="currentColor" d="M21.27 8.192v9q0 .25-.156.375t-.341.125q-.186 0-.345-.13q-.159-.129-.159-.375V8.154h-8.577q-.44 0-.74-.3q-.298-.298-.298-.739V4.154H7.198q-.25 0-.375-.155t-.125-.342q0-.186.125-.344t.375-.16h3.417q.44 0 .74.3q.299.299.299.74v2.96h8.577q.44 0 .74.3q.298.299.298.74m.146 14.105l-2.15-2.144H3.77q-.44 0-.74-.3q-.298-.298-.298-.739V3.608L1.515 2.392q-.14-.14-.15-.344q-.01-.204.15-.363q.16-.16.354-.16t.354.16l19.9 19.9q.14.14.153.341q.012.2-.157.37q-.156.156-.347.159q-.191.003-.357-.157M3.731 19.154h3v-3h-3zm0-4h3v-3h-3zm0-4h3v-3h-3zm4 8h3v-3h-3zm0-4h3v-3h-3zm4 4h6.534l-3-3h-3.534zm5.769-7h-1v-1h1z"/></svg>