<svg xmlns="http://www.w3.org/2000/svg" width="1em" height="1em" viewBox="0 0 24 24"><path fill="currentColor" d="M12 17.02q-1.583 0-2.878-.9q-1.295-.899-1.828-2.408q-.073-.177.03-.354t.284-.25q.202-.08.393.016q.191.095.276.309q.448 1.167 1.465 1.877q1.018.71 2.258.71q1.65 0 2.825-1.176T16 12.02q0-1.26-.712-2.274t-1.9-1.462q-.207-.085-.29-.286q-.083-.2-.004-.384q.08-.182.244-.275q.164-.092.34-.019q1.499.533 2.41 1.828Q17 10.442 17 12.02q0 2.077-1.462 3.539Q14.077 17.02 12 17.02m0 4q-3.68 0-6.312-2.569t-2.694-6.22q-.006-.207.142-.353q.147-.146.36-.152q.214-.006.368.138t.167.362q.092 3.158 2.457 5.476Q8.852 20.019 12 20.019q3.35 0 5.675-2.325T20 12.02q0-3.279-2.277-5.608q-2.277-2.33-5.523-2.38q-.22-.012-.362-.173q-.144-.162-.138-.375q.006-.214.152-.354q.146-.14.354-.135q1.815.03 3.416.754q1.601.725 2.793 1.953q1.193 1.228 1.889 2.856T21 12.019q0 1.864-.71 3.506t-1.927 2.858q-1.215 1.215-2.857 1.926q-1.643.71-3.506.71m-1.18-9.211L6.537 7.513L6.02 9.096q-.106.292-.398.29q-.292-.003-.379-.296L3.794 4.265q-.061-.223.113-.397q.174-.174.397-.112l4.825 1.448q.292.086.295.379q.003.292-.29.398L7.553 6.5l4.3 4.28q.213.214.213.514q0 .3-.213.514q-.214.213-.516.213q-.303 0-.517-.213"/></svg>