<svg xmlns="http://www.w3.org/2000/svg" width="1em" height="1em" viewBox="0 0 24 24"><path fill="currentColor" d="M5.808 20q-.348 0-.578-.23q-.23-.23-.23-.578v-1.02q0-.324.13-.629q.132-.305.349-.522L18.213 4.292q.166-.165.349-.229q.182-.063.365-.063q.188 0 .378.063q.19.064.33.23l1.073 1.072q.165.14.229.33q.063.19.063.378q0 .183-.063.365q-.064.183-.23.349L7.98 19.52q-.217.217-.522.348q-.305.131-.628.131zM6 19h1.073L17.63 8.45l-.527-.552l-.552-.527L6 17.927zM20 6.079L18.921 5zm-2.898 1.82l-.552-.528l1.079 1.079zM14.269 20q1.658 0 3.08-.79q1.42-.79 1.42-2.21q0-.762-.477-1.388q-.477-.625-1.377-1.068q-.177-.096-.375-.038q-.198.057-.3.223t-.044.372q.058.207.235.303q.638.313.988.721t.35.875q0 .844-1.037 1.422q-1.038.578-2.463.578q-.213 0-.356.143t-.144.357q0 .213.144.357q.143.143.356.143M10 6.5q0 .523-.553.945q-.553.422-2.185 1.147q-1.866.818-2.564 1.444T4 11.5q0 .592.338 1.025q.339.433.814.73q.171.122.36.075q.188-.047.31-.218q.12-.172.076-.37t-.215-.319q-.348-.221-.516-.452Q5 11.741 5 11.5q0-.454.556-.888q.556-.435 2.102-1.099q1.969-.834 2.655-1.503Q11 7.34 11 6.5q0-1.087-.975-1.793Q9.05 4 7.5 4q-.933 0-1.772.342q-.84.343-1.218.84q-.14.172-.12.37q.022.198.193.333q.17.12.36.1q.188-.022.328-.162q.408-.408.967-.615Q6.798 5 7.5 5q1.179 0 1.84.444q.66.444.66 1.056"/></svg>