<svg xmlns="http://www.w3.org/2000/svg" width="1em" height="1em" viewBox="0 0 24 24"><path fill="currentColor" d="M4.615 5h14.77q.69 0 1.152.463q.463.462.463 1.152V11.5q0 .213-.144.356q-.144.144-.357.144q-.212 0-.356-.144Q20 11.713 20 11.5V6.615q0-.23-.192-.423Q19.615 6 19.385 6H4.615q-.23 0-.423.192Q4 6.385 4 6.615v2q0 .213-.144.357t-.357.143q-.212 0-.356-.143Q3 8.828 3 8.615v-2q0-.69.463-1.152Q3.925 5 4.615 5m0 14q-.69 0-1.152-.462Q3 18.075 3 17.385v-2q0-.213.144-.357q.144-.143.357-.143q.212 0 .356.143q.143.144.143.357v2q0 .23.192.423q.193.192.423.192h5.866q.212 0 .356.144t.144.357q0 .212-.144.356q-.144.143-.356.143zm9.039-2.19q0-.882.61-1.52q.61-.636 1.486-.636q.451 0 .86.204q.407.204.813.605l.577.52l.538-.5q.4-.402.825-.616q.424-.213.887-.213q.858 0 1.477.637q.62.637.62 1.519q0 .705-.593 1.408q-.592.703-2.677 2.501l-.562.475q-.125.106-.256.15q-.132.043-.264.043t-.268-.042q-.136-.041-.262-.145l-.567-.48q-2.085-1.799-2.664-2.502q-.58-.703-.58-1.408M18 20.312l.777-.652q1.611-1.373 2.09-1.9q.48-.525.48-.952q0-.462-.33-.808t-.767-.346q-.273 0-.495.107t-.486.364L18 17.338l-1.294-1.213q-.264-.258-.489-.364q-.225-.107-.467-.107q-.46 0-.778.346t-.318.808q0 .416.524.995q.524.58 2.078 1.895zM7 16.5q-.165 0-.278-.06t-.18-.202L4.682 12.5H3.5q-.213 0-.356-.144Q3 12.212 3 12t.144-.356q.143-.143.356-.143H5q.136 0 .253.077q.118.076.18.204L7 14.89l3.542-7.11q.064-.116.191-.173q.127-.058.267-.058t.26.058q.119.057.178.173l1.854 3.719H16q.213 0 .356.144q.144.144.144.357t-.144.356q-.143.143-.356.143h-3q-.165 0-.278-.06t-.18-.202l-1.561-3.103l-3.548 7.103q-.068.14-.183.201T7 16.5m11 1.483"/></svg>