<svg xmlns="http://www.w3.org/2000/svg" width="1em" height="1em" viewBox="0 0 24 24"><path fill="currentColor" d="M11.25 21q-.96 0-1.893-.255t-1.809-.758q.53-2.41 1.789-4.506q1.257-2.096 3.128-3.712q-2.173 1.266-3.772 3.181q-1.599 1.915-2.168 4.346q-.12-.094-.216-.182t-.217-.206q-1.002-1.04-1.547-2.318Q4 15.313 4 13.95q0-1.508.588-2.875q.589-1.367 1.654-2.433Q7.8 7.085 10.07 6.481q2.27-.604 6.42-.481q.535.025.989.23t.802.553q.348.348.55.795q.202.447.232.982q.131 4.038-.486 6.342t-2.17 3.856q-1.051 1.09-2.39 1.666q-1.34.576-2.767.576"/></svg>