<svg xmlns="http://www.w3.org/2000/svg" width="1em" height="1em" viewBox="0 0 24 24"><path fill="currentColor" d="M15.327 22q-1.979 0-3.632-1.065q-1.653-1.066-2.449-2.866q-.104-.232-.094-.468q.01-.236.163-.443q.154-.208.362-.318q.208-.11.471-.11h6.725q.044-.351.066-.722q.023-.37.023-.76q0-.317-.023-.641q-.022-.324-.07-.684h-.932q-.213 0-.357-.144q-.143-.144-.143-.357q0-.212.143-.356q.144-.143.357-.143h4.51q-.428-.935-1.162-1.65q-.735-.717-1.675-1.12q-.214-.09-.306-.303t-.014-.396q.08-.183.256-.275q.177-.092.348-.014q1.881.777 2.994 2.455Q22 13.298 22 15.327q0 2.78-1.946 4.727Q18.107 22 15.327 22m-1.221-1.204q-.425-.75-.717-1.513q-.29-.764-.453-1.552h-2.71q.541 1.182 1.556 2t2.324 1.065m1.22.139q.532-.743.86-1.548q.327-.806.516-1.656h-2.75q.188.85.51 1.656q.32.805.865 1.548m1.221-.139q1.31-.248 2.334-1.065q1.024-.818 1.564-2h-2.733q-.182.788-.461 1.552q-.279.763-.704 1.513m1.325-4.065h2.95q.089-.327.133-.68q.044-.353.044-.724t-.044-.724q-.044-.353-.133-.68h-2.95q.044.323.066.665q.023.34.023.664q0 .378-.023.74q-.022.36-.066.739m-9.199-1.385q-2.78 0-4.727-1.946Q2 11.454 2 8.674q0-2.78 1.946-4.727Q5.892 2 8.672 2q2.78 0 4.727 1.946q1.947 1.946 1.947 4.726q0 2.78-1.946 4.727q-1.946 1.947-4.726 1.947m.003-1q2.348 0 4.009-1.664q1.66-1.665 1.66-4.013t-1.664-4.008Q11.017 3 8.669 3T4.661 4.664Q3 6.33 3 8.677t1.664 4.009q1.665 1.66 4.013 1.66m-2.37-6.365q.291 0 .511-.21q.22-.21.22-.52q0-.31-.22-.521q-.22-.21-.52-.21t-.51.21q-.211.209-.211.52q0 .31.21.52t.52.21m2.376 4.093q.979 0 1.791-.454q.813-.454 1.314-1.196l-6.23-.02q.502.762 1.324 1.216q.822.454 1.8.454m2.376-4.092q.29 0 .51-.21q.22-.21.22-.52q0-.31-.22-.521t-.52-.21q-.3 0-.51.21q-.211.209-.211.52q0 .31.21.52t.52.21m-2.384.693"/></svg>