<svg xmlns="http://www.w3.org/2000/svg" width="1em" height="1em" viewBox="0 0 24 24"><path fill="currentColor" d="M7.115 17.692h3.423q.344 0 .576-.232q.232-.232.232-.575v-1.923q0-.344-.232-.576q-.232-.232-.576-.232H7.115q-.343 0-.575.232q-.232.232-.232.576v1.923q0 .343.232.575q.232.232.575.232m0-4.846h3.423q.344 0 .576-.232q.232-.232.232-.576V7.115q0-.343-.232-.575q-.232-.232-.576-.232H7.115q-.343 0-.575.232q-.232.232-.232.575v4.923q0 .344.232.576q.232.232.575.232m6.347 4.846h3.423q.343 0 .575-.232q.232-.232.232-.575v-4.923q0-.344-.232-.576q-.232-.232-.575-.232h-3.423q-.344 0-.576.232q-.232.232-.232.576v4.923q0 .343.232.575q.232.232.576.232m0-7.846h3.423q.343 0 .575-.232q.232-.232.232-.576V7.115q0-.343-.232-.575q-.232-.232-.575-.232h-3.423q-.344 0-.576.232q-.232.232-.232.575v1.923q0 .344.232.576q.232.232.576.232M5.615 20q-.69 0-1.152-.462Q4 19.075 4 18.385V5.615q0-.69.463-1.152Q4.925 4 5.615 4h12.77q.69 0 1.152.463q.463.462.463 1.152V7.77h1.038q.213 0 .357.144t.143.357q0 .213-.143.356q-.144.143-.357.143H20v2.73h1.038q.213 0 .357.144q.143.144.143.357t-.143.356q-.144.143-.357.143H20v2.73h1.038q.213 0 .357.145q.143.144.143.356q0 .213-.143.357q-.144.143-.357.143H20v2.154q0 .69-.462 1.152q-.463.463-1.153.463zm0-1h12.77q.23 0 .423-.192q.192-.193.192-.423V5.615q0-.23-.192-.423Q18.615 5 18.385 5H5.615q-.23 0-.423.192Q5 5.385 5 5.615v12.77q0 .23.192.423q.193.192.423.192M5 5v14z"/></svg>