<svg xmlns="http://www.w3.org/2000/svg" width="1em" height="1em" viewBox="0 0 24 24"><path fill="currentColor" d="M16.546 7.473q.094.075.1.197q.006.122-.044.247L14.7 11.175q-.106.167-.295.198q-.19.03-.332-.111l-1.335-1.335q-.142-.142-.111-.332q.03-.19.198-.295l3.258-1.902q.125-.07.247-.054q.122.016.216.13M12 20q1.344 0 2.59-.438q1.247-.439 2.287-1.258l-4.365-4.366l-4.595 2.664q-.269.144-.466-.053q-.197-.197-.053-.466l2.652-4.606l-4.354-4.354q-.82 1.04-1.258 2.287Q4 10.656 4 12q0 3.35 2.325 5.675T12 20m0 1q-1.863 0-3.506-.71t-2.857-1.927Q4.42 17.148 3.71 15.506Q3 13.863 3 12q0-1.533.502-2.962q.502-1.428 1.475-2.634L3.094 4.52q-.165-.165-.165-.357t.165-.356q.166-.166.357-.166t.357.166l16.384 16.384q.16.16.16.354q0 .194-.16.354q-.165.165-.356.165t-.357-.165l-1.883-1.877q-1.206.973-2.634 1.475Q13.532 21 12 21M7.812 4.035q.955-.547 2.015-.79Q10.887 3 12 3q1.788 0 3.44.683q1.652.682 2.923 1.954q1.272 1.27 1.954 2.923Q21 10.212 21 12q0 1.094-.254 2.135q-.254 1.04-.742 1.996q-.098.182-.306.237q-.208.055-.385-.049t-.234-.311q-.058-.208.04-.396q.44-.847.66-1.762Q20 12.935 20 12q0-3.35-2.325-5.675T12 4q-.935 0-1.85.22t-1.762.66q-.188.099-.396.05q-.207-.047-.33-.224q-.124-.177-.078-.375q.045-.198.228-.296"/></svg>