<svg xmlns="http://www.w3.org/2000/svg" width="1em" height="1em" viewBox="0 0 24 24"><path fill="currentColor" d="M12 21q-1.863 0-3.506-.71t-2.857-1.927Q4.42 17.148 3.71 15.506Q3 13.863 3 12q0-1.596.521-3.012t1.456-2.584L3.094 4.52q-.146-.146-.156-.347q-.01-.2.156-.366q.166-.166.357-.166t.357.166l16.384 16.384q.146.146.156.345q.01.198-.156.363q-.165.165-.356.165t-.357-.165l-1.883-1.877q-1.167.935-2.583 1.456Q13.596 21 12 21m.512-7.062l-2.462-2.461l-2.652 4.606q-.144.269.053.466q.197.197.466.053zM12 3q1.863 0 3.506.71t2.857 1.927q1.216 1.215 1.926 2.857Q21 10.137 21 12q0 .915-.184 1.822q-.183.907-.55 1.76q-.131.293-.361.427q-.23.133-.522.133q-.212 0-.389-.068q-.177-.068-.338-.23L14.88 12.07q-.206-.206-.227-.473q-.021-.267.11-.504l1.838-3.175q.144-.25-.053-.447q-.197-.197-.466-.072l-3.175 1.839q-.237.13-.504.11q-.267-.022-.473-.228L8.156 5.344q-.143-.142-.22-.326q-.078-.183-.078-.376q0-.292.136-.531q.137-.24.423-.376q.854-.368 1.76-.551Q11.086 3 12 3"/></svg>