<svg xmlns="http://www.w3.org/2000/svg" width="1em" height="1em" viewBox="0 0 24 24"><path fill="currentColor" d="M3.615 22q-.69 0-1.152-.462Q2 21.075 2 20.385v-2.116q0-.213.143-.356q.144-.144.357-.144t.357.144t.143.356v2.116q0 .269.173.442t.442.173h2.116q.213 0 .357.143t.143.357q0 .213-.143.357Q5.944 22 5.73 22zm16.77 0h-2.116q-.213 0-.356-.143q-.144-.144-.144-.357t.144-.357t.356-.143h2.116q.269 0 .442-.173t.173-.442v-2.116q0-.213.143-.356t.357-.144q.213 0 .357.144q.143.143.143.356v2.116q0 .69-.462 1.152q-.463.463-1.153.463M12 17.73q-2.42 0-4.39-1.226q-1.972-1.227-3.15-3.46q-.131-.242-.187-.497q-.056-.255-.056-.522q0-.273.056-.55t.187-.52q1.178-2.232 3.15-3.459Q9.58 6.27 12 6.27t4.39 1.227q1.972 1.227 3.15 3.46q.131.242.187.506q.056.265.056.538t-.056.537q-.056.265-.187.507q-1.178 2.233-3.15 3.46Q14.42 17.73 12 17.73m0-1q2.277 0 4.083-1.239Q17.888 14.254 18.92 12q-1.033-2.254-2.838-3.492Q14.277 7.269 12 7.269T7.917 8.508Q6.112 9.746 5.08 12q1.033 2.254 2.838 3.492Q9.723 16.731 12 16.731m0-1.866q1.2 0 2.033-.832q.832-.833.832-2.033t-.832-2.033Q13.2 9.135 12 9.135t-2.033.832Q9.135 10.8 9.135 12t.832 2.033q.833.832 2.033.832m0-1q-.779 0-1.322-.543T10.135 12q0-.779.543-1.322T12 10.135q.779 0 1.322.543T13.865 12q0 .779-.543 1.322T12 13.865M5.73 3H3.616q-.269 0-.442.173T3 3.615v2.616H2V3.615q0-.69.463-1.152Q2.925 2 3.615 2h2.116q.213 0 .357.143q.143.144.143.357t-.143.357T5.73 3M22 3.615v2.116q0 .213-.143.357q-.144.143-.357.143t-.357-.143T21 5.73V3.615q0-.269-.173-.442T20.385 3h-2.116q-.213 0-.356-.143t-.144-.357q0-.213.144-.357q.143-.143.356-.143h2.116q.69 0 1.152.463q.463.462.463 1.152M12 12"/></svg>