<svg xmlns="http://www.w3.org/2000/svg" width="1em" height="1em" viewBox="0 0 24 24"><path fill="currentColor" d="m20.458 21.054l-2.5-2.5q-1.218 1.129-2.739 1.787q-1.52.659-3.4.659q-1.857 0-3.497-.707q-1.64-.708-2.864-1.932t-1.931-2.864q-.708-1.64-.708-3.497q0-1.84.678-3.412q.678-1.573 1.768-2.732l-2.5-2.494q-.14-.14-.15-.345q-.01-.204.15-.363q.16-.16.354-.16q.194 0 .354.16l17.692 17.692q.14.14.15.344q.01.204-.15.364t-.353.16q-.195 0-.354-.16m.361-9.057q0 1.04-.205 1.994q-.204.955-.458 1.413q-.045.09-.13.155q-.084.066-.17.101q-.085.036-.18.034q-.094-.003-.191-.036q-.183-.077-.259-.285q-.076-.208.003-.39q.221-.487.406-1.28q.184-.793.184-1.703q0-.6-.075-1.162T19.47 9.75q-.525.125-1.05.188t-1.1.062q-1.4 0-2.624-.343q-1.224-.344-2.387-1.019l-3.6-3.6q-.38-.378-.28-.893q.1-.515.578-.697q.644-.235 1.32-.341Q11.002 3 11.82 3q1.872 0 3.507.71q1.636.711 2.858 1.925q1.222 1.214 1.929 2.855q.706 1.641.706 3.507m-12 2.253q-.525 0-.887-.363T7.569 13q0-.525.363-.888t.887-.362q.525 0 .888.363t.362.887q0 .525-.362.888t-.888.362m3 5.75q1.614 0 3.03-.599q1.414-.6 2.39-1.555l-9.11-9.121q-.789 1.05-1.966 1.89q-1.178.84-2.344 1.23V12q0 3.325 2.338 5.663T11.819 20"/></svg>