<svg xmlns="http://www.w3.org/2000/svg" width="1em" height="1em" viewBox="0 0 24 24"><path fill="currentColor" d="m21.19 22.456l-9.853-9.86q-.649.14-1.09.732q-.443.591-.443 1.322q0 2.32 1.397 4.044q1.397 1.725 3.824 2.421q.162.05.242.18q.081.13.031.292q-.05.18-.186.261q-.137.08-.299.03q-2.661-.7-4.22-2.658q-1.558-1.958-1.558-4.57q0-.873.469-1.601q.47-.728 1.223-1.057l-1.185-1.184q-1.08.611-1.684 1.63q-.604 1.02-.604 2.212q0 1.856.628 3.29q.628 1.435 2.166 3.081q.13.13.13.276q0 .145-.13.276q-.111.112-.266.112q-.155 0-.286-.112q-1.592-1.713-2.302-3.33q-.71-1.616-.71-3.593q0-1.354.666-2.509t1.846-1.885L7.723 8.988q-1.508 1.062-2.288 2.504q-.781 1.443-.781 3.158q0 .765.172 1.7q.172.935.522 1.944q.056.162 0 .289t-.217.202q-.162.075-.301.019t-.195-.237q-.395-1.05-.57-1.986q-.175-.937-.175-1.931q0-1.883.84-3.466q.84-1.584 2.447-2.747l-1.179-1.18q-.635.464-1.172 1.007q-.538.544-.984 1.16q-.119.155-.28.183q-.162.028-.304-.097q-.118-.087-.133-.22q-.015-.132.071-.269q.485-.66 1.06-1.221q.575-.562 1.234-1.05L1.973 3.227L2.6 2.6l19.223 19.223zm-4.01-7.421q-.142 0-.263-.119t-.12-.266q0-1.858-1.343-3.14q-1.342-1.283-3.189-1.37l-.75-.75q.131-.025.255-.025h.255q2.287 0 3.913 1.524q1.627 1.524 1.627 3.761q0 .167-.108.276q-.109.109-.276.109M12.026 2.12q1.58 0 3.077.388t2.902 1.112q.206.106.233.252q.028.146-.027.283q-.056.136-.202.198q-.146.061-.3-.025q-1.306-.733-2.747-1.086q-1.442-.353-2.936-.353q-1.488 0-2.886.373q-1.397.374-2.71 1.04l-.552-.551q1.406-.8 2.961-1.215q1.556-.416 3.187-.416m-.038 2.45q2.63 0 4.97 1.138q2.341 1.137 3.897 3.268q.136.167.084.313q-.053.147-.184.233q-.13.087-.283.074t-.263-.174q-1.414-1.988-3.595-3.035Q14.43 5.34 11.987 5.34q-.995 0-1.951.185t-1.851.535l-.558-.558q1.03-.456 2.124-.693q1.093-.238 2.236-.238m0 2.35q3.336 0 5.732 2.221q2.396 2.221 2.396 5.508q0 .687-.305 1.264q-.306.578-.812.96l-.546-.547q.42-.275.657-.716t.237-.961q0-2.958-2.173-4.962Q15 7.685 11.993 7.685q-.5 0-.982.062t-.951.188l-.627-.627q.605-.2 1.249-.294q.643-.093 1.305-.093m4.96 12.914q-2.168 0-3.765-1.477t-1.597-3.702q0-.162.108-.273q.109-.112.276-.112q.168 0 .276.112q.109.111.109.273q0 1.915 1.367 3.16q1.367 1.244 3.225 1.244q.246 0 .521-.022t.556-.073q.148-.03.253.044q.105.074.155.241q.05.162-.056.273q-.106.112-.267.162q-.277.067-.596.108t-.566.042"/></svg>