<svg xmlns="http://www.w3.org/2000/svg" width="1em" height="1em" viewBox="0 0 24 24"><path fill="currentColor" d="m21.19 22.456l-9.853-9.86q-.668.16-1.1.722q-.433.563-.433 1.332q0 2.3 1.527 4.129t4.073 2.461l-.206.745q-2.788-.708-4.476-2.745q-1.687-2.036-1.687-4.59q0-.892.46-1.61q.459-.719 1.232-1.048l-1.185-1.184q-1.08.611-1.684 1.63q-.604 1.02-.604 2.212q0 1.721.749 3.353q.749 1.632 2.312 3.291l-.54.552q-1.687-1.765-2.488-3.54q-.802-1.775-.802-3.656q0-1.335.675-2.499q.675-1.164 1.836-1.895L7.723 8.988q-1.508 1.062-2.288 2.504q-.781 1.443-.781 3.158q0 .823.184 1.77q.185.945.627 2.215l-.694.305Q4.31 17.7 4.1 16.653q-.21-1.047-.21-2.003q0-1.863.84-3.466q.84-1.603 2.447-2.747l-1.179-1.18q-.635.464-1.22 1.07q-.584.606-1.186 1.444l-.6-.46q.595-.805 1.207-1.439q.613-.634 1.291-1.122L1.973 3.227L2.6 2.6l19.223 19.223zm-4.394-7.421q0-2.008-1.313-3.4q-1.314-1.39-3.218-1.495l-.75-.75q.131-.025.255-.025h.255q2.306.012 3.923 1.64q1.617 1.63 1.617 4.03zM12.025 2.12q1.708 0 3.293.434q1.586.433 3.053 1.247l-.323.713q-1.31-.782-2.796-1.203q-1.487-.422-3.227-.422q-1.412 0-2.809.354q-1.397.354-2.787 1.06L5.87 3.74q1.406-.8 2.955-1.21q1.549-.409 3.199-.409m-.038 2.45q2.753 0 5.089 1.207q2.336 1.207 4.02 3.522l-.665.446q-1.523-2.16-3.69-3.283q-2.168-1.123-4.754-1.123q-.975 0-1.942.18q-.966.178-1.86.54l-.558-.57q1.05-.455 2.134-.687q1.083-.232 2.226-.232m0 2.35q3.357 0 5.743 2.154t2.385 5.383q0 .667-.296 1.341q-.296.674-.82 1.074l-.547-.546q.42-.333.657-.851q.237-.518.237-1.018q0-2.92-2.167-4.844q-2.167-1.924-5.187-1.924q-.5 0-.981.06t-.951.185l-.627-.627q.605-.2 1.249-.294q.643-.093 1.305-.093m4.96 12.914q-2.272 0-3.832-1.626t-1.53-3.938h.769q-.023 1.989 1.307 3.389q1.33 1.4 3.285 1.4q.337 0 .686-.053q.349-.053.705-.147l.207.738q-.444.12-.837.178q-.394.059-.76.059"/></svg>