<svg xmlns="http://www.w3.org/2000/svg" width="1em" height="1em" viewBox="0 0 24 24"><path fill="currentColor" d="M11.987 4.571q2.786 0 5.101 1.203q2.316 1.203 4.008 3.526l-.665.446q-1.518-2.161-3.659-3.283q-2.141-1.123-4.785-1.123q-2.562 0-4.681 1.116q-2.12 1.115-3.714 3.32l-.588-.459q1.717-2.31 4.01-3.528q2.294-1.218 4.973-1.218m0 2.35q3.386 0 5.757 2.256q2.371 2.256 2.371 5.473q0 1.187-.858 2.008q-.859.82-2.076.82q-1.243 0-2.114-.82q-.87-.821-.87-2.008q0-.858-.63-1.462q-.629-.603-1.542-.603q-.933 0-1.571.603q-.639.604-.639 1.462q0 2.375 1.445 4.08q1.444 1.705 4.161 2.51l-.211.745q-2.916-.795-4.54-2.713q-1.624-1.918-1.624-4.622q0-1.187.871-2.01q.871-.825 2.108-.825q1.217 0 2.079.824q.861.824.861 2.011q0 .858.642 1.462q.641.603 1.574.603q.907 0 1.536-.603q.63-.604.63-1.462q0-2.908-2.14-4.937q-2.138-2.028-5.215-2.028q-3.038 0-5.177 2.028q-2.138 2.03-2.138 4.931q0 .818.187 1.77q.188.951.613 2.21l-.689.31q-.45-1.188-.665-2.25q-.215-1.06-.215-2.034q0-3.217 2.355-5.473Q8.62 6.92 11.987 6.92m.038-4.8q1.606 0 3.127.4q1.521.4 3.22 1.28l-.324.714q-1.513-.855-2.96-1.24q-1.448-.385-3.063-.385q-1.515 0-2.944.39q-1.43.391-3.05 1.228l-.258-.683q1.515-.867 3.046-1.286t3.206-.418m0 7.244q2.423 0 3.982 1.602q1.558 1.602 1.558 4.068h-.769q0-2.143-1.338-3.522q-1.339-1.378-3.433-1.378q-1.983 0-3.371 1.326q-1.389 1.326-1.389 3.189q0 1.906.666 3.363q.665 1.456 2.396 3.281l-.546.546Q8 19.948 7.249 18.31q-.753-1.637-.753-3.66q0-2.212 1.609-3.748q1.608-1.537 3.92-1.537m1.183 8.983q-.806-.756-1.209-1.767q-.403-1.012-.403-2.316h.77q0 1.162.344 2.034q.344.872 1.044 1.522q.65.594 1.482.917q.831.322 1.745.322q.227 0 .535-.035q.309-.035.874-.121l.156.675q-.513.125-.892.187t-.673.063q-1.062 0-2.04-.378t-1.733-1.103"/></svg>