<svg xmlns="http://www.w3.org/2000/svg" width="1em" height="1em" viewBox="0 0 24 24"><path fill="currentColor" d="M15.213 4.615L14 8.788h1.606q.727 0 1.068.637q.341.637-.068 1.252l-.856 1.246q-.14.202-.37.242q-.228.04-.424-.117q-.154-.135-.172-.34q-.019-.206.124-.39l.773-1.049q.096-.154.019-.317q-.077-.164-.27-.164h-1.678q-.404 0-.656-.32t-.127-.705l1.208-4.128q.077-.231-.077-.433Q13.946 4 13.715 4h-4.83q-.214 0-.357-.143T8.385 3.5q0-.213.143-.357Q8.67 3 8.885 3h4.946q.684 0 1.124.5t.258 1.115M19.48 20.9l-5.864-5.858l-1.51 2.195q-.13.186-.31.242q-.18.056-.366 0q-.187-.056-.308-.215q-.121-.158-.121-.376V13h-1q-.671 0-1.143-.472t-.472-1.143V9.812l-5.29-5.29q-.147-.147-.157-.348q-.01-.2.156-.366q.166-.166.357-.166t.357.166l16.384 16.384q.146.146.156.345q.01.198-.156.363q-.165.165-.356.165t-.357-.165m-7.38-13"/></svg>