<svg xmlns="http://www.w3.org/2000/svg" width="1em" height="1em" viewBox="0 0 24 24"><path fill="currentColor" d="M14.648 11.817L8.854 6.023q-.225-.225-.344-.491q-.12-.267-.12-.58v-.615q0-.568.423-.952Q9.237 3 9.846 3h3.985q.684 0 1.124.5t.258 1.115L14 8.788h1.606q.732 0 1.068.637q.336.637-.068 1.252l-.721 1.035q-.218.298-.59.338q-.374.04-.647-.233m4.83 9.083l-5.863-5.858l-1.51 2.195q-.105.161-.294.23q-.19.068-.382.012q-.212-.056-.32-.217Q11 17.1 11 16.888V13h-1q-.671 0-1.143-.472t-.472-1.143V9.812l-5.29-5.29q-.147-.147-.154-.348q-.006-.2.159-.366q.165-.166.357-.166t.356.166l16.38 16.384q.145.146.155.345q.01.198-.156.363q-.165.165-.356.165t-.357-.165"/></svg>