<svg xmlns="http://www.w3.org/2000/svg" width="1em" height="1em" viewBox="0 0 24 24"><path fill="currentColor" d="M4 10.692V18V6zm10.577 9.539q.54 0 .924-.384t.384-.924q0-.54-.384-.924t-.924-.384q-.54 0-.924.384t-.384.924q0 .54.384.924t.924.384M20 12q.54 0 .924-.384q.384-.383.384-.924q0-.54-.384-.924q-.384-.383-.924-.383t-.924.383q-.384.384-.384.924t.384.924Q19.46 12 20 12m-8.73-1.5q.212 0 .355-.144q.144-.144.144-.357t-.144-.356q-.143-.143-.356-.143H7q-.213 0-.356.144Q6.5 9.788 6.5 10t.144.356q.144.143.356.143zm0 4q.212 0 .355-.144q.144-.144.144-.357t-.144-.356q-.143-.143-.356-.143H7q-.213 0-.356.144q-.144.144-.144.357t.144.356q.144.143.356.143zM4.614 19q-.69 0-1.152-.462Q3 18.075 3 17.385V6.615q0-.69.463-1.152Q3.925 5 4.615 5H20.5q.213 0 .356.144q.144.144.144.357q0 .212-.144.356Q20.713 6 20.5 6H4.615q-.23 0-.423.192Q4 6.385 4 6.615v10.77q0 .23.192.423q.193.192.423.192H9.77q.213 0 .356.144t.144.357q0 .212-.144.356Q9.982 19 9.77 19zm9.962 2.23q-.962 0-1.635-.672q-.673-.673-.673-1.635q0-.84.515-1.461q.514-.622 1.293-.787v-1.56q0-.343.232-.575q.232-.232.576-.232H19.5V12.94q-.779-.165-1.293-.786q-.515-.621-.515-1.462q0-.961.673-1.634q.673-.673 1.635-.673t1.635.673q.673.673.673 1.634q0 .84-.515 1.462q-.514.621-1.293.786v1.56q0 .343-.232.575q-.232.233-.576.233h-4.615v1.367q.779.165 1.293.787t.515 1.461q0 .962-.673 1.635q-.674.673-1.635.673"/></svg>