<svg xmlns="http://www.w3.org/2000/svg" width="1em" height="1em" viewBox="0 0 24 24"><path fill="currentColor" d="M9.5 5.192q-.698 0-1.195-.497q-.497-.497-.497-1.195t.497-1.195q.497-.497 1.195-.497t1.195.497q.497.497.497 1.195t-.497 1.195q-.497.497-1.195.497m-2.92 8.846l-1.824 8.066q-.036.173-.172.285q-.137.111-.315.111q-.255 0-.408-.183q-.153-.182-.092-.407L6.442 8.054L3.5 9.284V12q0 .213-.144.356q-.144.144-.357.144t-.356-.144Q2.5 12.213 2.5 12V9.148q0-.244.143-.447q.142-.203.367-.305l4.105-1.688q.675-.275 1.25-.14t.912.69l.97 1.58q.588.933 1.563 1.637T14 11.4q.213.05.356.197q.144.146.144.362t-.143.347q-.144.13-.357.1q-1.58-.239-2.786-1.158T9.262 9.112l-.889 4.519l1.648 1.61q.237.217.358.517q.121.3.121.632V22q0 .213-.144.356q-.144.144-.357.144t-.356-.144Q9.5 22.213 9.5 22v-5.173zm10.478-5.346h-2.943q-.343 0-.575-.232q-.232-.232-.232-.575v-4.77q0-.343.232-.575q.232-.232.575-.232h6.77q.343 0 .575.232q.232.232.232.575v4.77q0 .343-.232.575q-.232.232-.575.232h-2.943V22.25q0 .192-.125.317t-.316.125t-.317-.125q-.126-.125-.126-.317zm1.292-2.75l-.644.645q-.13.128-.139.303q-.01.175.139.323q.148.149.316.149t.316-.149l1.154-1.148q.131-.13.184-.27q.053-.139.053-.298q0-.159-.053-.295q-.053-.137-.184-.267L18.338 3.78q-.128-.13-.303-.139q-.175-.01-.323.139q-.149.148-.149.316t.149.316l.638.645h-3.1q-.192 0-.317.125t-.125.316t.125.317q.125.126.317.126z"/></svg>