<svg xmlns="http://www.w3.org/2000/svg" width="1em" height="1em" viewBox="0 0 24 24"><path fill="currentColor" d="m20.756 22.171l-7.612-7.606l1.22-.207l6.048 6.048q-.212.269-.533.432q-.321.162-.685.162H4.615q-.67 0-1.143-.472Q3 20.056 3 19.385V4.805q0-.095.01-.172q.01-.077.048-.154l-.818-.817q-.146-.147-.155-.348q-.01-.2.155-.366q.166-.165.357-.165q.191 0 .357.165l18.515 18.515q.146.147.156.345q.01.198-.156.363q-.165.166-.356.166t-.357-.166M21 4.615v11.623q0 .274-.146.46q-.146.187-.364.273q-.217.087-.444.059q-.227-.028-.42-.22l-5.238-5.239l-1.857-5.12q-.048-.12-.154-.19q-.106-.069-.233-.069h-.288q-.127 0-.233.07q-.106.069-.154.19l-.575 1.625L7.19 4.373q-.192-.192-.22-.42q-.028-.226.059-.443q.086-.218.273-.364Q7.488 3 7.762 3h11.623q.67 0 1.143.472q.472.472.472 1.143m-11.438 9.95h3.582l-.965-.965h-2.27l.597-1.673l-.744-.744l-2.074 5.723q-.084.244.052.457q.137.214.406.214q.171 0 .284-.079t.18-.244zm2.388-6.738h.1l.77 2.175l-1.21-1.21zm2.413 6.53l1.027 2.903q.062.16.177.238q.116.079.281.079q.246 0 .374-.176t.101-.391z"/></svg>