<svg xmlns="http://www.w3.org/2000/svg" width="1em" height="1em" viewBox="0 0 24 24"><path fill="currentColor" d="M10.885 11.885q-1.045 0-1.773-.728q-.727-.728-.727-1.772q0-1.02.728-1.76q.727-.74 1.772-.74q1.019 0 1.76.74q.74.74.74 1.76q0 1.044-.74 1.772q-.741.728-1.76.728m5.73 3.192q.604 0 1.072-.367q.467-.368.603-.94q.05-.162.165-.274q.114-.111.276-.111q.161 0 .273.12q.111.122.08.264q-.136.777-.712 1.346q-.576.57-1.372.7v.916q0 .161-.112.273q-.111.111-.273.111q-.161 0-.273-.111q-.111-.112-.111-.273v-.916q-.796-.13-1.372-.7q-.576-.569-.713-1.346q-.03-.142.08-.263q.112-.121.274-.121q.162 0 .276.111q.114.112.164.273q.137.573.604.94q.468.368 1.071.368m0-.77q-.428 0-.724-.295q-.295-.295-.295-.724v-1.692q0-.429.295-.724q.296-.295.724-.295q.43 0 .724.295q.296.295.296.724v1.692q0 .43-.296.724t-.724.296M4.615 21q-.69 0-1.152-.462Q3 20.075 3 19.385V16.5q0-.213.143-.357Q3.287 16 3.5 16t.357.143T4 16.5v2.885q0 .23.192.423q.193.192.423.192H7.5q.213 0 .357.143T8 20.5q0 .213-.143.357Q7.713 21 7.5 21zM3 7.5V4.615q0-.69.463-1.152Q3.925 3 4.615 3H7.5q.213 0 .357.143Q8 3.287 8 3.5t-.143.357T7.5 4H4.615q-.23 0-.423.192Q4 4.385 4 4.615V7.5q0 .213-.143.357T3.5 8q-.213 0-.357-.143Q3 7.713 3 7.5M19.385 21H16.5q-.213 0-.357-.143Q16 20.713 16 20.5t.143-.357T16.5 20h2.885q.23 0 .423-.192q.192-.193.192-.423V16.5q0-.213.143-.357T20.5 16q.213 0 .357.143q.143.144.143.357v2.885q0 .69-.462 1.152q-.463.463-1.153.463M20 7.5V4.615q0-.23-.192-.423Q19.615 4 19.385 4H16.5q-.213 0-.357-.143T16 3.5q0-.213.143-.357Q16.287 3 16.5 3h2.885q.69 0 1.152.463q.463.462.463 1.152V7.5q0 .213-.143.357Q20.713 8 20.5 8t-.357-.143T20 7.5M6.192 17.115q-.348 0-.578-.23q-.23-.23-.23-.577v-.593q0-.41.205-.756q.205-.347.56-.565q1.107-.644 2.327-.956q1.22-.311 2.478-.303q.329-.006.556.242q.227.248.24.577q.038.59.225 1.14q.187.548.535 1.077q.217.298.07.621q-.145.323-.474.323z"/></svg>