<svg xmlns="http://www.w3.org/2000/svg" width="1em" height="1em" viewBox="0 0 24 24"><path fill="currentColor" d="M5.385 17.115v-1.4q0-.402.205-.756q.206-.354.558-.565q1.294-.769 2.703-1.061q1.409-.293 2.903-.173q-.012.087-.017.17q-.006.083-.006.17q0 .16.006.333q.005.173.036.327q-1.348-.177-2.771.188q-1.423.365-2.583 1.037v.75h6.102q.16.292.365.532q.204.24.46.448zm5.497-5.23q-1.042 0-1.77-.728q-.727-.728-.727-1.77q0-1.022.728-1.762q.727-.74 1.77-.74q1.02 0 1.761.74q.74.74.74 1.762q0 1.042-.74 1.77t-1.762.728m.003-1q.617 0 1.058-.432q.442-.43.442-1.068q0-.618-.442-1.06q-.441-.44-1.068-.44t-1.059.44q-.431.442-.431 1.07t.43 1.058q.432.432 1.07.432M4.622 21q-.697 0-1.16-.462Q3 20.075 3 19.378V16h1v3.385q0 .23.192.423q.193.192.423.192H8v1zM3 8V4.622q0-.697.463-1.16Q3.925 3 4.622 3H8v1H4.615q-.23 0-.423.192Q4 4.385 4 4.615V8zm13 13v-1h3.385q.23 0 .423-.192q.192-.193.192-.423V16h1v3.378q0 .697-.462 1.16q-.463.462-1.16.462zm4-13V4.615q0-.23-.192-.423Q19.615 4 19.385 4H16V3h3.378q.697 0 1.16.463q.462.462.462 1.159V8zm-3.77 9.115v-1.294q-.901-.167-1.498-.835q-.597-.669-.617-1.601h.77q.019.71.522 1.2q.504.492 1.21.492q.708 0 1.209-.491q.5-.492.52-1.201h.77q-.02.932-.617 1.6q-.598.666-1.499.83v1.3zm.385-2.807q-.428 0-.724-.296q-.295-.295-.295-.724v-1.692q0-.428.296-.723q.296-.296.724-.296t.723.296t.296.723v1.692q0 .429-.296.724q-.296.296-.724.296"/></svg>