<svg xmlns="http://www.w3.org/2000/svg" width="1em" height="1em" viewBox="0 0 24 24"><path fill="currentColor" d="M5.621 20.5q-.875 0-1.44-.485q-.566-.484-.566-1.273q0-.55.281-.883q.28-.334.72-.334q.413 0 .706.29t.293.698q0 .28-.166.485q-.166.206-.403.254q.096.096.27.163q.172.068.384.068q.529-.006.857-.465q.328-.458.531-1.447L8.658 9.5H6.192q-.213 0-.356-.143q-.144-.144-.144-.357t.144-.357q.143-.143.356-.143H8.84l.487-2.62q.213-1.16.803-1.77q.59-.61 1.505-.61q.869 0 1.434.506q.566.506.566 1.288q0 .539-.281.872q-.28.334-.72.334q-.413 0-.706-.28q-.293-.282-.293-.695q0-.279.166-.485q.166-.205.422-.253q-.096-.116-.298-.193t-.413-.077q-.477.012-.774.4q-.296.389-.442 1.146L9.871 8.5h3.937q.213 0 .356.143q.144.144.144.357q0 .202-.132.342t-.328.152h-.942l2.402 2.75l2.402-2.75h-.943q-.196-.011-.328-.152q-.131-.14-.131-.342q0-.213.143-.357q.143-.143.357-.143h3q.213 0 .356.143q.144.144.144.357t-.144.357q-.143.143-.356.143h-.781L15.979 13l3.067 3.5h.762q.213 0 .356.143q.144.144.144.357t-.144.357q-.143.143-.356.143h-3q-.214 0-.357-.143q-.143-.144-.143-.357q0-.202.131-.342q.132-.14.328-.152h.943l-2.402-2.756l-2.402 2.756h.942q.196.011.328.152q.132.14.132.342q0 .213-.144.357q-.143.143-.356.143h-3q-.214 0-.357-.143q-.143-.144-.143-.357t.143-.357q.143-.143.357-.143h.78l3.049-3.5l-3.049-3.5H9.67l-1.6 8.196q-.277 1.433-.877 2.118q-.6.686-1.57.686"/></svg>