<svg xmlns="http://www.w3.org/2000/svg" width="1em" height="1em" viewBox="0 0 24 24"><path fill="currentColor" d="M5.808 20q-.344 0-.576-.232Q5 19.536 5 19.192v-8.884q0-.384.172-.727q.171-.343.474-.566l5.385-4.077q.223-.161.466-.242t.507-.08q.263 0 .504.08q.24.08.461.242l5.385 4.077q.303.223.474.566q.172.343.172.727v8.884q0 .344-.232.576q-.232.232-.576.232h-.884q-.344 0-.576-.232q-.232-.232-.232-.576v-7.404q0-.343-.232-.575q-.232-.232-.576-.232H8.308q-.344 0-.576.232q-.232.232-.232.575v7.404q0 .344-.232.576q-.232.232-.576.232zm3.5-1.02q-.344 0-.576-.231q-.232-.233-.232-.576v-1.385q0-.343.232-.575q.232-.232.576-.232h5.384q.344 0 .576.232q.232.232.232.575v1.385q0 .343-.232.576q-.232.232-.576.232zm0-4q-.344 0-.576-.231q-.232-.233-.232-.576v-1.385q0-.343.232-.575q.232-.232.576-.232h5.384q.344 0 .576.232q.232.232.232.575v1.385q0 .343-.232.576q-.232.232-.576.232z"/></svg>