<svg xmlns="http://www.w3.org/2000/svg" width="1em" height="1em" viewBox="0 0 24 24"><path fill="currentColor" d="M12.004 4.615q.263 0 .504.081q.24.08.461.242l5.385 4.077q.303.223.474.566q.172.343.172.727V19.5q0 .213-.144.356q-.144.144-.357.144q-.212 0-.356-.144Q18 19.713 18 19.5v-9.192q0-.154-.067-.28q-.068-.124-.183-.22L12.365 5.75q-.153-.135-.365-.135t-.365.135L6.25 9.808q-.115.096-.183.22q-.067.126-.067.28V19.5q0 .213-.144.356T5.499 20q-.212 0-.356-.144Q5 19.713 5 19.5v-9.192q0-.384.172-.727q.171-.343.474-.566l5.385-4.077q.223-.161.466-.242t.507-.08M8.5 18.98h7v-3h-7zm0-4h7v-3h-7zm-.192 5q-.344 0-.576-.232q-.232-.233-.232-.576v-7.385q0-.343.232-.575q.232-.232.576-.232h7.384q.344 0 .576.232q.232.232.232.575v7.385q0 .343-.232.576q-.232.232-.576.232z"/></svg>