<svg xmlns="http://www.w3.org/2000/svg" width="1em" height="1em" viewBox="0 0 24 24"><path fill="currentColor" d="M12 4q-1.004 0-1.9.22q-.896.22-1.717.636q-.189.098-.387.04t-.302-.234q-.104-.177-.049-.366q.055-.188.238-.286q.994-.527 1.97-.769Q10.829 3 12 3q1.863 0 3.506.71t2.857 1.927q1.216 1.215 1.926 2.857Q21 10.137 21 12q0 1.067-.228 2.091q-.228 1.024-.768 2.032q-.098.183-.296.235t-.375-.052q-.177-.104-.235-.302t.04-.387q.422-.82.642-1.717q.22-.896.22-1.9q0-3.35-2.325-5.675T12 4m-.308 4.848l-.884-.885V6.75q0-.19.126-.316t.316-.126t.316.126q.126.126.126.316zm5.5-1.04v2.384q0 .639-.43 1.07q-.431.43-1.07.43h-1.155l-1.23-1.229V6.75q0-.19.127-.316q.126-.126.316-.126h1.942q.639 0 1.07.43q.43.431.43 1.07m-3 3h1.5q.27 0 .443-.173t.173-.443V7.808q0-.27-.173-.443t-.443-.173h-1.5zm-4 5q.27 0 .443-.173t.173-.443v-.384q0-.27-.173-.443t-.443-.173h-2v1.616zm-2 .884v1.558q0 .19-.126.316t-.316.126t-.316-.126q-.126-.126-.126-.316v-4.5q0-.19.126-.316t.316-.126h2.442q.625 0 1.063.437t.437 1.063v.384q0 .489-.3.87q-.302.382-.754.569l.63 1.446q.092.215-.034.415q-.126.2-.367.2q-.142 0-.243-.074q-.1-.074-.157-.197l-.752-1.729zm-.884-8.677l.884.885v2.35q0 .19-.126.316t-.316.126t-.316-.126q-.126-.126-.126-.316zM5.294 5.983l.689.732q-.858 1.012-1.42 2.35T4 12q0 3.35 2.325 5.675T12 20q1.637 0 2.987-.582t2.323-1.4l.688.707q-1.217 1.1-2.762 1.688T12 21q-1.863 0-3.506-.71t-2.857-1.927Q4.42 17.148 3.71 15.506Q3 13.863 3 12q0-1.844.638-3.351q.639-1.507 1.656-2.666m16.252 16.27q-.16.16-.354.16t-.354-.16L1.746 3.163q-.14-.14-.15-.345q-.01-.204.15-.363t.354-.16q.194 0 .354.16l19.092 19.092q.14.14.15.344q.01.204-.15.364"/></svg>