<svg xmlns="http://www.w3.org/2000/svg" width="1em" height="1em" viewBox="0 0 24 24"><path fill="currentColor" d="M20.756 22.171L19.579 21H5.5q-.213 0-.357-.143Q5 20.713 5 20.5t.143-.357Q5.287 20 5.5 20h1.308v-3q0-1.91 1.097-3.238q1.097-1.327 2.564-1.724v-.096q-.934-.269-2.026-1.18q-1.091-.912-1.441-2.339L2.24 3.662q-.146-.147-.155-.348q-.01-.2.155-.366q.166-.165.357-.165q.191 0 .357.165l18.515 18.515q.146.147.156.345q.01.198-.156.363q-.165.166-.356.166t-.357-.166M16.192 4H7.031q-.25 0-.375-.159T6.53 3.5q0-.183.125-.341T7.03 3H18.5q.213 0 .357.143q.143.144.143.357t-.143.357Q18.713 4 18.5 4h-1.308v3q0 1.24-.748 2.363q-.748 1.122-1.765 1.889q-.14.11-.323.068t-.287-.218q-.104-.158-.07-.34q.034-.183.174-.304q.806-.614 1.413-1.527q.606-.914.606-1.931zM7.808 20h8.384v-2.387L11.38 12.82q-1.356.206-2.464 1.312Q7.808 15.237 7.808 17zm9.384 0h1.346l-1.346-1.577z"/></svg>