<svg xmlns="http://www.w3.org/2000/svg" width="1em" height="1em" viewBox="0 0 24 24"><path fill="currentColor" d="M9.942 11.385q-1.246 0-2.123-.877q-.877-.877-.877-2.123q0-1.247.877-2.123q.877-.877 2.123-.877q1.246 0 2.123.877q.877.876.877 2.123q0 1.246-.877 2.123q-.877.877-2.123.877m-5.961 7.23q-.44 0-.74-.299q-.299-.299-.299-.74v-.607q0-.767.377-1.232q.377-.466.954-.764q1.275-.65 2.51-1.004q1.234-.354 3.16-.354h.556q.264 0 .493.031q.404.03.535.41q.13.379-.162.67l-.77.772q-.449.448-.558 1.046q-.11.598.234 1.089q.223.32.068.652q-.154.33-.539.33zm11.319-.323l4.696-4.696q.14-.14.344-.15q.204-.01.364.15t.16.354q0 .194-.16.354l-4.839 4.838q-.242.243-.565.243q-.323 0-.565-.243l-1.839-1.838q-.14-.14-.15-.344q-.01-.204.15-.364t.354-.16q.194 0 .354.16z"/></svg>