<svg xmlns="http://www.w3.org/2000/svg" width="1em" height="1em" viewBox="0 0 24 24"><path fill="currentColor" d="M9.808 15.5q.31 0 .54-.23q.229-.23.229-.54v-.09q0-.04-.025-.09q.058.038.115.048q.058.01.116.01q.31 0 .542-.23q.233-.23.233-.54q0-.31-.23-.539q-.23-.23-.54-.23q-.2 0-.358.097q-.159.097-.265.242l-2.594-2.92q.183-.086.306-.264Q8 10.046 8 9.827q0-.31-.23-.54q-.23-.23-.54-.23q-.309 0-.539.23q-.23.23-.23.54q0 .05.01.08q.01.031.016.081q-.058-.038-.116-.048q-.058-.01-.115-.01q-.31 0-.543.23q-.232.23-.232.54q0 .31.23.54q.23.23.539.23q.206 0 .374-.098q.168-.097.274-.266l2.614 2.938q-.208.068-.34.258t-.134.429q0 .31.23.54q.23.229.54.229m2.542 4.365q-.654 0-1.267-.249q-.614-.249-1.112-.716l-6.986-6.53q-.14-.135-.15-.315q-.008-.18.096-.345q.14-.195.353-.225q.212-.031.39.14l6.98 6.594q.358.333.807.509q.449.176.914.176q.377 0 .72-.097q.342-.097.624-.28l7.044-4.45q.231-.152.475-.015q.243.136.243.423q0 .12-.058.23q-.058.11-.167.177l-7.025 4.425q-.418.262-.888.405t-.993.143m.833-8.369q1.034-1.258 2.103-1.897q1.068-.64 3.249-1.222q.627-.17 1.147-.329q.52-.16 1.003-.348q.188-.067.364.009t.25.258q.078.183.002.371q-.076.189-.264.256q-.495.194-1.042.354q-.547.16-1.185.335q-2.216.588-3.32 1.311q-1.105.723-2.063 2.244q-.067.085-.167.152q-.1.068-.26.068q-.158 0-.288-.11q-.131-.11-.168-.28q-.419-1.758-1.786-3.492Q9.39 7.442 7.55 6.31q-.177-.104-.226-.29q-.049-.185.074-.362q.129-.177.34-.225q.21-.048.387.061q1.779 1.071 3.145 2.694q1.367 1.624 1.913 3.308m-9.93-.26q1.647 1.56 3.682 3.473q2.034 1.912 3.719 3.51q.358.333.807.509q.449.176.914.176q.377 0 .72-.097q.342-.097.624-.28l3.846-2.424q2.175-1.372 3.916-2.476l-7.762 4.9q-.282.183-.625.28q-.342.097-.719.097q-.465 0-.914-.176q-.45-.176-.807-.509z"/></svg>