<svg xmlns="http://www.w3.org/2000/svg" width="1em" height="1em" viewBox="0 0 24 24"><path fill="currentColor" d="M12 20.5q-2.91 0-4.955-2.006T5 13.61q0-1.373.555-2.628t1.487-2.24L10.87 4.99q.242-.22.534-.34q.291-.12.593-.12t.597.12q.294.12.538.34l3.827 3.752q.932.985 1.487 2.24q.555 1.256.555 2.632q0 2.882-2.045 4.884Q14.909 20.5 12 20.5m0-1q2.5 0 4.25-1.707T18 13.62q0-1.18-.45-2.248q-.45-1.067-1.3-1.871l-3.827-3.777Q12.25 5.55 12 5.55t-.423.173L7.75 9.5q-.85.804-1.3 1.871Q6 12.44 6 13.62q0 2.467 1.75 4.174Q9.5 19.5 12 19.5"/></svg>