<svg xmlns="http://www.w3.org/2000/svg" width="1em" height="1em" viewBox="0 0 24 24"><path fill="currentColor" d="M14.154 12.462h4.077v-1h-4.077zm0-2.77h4.077v-1h-4.077zm-8.385 5.616h6.616v-.166q0-.875-.88-1.354t-2.428-.48q-1.55 0-2.429.48q-.879.48-.879 1.354zm3.308-3.616q.633 0 1.066-.433q.434-.434.434-1.067q0-.632-.434-1.066q-.433-.434-1.066-.434t-1.066.434q-.434.434-.434 1.066q0 .633.434 1.067q.433.433 1.066.433M4.615 19q-.69 0-1.152-.462Q3 18.075 3 17.385V6.615q0-.69.463-1.152Q3.925 5 4.615 5h14.77q.69 0 1.152.463q.463.462.463 1.152v10.77q0 .69-.462 1.152q-.463.463-1.153.463zm0-1h14.77q.23 0 .423-.192q.192-.193.192-.423V6.615q0-.23-.192-.423Q19.615 6 19.385 6H4.615q-.23 0-.423.192Q4 6.385 4 6.615v10.77q0 .23.192.423q.193.192.423.192M4 18V6z"/></svg>