<svg xmlns="http://www.w3.org/2000/svg" width="1em" height="1em" viewBox="0 0 24 24"><path fill="currentColor" d="m19.479 20.9l-4.756-4.75l-2.277 2.365q-.217.237-.522.361q-.305.124-.634.124H5.23q-.323 0-.628-.13q-.305-.132-.522-.349l-.935-.934q-.479-.48-.491-1.137q-.013-.658.466-1.162l5.277-5.465l-5.302-5.302q-.146-.146-.156-.347q-.01-.2.156-.366q.166-.166.357-.166t.357.166l16.384 16.384q.146.146.156.345q.01.198-.156.363q-.165.165-.356.165t-.357-.165m.65-10.944q0 .304-.118.608q-.119.305-.361.548l-2.287 2.342q-.223.223-.549.223q-.326 0-.549-.223L11.012 8.2q-.218-.217-.22-.543q-.004-.326.214-.55l2.267-2.372q.242-.262.54-.373q.299-.112.597-.112q.303 0 .599.118q.295.119.531.36l4.09 4.091q.243.237.371.535q.128.298.128.602"/></svg>