<svg xmlns="http://www.w3.org/2000/svg" width="1em" height="1em" viewBox="0 0 24 24"><path fill="currentColor" d="M20.5 16.23q-.413 0-.707-.292q-.293-.294-.293-.707v-2.5q0-.414.293-.707q.294-.293.707-.293t.707.293q.293.293.293.707v2.5q0 .413-.293.707q-.294.293-.707.293M13 11.385q-1.246 0-2.123-.877Q10 9.63 10 8.385q0-1.247.877-2.123q.877-.877 2.123-.877q1.246 0 2.123.877q.877.876.877 2.123q0 1.246-.877 2.123q-.877.877-2.123.877m-5.538 7.23q-.614 0-1.038-.424Q6 17.767 6 17.154v-.179q0-.62.358-1.162q.357-.542.973-.84q1.198-.592 2.685-.975T13 13.615q.467 0 .973.068q.506.067.992.163q.298.039.46.296q.162.258.094.556q-.09.442-.058.885q.031.442.14.879q.068.276.165.542t.244.525q.196.367.011.727q-.184.36-.583.36zm13.038 1.27q-.162 0-.273-.112q-.112-.111-.112-.273v-1.146q-1.078-.156-1.827-.891q-.748-.736-.917-1.815q-.025-.161.087-.29q.111-.127.273-.127q.142 0 .26.09t.15.233q.13.88.801 1.471q.671.59 1.558.59q.88 0 1.552-.584q.671-.585.802-1.466q.03-.142.152-.238t.263-.096q.162 0 .273.108q.112.11.087.251q-.15 1.08-.908 1.844t-1.836.92V19.5q0 .162-.112.273q-.111.112-.273.112M5.923 8.385q0-.49.155-.955q.155-.465.459-.847q.303-.402.7-.646q.396-.243.867-.335q.229-.065.363.158q.135.223-.007.465q-.252.458-.356.992T8 8.385q0 .627.113 1.168q.114.541.347 1.01q.136.224.004.437q-.131.213-.36.167q-.471-.092-.867-.342q-.397-.25-.7-.652q-.304-.383-.46-.84q-.154-.458-.154-.948m-4 9.192v-.602q0-.523.28-1.017q.282-.495.859-.87q.176-.113.361-.193t.402-.145q.254-.12.479.132q.225.25.027.581q-.156.337-.244.71q-.087.373-.087.802v.602q0 .102.009.175q.008.073.026.175q.023.273-.136.48q-.159.208-.426.208h-.511q-.44 0-.74-.299q-.299-.299-.299-.74"/></svg>