<svg xmlns="http://www.w3.org/2000/svg" width="1em" height="1em" viewBox="0 0 24 24"><path fill="currentColor" d="M20.502 16.23q-.415 0-.709-.29q-.293-.293-.293-.71v-2.5q0-.416.291-.708q.291-.291.707-.291q.415 0 .709.291q.293.292.293.709v2.5q0 .416-.291.708t-.707.292m-.002 3.654q-.154 0-.27-.116q-.115-.115-.115-.269v-1.146q-1.07-.158-1.823-.893t-.92-1.813q-.026-.161.087-.29q.113-.127.264-.127t.268.09q.119.09.15.233q.13.88.801 1.471q.671.59 1.563.59q.868 0 1.543-.584q.675-.585.806-1.466q.038-.148.15-.241q.114-.093.265-.093q.154 0 .27.108q.115.11.09.251q-.15 1.08-.908 1.84q-.757.76-1.836.924V19.5q0 .154-.116.27q-.115.115-.269.115M5.923 8.385q0-.49.155-.955q.155-.465.459-.857q.303-.392.7-.636q.396-.243.867-.335q.229-.065.363.158q.135.223-.007.465q-.252.458-.356.992T8 8.391q0 .62.113 1.162q.114.541.347 1.01q.136.224.004.437q-.131.213-.36.167q-.471-.092-.867-.342q-.397-.25-.7-.642q-.304-.393-.46-.85q-.154-.458-.154-.948m-4 9.192v-.602q0-.523.28-1.017q.282-.495.859-.87q.176-.113.363-.194q.186-.082.4-.144q.254-.12.479.132q.225.25.027.581q-.156.337-.244.71q-.087.373-.087.802v.602q0 .102.009.175q.008.073.026.175q.023.273-.134.48q-.156.208-.428.208h-.511q-.44 0-.74-.299q-.299-.299-.299-.74M13 11.386q-1.237 0-2.119-.882T10 8.385q0-1.238.881-2.12q.881-.88 2.119-.88q1.238 0 2.119.88q.881.882.881 2.12q0 1.237-.881 2.118T13 11.385m0-1q.825 0 1.413-.588T15 8.385q0-.825-.587-1.413T13 6.385q-.825 0-1.412.587T11 8.385q0 .825.588 1.412t1.412.588m-5.962 8.23q-.44 0-.739-.299T6 17.576v-.601q0-.62.358-1.162q.357-.542.973-.84q1.198-.592 2.685-.975T13 13.615q.606 0 1.291.1q.686.098 1.272.252q.195.039.319.198q.124.16.085.354q-.038.194-.191.318q-.153.125-.347.086q-.587-.154-1.224-.23q-.638-.078-1.205-.078q-1.588 0-2.918.383t-2.269.852q-.384.183-.599.488T7 16.975v.64h8.756q.25 0 .375.156q.125.155.125.34q0 .187-.125.346q-.125.158-.375.158zm5.962-1"/></svg>