<svg xmlns="http://www.w3.org/2000/svg" width="1em" height="1em" viewBox="0 0 24 24"><path fill="currentColor" d="M4.615 13.77q-.69 0-1.152-.463Q3 12.844 3 12.154v-7.77q0-.69.463-1.152q.462-.463 1.152-.463h14.77q.69 0 1.152.463q.463.462.463 1.153v7.769q0 .69-.462 1.153q-.463.462-1.153.462h-3.072q.054-.25.066-.5q.011-.25 0-.5q-.104-1.727-1.363-2.92Q13.758 8.653 12 8.653T8.984 9.848Q7.725 11.042 7.62 12.77q-.011.25 0 .5t.066.5zM7 8.48l1.635-1.615L7 5.25L5.385 6.865zm9.5-1.21q.413 0 .707-.294q.293-.293.293-.707q0-.413-.293-.706q-.294-.294-.707-.294t-.707.293q-.293.294-.293.707q0 .414.293.707q.294.293.707.293M6 21.231v-1.408q0-.586.324-1.096q.324-.51.874-.75q1.148-.517 2.348-.786q1.2-.268 2.454-.268q1.254 0 2.454.268q1.2.269 2.348.786q.55.24.874.75q.324.51.324 1.096v1.408zm6-5.693q-1.046 0-1.773-.726q-.727-.727-.727-1.774q0-1.046.727-1.773q.727-.727 1.773-.727q1.046 0 1.773.727q.727.727.727 1.773q0 1.047-.727 1.774q-.727.726-1.773.726"/></svg>