<svg xmlns="http://www.w3.org/2000/svg" width="1em" height="1em" viewBox="0 0 24 24"><path fill="currentColor" d="M16.958 8.248q1.046 1.027 1.544 2.29q.498 1.262.498 2.6q0 .252-.018.527q-.019.275-.074.535q-.056.317-.289.491q-.232.174-.525.174q-.167 0-.341-.065q-.174-.065-.316-.208l-4.958-4.957q-.217-.218-.348-.523Q12 8.808 12 8.485V4.78l-1.871 1.846q-.14.14-.354.137q-.213-.002-.354-.143q-.165-.165-.162-.357q.003-.19.168-.35l1.735-1.69q.186-.187.403-.271q.218-.084.435-.084t.444.084q.227.084.414.27zM12 20q-2.921 0-4.96-1.97Q5 16.06 5 13.138q0-1.236.438-2.45q.439-1.213 1.508-2.326L3.831 5.246q-.14-.14-.15-.344q-.01-.204.15-.364t.354-.16q.194 0 .353.16l15.616 15.616q.14.14.15.344q.01.204-.15.364t-.354.16t-.354-.16l-2.708-2.708q-1.03.986-2.268 1.416Q13.233 20 12 20m0-1v-5.579L7.654 9.075q-.948.992-1.301 1.997Q6 12.077 6 13.138q0 2.5 1.75 4.181T12 19"/></svg>