<svg xmlns="http://www.w3.org/2000/svg" width="1em" height="1em" viewBox="0 0 24 24"><path fill="currentColor" d="M2 12q0-1.188.458-2.29q.457-1.102 1.304-1.948Q5.06 6.463 6.85 6.118t3.43.413q.194.069.29.257t.027.381q-.07.194-.26.281q-.19.087-.384.017q-1.375-.644-2.873-.372q-1.498.272-2.606 1.38q-.7.7-1.087 1.613T3 12q0 1 .388 1.913t1.087 1.612q1.108 1.108 2.606 1.38q1.498.272 2.873-.372q.194-.07.382.017q.187.087.256.28q.07.19-.024.38q-.093.19-.287.26q-1.639.757-3.43.412q-1.791-.345-3.09-1.644q-.846-.846-1.303-1.948Q2 13.188 2 12m20 0q0 1.188-.458 2.29q-.457 1.102-1.304 1.948q-1.298 1.299-3.089 1.635q-1.791.337-3.424-.41q-.194-.069-.29-.253t-.027-.38q.069-.193.256-.28q.188-.087.382-.017q1.375.644 2.873.372q1.498-.272 2.606-1.38q.7-.7 1.088-1.612T21 12q0-1-.387-1.912t-1.088-1.613q-1.108-1.108-2.606-1.38q-1.498-.272-2.873.372q-.194.07-.382-.017q-.187-.087-.256-.28t.027-.383q.096-.187.29-.256q1.638-.752 3.427-.41q1.788.342 3.086 1.64q.847.847 1.304 1.949Q22 10.812 22 12m-10 4.065q-.156 0-.312-.072q-.155-.072-.28-.197q-.67-.777-1.039-1.758Q10 13.058 10 12t.37-2.038q.368-.981 1.038-1.758q.125-.125.28-.197q.156-.072.312-.072t.312.072q.155.072.28.197q.67.777 1.039 1.758Q14 10.942 14 12t-.37 2.038q-.368.981-1.038 1.758q-.125.125-.28.197q-.156.072-.312.072"/></svg>