<svg xmlns="http://www.w3.org/2000/svg" width="1em" height="1em" viewBox="0 0 24 24"><path fill="currentColor" d="M2 12q0-2.502 1.749-4.251Q5.499 6 8 6q.658 0 1.278.153t1.176.434q.31.132.364.47q.055.34-.174.631q-.736.925-1.132 2.024Q9.115 10.81 9.115 12t.397 2.288q.396 1.099 1.132 2.024q.223.292.169.618q-.055.326-.36.483q-.555.281-1.175.434Q8.658 18 8 18q-2.502 0-4.251-1.749Q2 14.501 2 12m10 4.065q-.156 0-.312-.072q-.155-.072-.28-.197q-.67-.777-1.039-1.758Q10 13.058 10 12t.37-2.038q.368-.981 1.038-1.758q.125-.125.28-.197q.156-.072.312-.072t.312.072q.155.072.28.197q.67.777 1.039 1.758Q14 10.942 14 12t-.37 2.038q-.368.981-1.038 1.758q-.125.125-.28.197q-.156.072-.312.072M22 12q0 1.188-.458 2.29q-.457 1.102-1.304 1.948q-1.298 1.299-3.089 1.635q-1.791.337-3.424-.41q-.194-.069-.29-.253t-.027-.38q.069-.193.256-.28q.188-.087.382-.017q1.375.644 2.873.372q1.498-.272 2.606-1.38q.7-.7 1.088-1.612T21 12q0-1-.387-1.912t-1.088-1.613q-1.108-1.108-2.606-1.38q-1.498-.272-2.873.372q-.194.07-.382-.017q-.187-.087-.256-.28t.027-.383q.096-.187.29-.256q1.638-.752 3.427-.41q1.788.342 3.086 1.64q.847.847 1.304 1.949Q22 10.812 22 12"/></svg>