<svg xmlns="http://www.w3.org/2000/svg" width="1em" height="1em" viewBox="0 0 24 24"><path fill="currentColor" d="M22 12q0 2.502-1.749 4.251Q18.501 18 16 18q-.906 0-1.736-.26t-1.526-.753q1.027-.975 1.587-2.272q.56-1.296.56-2.715t-.56-2.715q-.56-1.297-1.587-2.272q.697-.494 1.526-.753Q15.094 6 16 6q2.502 0 4.251 1.749Q22 9.499 22 12m-10 4.065q-.156 0-.312-.072q-.155-.072-.28-.197q-.67-.777-1.039-1.758Q10 13.058 10 12t.37-2.038q.368-.981 1.038-1.758q.125-.125.28-.197q.156-.072.312-.072t.312.072q.155.072.28.197q.67.777 1.039 1.758Q14 10.942 14 12t-.37 2.038q-.368.981-1.038 1.758q-.125.125-.28.197q-.156.072-.312.072M2 12q0-1.188.458-2.29q.457-1.102 1.304-1.948Q5.06 6.463 6.85 6.118t3.43.413q.194.069.29.257t.027.381q-.07.194-.26.281q-.19.087-.384.017q-1.375-.644-2.873-.372q-1.498.272-2.606 1.38q-.7.7-1.087 1.613T3 12q0 1 .388 1.913t1.087 1.612q1.108 1.108 2.606 1.38q1.498.272 2.873-.372q.194-.07.382.017q.187.087.256.28q.07.19-.024.38q-.093.19-.287.26q-1.639.757-3.43.412q-1.791-.345-3.09-1.644q-.846-.846-1.303-1.948Q2 13.188 2 12"/></svg>