<svg xmlns="http://www.w3.org/2000/svg" width="1em" height="1em" viewBox="0 0 24 24"><path fill="currentColor" d="M15 5v7.423l1.43 1.43q.074.074.11.165q.037.092.037.19v.28q0 .206-.15.36q-.149.152-.37.152H12.5v4.665q0 .168-.056.307q-.056.14-.186.27l-.081.081q-.077.073-.179.073t-.175-.073l-.08-.08q-.131-.131-.187-.275q-.056-.144-.056-.297V15H7.942q-.22 0-.37-.153q-.149-.153-.149-.36v-.28q0-.097.037-.189q.036-.091.11-.164L9 12.424V5h-.5q-.213 0-.356-.144T8 4.499q0-.212.144-.356Q8.287 4 8.5 4h7q.213 0 .356.144q.144.144.144.357q0 .212-.144.356Q15.713 5 15.5 5z"/></svg>