<svg xmlns="http://www.w3.org/2000/svg" width="1em" height="1em" viewBox="0 0 24 24"><path fill="currentColor" d="M8.5 15H4.942q-.22 0-.37-.153q-.149-.153-.149-.36v-.28q0-.097.037-.189q.036-.091.11-.164L6 12.424V5h-.5q-.213 0-.356-.144T5 4.499q0-.212.144-.356Q5.288 4 5.5 4h5.548q-.698.846-1.065 1.874Q9.615 6.902 9.615 8q0 1.952 1.088 3.54q1.087 1.587 2.874 2.289v.363q0 .344-.234.576q-.235.232-.581.232H9.5v4.665q0 .168-.056.307q-.056.14-.186.27l-.081.081q-.077.073-.179.073t-.175-.073l-.08-.08q-.131-.131-.187-.275q-.056-.144-.056-.297zm7.5-3q-1.671 0-2.836-1.164T12 8q0-1.671 1.164-2.836T16 4q1.671 0 2.836 1.164T20 8q0 1.671-1.164 2.836T16 12m0-1q.75 0 1.4-.35t1.075-.975q-.575-.35-1.2-.513T16 9q-.65 0-1.275.163t-1.2.512q.425.625 1.075.975T16 11m0-3q.625 0 1.063-.437T17.5 6.5q0-.625-.437-1.062T16 5q-.625 0-1.062.438T14.5 6.5q0 .625.438 1.063T16 8"/></svg>