<svg xmlns="http://www.w3.org/2000/svg" width="1em" height="1em" viewBox="0 0 24 24"><path fill="currentColor" d="m9 20.5l-.5-.5v-5H4.423v-1L6 12.423V5H5V4h6.048q-.698.846-1.065 1.874Q9.615 6.902 9.615 8q0 1.952 1.088 3.54q1.087 1.587 2.874 2.289V15H9.5v5zm7-8.5q-1.671 0-2.836-1.164T12 8q0-1.671 1.164-2.836T16 4q1.671 0 2.836 1.164T20 8q0 1.671-1.164 2.836T16 12m0-1q.75 0 1.4-.35t1.075-.975q-.575-.35-1.2-.513T16 9q-.65 0-1.275.163t-1.2.512q.425.625 1.075.975T16 11m0-3q.625 0 1.063-.437T17.5 6.5q0-.625-.437-1.062T16 5q-.625 0-1.062.438T14.5 6.5q0 .625.438 1.063T16 8"/></svg>