<svg xmlns="http://www.w3.org/2000/svg" width="1em" height="1em" viewBox="0 0 24 24"><path fill="currentColor" d="M17.744 7.906q.621.484.621 1.277q0 .792-.62 1.277l-2.118 1.636q-.242.187-.55.174t-.525-.23l-5.31-5.302q-.267-.267-.24-.63q.029-.364.321-.581l1.683-1.308q.454-.348.994-.348t.994.348zm2.048 13.61l-4.954-4.954l-1.844 1.423q-.454.348-.994.348t-.994-.348L5.12 13.408q-.188-.146-.195-.384q-.007-.237.182-.403q.14-.104.311-.104t.312.104l5.884 4.552q.173.135.385.135q.212 0 .385-.135L14.1 15.83l-1.73-1.72h.705l-.08.07q-.455.329-.995.332q-.54.002-.975-.346l-4.827-3.744q-.621-.465-.611-1.238q.01-.773.611-1.239l.012-.011L2.1 3.829q-.146-.146-.159-.347q-.012-.201.153-.367q.166-.165.357-.165q.191 0 .357.165L20.5 20.808q.14.14.15.344q.01.204-.15.363q-.16.16-.354.16t-.354-.16m-.894-8.894q.183.166.173.39q-.01.226-.192.397l-1.3 1.019q-.166.115-.348.1q-.183-.015-.323-.156q-.171-.171-.146-.393q.025-.222.207-.363l1.3-.994q.14-.104.315-.104q.174 0 .314.104"/></svg>