<svg xmlns="http://www.w3.org/2000/svg" width="1em" height="1em" viewBox="0 0 24 24"><path fill="currentColor" d="m19.242 20.27l-4.28-4.295l-.52 1.583q-.105.292-.398.29q-.292-.004-.379-.296l-1.448-4.825q-.061-.217.116-.394t.394-.116l4.825 1.448q.292.087.295.38q.003.292-.29.397l-1.582.52l4.3 4.28q.213.214.213.514q0 .3-.213.513q-.213.214-.516.214q-.303 0-.517-.214M7 12q0-2.077 1.462-3.538Q9.923 7 12 7q1.598 0 2.86.88t1.798 2.31q.073.189-.013.39t-.274.276q-.188.073-.378-.022q-.19-.096-.262-.284q-.425-1.125-1.44-1.838Q13.274 8 12 8q-1.65 0-2.825 1.175T8 12q0 1.275.722 2.3t1.847 1.45q.189.073.265.265q.076.193.003.381q-.074.189-.266.262q-.192.073-.38 0q-1.437-.554-2.314-1.813Q7 13.587 7 12"/></svg>