<svg xmlns="http://www.w3.org/2000/svg" width="1em" height="1em" viewBox="0 0 24 24"><path fill="currentColor" d="m15.221 12.41l-.91-.91h.65q.214 0 .357.143q.144.144.144.357q0 .135-.062.238q-.062.104-.179.172m5.625 9.144q-.16.16-.354.16t-.354-.16L2.446 3.862q-.14-.14-.15-.345q-.01-.204.15-.363t.354-.16q.194 0 .354.16l17.692 17.692q.14.14.15.344q.01.204-.15.364m-13.77-5.477q-1.69 0-2.883-1.193Q3 13.69 3 12q0-1.61 1.098-2.777t2.69-1.265h.462l.965.965H7.077q-1.27 0-2.173.904T4 12q0 1.27.904 2.173t2.173.904h3.077q.213 0 .357.143t.143.357q0 .213-.143.357q-.144.143-.357.143zM9.039 12.5q-.213 0-.356-.143q-.144-.144-.144-.357t.144-.357q.143-.143.356-.143h1.76l.975 1zm9.135 2.915q-.11-.177-.057-.384t.25-.298q.747-.387 1.19-1.118Q20 12.885 20 12q0-1.27-.894-2.173t-2.144-.904h-3.116q-.213 0-.357-.143t-.143-.357q0-.213.143-.357q.144-.143.357-.143h3.116q1.67 0 2.854 1.193Q21 10.31 21 12q0 1.148-.591 2.095q-.592.947-1.553 1.493q-.177.11-.375.057t-.308-.23"/></svg>