<svg xmlns="http://www.w3.org/2000/svg" width="1em" height="1em" viewBox="0 0 24 24"><path fill="currentColor" d="M7.308 20H4.615q-.666 0-1.14-.475Q3 19.051 3 18.385v-8.077q0-.384.172-.727q.171-.343.474-.566l5.385-4.077q.223-.161.466-.242t.507-.08q.263 0 .504.08q.24.08.461.242l2.416 1.827q.211.162.187.414q-.024.252-.253.39q-.744.485-1.273 1.217q-.529.731-.761 1.624q-.233.892-.134 1.785q.099.893.524 1.69q.125.248.037.504q-.088.257-.322.36q-1.107.474-1.753.953q-.647.479-1.016 1.129q-.256.43-.38.899q-.126.468-.126.947v.515q0 .344-.232.576q-.232.232-.575.232m8.694-3.808q1.29 0 2.495.331q1.205.33 2.278.967q.335.218.53.527q.195.309.195.66v.346q0 .411-.283.694t-.694.283h-9.046q-.396 0-.687-.29q-.29-.29-.29-.687v-.346q0-.351.195-.66q.195-.31.53-.527q1.073-.636 2.28-.967q1.207-.33 2.497-.33m0-2.097q-1.04 0-1.771-.728q-.731-.729-.731-1.77q0-1.04.729-1.771q.728-.73 1.769-.73q1.04 0 1.771.728q.731.728.731 1.769t-.728 1.771q-.729.731-1.77.731"/></svg>