<svg xmlns="http://www.w3.org/2000/svg" width="1em" height="1em" viewBox="0 0 24 24"><path fill="currentColor" d="M3 17.577v-.608q0-.657.367-1.178q.368-.52.964-.818q1.252-.629 2.607-.996q1.354-.367 2.762-.367q.273 0 .435.226q.161.226.094.518q-.092.371-.129.742q-.037.371-.037.748q0 .475.074.93q.073.453.194.91q.104.349-.086.64q-.19.291-.537.291h-5.67q-.44 0-.739-.299T3 17.576m13.615-.5q.748 0 1.278-.529t.53-1.278q0-.748-.53-1.278t-1.278-.53q-.748 0-1.277.53q-.53.53-.53 1.278t.53 1.278t1.277.53M10 11.385q-1.246 0-2.123-.877Q7 9.63 7 8.385q0-1.247.877-2.123q.877-.877 2.123-.877q1.246 0 2.123.877q.877.876.877 2.123q0 1.246-.877 2.123q-.877.877-2.123.877m6.158 7.353l-.093-.796q-.415-.086-.783-.291q-.369-.205-.663-.52l-.763.32q-.152.062-.282.005q-.13-.058-.209-.18l-.065-.118q-.079-.127-.058-.285q.021-.158.143-.248l.646-.475q-.166-.427-.166-.88q0-.455.166-.882l-.627-.513q-.121-.09-.152-.236q-.03-.145.048-.272l.071-.125q.079-.12.216-.179q.136-.057.288.004l.744.321q.275-.315.653-.51t.793-.282l.093-.802q.017-.157.135-.255q.119-.097.276-.097h.131q.158 0 .276.1q.118.1.136.258l.073.796q.415.087.793.285q.378.198.653.519l.732-.321q.158-.067.29-.01t.212.185l.085.12q.079.126.048.274q-.03.148-.152.239l-.627.513q.166.415.166.875t-.166.875l.646.475q.122.09.143.245q.02.155-.058.282l-.071.125q-.079.121-.206.179t-.279-.004l-.763-.321q-.294.315-.663.52t-.783.291l-.073.802q-.018.158-.136.255q-.118.097-.276.097h-.13q-.158 0-.277-.1t-.135-.258"/></svg>