<svg xmlns="http://www.w3.org/2000/svg" width="1em" height="1em" viewBox="0 0 24 24"><path fill="currentColor" d="M10 11.385q-1.237 0-2.119-.882T7 8.385q0-1.238.881-2.12q.881-.88 2.119-.88t2.119.88q.881.882.881 2.12q0 1.237-.881 2.118T10 11.385m-7 6.192v-.608q0-.69.358-1.194q.357-.504.973-.821q1.257-.648 2.612-.993q1.354-.346 2.774-.346h.289q.212 0 .356.15q.144.148.144.359q0 .21-.144.354q-.144.143-.356.143h-.289q-1.306 0-2.53.302q-1.225.302-2.38.927q-.326.183-.567.465q-.24.283-.24.654v.646h6.006q.212 0 .356.144t.144.357q0 .213-.144.356t-.356.143H4.038q-.44 0-.739-.299T3 17.576m13.158 1.162l-.093-.796q-.415-.086-.783-.291q-.369-.205-.663-.52l-.763.32q-.152.062-.284.006q-.133-.056-.207-.18l-.065-.12q-.079-.126-.057-.28q.022-.153.142-.252l.646-.475q-.166-.427-.166-.88q0-.455.166-.882l-.627-.513q-.121-.09-.152-.236q-.03-.145.048-.272l.071-.125q.08-.124.216-.18q.136-.056.288.005l.744.321q.275-.315.653-.51t.793-.282l.093-.802q.017-.157.135-.255q.119-.097.276-.097h.131q.158 0 .276.1q.118.1.136.258l.073.796q.415.087.793.285q.378.198.653.519l.732-.321q.158-.067.29-.01t.21.176l.089.137q.077.118.046.266q-.03.148-.152.239l-.627.513q.166.421.166.878t-.166.872l.646.475q.122.09.143.245q.02.155-.058.282l-.071.125q-.075.124-.204.18q-.129.056-.28-.005l-.764-.321q-.294.315-.663.52t-.783.291l-.073.802q-.018.158-.136.255q-.118.097-.276.097h-.13q-.158 0-.277-.1t-.135-.258m.46-1.661q.745 0 1.275-.532q.53-.531.53-1.277t-.531-1.277q-.532-.53-1.278-.53t-1.277.532q-.53.532-.53 1.278t.532 1.276q.532.53 1.278.53M10 10.385q.825 0 1.413-.588T12 8.385q0-.825-.587-1.413T10 6.385q-.825 0-1.412.587T8 8.385q0 .825.588 1.412t1.412.588m.3 7.23"/></svg>