<svg xmlns="http://www.w3.org/2000/svg" width="1em" height="1em" viewBox="0 0 24 24"><path fill="currentColor" d="M6 19.5v.885q0 .23.192.423q.193.192.423.192h8.77q.23 0 .423-.192q.192-.193.192-.423V19.5zm8.95-5.608l5.335-5.334q.14-.14.344-.15q.204-.01.363.15q.16.16.16.354q0 .194-.16.353l-5.477 5.477q-.242.243-.565.243q-.323 0-.565-.243l-2.639-2.638q-.14-.14-.15-.344q-.01-.204.15-.364t.354-.16q.194 0 .354.16zM6 4.5h10v-.885q0-.23-.192-.423Q15.615 3 15.385 3h-8.77q-.23 0-.423.192Q6 3.385 6 3.615zm0 0V3zm0 15V21zm.615 2.5q-.67 0-1.143-.472Q5 21.056 5 20.385V3.615q0-.67.472-1.143Q5.944 2 6.615 2h8.77q.67 0 1.143.472q.472.472.472 1.143v2.808q0 .214-.143.357q-.144.143-.357.143t-.357-.143T16 6.423V5.5H6v13h10v-.923q0-.214.143-.357t.357-.143q.213 0 .357.143q.143.143.143.357v2.808q0 .67-.472 1.143q-.472.472-1.143.472z"/></svg>