<svg xmlns="http://www.w3.org/2000/svg" width="1em" height="1em" viewBox="0 0 24 24"><path fill="currentColor" d="m14.95 13.892l5.335-5.334q.14-.14.344-.15q.204-.01.363.15q.16.16.16.354q0 .194-.16.353l-5.477 5.477q-.242.243-.565.243q-.323 0-.565-.243l-2.639-2.638q-.14-.14-.15-.344q-.01-.204.15-.364t.354-.16q.194 0 .354.16zM6.615 22q-.666 0-1.14-.475Q5 21.052 5 20.386V3.615q0-.666.475-1.14Q5.949 2 6.615 2h8.77q.666 0 1.14.475q.475.474.475 1.14v2.808q0 .213-.144.356q-.144.144-.357.144q-.212 0-.356-.144Q16 6.636 16 6.423V5.5H6v13h10v-.923q0-.213.144-.356t.357-.144q.212 0 .356.144q.143.143.143.356v2.808q0 .666-.475 1.14q-.474.475-1.14.475z"/></svg>