<svg xmlns="http://www.w3.org/2000/svg" width="1em" height="1em" viewBox="0 0 24 24"><path fill="currentColor" d="M19.479 21.9L3.094 5.521q-.146-.146-.156-.347q-.01-.2.156-.366q.166-.166.357-.166t.357.166l16.384 16.384q.146.146.156.345q.01.198-.156.363q-.165.165-.356.165t-.357-.165m-5.46-12.6q-1.555 0-2.697-1.025q-1.141-1.025-1.297-2.563q-.256.211-.474.423q-.218.211-.43.423q-.171.16-.368.163q-.197.004-.357-.161q-.16-.166-.17-.376q-.009-.21.162-.37q.374-.381.768-.701q.394-.32.842-.651q.32-.235.66-.054q.342.18.342.58V5.3q0 1.275.878 2.138t2.147.862q.47 0 .914-.162q.446-.161.842-.453q.2-.154.43-.147q.23.008.424.162q1.117.992 1.741 2.377Q19 11.462 19 13q0 .67-.134 1.296q-.133.625-.376 1.206q-.055.188-.245.276t-.378 0q-.104-.05-.167-.116q-.063-.068-.094-.153q-.03-.085-.04-.183q-.012-.097.013-.201q.223-.494.322-1.034T18 13q0-1.25-.462-2.363T16.2 8.65q-.5.325-1.052.488q-.552.162-1.129.162M12 20q-2.931 0-4.966-2.034T5 13q0-1.36.464-2.67q.465-1.31 1.3-2.56l.732.732q-.738 1.115-1.117 2.236Q6 11.86 6 13q0 1.723.92 3.164q.918 1.442 2.47 2.163q-.198-.298-.294-.62Q9 17.388 9 17.05q0-.588.233-1.125q.232-.537.654-.938l2.055-2.02l.695.695l-2.062 2.038q-.275.275-.425.625t-.15.725q0 .8.588 1.375T12 19q.825 0 1.413-.575T14 17.05q0-.4-.162-.732q-.163-.332-.438-.612l.65-.65l2.902 2.902q-.952.96-2.216 1.5Q13.47 20 12 20"/></svg>