<svg xmlns="http://www.w3.org/2000/svg" width="1em" height="1em" viewBox="0 0 24 24"><path fill="currentColor" d="M10.525 8.167q.37 0 .708-.13q.338-.131.615-.349q.125-.117.302-.116q.177.001.32.126q.382.323.681.704q.299.38.534.833q.142.273.07.577q-.07.303-.288.52L10.96 12.84l-.026-.026l-.026-.026l-1.343-1.33q-.242-.237-.565-.24q-.323-.003-.565.24l-1.37 1.369q-.442.442-.646 1.012q-.204.57-.125 1.188q.027.346-.291.497q-.318.151-.582-.09q-.234-.194-.447-.443q-.212-.249-.384-.506q-.398-.608-.619-1.32q-.221-.713-.221-1.473q0-2.252 1.088-3.564q1.089-1.313 2.645-2.709q.23-.196.499-.068q.268.128.268.426v.121q0 .952.659 1.61q.658.66 1.616.66M9 12.312l1.213 1.183q.018.012.03.029q.01.017.022.029l-2.03 2.03q-.137.137-.307.134q-.17-.003-.313-.14q-.142-.136-.253-.337q-.112-.2-.112-.504q0-.368.143-.664q.144-.296.38-.533zm4.154 2.549l-1.712 1.711v5.292q0 .214-.143.357t-.357.143q-.213 0-.356-.143q-.144-.143-.144-.357v-4.292l-4.419 4.439q-.14.16-.344.16t-.364-.16q-.16-.16-.16-.354q0-.195.16-.354L20.304 6.315q.14-.14.344-.15q.204-.01.364.15t.16.354q0 .194-.16.354l-4.439 4.439h4.292q.214 0 .357.143t.143.357q0 .213-.143.356q-.143.144-.357.144h-5.311l-1.692 1.692l1.942 1.942h5.061q.214 0 .357.143q.143.144.143.357q0 .214-.143.357t-.357.143h-4.061l3.073 3.073q.14.14.15.344q.01.204-.15.364t-.354.16q-.194 0-.354-.16l-3.073-3.073v4.061q0 .214-.143.357t-.357.143q-.213 0-.357-.143q-.143-.143-.143-.357v-5.061z"/></svg>