<svg xmlns="http://www.w3.org/2000/svg" width="1em" height="1em" viewBox="0 0 24 24"><path fill="currentColor" d="M14.025 8.3q.483 0 .918-.156q.436-.156.838-.46q.2-.153.43-.143q.23.01.427.167q1.089.984 1.725 2.356Q19 11.437 19 13q0 .829-.194 1.588q-.194.758-.558 1.427q-.221.452-.724.516q-.503.063-.882-.316L7.996 7.57q-.248-.248-.258-.595q-.01-.347.225-.609q.502-.567 1.033-1.03q.53-.464 1.021-.848q.32-.235.651-.06q.332.175.332.561V5.3q0 1.387.933 2.193q.932.807 2.092.807m-4.492 6.333q-.495.494-.764 1.11q-.269.615-.269 1.307q0 .321.07.613q.07.293.178.575q.114.304-.142.476q-.256.173-.543-.004q-.505-.32-.935-.744q-.43-.424-.803-.908q-.615-.856-.97-1.888T5 13q0-1.527.504-2.815q.504-1.289 1.284-2.397l4.8 4.8zM12 19.5q-1.038 0-1.77-.718q-.73-.719-.73-1.732q0-.479.177-.91q.177-.432.544-.8L12 13.592l1.779 1.748q.348.348.534.777q.187.43.187.933q0 1.013-.73 1.732q-.732.718-1.77.718m7.479 2.4L3.094 5.521q-.146-.146-.156-.347q-.01-.2.156-.366q.166-.166.357-.166t.357.166l16.384 16.384q.146.146.156.345q.01.198-.156.363q-.165.165-.356.165t-.357-.165"/></svg>