<svg xmlns="http://www.w3.org/2000/svg" width="1em" height="1em" viewBox="0 0 24 24"><path fill="currentColor" d="M11.5 5.985V4.846q0-.213.143-.357q.144-.143.357-.143t.357.143q.143.144.143.357v1.127q.952.09 1.69.678t1.098 1.484q.074.188-.015.383q-.088.195-.277.269q-.188.073-.384-.006t-.268-.268q-.28-.719-.903-1.15q-.622-.432-1.391-.432q-.508 0-.984.176t-.82.558q-.165.166-.36.166q-.194 0-.36-.166q-.164-.165-.164-.36q0-.193.165-.359q.386-.425.892-.662t1.081-.3M18.985 20.4l-3.823-3.823q-.414.586-1.16.987t-1.502.413v1.138q0 .214-.143.357q-.144.143-.357.143t-.357-.143q-.143-.143-.143-.357v-1.188q-1.106-.217-1.806-.867t-1.136-1.69q-.085-.208-.027-.422q.057-.213.265-.298q.194-.085.395.008q.201.092.292.3q.355.873 1.031 1.457Q11.19 17 12.2 17q.72 0 1.296-.314q.577-.315.946-.828L3.6 5.015q-.14-.14-.15-.344q-.01-.204.15-.363q.16-.16.354-.16q.194 0 .354.16l15.384 15.384q.14.14.15.345q.01.203-.15.363q-.16.16-.354.16q-.194 0-.353-.16"/></svg>