<svg xmlns="http://www.w3.org/2000/svg" width="1em" height="1em" viewBox="0 0 24 24"><path fill="currentColor" d="M11.5 5.985V4.846q0-.213.143-.357q.144-.143.357-.143t.357.143q.143.144.143.357v1.127q.788.073 1.441.509q.653.435 1.057 1.106q.121.177.084.378q-.038.201-.215.322q-.177.122-.378.084q-.2-.037-.322-.214q-.33-.56-.898-.894t-1.219-.333q-.41 0-.797.132q-.388.133-.715.374q-.188.117-.374.063q-.185-.054-.302-.242q-.118-.189-.074-.374q.045-.186.233-.303q.316-.254.692-.4q.375-.146.787-.196M18.985 20.4l-3.823-3.823q-.414.586-1.16.987t-1.502.413v1.138q0 .214-.143.357q-.144.143-.357.143t-.357-.143q-.143-.143-.143-.357v-1.188q-1.1-.217-1.8-.864q-.7-.648-1.142-1.694q-.085-.207-.027-.42q.057-.214.265-.299q.194-.085.395.008q.201.092.292.3q.355.873 1.031 1.457Q11.19 17 12.2 17q.72 0 1.296-.314q.577-.315.946-.828L3.6 5.015q-.14-.14-.15-.344q-.01-.204.15-.363q.16-.16.354-.16q.194 0 .354.16l15.384 15.384q.14.14.15.345q.01.203-.15.363q-.16.16-.354.16q-.194 0-.353-.16"/></svg>