<svg xmlns="http://www.w3.org/2000/svg" width="1em" height="1em" viewBox="0 0 24 24"><path fill="currentColor" d="M4 20.5q-.213 0-.357-.144Q3.5 20.213 3.5 20v-.788q0-.213.144-.357q.144-.143.357-.143t.356.143q.143.144.143.357V20q0 .213-.144.356q-.144.144-.357.144m4 0q-.212 0-.356-.144Q7.5 20.213 7.5 20v-5.288q0-.213.144-.357q.144-.143.357-.143t.356.143q.143.144.143.357V20q0 .213-.144.356q-.144.144-.357.144m4 0q-.212 0-.356-.144q-.143-.143-.143-.356v-3.288q0-.213.144-.357q.144-.143.357-.143t.356.143q.143.144.143.357V20q0 .213-.144.356q-.144.144-.357.144m4 0q-.212 0-.356-.144q-.143-.143-.143-.356v-4.788q0-.213.144-.357q.144-.143.357-.143t.356.143q.143.144.143.357V20q0 .213-.144.356q-.144.144-.357.144m4 0q-.212 0-.356-.144q-.143-.143-.143-.356v-8.788q0-.213.144-.357q.144-.143.357-.143t.356.143q.143.144.143.357V20q0 .213-.144.356q-.144.144-.357.144M14 11.437q-.304 0-.598-.12q-.295-.12-.539-.34l-2.42-2.421q-.174-.173-.443-.173t-.442.173L4.354 13.76q-.146.146-.357.153q-.21.006-.357-.16q-.14-.145-.134-.349q.006-.203.14-.339l5.217-5.217q.244-.24.539-.35q.294-.11.598-.11t.609.11q.304.11.528.35l2.42 2.421q.174.173.443.173t.442-.173l5.204-5.204q.146-.146.357-.153q.21-.006.357.16q.14.145.134.349q-.006.203-.14.339l-5.217 5.217q-.224.22-.529.34q-.304.12-.608.12"/></svg>