<svg xmlns="http://www.w3.org/2000/svg" width="1em" height="1em" viewBox="0 0 24 24"><path fill="currentColor" d="M4.615 19q-.69 0-1.152-.462Q3 18.075 3 17.385V6.615q0-.69.463-1.152Q3.925 5 4.615 5L5.74 7.25q.175.35.5.55t.7.2q.75 0 1.15-.638t.05-1.312L7.615 5h2l1.125 2.25q.175.35.5.55t.7.2q.75 0 1.15-.638t.05-1.312L12.615 5h2l1.125 2.25q.175.35.5.55t.7.2q.75 0 1.15-.638t.05-1.312L17.615 5h1.77q.69 0 1.152.463q.463.462.463 1.152v2.681q0 .242-.192.398q-.193.156-.435.12q-.633-.054-1.253.164q-.62.218-1.116.695l-5.679 5.64q-.217.218-.348.523t-.13.627v.73q0 .347-.23.577q-.23.23-.579.23zm9.616.192V18.12q0-.161.056-.3q.055-.14.186-.27l5.09-5.066q.149-.13.308-.19q.16-.062.32-.062q.165 0 .334.064t.298.193l.925.945q.123.148.188.307q.064.16.064.32t-.052.322t-.2.31l-5.065 5.066q-.131.13-.27.186q-.14.056-.301.056h-1.074q-.348 0-.577-.23q-.23-.23-.23-.578m5.96-4.177l.924-.955l-.925-.945l-.95.95z"/></svg>