<svg xmlns="http://www.w3.org/2000/svg" width="1em" height="1em" viewBox="0 0 24 24"><path fill="currentColor" d="M4 18V9zm.615 1q-.69 0-1.152-.462Q3 18.075 3 17.385V6.615q0-.69.463-1.152Q3.925 5 4.615 5L5.74 7.25q.175.35.5.55t.7.2q.75 0 1.15-.638t.05-1.312L7.615 5h2l1.125 2.25q.175.35.5.55t.7.2q.75 0 1.15-.638t.05-1.312L12.615 5h2l1.125 2.25q.175.35.5.55t.7.2q.75 0 1.15-.638t.05-1.312L17.615 5h1.77q.69 0 1.152.463q.463.462.463 1.152v2.443q0 .31-.23.54q-.23.229-.54.229H20V9H4v8.385q0 .269.173.442t.442.173h6.731q.214 0 .357.143q.143.144.143.357t-.143.357q-.143.143-.357.143zm9.616.192V18.12q0-.161.056-.3q.055-.14.186-.27l5.09-5.066q.149-.148.308-.2q.16-.052.32-.052q.165 0 .334.064t.298.193l.925.945q.123.148.188.307q.064.16.064.32t-.062.322q-.061.162-.19.31l-5.065 5.066q-.131.13-.27.186q-.14.056-.301.056h-1.074q-.348 0-.577-.23q-.23-.23-.23-.578m6.884-5.132l-.925-.945zm-6 5.055h.95l3.468-3.473l-.47-.475l-.455-.488l-3.493 3.486zm3.948-3.948l-.455-.488l.925.963z"/></svg>