<svg xmlns="http://www.w3.org/2000/svg" width="1em" height="1em" viewBox="0 0 24 24"><path fill="currentColor" d="M12 18.423q-1.188 0-2.017-.829q-.83-.829-.83-2.017q0-1.189.83-2.017q.829-.83 2.017-.83t2.017.83q.83.828.83 2.017q0 1.188-.83 2.017q-.829.83-2.017.83M12 5.73q-1.888 0-3.605.679q-1.716.678-3.07 1.88q-.177.14-.371.15q-.194.01-.366-.15q-.165-.16-.155-.363q.01-.204.18-.344q1.47-1.304 3.33-2.078Q9.801 4.73 12 4.73q2.198 0 4.058.774q1.86.774 3.329 2.083q.17.14.177.342q.007.2-.158.36q-.171.16-.363.15q-.191-.01-.368-.15q-1.354-1.202-3.07-1.88q-1.717-.68-3.605-.68m0 4q-1.102 0-2.037.337q-.936.337-1.77 1.025q-.178.135-.381.142q-.204.006-.375-.159q-.147-.14-.147-.338q0-.199.172-.333q1.025-.835 2.133-1.254q1.109-.42 2.405-.42t2.402.42q1.106.42 2.13 1.254q.172.134.175.333q.003.198-.144.338q-.165.165-.369.159q-.204-.007-.38-.142q-.835-.688-1.774-1.025q-.938-.336-2.04-.336"/></svg>