<svg xmlns="http://www.w3.org/2000/svg" width="1em" height="1em" viewBox="0 0 24 24"><path fill="currentColor" d="M12 6q-2.475 0-4.8.775T2.9 9.05l6.05 6.05q.442-.29.914-.474q.473-.184 1.001-.28q.247-.058.47-.086q.225-.03.47-.023q.233.011.366.203q.133.193.079.445t-.075.49q-.021.238-.021.496q0 .334.079.65q.079.317.186.65q.108.333.177.65q.07.316.07.65q0 .303-.217.478q-.217.174-.52.174q-.177 0-.342-.061q-.165-.062-.32-.218L2.256 9.833q-.16-.16-.236-.353q-.076-.193-.076-.4q0-.224.101-.436q.101-.211.292-.37q2.092-1.607 4.558-2.44Q9.362 5 12 5t5.105.834q2.466.833 4.558 2.44q.19.159.292.37q.1.21.1.434q0 .21-.075.403q-.076.192-.236.352l-.982.977q-.147.151-.348.158q-.2.007-.366-.158q-.165-.166-.156-.36q.01-.194.156-.354L21.1 9.05q-1.975-1.5-4.3-2.275T12 6m4.39 13.577q-.392 0-.66-.265q-.268-.266-.268-.658v-2.697q0-.382.265-.65q.265-.269.658-.269h.096v-1q0-.748.51-1.258t1.259-.51t1.259.51q.51.51.51 1.258v1h.096q.376 0 .63.266q.255.265.255.658v2.696q0 .382-.265.65q-.265.269-.657.269zm.86-4.539h2v-1q0-.425-.288-.712t-.712-.288q-.425 0-.712.288t-.288.712z"/></svg>