<svg xmlns="http://www.w3.org/2000/svg" width="1em" height="1em" viewBox="0 0 24 24"><path fill="currentColor" d="M18.192 17.462v-2.347q0-.153-.115-.269q-.115-.115-.27-.115t-.269.115q-.115.116-.115.27v2.332q0 .153.056.297q.056.143.186.274l1.52 1.52q.111.111.263.12q.152.01.283-.12q.13-.131.13-.274q0-.142-.13-.273zm-5.807-8.039V5.808q0-.344.232-.576q.232-.232.575-.232h2.29q.22 0 .408.099q.189.1.295.31l1.757 3.168h-1.257l-.706-1.335q-.098-.217-.295-.326q-.197-.108-.413-.108h-1.136q-.154 0-.27.115q-.115.115-.115.27t.115.269q.116.115.27.115h1.152l.696 1.335q.098.217.295.326q.196.108.412.108h1.687l.413.727q.243.404-.033.805q-.276.4-.786.359q-.04-.006-.082-.006h-.081q-1.366 0-2.536.525t-2.032 1.423q-.234.236-.545.13q-.31-.106-.31-.407v-2.71h1.519q.154 0 .27-.115q.114-.115.114-.27q0-.153-.115-.269q-.115-.115-.27-.115zM10.808 19h-2.29q-.22 0-.408-.099q-.189-.1-.295-.31l-1.757-3.168h1.257l.706 1.335q.098.217.295.326q.197.108.413.108h1.136q.154 0 .27-.115q.115-.115.115-.27t-.115-.269q-.116-.115-.27-.115H8.701l-.703-1.335q-.098-.217-.295-.325q-.196-.11-.413-.11H5.623L4.347 12.41q-.045-.112-.073-.211q-.028-.1-.028-.199q0-.062.106-.404l1.271-2.25H7.29q.217 0 .413-.109q.197-.108.295-.325l.703-1.335h1.164q.154 0 .27-.115q.115-.116.115-.27t-.115-.269q-.116-.115-.27-.115H8.73q-.216 0-.413.108q-.197.109-.295.326l-.706 1.335H6.058L7.815 5.41q.106-.212.295-.311T8.517 5h2.29q.344 0 .576.232q.232.232.232.576v3.615h-1.519q-.154 0-.27.115q-.114.116-.114.27q0 .154.115.269q.115.115.27.115h1.518v2.731H9.646l-.667-1.315q-.098-.218-.295-.326q-.197-.109-.413-.109H6.905q-.163 0-.274.115q-.112.116-.112.27t.116.269q.115.115.269.115h1.392l.667 1.316q.099.217.295.326q.197.108.413.108h1.944v2.458q-.096.345-.144.719q-.048.373-.048.746q0 .252.018.485q.019.233.067.485q-.087.182-.274.299q-.188.116-.426.116m7 2.615q-1.671 0-2.836-1.164q-1.164-1.164-1.164-2.836q0-1.67 1.164-2.835q1.165-1.165 2.836-1.165q1.67 0 2.835 1.165t1.165 2.835q0 1.672-1.165 2.836q-1.164 1.164-2.835 1.164"/></svg>