<svg xmlns="http://www.w3.org/2000/svg" width="1em" height="1em" viewBox="0 0 24 24"><path fill="currentColor" d="M18.192 15.058q-.142 0-.288-.053t-.277-.184L8.479 5.687q-.217-.218-.348-.523Q8 4.86 8 4.537v-.73q0-.347.23-.577q.23-.23.578-.23h.384q.348 0 .578.23q.23.23.23.578V5h4V3.808q0-.348.23-.578q.23-.23.578-.23h.384q.348 0 .578.23q.23.23.23.578v1.246q1.28.177 2.14 1.111q.86.935.86 2.239v5.846q0 .373-.252.59q-.252.218-.556.218M6.615 21q-.67 0-1.152-.453q-.482-.453-.463-1.105V8.404q0-.69.264-1.31t.757-1.073L6.4 6.4v1.421l-3.3-3.3q-.14-.14-.15-.341q-.01-.201.15-.367q.165-.165.357-.165t.356.165l16.374 16.38q.14.14.152.34q.013.202-.152.367q-.16.16-.354.16q-.195 0-.354-.16l-2.577-2.577h1.415L19 19v.423q0 .652-.472 1.115q-.472.462-1.143.462zm5.618-7.346l-1-1H8.385q-.214 0-.357.143t-.143.357q0 .213.143.357q.143.143.357.143z"/></svg>