<svg xmlns="http://www.w3.org/2000/svg" width="1em" height="1em" viewBox="0 0 24 24"><path fill="currentColor" d="M15 9V7q0-1.25-.891-2.125T11.929 4q-1.144 0-1.93.653q-.787.653-1.005 1.776q-.06.213-.226.328t-.374.06q-.213-.054-.33-.22q-.118-.166-.064-.374q.212-1.39 1.312-2.307Q10.412 3 11.929 3q1.69 0 2.88 1.174Q16 5.348 16 7v2h1.385q.69 0 1.152.463q.463.462.463 1.152v5.962q0 .25-.159.375t-.341.125q-.183 0-.341-.128q-.159-.128-.159-.378v-5.956q0-.269-.173-.442T17.385 10h-5.981q-.25 0-.375-.159t-.125-.341q0-.183.125-.341T11.404 9zM6.615 21q-.69 0-1.152-.462Q5 20.075 5 19.385v-8.77q0-.567.353-.996q.353-.429.909-.557L1.054 3.854q-.14-.14-.15-.344q-.01-.204.15-.364t.354-.16q.194 0 .354.16l19.092 19.092q.14.14.15.345q.01.204-.15.363t-.354.16q-.194 0-.354-.16l-2.08-2.08q-.237.086-.481.11Q17.34 21 17 21zm10.535-1l-4.021-4.071q-.217.217-.493.329q-.276.111-.586.111q-.633 0-1.066-.433q-.434-.434-.434-1.067q0-.31.112-.585q.111-.276.328-.494L7.15 10h-.535q-.269 0-.442.173T6 10.615v8.77q0 .269.173.442t.442.173zm-2.417-6.733"/></svg>