<svg xmlns="http://www.w3.org/2000/svg" width="1em" height="1em" viewBox="0 0 24 24"><path fill="currentColor" d="M18.49 16.323q-.217.087-.444.059q-.227-.028-.42-.22l-5.788-5.789q-.192-.192-.22-.42q-.028-.226.059-.443q.086-.218.273-.364q.187-.146.46-.146H15V7q0-1.25-.891-2.125T11.929 4q-1.144 0-1.94.653q-.797.653-.995 1.776q-.06.213-.226.328t-.374.06q-.213-.054-.33-.22q-.118-.166-.064-.374q.212-1.39 1.312-2.307Q10.412 3 11.929 3q1.69 0 2.88 1.174Q16 5.348 16 7v2h1.385q.69 0 1.152.463q.463.462.463 1.152v4.975q0 .273-.146.46t-.364.273M6.615 21q-.69 0-1.152-.462Q5 20.075 5 19.385v-8.77q0-.65.391-1.047q.392-.397.87-.506L1.055 3.854q-.14-.14-.15-.344q-.01-.204.15-.364t.354-.16q.194 0 .354.16l19.092 19.092q.14.14.15.345q.01.204-.15.363t-.354.16q-.194 0-.354-.16l-2.08-2.08q-.226.086-.47.11Q17.352 21 17 21zm4.35-7.185q-.217.218-.328.494q-.112.276-.112.585q0 .633.434 1.067q.433.433 1.066.433q.31 0 .586-.111q.276-.112.493-.33z"/></svg>