<svg xmlns="http://www.w3.org/2000/svg" width="1em" height="1em" viewBox="0 0 24 24"><path fill="currentColor" d="M21.477 7.273L20.42 17.496q-.024.305-.32.408q-.295.104-.514-.116q-.074-.073-.11-.189q-.037-.116-.03-.226l1.026-9.988H11.95q-.212 0-.356-.144t-.144-.357q0-.213.144-.356t.356-.143h3.992v-3.5q0-.213.144-.357t.357-.143q.213 0 .356.143t.143.357v3.5h3.727q.364 0 .61.262q.248.263.198.626m-1.74 14.898L1.22 3.661q-.146-.146-.156-.347q-.01-.2.156-.366q.166-.165.357-.165q.191 0 .357.165L20.45 21.463q.146.147.156.345q.01.198-.156.363q-.165.166-.357.166t-.356-.166M2.942 18.692q-.212 0-.356-.144t-.144-.356q0-.213.144-.356q.144-.144.356-.144h12.231q.213 0 .356.144t.144.357q0 .213-.144.356q-.143.143-.356.143zm0 3.308q-.212 0-.356-.144t-.144-.357q0-.212.144-.356Q2.73 21 2.942 21h12.231q.213 0 .356.144t.144.357q0 .212-.144.356t-.356.143zm7.262-10.783v1q-.279-.038-.564-.05q-.284-.013-.582-.013q-2.13 0-3.5.644t-1.825 1.587h9.638l1 1H3.456q-.384 0-.636-.305q-.253-.305-.153-.684q.27-.698.84-1.293q.572-.595 1.399-1.029q.827-.434 1.88-.677q1.052-.243 2.272-.243q.298 0 .582.012q.285.013.564.051m-1.146 3.168"/></svg>