<svg xmlns="http://www.w3.org/2000/svg" width="1em" height="1em" viewBox="0 0 24 24"><path fill="currentColor" d="m19.737 22.171l-6.793-6.786H3.456q-.384 0-.636-.305q-.253-.305-.153-.684q.27-.698.84-1.293q.572-.595 1.399-1.029q.827-.434 1.88-.677q1.052-.243 2.272-.243q.298 0 .592.012t.554.051v1.421L1.22 3.662q-.146-.147-.156-.348q-.01-.2.156-.366q.166-.165.357-.165q.191 0 .357.165L20.45 21.463q.146.147.156.345q.01.198-.156.363q-.165.166-.357.166t-.356-.166M2.942 18.692q-.212 0-.356-.144t-.144-.356q0-.213.144-.356q.144-.144.356-.144h12.231q.213 0 .356.144t.144.357q0 .213-.144.356q-.143.143-.356.143zm0 3.308q-.212 0-.356-.144t-.144-.357q0-.212.144-.356Q2.73 21 2.942 21h12.231q.213 0 .356.144t.144.357q0 .212-.144.356t-.356.143zm17.021-4.5q-.217.08-.444.04q-.227-.041-.413-.227l-6.887-6.905q-.195-.198-.302-.425q-.107-.227-.157-.5l-.302-2.185q-.05-.365.19-.64q.242-.273.612-.273h3.682v-3.5q0-.213.144-.357t.357-.143q.213 0 .356.143t.143.357v3.5h3.727q.364 0 .61.262q.248.263.198.626l-.979 9.55q-.03.267-.174.432q-.143.164-.36.245"/></svg>