<svg xmlns="http://www.w3.org/2000/svg" width="1em" height="1em" viewBox="0 0 24 24"><path fill="currentColor" d="M16.88 18.77H5.5q-.213 0-.356-.145Q5 18.481 5 18.27q0-.213.144-.356q.143-.144.356-.144h1.115V9.846q0-.575.126-1.156q.126-.582.378-1.11l.77.77q-.137.363-.205.737q-.069.374-.069.76v7.922h8.354L3.023 4.9q-.16-.134-.16-.341t.16-.367q.16-.16.354-.16q.194 0 .354.16L20.308 20.77q.14.14.153.342q.012.2-.157.37q-.156.156-.35.156t-.354-.16zM13 4.545q1.923.327 3.154 1.824q1.23 1.497 1.23 3.476v3.904q0 .25-.155.375t-.34.125q-.187 0-.346-.13q-.158-.129-.158-.376V9.846q0-1.823-1.281-3.104q-1.28-1.28-3.104-1.28q-.708 0-1.388.225q-.681.225-1.224.644q-.194.117-.404.094q-.21-.023-.344-.213q-.119-.164-.104-.344q.014-.18.185-.297q.498-.386 1.07-.646q.57-.26 1.209-.379V4q0-.417.291-.708q.291-.292.707-.292q.415 0 .709.292Q13 3.583 13 4zm-1 16.839q-.608 0-1.084-.335q-.476-.334-.476-.901q0-.162.132-.271q.131-.109.293-.109h2.266q.18 0 .305.11q.124.111.124.272q0 .562-.476.898q-.476.336-1.084.336m.71-11.102"/></svg>