<svg xmlns="http://www.w3.org/2000/svg" width="1em" height="1em" viewBox="0 0 24 24"><path fill="currentColor" d="M16.88 18.77H5.5q-.213 0-.356-.145Q5 18.481 5 18.27q0-.213.144-.356q.143-.144.356-.144h1.115V9.846q0-.575.126-1.156q.126-.582.378-1.11l2.266 2.266H7.969L3.023 4.9q-.14-.14-.15-.344q-.01-.204.15-.364t.354-.16q.194 0 .354.16L20.308 20.77q.14.14.153.342q.012.2-.157.37q-.156.156-.35.156t-.354-.16zm.505-5.757q0 .236-.147.431q-.146.196-.363.302t-.45.063q-.233-.044-.413-.224L9.098 6.67q-.136-.136-.211-.312q-.075-.175-.075-.372q0-.223.108-.435q.109-.212.301-.337q.41-.26.858-.417T11 4.546V4q0-.417.291-.708q.291-.292.707-.292q.415 0 .709.292Q13 3.583 13 4v.546q1.923.327 3.154 1.827q1.23 1.5 1.23 3.473zM12 21.385q-.608 0-1.084-.335q-.476-.334-.476-.901q0-.162.132-.271q.131-.109.293-.109h2.266q.18 0 .305.11q.124.111.124.272q0 .562-.476.898q-.476.336-1.084.336"/></svg>