<svg xmlns="http://www.w3.org/2000/svg" width="1em" height="1em" viewBox="0 0 24 24"><path fill="currentColor" d="M9 16.5q-.213 0-.356-.144Q8.5 16.212 8.5 16t.144-.356Q8.787 15.5 9 15.5h6.5l1 1zm3 4.5q-1.868 0-3.51-.709t-2.857-1.923q-1.215-1.215-1.924-2.858Q3 13.868 3 12q0-1.533.502-2.962q.502-1.428 1.475-2.634L3.094 4.52q-.146-.146-.156-.347q-.01-.2.156-.366q.166-.166.357-.166t.357.166l16.384 16.384q.146.146.156.345q.01.198-.156.363q-.165.165-.356.165t-.357-.165l-1.883-1.877q-1.206.973-2.634 1.475Q13.532 21 12 21m4.877-2.696L5.697 7.124q-.82 1.04-1.259 2.286Q4 10.656 4 12q0 3.35 2.325 5.675T12 20q1.344 0 2.59-.438q1.247-.439 2.287-1.258M15.548 7.996q.165.16.165.354t-.165.36l-1.66 1.66q-.14.14-.344.15q-.204.009-.363-.15q-.16-.16-.16-.355q0-.194.16-.353l1.665-1.666q.14-.14.339-.15q.198-.01.363.15M7.812 4.035q.955-.527 2.012-.781Q10.88 3 12 3q1.859 0 3.494.701q1.635.7 2.87 1.936q1.234 1.234 1.935 2.87Q21 10.14 21 12q0 1.1-.254 2.138q-.254 1.037-.742 1.993q-.092.182-.303.237t-.383-.049q-.173-.104-.235-.311q-.062-.208.036-.396q.44-.849.66-1.753Q20 12.954 20 12q0-3.35-2.325-5.675T12 4q-.954 0-1.859.22q-.904.22-1.753.66q-.188.099-.396.05q-.207-.047-.33-.224q-.124-.177-.078-.375q.045-.198.228-.296"/></svg>