<svg xmlns="http://www.w3.org/2000/svg" width="1em" height="1em" viewBox="0 0 24 24"><path fill="currentColor" d="M12 21q-1.868 0-3.51-.709t-2.857-1.923q-1.215-1.215-1.924-2.858Q3 13.868 3 12q0-1.533.502-2.962q.502-1.428 1.475-2.634L3.094 4.52q-.146-.146-.153-.347q-.006-.2.159-.366q.165-.166.357-.166t.356.166l16.38 16.384q.145.146.155.345q.01.198-.156.363q-.165.165-.356.165t-.357-.165l-1.883-1.877q-1.206.973-2.634 1.475Q13.532 21 12 21m-3-4.5h6.073l-1-1H9q-.213 0-.356.144q-.144.144-.144.357t.144.356q.143.143.356.143M12 3q1.868 0 3.51.709t2.858 1.924q1.215 1.215 1.923 2.857Q21 10.133 21 12q0 .935-.184 1.836q-.183.901-.55 1.747q-.124.29-.362.425q-.237.134-.526.134q-.207 0-.385-.07q-.179-.069-.337-.228l-4.83-4.829q-.13-.123-.13-.288t.13-.296l1.728-1.727q.165-.166.162-.357q-.003-.191-.168-.35q-.165-.16-.357-.158q-.191.003-.35.163l-1.722 1.721q-.124.13-.289.13q-.165 0-.295-.13l-4.38-4.379q-.158-.16-.228-.34q-.07-.18-.07-.38q0-.28.144-.52q.143-.239.416-.37q.846-.367 1.747-.55Q11.065 3 12 3"/></svg>