<svg xmlns="http://www.w3.org/2000/svg" width="1em" height="1em" viewBox="0 0 24 24"><path fill="currentColor" d="M11.38 12.5H3q-.213 0-.357-.143Q2.5 12.213 2.5 12t.143-.357Q2.787 11.5 3 11.5h8.38L9.64 9.754q-.14-.14-.15-.341q-.01-.201.156-.367q.16-.16.354-.16t.354.16l2.388 2.389q.243.242.243.565q0 .323-.243.565l-2.388 2.389q-.14.14-.341.153t-.367-.153q-.16-.16-.162-.351q-.003-.191.156-.357zM7.616 22q-.69 0-1.152-.462Q6 21.075 6 20.385V15.5q0-.213.143-.357Q6.287 15 6.5 15t.357.143T7 15.5v3h10v-13H7v3q0 .213-.143.357T6.5 9q-.213 0-.357-.143Q6 8.713 6 8.5V3.615q0-.69.463-1.152Q6.925 2 7.615 2h8.77q.69 0 1.152.463q.463.462.463 1.152v16.77q0 .69-.462 1.152q-.463.463-1.153.463z"/></svg>