<svg xmlns="http://www.w3.org/2000/svg" width="1em" height="1em" viewBox="0 0 24 24"><path fill="currentColor" d="m12 19.579l1.713-1.694q.147-.147.354-.156q.208-.01.354.156q.146.146.137.356q-.01.21-.156.357l-1.837 1.837q-.13.13-.267.183q-.136.053-.298.053t-.298-.053q-.137-.053-.267-.183l-1.837-1.837q-.146-.146-.156-.347q-.01-.201.156-.366q.165-.166.354-.166q.188 0 .354.166zM4.421 12l1.694 1.694q.147.146.156.344q.01.199-.156.364q-.165.165-.356.165t-.357-.165l-1.837-1.837q-.13-.13-.183-.267q-.053-.136-.053-.298t.053-.298q.053-.137.183-.267l1.856-1.856q.146-.146.338-.146t.356.146q.166.146.156.354q-.01.207-.156.354zm15.177 0l-1.713-1.733q-.147-.146-.137-.344q.01-.198.156-.344t.347-.146q.2 0 .347.146l1.837 1.856q.13.13.183.267q.053.136.053.298t-.053.298q-.053.137-.183.267l-1.837 1.837q-.146.146-.357.156q-.21.01-.356-.156q-.147-.146-.137-.354q.01-.208.156-.354zM12 4.402l-1.713 1.713q-.147.147-.345.147q-.198 0-.344-.147q-.165-.146-.156-.356q.01-.21.156-.357l1.837-1.837q.13-.13.267-.183q.136-.053.298-.053t.298.053q.137.053.267.183l1.856 1.856q.146.146.137.347q-.01.201-.156.347q-.146.147-.335.147q-.188 0-.334-.147z"/></svg>