<svg xmlns="http://www.w3.org/2000/svg" width="1em" height="1em" viewBox="0 0 24 24"><path fill="currentColor" d="M11.5 14q-1.05 0-1.775-.725T9 11.5q0-1.05.725-1.775T11.5 9q1.05 0 1.775.725T14 11.5q0 1.05-.725 1.775T11.5 14m-6.885 5q-.69 0-1.152-.462Q3 18.075 3 17.385V6.615q0-.69.463-1.152Q3.925 5 4.615 5h14.77q.69 0 1.152.463q.463.462.463 1.152V18.08q0 .54-.497.745q-.497.205-.876-.174l-5.212-5.212q.35-.505.468-.951Q15 12.04 15 11.5q0-1.452-1.024-2.476T11.5 8T9.024 9.024Q8 10.048 8 11.5t1.024 2.476Q10.048 15 11.5 15q.65 0 1.214-.204q.565-.204 1.032-.611l3.442 3.442q.38.379.175.876q-.205.497-.746.497z"/></svg>