<svg xmlns="http://www.w3.org/2000/svg" width="1em" height="1em" viewBox="0 0 24 24"><path fill="currentColor" d="M4.405 12.635q-1.001 0-1.703-.705Q2 11.225 2 10.218q0-1.006.7-1.699q.702-.692 1.703-.692q1 0 1.703.695q.702.696.702 1.69q0 1.01-.701 1.716q-.7.707-1.702.707m15.192-.02q-1 0-1.703-.7q-.702-.701-.702-1.702t.701-1.703q.7-.702 1.702-.702t1.703.7Q22 9.21 22 10.21q0 1.002-.7 1.703q-.702.702-1.703.702m-5.193-2.403q0 .103-.016.206l-.032.213q-.062.236-.297.308t-.447-.139L11.43 8.58q-.187-.186-.127-.421q.06-.236.296-.303q.09-.018.2-.033q.11-.015.2-.015q1.002 0 1.703.7q.7.702.7 1.704M3.616 18.23q-.261 0-.438-.177T3 17.615q0-.261.177-.438T3.615 17h11.97L2.446 3.862q-.14-.14-.15-.345q-.01-.204.15-.363t.354-.16q.194 0 .354.16l17.692 17.692q.14.14.15.344q.01.204-.15.364t-.354.16q-.194 0-.354-.16l-3.323-3.323z"/></svg>