<svg xmlns="http://www.w3.org/2000/svg" width="1em" height="1em" viewBox="0 0 24 24"><path fill="currentColor" d="M4.405 12.635q-1.001 0-1.703-.705Q2 11.225 2 10.218q0-1.006.7-1.699q.702-.692 1.703-.692q1 0 1.703.695q.702.696.702 1.69q0 1.01-.701 1.716q-.7.707-1.702.707m-.79 5.596q-.261 0-.438-.177T3 17.615q0-.261.177-.438T3.615 17h16.77q.261 0 .438.177t.177.438q0 .262-.177.439t-.438.177zm8.386-5.616q-1.001 0-1.703-.7q-.702-.701-.702-1.702t.701-1.703q.7-.702 1.702-.702q1.001 0 1.703.7q.702.701.702 1.702q0 1.002-.7 1.703q-.702.702-1.703.702m7.596 0q-1 0-1.703-.7q-.702-.701-.702-1.702t.701-1.703q.7-.702 1.702-.702t1.703.7Q22 9.21 22 10.21q0 1.002-.7 1.703q-.702.702-1.703.702"/></svg>