<svg xmlns="http://www.w3.org/2000/svg" width="1em" height="1em" viewBox="0 0 24 24"><path fill="currentColor" d="M5.038 19q-.44 0-.739-.299q-.299-.3-.299-.74v-.607q0-.62.36-1.159q.361-.54.97-.837q1.416-.68 2.833-1.019Q9.581 14 11 14q.446 0 .883.041q.436.042.882.11q.218.045.342.175q.124.13.143.347q.108.944.565 1.8q.458.854 1.198 1.464q.04.028.064.072q.023.043.023.095v.127q0 .31-.23.54q-.23.229-.54.229zM11 11.77q-1.246 0-2.123-.878Q8 10.015 8 8.77q0-1.246.877-2.123Q9.754 5.77 11 5.77q1.246 0 2.123.877Q14 7.523 14 8.77q0 1.246-.877 2.123q-.877.877-2.123.877m7.308 2.673q.31 0 .54-.24q.229-.239.229-.548q0-.31-.23-.54q-.23-.23-.54-.23q-.309 0-.548.23q-.24.23-.24.54q0 .31.24.549q.24.24.549.24m.092 6.669l-.75-.77q-.03-.03-.13-.273v-3.43q-.85-.249-1.387-.96q-.537-.71-.537-1.621q0-1.123.794-1.918q.795-.794 1.918-.794t1.907.794q.785.795.785 1.918q0 .875-.484 1.538q-.483.664-1.247.962l.67.669q.13.13.13.292q0 .162-.13.293l-.589.588q-.13.13-.13.283t.13.282l.608.589q.13.13.13.283t-.13.282l-.993.993q-.13.13-.282.13t-.283-.13"/></svg>