<svg xmlns="http://www.w3.org/2000/svg" width="1em" height="1em" viewBox="0 0 24 24"><path fill="currentColor" d="M4.405 12.635q-1.001 0-1.703-.705Q2 11.225 2 10.218q0-1.006.7-1.699q.702-.692 1.703-.692q1 0 1.703.695q.702.696.702 1.69q0 1.01-.701 1.716q-.7.707-1.702.707m15.192-.02q-1 0-1.703-.7q-.702-.701-.702-1.702t.701-1.703q.7-.702 1.702-.702t1.703.7Q22 9.21 22 10.21q0 1.002-.7 1.703q-.702.702-1.703.702m-5.462-1.292l-3.208-3.246q.228-.135.504-.202T12 7.808q1.002 0 1.703.7q.7.702.7 1.704q0 .303-.066.589q-.068.286-.202.522m6.357 10.585l-3.677-3.677H3V17h12.585L2.092 3.508L2.8 2.8l18.4 18.4z"/></svg>