<svg xmlns="http://www.w3.org/2000/svg" width="1em" height="1em" viewBox="0 0 24 24"><path fill="currentColor" d="M17.815 20.885q-.569-.125-.937-.33q-.368-.205-.701-.578l-.475.186q-.171.062-.33.014t-.257-.189l-.065-.138q-.098-.165-.087-.333q.012-.167.172-.296l.357-.302q-.165-.53-.165-1.034t.165-1.035l-.357-.302q-.14-.11-.172-.284q-.03-.174.068-.339l.11-.144q.097-.14.244-.189q.146-.048.317.014l.475.186q.333-.392.7-.587q.37-.195.938-.32l.054-.456q.037-.177.174-.303q.138-.126.315-.126h.13q.177 0 .315.129q.137.129.174.306l.054.45q.569.125.937.32q.369.195.701.587l.475-.186q.171-.062.33-.014t.257.189l.065.138q.098.166.087.333q-.012.167-.171.296l-.358.302q.165.53.165 1.035q0 .503-.165 1.034l.358.302q.14.11.17.284q.031.174-.067.34l-.11.143q-.097.14-.243.189t-.318-.014l-.475-.186q-.332.373-.7.578q-.369.205-.938.33l-.054.455q-.037.177-.174.303t-.315.126h-.13q-.177 0-.315-.129q-.137-.128-.174-.305zm.608-.847q.883 0 1.518-.635q.636-.636.636-1.518q0-.883-.636-1.519q-.635-.635-1.518-.635t-1.518.635q-.636.636-.636 1.519q0 .882.636 1.518q.635.635 1.518.635M4.944 21q-.54 0-.745-.497q-.205-.497.174-.876L19.627 4.373q.379-.379.876-.174q.497.205.497.745v6.235q0 .194-.143.334q-.144.14-.357.14t-.357-.14Q20 11.373 20 11.16V5.42L5.421 20h6.7q.214 0 .354.143t.14.357q0 .213-.14.357q-.14.143-.354.143zm.477-1L20 5.421l-7.29 7.29z"/></svg>