<svg xmlns="http://www.w3.org/2000/svg" width="1em" height="1em" viewBox="0 0 24 24"><path fill="currentColor" d="M11 11.385q-1.246 0-2.123-.877Q8 9.63 8 8.385q0-1.247.877-2.123q.877-.877 2.123-.877q1.246 0 2.123.877q.877.876.877 2.123q0 1.246-.877 2.123q-.877.877-2.123.877m9.862 10.184l-2.308-2.307q-.487.338-1.01.5q-.523.161-1.044.161q-1.433 0-2.428-.995q-.995-.995-.995-2.428t.995-2.428q.995-.995 2.428-.995t2.428.995q.995.995.995 2.428q0 .521-.161 1.044q-.162.523-.5 1.01l2.307 2.308q.14.14.15.344q.01.204-.15.363q-.16.16-.354.16q-.194 0-.353-.16M16.5 18.923q1.03 0 1.727-.696q.696-.696.696-1.727q0-1.03-.696-1.727q-.696-.696-1.727-.696q-1.03 0-1.727.696q-.696.696-.696 1.727q0 1.03.696 1.727q.696.696 1.727.696m-11.462-.308q-.44 0-.739-.299T4 17.576v-.601q0-.638.358-1.162q.357-.523.973-.84q.97-.498 2.468-.93q1.497-.431 3.257-.422q.28-.006.43.24q.15.247.045.527q-.218.53-.336 1.076q-.118.548-.118 1.107q0 .323.045.65q.045.325.147.637q.073.292-.092.525q-.165.232-.458.232z"/></svg>