<svg xmlns="http://www.w3.org/2000/svg" width="1em" height="1em" viewBox="0 0 24 24"><path fill="currentColor" d="M11 11.385q-1.237 0-2.119-.882T8 8.385q0-1.238.881-2.12q.881-.88 2.119-.88t2.119.88q.881.882.881 2.12q0 1.237-.881 2.118T11 11.385m0-1q.825 0 1.413-.588T13 8.385q0-.825-.587-1.413T11 6.385q-.825 0-1.412.587T9 8.385q0 .825.588 1.412t1.412.588m9.862 11.184l-2.308-2.307q-.487.338-1.01.5q-.523.161-1.04.161q-1.437 0-2.432-1q-.995-1-.995-2.428t1-2.423q1-.995 2.428-.995t2.423.998q.995.999.995 2.425q0 .521-.161 1.044q-.162.523-.5 1.01l2.307 2.308q.14.14.15.344q.01.204-.15.363q-.16.16-.354.16q-.194 0-.353-.16M16.5 18.923q1.03 0 1.727-.696q.696-.696.696-1.727q0-1.03-.696-1.727q-.696-.696-1.727-.696q-1.03 0-1.727.696q-.696.696-.696 1.727q0 1.03.696 1.727q.696.696 1.727.696M4 17.577v-.602q0-.638.358-1.162q.357-.523.973-.84q.992-.511 2.549-.953q1.557-.441 3.272-.374q.213.008.36.149t.146.34q0 .2-.146.349q-.147.149-.36.16q-1.79-.017-3.208.41q-1.417.427-2.13.796q-.385.183-.6.481Q5 16.63 5 16.975v.64h5.87q.212 0 .355.144t.144.357q0 .213-.144.356q-.143.143-.356.143H5.04q-.44 0-.74-.299t-.3-.74m7.194.04"/></svg>