<svg xmlns="http://www.w3.org/2000/svg" width="1em" height="1em" viewBox="0 0 24 24"><path fill="currentColor" d="M12 20.02q-1.465 0-2.574-.826q-1.109-.825-1.736-2.117l-1.64.933q-.177.103-.375.036t-.302-.244t-.052-.375q.052-.198.229-.302l1.744-1q-.113-.333-.173-.697q-.06-.365-.11-.736H4.866q-.213 0-.356-.143q-.144-.143-.144-.357q0-.213.144-.356t.356-.144h2.127q.012-.473.09-.933q.08-.46.212-.89L5.531 10.85q-.177-.104-.23-.302t.053-.375q.104-.177.305-.232q.2-.054.378.05l1.628.951q.181-.369.405-.706q.224-.338.48-.632q-.03-.137-.04-.273q-.01-.137-.01-.273q0-.639.213-1.208q.214-.57.59-1.025l-.872-.873q-.14-.14-.143-.335q-.003-.194.143-.36q.14-.165.341-.152q.201.012.366.153l.935.884q.425-.282.907-.433q.482-.151 1.02-.151t1.033.163q.494.164.919.446l.91-.91q.146-.145.353-.152q.208-.007.354.158q.14.147.134.354q-.007.208-.153.354l-.873.873q.377.456.587 1.016q.211.56.211 1.198v.26q0 .124-.03.26q.255.295.47.635q.214.34.395.71l1.62-.933q.178-.103.376-.049q.198.055.302.232t.049.378q-.055.2-.232.305l-1.744.994q.132.39.214.803t.113.847h2.127q.213 0 .356.143q.144.144.144.357t-.144.357q-.143.143-.356.143h-2.127q-.031.435-.11.838t-.192.793l1.763 1.019q.177.104.23.305q.051.2-.053.378q-.104.177-.302.229q-.198.051-.375-.052l-1.64-.952q-.627 1.292-1.745 2.127q-1.119.834-2.584.834M9.523 8.792q.521-.386 1.143-.599q.622-.212 1.334-.212q.692 0 1.309.21q.616.209 1.137.576q-.084-.94-.786-1.575q-.702-.634-1.66-.634q-.977 0-1.685.647q-.707.647-.792 1.587M12 19.02q1.825 0 2.922-1.534Q16.02 15.95 16.02 14q0-1.75-1.022-3.385Q13.975 8.981 12 8.981q-1.97 0-2.994 1.622Q7.98 12.225 7.98 14q0 1.95 1.097 3.485q1.097 1.534 2.922 1.534m0-2.519q-.213 0-.357-.143q-.143-.144-.143-.357v-3.52q0-.213.143-.356q.144-.143.357-.143t.357.143q.143.143.143.357V16q0 .213-.143.357q-.144.143-.357.143"/></svg>