<svg xmlns="http://www.w3.org/2000/svg" width="1em" height="1em" viewBox="0 0 24 24"><path fill="currentColor" d="M7.615 22q-.67 0-1.143-.472Q6 21.056 6 20.385V3.615q0-.67.472-1.143Q6.944 2 7.615 2h8.77q.67 0 1.143.472q.472.472.472 1.143v2.808q0 .214-.143.357q-.144.143-.357.143t-.357-.143T17 6.423V5.5H7v13h10v-.923q0-.214.143-.357t.357-.143q.213 0 .357.143q.143.143.143.357v2.808q0 .67-.472 1.143q-.472.472-1.143.472zM7 19.5v.885q0 .23.192.423q.193.192.423.192h8.77q.23 0 .423-.192q.192-.193.192-.423V19.5zm0-15h10v-.885q0-.23-.192-.423Q16.615 3 16.385 3h-8.77q-.23 0-.423.192Q7 3.385 7 3.615zm0 0V3zm0 15V21zM21.737 12q0 1.173-.39 2.24q-.391 1.066-1.141 1.964q-.154.171-.355.193q-.201.022-.366-.143q-.16-.16-.144-.364q.017-.203.151-.38q.61-.733.927-1.639q.318-.906.318-1.871t-.318-1.871q-.317-.906-.927-1.639q-.134-.177-.15-.38q-.017-.204.143-.364q.165-.165.366-.143q.2.022.355.193q.75.898 1.14 1.965q.39 1.066.39 2.239m-3.769 1.808q-.038.223-.158.412q-.12.19-.305.322q-.144.03-.267-.028t-.17-.172q-.098-.057-.148-.175q-.05-.117-.011-.254q.019-.065.04-.12q.02-.056.067-.085q.397-.339.626-.772q.23-.434.23-.936q0-.49-.252-.952q-.252-.461-.642-.794q-.067-.067-.107-.162q-.04-.094-.04-.198q0-.213.147-.36q.146-.146.36-.146q.103 0 .198.04q.094.04.161.107q1.05.92 1.122 2.11q.072 1.19-.85 2.163"/></svg>