<svg xmlns="http://www.w3.org/2000/svg" width="1em" height="1em" viewBox="0 0 24 24"><path fill="currentColor" d="M2.058 17.146q-.171-.11-.205-.305q-.034-.195.07-.372l3.544-5.684q.218-.348.628-.376q.41-.028.684.27l2.279 2.667l3.29-5.348q.237-.379.684-.388q.447-.01.69.363l.966 1.454q.14.194.086.39q-.055.195-.226.298q-.171.104-.357.086q-.185-.018-.326-.232l-.81-1.192l-3.247 5.308q-.218.348-.631.378q-.414.031-.687-.273l-2.298-2.686l-3.415 5.502q-.11.182-.326.231q-.216.05-.393-.09m14.017 2.428q-1.471 0-2.486-1.014q-1.014-1.015-1.014-2.486q0-1.471 1.014-2.486q1.015-1.014 2.486-1.014q1.471 0 2.486 1.014q1.014 1.015 1.014 2.486q0 .592-.185 1.128q-.184.535-.534.984l3.073 3.034q.165.146.168.344q.003.198-.162.364q-.147.146-.347.146t-.367-.146l-3.079-3.035q-.442.331-.968.506t-1.099.175m0-1q1.05 0 1.775-.725t.725-1.775q0-1.05-.725-1.775t-1.775-.725q-1.05 0-1.775.725t-.725 1.775q0 1.05.725 1.775t1.775.725m1.36-8.487q-.152-.084-.22-.276q-.067-.193.073-.387l3.935-6.256q.11-.177.323-.229q.214-.052.39.089q.172.11.208.305q.037.195-.067.372l-3.979 6.23q-.14.195-.316.216q-.176.021-.347-.064"/></svg>