<svg xmlns="http://www.w3.org/2000/svg" width="1em" height="1em" viewBox="0 0 24 24"><path fill="currentColor" d="M9.808 18.985q-.304 0-.556-.22Q9 18.544 9 18.17v-2.177h-.173q-2.39-.046-4.109-1.607Q3 12.825 3 10.5q0-2.302 1.599-3.891q1.6-1.59 3.901-1.59h2.04L8.794 3.273q-.14-.14-.15-.341q-.01-.201.156-.367q.16-.16.354-.16t.354.16l2.388 2.389q.13.13.184.267q.053.137.053.298q0 .162-.053.298q-.053.137-.184.268L9.508 8.473q-.14.14-.342.153q-.2.012-.366-.153q-.16-.16-.16-.354t.16-.354l1.74-1.746H8.5q-1.875 0-3.187 1.303Q4 8.625 4 10.5q0 1.933 1.476 3.216Q6.952 15 8.942 15H10v2.694L12.675 15H15.5q1.875 0 3.197-1.312q1.322-1.313 1.322-3.188t-1.322-3.187Q17.375 6 15.5 6q-.213 0-.357-.143Q15 5.713 15 5.5t.143-.357Q15.287 5 15.5 5q2.302 0 3.91 1.599q1.61 1.6 1.61 3.901q0 2.302-1.61 3.901Q17.803 16 15.5 16h-2.385l-2.742 2.742q-.13.131-.277.187q-.146.056-.288.056"/></svg>