<svg xmlns="http://www.w3.org/2000/svg" width="1em" height="1em" viewBox="0 0 24 24"><path fill="currentColor" d="M12.5 17.402V21.5q0 .213-.143.357Q12.213 22 12 22t-.357-.143q-.143-.144-.143-.357v-4.098l-1.13 1.13q-.141.141-.342.15q-.201.01-.366-.155q-.16-.16-.16-.354t.16-.354l1.773-1.773q.242-.242.565-.242q.323 0 .565.242l1.773 1.773q.14.14.153.342q.013.2-.153.366q-.16.16-.35.162q-.192.003-.357-.156zM6.598 12.5H2.5q-.213 0-.357-.143Q2 12.213 2 12t.143-.357q.144-.143.357-.143h4.098l-1.13-1.13q-.141-.141-.15-.342q-.01-.201.155-.366q.16-.16.354-.16t.354.16l1.773 1.773q.242.242.242.565q0 .323-.242.565L6.18 14.338q-.14.14-.342.153q-.2.013-.366-.153q-.16-.16-.162-.35q-.003-.192.156-.357zm10.804 0l1.13 1.13q.141.141.15.342q.01.201-.155.366q-.16.16-.354.16t-.354-.16l-1.773-1.773q-.242-.242-.242-.565q0-.323.242-.565l1.773-1.773q.14-.14.342-.153q.2-.013.366.153q.16.16.162.35q.003.192-.156.357L17.402 11.5H21.5q.213 0 .357.143q.143.144.143.357t-.143.357q-.144.143-.357.143zM12 12.98q-.413 0-.697-.283T11.019 12q0-.413.284-.697t.697-.284q.413 0 .697.284t.284.697q0 .413-.284.697t-.697.284m-.5-6.383V2.5q0-.213.143-.357Q11.787 2 12 2t.357.143q.143.144.143.357v4.098l1.13-1.13q.141-.141.342-.15q.201-.01.366.155q.16.16.16.354t-.16.354l-1.773 1.773q-.242.242-.565.242q-.323 0-.565-.242L9.662 6.18q-.14-.14-.153-.342q-.013-.2.153-.366q.16-.16.35-.162q.192-.003.357.156z"/></svg>