<svg xmlns="http://www.w3.org/2000/svg" width="1em" height="1em" viewBox="0 0 24 24"><path fill="currentColor" d="M9.808 21q-.344 0-.576-.234Q9 20.532 9 20.186v-.61q-2.51-.991-4.255-2.97Q3 14.626 3 12q0-1.868.708-3.51q.709-1.642 1.924-2.857q1.214-1.215 2.856-1.924Q10.13 3 11.997 3q1.866 0 3.51.709t2.859 1.924q1.216 1.215 1.925 2.857Q21 10.133 21 12q0 2.627-1.745 4.606T15 19.576v.61q0 .346-.232.58q-.232.234-.576.234zM9.5 12h5V4.404q-.625-.202-1.25-.303Q12.625 4 12 4t-1.25.101q-.625.1-1.25.303zM4 12h4.5V4.806Q6.433 5.823 5.216 7.76Q4 9.696 4 12m11.5 0H20q0-2.304-1.216-4.24q-1.217-1.937-3.284-2.954z"/></svg>