<svg xmlns="http://www.w3.org/2000/svg" width="1em" height="1em" viewBox="0 0 24 24"><path fill="currentColor" d="M4.763 20.27q-.213.213-.516.213q-.303 0-.516-.214q-.214-.213-.214-.513q0-.3.214-.514l4.3-4.28l-1.583-.52q-.292-.105-.29-.398q.004-.292.296-.379l4.825-1.448q.217-.061.394.116t.115.394l-1.448 4.825q-.086.292-.378.295q-.293.003-.399-.29l-.519-1.582zM17.006 12q0 1.587-.877 2.845q-.877 1.259-2.314 1.813q-.188.073-.38 0q-.193-.073-.266-.262q-.073-.188.003-.38q.076-.193.265-.266q1.125-.425 1.847-1.45t.722-2.3q0-1.65-1.175-2.825T12.006 8q-1.275 0-2.29.712q-1.016.713-1.441 1.838q-.073.188-.262.284q-.19.095-.378.022q-.189-.073-.274-.275t-.013-.39Q7.883 8.76 9.145 7.88Q10.408 7 12.005 7q2.078 0 3.54 1.462q1.46 1.461 1.46 3.538"/></svg>