<svg xmlns="http://www.w3.org/2000/svg" width="1em" height="1em" viewBox="0 0 24 24"><path fill="currentColor" d="M5 20q-.213 0-.357-.143q-.143-.144-.143-.357t.143-.357Q4.787 19 5 19h1.5V5.615q0-.67.472-1.143Q7.444 4 8.115 4h4.77q.517 0 .916.285q.399.284.578.715h1.506q.67 0 1.143.472q.472.472.472 1.143v3.693q0 .213-.143.356q-.144.144-.357.144t-.357-.144q-.143-.143-.143-.356V6.615q0-.269-.173-.442T15.885 6H14.5v5.408q0 .198-.09.365q-.089.167-.243.292q-1.08.854-1.691 2.024q-.61 1.17-.61 2.603q0 .668.133 1.236q.134.568.37 1.103q.162.348-.028.658t-.556.311zm6.5-7.23q.31 0 .54-.23q.23-.23.23-.54q0-.31-.23-.54q-.23-.23-.54-.23q-.31 0-.54.23q-.23.23-.23.54q0 .31.23.54q.23.23.54.23m6.13 7.807q-.16 0-.264-.103q-.103-.103-.133-.259l-.071-.503q-.57-.125-.938-.352q-.368-.227-.695-.562l-.492.221q-.137.07-.28.036q-.144-.034-.224-.165l-.158-.275q-.1-.13-.072-.286q.028-.156.153-.262l.402-.34q-.185-.548-.185-1.032t.185-1.032l-.402-.34q-.125-.106-.153-.261q-.028-.156.072-.287l.158-.275q.08-.13.224-.164t.28.035l.492.221q.327-.334.695-.564q.368-.23.938-.355l.07-.504q.031-.156.134-.258q.103-.103.265-.103h.277q.161 0 .264.103q.103.102.134.258l.07.504q.57.125.938.352q.369.227.696.562l.492-.222q.136-.069.28-.035q.143.033.224.164l.157.275q.1.131.073.287q-.028.156-.153.261l-.402.34q.184.549.184 1.032t-.184 1.032l.402.34q.125.106.153.262q.027.156-.073.287l-.157.275q-.081.13-.221.164t-.277-.036l-.498-.215q-.327.335-.696.562t-.937.352l-.071.503q-.031.156-.134.26q-.103.102-.264.102zm.14-1.73q.882 0 1.517-.636q.636-.636.636-1.519q0-.882-.636-1.518q-.635-.636-1.518-.636q-.882 0-1.518.636t-.636 1.518q0 .883.636 1.519q.636.635 1.518.635"/></svg>