<svg xmlns="http://www.w3.org/2000/svg" width="1em" height="1em" viewBox="0 0 24 24"><path fill="currentColor" d="m13.115 14.387l-1.317-1.437l-.383 1.958q-.055.329-.345.515q-.29.187-.618.13l-2.339-.493q-.142-.05-.245-.177q-.103-.127-.053-.283q.05-.142.176-.238q.126-.097.27-.047l2.41.495l1.033-5.208l-1.82.671V11.5q0 .154-.115.27q-.115.115-.269.115t-.27-.116q-.115-.115-.115-.269v-1.208q0-.264.147-.467q.146-.204.388-.29l2.663-.97q.336-.125.66.006t.48.462q.47.982 1.046 1.427q.576.444 1.001.575q.154.058.27.186q.115.127.115.284q0 .157-.122.265q-.12.109-.263.059q-.53-.144-1.2-.605q-.67-.46-1.258-1.262l-.482 2.676l1.107 1.183q.106.125.162.269t.056.297V17.5q0 .154-.116.27q-.115.115-.269.115t-.27-.116q-.115-.115-.115-.269zm.385-6.502q-.376 0-.63-.255q-.255-.254-.255-.63t.255-.63q.254-.255.63-.255t.63.255q.255.254.255.63t-.255.63q-.254.255-.63.255M12.003 21q-1.866 0-3.51-.708q-1.643-.709-2.859-1.924q-1.216-1.214-1.925-2.856Q3 13.87 3 12.003q0-1.866.708-3.51q.709-1.643 1.924-2.859q1.214-1.216 2.856-1.925Q10.13 3 11.997 3q1.866 0 3.51.708q1.643.709 2.859 1.924q1.216 1.214 1.925 2.856Q21 10.13 21 11.997q0 1.866-.708 3.51q-.709 1.643-1.924 2.859q-1.214 1.216-2.856 1.925Q13.87 21 12.003 21M12 20q3.35 0 5.675-2.325T20 12q0-3.35-2.325-5.675T12 4Q8.65 4 6.325 6.325T4 12q0 3.35 2.325 5.675T12 20"/></svg>