<svg xmlns="http://www.w3.org/2000/svg" width="1em" height="1em" viewBox="0 0 24 24"><path fill="currentColor" d="M12 21q-2.873 0-4.842-1.9q-1.97-1.9-2.146-4.775q-.012-.244.116-.385q.128-.14.372-.14q.225 0 .365.156q.14.156.152.369q.171 2.487 1.845 4.08Q9.535 20 12 20t4.138-1.594q1.674-1.594 1.845-4.081q.011-.213.152-.37q.14-.155.365-.155q.244 0 .372.14t.116.385q-.176 2.875-2.146 4.775Q14.873 21 12 21m-6.23-8.654q-.31 0-.54-.23q-.23-.23-.23-.54q0-.309.23-.538q.23-.23.54-.23q.309 0 .539.23q.23.23.23.539q0 .31-.23.54q-.23.23-.54.23m4.116 0q-.31 0-.54-.23q-.23-.23-.23-.54q0-.31.23-.54q.23-.23.54-.23q.31 0 .539.23q.23.23.23.54q0 .31-.23.54q-.23.23-.54.23m4.231 0q-.31 0-.539-.23q-.23-.23-.23-.54q0-.31.23-.54q.23-.23.54-.23q.309 0 .539.23q.23.23.23.54q0 .31-.23.54q-.23.23-.54.23m4.116 0q-.31 0-.54-.23q-.23-.23-.23-.54q0-.31.23-.54q.23-.23.54-.23q.31 0 .54.23q.229.23.229.54q0 .31-.23.54q-.23.23-.54.23M7.828 9.787q-.31 0-.54-.23q-.23-.23-.23-.539q0-.31.23-.54q.23-.229.54-.229q.31 0 .54.23q.23.23.23.54q0 .309-.23.539q-.23.23-.54.23m8.346 0q-.31 0-.54-.23q-.23-.23-.23-.54q0-.31.23-.54q.23-.229.54-.229q.31 0 .54.23q.23.23.23.54q0 .309-.23.539q-.23.23-.54.23M12 9.73q-.31 0-.54-.23q-.23-.23-.23-.54q0-.31.23-.539q.23-.23.54-.23q.31 0 .54.23q.23.23.23.54q0 .31-.23.539q-.23.23-.54.23m-2.115-2.5q-.31 0-.54-.23q-.23-.23-.23-.54q0-.31.23-.539q.23-.23.54-.23q.31 0 .539.23q.23.23.23.54q0 .31-.23.539q-.23.23-.54.23m4.231 0q-.31 0-.539-.23q-.23-.23-.23-.54q0-.31.23-.539q.23-.23.54-.23q.309 0 .539.23q.23.23.23.54q0 .31-.23.539q-.23.23-.54.23M12 4.923q-.31 0-.54-.23q-.23-.23-.23-.54q0-.309.23-.539q.23-.23.54-.23q.31 0 .54.23q.23.23.23.54q0 .31-.23.54q-.23.23-.54.23m0 8.876"/></svg>