<svg xmlns="http://www.w3.org/2000/svg" width="1em" height="1em" viewBox="0 0 24 24"><path fill="currentColor" d="M16.788 4.462h2v-1q0-.425-.287-.713t-.713-.287q-.425 0-.712.287t-.288.713zm-3.865 17.642q-2.263 0-4.268-.864q-2.005-.863-3.505-2.363t-2.363-3.505q-.864-2.005-.864-4.268q0-.214.143-.357q.144-.143.357-.143q.214 0 .357.143t.143.357q0 1.992.747 3.771t2.043 3.127q1.297 1.348 3.04 2.164q1.745.817 3.714.897L9.37 17.965q-.14-.14-.15-.344q-.01-.204.15-.363q.16-.16.354-.16t.354.16l3.98 3.98q.224.224.137.489q-.086.265-.396.321q-.235.03-.447.043t-.428.013m1.962-4.289q-.312 0-.607-.118t-.532-.335l-7.12-7.12q-.216-.236-.335-.531q-.118-.296-.118-.607q0-.317.118-.62q.119-.301.336-.519L9.85 4.742q.23-.23.509-.333q.278-.103.564-.103q.287 0 .565.103q.277.103.508.333l.14.14q.218.218.349.523q.13.305.13.628v2.079q0 1.373.95 2.323t2.323.95h2.08q.317 0 .621.128q.305.127.523.345l.134.134q.23.225.337.506q.105.28.105.567q0 .281-.102.559q-.103.278-.328.503l-3.235 3.235q-.217.217-.52.335q-.301.118-.618.118M15.888 9q-.35 0-.619-.27Q15 8.463 15 8.113V5.35q0-.35.27-.62q.268-.268.618-.268h.131v-1q0-.749.51-1.26t1.26-.51q.748 0 1.258.51t.51 1.26v1h.131q.35 0 .6.269t.25.619v2.762q0 .35-.269.619T19.65 9z"/></svg>