<svg xmlns="http://www.w3.org/2000/svg" width="1em" height="1em" viewBox="0 0 24 24"><path fill="currentColor" d="M6.5 7q-.213 0-.357-.143Q6 6.713 6 6.5V4.615q0-.69.463-1.152Q6.925 3 7.615 3H9.5q.213 0 .357.143q.143.144.143.357t-.143.357T9.5 4H7.615q-.23 0-.423.192Q7 4.385 7 4.615V6.5q0 .213-.143.357T6.5 7m1.115 14q-.69 0-1.152-.462Q6 20.075 6 19.385V17.5q0-.213.143-.357Q6.287 17 6.5 17t.357.143T7 17.5v1.885q0 .23.192.423q.193.192.423.192H9.5q.213 0 .357.143T10 20.5q0 .213-.143.357Q9.713 21 9.5 21zM17.5 7q-.213 0-.357-.143T17 6.5V4.615q0-.23-.192-.423Q16.615 4 16.385 4H14.5q-.213 0-.357-.143T14 3.5q0-.213.143-.357Q14.287 3 14.5 3h1.885q.69 0 1.152.463q.463.462.463 1.152V6.5q0 .213-.143.357Q17.713 7 17.5 7m-3 14q-.213 0-.357-.143Q14 20.713 14 20.5t.143-.357T14.5 20h1.885q.23 0 .423-.192q.192-.193.192-.423V17.5q0-.213.143-.357T17.5 17q.213 0 .357.143q.143.144.143.357v1.885q0 .69-.462 1.152q-.463.463-1.153.463z"/></svg>