<svg xmlns="http://www.w3.org/2000/svg" width="1em" height="1em" viewBox="0 0 24 24"><path fill="currentColor" d="M15.888 9q-.35 0-.619-.27Q15 8.463 15 8.113V5.35q0-.35.27-.62q.268-.268.618-.268h.131v-1q0-.749.51-1.26t1.26-.51q.748 0 1.258.51t.51 1.26v1h.131q.35 0 .6.269t.25.619v2.762q0 .35-.269.619T19.65 9zm.9-4.538h2v-1q0-.425-.287-.713t-.713-.287q-.425 0-.712.287t-.288.713zm-4.32 16.601l-3.099-3.098q-.14-.14-.15-.344q-.01-.204.15-.363q.16-.16.354-.16t.354.16l3.98 3.98q.224.224.134.492q-.089.268-.393.318q-.235.03-.445.043q-.211.013-.43.013q-2.266 0-4.27-.864q-2.003-.863-3.503-2.363t-2.363-3.503q-.864-2.004-.864-4.27q0-.213.144-.356q.144-.144.357-.144t.356.144q.143.143.143.356q0 1.992.747 3.771t2.043 3.127q1.297 1.348 3.04 2.164q1.745.817 3.714.897m2.409-3.248q-.303 0-.598-.118t-.532-.335l-7.12-7.12q-.216-.236-.335-.531q-.118-.296-.118-.598q0-.325.118-.628q.119-.302.336-.52l3.158-3.157q.236-.237.531-.348q.296-.112.598-.112q.325 0 .627.112q.303.111.52.348l.752.752q.14.14.153.338t-.147.364q-.16.165-.354.168q-.194.003-.36-.163l-.74-.74q-.173-.173-.442-.173t-.442.173L7.346 8.662q-.173.173-.173.442t.173.442l7.096 7.096q.173.173.443.173q.269 0 .442-.173l3.135-3.134q.173-.173.173-.443t-.173-.442l-.658-.658q-.14-.14-.15-.344q-.01-.204.15-.363q.16-.16.354-.16t.354.16l.669.669q.236.217.348.52q.111.303.111.627q0 .303-.111.598q-.112.295-.348.532l-3.158 3.158q-.217.217-.52.335t-.627.118m-1.972-6.73"/></svg>