<svg xmlns="http://www.w3.org/2000/svg" width="1em" height="1em" viewBox="0 0 24 24"><path fill="currentColor" d="M10 16.038q2.5 0 4.25-1.755T16 10.019q0-2.508-1.75-4.263Q12.5 4 10 4T5.75 5.756Q4 7.51 4 10.019t1.75 4.264Q7.5 16.038 10 16.038m-.5-3.442V6.635h1v5.961zm-3.346 0V8.538h1v4.058zm6.692 0V9.5h1v3.096zM20.312 21l-5.714-5.713q-.929.8-2.105 1.256Q11.317 17 10 17q-2.931 0-4.966-2.033Q3 12.933 3 10.003q0-2.93 2.033-4.966Q7.067 3 9.997 3q2.93 0 4.966 2.034Q17 7.07 17 10q0 1.317-.457 2.493q-.456 1.176-1.256 2.086L21 20.292z"/></svg>