<svg xmlns="http://www.w3.org/2000/svg" width="1em" height="1em" viewBox="0 0 24 24"><path fill="currentColor" d="M10 16.038q2.5 0 4.25-1.755T16 10.019q0-2.508-1.75-4.263Q12.5 4 10 4T5.75 5.756Q4 7.51 4 10.019t1.75 4.264Q7.5 16.038 10 16.038m0-3.442q-.213 0-.357-.144q-.143-.143-.143-.356V7.135q0-.213.144-.357q.144-.143.357-.143t.356.143q.143.144.143.357v4.961q0 .213-.144.356q-.144.144-.357.144m-3.346 0q-.213 0-.356-.144q-.143-.143-.143-.356V9.038q0-.212.144-.356t.357-.144q.212 0 .356.144q.143.144.143.356v3.058q0 .213-.144.356t-.357.144m6.692 0q-.212 0-.356-.144q-.143-.143-.143-.356V10q0-.213.144-.356t.357-.144q.213 0 .356.144t.143.356v2.096q0 .213-.144.356q-.144.144-.357.144M10 17q-2.931 0-4.966-2.033Q3 12.933 3 10.003q0-2.93 2.033-4.966Q7.067 3 9.997 3q2.93 0 4.966 2.034Q17 7.07 17 10q0 1.317-.457 2.493q-.456 1.176-1.256 2.086l5.378 5.379q.14.134.14.34t-.14.358q-.14.15-.353.14q-.214-.01-.354-.15l-5.36-5.36q-.929.8-2.105 1.257Q11.317 17 10 17"/></svg>