<svg xmlns="http://www.w3.org/2000/svg" width="1em" height="1em" viewBox="0 0 24 24"><path fill="currentColor" d="M9.234 15.23q-2.505 0-4.254-1.745q-1.75-1.745-1.75-4.25q0-2.506 1.746-4.255q1.745-1.75 4.251-1.75q2.506 0 4.255 1.746q1.749 1.745 1.749 4.251q0 2.506-1.746 4.255q-1.745 1.749-4.25 1.749m1.15 5.538q-.667 0-1.141-.474q-.475-.475-.475-1.141v-.477q0-.292.195-.488q.196-.195.494-.214q1.74-.077 3.24-.692q1.5-.616 2.735-1.85q1.234-1.235 1.85-2.735q.615-1.5.692-3.24q.02-.298.214-.494q.196-.195.488-.195h.477q.666 0 1.14.475q.475.474.475 1.14v8.77q0 .666-.474 1.14q-.475.475-1.141.475z"/></svg>