<svg xmlns="http://www.w3.org/2000/svg" width="1em" height="1em" viewBox="0 0 24 24"><path fill="currentColor" d="M6 21.615q-1.671 0-2.836-1.164T2 17.615q0-1.67 1.164-2.835T6 13.615q1.671 0 2.836 1.165T10 17.615q0 1.672-1.164 2.836Q7.67 21.615 6 21.615m0-3.453l1.477 1.482q.111.112.263.121q.152.01.283-.12q.13-.132.13-.277t-.13-.276l-1.477-1.477l1.483-1.482q.111-.112.121-.264q.01-.152-.121-.282q-.13-.131-.273-.131q-.143 0-.273.13L6 17.07l-1.483-1.482q-.111-.112-.263-.122q-.152-.01-.283.122q-.13.13-.13.273q0 .142.13.273l1.483 1.482l-1.483 1.483q-.111.112-.121.264q-.01.151.121.282q.13.131.273.131q.143 0 .273-.13zm1.896-7.785l7.742-4.562q-.069-.188-.103-.404Q15.5 5.194 15.5 5q0-1.038.73-1.77q.732-.73 1.77-.73t1.77.73q.73.732.73 1.77t-.73 1.77q-.732.73-1.77.73q-.556 0-1.042-.232q-.487-.231-.854-.645l-7.846 4.579q-.223.142-.487.177q-.263.034-.536-.033q-.316-.067-.615-.091q-.299-.024-.62-.024q-.454 0-.9.058q-.444.06-.867.19q-.243.061-.42-.09t-.096-.37q.273-.679.896-1.099Q5.235 9.5 6 9.5q.556 0 1.042.232q.487.231.854.645M18 21.5q-1.038 0-1.77-.73q-.73-.732-.73-1.77q0-.194.035-.41q.034-.217.103-.405l-3.425-2.02q-.17-.103-.223-.284q-.052-.181.052-.352q.104-.171.288-.223q.183-.052.355.052l3.419 2.019q.367-.414.854-.645q.486-.232 1.042-.232q1.038 0 1.77.73q.73.732.73 1.77t-.73 1.77q-.732.73-1.77.73"/></svg>