<svg xmlns="http://www.w3.org/2000/svg" width="1em" height="1em" viewBox="0 0 24 24"><path fill="currentColor" d="M12 20.842q-.159 0-.295-.025q-.136-.025-.272-.075q-2.983-1.125-4.708-3.782Q5 14.302 5 11.1V6.817q0-.514.293-.926q.293-.412.757-.597l5.385-2q.292-.106.565-.106q.273 0 .565.106l5.385 2q.464.185.757.597t.293.926v3.831q0 .353-.251.599q-.25.245-.624.24q-.95.044-1.812.384q-.863.34-1.588 1.066q-.675.675-1.075 1.575t-.4 1.95v3.478q0 .289-.197.497q-.197.207-.486.305q-.136.05-.272.075t-.295.025m4.37.158q-.367 0-.628-.261q-.261-.262-.261-.627v-2.8q0-.35.261-.6t.627-.25h.112v-1q0-.749.51-1.26q.51-.51 1.259-.51t1.259.51q.51.511.51 1.26v1h.112q.358 0 .613.25q.256.25.256.6v2.8q0 .365-.25.627q-.25.261-.62.261zm.88-4.538h2v-1q0-.425-.288-.713t-.712-.287q-.425 0-.712.287t-.288.713z"/></svg>