<svg xmlns="http://www.w3.org/2000/svg" width="1em" height="1em" viewBox="0 0 24 24"><path fill="currentColor" d="M5 11.12V6.816q0-.514.293-.926q.293-.412.757-.597l5.385-2q.292-.106.565-.106q.273 0 .565.106l5.385 2q.464.185.757.597t.293.926V11.1q0 .25-.156.375q-.157.125-.345.125q-.212 0-.356-.137Q18 11.325 18 11.1V6.798q0-.192-.106-.346q-.106-.154-.298-.23l-5.384-2q-.097-.04-.212-.04t-.212.04l-5.384 2q-.192.076-.298.23Q6 6.606 6 6.798V11.1q0 3.025 1.7 5.5t4.3 3.3q.201-.065.421-.155l.421-.172q.183-.079.378-.006t.28.256q.079.183.006.378t-.256.28q-.16.067-.326.145q-.167.078-.303.149q-.13.05-.284.078q-.152.028-.289.028q-.136 0-.286-.028q-.15-.028-.282-.078q-2.951-1.125-4.694-3.823T5 11.119M16.37 21q-.35 0-.62-.27q-.27-.268-.27-.618v-2.8q0-.35.27-.6t.62-.25h.11v-1q0-.749.511-1.26q.51-.51 1.259-.51t1.259.51q.51.511.51 1.26v1h.112q.358 0 .613.25q.256.25.256.6v2.8q0 .35-.256.619q-.255.269-.613.269zm.88-4.538h2v-1q0-.425-.288-.713t-.712-.287q-.425 0-.712.287t-.288.713zM12 12.019"/></svg>