<svg xmlns="http://www.w3.org/2000/svg" width="1em" height="1em" viewBox="0 0 24 24"><path fill="currentColor" d="M17.213 14.035q-.161 0-.298-.053q-.136-.053-.267-.184L9.14 6.315q-.105-.105-.149-.22q-.043-.114-.043-.245q0-.217.143-.41q.144-.192.41-.242q.616-.086 1.247-.142Q11.378 5 12 5q2.702 0 5.218.876q2.517.876 4.636 2.559q.156.13.24.292q.085.161.085.342q0 .143-.053.289t-.184.277l-4.163 4.163q-.13.13-.267.184q-.137.053-.299.053m2.716 7.31l-4.848-4.849l-2.516 2.516q-.242.242-.565.242q-.323 0-.565-.242L2.077 9.654q-.262-.262-.242-.635q.019-.373.305-.59q.823-.633 1.547-1.085q.723-.452 1.442-.794L2.625 4.046q-.146-.146-.153-.344q-.007-.198.159-.364q.165-.165.357-.165t.356.165l17.298 17.299q.146.146.156.344q.01.198-.156.363q-.165.166-.356.166t-.357-.166"/></svg>