<svg xmlns="http://www.w3.org/2000/svg" width="1em" height="1em" viewBox="0 0 24 24"><path fill="currentColor" d="M18.5 18H16q-.213 0-.356-.144q-.144-.144-.144-.357q0-.212.144-.356Q15.788 17 16 17h2.5v-2.5q0-.213.144-.356Q18.788 14 19 14t.356.144q.143.144.143.356V17H22q.213 0 .356.144t.144.357q0 .212-.144.356Q22.213 18 22 18h-2.5v2.5q0 .213-.144.356Q19.212 21 19 21t-.356-.144q-.143-.143-.143-.356zM4.944 21q-.363 0-.585-.252q-.222-.252-.222-.55q0-.148.053-.296q.054-.148.183-.275L19.627 4.379q.13-.13.277-.187t.295-.055q.297 0 .55.222t.251.585v6.171q0 .213-.144.357q-.144.143-.357.143q-.212 0-.356-.143q-.143-.144-.143-.357V5.427L5.421 20h7.194q.213 0 .357.144t.143.357q0 .212-.143.356q-.144.143-.357.143zm.477-1L20 5.427q-2.515 2.515-4.363 4.36l-3.461 3.458l-3.195 3.195z"/></svg>