<svg xmlns="http://www.w3.org/2000/svg" width="1em" height="1em" viewBox="0 0 24 24"><path fill="currentColor" d="M17.235 20.454q-.14.14-.332.134q-.191-.007-.338-.153q-.14-.14-.14-.345t.14-.344L18.312 18l-1.766-1.765q-.14-.14-.13-.345q.009-.203.15-.344q.14-.14.344-.14t.344.14L19 17.312l1.765-1.766q.14-.14.342-.134q.2.007.347.153q.14.14.14.335t-.14.335L19.714 18l1.74 1.765q.14.14.134.342q-.007.2-.153.347q-.14.14-.335.14t-.335-.14L19 18.714zM4.945 21q-.374 0-.594-.252q-.22-.252-.22-.556q0-.142.056-.288q.055-.146.186-.277L19.621 4.379q.13-.13.277-.187t.289-.055q.303 0 .555.22q.252.22.252.593v6.015q0 .373-.282.582t-.649.136q-.29-.068-.567-.092q-.277-.024-.496-.024q-2.473 0-4.203 1.73q-1.73 1.73-1.73 4.203q0 .66.144 1.3t.435 1.23q.167.349-.016.66t-.532.31z"/></svg>