<svg xmlns="http://www.w3.org/2000/svg" width="1em" height="1em" viewBox="0 0 24 24"><path fill="currentColor" d="M17.93 10.02q0 .892-.255 1.759q-.256.867-.787 1.59q-.142.16-.326.182q-.183.022-.343-.138q-.154-.153-.134-.35q.019-.196.142-.361q.396-.608.585-1.294Q17 10.72 17 10q0-.871-.288-1.683q-.289-.811-.835-1.475q-.142-.165-.152-.361q-.01-.196.144-.35t.34-.135q.187.02.33.179q.68.817 1.036 1.797t.356 2.047M12 8.077q.8 0 1.362.561q.561.562.561 1.362v.096q0 .048-.011.096q-.037.243-.273.315q-.235.072-.44-.134l-1.572-1.571q-.187-.187-.121-.42q.065-.232.302-.294q.048-.011.096-.011zM21.23 10q0 1.573-.5 3.03q-.5 1.458-1.493 2.687q-.143.16-.33.18q-.186.018-.34-.135q-.154-.154-.134-.35q.019-.197.142-.362q.84-1.088 1.283-2.371q.442-1.283.442-2.679q0-1.546-.54-2.954q-.539-1.408-1.554-2.552q-.148-.16-.158-.346q-.01-.186.144-.34q.154-.154.35-.132q.196.022.345.182q1.125 1.279 1.734 2.852q.61 1.573.61 3.29m-1.752 10.9L12.5 13.921v5.694q0 .214-.143.357q-.144.143-.357.143t-.357-.143q-.143-.143-.143-.357v-6.694L7.23 8.658q-.115.338-.172.67Q7 9.663 7 10q0 .871.288 1.683q.289.811.835 1.475q.142.165.152.361q.01.196-.144.35t-.34.135q-.187-.02-.33-.179q-.655-.798-1.024-1.778q-.368-.98-.368-2.047q0-.54.089-1.065q.088-.525.329-1.027L4.712 6.133q-.506.898-.76 1.863Q3.7 8.962 3.7 10q0 1.546.54 2.954q.539 1.408 1.554 2.552q.148.16.158.346q.01.186-.144.34q-.154.154-.35.132q-.196-.022-.345-.182q-1.125-1.279-1.734-2.861q-.61-1.583-.61-3.281q0-1.215.305-2.374t.934-2.197L3.1 4.52q-.14-.14-.15-.341q-.01-.201.15-.367q.165-.165.357-.165t.356.165l16.38 16.38q.145.145.152.344q.007.198-.158.363q-.166.16-.354.163q-.189.002-.354-.163"/></svg>