<svg xmlns="http://www.w3.org/2000/svg" width="1em" height="1em" viewBox="0 0 24 24"><path fill="currentColor" d="M19 21q-.213 0-.357-.144q-.143-.143-.143-.356V18H16q-.213 0-.356-.144q-.144-.144-.144-.357q0-.212.144-.356Q15.788 17 16 17h2.5v-2.5q0-.213.144-.356Q18.788 14 19 14t.356.144q.143.144.143.356V17H22q.213 0 .356.144t.144.357q0 .212-.144.356Q22.213 18 22 18h-2.5v2.5q0 .213-.144.356Q19.212 21 19 21M4.944 21q-.373 0-.593-.252q-.22-.252-.22-.55q0-.148.056-.294q.055-.146.186-.277L19.621 4.379q.13-.13.277-.187t.295-.055q.297 0 .55.22q.251.22.251.593v6.015q0 .373-.281.582t-.65.136q-.29-.068-.567-.092q-.277-.024-.496-.024q-2.47 0-4.201 1.732q-1.732 1.731-1.732 4.201q0 .66.144 1.3t.435 1.23q.167.349-.011.66q-.18.31-.537.31z"/></svg>