<svg xmlns="http://www.w3.org/2000/svg" width="1em" height="1em" viewBox="0 0 24 24"><path fill="currentColor" d="M17.567 14.01q-.146.146-.344.153q-.198.006-.363-.16q-.166-.165-.166-.356t.166-.357l4.24-4.24q-1.975-1.5-4.3-2.275T12 6q-.725 0-1.45.075t-1.45.2q-.213.037-.375-.083q-.162-.119-.198-.313q-.037-.208.073-.382q.11-.174.323-.21q.762-.131 1.526-.21Q11.213 5 12 5q2.702 0 5.218.876q2.517.876 4.636 2.559q.156.105.23.267q.076.161.095.323q.02.162-.043.32t-.194.29zM12 18.15l2.367-2.362l-8.48-8.48q-.795.332-1.535.776q-.74.443-1.452.966zm7.929 3.194l-4.848-4.848l-2.516 2.516q-.13.13-.267.186q-.136.056-.298.056q-.142 0-.288-.056q-.147-.056-.277-.186L2.077 9.654q-.13-.13-.187-.28q-.055-.149-.055-.31q0-.181.075-.343q.075-.161.23-.292q.823-.633 1.547-1.085q.723-.452 1.442-.794L2.625 4.046q-.146-.146-.153-.344q-.007-.198.159-.364q.165-.165.357-.165t.356.165l17.298 17.299q.146.146.156.344q.01.198-.156.363q-.165.166-.356.166t-.357-.166m-9.802-9.796"/></svg>