<svg xmlns="http://www.w3.org/2000/svg" width="1em" height="1em" viewBox="0 0 24 24"><path fill="currentColor" d="M4.944 21q-.54 0-.745-.497q-.205-.497.174-.876l6.92-6.92l-7.29-7.282q-.145-.14-.152-.341q-.007-.201.153-.367q.165-.165.357-.165t.356.165l16.63 16.63q.145.145.152.343q.007.198-.159.364q-.165.16-.353.162q-.189.003-.354-.162L19.579 21zM21 4.944v11.312q0 .373-.252.593q-.252.22-.556.22q-.142 0-.288-.056q-.146-.055-.277-.186l-5.662-5.662q-.13-.13-.183-.267q-.053-.136-.053-.298t.053-.298q.053-.137.183-.267l5.662-5.662q.379-.379.876-.174q.497.205.497.745"/></svg>