<svg xmlns="http://www.w3.org/2000/svg" width="1em" height="1em" viewBox="0 0 24 24"><path fill="currentColor" d="M5.421 20H18.58L12 13.421zm-.477 1q-.54 0-.745-.497q-.205-.497.174-.876l6.92-6.92l-7.29-7.282q-.145-.14-.152-.341q-.007-.201.153-.367q.165-.165.357-.165t.356.165l16.63 16.63q.145.145.152.343q.007.198-.159.364q-.165.16-.353.162q-.189.003-.354-.162L19.579 21zM21 4.944v12.043q0 .25-.159.375t-.341.125q-.183 0-.341-.128Q20 17.23 20 16.98V5.42l-5.533 5.533q-.14.14-.341.15q-.201.01-.366-.15q-.166-.166-.166-.357t.166-.357l5.867-5.867q.379-.379.876-.174q.497.205.497.745m-5.708 11.764"/></svg>