<svg xmlns="http://www.w3.org/2000/svg" width="1em" height="1em" viewBox="0 0 24 24"><path fill="currentColor" d="M10.692 15.173h2.616L12 12.558zm-2.189-2.558q.668 0 1.14-.475q.472-.476.472-1.143t-.475-1.14q-.476-.472-1.143-.472t-1.14.475q-.472.476-.472 1.143t.475 1.14q.476.472 1.143.472m7 0q.668 0 1.14-.475q.472-.476.472-1.143t-.475-1.14q-.476-.472-1.143-.472t-1.14.475q-.472.476-.472 1.143t.475 1.14q.476.472 1.143.472M7 21v-3.904q-.917-.386-1.655-1.012q-.737-.626-1.26-1.43q-.522-.804-.803-1.733Q3 11.992 3 11q0-3.527 2.52-5.763Q8.04 3 11.998 3t6.48 2.237Q21 7.473 21 11q0 .992-.282 1.921t-.804 1.733q-.522.804-1.26 1.43q-.737.626-1.654 1.016V21h-2.423v-1.923h-1.539V21h-2.076v-1.923H9.423V21z"/></svg>