<svg xmlns="http://www.w3.org/2000/svg" width="1em" height="1em" viewBox="0 0 24 24"><path fill="currentColor" d="m8.033 17.058l1.16-3h5.445l1.154 3h-1.961q-.196 0-.334.137q-.137.138-.137.334t.137.333q.138.138.334.138h3.756q.196 0 .333-.138q.138-.137.138-.333t-.138-.334q-.137-.137-.333-.137h-.683L12.706 6.354q-.068-.171-.208-.263Q12.358 6 12.181 6h-.452q-.177 0-.317.091q-.14.092-.208.263L7 17.058h-.587q-.196 0-.333.137q-.138.138-.138.334t.138.333q.137.138.333.138h3.631q.196 0 .334-.138t.137-.333q0-.196-.15-.334q-.15-.137-.346-.137zm1.515-3.914l2.335-5.963h.098l2.296 5.963zM4.615 21q-.69 0-1.152-.462Q3 20.075 3 19.385V4.615q0-.69.463-1.152Q3.925 3 4.615 3h14.77q.69 0 1.152.463q.463.462.463 1.152v14.77q0 .69-.462 1.152q-.463.463-1.153.463z"/></svg>