<svg xmlns="http://www.w3.org/2000/svg" width="1em" height="1em" viewBox="0 0 24 24"><path fill="currentColor" d="M5.942 18h4.573v-.942H8.033l1.16-3h5.445l1.154 3H13.36V18h4.698v-.942h-1.154L12.565 6h-1.22L7 17.058H5.942zm3.606-4.856l2.335-5.963h.098l2.296 5.963zM4.615 21q-.69 0-1.152-.462Q3 20.075 3 19.385V4.615q0-.69.463-1.152Q3.925 3 4.615 3h14.77q.69 0 1.152.463q.463.462.463 1.152v14.77q0 .69-.462 1.152q-.463.463-1.153.463zm0-1h14.77q.23 0 .423-.192q.192-.193.192-.423V4.615q0-.23-.192-.423Q19.615 4 19.385 4H4.615q-.23 0-.423.192Q4 4.385 4 4.615v14.77q0 .23.192.423q.193.192.423.192M4 20V4z"/></svg>