<svg xmlns="http://www.w3.org/2000/svg" width="1em" height="1em" viewBox="0 0 24 24"><path fill="currentColor" d="M16.558 1.738q.69 0 1.153.463q.462.462.462 1.153v10.634h-.161l-.839-.838V3.354q0-.27-.173-.442q-.173-.174-.442-.174H6.883l-.556-.555q.217-.21.501-.327q.284-.118.614-.118zm-2.256 8.497L12.51 8.429q.148-.44.52-.729q.371-.288.855-.288q.595 0 1.018.425t.424 1.023q0 .47-.283.849q-.282.378-.742.526m-6.09 1.957V6.95l2.392 2.392q-.079 1.368-.56 2.109q-.48.741-1.277.741zM4 18.738h14.579l-1.385-1.384H4.615q-.269 0-.442.173T4 17.969zm17.11 2.531l-1.531-1.53H3v-1.77q0-.666.475-1.14q.474-.475 1.14-.475h11.58L6.826 6.98v7.488h-1V5.981L1.892 2.046l.708-.708l19.223 19.218zM10.58 10.715"/></svg>