<svg xmlns="http://www.w3.org/2000/svg" width="1em" height="1em" viewBox="0 0 24 24"><path fill="currentColor" d="M16.558 1.738q.69 0 1.153.463q.462.462.462 1.153v9.588q0 .213-.144.357q-.144.143-.357.143q-.212 0-.356-.148q-.143-.148-.143-.357V3.354q0-.27-.173-.442q-.173-.174-.442-.174H7.383q-.213 0-.357-.143q-.143-.144-.143-.357t.143-.356q.144-.144.357-.144zm-2.256 8.497L12.51 8.429q.148-.44.52-.729q.371-.288.855-.288q.595 0 1.018.425t.424 1.023q0 .47-.283.849q-.282.378-.742.526M8.212 6.95l2.392 2.392q-.03.554-.154 1.085q-.123.53-.408 1.008q-.225.334-.533.549q-.308.214-.682.214q-.267 0-.441-.174q-.174-.175-.174-.441zM4 18.738h14.579l-1.385-1.384H4.615q-.269 0-.442.173T4 17.969zm-.192 1q-.344 0-.576-.232Q3 19.274 3 18.931v-.962q0-.666.475-1.14q.474-.475 1.14-.475h11.58L6.826 6.98v6.988q0 .213-.144.356t-.357.144q-.213 0-.356-.144q-.143-.143-.143-.356V5.981L2.247 2.4q-.141-.14-.154-.341q-.012-.201.157-.37q.156-.156.35-.156t.354.16l18.515 18.509q.146.146.153.344q.007.198-.159.364q-.165.165-.356.165t-.357-.165l-1.171-1.172zm6.773-9.023"/></svg>