<svg xmlns="http://www.w3.org/2000/svg" width="1em" height="1em" viewBox="0 0 24 24"><path fill="currentColor" d="M10.115 14.692q-.69 0-1.152-.462q-.463-.463-.463-1.153V5.615q0-.69.463-1.152Q9.425 4 10.115 4h3.77q.69 0 1.153.463q.462.462.462 1.152v7.462q0 .69-.462 1.153q-.463.462-1.153.462zM8.38 21q-2.65-.006-4.512-1.81Q2.006 17.387 2 14.775q0-.21.144-.358t.357-.148q.212 0 .356.144q.143.144.143.356q0 2.21 1.575 3.72Q6.15 20 8.385 20q.212 0 .356.144t.144.357q0 .212-.148.356q-.148.143-.358.143m7.242 0q-.21 0-.358-.144t-.148-.357q0-.212.144-.356q.144-.143.356-.143q2.235 0 3.81-1.51Q21 16.978 21 14.77q0-.213.144-.357t.357-.144q.212 0 .356.144q.143.144.143.356q-.006 2.612-1.867 4.419Q18.27 20.994 15.62 21m-7.24-3.27q-1.271-.005-2.188-.854q-.916-.85-.922-2.101q0-.21.144-.358t.357-.148q.213 0 .356.144t.143.356q0 .416.17.777q.17.362.46.622q.29.26.676.412q.387.15.81.15q.212 0 .356.145q.144.144.144.356q0 .213-.148.357q-.148.143-.358.143m7.242 0q-.21 0-.358-.144t-.148-.357q0-.213.144-.356t.356-.143q.423 0 .81-.151q.387-.151.676-.412q.29-.26.46-.622q.17-.361.17-.777q0-.212.144-.356t.356-.144q.213 0 .357.144q.143.144.143.356q-.006 1.258-.92 2.107q-.913.849-2.19.855"/></svg>