<svg xmlns="http://www.w3.org/2000/svg" width="1em" height="1em" viewBox="0 0 24 24"><path fill="currentColor" d="M16.5 16.5q-.213 0-.356-.144Q16 16.212 16 16t.144-.356q.144-.143.356-.143h2.885q.269 0 .442-.173t.173-.442v-1.77q0-.269-.173-.442t-.442-.173h-2.577q-.344 0-.576-.23q-.232-.23-.232-.587V8.317q0-.357.232-.587q.232-.23.576-.23H20.5q.213 0 .356.144Q21 7.788 21 8t-.144.356q-.143.143-.356.143H17v3h2.385q.69 0 1.152.463q.463.462.463 1.152v1.77q0 .69-.462 1.153q-.463.462-1.153.462zm-3.23-8H9.807q-.213 0-.357-.144q-.143-.144-.143-.357t.143-.356q.144-.143.357-.143h3.557q.38 0 .661.268q.282.269.282.647q0 .25-.07.431l-1.832 7.275q-.056.171-.182.275q-.125.104-.3.104q-.255 0-.415-.192q-.16-.193-.094-.431zm-5.04 8q-.213 0-.356-.144T7.731 16t.144-.356q.144-.143.356-.143q.213 0 .357.144q.143.144.143.357t-.144.356q-.144.143-.357.143M5 8.5H3.5q-.213 0-.356-.144Q3 8.212 3 7.999t.144-.356Q3.287 7.5 3.5 7.5h1.683q.357 0 .587.232q.23.232.23.576V16q0 .213-.144.356T5.5 16.5q-.212 0-.356-.144Q5 16.213 5 16z"/></svg>