<svg xmlns="http://www.w3.org/2000/svg" width="1em" height="1em" viewBox="0 0 24 24"><path fill="currentColor" d="M17 16.5q-.213 0-.356-.144q-.144-.144-.144-.357t.144-.356q.144-.143.356-.143h2.885q.269 0 .442-.173t.173-.442v-1.77q0-.269-.173-.442t-.442-.173h-2.577q-.344 0-.576-.23q-.232-.23-.232-.587V8.317q0-.357.232-.587q.232-.23.576-.23H21q.213 0 .356.144q.144.144.144.357t-.144.356Q21.213 8.5 21 8.5h-3.5v3h2.385q.69 0 1.152.463q.463.462.463 1.152v1.77q0 .69-.462 1.153q-.463.462-1.153.462zm-2.73 0h-3.693q-.343 0-.576-.232q-.232-.232-.232-.576v-2.577q0-.69.463-1.152q.462-.463 1.153-.463h1.769q.27 0 .442-.173t.173-.442v-1.77q0-.269-.173-.442t-.442-.173h-2.885q-.212 0-.356-.144t-.144-.357t.144-.356q.144-.143.356-.143h2.885q.69 0 1.153.463q.462.462.462 1.152v1.77q0 .69-.462 1.153q-.463.462-1.153.462h-1.77q-.269 0-.442.173t-.173.442V15.5h3.5q.213 0 .356.144q.144.144.144.357t-.144.356q-.143.143-.356.143m-6.731 0q-.213 0-.356-.144q-.144-.144-.144-.357t.144-.356q.144-.143.357-.143t.356.144q.143.144.143.357t-.143.356q-.144.143-.357.143m-3.23-8h-1.5q-.213 0-.357-.144q-.143-.144-.143-.357t.143-.356q.144-.143.357-.143H4.49q.358 0 .588.232q.23.232.23.576V16q0 .213-.144.356t-.357.144q-.213 0-.356-.144T4.308 16z"/></svg>