<svg xmlns="http://www.w3.org/2000/svg" width="1em" height="1em" viewBox="0 0 24 24"><path fill="currentColor" d="M12.577 19q-.31 0-.54-.23q-.23-.23-.23-.54v-3.845q0-.31.23-.54q.23-.23.54-.23h2.346q.31 0 .54.23q.23.23.23.54v3.846q0 .31-.23.54q-.23.229-.54.229zm.115-.885h2.116V14.5h-2.116zm7.981 3.577h-2.711q-.327 0-.549-.22q-.22-.222-.22-.549v-1.596q0-.327.22-.548q.222-.221.549-.221h2.269v-1.366h-2.596q-.192 0-.317-.125q-.126-.125-.126-.316t.126-.317q.125-.126.317-.126h2.711q.327 0 .548.22q.221.222.221.549v1.596q0 .327-.22.548q-.222.221-.549.221h-2.27v1.366h2.597q.192 0 .317.125t.125.316t-.125.317q-.125.126-.317.126M10 3.6q.142 0 .285.053t.275.159q.765.703 1.542 1.466q.777.762 1.493 1.599q.715.836 1.346 1.716q.632.88 1.119 1.813q.098.182.021.377q-.076.195-.264.26t-.368-.005q-.18-.069-.284-.251q-.444-.843-1.047-1.667q-.603-.824-1.286-1.61q-.684-.787-1.415-1.508Q10.687 5.28 10 4.65Q7.025 7.375 5.513 9.675T4 13.8q0 2.294 1.325 4.021t3.646 2.077q.214.048.348.218t.062.359q-.086.235-.299.332q-.213.097-.457.043q-2.563-.454-4.094-2.464Q3 16.375 3 13.8q0-1.413.658-2.818q.657-1.405 1.632-2.708q.975-1.303 2.1-2.443Q8.512 4.69 9.46 3.818q.13-.112.263-.165Q9.858 3.6 10 3.6m-.304 10.2"/></svg>