<svg xmlns="http://www.w3.org/2000/svg" width="1em" height="1em" viewBox="0 0 24 24"><path fill="currentColor" d="M12.577 19q-.31 0-.54-.23q-.23-.23-.23-.54v-3.845q0-.31.23-.54q.23-.23.54-.23h2.346q.31 0 .54.23q.23.23.23.54v3.846q0 .31-.23.54q-.23.229-.54.229zm.115-.885h2.116V14.5h-2.116zm5.27 3.577q-.327 0-.549-.22q-.22-.222-.22-.549v-1.596q0-.327.22-.548q.222-.221.549-.221h2.269v-1.366h-2.596q-.192 0-.317-.125q-.126-.125-.126-.316t.126-.317q.125-.126.317-.126h2.711q.327 0 .548.22q.221.222.221.549v1.596q0 .327-.22.548q-.222.221-.549.221h-2.27v1.366h2.597q.192 0 .317.125t.125.316t-.125.317q-.125.126-.317.126zM10.008 3.6q.154 0 .29.053q.137.053.262.159q1.546 1.398 2.939 2.923q1.393 1.525 2.38 3.36q.211.378-.017.757q-.23.379-.683.379h-4.14q-.667 0-1.141.474t-.475 1.141v7.142q0 .368-.284.623q-.285.254-.656.254q-2.662 0-4.072-2.083Q3 16.698 3 13.8q0-3.112 2.078-5.49Q7.156 5.93 9.46 3.811q.125-.106.26-.16q.134-.052.288-.052"/></svg>