<svg xmlns="http://www.w3.org/2000/svg" width="1em" height="1em" viewBox="0 0 24 24"><path fill="currentColor" d="M15.115 13.692h5.654v-4h-5.654zm.481 1l-.784.785q-.193.192-.445.095t-.252-.368V9.508q0-.356.233-.586q.232-.23.575-.23h6.039q.343 0 .575.233q.232.232.232.575v4.385q0 .343-.232.575q-.232.232-.575.232zM7 19.5v.885q0 .23.192.423q.193.192.423.192h8.77q.23 0 .423-.192q.192-.193.192-.423V19.5zm0-15h10v-.885q0-.23-.192-.423Q16.615 3 16.385 3h-8.77q-.23 0-.423.192Q7 3.385 7 3.615zm0 0V3zm0 15V21zm8.115-5.808v-4zM7.615 22q-.666 0-1.14-.475Q6 21.052 6 20.386V3.615q0-.666.475-1.14Q6.949 2 7.615 2h8.77q.666 0 1.14.475q.475.474.475 1.14v2.808q0 .213-.144.356q-.144.144-.357.144q-.212 0-.356-.144Q17 6.636 17 6.423V5.5H7v13h10v-.923q0-.213.144-.356t.357-.144q.212 0 .356.144q.143.143.143.356v2.808q0 .666-.475 1.14q-.474.475-1.14.475z"/></svg>