<svg xmlns="http://www.w3.org/2000/svg" width="1em" height="1em" viewBox="0 0 24 24"><path fill="currentColor" d="M12.15 19.385q-1.421 0-2.624-.751t-1.882-2.017q-.09-.188-.014-.395q.076-.207.27-.297q.2-.096.418-.02q.219.076.34.276q.546.98 1.472 1.546q.926.565 2.032.565q1.388 0 2.45-.79q1.063-.79 1.063-2.071q0-.327-.058-.654t-.23-.615q-.058-.212.061-.389t.33-.235q.212-.057.402.062q.19.12.247.33q.211.345.279.757q.067.411.067.813q0 1.725-1.399 2.805t-3.224 1.08M3 11.5q-.213 0-.357-.143Q2.5 11.213 2.5 11t.143-.357Q2.787 10.5 3 10.5h18q.213 0 .357.143q.143.144.143.357t-.143.357q-.144.143-.357.143zm5.296-3.029q-.213-.058-.325-.247q-.111-.19-.054-.403q.106-1.463 1.33-2.371q1.222-.908 2.803-.908q1.065 0 2.003.452q.937.452 1.566 1.287q.121.177.089.386q-.033.21-.216.331q-.194.127-.412.09q-.218-.036-.376-.225q-.471-.617-1.164-.923q-.692-.305-1.478-.305q-1.195 0-2.118.669q-.923.67-.998 1.783q-.058.219-.247.33q-.19.112-.403.054"/></svg>