<svg xmlns="http://www.w3.org/2000/svg" width="1em" height="1em" viewBox="0 0 24 24"><path fill="currentColor" d="M5.804 14.327H7.75v-.135q0-.343.232-.575q.232-.232.576-.232h6.884q.344 0 .576.232q.232.232.232.575v.135h1.927q.348 0 .586-.24q.237-.24.237-.595q0-.24-.12-.453q-.12-.212-.36-.32L12 9.815L5.5 12.72q-.24.108-.37.32q-.13.213-.13.453q0 .354.226.595q.226.24.578.24M8.558 21q-.344 0-.576-.232q-.232-.232-.232-.576v-4.865H5.804q-.752 0-1.278-.532T4 13.503q0-.551.294-1.02t.79-.69L11.5 8.93V7.685q-.823-.172-1.354-.819q-.53-.647-.53-1.481q0-.994.695-1.69Q11.006 3 12 3q.747 0 1.326.41q.58.41.853 1.055q.079.202 0 .404t-.28.281q-.203.079-.395.003t-.271-.278q-.168-.385-.487-.63Q12.428 4 11.991 4q-.57 0-.973.398t-.403.987q0 .588.398.986q.399.398.987.398q.213 0 .356.144t.144.356v1.662l6.396 2.861q.495.228.8.691q.304.464.304 1.013q0 .758-.532 1.294q-.531.537-1.291.537H16.25v4.865q0 .344-.232.576q-.232.232-.576.232z"/></svg>