<svg xmlns="http://www.w3.org/2000/svg" width="1em" height="1em" viewBox="0 0 24 24"><path fill="currentColor" d="M4.73 13.25h-2q-.212 0-.355-.144q-.144-.144-.144-.357t.144-.356q.143-.143.356-.143h2q.212 0 .356.144t.144.357t-.144.356q-.144.143-.356.143m2.474-5.296q-.14.16-.354.15q-.213-.01-.354-.15L5.071 6.529q-.146-.153-.146-.357t.146-.35q.166-.16.354-.163q.188-.003.354.162l1.425 1.444q.134.136.14.34q.006.203-.14.349M5.997 18.192q-.349 0-.586-.24q-.238-.241-.238-.59t.24-.586q.242-.238.59-.238q.349 0 .586.241q.238.241.238.59q0 .348-.24.586q-.242.237-.59.237M8.5 13.25q-.213 0-.356-.144T8 12.75q0-1.671 1.164-2.836T12 8.75q1.671 0 2.836 1.164T16 12.75q0 .213-.144.356t-.356.144zm.497 8.942q-.349 0-.586-.24t-.238-.59q0-.349.24-.586q.242-.238.59-.238q.349 0 .586.241q.238.241.238.59q0 .348-.24.586t-.59.237m3-4q-.349 0-.586-.24q-.238-.241-.238-.59t.24-.586q.242-.238.59-.238q.349 0 .586.241q.238.241.238.59q0 .348-.24.586q-.242.237-.59.237m.002-12.211q-.212 0-.356-.144q-.143-.144-.143-.356v-2q0-.213.144-.356q.144-.144.357-.144t.356.144q.143.143.143.356v2q0 .212-.144.356T12 5.981m2.998 16.211q-.349 0-.586-.24t-.238-.59q0-.349.24-.586q.242-.238.59-.238q.349 0 .586.241q.238.241.238.59q0 .348-.24.586t-.59.237m1.8-14.234q-.166-.17-.166-.358q0-.188.165-.354l1.425-1.425q.14-.14.35-.153q.208-.012.36.152q.138.139.138.354t-.14.355l-1.425 1.425q-.136.16-.34.16q-.202 0-.368-.156m1.2 10.234q-.348 0-.585-.24q-.238-.241-.238-.59t.24-.586q.242-.238.59-.238q.349 0 .586.241q.238.241.238.59q0 .348-.24.586q-.242.237-.59.237m1.272-4.942q-.212 0-.356-.144t-.144-.357t.144-.356q.144-.143.356-.143h2q.213 0 .357.144q.143.144.143.357t-.143.356q-.144.143-.357.143z"/></svg>