<svg xmlns="http://www.w3.org/2000/svg" width="1em" height="1em" viewBox="0 0 24 24"><path fill="currentColor" d="M12 21q-1.863 0-3.506-.71t-2.857-1.927Q4.42 17.148 3.71 15.506Q3 13.863 3 12q0-1.602.521-3.018q.521-1.417 1.456-2.578L3.094 4.52q-.146-.146-.153-.347q-.006-.2.159-.366q.165-.166.357-.166t.356.166l16.38 16.384q.145.146.155.345q.01.198-.156.363q-.165.165-.356.165t-.357-.165l-1.883-1.877q-1.2.954-2.616 1.465Q13.563 21 12 21m-1.2-1.085q.862-1.505 2.088-2.258q1.227-.753 2.356-.986L5.696 7.123q-.794 1.015-1.245 2.25Q4 10.605 4 12q0 1.298.384 2.448t1.035 2.102q.948-.558 1.904-.804t2.004-.246q.627 0 1.22.099q.593.1.972.209q-.286.184-.52.373q-.234.188-.472.427q-.185-.05-.532-.08q-.347-.028-.668-.028q-.858 0-1.703.213q-.845.214-1.57.64q.684.935 2.105 1.646q1.42.71 2.641.916M12.462 9.65L9.85 7.038q1.03.104 1.77.846q.738.741.842 1.766M9.5 13q-1.258 0-2.129-.871T6.5 10q0-.729.314-1.33q.315-.6.832-1.024l4.208 4.208q-.423.517-1.024.832Q10.229 13 9.5 13m7.615 1.304l-2.919-2.92q.212-.774.842-1.272q.631-.497 1.462-.497q.992 0 1.688.697q.697.696.697 1.688q0 .83-.498 1.462q-.497.63-1.272.842M7.812 4.034q.955-.546 2.015-.79T12 3q1.788 0 3.44.683q1.652.682 2.923 1.954q1.272 1.27 1.954 2.923Q21 10.212 21 12q0 1.094-.254 2.135q-.254 1.04-.742 1.996q-.098.182-.306.237q-.208.055-.385-.049t-.234-.311q-.058-.208.04-.396q.44-.847.66-1.762Q20 12.935 20 12q0-3.35-2.325-5.675T12 4q-.935 0-1.85.22t-1.762.66q-.188.099-.396.05q-.207-.047-.33-.224q-.124-.177-.078-.375q.045-.198.228-.296"/></svg>