<svg xmlns="http://www.w3.org/2000/svg" width="1em" height="1em" viewBox="0 0 24 24"><path fill="currentColor" d="M12 21q-1.863 0-3.506-.71t-2.857-1.927Q4.42 17.148 3.71 15.506Q3 13.863 3 12q0-1.602.521-3.018q.521-1.417 1.456-2.578L3.094 4.52q-.146-.146-.153-.347q-.006-.2.159-.366q.165-.166.357-.166t.356.166l16.38 16.384q.145.146.155.345q.01.198-.156.363q-.165.165-.356.165t-.357-.165l-1.883-1.877q-1.2.954-2.616 1.465Q13.563 21 12 21m-.017-1.006q1.394 0 2.63-.45q1.237-.452 2.252-1.252l-1.62-1.62q-1.316.251-2.507 1.1q-1.192.85-1.938 2.124q.304.056.588.077q.285.021.595.021m-3.389-.76q.587-1.184 1.315-1.963q.728-.779 1.61-1.463q-.436-.13-1.049-.219T9.327 15.5q-.875 0-1.666.172q-.792.172-1.54.516q-.292.125-.354.433q-.061.308.145.556q.542.665 1.226 1.178q.685.512 1.456.88M12 3q1.863 0 3.506.71t2.857 1.927q1.216 1.215 1.926 2.857Q21 10.137 21 12q0 .96-.184 1.857q-.183.897-.55 1.726q-.131.292-.358.426t-.52.133q-.211 0-.39-.068q-.18-.068-.342-.23l-1.54-1.54q.774-.212 1.272-.842q.497-.631.497-1.462q0-.992-.697-1.688q-.696-.697-1.688-.697q-.83 0-1.462.498q-.63.497-.842 1.272L12.462 9.65q-.104-1.025-.843-1.766q-.738-.742-1.769-.846L8.156 5.344q-.162-.161-.23-.338q-.068-.177-.068-.389q0-.292.133-.522q.134-.23.426-.36q.83-.368 1.726-.551Q11.04 3 12 3M9.5 13q.448 0 .849-.134q.401-.133.728-.362l-4.08-4.08q-.23.326-.363.727q-.134.4-.134.849q0 1.258.871 2.129T9.5 13"/></svg>