<svg xmlns="http://www.w3.org/2000/svg" width="1em" height="1em" viewBox="0 0 24 24"><path fill="currentColor" d="M21.635 19.212h-8.481q-.25 0-.375-.156q-.125-.155-.125-.34q0-.187.13-.346t.376-.158h8.475q.212 0 .356.144q.144.143.144.356t-.144.356q-.144.144-.356.144m-9.42-5.197q-.242.243-.565.243t-.565-.243L9.888 12.82q-.242-.242-.242-.565q0-.323.242-.566l6.385-6.384q.148-.148.31-.213t.342-.064q.179 0 .338.064q.16.065.304.208l1.037 1.038q.144.144.208.306q.065.163.065.342q0 .178-.064.338q-.065.16-.213.308zm-.565-.861l6.2-6.175l-.925-.925l-6.175 6.2zm-1.958 4.704q-.665.684-1.555 1.029q-.889.344-1.827.344h-.6q-.333 0-.673-.056t-.645-.18q-.275-.08-.422-.304q-.147-.224-.147-.504q0-.2.071-.38q.071-.181.214-.326L7.694 13.9q.243-.242.566-.242q.323 0 .565.242l1.323 1.323q.224.212.353.486q.128.273.128.576q0 .303-.123.585q-.123.28-.339.493zm-3.982.373h.6q.75 0 1.45-.288t1.225-.812l.475-.475q.15-.15.14-.36q-.01-.21-.179-.379L8.26 14.756l-3.362 3.336q.142.07.374.104q.232.035.438.035M17.85 6.979l-.925-.925zm-9.59 7.777"/></svg>