<svg xmlns="http://www.w3.org/2000/svg" width="1em" height="1em" viewBox="0 0 24 24"><path fill="currentColor" d="M2.358 11.498q0-.29.075-.57q.075-.28.211-.547q1.46-2.48 3.953-3.93Q9.09 5 12 5q3.102 0 5.71 1.625t3.994 4.394q.104.183.024.39q-.08.208-.263.312q-.182.104-.377.024q-.196-.08-.3-.262q-.625-1.25-1.55-2.267t-2.062-1.73q-1.138-.711-2.457-1.098Q13.4 6 12 6Q9.175 6 6.813 7.488T3.2 11.5q1.25 2.5 3.804 4.112Q9.558 17.223 12.402 17q.213-.02.357.112q.143.13.162.338q.02.213-.124.382q-.144.168-.357.168q-3.03.09-5.642-1.349q-2.611-1.44-4.154-4.032q-.154-.27-.22-.55t-.066-.57M12 15.153q-1.522 0-2.588-1.067t-1.066-2.592T9.413 8.91q1.067-1.063 2.592-1.063t2.586 1.066q1.063 1.066 1.063 2.588q0 .271-.042.54q-.04.268-.143.52l-.857.81q-.322.32-.6.675q-.28.355-.49.763q-.35.182-.732.264q-.381.082-.79.082m0-.954q1.125 0 1.913-.787T14.7 11.5q0-1.125-.787-1.912T12 8.8q-1.125 0-1.912.788T9.3 11.5q0 1.125.788 1.913T12 14.2m6.276 6.07q-1.259 0-2.123-.878q-.865-.877-.87-2.126q0-.616.254-1.174q.253-.557.719-.998l.907-.852q.464-.454 1.108-.454q.644 0 1.104.454l.902.852q.446.421.707.986q.26.564.266 1.178q-.02 1.257-.877 2.134q-.858.877-2.097.877m.002-1q.797 0 1.385-.59t.581-1.415q0-.412-.197-.797q-.197-.384-.478-.679l-.877-.826q-.173-.174-.423-.174t-.423.174l-.883.826q-.3.295-.5.682q-.2.388-.175.8q0 .824.585 1.412q.585.587 1.405.587m-.009-2.356"/></svg>