<svg xmlns="http://www.w3.org/2000/svg" width="1em" height="1em" viewBox="0 0 24 24"><path fill="currentColor" d="M18.27 20.27q-1.253 0-2.117-.878t-.87-2.129q0-.613.254-1.17q.253-.558.719-.999l.907-.852q.46-.454 1.106-.454q.646 0 1.106.454l.902.852q.446.421.707.986q.26.564.266 1.178q-.02 1.257-.877 2.134q-.858.877-2.104.877M12 8.8q1.125 0 1.913.788T14.7 11.5q0 1.125-.787 1.913T12 14.2q-1.125 0-1.912-.787T9.3 11.5q0-1.125.788-1.912T12 8.8m-3.654 2.7q0 1.529 1.063 2.591Q10.47 15.154 12 15.154q.413 0 .792-.079t.73-.262q-.322.575-.492 1.24q-.17.664-.145 1.309q.005.253-.16.436q-.163.183-.417.202q-1.402.038-2.737-.283q-1.334-.32-2.544-.944q-1.346-.704-2.456-1.747q-1.11-1.043-1.927-2.407q-.156-.267-.22-.547q-.066-.28-.066-.572q0-.292.075-.572q.075-.28.211-.547q1.46-2.48 3.953-3.93Q9.09 5 12 5q2.91 0 5.403 1.451q2.493 1.45 3.953 3.93q.15.261.215.544q.066.283.066.575q0 .337-.098.648q-.097.312-.29.598l-1.366-1.252q-.368-.329-.784-.49q-.416-.162-.876-.162t-.882.159q-.422.159-.77.5l-1.083 1.04q.083-.253.125-.511q.04-.259.04-.53q0-1.529-1.062-2.591Q13.53 7.846 12 7.846q-1.529 0-2.591 1.063Q8.346 9.97 8.346 11.5"/></svg>