<svg xmlns="http://www.w3.org/2000/svg" width="1em" height="1em" viewBox="0 0 24 24"><path fill="currentColor" d="M4.135 19.861q-.14-.137-.153-.338q-.013-.2.164-.377L19.152 4.14q.183-.182.383-.157q.2.024.339.161q.138.137.153.335q.015.198-.167.375L4.848 19.86q-.177.177-.375.158q-.197-.019-.338-.157M14.5 17.615q-.213 0-.356-.144T14 17.115q0-.213.144-.356t.356-.144h6q.213 0 .356.144t.144.357q0 .213-.144.356t-.356.143zM4.135 12.681q-.14-.138-.153-.338q-.013-.2.164-.378l7.82-7.819q.176-.177.372-.158q.196.02.335.158q.14.14.158.335q.019.196-.158.373l-7.825 7.825q-.177.177-.375.158q-.197-.019-.338-.156m13.669 1.404q-.177.177-.373.158q-.196-.02-.335-.158q-.139-.14-.158-.335q-.019-.196.158-.373l2.056-2.056q.177-.177.368-.152q.192.025.332.163t.16.332q.019.194-.158.37zM4.696 5.65q-.192.192-.444.095T4 5.377v-.57q0-.343.232-.575Q4.464 4 4.808 4h.569q.271 0 .368.252t-.095.444zM11.661 20q-.213 0-.353-.144q-.14-.144-.14-.357q0-.212.138-.353q.14-.14.354-.14q.215 0 .358.139q.144.139.144.354q0 .214-.144.358q-.144.143-.357.143"/></svg>