<svg xmlns="http://www.w3.org/2000/svg" width="1em" height="1em" viewBox="0 0 24 24"><path fill="currentColor" d="M18.503 7.308q.345 0 .575-.233q.23-.234.23-.578q0-.345-.233-.575q-.234-.23-.578-.23t-.575.234q-.23.233-.23.577q0 .345.234.575q.233.23.577.23m-4 0q.345 0 .575-.233q.23-.234.23-.578q0-.345-.233-.575q-.234-.23-.578-.23t-.575.234q-.23.233-.23.577q0 .345.234.575q.233.23.577.23M16.5 9.192q-.59 0-1.136.201q-.548.201-.886.678q-.144.212.005.424q.149.213.449.213h3.138q.281 0 .43-.213q.15-.212.005-.424q-.339-.477-.877-.678q-.539-.2-1.128-.2M7.505 21q-2.082 0-3.543-1.458Q2.5 18.083 2.5 16v-4.385q0-.666.475-1.14Q3.449 10 4.115 10h6.77q.666 0 1.14.475q.475.474.475 1.14V16q0 2.083-1.457 3.542Q9.586 21 7.505 21M7.5 20q1.65 0 2.825-1.175T11.5 16v-4.385q0-.269-.173-.442T10.885 11h-6.77q-.269 0-.442.173t-.173.442V16q0 1.65 1.175 2.825T7.5 20m14-15.385V9q0 2.146-1.52 3.583q-1.518 1.436-3.64 1.436q-.438 0-.863-.079q-.425-.078-.825-.261q-.208-.087-.267-.298q-.06-.212.046-.42q.106-.207.307-.26q.202-.053.39.034q.334.152.69.208q.355.057.707.057q1.65 0 2.813-1.175T20.5 9V4.615q0-.269-.173-.442T19.885 4h-6.77q-.269 0-.442.173t-.173.442V8q0 .213-.144.356q-.144.144-.357.144t-.356-.144Q11.5 8.213 11.5 8V4.615q0-.666.475-1.14Q12.449 3 13.115 3h6.77q.666 0 1.14.475q.475.474.475 1.14M5.503 14.308q.345 0 .575-.233q.23-.234.23-.578q0-.345-.233-.575q-.234-.23-.578-.23q-.345 0-.575.233q-.23.234-.23.578q0 .345.233.575q.234.23.578.23m4 0q.345 0 .575-.233q.23-.234.23-.578q0-.345-.233-.575q-.234-.23-.578-.23q-.345 0-.575.233q-.23.234-.23.578q0 .345.233.575q.234.23.578.23m-2.003 3.4q.585 0 1.123-.198t.889-.664q.144-.217.003-.435q-.14-.219-.434-.219H5.919q-.294 0-.434.219q-.14.218.003.435q.35.466.889.664q.538.198 1.123.198M16.442 8.5"/></svg>