<svg xmlns="http://www.w3.org/2000/svg" width="1em" height="1em" viewBox="0 0 24 24"><path fill="currentColor" d="M2.115 13.27q-.69 0-1.153-.463Q.5 12.344.5 11.654V5.769q0-.184.077-.354q.077-.169.22-.311L5.4.5l.404.404q.092.092.163.224q.071.132.071.241v.162l-.853 3.738h4.93q.598 0 .992.394q.393.393.393.99v.366q0 .15-.025.269t-.075.243l-2.212 5.107q-.136.29-.38.461q-.243.17-.558.17zM18.6 23.5l-.404-.404q-.092-.092-.163-.224q-.071-.132-.071-.241v-.162l.853-3.738h-4.93q-.598 0-.992-.394q-.393-.393-.393-.99v-.366q0-.15.025-.269t.075-.243l2.212-5.107q.142-.29.382-.461q.24-.17.556-.17h6.135q.69 0 1.152.462q.463.463.463 1.153v5.885q0 .184-.074.35q-.074.167-.222.315z"/></svg>