<svg xmlns="http://www.w3.org/2000/svg" width="1em" height="1em" viewBox="0 0 24 24"><path fill="currentColor" d="M17.198 8.688q.379.61.59 1.29q.212.682.212 1.447v9.363q0 .51-.351.861q-.35.351-.86.351h-5.116q-.348 0-.612-.19t-.39-.512q-.415-1.242-.55-2.473q-.134-1.23-.124-2.275q.01-1.044.1-1.813q.088-.77.1-1.07q0-.12-.03-.211t-.163-.116q-.29-.046-2.053-.448t-3.688-1.705q-.367-.237-.413-.673q-.046-.435.215-.783l3.818-5.11q.267-.348.683-.45t.801.085l5.704 2.598q.685.292 1.217.759q.531.466.91 1.075m-3.583 10.056q.206 0 .377-.1t.258-.25q.112.15.273.25q.162.1.362.1q.328 0 .549-.23q.22-.23.22-.539q0-.329-.22-.55q-.22-.22-.55-.22h-.192V12.77h.193q.328 0 .549-.23q.22-.23.22-.539q0-.329-.22-.549q-.22-.22-.55-.22q-.2 0-.36.087q-.162.088-.274.238q-.087-.15-.258-.238t-.377-.087q-.31 0-.539.22q-.23.22-.23.549q0 .31.23.54q.23.23.54.23h.192v4.436h-.193q-.31 0-.539.22q-.23.22-.23.549q0 .31.23.54q.23.23.54.23"/></svg>