<svg xmlns="http://www.w3.org/2000/svg" width="1em" height="1em" viewBox="0 0 24 24"><path fill="currentColor" d="m10.004 13.34l-.83-.139q-.664-.11-1.58-.416q-.85-.27-1.833-.733q-.984-.464-1.936-1.196q-.183-.135-.197-.322t.107-.37q.115-.177.319-.199q.204-.02.38.095q1.016.765 2.06 1.22q1.043.455 1.892.703q.849.248 1.394.332l.545.085q.546.044.751.433q.205.388.149.742l-.1.767q-.1.768-.125 1.93q-.025 1.16.136 2.56q.16 1.399.656 2.668q.068.177-.057.31t-.308.165q-.183.03-.378-.073q-.195-.104-.312-.427q-.468-1.256-.612-2.522q-.144-1.266-.13-2.334q.013-1.067.101-1.862q.089-.795.1-1.09q-.006-.115-.029-.211q-.023-.096-.163-.116m7.194-4.652q.379.61.59 1.29q.212.682.212 1.447V21.5q0 .213-.143.357q-.144.143-.357.143t-.357-.143Q17 21.713 17 21.5V11.425q0-1.2-.638-2.175T14.65 7.775L8.412 5.008q-.233-.104-.3-.352q-.068-.248.092-.456q.123-.165.31-.205q.186-.04.363.034l6.194 2.825q.685.292 1.217.759q.531.466.91 1.075m-3.583 10.056q.206 0 .377-.1t.258-.25q.112.15.273.25q.162.1.362.1q.328 0 .549-.23q.22-.23.22-.539q0-.329-.22-.55q-.22-.22-.55-.22h-.192V12.77h.193q.328 0 .549-.23q.22-.23.22-.539q0-.329-.22-.549q-.22-.22-.55-.22q-.2 0-.36.087q-.162.088-.274.238q-.087-.15-.258-.238t-.377-.087q-.31 0-.539.22q-.23.22-.23.549q0 .31.23.54q.23.23.54.23h.192v4.436h-.193q-.31 0-.539.22q-.23.22-.23.549q0 .31.23.54q.23.23.54.23M12 22q-.625-1.3-.825-2.775t-.187-2.725q.012-1.25.125-2.087l.112-.838q.056-.354-.149-.742q-.205-.389-.751-.433l-.6-.088q-.6-.087-1.52-.374t-2.029-.8q-1.11-.513-2.143-1.388q1.032.875 2.143 1.388q1.11.512 2.03.8t1.519.374l.6.088q.546.044.751.433q.205.388.149.742l-.112.838q-.113.837-.125 2.087t.187 2.725Q11.375 20.7 12 22"/></svg>