<svg xmlns="http://www.w3.org/2000/svg" width="1em" height="1em" viewBox="0 0 24 24"><path fill="currentColor" d="M9.558 16.635q.213 0 .356-.144q.144-.144.144-.356v-6.27q0-.212-.144-.356t-.356-.144H8.346q-.212 0-.356.144t-.144.357q0 .213.144.356t.356.143h.712v5.77q0 .212.144.356t.356.144m3.692 0h1.423q.587 0 1.005-.418q.418-.418.418-1.005v-4.404q0-.595-.418-1.019q-.418-.424-1.005-.424H13.25q-.587 0-1.005.424q-.418.424-.418 1.019v4.404q0 .587.418 1.005q.418.418 1.005.418m0-1q-.173 0-.298-.125t-.125-.298v-4.404q0-.173.125-.298t.298-.125h1.423q.173 0 .298.125t.125.298v4.404q0 .173-.125.298t-.298.125zM9.885 2.5q-.213 0-.357-.144q-.143-.144-.143-.357t.143-.356q.144-.143.357-.143h4.23q.213 0 .357.144q.143.144.143.357t-.143.356q-.144.143-.357.143zM12 21q-1.649 0-3.108-.626q-1.46-.626-2.55-1.716q-1.09-1.09-1.716-2.55Q4 14.648 4 13t.626-3.108q.626-1.46 1.716-2.55q1.09-1.09 2.55-1.716Q10.352 5 12 5q1.454 0 2.812.52q1.357.518 2.492 1.468l.738-.738q.14-.14.345-.15q.203-.01.363.15q.16.16.16.354q0 .194-.16.354l-.738.738q.95 1.135 1.469 2.492Q20 11.546 20 13q0 1.649-.626 3.108q-.626 1.46-1.716 2.55q-1.09 1.09-2.55 1.716Q13.648 21 12 21"/></svg>