<svg xmlns="http://www.w3.org/2000/svg" width="1em" height="1em" viewBox="0 0 24 24"><path fill="currentColor" d="m11.006 15.648l3.484-2.32q.187-.13.187-.328t-.187-.329l-3.484-2.32q-.212-.136-.417-.027t-.204.351v4.65q0 .242.204.351t.417-.028M9.885 2.5q-.214 0-.357-.143q-.143-.144-.143-.357t.143-.357q.143-.143.357-.143h4.23q.214 0 .357.143q.143.144.143.357t-.143.357q-.143.143-.357.143zM12 21q-1.658 0-3.113-.626q-1.454-.626-2.545-1.716q-1.09-1.09-1.716-2.545Q4 14.658 4 13t.626-3.113q.626-1.454 1.716-2.545q1.09-1.09 2.546-1.716Q10.342 5 12 5q1.454 0 2.812.52q1.357.518 2.492 1.468l.738-.738q.14-.14.345-.15q.203-.01.363.15q.16.16.16.354q0 .194-.16.354l-.738.738q.95 1.135 1.469 2.492Q20 11.546 20 13q0 1.658-.626 3.113q-.626 1.454-1.716 2.545q-1.09 1.09-2.545 1.716Q13.658 21 12 21"/></svg>