<svg xmlns="http://www.w3.org/2000/svg" width="1em" height="1em" viewBox="0 0 24 24"><path fill="currentColor" d="M13.308 16.635q.437 0 .718-.308t.282-.712v-2q0-.21-.146-.393q-.147-.184-.431-.222q.284-.058.43-.241q.147-.184.147-.374v-2.02q0-.403-.294-.702q-.293-.298-.706-.298h-3.116q-.212 0-.356.144t-.144.357q0 .213.144.356t.356.143h3.116V12.5h-2.116q-.212 0-.356.144t-.144.357t.144.356q.144.143.356.143h2.116v2.135h-3.116q-.212 0-.356.144q-.144.143-.144.356t.144.356q.144.144.356.144zM9.885 2.5q-.213 0-.357-.144q-.143-.144-.143-.357t.143-.356q.144-.143.357-.143h4.23q.213 0 .357.144q.143.144.143.357t-.143.356q-.144.143-.357.143zM12 21q-1.649 0-3.108-.626q-1.46-.626-2.55-1.716q-1.09-1.09-1.716-2.55Q4 14.648 4 13t.626-3.108q.626-1.46 1.716-2.55q1.09-1.09 2.55-1.716Q10.352 5 12 5q1.454 0 2.812.52q1.357.518 2.492 1.468l.738-.738q.14-.14.345-.15q.203-.01.363.15q.16.16.16.354q0 .194-.16.354l-.738.738q.95 1.135 1.469 2.492Q20 11.546 20 13q0 1.649-.626 3.108q-.626 1.46-1.716 2.55q-1.09 1.09-2.55 1.716Q13.648 21 12 21m0-1q2.9 0 4.95-2.05T19 13q0-2.9-2.05-4.95T12 6Q9.1 6 7.05 8.05T5 13q0 2.9 2.05 4.95T12 20m0-7"/></svg>