<svg xmlns="http://www.w3.org/2000/svg" width="1em" height="1em" viewBox="0 0 24 24"><path fill="currentColor" d="M10.308 16.5q.213 0 .356-.144q.144-.144.144-.356v-6q0-.213-.144-.356t-.357-.144q-.213 0-.356.144T9.808 10v6q0 .213.144.356t.356.144m3.385 0q.213 0 .356-.144t.143-.356v-6q0-.213-.144-.356t-.356-.144q-.213 0-.356.144q-.144.144-.144.356v6q0 .213.144.356t.357.144m-3.808-14q-.213 0-.357-.144q-.143-.144-.143-.357t.143-.356q.144-.143.357-.143h4.23q.213 0 .357.144q.143.144.143.357t-.143.356q-.144.143-.357.143zM12 21q-1.649 0-3.108-.626q-1.46-.626-2.55-1.716q-1.09-1.09-1.716-2.55Q4 14.648 4 13t.626-3.108q.626-1.46 1.716-2.55q1.09-1.09 2.55-1.716Q10.352 5 12 5q1.454 0 2.812.52q1.357.518 2.492 1.468l.738-.738q.14-.14.345-.15q.203-.01.363.15q.16.16.16.354q0 .194-.16.354l-.738.738q.95 1.135 1.469 2.492Q20 11.546 20 13q0 1.649-.626 3.108q-.626 1.46-1.716 2.55q-1.09 1.09-2.55 1.716Q13.648 21 12 21m0-1q2.9 0 4.95-2.05T19 13q0-2.9-2.05-4.95T12 6Q9.1 6 7.05 8.05T5 13q0 2.9 2.05 4.95T12 20m0-7"/></svg>