<svg xmlns="http://www.w3.org/2000/svg" width="1em" height="1em" viewBox="0 0 24 24"><path fill="currentColor" d="M9.692 16.635h3.616q.432 0 .716-.308t.284-.712v-2q0-.21-.146-.393q-.147-.184-.431-.222q.284-.058.43-.241q.147-.184.147-.374v-2.02q0-.403-.294-.702q-.293-.298-.706-.298H9.692v1h3.616V12.5h-2.616v1h2.616v2.135H9.692zM9.385 2.5v-1h5.23v1zM12 21q-1.658 0-3.113-.626q-1.454-.626-2.545-1.716q-1.09-1.09-1.716-2.545Q4 14.658 4 13t.626-3.113q.626-1.454 1.716-2.545q1.09-1.09 2.546-1.716Q10.342 5 12 5q1.454 0 2.812.52q1.357.518 2.492 1.468l1.092-1.092l.708.708l-1.092 1.092q.95 1.135 1.469 2.492Q20 11.546 20 13q0 1.658-.626 3.113q-.626 1.454-1.716 2.545q-1.09 1.09-2.545 1.716Q13.658 21 12 21"/></svg>