<svg xmlns="http://www.w3.org/2000/svg" width="1em" height="1em" viewBox="0 0 24 24"><path fill="currentColor" d="M9.058 16.635h1v-7.27H7.904v1h1.154zm4.192 0h1.423q.594 0 1.009-.415q.414-.414.414-1.008v-4.404q0-.595-.414-1.019q-.415-.424-1.009-.424H13.25q-.594 0-1.009.424q-.414.424-.414 1.019v4.404q0 .594.414 1.008q.415.415 1.009.415m0-1q-.173 0-.298-.125t-.125-.298v-4.404q0-.173.125-.298t.298-.125h1.423q.173 0 .298.125t.125.298v4.404q0 .173-.125.298t-.298.125zM9.385 2.5v-1h5.23v1zM12 21q-1.658 0-3.113-.626q-1.454-.626-2.545-1.716q-1.09-1.09-1.716-2.545Q4 14.658 4 13t.626-3.113q.626-1.454 1.716-2.545q1.09-1.09 2.546-1.716Q10.342 5 12 5q1.454 0 2.812.52q1.357.518 2.492 1.468l1.092-1.092l.708.708l-1.092 1.092q.95 1.135 1.469 2.492Q20 11.546 20 13q0 1.658-.626 3.113q-.626 1.454-1.716 2.545q-1.09 1.09-2.545 1.716Q13.658 21 12 21m0-1q2.9 0 4.95-2.05T19 13q0-2.9-2.05-4.95T12 6Q9.1 6 7.05 8.05T5 13q0 2.9 2.05 4.95T12 20m0-7"/></svg>