<svg xmlns="http://www.w3.org/2000/svg" width="1em" height="1em" viewBox="0 0 24 24"><path fill="currentColor" d="M12 4.65Q9.946 6.51 8.598 8.19q-1.348 1.681-2.01 3.158q-.084.177-.276.263q-.193.085-.375.012q-.183-.073-.272-.265q-.088-.193-.01-.37q.897-2.046 2.568-3.89t3.242-3.292q.131-.125.265-.169q.133-.043.27-.043t.283.043q.146.044.252.169q1.546 1.423 3.227 3.292q1.68 1.87 2.582 3.896q.08.177-.01.367q-.088.189-.27.262q-.183.073-.373-.012t-.274-.263q-.661-1.477-2-3.158Q14.08 6.51 12 4.65m6.965 9.55q-.052.494-.2.957q-.15.462-.39.876l-4.423 4.404q-.414.24-.866.376q-.453.137-.942.164zm-4.382-.4h1.446l-6.677 6.658q-.267-.087-.516-.192q-.25-.104-.48-.264zm-4.764 0h1.446l-4.648 4.648q-.182-.196-.328-.398t-.285-.435zm-3.304 0l-1.384 1.385l-.056-.25q-.026-.118-.038-.248q-.05-.36.204-.624q.255-.263.64-.263zm5.485-2"/></svg>