<svg xmlns="http://www.w3.org/2000/svg" width="1em" height="1em" viewBox="0 0 24 24"><path fill="currentColor" d="M6.575 11.8q-.46 0-.705-.376q-.245-.376-.058-.78q.934-1.942 2.547-3.717q1.612-1.775 3.106-3.121q.131-.125.265-.168q.133-.044.27-.044t.283.044q.146.043.252.168q1.494 1.346 3.106 3.12t2.547 3.718q.206.404-.049.78q-.254.376-.714.376zm12.39 2.4q-.052.494-.2.957q-.15.462-.39.876l-4.423 4.404q-.414.24-.866.376q-.453.137-.942.164zm-4.382-.4h1.446l-6.677 6.658q-.267-.087-.516-.192q-.25-.104-.48-.264zm-4.764 0h1.446l-4.648 4.648q-.182-.196-.328-.398t-.285-.435zm-3.304 0l-1.384 1.385q-.03-.137-.05-.267q-.021-.13-.021-.266q-.039-.354.222-.603q.26-.249.64-.249z"/></svg>