<svg xmlns="http://www.w3.org/2000/svg" width="1em" height="1em" viewBox="0 0 24 24"><path fill="currentColor" d="M14.668 21q-.5 0-.945-.187q-.444-.186-.812-.55l-3.803-3.794q-.218-.217-.22-.543q-.003-.326.214-.568l.035-.035q.234-.235.542-.292q.308-.058.634.029l2.033.461V8.52q0-.212.144-.356t.357-.144q.213 0 .356.144t.143.356v5.808h1.77v-3.77q0-.212.143-.356t.357-.143q.213 0 .356.143t.143.357v3.769h1.77v-2.385q0-.212.144-.356q.143-.144.356-.144t.356.144q.144.144.144.356v2.385h1.769q0-.213.144-.356q.144-.144.357-.144t.356.144q.143.143.143.356V17.5q0 1.458-1.021 2.479T18.153 21zM4.615 18q-.69 0-1.152-.462Q3 17.075 3 16.385V5.615q0-.69.463-1.152Q3.925 4 4.615 4h13.77q.69 0 1.152.463q.463.462.463 1.152v2.943q0 .212-.144.356t-.357.144q-.212 0-.356-.144Q19 8.77 19 8.558V5.615q0-.23-.192-.423Q18.615 5 18.385 5H4.615q-.23 0-.423.192Q4 5.385 4 5.615v10.77q0 .23.192.423q.193.192.423.192h1.8q.213 0 .357.144t.143.357q0 .212-.143.356q-.144.143-.357.143z"/></svg>