<svg xmlns="http://www.w3.org/2000/svg" width="1em" height="1em" viewBox="0 0 24 24"><path fill="currentColor" d="M12.35 19.865q-.654 0-1.267-.249q-.614-.249-1.112-.716l-6.986-6.53q-.14-.135-.15-.315q-.008-.18.096-.345q.14-.195.353-.225q.212-.031.39.14l6.98 6.594q.358.333.807.509q.449.176.914.176q.377 0 .72-.097q.342-.097.624-.28l7.044-4.45q.231-.152.475-.015q.243.136.243.423q0 .12-.058.23q-.058.11-.167.177l-7.025 4.425q-.418.262-.888.405t-.993.143m.688-2.807q.31 0 .54-.23q.23-.23.23-.54q0-.107-.254-.52l3.473-2.168q.067.238.27.387q.203.148.453.148q.31 0 .54-.23q.23-.23.23-.54q0-.292-.216-.519q-.216-.227-.508-.244h-.038q.044-.07.056-.144q.013-.075.013-.17q0-.31-.23-.539q-.23-.23-.54-.23q-.309 0-.539.23q-.23.23-.23.54q0 .1.252.55l-3.473 2.142q-.067-.225-.266-.372q-.2-.147-.455-.147q-.31 0-.54.23q-.23.23-.23.539q0 .292.216.519q.216.227.546.244q-.044.07-.056.144q-.013.075-.013.15q0 .31.23.54q.23.23.54.23m.144-5.562q1.034-1.258 2.103-1.897q1.068-.64 3.249-1.222q.627-.17 1.147-.329q.52-.16 1.003-.348q.188-.067.364.009t.25.258q.078.183.002.371q-.076.189-.264.256q-.495.194-1.042.354q-.547.16-1.185.335q-2.216.588-3.32 1.311q-1.105.723-2.063 2.244q-.067.085-.167.152q-.1.068-.26.068q-.158 0-.288-.11q-.131-.11-.168-.28q-.419-1.758-1.786-3.492Q9.39 7.442 7.55 6.31q-.177-.104-.226-.29q-.049-.185.074-.362q.129-.177.34-.225q.21-.048.387.061q1.779 1.071 3.145 2.694q1.367 1.624 1.913 3.308m-9.93-.26q1.647 1.56 3.682 3.473q2.034 1.912 3.719 3.51q.358.333.807.509q.449.176.914.176q.377 0 .72-.097q.342-.097.624-.28l3.846-2.424q2.175-1.372 3.916-2.476l-7.762 4.9q-.282.183-.625.28q-.342.097-.719.097q-.465 0-.914-.176q-.45-.176-.807-.509z"/></svg>