<svg xmlns="http://www.w3.org/2000/svg" width="1em" height="1em" viewBox="0 0 24 24"><path fill="currentColor" d="M12.35 19.865q-.654 0-1.267-.249q-.614-.249-1.112-.716l-6.775-6.338q-.217-.212-.255-.526q-.037-.315.163-.557l3.99-5.423q.256-.354.675-.424t.793.147q1.626 1.09 2.873 2.615q1.246 1.525 1.748 3.102q1.034-1.258 2.103-1.9q1.068-.642 3.249-1.22q.54-.141 1.006-.285q.467-.143.89-.285q.379-.143.714.075q.336.217.336.62v5.357q0 .423-.202.79q-.202.365-.55.583l-6.498 4.086q-.418.262-.888.405t-.993.143m.688-2.807q.31 0 .54-.23q.23-.23.23-.54q0-.107-.254-.52l3.473-2.168q.067.238.27.387q.203.148.453.148q.31 0 .54-.23q.23-.23.23-.54q0-.292-.216-.519q-.216-.227-.508-.244h-.038q.044-.07.056-.144q.013-.075.013-.17q0-.31-.23-.539q-.23-.23-.54-.23q-.309 0-.539.23q-.23.23-.23.54q0 .1.252.55l-3.473 2.142q-.067-.225-.266-.372q-.2-.147-.455-.147q-.31 0-.54.23q-.23.23-.23.539q0 .292.216.519q.216.227.546.244q-.044.07-.056.144q-.013.075-.013.15q0 .31.23.54q.23.23.54.23"/></svg>