<svg xmlns="http://www.w3.org/2000/svg" width="1em" height="1em" viewBox="0 0 24 24"><path fill="currentColor" d="M12 21.115q-.633 0-1.066-.433q-.434-.434-.434-1.067q0-.467.275-.85q.275-.382.725-.542V15.5h-3q-.69 0-1.153-.462t-.462-1.153v-2.108q-.431-.148-.716-.512q-.284-.363-.284-.88q0-.547.338-.931q.339-.385.856-.448l-4.12-4.12q-.14-.14-.14-.331t.166-.357q.165-.165.356-.165t.357.165l16.398 16.398q.14.14.143.332q.003.191-.162.357q-.165.165-.357.165t-.357-.165l-5.79-5.785H12.5v2.723q.456.154.728.537q.272.382.272.855q0 .633-.434 1.067q-.433.433-1.066.433m6.115-11.807v2.154q0 .18-.12.301q-.122.122-.303.122h-.577v1.711q0 .25-.158.375q-.159.125-.342.125q-.182 0-.34-.137q-.16-.138-.16-.388v-1.686h-.596q-.161 0-.282-.122q-.122-.12-.122-.282V9.308q0-.181.122-.302q.12-.121.301-.121h2.154q.181 0 .302.12q.121.122.121.303M8.5 14.5h3v-1.073L8.763 10.69q-.023.414-.273.694t-.605.393v2.108q0 .23.192.423q.192.192.423.192m3-8.23h-.712q-.242 0-.353-.218q-.112-.217.05-.429l1.173-1.56q.075-.1.342-.161q.106 0 .196.037q.09.038.146.124l1.154 1.522q.162.211.05.448q-.111.236-.392.236H12.5v2.712q0 .25-.159.375T12 9.48q-.183 0-.341-.128q-.159-.128-.159-.378z"/></svg>