<svg xmlns="http://www.w3.org/2000/svg" width="1em" height="1em" viewBox="0 0 24 24"><path fill="currentColor" d="M4.002 21.5q-1.04 0-1.771-.728q-.731-.729-.731-1.77q0-1.04.729-1.771q.728-.731 1.769-.731q1.04 0 1.771.729q.731.728.731 1.769q0 1.04-.728 1.771q-.729.731-1.77.731M4 20.5q.617 0 1.059-.441Q5.5 19.617 5.5 19t-.441-1.059Q4.617 17.5 4 17.5t-1.059.441Q2.5 18.383 2.5 19t.441 1.059Q3.383 20.5 4 20.5m7.73-7.5v6.885q0 .666-.474 1.14q-.474.475-1.14.475H8.537q-.212 0-.356-.144T8.038 21t.144-.356q.144-.143.356-.143h1.577q.27 0 .443-.173t.173-.442V13q0-1.031-.735-1.766T8.231 10.5H4.115q-.269 0-.442.173t-.173.442v2.827q0 .213-.144.357q-.144.143-.357.143t-.356-.143q-.143-.144-.143-.357v-2.827q0-.666.475-1.14q.474-.475 1.14-.475H5.5V5.6q0-1.716 1.192-2.908T9.599 1.5q1.247 0 2.272.676q1.025.676 1.498 1.816L20.35 20.5H22q.213 0 .356.144q.144.144.144.357t-.144.356q-.143.143-.356.143h-5q-.213 0-.356-.144q-.144-.144-.144-.357t.144-.356q.144-.143.356-.143h2.27L12.466 4.408q-.377-.88-1.145-1.394q-.768-.514-1.714-.514q-1.3 0-2.204.904T6.5 5.6v3.9h1.73q1.458 0 2.48 1.021T11.73 13m-4.615 2.5"/></svg>