<svg xmlns="http://www.w3.org/2000/svg" width="1em" height="1em" viewBox="0 0 24 24"><path fill="currentColor" d="M4.002 21.5q-1.04 0-1.771-.728q-.731-.729-.731-1.77q0-1.04.729-1.771q.728-.731 1.769-.731q1.04 0 1.771.729q.731.728.731 1.769q0 1.04-.728 1.771q-.729.731-1.77.731M4 20.5q.617 0 1.059-.441Q5.5 19.617 5.5 19t-.441-1.059Q4.617 17.5 4 17.5t-1.059.441Q2.5 18.383 2.5 19t.441 1.059Q3.383 20.5 4 20.5m4.837 1q-.374 0-.56-.313q-.187-.314-.044-.662q.144-.365.205-.752q.062-.386.062-.773q0-1.868-1.316-3.184Q5.867 14.5 4 14.5q-.14 0-.288.006q-.148.006-.287.03q-.373.056-.649-.161T2.5 13.79v-2.675q0-.666.475-1.14q.474-.475 1.14-.475H5.5V5.6q0-1.716 1.192-2.908T9.599 1.5q1.247 0 2.272.676q1.025.676 1.498 1.816L20.35 20.5H22q.213 0 .356.144q.144.144.144.357t-.144.356q-.143.143-.356.143h-5q-.213 0-.356-.144q-.144-.144-.144-.357t.144-.356q.144-.143.356-.143h2.27L12.466 4.408q-.377-.86-1.153-1.384Q10.538 2.5 9.6 2.5q-1.282 0-2.19.91q-.91.908-.91 2.19v3.9h1.73q1.458 0 2.48 1.021T11.73 13v6.885q0 .666-.474 1.14q-.474.475-1.14.475z"/></svg>