<svg xmlns="http://www.w3.org/2000/svg" width="1em" height="1em" viewBox="0 0 24 24"><path fill="currentColor" d="M19.042 20.612L2.773 4.342q-.14-.14-.15-.344q-.01-.204.15-.363q.16-.16.354-.16q.194 0 .354.16L19.75 19.904q.14.14.15.344q.01.204-.15.364t-.354.16q-.194 0-.354-.16M4.885 5.038L17.5 17.654q-.096.575-.53.96q-.433.386-1.047.386H5.153q-.69 0-1.152-.462t-.463-1.153V6.615q0-.613.386-1.047q.386-.433.96-.53m2.29 10.27h6.614v-.166q0-.792-.936-1.313q-.937-.521-2.371-.521q-1.435 0-2.371.52q-.937.522-.937 1.314zm12.707-.235l-2.383-2.383v.347q-.058.465-.52.626q-.463.162-.813-.188L9.063 6.373q-.192-.192-.22-.42q-.028-.226.059-.443q.086-.218.273-.364Q9.362 5 9.635 5h6.288q.69 0 1.153.463t.462 1.152v4.654l2.343-2.342q.192-.192.444-.096t.252.369v5.6q0 .273-.252.37q-.252.095-.444-.097"/></svg>