<svg xmlns="http://www.w3.org/2000/svg" width="1em" height="1em" viewBox="0 0 24 24"><path fill="currentColor" d="M19.042 20.612L2.773 4.342q-.14-.14-.15-.344q-.01-.204.15-.363q.16-.16.354-.16q.194 0 .354.16L19.75 19.904q.14.14.15.344q.01.204-.15.364t-.354.16q-.194 0-.354-.16M4.885 5.038L5.846 6h-.692q-.27 0-.442.173q-.174.173-.174.442v10.77q0 .269.174.442t.442.173h10.77q.268 0 .441-.173t.173-.442v-.693l.962.962q-.096.575-.531.96q-.435.386-1.046.386H5.153q-.69 0-1.152-.462t-.463-1.153V6.615q0-.61.386-1.045t.96-.532m2.29 10.27v-.166q0-.792.936-1.313q.936-.521 2.37-.521q1.435 0 2.372.52t.936 1.314v.166zm10.364-2.577V14q0 .213-.143.356t-.357.144q-.213 0-.356-.144q-.144-.144-.144-.356V6.615q0-.269-.173-.442T15.923 6h-7.27q-.25 0-.374-.155q-.125-.155-.125-.341q0-.187.125-.345T8.654 5h7.27q.69 0 1.152.463t.462 1.152v4.654l2.349-2.348q.186-.186.438-.09q.252.098.252.369v5.6q0 .271-.252.368q-.252.097-.438-.089zm-4.876-2.76"/></svg>