<svg xmlns="http://www.w3.org/2000/svg" width="1em" height="1em" viewBox="0 0 24 24"><path fill="currentColor" d="M8.326 16q-.213 0-.356-.144t-.143-.356V9.327q0-.135-.096-.23Q7.635 9 7.5 9h-1q-.213 0-.356-.144T6 8.5q0-.212.144-.356T6.5 8h1.115q.505 0 .859.353q.353.354.353.859V15.5q0 .213-.144.356T8.326 16m8.173 0q-.212 0-.356-.144Q16 15.713 16 15.5V9.327q0-.135-.096-.23T15.674 9h-.982q-.212 0-.356-.144t-.144-.357q0-.212.144-.356Q14.48 8 14.692 8h1.096q.505 0 .859.353q.353.354.353.859V15.5q0 .213-.144.356q-.144.144-.357.144m-4.538-3.5q-.213 0-.356-.144T11.462 12t.143-.356q.144-.143.357-.143t.356.144q.144.144.144.357t-.144.356q-.144.143-.357.143m0 3.5q-.213 0-.356-.144t-.143-.357q0-.212.143-.356q.144-.143.357-.143t.356.144q.144.144.144.357q0 .212-.144.356q-.144.143-.357.143"/></svg>