<svg xmlns="http://www.w3.org/2000/svg" width="1em" height="1em" viewBox="0 0 24 24"><path fill="currentColor" d="m19.37 20.785l-3.54-3.527q-.893.41-1.86.576Q13.001 18 12 18q-2.965 0-5.442-1.56q-2.477-1.56-3.975-4.105q-.125-.206-.178-.415q-.053-.208-.053-.42t.062-.43q.063-.218.188-.405q.646-1.013 1.367-1.948q.721-.934 1.681-1.64L3.21 4.63q-.14-.14-.15-.342q-.01-.2.155-.366q.16-.16.354-.16t.354.16l16.154 16.154q.14.14.153.341q.012.201-.153.367q-.16.16-.354.16t-.354-.16M12 15.154q.39 0 .746-.054t.683-.244L8.644 10.07q-.17.327-.234.683q-.064.356-.064.746q0 1.529 1.063 2.591Q10.47 15.154 12 15.154M12 5q2.985 0 5.484 1.563q2.499 1.562 3.978 4.147q.105.18.168.38q.062.198.062.41q0 .212-.06.41q-.059.2-.165.38q-.436.81-.976 1.52t-1.206 1.338q-.273.273-.652.248q-.38-.025-.652-.298l-2.193-2.173q-.136-.137-.186-.307t-.014-.362q.043-.19.054-.375q.012-.185.012-.381q0-1.529-1.063-2.591Q13.53 7.846 12 7.846q-.196 0-.371.021t-.346.064q-.193.056-.385.006t-.329-.187L9.533 6.713q-.38-.378-.255-.888q.124-.51.653-.646q.51-.106 1.022-.142Q11.465 5 12 5m1.898 4.573q.333.344.54.79q.206.445.256.927q.025.162-.12.227q-.147.066-.278-.065l-2.242-2.223q-.13-.13-.063-.277t.23-.146q.494.03.914.224q.419.193.763.543"/></svg>