<svg xmlns="http://www.w3.org/2000/svg" width="1em" height="1em" viewBox="0 0 24 24"><path fill="currentColor" d="M14.579 8.921q.494.494.822 1.314q.328.819.266 1.602q0 .201-.14.339q-.14.137-.342.137t-.34-.137q-.137-.138-.137-.34q.067-.669-.143-1.25q-.21-.58-.634-1.005t-1.025-.64q-.6-.216-1.256-.13q-.202.02-.359-.111t-.176-.333q-.019-.202.109-.358q.128-.157.33-.176q.796-.1 1.634.218q.839.318 1.39.87M12 6q-.59 0-1.165.066q-.575.067-1.14.205q-.214.056-.388-.058q-.174-.113-.242-.301q-.067-.208.04-.381q.107-.173.314-.23q.633-.163 1.278-.232T12 5q3.021 0 5.58 1.55q2.558 1.55 3.962 4.215q.1.181.14.355q.041.174.041.38t-.037.38q-.038.174-.138.355q-.47.923-1.122 1.711q-.653.789-1.434 1.456q-.165.14-.363.12q-.198-.022-.333-.199q-.134-.177-.107-.368q.028-.192.194-.332q.754-.652 1.369-1.433q.615-.78 1.048-1.69q-1.25-2.525-3.613-4.012T12 6m0 12q-2.965 0-5.452-1.562t-3.99-4.128q-.125-.181-.178-.39t-.053-.42q0-.212.05-.417q.05-.206.175-.393q.615-1.038 1.364-1.97q.75-.932 1.734-1.643L3.21 4.63q-.14-.146-.148-.347q-.006-.201.153-.36t.354-.16q.194 0 .354.16l16.154 16.153q.14.14.153.341q.012.201-.153.367q-.16.16-.354.16t-.354-.16l-3.538-3.527q-.894.41-1.862.576Q13.002 18 12 18M6.358 7.785q-1.033.707-1.835 1.646q-.802.938-1.323 2.069q1.25 2.525 3.613 4.013T12 17q.788 0 1.562-.11t1.503-.398l-1.63-1.642q-.333.19-.689.247q-.356.057-.746.057q-1.529 0-2.591-1.063Q8.346 13.03 8.346 11.5q0-.39.066-.746t.238-.689zm4.354 4.353"/></svg>