<svg xmlns="http://www.w3.org/2000/svg" width="1em" height="1em" viewBox="0 0 24 24"><path fill="currentColor" d="M13.692 19q-.31 0-.54-.23q-.229-.23-.229-.54v-3.845q0-.31.23-.54q.23-.23.54-.23h2.345q.31 0 .54.23q.23.23.23.54v3.846q0 .31-.23.54q-.23.229-.54.229zm.116-.885h2.115V14.5h-2.115zm4.827-1.615q-.19 0-.317-.126q-.126-.126-.126-.316t.126-.317q.126-.126.317-.126h2.711q.329 0 .55.22t.22.55v1.596q0 .329-.22.549q-.221.22-.55.22h-2.27v1.365h2.597q.19 0 .316.126t.126.317q0 .19-.126.316t-.316.126h-2.711q-.31 0-.54-.23q-.23-.23-.23-.54v-1.595q0-.33.22-.55t.55-.22h2.269V16.5zM4.885 19q-1.206 0-2.046-.858Q2 17.285 2 16.073v-4.161q0-1.002.433-1.883q.432-.88 1.223-1.49l4.113-3.227q.427-.333.656-.813q.229-.48.229-1.026V2.5q0-.213.143-.357Q8.94 2 9.154 2q.213 0 .357.143q.143.144.143.357v.973q0 .546.238 1.026q.239.48.671.813l4.095 3.226q.65.514 1.099 1.213q.449.699.449 1.522q0 .379-.217.668q-.216.29-.639.29h-2.196q-.671 0-1.143.472q-.473.472-.473 1.143v3.467q0 .262-.23.332t-.366-.124q-.196-.288-.303-.652q-.106-.363-.1-.796V6.608L9.153 5.48L7.75 6.608v9.465q.006 1.212-.827 2.07Q6.09 19 4.885 19"/></svg>