<svg xmlns="http://www.w3.org/2000/svg" width="1em" height="1em" viewBox="0 0 24 24"><path fill="currentColor" d="M4.529 5.675L2.594 3.74q-.14-.14-.15-.344q-.01-.204.15-.363q.16-.16.354-.16t.354.16L20.98 20.712q.146.146.147.352q0 .207-.17.378q-.154.154-.331.154t-.33-.154L19.853 21H12q-.69 0-1.153-.462q-.462-.463-.462-1.153V11.53L8.702 9.854q-.344.448-.523.996Q8 11.398 8 12v3.487q0 .453-.373.708t-.777.074q-1.754-.879-2.802-2.56T3 10q0-1.221.396-2.313q.396-1.093 1.133-2.012M15.512 8H12q-.217 0-.4.015q-.183.016-.4.072L7.62 4.525q-.293-.292-.212-.671q.08-.379.448-.521q.52-.18 1.054-.256Q9.442 3 10 3q1.985 0 3.69 1.029q1.706 1.029 2.585 2.827q.206.384-.049.764t-.714.38M21 12v3.942q0 .54-.497.746q-.497.204-.876-.175l-4.756-4.755q-.379-.38-.174-.876q.205-.497.745-.497h3.943q.69 0 1.152.462Q21 11.31 21 12m-7.712 6.808h4.374l-1.297-1.302l-.865 1.057l-1.137-1.438q-.038-.058-.115-.058t-.115.058l-1.006 1.36q-.08.105-.025.214q.056.109.186.109"/></svg>