<svg xmlns="http://www.w3.org/2000/svg" width="1em" height="1em" viewBox="0 0 24 24"><path fill="currentColor" d="M19.385 10.385q.69 0 1.152.462Q21 11.31 21 12v4.679q0 .329-.305.463q-.305.135-.544-.104q-.075-.076-.113-.17q-.038-.094-.038-.195V12q0-.23-.192-.423q-.193-.192-.423-.192h-4.673q-.25 0-.375-.156q-.125-.155-.125-.34q0-.187.125-.346q.125-.158.375-.158zM12 21q-.69 0-1.153-.462q-.462-.463-.462-1.153V11.53L5.254 6.4q-.583.754-.918 1.663Q4 8.973 4 10q0 1.785.96 3.259t2.557 2.197q.183.084.281.28t.03.383q-.074.205-.268.295q-.195.09-.377.005q-1.904-.827-3.044-2.569Q3 12.108 3 10q0-1.221.396-2.313q.396-1.093 1.133-2.012L2.594 3.74q-.14-.14-.15-.344q-.01-.204.15-.363q.16-.16.354-.16t.354.16l17.84 17.84q.146.146.15.35q.004.204-.165.374q-.156.155-.336.158q-.18.003-.34-.157L19.855 21zm1.288-2.192q-.12 0-.181-.109q-.06-.109.017-.208l1.012-1.367q.058-.08.161-.08q.103 0 .165.081l1.038 1.433l1.483-1.845l2.094 2.095zM12 20h6.854l-7.47-7.47v6.855q0 .23.193.423q.192.192.423.192m4.42-12.817q.084.182-.006.377q-.09.194-.295.269q-.188.067-.383-.03t-.28-.282q-.723-1.598-2.197-2.557Q11.785 4 10 4q-.483 0-.96.079t-.953.242q-.195.067-.39-.015q-.195-.083-.274-.266q-.079-.182.001-.377q.08-.196.268-.263q.554-.2 1.131-.3T10 3q2.108 0 3.85 1.14t2.57 3.043m-5.214.904"/></svg>