<svg xmlns="http://www.w3.org/2000/svg" width="1em" height="1em" viewBox="0 0 24 24"><path fill="currentColor" d="M12 17.615q-.252 0-.434-.181T11.385 17q0-.252.181-.434t.434-.181q.252 0 .434.181t.181.434q0 .252-.181.434t-.434.181m-.5-2.73v-3.39l1 1v2.39q0 .213-.143.356q-.144.144-.357.144t-.357-.144q-.143-.143-.143-.356M12 4.808q.217 0 .397.093q.18.093.305.31l4.546 7.84q.115.214.042.391q-.073.177-.244.262q-.171.084-.36.048q-.188-.037-.328-.256L12 6l-.852 1.458q-.135.213-.32.237q-.186.024-.357-.06q-.171-.085-.244-.274t.061-.403l1.01-1.746q.13-.218.308-.311T12 4.808M4.45 19h13.129l-8.31-8.31zm15.479 2.344L18.579 20H4.129q-.46 0-.696-.404q-.237-.404 0-.808L8.55 9.971L2.625 4.046Q2.479 3.9 2.472 3.7q-.007-.2.159-.366q.165-.166.357-.166t.356.166l17.298 17.304q.146.146.156.344q.01.198-.156.363q-.165.166-.356.166t-.357-.166m-6.31-10.55"/></svg>