<svg xmlns="http://www.w3.org/2000/svg" width="1em" height="1em" viewBox="0 0 24 24"><path fill="currentColor" d="M12 17.615q.252 0 .434-.181t.181-.434q0-.252-.181-.434T12 16.385q-.252 0-.434.181t-.181.434q0 .252.181.434t.434.181m-.5-2.73q0 .213.143.356q.144.144.357.144t.357-.144q.143-.143.143-.356v-2.39l-1-1zm-.96-7.17q-.211-.211-.232-.472q-.021-.26.115-.503l.875-1.528q.13-.218.308-.311T12 4.808q.217 0 .397.093q.18.093.305.31l4.888 8.424q.187.298-.105.515q-.293.217-.54-.03zm9.389 13.63L18.579 20H4.129q-.46 0-.696-.404q-.237-.404 0-.808L9.08 9.075l5.782 5.758h-1.426L2.625 4.046Q2.479 3.9 2.472 3.7q-.007-.2.159-.366q.165-.166.357-.166t.356.166l17.298 17.304q.146.146.156.344q.01.198-.156.363q-.165.166-.356.166t-.357-.166"/></svg>