<svg xmlns="http://www.w3.org/2000/svg" width="1em" height="1em" viewBox="0 0 24 24"><path fill="currentColor" d="M14.923 19.077h-2.615v1.48q0 .192-.125.318q-.125.125-.317.125t-.317-.125q-.126-.126-.126-.317v-4.346q0-.249.184-.423q.183-.174.431-.174h2.885q.35 0 .617.273q.268.272.268.65v1.654q0 .363-.261.624q-.261.26-.624.26m3.462-.576v2.058q0 .191-.125.317q-.126.125-.317.125t-.317-.125q-.126-.126-.126-.317v-4.5q0-.192.125-.317q.125-.126.316-.126q.192 0 .318.126q.126.125.126.317v1.557H21v-1.557q0-.192.125-.317q.125-.126.316-.126q.192 0 .318.126q.126.125.126.317v4.5q0 .191-.125.317q-.126.125-.317.125t-.317-.125Q21 20.749 21 20.558V18.5zm-6.077-.308h2.615v-1.654h-2.615zM10 3.6q.142 0 .276.053q.134.053.264.159q2.931 2.715 4.47 4.866q1.538 2.15 1.877 4.01q.069.368-.183.648t-.63.28h-5.036q-.666 0-1.14.474t-.475 1.14v4.758q0 .368-.243.61t-.603.242q-2.68 0-4.129-2.07Q3 16.697 3 13.8q0-2.023 1.641-4.562t4.8-5.426q.13-.106.273-.16T10 3.6"/></svg>