<svg xmlns="http://www.w3.org/2000/svg" width="1em" height="1em" viewBox="0 0 24 24"><path fill="currentColor" d="M3 13.8q0-1.408.648-2.812t1.623-2.711q.975-1.306 2.1-2.456q1.123-1.15 2.07-2.01q.13-.105.273-.158T10 3.6q.142 0 .276.053q.134.053.264.159q.952.884 2.054 1.993t2.068 2.366q.892 1.154 1.519 2.392q.627 1.239.788 2.552q.031.214-.112.357q-.144.143-.357.143t-.357-.143q-.143-.143-.18-.357q-.13-.842-.527-1.731q-.398-.89-1.038-1.863q-.75-1.13-1.853-2.345Q11.442 5.962 10 4.65Q7.025 7.375 5.513 9.675T4 13.8q0 .892.212 1.696q.211.804.596 1.494v.162q0 .2-.098.33q-.098.131-.252.187q-.154.056-.289.013q-.134-.044-.232-.203q-.456-.798-.697-1.724Q3 14.829 3 13.8M7.577 21q-.31 0-.54-.23q-.23-.23-.23-.54v-3.845q0-.31.23-.54q.23-.23.54-.23h2.346q.31 0 .54.23q.23.23.23.54v3.846q0 .31-.23.54q-.23.229-.54.229zm.115-.885h2.116V16.5H7.692zm5.5-1.115v1.558q0 .19-.126.316T12.75 21t-.316-.126q-.126-.126-.126-.316v-4.346q0-.249.183-.423q.184-.174.432-.174h2.539q.51 0 .87.361q.36.36.36.87v.962q0 .43-.298.757t-.736.412l.615 1.42q.092.215-.034.409q-.126.194-.366.194q-.142 0-.24-.074t-.154-.197L14.746 19zm6 0v1.558q0 .19-.126.316T18.75 21t-.316-.126q-.126-.126-.126-.316v-4.346q0-.249.183-.423q.184-.174.432-.174h2.539q.51 0 .87.361q.36.36.36.87v.923q0 .51-.36.87q-.36.361-.87.361zm-6-.885h2.27q.153 0 .25-.086q.096-.087.096-.221v-.962q0-.154-.096-.25q-.097-.096-.25-.096h-2.27zm6 0h2.27q.153 0 .25-.096q.096-.096.096-.25v-.923q0-.154-.096-.25q-.097-.096-.25-.096h-2.27z"/></svg>