<svg xmlns="http://www.w3.org/2000/svg" width="1em" height="1em" viewBox="0 0 24 24"><path fill="currentColor" d="M15.36 21.887q-.16.067-.342.002q-.181-.064-.249-.224l-.106-.255q-.18-.406-.268-.84q-.087-.433-.087-.87q0-.53.134-1.049q.135-.518.366-1.018q.2-.425.35-.882q.15-.457.15-.951q0-.413-.088-.802q-.087-.388-.257-.758l-.044-.05q-.067-.16-.003-.344t.224-.252q.16-.067.342-.003q.181.065.249.224l.106.245q.18.405.268.852q.087.446.087.888q0 .53-.134 1.037q-.135.505-.366 1.005q-.2.425-.35.895q-.15.469-.15.963q0 .388.075.764t.245.72l.069.126q.067.16.003.334t-.224.243m3 0q-.16.067-.342.002q-.181-.064-.249-.224l-.106-.255q-.18-.406-.268-.84q-.087-.433-.087-.87q0-.53.134-1.049q.135-.518.366-1.018q.2-.425.35-.882q.15-.457.15-.951q0-.413-.088-.802q-.087-.388-.257-.758l-.044-.05q-.067-.16-.003-.344t.224-.252q.16-.067.342-.003q.181.065.249.224l.106.245q.18.43.268.864q.087.434.087.876q0 .512-.115 1.017q-.115.506-.346.968q-.22.463-.38.942t-.159.973q0 .388.075.764t.245.72l.069.126q.067.16.003.334t-.224.243m2.78-8.293q.16-.067.342-.003q.181.065.249.224l.106.245q.2.405.277.852q.078.446.078.888q0 .512-.115 1.02t-.346.97q-.22.464-.38.94q-.159.476-.159.97q0 .388.075.764t.245.72l.069.126q.036.092.036.175q0 .082-.03.16q-.031.076-.083.14t-.144.102q-.16.067-.342.002q-.181-.064-.249-.224l-.106-.255q-.18-.406-.268-.84q-.087-.433-.087-.87q0-.53.134-1.049q.135-.518.366-1.018q.2-.425.35-.882q.15-.457.15-.951q0-.413-.088-.802q-.087-.388-.257-.758l-.044-.05q-.067-.16-.003-.344t.224-.252m-9.14-10q.142 0 .276.043q.134.044.259.169q1.477 1.36 2.985 2.987q1.509 1.628 2.48 3.48q.217.385-.025.77q-.242.386-.702.386h-3.35q-.671 0-1.143.472t-.472 1.143v7.081q0 .423-.287.621q-.286.198-.665.198q-3.073 0-4.715-1.977Q5 16.99 5 13.8q0-1.413.658-2.818q.657-1.405 1.632-2.71q.975-1.307 2.1-2.457q1.123-1.15 2.07-2.01q.13-.124.267-.167q.136-.044.273-.044"/></svg>