<svg xmlns="http://www.w3.org/2000/svg" width="1em" height="1em" viewBox="0 0 24 24"><path fill="currentColor" d="M10 3.6q.142 0 .279.053q.136.053.261.159q.947.86 2.002 1.928Q13.598 6.81 14.53 8q.932 1.19 1.607 2.487q.676 1.296.832 2.628q.031.214-.113.357q-.144.143-.357.143q-.212 0-.355-.143q-.143-.144-.18-.357q-.131-.842-.528-1.731q-.398-.89-1.038-1.863q-.75-1.13-1.853-2.345Q11.442 5.962 10 4.65Q7.025 7.375 5.513 9.675T4 13.8q0 2.28 1.322 3.996q1.322 1.716 3.624 2.096q.287.066.394.236q.108.17.072.347q-.037.177-.168.321q-.13.144-.332.102q-2.685-.386-4.299-2.397Q3 16.491 3 13.8q0-1.413.648-2.815t1.623-2.708q.975-1.306 2.1-2.456q1.123-1.15 2.076-2.002q.13-.11.27-.164T10 3.6m4.923 15.477h-2.615v1.48q0 .192-.125.318q-.125.125-.317.125t-.317-.125q-.126-.126-.126-.317v-4.346q0-.249.184-.423q.183-.174.431-.174h2.885q.37 0 .627.277q.258.277.258.646v1.654q0 .37-.258.627q-.258.258-.627.258m3.462-.577v2.058q0 .191-.125.317q-.126.125-.317.125t-.317-.125q-.126-.126-.126-.317v-4.5q0-.192.125-.317q.125-.126.316-.126q.192 0 .318.126q.126.125.126.317v1.557H21v-1.557q0-.192.125-.317q.125-.126.316-.126q.192 0 .318.126q.126.125.126.317v4.5q0 .191-.125.317q-.126.125-.317.125t-.317-.125Q21 20.749 21 20.558V18.5zm-6.077-.308h2.615v-1.654h-2.615z"/></svg>