<svg xmlns="http://www.w3.org/2000/svg" width="1em" height="1em" viewBox="0 0 24 24"><path fill="currentColor" d="M6.613 19.179q-.165.165-.378.146q-.214-.02-.373-.19q-1.17-1.26-1.795-2.836q-.625-1.576-.625-3.299q0-1.867.71-3.51t1.923-2.857Q7.29 5.418 8.932 4.709Q10.575 4 12.442 4q2.064 0 3.902.879q1.839.879 3.13 2.486q.14.172.114.371q-.025.2-.188.337q-.171.14-.37.115q-.2-.025-.338-.188q-1.15-1.425-2.787-2.212T12.442 5q-3.35 0-5.675 2.325T4.442 13q0 1.515.54 2.902q.54 1.386 1.574 2.5q.16.171.191.391q.032.22-.134.386m2.83-2.83q-.17.17-.374.164q-.204-.007-.357-.184q-.595-.679-.932-1.517q-.338-.839-.338-1.812q0-2.083 1.457-3.542Q10.356 8 12.438 8q2.081 0 3.543 1.458q1.461 1.459 1.461 3.542q0 .953-.337 1.805q-.338.85-.932 1.524q-.154.171-.358.184q-.203.012-.373-.158q-.155-.155-.149-.35q.007-.193.142-.37q.46-.539.733-1.207q.274-.668.274-1.428q0-1.65-1.175-2.825T12.442 9q-1.65 0-2.825 1.175T8.442 13q0 .765.274 1.43q.274.666.734 1.205q.135.177.141.368q.007.191-.148.347m3-2.35q-.403 0-.702-.299q-.299-.3-.299-.701t.3-.701q.298-.299.7-.299q.402 0 .701.299q.3.3.3.701t-.3.701q-.299.299-.7.299m7.506 4.73q-.259 0-.44-.178q-.182-.179-.182-.443q0-.265.179-.437t.443-.172q.264 0 .437.175q.172.175.172.434q0 .258-.175.44t-.434.182m-.507-3.462V10.5q0-.213.144-.356t.357-.144q.213 0 .356.144t.143.356v4.77q0 .212-.144.355t-.356.144q-.213 0-.356-.144t-.144-.356"/></svg>