<svg xmlns="http://www.w3.org/2000/svg" width="1em" height="1em" viewBox="0 0 72 72"><g stroke-width="0"><rect width="60" height="12" x="6" y="30" fill="#fff" ry="0"/><rect width="60" height="12" x="6" y="42" fill="#1e50a0" ry="0"/><rect width="60" height="12" x="6" y="18" fill="#1e50a0" ry="0"/></g><g stroke-linecap="round" stroke-linejoin="round"><path fill="#d22f27" stroke="#d22f27" stroke-width=".3" d="M26.636 47.192c-1.872-.256-3.768-1.04-5.327-2.206c-.294-.22-.877-.754-1.295-1.187c-1.55-1.608-2.54-3.505-2.98-5.712c-.22-1.098-.22-3.073-.003-4.154c.826-4.096 3.68-7.36 7.559-8.643c1.354-.448 1.911-.531 3.54-.53c1.258.001 1.55.022 2.144.15c2.936.635 5.403 2.223 7.047 4.535c.457.643.931 1.498.864 1.559c-.063.058-4.754 1.86-4.841 1.859c-.028 0-.138-.14-.246-.309c-.265-.42-1.042-1.194-1.526-1.522a6.112 6.112 0 0 0-4.108-1.021c-2.605.307-4.664 2.163-5.232 4.715c-.16.722-.146 1.924.033 2.663c.154.639.53 1.5.874 2.005c.315.462 1.023 1.183 1.494 1.52c1.722 1.233 4.105 1.455 6.013.561c1.014-.475 1.91-1.218 2.45-2.032c.13-.197.256-.358.28-.358c.049 0 4.871 1.793 4.906 1.824c.04.037-.455.893-.86 1.485a11.328 11.328 0 0 1-6.501 4.543c-1.36.344-2.941.438-4.285.255"/><path fill="#d22f27" stroke="#d22f27" stroke-width=".9" d="M27.559 23.684a12.331 12.331 0 0 0-1.701.197a12.331 12.331 0 0 0-10.055 12.176A12.331 12.331 0 0 0 25.97 48.141a12.331 12.331 0 0 0 13.715-7.826l-6.877-2.568a5.002 5.002 0 0 1-4.676 3.256A5.002 5.002 0 0 1 23.131 36a5.002 5.002 0 0 1 5.002-5.002a5.002 5.002 0 0 1 4.67 3.209l6.842-2.627a12.331 12.331 0 0 0-12.086-7.897z"/><circle cx="28.1" cy="36" r="4.999" fill="#f1b31c" stroke="#f1b31c" stroke-width="2.002"/></g><path fill="none" stroke="#000" stroke-linecap="round" stroke-linejoin="round" stroke-width="2" d="M5 17h62v38H5z"/></svg>