<svg xmlns="http://www.w3.org/2000/svg" width="1em" height="1em" viewBox="0 0 48 48"><path fill="none" stroke="currentColor" stroke-linecap="round" stroke-linejoin="round" d="M40.5 5.5h-33a2 2 0 0 0-2 2v33a2 2 0 0 0 2 2h33a2 2 0 0 0 2-2v-33a2 2 0 0 0-2-2"/><path fill="none" stroke="currentColor" stroke-linecap="round" stroke-linejoin="round" d="m12 19.231l3.277-1.784v13.106m4.382-11.322l3.276-1.784v13.106m4.382-8.765a4.346 4.346 0 0 1 5.203-4.258c1.82.35 3.275 1.925 3.456 3.77c.135 1.372-.3 2.726-1.248 3.558c-1.756 1.541-7.41 5.695-7.41 5.695H36"/></svg>