<svg xmlns="http://www.w3.org/2000/svg" width="1em" height="1em" viewBox="0 0 48 48"><path fill="none" stroke="currentColor" stroke-linecap="round" stroke-linejoin="round" d="M40.5 5.5h-33a2 2 0 0 0-2 2v33a2 2 0 0 0 2 2h33a2 2 0 0 0 2-2v-33a2 2 0 0 0-2-2"/><path fill="none" stroke="currentColor" stroke-linecap="round" stroke-linejoin="round" d="m12.784 12.955l2.672-1.455v10.688m5.553-5.344a2.672 2.672 0 0 0-2.672 2.672h0a2.672 2.672 0 0 0 2.672 2.672h1.737a2.672 2.672 0 0 0 2.672-2.672h0a2.672 2.672 0 0 0-2.672-2.672m0 0a2.672 2.672 0 0 0 2.672-2.672h0a2.672 2.672 0 0 0-2.672-2.672h-1.737a2.672 2.672 0 0 0-2.672 2.672h0a2.672 2.672 0 0 0 2.672 2.672m0 0h1.737m8.061 0a2.672 2.672 0 0 0-2.672 2.672h0a2.672 2.672 0 0 0 2.672 2.672h1.737a2.672 2.672 0 0 0 2.672-2.672h0a2.672 2.672 0 0 0-2.672-2.672m0 0a2.672 2.672 0 0 0 2.672-2.672h0a2.672 2.672 0 0 0-2.672-2.672h-1.737a2.672 2.672 0 0 0-2.672 2.672h0a2.672 2.672 0 0 0 2.672 2.672m0 0h1.737m-19.76 10.423l2.672-1.455V36.5m5.553-5.344a2.672 2.672 0 0 0-2.672 2.672h0a2.672 2.672 0 0 0 2.672 2.672h1.737a2.672 2.672 0 0 0 2.672-2.672h0a2.672 2.672 0 0 0-2.672-2.672"/><path fill="none" stroke="currentColor" stroke-linecap="round" stroke-linejoin="round" d="M22.746 31.156a2.672 2.672 0 0 0 2.672-2.672h0a2.672 2.672 0 0 0-2.672-2.672h-1.737a2.672 2.672 0 0 0-2.672 2.672h0a2.672 2.672 0 0 0 2.672 2.672m0 0h1.737m8.061 0a2.672 2.672 0 0 0-2.672 2.672h0a2.672 2.672 0 0 0 2.672 2.672h1.737a2.672 2.672 0 0 0 2.672-2.672h0a2.672 2.672 0 0 0-2.672-2.672"/><path fill="none" stroke="currentColor" stroke-linecap="round" stroke-linejoin="round" d="M32.544 31.156a2.672 2.672 0 0 0 2.672-2.672h0a2.672 2.672 0 0 0-2.672-2.672h-1.737a2.672 2.672 0 0 0-2.672 2.672h0a2.672 2.672 0 0 0 2.672 2.672m0 0h1.737"/></svg>