<svg xmlns="http://www.w3.org/2000/svg" width="1em" height="1em" viewBox="0 0 48 48"><path fill="none" stroke="currentColor" stroke-linecap="round" stroke-linejoin="round" d="M40.5 5.5h-33a2 2 0 0 0-2 2v33a2 2 0 0 0 2 2h33a2 2 0 0 0 2-2v-33a2 2 0 0 0-2-2"/><path fill="none" stroke="currentColor" stroke-linecap="round" stroke-linejoin="round" d="M28.679 25.524c0 2.588-2.083 4.687-4.652 4.687h-1.633c-1.702 0-3.082-1.39-3.082-3.105c0-1.716 1.38-3.106 3.082-3.106h6.294"/><path fill="none" stroke="currentColor" stroke-linecap="round" stroke-linejoin="round" d="M20.484 19.02c1.13-1.132 1.922-1.231 4.102-1.231c2.475 0 4.102 1.089 4.102 4.032v8.39M16.733 13.5h14.534m-14.534 21h14.534"/></svg>