<svg xmlns="http://www.w3.org/2000/svg" width="1em" height="1em" viewBox="0 0 48 48"><path fill="none" stroke="currentColor" stroke-linecap="round" stroke-linejoin="round" d="M40.5 5.5h-33a2 2 0 0 0-2 2v33a2 2 0 0 0 2 2h33a2 2 0 0 0 2-2v-33a2 2 0 0 0-2-2m-7 13.362v10.276"/><path fill="none" stroke="currentColor" stroke-linecap="round" stroke-linejoin="round" d="M23.972 29.138V18.862h3.364c1.902 0 3.444 1.545 3.444 3.451s-1.542 3.451-3.444 3.451h-3.364m-3.792-.03h-4.553M14.5 29.138l3.404-10.276l3.404 10.276"/></svg>