<svg xmlns="http://www.w3.org/2000/svg" width="1em" height="1em" viewBox="0 0 48 48"><path fill="none" stroke="currentColor" stroke-linecap="round" stroke-linejoin="round" d="M40.5 5.5h-33a2 2 0 0 0-2 2v33a2 2 0 0 0 2 2h33a2 2 0 0 0 2-2v-33a2 2 0 0 0-2-2M30.029 20.768l-4.878 6.464m4.878 0l-4.878-6.464"/><path fill="none" stroke="currentColor" stroke-linecap="round" stroke-linejoin="round" d="M36.5 24.793a2.439 2.439 0 0 1-2.439 2.439h0a2.439 2.439 0 0 1-2.439-2.44v-1.585a2.439 2.439 0 0 1 2.439-2.439h0a2.439 2.439 0 0 1 2.439 2.44m0 4.024v-6.464m-20.122 6.464v-4.025a2.439 2.439 0 0 0-2.439-2.439h0a2.439 2.439 0 0 0-2.439 2.44m0 4.024v-6.464M23.239 26a2.438 2.438 0 0 1-2.12 1.232h0a2.439 2.439 0 0 1-2.439-2.44v-1.585a2.439 2.439 0 0 1 2.44-2.439h0a2.439 2.439 0 0 1 2.438 2.44V24H18.68"/></svg>