<svg xmlns="http://www.w3.org/2000/svg" width="1em" height="1em" viewBox="0 0 48 48"><path fill="none" stroke="currentColor" stroke-linecap="round" stroke-linejoin="round" d="M40.5 5.5h-33a2 2 0 0 0-2 2v33a2 2 0 0 0 2 2h33a2 2 0 0 0 2-2v-33a2 2 0 0 0-2-2m-6.32 13v11"/><path fill="none" stroke="currentColor" stroke-linecap="round" stroke-linejoin="round" d="M24.18 28.295c.674.878 1.52 1.205 2.696 1.205h1.629a2.744 2.744 0 0 0 2.744-2.744v-.012A2.744 2.744 0 0 0 28.505 24h-1.796a2.747 2.747 0 0 1-2.747-2.747h0a2.753 2.753 0 0 1 2.753-2.753h1.62c1.176 0 2.022.327 2.696 1.205M18.358 24a2.75 2.75 0 1 1 0 5.5H13.82v-11h4.538a2.75 2.75 0 1 1 0 5.5m0 0H13.82"/></svg>