<svg xmlns="http://www.w3.org/2000/svg" width="1em" height="1em" viewBox="0 0 48 48"><path fill="none" stroke="currentColor" stroke-linecap="round" stroke-linejoin="round" d="M39.916 11.647c-.814-3.278-2.86-4.916-6.138-4.916l-22.12-1.232c-2.456 0-3.685 1.228-3.685 3.684L5.931 34.988c-.274 4.913 2.046 6.552 6.959 4.917l8.602-2.464c1.36-.54 2.59-.54 3.684 0l9.834 4.916c1.22.622 2.453-.92 1.531-2.452l-2.519-4.673c-.488-.977-.244-1.72 1.387-2.286l3.286-.822c2.456-.547 3.58-1.639 3.374-3.274z"/><path fill="none" stroke="currentColor" stroke-linecap="round" stroke-linejoin="round" d="M30.263 17.421a7.371 7.371 0 1 0-.033 7.836"/></svg>