<svg xmlns="http://www.w3.org/2000/svg" width="1em" height="1em" viewBox="0 0 48 48"><path fill="none" stroke="currentColor" stroke-linecap="round" stroke-linejoin="round" d="M40.5 5.5h-33a2 2 0 0 0-2 2v33a2 2 0 0 0 2 2h33a2 2 0 0 0 2-2v-33a2 2 0 0 0-2-2"/><path fill="none" stroke="currentColor" stroke-linecap="round" stroke-linejoin="round" d="M18 36.27c2.6.5 5.1.99 7.8.93s5.5-.67 7.6-1.4c2.1-.7 3.6-1.5 5.1-2.3m-3.472-21.378v15.89a2.67 2.67 0 0 0 2.67 2.67h.802m-6.276-14.154h5.608m-8.615 6.99v.087a7.077 7.077 0 0 1-7.077 7.077h0a7.077 7.077 0 0 1-7.077-7.077v-7.21a7.077 7.077 0 0 1 7.077-7.077h0a7.077 7.077 0 0 1 7.077 7.077v.133"/></svg>