<svg xmlns="http://www.w3.org/2000/svg" width="1em" height="1em" viewBox="0 0 48 48"><path fill="none" stroke="currentColor" stroke-linecap="round" stroke-linejoin="round" d="M40.5 5.5h-33a2 2 0 0 0-2 2v33a2 2 0 0 0 2 2h33a2 2 0 0 0 2-2v-33a2 2 0 0 0-2-2"/><path fill="none" stroke="currentColor" stroke-linecap="round" stroke-linejoin="round" d="M30.273 22.991h2.47l.871-4.94h-2.47zl-1.6-4.94h-2.47l-.871 4.94h2.47l.871-4.94m-8.281 4.94l.87-4.94h2.47l-.544 3.088c-.18 1.023-1.156 1.852-2.179 1.852h-1.853m-2.834-4.94l-.435 2.47h2.47l.436-2.47zm-1.86 4.94h-4.94l.872-4.94h2.47l-.871 4.94m30.506 2.47H19.19l-3.004 17.04M22.71 5.5l-1.777 10.08H42.5"/></svg>