<svg xmlns="http://www.w3.org/2000/svg" width="1em" height="1em" viewBox="0 0 48 48"><path fill="none" stroke="currentColor" stroke-linecap="round" stroke-linejoin="round" d="m27.098 17.95l3.16 3.28l-1.158.246a37.148 37.148 0 0 1 6.132 5.536a36.492 36.492 0 0 1-2.755 6.159a22.822 22.822 0 0 0-2.581-5.758c.04.261 2.16 15.365 2.16 15.365l-3.585.722H19.88l-3.582-.722l2.158-15.367a32.674 32.674 0 0 1-2.582 2.32a37.51 37.51 0 0 1-6.246-2.71a23.341 23.341 0 0 0 9.626-5.536l-1.16-.246l3.202-3.317a37.424 37.424 0 0 1-8.699-7.263a36.396 36.396 0 0 1 2.755-6.16a22.87 22.87 0 0 0 7.854 11.435l.985-1.016l.985 1.016a37.176 37.176 0 0 1 6.95-7.995a37.53 37.53 0 0 1 6.248 2.71a23.239 23.239 0 0 0-11.289 7.263z"/></svg>