<svg xmlns="http://www.w3.org/2000/svg" width="1em" height="1em" viewBox="0 0 48 48"><path fill="none" stroke="currentColor" stroke-linecap="round" stroke-linejoin="round" d="m23.014 31.97l3.577-9.557m3.309 12.43c0 .85-.425 1.274-1.274 1.274h-1.912c-.99 0-1.628.429-1.911 1.286c-.283-.857-.92-1.286-1.912-1.286H20.97c-.85 0-1.275-.425-1.275-1.274m1.274-10.206l-5.097 1.912l5.04 1.922m7.714-3.834l5.108 1.912l-5.108 1.922"/><path fill="none" stroke="currentColor" stroke-linecap="round" stroke-linejoin="round" d="M12.037 19.529c6.383 2.56 11.491 1.285 16.589-2.549c0 1.7-.425 2.977-1.275 3.834c3.835 1.274 6.383-2.56 9.57-2.56c.849 0 1.914.425 3.196 1.275c.425-1.7-.004-2.974-1.285-3.823c0-1.7.853-2.974 2.56-3.823c-1.707-.857-3.41-.432-5.11 1.274c0-2.56-2.548-5.108-5.096-6.383c.85.85 1.274 2.124 1.274 3.823C27.35 5.5 23.529 5.5 18.42 5.5c1.274.85 2.124 1.699 2.549 2.549c-5.098 0-8.932 2.548-14.03-2.55c-1.273 7.658 1.275 11.481 5.098 14.03v6.382c0 1.707-.85 2.56-2.548 2.56c1.699 0 2.548.85 2.548 2.549v8.931c0 1.7 1.278 2.549 3.834 2.549"/><path fill="none" stroke="currentColor" stroke-linecap="round" stroke-linejoin="round" d="M33.734 42.5c1.7 0 2.549-.85 2.549-2.549V31.02c0-1.7.85-2.549 2.548-2.549c-1.699 0-2.548-.853-2.548-2.56v-7.4"/></svg>