<svg xmlns="http://www.w3.org/2000/svg" width="1em" height="1em" viewBox="0 0 48 48"><path fill="none" stroke="currentColor" stroke-linecap="round" stroke-linejoin="round" d="M31.976 8.871c1.166-.685 2.46-1.537 3.855-1.264a8.738 8.738 0 0 1 6.594 6.913c.42 2.189-1.006 4.211-2.568 5.475m-22.443 9.737s-2.226-3.982-7.808-6.753L31.976 8.87"/><path fill="none" stroke="currentColor" stroke-linecap="round" stroke-linejoin="round" d="M12.344 32.937c.065-2.34-1.674-2.25-1.674-2.25c-1.217-.077-1.755 1.05-1.992 2.025a3.93 3.93 0 0 0 .258 2.63c1.568 3.235 4.934 1.474 4.934 1.474a4.373 4.373 0 0 0 1.925-4.258a2.97 2.97 0 0 0-.25-.982a5.776 5.776 0 0 0-4.06-3.572a4.847 4.847 0 0 0-5.393 2.886a8.65 8.65 0 0 0-.444 1.251a3.701 3.701 0 0 0-.119.692a7.174 7.174 0 0 0 3.002 6.495c5.436 3.331 8.814-1.848 8.814-1.848a6.912 6.912 0 0 0 .657-6.455c-1.704-4.837-8.396-8.046-8.396-8.046"/><path fill="none" stroke="currentColor" stroke-linecap="round" stroke-linejoin="round" d="M8.17 28.553c.258-.142 4.732-2.95 4.732-2.95m23.025-2.624c.119-7.251-5.256-9.748-5.256-9.748m9.186 6.764a8.527 8.527 0 0 0-4.068-8.069m-4.886 14.978a9.414 9.414 0 0 0-3.893-10.66l-8.694 5.396s6.935 4.32 4.96 11.518zM15.71 39.164l24.147-19.168"/></svg>