<svg xmlns="http://www.w3.org/2000/svg" width="1em" height="1em" viewBox="0 0 48 48"><path fill="none" stroke="currentColor" stroke-linecap="round" stroke-linejoin="round" d="M9.505 32.413c-.08-.16-2.083-3.285-.801-5.609c1.041-1.842 3.684-2.323 4.005-2.403m16.02-6.41c.24-.722 1.2-2.725.8-4.007c-.32-1.042-.72-2.404-4.005-4.006l-6.407-3.205a6.28 6.28 0 0 1 0 2.403c-.16.882-.44 5.032-1.33 6.758m19.752 16.48c.48.08 3.845.4 4.806 3.205c.8 2.403-1.602 5.609-4.806 5.609c-3.444 0-5.602-2.65-13.426-3.061M13.19 24.48c-.16 0-.32-.08-.48-.08a5.768 5.768 0 0 1-.801-3.205a5.875 5.875 0 0 1 3.204-4.808c1.522-.721 2.162-.08 4.005-.801a7.474 7.474 0 0 0 3.204-2.404m10.813 11.779a2.44 2.44 0 0 0 .4-.561c.16-.16 1.362-2.324.801-4.007c-.8-2.404-4.806-2.323-5.607-2.404a14.483 14.483 0 0 1-4.005 4.007a14.013 14.013 0 0 1-4.966 2.163m-.4 8.013c2.36-.26 4.66-.91 6.808-1.923M13.67 32.414h.56M34.336 24.4a4.945 4.945 0 0 1 3.204 1.602c1.041 1.363 2.002 3.606 0 5.61a18.548 18.548 0 0 1-8.01 4.807c-4.806 1.603-12.014 4.006-16.82 4.006c-4.085 0-7.209-.8-7.209-4.006c0-3.526 6.168-3.926 8.17-4.006"/><path fill="none" stroke="currentColor" stroke-linecap="round" stroke-linejoin="round" d="M19.036 32.093a3.311 3.311 0 0 1-2.563 1.362c-2.162 0-3.924-2.484-3.924-5.529s1.762-5.528 3.924-5.528s3.925 2.484 3.925 5.528a6.824 6.824 0 0 1-1.362 4.167m7.129-1.843a7.488 7.488 0 0 1-.48-2.724c0-3.045 1.762-5.53 3.924-5.53s3.925 2.405 3.925 5.53s-1.762 5.529-3.925 5.529c-1.442 0-2.723-1.122-3.444-2.805"/><path fill="none" stroke="currentColor" stroke-linecap="round" stroke-linejoin="round" d="M31.211 27.606a1.602 1.602 0 1 1-3.204 0a1.602 1.602 0 0 1 3.204 0m-13.136.32a1.602 1.602 0 1 1-3.204.001a1.602 1.602 0 0 1 3.204 0"/></svg>