<svg xmlns="http://www.w3.org/2000/svg" width="1em" height="1em" viewBox="0 0 48 48"><path fill="none" stroke="currentColor" stroke-linecap="round" stroke-linejoin="round" d="M17.143 30.678s4.845-1.938 9.69 0m13.817-15.07v3.604c0 .415-.333.74-.74.74H27.419c-2.102 0-2.598 1.82-2.709 2.834a.737.737 0 0 1-.732.652h-3.715a.734.734 0 0 1-.74-.726c-.007-2.072.607-7.844 7.866-7.844h3.826v-3.293H27.7V9.2h9.805v2.375H33.99v3.293h5.92c.407 0 .74.333.74.74"/><path fill="none" stroke="currentColor" stroke-linecap="round" stroke-linejoin="round" d="m15.367 23.11l2.907 15.505h7.752l2.907-15.505"/><path fill="none" stroke="currentColor" stroke-linecap="round" stroke-linejoin="round" d="M40.5 5.5h-33a2 2 0 0 0-2 2v33a2 2 0 0 0 2 2h33a2 2 0 0 0 2-2v-33a2 2 0 0 0-2-2"/></svg>