<svg xmlns="http://www.w3.org/2000/svg" width="1em" height="1em" viewBox="0 0 48 48"><path fill="none" stroke="currentColor" stroke-linecap="round" stroke-linejoin="round" d="M22.356 15.056v5.864a2.904 2.904 0 0 0 5.808 0v-5.864M13.59 19.424h5.808m0-4.368v8.768m-5.808-8.768v8.768m17.534-8.768v6.96a3.833 3.833 0 0 1-1.685 3.177m4.973-10.136v8.767"/><path fill="none" stroke="currentColor" stroke-linejoin="round" d="M40.5 5.5h-33a2 2 0 0 0-2 2v33a2 2 0 0 0 2 2h33a2 2 0 0 0 2-2v-33a2 2 0 0 0-2-2Z"/><path fill="none" stroke="currentColor" stroke-linecap="round" stroke-linejoin="round" d="M5.5 30.5h37m0 4h-37"/></svg>