<svg xmlns="http://www.w3.org/2000/svg" width="1em" height="1em" viewBox="0 0 48 48"><path fill="none" stroke="currentColor" stroke-linecap="round" stroke-linejoin="round" d="M40.5 5.5h-33a2 2 0 0 0-2 2v33a2 2 0 0 0 2 2h33a2 2 0 0 0 2-2v-33a2 2 0 0 0-2-2"/><path fill="none" stroke="currentColor" stroke-linecap="round" stroke-linejoin="round" d="M12.574 29.5V17.841L20.298 29.5V17.841M30.62 25.59v.048a3.862 3.862 0 0 1-3.863 3.862h0a3.862 3.862 0 0 1-3.862-3.862v-3.935a3.862 3.862 0 0 1 3.862-3.862h0a3.862 3.862 0 0 1 3.862 3.862v.048"/><circle cx="35.524" cy="17.841" r="3.341" fill="none" stroke="currentColor" stroke-linecap="round" stroke-linejoin="round"/></svg>