<svg xmlns="http://www.w3.org/2000/svg" width="1em" height="1em" viewBox="0 0 48 48"><path fill="none" stroke="currentColor" stroke-linecap="round" stroke-linejoin="round" d="M31.169 21.784v9.537a3.179 3.179 0 0 1-3.18 3.179h0a3.179 3.179 0 0 1-3.178-3.179v-1.056m-7.728-5.443c.78 1.015 1.758 1.394 3.118 1.394h1.883a3.172 3.172 0 0 0 3.172-3.172v-.014a3.172 3.172 0 0 0-3.172-3.172h-2.077a3.175 3.175 0 0 1-3.176-3.176h0a3.182 3.182 0 0 1 3.183-3.182h1.872c1.36 0 2.338.378 3.118 1.393"/><path fill="none" stroke="currentColor" stroke-linecap="round" stroke-linejoin="round" d="M40.5 5.5h-33a2 2 0 0 0-2 2v33a2 2 0 0 0 2 2h33a2 2 0 0 0 2-2v-33a2 2 0 0 0-2-2"/></svg>