<svg xmlns="http://www.w3.org/2000/svg" width="1em" height="1em" viewBox="0 0 48 48"><path fill="none" stroke="currentColor" stroke-linecap="round" stroke-linejoin="round" d="M40.5 5.5h-33a2 2 0 0 0-2 2v33a2 2 0 0 0 2 2h33a2 2 0 0 0 2-2v-33a2 2 0 0 0-2-2"/><path fill="none" stroke="currentColor" stroke-linecap="round" stroke-linejoin="round" d="M12.802 29.954c.935 1.218 2.108 1.671 3.739 1.671h2.258a3.804 3.804 0 0 0 3.804-3.804v-.017A3.805 3.805 0 0 0 18.799 24h-2.49a3.808 3.808 0 0 1-3.809-3.808h0a3.816 3.816 0 0 1 3.817-3.817h2.245c1.631 0 2.804.454 3.739 1.67m3.312-1.507H35.5l-9.887 14.924H35.5"/></svg>