<svg xmlns="http://www.w3.org/2000/svg" width="1em" height="1em" viewBox="0 0 48 48"><path fill="none" stroke="currentColor" stroke-linejoin="round" d="M40.5 5.5h-33a2 2 0 0 0-2 2v33a2 2 0 0 0 2 2h33a2 2 0 0 0 2-2v-33a2 2 0 0 0-2-2Z"/><path fill="none" stroke="currentColor" stroke-linecap="round" stroke-linejoin="round" d="M22.029 25.971v10.511h5.255m6.57-24.964v10.511m-11.825 0V11.518l6.964 10.511V11.518m-17.455 0v7.029a3.482 3.482 0 0 0 6.964 0v-7.029"/><path fill="none" stroke="currentColor" stroke-linejoin="round" d="M33 25.971a3.474 3.474 0 0 1 3.482 3.482V33c0 1.929-1.553 3.482-3.482 3.482S29.518 34.929 29.518 33v-3.547A3.474 3.474 0 0 1 33 25.971Z"/><path fill="none" stroke="currentColor" stroke-linecap="round" stroke-linejoin="round" d="M18.482 36.482L15 33.042m0-7.071a3.474 3.474 0 0 1 3.482 3.482V33c0 1.929-1.553 3.482-3.482 3.482S11.518 34.929 11.518 33v-3.547A3.474 3.474 0 0 1 15 25.971"/></svg>