<svg xmlns="http://www.w3.org/2000/svg" width="1em" height="1em" viewBox="0 0 48 48"><path fill="none" stroke="currentColor" stroke-linecap="round" stroke-linejoin="round" d="M40.5 5.5h-33a2 2 0 0 0-2 2v33a2 2 0 0 0 2 2h33a2 2 0 0 0 2-2v-33a2 2 0 0 0-2-2"/><path fill="none" stroke="currentColor" stroke-linecap="round" stroke-linejoin="round" d="M16.5 32.5h15a3 3 0 0 0 3-3h0v-5a6.76 6.76 0 0 0-2.225-5.013l-6.05-5.474a3.316 3.316 0 0 0-4.45 0l-6.05 5.474A6.76 6.76 0 0 0 13.5 24.5v5a3 3 0 0 0 3 3"/><path fill="none" stroke="currentColor" stroke-linecap="round" stroke-linejoin="round" d="M13.5 26.125a10.438 10.438 0 0 1 4.5-1.062a10.437 10.437 0 0 1 9.992 7.437m5.9-1.232A16.47 16.47 0 0 0 18 19.03c-.643.008-1.285.055-1.922.138"/></svg>