<svg xmlns="http://www.w3.org/2000/svg" width="1em" height="1em" viewBox="0 0 24 24"><path fill="currentColor" fill-rule="evenodd" d="M5.799 12.525A1.75 1.75 0 0 1 7.25 14.25v3.174a1.75 1.75 0 0 1-2.23 1.683l-1.5-.429a1.75 1.75 0 0 1-1.27-1.682v-2.128c0-.663.374-1.269.967-1.565l1.054-.527c.016-.229.045-.53.096-.884a11.62 11.62 0 0 1 .82-2.943C5.662 7.87 6.386 6.752 7.5 5.903C8.622 5.048 10.096 4.5 12 4.5s3.378.548 4.501 1.403c1.114.849 1.838 1.966 2.311 3.046c.473 1.08.705 2.15.82 2.943c.052.353.081.656.097.884l1.054.527c.592.296.967.902.967 1.565v2.128a1.75 1.75 0 0 1-1.27 1.682l-1.5.429a1.75 1.75 0 0 1-2.23-1.683V14.25a1.75 1.75 0 0 1 1.451-1.725a8.685 8.685 0 0 0-.053-.417a10.126 10.126 0 0 0-.71-2.557c-.402-.92-.99-1.803-1.846-2.454C14.747 6.452 13.596 6 12 6s-2.747.452-3.592 1.097c-.856.651-1.444 1.534-1.846 2.454c-.402.92-.607 1.85-.71 2.557c-.022.151-.04.291-.053.417M18.823 14H18.5a.25.25 0 0 0-.25.25v3.174a.25.25 0 0 0 .319.24l1.5-.428a.25.25 0 0 0 .181-.24v-2.128a.25.25 0 0 0-.138-.224zM5.177 14l-1.289.645a.25.25 0 0 0-.138.223v2.128c0 .111.074.21.181.24l1.5.429a.25.25 0 0 0 .319-.24V14.25A.25.25 0 0 0 5.5 14z" clip-rule="evenodd"/></svg>