<svg xmlns="http://www.w3.org/2000/svg" width="1em" height="1em" viewBox="0 0 24 24"><path fill="currentColor" fill-rule="evenodd" d="M5.25 3.5A.75.75 0 0 1 6 2.75h12a.75.75 0 0 1 0 1.5h-4.919a5.413 5.413 0 0 1 1.603 3.111H18a.75.75 0 0 1 0 1.5h-3.284c-.124 1.145-.592 2.264-1.419 3.144c-.987 1.052-2.44 1.717-4.297 1.717H7.93l7.076 6.475a.75.75 0 1 1-1.012 1.106l-8.5-7.778A.75.75 0 0 1 6 12.223h3c1.477 0 2.523-.518 3.203-1.243a3.921 3.921 0 0 0 1.002-2.118H6a.75.75 0 0 1 0-1.5h7.16a3.887 3.887 0 0 0-.957-1.868C11.523 4.77 10.477 4.25 9 4.25H6a.75.75 0 0 1-.75-.75" clip-rule="evenodd"/></svg>