<svg xmlns="http://www.w3.org/2000/svg" width="1em" height="1em" viewBox="0 0 24 24"><path fill="currentColor" d="M15.088 6.412a2.844 2.844 0 0 0-1.347-.955l-1.378-.448a.544.544 0 0 1 0-1.025l1.378-.448A2.839 2.839 0 0 0 15.5 1.774l.011-.034l.448-1.377a.544.544 0 0 1 1.027 0l.447 1.377a2.835 2.835 0 0 0 1.799 1.796l1.377.448l.028.007a.544.544 0 0 1 0 1.025l-1.378.448a2.839 2.839 0 0 0-1.798 1.796l-.448 1.377a.544.544 0 0 1-1.026 0l-.448-1.377a2.837 2.837 0 0 0-.45-.848m7.695 3.801l-.766-.248a1.577 1.577 0 0 1-.998-.999l-.25-.764a.302.302 0 0 0-.57 0l-.248.764a1.576 1.576 0 0 1-.984.999l-.765.248a.302.302 0 0 0 0 .57l.765.249a1.578 1.578 0 0 1 1 1.002l.248.764a.302.302 0 0 0 .57 0l.249-.764a1.576 1.576 0 0 1 .999-.999l.765-.248a.302.302 0 0 0 0-.57zM12.047 3H6.25A3.25 3.25 0 0 0 3 6.25V7h11.254a2.118 2.118 0 0 0-.854-.541l-1.4-.46c-.584-.253-.998-.895-1-1.53A1.565 1.565 0 0 1 12.047 3M21 13.936a1.233 1.233 0 0 1-.54.114c-.96 0-1.23-.857-1.466-1.606l-.014-.045c-.116-.353-.547-.462-.906-.554a4.88 4.88 0 0 1-.244-.066a1.328 1.328 0 0 1-.87-1.23a1.28 1.28 0 0 1 .18-.66a1.45 1.45 0 0 1-.68.16A1.554 1.554 0 0 1 15 8.999l-.141-.499H3v9.25A3.25 3.25 0 0 0 6.25 21h11.5A3.25 3.25 0 0 0 21 17.75z"/></svg>