<svg xmlns="http://www.w3.org/2000/svg" width="1em" height="1em" viewBox="0 0 28 28"><path fill="currentColor" d="M17.171 6.829a3.157 3.157 0 0 1 .761 1.238l.498 1.53a.605.605 0 0 0 1.14 0l.498-1.53a3.15 3.15 0 0 1 1.998-1.996l1.53-.497a.605.605 0 0 0 0-1.14l-.03-.008l-1.531-.497a3.154 3.154 0 0 1-1.998-1.996L19.54.403a.604.604 0 0 0-1.14 0l-.498 1.53l-.013.038a3.152 3.152 0 0 1-1.955 1.958l-1.53.497a.605.605 0 0 0 0 1.14l1.53.497c.467.156.89.418 1.237.766m8.65 3.529l.918.298l.019.004a.362.362 0 0 1 0 .684l-.919.299a1.892 1.892 0 0 0-1.198 1.197l-.299.918a.363.363 0 0 1-.684 0l-.299-.918a1.891 1.891 0 0 0-1.198-1.202l-.919-.298a.362.362 0 0 1 0-.684l.919-.299a1.892 1.892 0 0 0 1.18-1.197l.299-.918a.363.363 0 0 1 .684 0l.298.918a1.89 1.89 0 0 0 1.199 1.197M15.608 3H6.25A3.25 3.25 0 0 0 3 6.25V8h13.803a2.01 2.01 0 0 0-.164-.24a1.693 1.693 0 0 0-.18-.21a2.25 2.25 0 0 0-.83-.52l-1.56-.5a1.55 1.55 0 0 1-.77-.59a1.58 1.58 0 0 1 0-1.85a1.57 1.57 0 0 1 .79-.59zm1.73 6.5H3v12.25A3.25 3.25 0 0 0 6.25 25h15.5A3.25 3.25 0 0 0 25 21.75v-7.185a1.37 1.37 0 0 1-1.79.184a1.34 1.34 0 0 1-.5-.68l-.3-.92a.87.87 0 0 0-.22-.35a.851.851 0 0 0-.34-.21l-.94-.31a1.3 1.3 0 0 1-.66-.49A1.42 1.42 0 0 1 20 11c0-.128.02-.256.06-.38l-.13.11a1.64 1.64 0 0 1-1.86 0a1.7 1.7 0 0 1-.59-.8z"/></svg>