<svg xmlns="http://www.w3.org/2000/svg" width="1em" height="1em" viewBox="0 0 16 16"><path fill="currentColor" d="M7 1a6 6 0 0 1 5.99 5.66a1.964 1.964 0 0 0-1.082-.62A5.002 5.002 0 0 0 2 7a5 5 0 0 0 5.272 4.993l-.5 1.003A6 6 0 0 1 7 1m-.75 7.042l2.87-2.878a.5.5 0 0 1 .766.637l-.058.07l-3.224 3.232a.5.5 0 0 1-.638.058l-.07-.057l-1.75-1.75a.5.5 0 0 1 .638-.765l.07.057zm4.353-.488a1 1 0 0 1 1.79 0l3.5 6.998A1 1 0 0 1 14.998 16H8.002a1 1 0 0 1-.895-1.448zm1.395 1.941a.5.5 0 1 0-1 0v3.002a.5.5 0 1 0 1 0zm-.5 5.504a.5.5 0 1 0 0-1a.5.5 0 0 0 0 1"/></svg>