<svg xmlns="http://www.w3.org/2000/svg" width="1em" height="1em" viewBox="0 0 32 32"><path fill="currentColor" d="M17.5 28.777c-.811.147-1.647.223-2.5.223c-7.732 0-14-6.268-14-14S7.268 1 15 1s14 6.268 14 14c0 .167-.003.334-.009.5H22a4.47 4.47 0 0 0-2 .468A1 1 0 0 0 19 15h-4V8a1 1 0 1 0-2 0v8a1 1 0 0 0 1 1h4.646a4.484 4.484 0 0 0-1.146 3zM29 17h-7a3 3 0 0 0-3 3v9a3 3 0 0 0 3 3h7a3 3 0 0 0 3-3v-9a3 3 0 0 0-3-3m-.75 12h-5.5a.75.75 0 0 1 0-1.5h5.5a.75.75 0 0 1 0 1.5m0-4h-5.5a.75.75 0 0 1 0-1.5h5.5a.75.75 0 0 1 0 1.5m0-4h-5.5a.75.75 0 0 1 0-1.5h5.5a.75.75 0 0 1 0 1.5"/></svg>