<svg xmlns="http://www.w3.org/2000/svg" width="1em" height="1em" viewBox="0 0 24 24"><path fill="currentColor" d="M11 2.5a8.5 8.5 0 1 0 3 16.455v1.587A9.997 9.997 0 0 1 11 21C5.477 21 1 16.523 1 11S5.477 1 11 1s10 4.477 10 10c0 .338-.017.671-.05 1h-1.508A8.5 8.5 0 0 0 11 2.5M10.25 5a.75.75 0 0 1 .743.648L11 5.75V11h3.25a.75.75 0 0 1 .102 1.493l-.102.007h-4a.75.75 0 0 1-.743-.648L9.5 11.75v-6a.75.75 0 0 1 .75-.75m11.5 8h-4.5A2.25 2.25 0 0 0 15 15.25v6.5A2.25 2.25 0 0 0 17.25 24h4.5A2.25 2.25 0 0 0 24 21.75v-6.5A2.25 2.25 0 0 0 21.75 13m-.25 9h-4a.5.5 0 0 1 0-1h4a.5.5 0 0 1 0 1m0-3h-4a.5.5 0 0 1 0-1h4a.5.5 0 0 1 0 1m0-3h-4a.5.5 0 0 1 0-1h4a.5.5 0 0 1 0 1"/></svg>