<svg xmlns="http://www.w3.org/2000/svg" width="1em" height="1em" viewBox="0 0 32 32"><path fill="currentColor" d="M13 8a1 1 0 1 1 2 0v7h4a1 1 0 0 1 1 .968A4.516 4.516 0 0 0 18.646 17H14a1 1 0 0 1-1-1zm14 7c0 .168-.003.334-.01.5h2.001c.006-.166.009-.333.009-.5c0-7.732-6.268-14-14-14S1 7.268 1 15s6.268 14 14 14c.853 0 1.689-.076 2.5-.223V26.74a12.04 12.04 0 0 1-2.5.261c-6.627 0-12-5.373-12-12S8.373 3 15 3s12 5.373 12 12m-5 2h7a3 3 0 0 1 3 3v9a3 3 0 0 1-3 3h-7a3 3 0 0 1-3-3v-9a3 3 0 0 1 3-3m.75 12h5.5a.75.75 0 0 0 0-1.5h-5.5a.75.75 0 0 0 0 1.5m0-4h5.5a.75.75 0 0 0 0-1.5h-5.5a.75.75 0 0 0 0 1.5m0-4h5.5a.75.75 0 0 0 0-1.5h-5.5a.75.75 0 0 0 0 1.5"/></svg>