<svg xmlns="http://www.w3.org/2000/svg" width="1em" height="1em" viewBox="0 0 16 16"><path fill="currentColor" d="M11.917 6A6.002 6.002 0 0 0 0 7a6 6 0 0 0 7 5.917V11.9A5 5 0 1 1 10.9 6zM7.72 7.05A.498.498 0 0 0 7.5 7H6.002V4.5l-.009-.09a.5.5 0 0 0-.991.09v3l.008.09a.5.5 0 0 0 .492.41H7.17c.124-.351.311-.672.549-.95M14 7h-4a2 2 0 0 0-2 2v5a2 2 0 0 0 2 2h4a2 2 0 0 0 2-2V9a2 2 0 0 0-2-2m-.5 7h-3a.5.5 0 0 1 0-1h3a.5.5 0 0 1 0 1m0-2h-3a.5.5 0 0 1 0-1h3a.5.5 0 0 1 0 1m0-2h-3a.5.5 0 0 1 0-1h3a.5.5 0 0 1 0 1"/></svg>