<svg xmlns="http://www.w3.org/2000/svg" width="1em" height="1em" viewBox="0 0 16 16"><path fill="currentColor" d="M2 3a2 2 0 0 1 2-2h3.586a1.5 1.5 0 0 1 1.06.44l2.915 2.914l.014.014L9.944 6H8.5A1.5 1.5 0 0 1 7 4.5V2H4a1 1 0 0 0-1 1v10a1 1 0 0 0 1 1h3.784c.065.004.131.004.198 0H10a1 1 0 0 0 1-.981c.117-.089.228-.185.333-.29l.667-.667V13a2 2 0 0 1-2 2H4a2 2 0 0 1-2-2zm6.5 2h2.293L8 2.207V4.5a.5.5 0 0 0 .5.5M4 12.5a.5.5 0 0 1 .5-.5h2.508a.92.92 0 0 1 .02-.104l.374-1.498a2.18 2.18 0 0 1 .578-1.02l4.83-4.83a1.87 1.87 0 1 1 2.644 2.645l-4.83 4.829a2.197 2.197 0 0 1-1.02.578l-1.498.374a.893.893 0 0 1-.306.024a.49.49 0 0 1-.05.002H4.5a.5.5 0 0 1-.5-.5"/></svg>