<svg xmlns="http://www.w3.org/2000/svg" width="1em" height="1em" viewBox="0 0 28 28"><path fill="currentColor" d="M14 10V2H6.4A2.4 2.4 0 0 0 4 4.4v19.2A2.4 2.4 0 0 0 6.4 26h15.2a2.4 2.4 0 0 0 2.4-2.4v-6.95l-5.862 5.861a3.685 3.685 0 0 1-1.712.97l-1.83.457a2.081 2.081 0 0 1-2.29-.938H7.75a.75.75 0 0 1 0-1.5h4.293l.021-.093l.458-1.83c.162-.648.497-1.24.97-1.712L19.355 12H16a2 2 0 0 1-2-2m8.355-.705a3.277 3.277 0 0 0-.961.667l-.538.538H16a.5.5 0 0 1-.5-.5V2.475c.093.07.18.145.264.228zm-.255 1.374l-7.903 7.903a2.686 2.686 0 0 0-.706 1.247l-.458 1.831a1.087 1.087 0 0 0 1.319 1.318l1.83-.457a2.685 2.685 0 0 0 1.248-.707l7.902-7.902A2.286 2.286 0 0 0 22.1 10.67"/></svg>