<svg xmlns="http://www.w3.org/2000/svg" width="1em" height="1em" viewBox="0 0 20 20"><path fill="currentColor" d="M10 2a7.985 7.985 0 0 1 6.245 3H3.755A7.985 7.985 0 0 1 10 2m7 9h.938A8.001 8.001 0 0 1 2 10h1v1h1v1h6v-1h1v1h6zM6.185 13.44a.5.5 0 0 0-.074.703A4.991 4.991 0 0 0 10 16c1.57 0 2.973-.725 3.889-1.857a.5.5 0 1 0-.778-.629A3.991 3.991 0 0 1 10 15a3.991 3.991 0 0 1-3.111-1.486a.5.5 0 0 0-.704-.074M18 6H3v1H2v1H1v1H0v2h1V9h1V8h2v2h1v1h4v-1h1V8h1v2h1v1h4v-1h1V8h1zM6 8v1h1v1H6V9H5V8zm7 0v1h1v1h-1V9h-1V8z"/></svg>