<svg xmlns="http://www.w3.org/2000/svg" width="1em" height="1em" viewBox="0 0 16 16"><path fill="currentColor" d="M5.766 10c.136 0 .272.057.37.166A2.492 2.492 0 0 0 8 11c.74 0 1.405-.321 1.864-.834a.499.499 0 0 1 .37-.166h.004a.5.5 0 0 1 .37.834A3.493 3.493 0 0 1 8 12a3.493 3.493 0 0 1-2.609-1.166a.5.5 0 0 1 .37-.834zM11 4a4.978 4.978 0 0 0-3-1a4.978 4.978 0 0 0-3 1H3.528A5.985 5.985 0 0 1 8 2c1.777 0 3.374.773 4.472 2zm1.583 6A5.001 5.001 0 0 1 3.1 9H2.083a6.002 6.002 0 0 0 11.576 1zM0 7h1v2H0zm2-2h13v2h-1v1h-1v1h-3V8H9V7H8v1H7v1H4V8H3V7H1V6h1zm3 1H4v1h1v1h1V7H5zm5 0v1h1V6zm1 1v1h1V7z"/></svg>