<svg xmlns="http://www.w3.org/2000/svg" width="1em" height="1em" viewBox="0 0 20 20"><path fill="currentColor" d="M17 9a8 8 0 1 0-7.411 7.979a5.464 5.464 0 0 1-.383-.982a7 7 0 1 1 6.79-6.79c.343.096.671.224.983.382A8.14 8.14 0 0 0 17 9m-7.978 5a5.47 5.47 0 0 1 .186-1.005a3.991 3.991 0 0 1-3.32-1.48a.5.5 0 1 0-.777.629A4.991 4.991 0 0 0 9 14zM12.5 7.5a1 1 0 1 0-2 0a1 1 0 0 0 2 0m-5 0a1 1 0 1 0-2 0a1 1 0 0 0 2 0m11.5 7a4.5 4.5 0 1 1-9 0a4.5 4.5 0 0 1 9 0m-4-2a.5.5 0 0 0-1 0V14h-1.5a.5.5 0 0 0 0 1H14v1.5a.5.5 0 0 0 1 0V15h1.5a.5.5 0 0 0 0-1H15z"/></svg>