<svg xmlns="http://www.w3.org/2000/svg" width="1em" height="1em" viewBox="0 0 20 20"><path fill="currentColor" d="M16.245 5A7.985 7.985 0 0 0 10 2a7.985 7.985 0 0 0-6.245 3H5.1A6.977 6.977 0 0 1 10 3a6.98 6.98 0 0 1 4.899 2zm1.693 6H16.93A7.001 7.001 0 0 1 3 10H2a8 8 0 0 0 15.938 1M3 6h15v2h-1v2h-1v1h-4v-1h-1V8h-1v2H9v1H5v-1H4V8H2V7h1zM1 9V8h1v1zm0 0v2H0V9zm4-1v1h1V8zm1 1v1h1V9zm6-1v1h1V8zm1 1v1h1V9zm-6.111 3.514a.5.5 0 1 0-.778.63A4.991 4.991 0 0 0 10 15c1.57 0 2.973-.725 3.889-1.857a.5.5 0 1 0-.778-.629A3.991 3.991 0 0 1 10 14a3.991 3.991 0 0 1-3.111-1.486"/></svg>