<svg xmlns="http://www.w3.org/2000/svg" width="1em" height="1em" viewBox="0 0 20 20"><path fill="currentColor" d="M2 10a8.001 8.001 0 0 0 7.009 7.94c.009-.095.025-.19.05-.287l.173-.695a7.001 7.001 0 1 1 7.698-7.95c.343-.025.69.012 1.022.11A8.001 8.001 0 0 0 2 10m8.274 4.67l.82-.821a4.006 4.006 0 0 1-4.205-1.334a.5.5 0 1 0-.778.629A4.991 4.991 0 0 0 9.986 15a3.21 3.21 0 0 1 .288-.33M13.5 8.5a1 1 0 1 0-2 0a1 1 0 0 0 2 0m-5 0a1 1 0 1 0-2 0a1 1 0 0 0 2 0m2.48 6.877l4.83-4.83a1.87 1.87 0 1 1 2.644 2.646l-4.83 4.829a2.197 2.197 0 0 1-1.02.578l-1.498.374a.89.89 0 0 1-1.079-1.078l.375-1.498a2.18 2.18 0 0 1 .578-1.02"/></svg>