<svg xmlns="http://www.w3.org/2000/svg" width="1em" height="1em" viewBox="0 0 28 28"><path fill="currentColor" d="M9.5 14c0-.858.036-1.694.103-2.5h8.794c.067.806.103 1.642.103 2.5a28.52 28.52 0 0 1-.346 4.5H9.846A28.62 28.62 0 0 1 9.5 14m-1.172 4.5a31.461 31.461 0 0 1-.23-7H2.261A12.04 12.04 0 0 0 2 14c0 1.591.31 3.11.872 4.5zM3.605 20H8.6c.259 1.217.595 2.33.995 3.301c.357.866.771 1.638 1.242 2.277A12.026 12.026 0 0 1 3.606 20m6.53 0h7.73a17.33 17.33 0 0 1-.846 2.73c-.453 1.1-.973 1.94-1.513 2.495C14.97 25.777 14.46 26 14 26c-.46 0-.969-.223-1.506-.775c-.54-.554-1.06-1.395-1.513-2.495a17.33 17.33 0 0 1-.846-2.73m9.266 0a19.243 19.243 0 0 1-.995 3.301c-.357.866-.771 1.638-1.242 2.277A12.026 12.026 0 0 0 24.394 20zm5.727-1.5c.562-1.39.872-2.909.872-4.5c0-.857-.09-1.694-.26-2.5h-5.838a31.48 31.48 0 0 1-.23 7zm-8.11-13.23c.537 1.301.957 2.914 1.211 4.73H9.771c.254-1.816.674-3.429 1.21-4.73c.453-1.1.973-1.94 1.513-2.495C13.03 2.223 13.54 2 14 2c.46 0 .969.223 1.506.775c.54.554 1.06 1.395 1.513 2.495M19.744 10h5.574a12.027 12.027 0 0 0-8.153-7.578c.47.639.885 1.411 1.242 2.277c.61 1.483 1.072 3.293 1.337 5.301m-17.06 0h5.574c.265-2.008.727-3.818 1.337-5.301c.357-.866.771-1.638 1.242-2.277A12.027 12.027 0 0 0 2.683 10"/></svg>