<svg xmlns="http://www.w3.org/2000/svg" width="1em" height="1em" viewBox="0 0 12 12"><path fill="currentColor" d="M7.915 2H8.5A1.5 1.5 0 0 1 10 3.5v6A1.5 1.5 0 0 1 8.5 11h-5A1.5 1.5 0 0 1 2 9.5v-6A1.5 1.5 0 0 1 3.5 2h.585A1.5 1.5 0 0 1 5.5 1h1a1.5 1.5 0 0 1 1.415 1M5 2.5a.5.5 0 0 0 .5.5h1a.5.5 0 0 0 0-1h-1a.5.5 0 0 0-.5.5M7 5a1 1 0 1 0-2 0a1 1 0 0 0 2 0M4 7.5v.003a1.337 1.337 0 0 0 .038.274c.036.144.107.334.25.523c.3.402.84.7 1.712.7s1.411-.298 1.713-.7a1.464 1.464 0 0 0 .281-.704A.953.953 0 0 0 8 7.503V7.5a.5.5 0 0 0-.5-.5h-3a.5.5 0 0 0-.5.5"/></svg>