<svg xmlns="http://www.w3.org/2000/svg" width="1em" height="1em" viewBox="0 0 20 20"><path fill="currentColor" d="m14.878 1.282l.348 1.071a2.205 2.205 0 0 0 1.399 1.397l1.071.348l.021.006a.423.423 0 0 1 0 .798l-1.071.348a2.208 2.208 0 0 0-1.399 1.397l-.348 1.07a.423.423 0 0 1-.798 0l-.349-1.07a2.23 2.23 0 0 0-.532-.867a2.224 2.224 0 0 0-.866-.536l-1.071-.348a.423.423 0 0 1 0-.798l1.071-.348a2.208 2.208 0 0 0 1.377-1.397l.348-1.07a.423.423 0 0 1 .799 0m4.905 7.931l-.766-.248a1.577 1.577 0 0 1-.998-.999l-.25-.764a.302.302 0 0 0-.57 0l-.248.764a1.576 1.576 0 0 1-.984.999l-.765.248a.303.303 0 0 0 0 .57l.765.249a1.578 1.578 0 0 1 1 1.002l.248.764a.302.302 0 0 0 .57 0l.249-.764a1.576 1.576 0 0 1 .999-.999l.765-.248a.303.303 0 0 0 0-.57zM17.502 13c-.174 0-.344-.035-.502-.1v1.224a.5.5 0 0 1-.316.464l-6 2.377A.5.5 0 0 1 10 16.5V9.877a.5.5 0 0 1 .316-.465l2.927-1.16a1.402 1.402 0 0 1-.09-.2l-.245-.742l-2.96 1.172A1.5 1.5 0 0 0 9 9.877V16.5a1.5 1.5 0 0 0 2.052 1.395l6-2.377A1.5 1.5 0 0 0 18 14.124V12.92a1.453 1.453 0 0 1-.498.079M10.26 5.317a1.426 1.426 0 0 1-.155-.282l-3.841 1.52A2 2 0 0 0 5 8.416v6.083a1.5 1.5 0 0 0 2.053 1.394L8 15.517V14.44l-1.316.522A.5.5 0 0 1 6 14.498V8.415a1 1 0 0 1 .632-.93l4.234-1.676a1.42 1.42 0 0 1-.606-.492m.69-2.163l.466-.15a1.502 1.502 0 0 0-1.969-.898L3.579 4.43A2.5 2.5 0 0 0 2 6.755v5.742a1.5 1.5 0 0 0 2 1.415v-1.075l-.316.125A.5.5 0 0 1 3 12.497V6.755a1.5 1.5 0 0 1 .948-1.395l5.867-2.324a.5.5 0 0 1 .678.383c.133-.115.288-.204.458-.265"/></svg>