<svg xmlns="http://www.w3.org/2000/svg" width="1em" height="1em" viewBox="0 0 20 20"><path fill="currentColor" d="M10 2a6 6 0 0 0-6 6c0 1.468.843 3.007 1.807 4.306c.98 1.319 2.152 2.48 2.945 3.207a1.835 1.835 0 0 0 2.496 0c.793-.727 1.966-1.888 2.945-3.207C15.157 11.007 16 9.468 16 8a6 6 0 0 0-6-6m2 6a2 2 0 1 1-4 0a2 2 0 0 1 4 0m2.42 5.638a22.48 22.48 0 0 1-.715.826c.254.072.492.15.712.235c.554.213.969.455 1.236.698c.267.243.347.447.347.603c0 .156-.08.36-.347.603c-.267.243-.682.485-1.236.698c-1.106.426-2.667.7-4.417.7s-3.311-.274-4.417-.7c-.554-.213-.969-.455-1.236-.698C4.08 16.36 4 16.156 4 16c0-.156.08-.36.347-.603c.267-.243.682-.485 1.236-.698a8.18 8.18 0 0 1 .712-.235a22.432 22.432 0 0 1-.715-.826a8.57 8.57 0 0 0-.356.128c-.621.239-1.159.536-1.55.891C3.284 15.012 3 15.466 3 16c0 .535.284.988.674 1.343c.391.355.929.652 1.55.892C6.471 18.715 8.16 19 10 19c1.84 0 3.529-.286 4.776-.765c.621-.24 1.159-.537 1.55-.892c.39-.355.674-.808.674-1.343c0-.534-.284-.988-.674-1.343c-.391-.355-.929-.652-1.55-.891a8.564 8.564 0 0 0-.356-.128"/></svg>