<svg xmlns="http://www.w3.org/2000/svg" width="1em" height="1em" viewBox="0 0 32 32"><path fill="currentColor" d="M7 9.5a3.5 3.5 0 1 1 7 0a3.5 3.5 0 0 1-7 0M10.5 4a5.5 5.5 0 1 0 0 11a5.5 5.5 0 0 0 0-11M21 11a2 2 0 1 1 4 0a2 2 0 0 1-4 0m2-4a4 4 0 1 0 0 8a4 4 0 0 0 0-8m-7 10c.387 0 .757.073 1.096.207A9.045 9.045 0 0 0 15.516 19H5a1 1 0 0 0-1 1v.19a2.913 2.913 0 0 0 .085.498c.09.348.273.818.641 1.291C5.431 22.883 6.98 24 10.5 24c1.5 0 2.643-.203 3.514-.506a9.116 9.116 0 0 0 .12 2.057c-1.006.283-2.205.449-3.634.449c-3.98 0-6.18-1.29-7.351-2.792a5.564 5.564 0 0 1-1-2.017a4.905 4.905 0 0 1-.146-.898a2.494 2.494 0 0 1-.002-.067v-.023L2 20.195V20a3 3 0 0 1 3-3zm7 14.5a7.5 7.5 0 1 0 0-15a7.5 7.5 0 0 0 0 15m1-12.25V23h3.75a.75.75 0 0 1 0 1.5H24v3.75a.75.75 0 0 1-1.5 0V24.5h-3.75a.75.75 0 0 1 0-1.5h3.75v-3.75a.75.75 0 0 1 1.5 0"/></svg>