<svg xmlns="http://www.w3.org/2000/svg" width="1em" height="1em" viewBox="0 0 20 20"><path fill="currentColor" d="M6.75 3.5a2.25 2.25 0 1 0 0 4.5a2.25 2.25 0 0 0 0-4.5M3.5 5.75a3.25 3.25 0 1 1 6.5 0a3.25 3.25 0 0 1-6.5 0m0 4.25a2 2 0 0 0-2 2c0 .087.003.172.012.26a3.948 3.948 0 0 0 .67 1.806C2.883 15.08 4.237 16 6.75 16c.946 0 1.727-.13 2.371-.347a5.6 5.6 0 0 1-.12-1.02c-.564.222-1.297.367-2.251.367c-2.237 0-3.258-.799-3.745-1.503a2.948 2.948 0 0 1-.498-1.336A1.779 1.779 0 0 1 2.5 12a1 1 0 0 1 1-1H10c.08 0 .16.01.235.028c.227-.28.48-.535.758-.765A1.991 1.991 0 0 0 10 10zm11-5a1.5 1.5 0 1 0 0 3a1.5 1.5 0 0 0 0-3M12 6.5a2.5 2.5 0 1 1 5 0a2.5 2.5 0 0 1-5 0M14.5 19a4.5 4.5 0 1 0 0-9a4.5 4.5 0 0 0 0 9M12 14.5a.5.5 0 0 1 .5-.5h4a.5.5 0 0 1 0 1h-4a.5.5 0 0 1-.5-.5"/></svg>