<svg xmlns="http://www.w3.org/2000/svg" width="1em" height="1em" viewBox="0 0 24 24"><path fill="currentColor" d="m11.94 14.06l-.058-.06h-7.63a2.249 2.249 0 0 0-2.248 2.249v.92c0 .572.178 1.13.51 1.596C4.056 20.929 6.58 22 10 22c.67 0 1.305-.041 1.906-.123a1.5 1.5 0 0 1-.77-2.004c.112-.245.295-.419.38-.498c.102-.096.235-.208.374-.325l.61-.516V16c0-.423.053-.834.152-1.226zM10 2.006a5 5 0 1 1 0 10a5 5 0 0 1 0-10M13.502 16a4 4 0 0 1 .291-1.5l-1.147-1.146a.5.5 0 0 1 .708-.708l9 9a.5.5 0 0 1-.708.708L20.293 21h-7.3c-.403 0-.604 0-.706-.047a.5.5 0 0 1-.241-.662c.046-.101.2-.231.508-.49l.948-.801zm8 2v-2A4 4 0 0 0 15 12.879l6.5 6.5V18zm-4 5c.693 0 1.282-.417 1.5-1h-3c.219.583.808 1 1.5 1"/></svg>