<svg xmlns="http://www.w3.org/2000/svg" width="0.96em" height="1em" viewBox="0 0 20 21"><path fill="currentColor" d="M10 2a4 4 0 1 0 0 8a4 4 0 0 0 0-8m-4.991 9A2.001 2.001 0 0 0 3 13c0 1.691.833 2.966 2.135 3.797C6.417 17.614 8.145 18 10 18c1.855 0 3.583-.386 4.865-1.203a5.44 5.44 0 0 0 .278-.19v-2.226a3.856 3.856 0 0 1-2-3.381zm8.99 0c0 1.306.835 2.418 2 2.83v1.986L16 18.858c0 .1.035.196.098.272l.599.728c.162.197.459.21.637.028l1.534-1.565a.429.429 0 0 0-.02-.62L17.5 16.5l1.351-1.177a.429.429 0 0 0 0-.646l-.939-.818A3.001 3.001 0 0 0 17 8a3 3 0 0 0-3 3m4-1a1 1 0 1 1-2 0a1 1 0 0 1 2 0"/></svg>