<svg xmlns="http://www.w3.org/2000/svg" width="1em" height="1em" viewBox="0 0 24 24"><path fill="currentColor" d="M12.5 16c0-.711.15-1.388.417-2H4.253a2.249 2.249 0 0 0-2.25 2.249v.92c0 .572.18 1.13.511 1.596C4.056 20.929 6.58 22 10 22c.67 0 1.305-.041 1.906-.123a1.5 1.5 0 0 1-.77-2.004c.112-.245.295-.419.38-.498c.102-.096.235-.208.374-.325l.61-.516zM10 2.005a5 5 0 1 1 0 10a5 5 0 0 1 0-10M17.503 12a4 4 0 0 0-4 4v3l-.95.8c-.307.26-.46.39-.507.491a.5.5 0 0 0 .242.662c.1.047.302.047.704.047h9.02c.403 0 .604 0 .705-.047a.5.5 0 0 0 .242-.662c-.047-.101-.2-.231-.508-.49L21.503 19v-3a4 4 0 0 0-4-4m1.5 10c-.219.583-.808 1-1.5 1c-.693 0-1.282-.417-1.5-1z"/></svg>