<svg xmlns="http://www.w3.org/2000/svg" width="1em" height="1em" viewBox="0 0 20 20"><path fill="currentColor" d="M10 2a2 2 0 0 0-2 2v4a2 2 0 0 0 1.5 1.937v2.356L6.354 9.146a.5.5 0 1 0-.708.708L9.5 13.707v.793a.5.5 0 0 0 1 0v-.793l3.854-3.853a.5.5 0 0 0-.708-.708L10.5 12.293V9.937A2 2 0 0 0 12 8V4a2 2 0 0 0-2-2M9 4a1 1 0 0 1 2 0v4a1 1 0 1 1-2 0zm-3.776 8.766c.444-.171.944-.317 1.486-.435l.856.856c-.754.122-1.426.298-1.983.512c-.554.213-.969.455-1.236.698C4.08 14.64 4 14.844 4 15c0 .156.08.36.347.603c.267.243.682.485 1.236.698C6.69 16.726 8.25 17 10 17s3.311-.274 4.417-.699c.554-.213.969-.455 1.236-.698c.267-.243.347-.447.347-.603c0-.156-.08-.36-.347-.603c-.267-.243-.682-.485-1.236-.698a10.054 10.054 0 0 0-1.983-.512l.856-.856c.543.118 1.042.264 1.486.434c.621.24 1.159.537 1.55.892c.39.355.674.808.674 1.343c0 .534-.284.988-.674 1.343c-.391.355-.929.652-1.55.891c-1.247.48-2.936.766-4.776.766c-1.84 0-3.529-.286-4.776-.766c-.621-.239-1.159-.536-1.55-.891C3.284 15.988 3 15.534 3 15c0-.535.284-.988.674-1.343c.391-.355.929-.652 1.55-.892"/></svg>