<svg xmlns="http://www.w3.org/2000/svg" width="1em" height="1em" viewBox="0 0 16 16"><path fill="currentColor" d="m10.878.282l.348 1.071a2.205 2.205 0 0 0 1.398 1.397l1.072.348l.021.006a.423.423 0 0 1 0 .798l-1.071.348a2.208 2.208 0 0 0-1.399 1.397l-.348 1.07a.423.423 0 0 1-.798 0l-.348-1.07a2.204 2.204 0 0 0-1.399-1.403l-1.072-.348a.423.423 0 0 1 0-.798l1.072-.348a2.208 2.208 0 0 0 1.377-1.397l.348-1.07a.423.423 0 0 1 .799 0m4.905 7.931l-.765-.248a1.577 1.577 0 0 1-1-.999l-.248-.764a.302.302 0 0 0-.57 0l-.25.764a1.576 1.576 0 0 1-.983.999l-.765.248a.303.303 0 0 0 0 .57l.765.249a1.578 1.578 0 0 1 1 1.002l.248.764a.302.302 0 0 0 .57 0l.249-.764a1.576 1.576 0 0 1 .999-.999l.765-.248a.303.303 0 0 0 0-.57zM12 10.5v-.19l.014.037l.26.802c.1.25.26.46.481.62c.049.034.099.063.15.09A4.001 4.001 0 0 1 9 15H5.5a2.496 2.496 0 0 1-2-1H9a3 3 0 0 0 3-3v-.387zM6.088 3H3.5A2.5 2.5 0 0 0 1 5.5v5A2.5 2.5 0 0 0 3.5 13h5a2.5 2.5 0 0 0 2.5-2.5v-.729l-.106-.035c-.27-.1-.49-.26-.65-.48c-.16-.22-.24-.481-.24-.752L10 8.498V10.5A1.5 1.5 0 0 1 8.5 12h-5A1.5 1.5 0 0 1 2 10.5v-5A1.5 1.5 0 0 1 3.5 4H4v.5A1.5 1.5 0 0 0 5.5 6h3.306l-.013-.04c-.09-.23-.18-.36-.29-.47a1.311 1.311 0 0 0-.471-.291L7.43 5H5.5a.5.5 0 0 1-.5-.5V4h1.09A1.418 1.418 0 0 1 6 3.496c0-.173.03-.34.088-.496"/></svg>