<svg xmlns="http://www.w3.org/2000/svg" width="1em" height="1em" viewBox="0 0 24 24"><path fill="currentColor" d="M7.02 3a2.25 2.25 0 0 0-2.219 1.88L3.98 9.815A6 6 0 1 0 12.659 17h3.376a3.5 3.5 0 1 0 5.963-1.951V12.25A3.25 3.25 0 0 0 18.748 9H17.5V6.75a.75.75 0 0 0-1.5 0V9h-2.115L13.2 4.88A2.25 2.25 0 0 0 10.979 3zm5.96 12.5a5.985 5.985 0 0 0-2.01-5h2.266a.58.58 0 0 0 .026 0h5.486c.967 0 1.75.784 1.75 1.75v1.894a3.503 3.503 0 0 0-3.87 1.356zM7.037 9H7c-.48 0-.945.056-1.392.162l.673-4.035a.75.75 0 0 1 .74-.627h3.958a.75.75 0 0 1 .74.627L12.365 9H7.063zM19.5 15.5a2 2 0 1 1 0 4a2 2 0 0 1 0-4m-17-.5a4.5 4.5 0 1 1 9 0a4.5 4.5 0 0 1-9 0"/></svg>