<svg xmlns="http://www.w3.org/2000/svg" width="1em" height="1em" viewBox="0 0 20 20"><path fill="currentColor" d="M6 3a3 3 0 0 0-3 3v8a3 3 0 0 0 3 3h2.085A1.498 1.498 0 0 1 8 16.5V16H6a2 2 0 0 1-2-2V7h12v2.6c.358.182.693.403 1 .657V6a3 3 0 0 0-3-3zM4 6a2 2 0 0 1 2-2h8a2 2 0 0 1 2 2zm8 4.59c0 .346.366.58.704.5a3.498 3.498 0 0 1 3.802 1.615a.581.581 0 0 0 .491.295c.365 0 .618-.361.44-.68a4.499 4.499 0 0 0-5.118-2.164a.442.442 0 0 0-.319.433m-1 1.229c0-.453-.497-.706-.805-.374A4.484 4.484 0 0 0 9 14.5v2a.5.5 0 0 0 1 0v-2c0-.87.318-1.667.844-2.28a.621.621 0 0 0 .156-.4m7 2.62a.456.456 0 0 0-.468-.439h-.066c-.265 0-.466.235-.466.5v2a.5.5 0 0 0 1 0v-2zM13.5 13a1.5 1.5 0 0 0-1.5 1.5a.5.5 0 0 1-1 0a2.5 2.5 0 0 1 5 0V18a.5.5 0 0 1-1 0v-3.5a1.5 1.5 0 0 0-1.5-1.5m-2 3a.5.5 0 0 1 .5.5V18a.5.5 0 0 1-1 0v-1.5a.5.5 0 0 1 .5-.5m2.5-1.5a.5.5 0 0 0-1 0v4a.5.5 0 0 0 1 0z"/></svg>