<svg xmlns="http://www.w3.org/2000/svg" width="1em" height="1em" viewBox="0 0 24 24"><path fill="currentColor" d="M11 13v2q0 .425.288.713T12 16q.425 0 .713-.288T13 15v-2h2q.425 0 .713-.288T16 12q0-.425-.288-.712T15 11h-2V9q0-.425-.288-.712T12 8q-.425 0-.712.288T11 9v2H9q-.425 0-.712.288T8 12q0 .425.288.713T9 13zm1 9q-.4 0-.763-.137t-.637-.438l-7.975-8q-.275-.3-.45-.663T2 12q0-.4.175-.763t.45-.637l7.975-8q.3-.3.65-.45T12 2q.4 0 .775.15t.65.45l7.95 8q.275.3.45.65T22 12q0 .4-.162.763t-.463.662l-7.95 8q-.275.275-.65.425T12 22m0-2l7.975-8L12 4l-7.975 8zm0-8"/></svg>