<svg xmlns="http://www.w3.org/2000/svg" width="1em" height="1em" viewBox="0 0 24 24"><path fill="currentColor" d="M6 15q-.425 0-.712-.288T5 14q0-.425.288-.712T6 13q.425 0 .713.288T7 14q0 .425-.288.713T6 15m0 4q-.425 0-.712-.288T5 18q0-.425.288-.712T6 17q.425 0 .713.288T7 18q0 .425-.288.713T6 19m0-8q-.425 0-.712-.288T5 10q0-.425.288-.712T6 9q.425 0 .713.288T7 10q0 .425-.288.713T6 11m-3-.5q-.2 0-.35-.15T2.5 10q0-.2.15-.35T3 9.5q.2 0 .35.15t.15.35q0 .2-.15.35T3 10.5M6 7q-.425 0-.712-.288T5 6q0-.425.288-.712T6 5q.425 0 .713.288T7 6q0 .425-.288.713T6 7m-3 7.5q-.2 0-.35-.15T2.5 14q0-.2.15-.35T3 13.5q.2 0 .35.15t.15.35q0 .2-.15.35T3 14.5m7 7q-.2 0-.35-.15T9.5 21q0-.2.15-.35t.35-.15q.2 0 .35.15t.15.35q0 .2-.15.35t-.35.15m0-18q-.2 0-.35-.15T9.5 3q0-.2.15-.35T10 2.5q.2 0 .35.15t.15.35q0 .2-.15.35T10 3.5M10 7q-.425 0-.712-.288T9 6q0-.425.288-.712T10 5q.425 0 .713.288T11 6q0 .425-.288.713T10 7m0 8.5q-.625 0-1.062-.437T8.5 14q0-.625.438-1.062T10 12.5q.625 0 1.063.438T11.5 14q0 .625-.437 1.063T10 15.5m0-4q-.625 0-1.062-.437T8.5 10q0-.625.438-1.062T10 8.5q.625 0 1.063.438T11.5 10q0 .625-.437 1.063T10 11.5m0 7.5q-.425 0-.712-.288T9 18q0-.425.288-.712T10 17q.425 0 .713.288T11 18q0 .425-.288.713T10 19m9-7q0-2.65-1.725-4.6T13 5.075q-.425-.05-.713-.35T12 4q0-.425.3-.712t.725-.238q3.375.4 5.675 2.938T21 12q0 3.475-2.3 6.013t-5.675 2.937q-.425.05-.725-.237T12 20q0-.425.288-.725t.712-.35q2.55-.375 4.275-2.325T19 12m-7 0"/></svg>