<svg xmlns="http://www.w3.org/2000/svg" width="1em" height="1em" viewBox="0 0 24 24"><path fill="currentColor" d="M17 20q1.475 0 2.738-.675T21.75 17.5q-.75-1.15-2.013-1.825T17 15q-1.475 0-2.738.675T12.25 17.5q.75 1.15 2.013 1.825T17 20m0 2q-1.95 0-3.575-.85t-2.65-2.275q-.2-.3-.312-.638t-.113-.687q0-.35.1-.725t.325-.7q1-1.425 2.638-2.275T17 13q1.95 0 3.575.85t2.65 2.275q.2.3.313.638t.112.687q0 .35-.1.725t-.325.7q-1 1.425-2.637 2.275T17 22m0-3q-.625 0-1.062-.437T15.5 17.5q0-.625.438-1.062T17 16q.625 0 1.063.438T18.5 17.5q0 .625-.437 1.063T17 19m-9.025 2.175q-2.75-1.2-4.362-3.675T2 12q0-2.075.788-3.9t2.137-3.175q1.35-1.35 3.175-2.137T12 2q3.875 0 6.688 2.525t3.237 6.35q.05.5-.225.763t-.65.312q-.375.05-.712-.162t-.388-.713q-.35-3.025-2.625-5.05T12 4q-1.4 0-2.637.45T7.1 5.7l5.225 5.225q.35.35.313.738t-.313.662q-.275.275-.662.313t-.738-.313L5.7 7.1q-.8 1.025-1.25 2.263T4 12q0 2.475 1.325 4.438t3.45 2.887q.5.2.6.588t-.05.737q-.15.35-.513.538t-.837-.013"/></svg>