<svg xmlns="http://www.w3.org/2000/svg" width="1em" height="1em" viewBox="0 0 24 24"><path fill="currentColor" d="M22 9v8q0 .5-.312.75T21 18q-.375 0-.687-.262T20 16.975V9h-7.5q-.825 0-1.412-.587T10.5 7V5H8.025q-.5 0-.75-.312T7.025 4q0-.375.25-.687T8.025 3H10.5q.825 0 1.413.588T12.5 5v2H20q.825 0 1.413.588T22 9m-2.2 13.625L18.15 21H4q-.825 0-1.412-.587T2 19V4.8l-.6-.6q-.275-.275-.275-.7t.275-.7q.275-.275.7-.275t.7.275l18.4 18.4q.275.275.288.688t-.288.712q-.275.275-.687.288t-.713-.263M4 19h2v-2H4zm0-4h2v-2H4zm0-4h2V9H4zm4 8h2v-2H8zm0-4h2v-2H8zm4 4h4.15l-2-2H12zm6-6h-2v-2h2z"/></svg>