<svg xmlns="http://www.w3.org/2000/svg" width="1em" height="1em" viewBox="0 0 24 24"><path fill="currentColor" d="M15.5 23q-2.075 0-3.863-1.075T8.9 19.05q-.2-.425-.2-.862t.25-.838q.25-.4.65-.625t.875-.225H16.7q.025-.275.038-.537t.012-.538q0-.225-.012-.462T16.7 14.5h-.475q-.425 0-.713-.288t-.287-.712q0-.425.288-.712t.712-.288H20.1q-.35-.55-.825-.987t-1.05-.763q-.425-.225-.575-.65t.025-.8q.175-.375.525-.525t.675.025q1.9.95 3.013 2.762T23 15.5q0 3.125-2.187 5.313T15.5 23m-2.375-2.55q-.175-.5-.312-.975t-.238-.975H10.9q.425.625.987 1.125t1.238.825m2.375.35q.3-.55.513-1.125t.362-1.175h-1.75q.15.6.375 1.175t.5 1.125m2.375-.35q.675-.325 1.238-.825T20.1 18.5h-1.675q-.125.5-.25.975t-.3.975m.825-3.95h2.2q.05-.25.075-.488T21 15.5q0-.275-.025-.513T20.9 14.5h-2.2q.025.225.038.463t.012.462q0 .275-.012.538t-.038.537M8.5 16q-3.125 0-5.313-2.187T1 8.5q0-3.125 2.188-5.312T8.5 1q3.125 0 5.313 2.188T16 8.5q0 3.125-2.187 5.313T8.5 16m0-2q2.275 0 3.888-1.612T14 8.5q0-2.275-1.612-3.887T8.5 3Q6.225 3 4.613 4.613T3 8.5q0 2.275 1.613 3.888T8.5 14M6 8q.425 0 .713-.288T7 7q0-.425-.288-.712T6 6q-.425 0-.712.288T5 7q0 .425.288.713T6 8m2.5 4.4q1.2 0 2.138-.675T12 10H5q.425 1.05 1.363 1.725T8.5 12.4M11 8q.425 0 .713-.288T12 7q0-.425-.288-.712T11 6q-.425 0-.712.288T10 7q0 .425.288.713T11 8m-2.5.5"/></svg>