<svg xmlns="http://www.w3.org/2000/svg" width="1em" height="1em" viewBox="0 0 24 24"><path fill="currentColor" d="M17.2 6.8q.075.075.1.188t-.025.237l-2.075 4.2q-.125.225-.362.275t-.438-.15L12.45 9.6q-.2-.2-.15-.437t.275-.363l4.2-2.075q.125-.05.238-.025t.187.1M12 20q1.075 0 2.1-.275t1.95-.825l-4-4l-4.825 2.375q-.25.125-.437-.062t-.063-.438L9.05 11.9L5.1 7.95q-.55.925-.825 1.95T4 12q0 3.35 2.325 5.675T12 20m0 2q-2.075 0-3.9-.787t-3.175-2.138q-1.35-1.35-2.137-3.175T2 12q0-1.475.425-2.875T3.65 6.5L2.075 4.925q-.3-.3-.3-.712t.3-.713q.3-.3.713-.3t.712.3l17 17q.275.275.275.7t-.275.7q-.3.3-.712.3t-.713-.3L17.5 20.35q-1.225.8-2.625 1.225T12 22M7.85 2.9q.975-.45 2.025-.675T12 2q2 0 3.825.75t3.25 2.175Q20.5 6.35 21.25 8.175T22 12q0 1.075-.225 2.125T21.1 16.15q-.175.375-.575.488t-.75-.088q-.35-.2-.475-.6t.05-.8q.325-.75.487-1.55T20 12q0-3.35-2.325-5.675T12 4q-.8 0-1.6.163t-1.55.487q-.4.175-.8.05t-.6-.475q-.2-.35-.088-.75T7.85 2.9"/></svg>