<svg xmlns="http://www.w3.org/2000/svg" width="1em" height="1em" viewBox="0 0 24 24"><path fill="currentColor" d="M3 23q-.825 0-1.412-.587T1 21v-2q0-.425.288-.712T2 18q.425 0 .713.288T3 19v2h2q.425 0 .713.288T6 22q0 .425-.288.713T5 23zm18 0h-2q-.425 0-.712-.288T18 22q0-.425.288-.712T19 21h2v-2q0-.425.288-.712T22 18q.425 0 .713.288T23 19v2q0 .825-.587 1.413T21 23m-9-4.5q-2.65 0-4.9-1.4t-3.525-3.825q-.15-.3-.225-.612t-.075-.638q0-.35.075-.675t.225-.625Q4.85 8.3 7.1 6.9T12 5.5q2.65 0 4.9 1.4t3.525 3.825q.15.3.225.613t.075.662q0 .35-.075.663t-.225.612Q19.15 15.7 16.9 17.1T12 18.5m0-3q1.45 0 2.475-1.025T15.5 12q0-1.45-1.025-2.475T12 8.5q-1.45 0-2.475 1.025T8.5 12q0 1.45 1.025 2.475T12 15.5m0-2q-.625 0-1.063-.437T10.5 12q0-.625.438-1.062T12 10.5q.625 0 1.063.438T13.5 12q0 .625-.437 1.063T12 13.5M5 3H3v3H1V3q0-.825.588-1.412T3 1h2q.425 0 .713.288T6 2q0 .425-.288.713T5 3m18 0v2q0 .425-.288.713T22 6q-.425 0-.712-.288T21 5V3h-2q-.425 0-.712-.288T18 2q0-.425.288-.712T19 1h2q.825 0 1.413.588T23 3"/></svg>