<svg xmlns="http://www.w3.org/2000/svg" width="1em" height="1em" viewBox="0 0 24 24"><path fill="currentColor" d="m19.65 21.4l-1.5-1.5q-1.275.975-2.825 1.538T12.05 22q-2.05 0-3.875-.788t-3.187-2.15q-1.363-1.362-2.15-3.187T2.05 12q0-1.725.563-3.287T4.15 5.875L2.65 4.4q-.275-.275-.275-.7T2.65 3q.275-.275.7-.275t.7.275l17 17q.275.275.275.7t-.275.7q-.275.275-.7.275t-.7-.275m2.4-9.4q0 1.325-.262 2.337t-.363 1.163q-.1.175-.25.313t-.325.212q-.175.075-.363.075t-.387-.075q-.375-.175-.537-.575t.012-.775q.125-.275.3-1.025T20.05 12q0-.6-.075-1.163T19.7 9.75q-.525.125-1.05.188t-1.1.062q-1.4 0-2.662-.363T12.5 8.6L8.4 4.5q-.475-.475-.35-1.112t.725-.863q.775-.275 1.588-.4T12.05 2q2.075 0 3.888.788t3.174 2.137q1.363 1.35 2.15 3.175t.788 3.9m-13 2.25q-.525 0-.888-.363T7.8 13q0-.525.363-.888t.887-.362q.525 0 .888.363T10.3 13q0 .525-.363.888t-.887.362m3 5.75q1.325 0 2.5-.387T16.7 18.5L7.725 9.475q-.75.8-1.687 1.4t-1.988.975V12q0 3.325 2.338 5.663T12.05 20"/></svg>