<svg xmlns="http://www.w3.org/2000/svg" width="1em" height="1em" viewBox="0 0 24 24"><path fill="currentColor" d="M1 12q0-1.4.525-2.675T3.05 7.05q1.125-1.125 2.638-1.663T8.8 5.05q.425.05.675.363t.2.737q-.05.425-.375.675t-.75.2q-1.125-.125-2.2.263T4.475 8.475q-.7.7-1.087 1.613T3 12q0 1 .388 1.913t1.087 1.612q.8.8 1.875 1.188t2.2.262q.425-.05.738.2t.362.675q.05.4-.187.725t-.663.375q-1.6.2-3.113-.337T3.05 16.95q-1-1-1.525-2.275T1 12m22 0q0 1.4-.525 2.675T20.95 16.95q-1.125 1.125-2.637 1.625t-3.088.35q-.425-.05-.675-.35t-.2-.725q.05-.425.363-.675t.737-.2q1.125.125 2.2-.263t1.875-1.187q.7-.7 1.088-1.613T21 12q0-1-.387-1.912t-1.088-1.613q-.8-.8-1.875-1.187t-2.2-.263q-.425.05-.737-.2t-.363-.675q-.05-.425.2-.737t.675-.363q1.6-.175 3.1.35t2.625 1.65q1 1 1.525 2.275T23 12m-11 5.45q-.175 0-.35-.062t-.3-.188q-1.15-.95-1.75-2.325T9 12q0-1.5.6-2.875T11.35 6.8q.125-.125.3-.187T12 6.55q.175 0 .35.063t.3.187q1.15.95 1.75 2.325T15 12q0 1.5-.6 2.875T12.65 17.2q-.125.125-.3.188t-.35.062"/></svg>