<svg xmlns="http://www.w3.org/2000/svg" width="1em" height="1em" viewBox="0 0 24 24"><path fill="currentColor" d="M11 5.1V4q0-.425.288-.712T12 3q.425 0 .713.288T13 4v1.05q1.125.225 1.988.938T16.25 7.75q.15.4-.025.788t-.575.537q-.4.15-.788-.025t-.537-.575q-.3-.7-.912-1.112T12.05 6.95q-.45 0-.888.138t-.762.462q-.3.3-.725.3t-.725-.3q-.3-.3-.3-.725t.3-.725q.425-.425.95-.662T11 5.1m8.1 16.8L15.2 18q-.375.375-1.025.613T13 18.9V20q0 .425-.288.713T12 21q-.425 0-.712-.288T11 20v-1.15q-1.125-.275-1.95-.925t-1.3-1.575q-.2-.4-.075-.825T8.2 14.9q.425-.2.838-.05t.637.55q.375.7 1.013 1.15T12.2 17q.45 0 .825-.112t.725-.338L2.1 4.9q-.275-.275-.275-.7t.275-.7q.275-.275.7-.275t.7.275l17 17q.275.275.275.7t-.275.7q-.275.275-.7.275t-.7-.275"/></svg>