<svg xmlns="http://www.w3.org/2000/svg" width="1em" height="1em" viewBox="0 0 24 24"><path fill="currentColor" d="m12 19.175l1.425-1.425q.3-.3.7-.3t.7.3q.3.3.3.713t-.3.712L12.7 21.3q-.15.15-.325.213t-.375.062q-.2 0-.375-.062T11.3 21.3l-2.125-2.125q-.3-.3-.3-.712t.3-.713q.3-.3.7-.3t.7.3zM4.825 12l1.425 1.425q.3.3.3.7t-.3.7q-.3.3-.712.3t-.713-.3L2.7 12.7q-.15-.15-.213-.325T2.426 12q0-.2.063-.375T2.7 11.3l2.125-2.125q.3-.3.713-.3t.712.3q.3.3.3.7t-.3.7zm14.35 0l-1.425-1.425q-.3-.3-.3-.7t.3-.7q.3-.3.713-.3t.712.3L21.3 11.3q.15.15.212.325t.063.375q0 .2-.063.375t-.212.325l-2.125 2.125q-.3.3-.713.3t-.712-.3q-.3-.3-.3-.7t.3-.7zM12 4.825L10.575 6.25q-.3.3-.7.3t-.7-.3q-.3-.3-.3-.712t.3-.713L11.3 2.7q.15-.15.325-.213T12 2.425q.2 0 .375.062t.325.213l2.125 2.125q.3.3.3.712t-.3.713q-.3.3-.7.3t-.7-.3z"/></svg>