<svg xmlns="http://www.w3.org/2000/svg" width="1em" height="1em" viewBox="0 0 24 24"><path fill="currentColor" d="M11 12q-1.65 0-2.825-1.175T7 8q0-1.65 1.175-2.825T11 4q1.65 0 2.825 1.175T15 8q0 1.65-1.175 2.825T11 12m10.4 10.8l-2.5-2.5q-.525.3-1.125.5T16.5 21q-1.875 0-3.187-1.312T12 16.5q0-1.875 1.313-3.187T16.5 12q1.875 0 3.188 1.313T21 16.5q0 .675-.2 1.275t-.5 1.125l2.5 2.5q.275.275.275.7t-.275.7q-.275.275-.7.275t-.7-.275M16.5 19q1.05 0 1.775-.725T19 16.5q0-1.05-.725-1.775T16.5 14q-1.05 0-1.775.725T14 16.5q0 1.05.725 1.775T16.5 19M5 20q-.825 0-1.412-.587T3 18v-.775q0-.85.425-1.575t1.175-1.1q1.125-.575 2.488-.987t2.987-.538q.3-.025.45.25t.025.575q-.275.625-.413 1.288T10 16.475q0 .65.113 1.313t.387 1.262q.15.35-.025.65t-.525.3z"/></svg>