<svg xmlns="http://www.w3.org/2000/svg" width="1em" height="1em" viewBox="0 0 24 24"><path fill="currentColor" d="M13 18.825V22q0 .425-.288.713T12 23q-.425 0-.712-.288T11 22v-3.175l-.4.4q-.275.275-.687.275t-.713-.3q-.275-.275-.275-.7t.275-.7l2.1-2.1q.3-.3.7-.3t.7.3l2.1 2.1q.275.275.287.688t-.287.712q-.275.275-.687.288t-.713-.263zM5.175 13H2q-.425 0-.712-.288T1 12q0-.425.288-.712T2 11h3.175l-.4-.4q-.275-.275-.275-.687t.3-.713q.275-.275.7-.275t.7.275l2.1 2.1q.3.3.3.7t-.3.7l-2.1 2.1q-.275.275-.687.287T4.8 14.8q-.275-.275-.287-.687t.262-.713zm13.65 0l.4.4q.275.275.275.688t-.3.712q-.275.275-.7.275t-.7-.275l-2.1-2.1q-.3-.3-.3-.7t.3-.7l2.1-2.1q.275-.275.688-.287t.712.287q.275.275.288.688t-.263.712l-.4.4H22q.425 0 .713.288T23 12q0 .425-.288.713T22 13zM12 13.5q-.625 0-1.062-.437T10.5 12q0-.625.438-1.062T12 10.5q.625 0 1.063.438T13.5 12q0 .625-.437 1.063T12 13.5m-1-8.325V2q0-.425.288-.712T12 1q.425 0 .713.288T13 2v3.175l.4-.4q.275-.275.688-.275t.712.3q.275.275.275.7t-.275.7l-2.1 2.1q-.3.3-.7.3t-.7-.3L9.2 6.2q-.275-.275-.287-.687T9.2 4.8q.275-.275.688-.287t.712.262z"/></svg>