<svg xmlns="http://www.w3.org/2000/svg" width="1em" height="1em" viewBox="0 0 24 24"><path fill="currentColor" d="M13 14.425L11.875 13.2l-.325 1.65q-.075.425-.413.65t-.762.15l-2.3-.475q-.2-.05-.312-.212T7.7 14.6q.05-.2.225-.325T8.3 14.2l2.275.475l.975-4.9l-1.55.575v1.15q0 .2-.15.35T9.5 12q-.2 0-.35-.15T9 11.5v-1.15q0-.325.175-.575T9.65 9.4l2.625-.95q.375-.125.738.025t.537.5q.45.925.988 1.35t.962.575q.2.075.35.238t.15.362q0 .2-.15.338t-.35.087q-.55-.125-1.2-.537t-1.2-1.138l-.425 2.35l1.05 1.125q.125.125.2.313t.075.387V17.5q0 .2-.15.35t-.35.15q-.2 0-.35-.15T13 17.5zM13.5 8q-.425 0-.712-.288T12.5 7q0-.425.288-.712T13.5 6q.425 0 .713.288T14.5 7q0 .425-.288.713T13.5 8M12 22q-2.075 0-3.9-.788t-3.175-2.137q-1.35-1.35-2.137-3.175T2 12q0-2.075.788-3.9t2.137-3.175q1.35-1.35 3.175-2.137T12 2q2.075 0 3.9.788t3.175 2.137q1.35 1.35 2.138 3.175T22 12q0 2.075-.788 3.9t-2.137 3.175q-1.35 1.35-3.175 2.138T12 22m0-2q3.35 0 5.675-2.325T20 12q0-3.35-2.325-5.675T12 4Q8.65 4 6.325 6.325T4 12q0 3.35 2.325 5.675T12 20"/></svg>