<svg xmlns="http://www.w3.org/2000/svg" width="1em" height="1em" viewBox="0 0 24 24"><path fill="currentColor" d="M12 22q-3.2 0-5.4-2.025t-2.55-5.15q-.05-.475.213-.75T5 13.8q.475 0 .75.3t.325.725Q6.4 17.1 8.025 18.55T12 20q2.35 0 3.975-1.45t1.95-3.725q.05-.425.325-.725t.75-.3q.475 0 .738.275t.212.75q-.35 3.125-2.55 5.15T12 22M5 12q-.425 0-.712-.288T4 11q0-.425.288-.712T5 10q.425 0 .713.288T6 11q0 .425-.288.713T5 12m4.5 0q-.425 0-.712-.288T8.5 11q0-.425.288-.712T9.5 10q.425 0 .713.288T10.5 11q0 .425-.288.713T9.5 12m5 0q-.425 0-.712-.288T13.5 11q0-.425.288-.712T14.5 10q.425 0 .713.288T15.5 11q0 .425-.288.713T14.5 12m4.5 0q-.425 0-.712-.288T18 11q0-.425.288-.712T19 10q.425 0 .713.288T20 11q0 .425-.288.713T19 12M7.25 9.25q-.425 0-.712-.288T6.25 8.25q0-.425.288-.712t.712-.288q.425 0 .713.288t.287.712q0 .425-.288.713t-.712.287m9.5 0q-.425 0-.712-.288t-.288-.712q0-.425.288-.712t.712-.288q.425 0 .713.288t.287.712q0 .425-.288.713t-.712.287M12 9q-.425 0-.712-.288T11 8q0-.425.288-.712T12 7q.425 0 .713.288T13 8q0 .425-.288.713T12 9M9.5 6.5q-.425 0-.712-.288T8.5 5.5q0-.425.288-.712T9.5 4.5q.425 0 .713.288t.287.712q0 .425-.288.713T9.5 6.5m5 0q-.425 0-.712-.288T13.5 5.5q0-.425.288-.712T14.5 4.5q.425 0 .713.288t.287.712q0 .425-.288.713T14.5 6.5M12 4q-.425 0-.712-.288T11 3q0-.425.288-.712T12 2q.425 0 .713.288T13 3q0 .425-.288.713T12 4m0 9.8"/></svg>