<svg xmlns="http://www.w3.org/2000/svg" width="1em" height="1em" viewBox="0 0 24 24"><path fill="currentColor" d="M17 4h2V3q0-.425-.288-.712T18 2q-.425 0-.712.288T17 3zm-4 18.95q-2.475 0-4.663-.95t-3.812-2.575Q2.9 17.8 1.95 15.613T1 10.95q0-.425.288-.712T2 9.95q.425 0 .713.288T3 10.95q0 1.8.613 3.425T5.3 17.3q1.075 1.3 2.55 2.213t3.175 1.262L9.1 18.85q-.275-.275-.275-.7t.275-.7q.275-.275.7-.275t.7.275l4.25 4.25q.3.3.175.7t-.55.475q-.35.05-.688.063T13 22.95m1.75-4q-.35 0-.713-.137T13.4 18.4l-7.85-7.85q-.275-.275-.412-.638T5 9.2q0-.375.138-.725t.412-.625L10.1 3.3q.25-.25.538-.362t.612-.113q.325 0 .613.113t.537.362l.025.025q.275.275.425.638t.15.762V8.15q0 1.2.825 2.025T15.85 11h3.425q.375 0 .738.138t.637.412q.25.225.375.525t.125.625q0 .3-.112.588t-.338.512l-4.6 4.6q-.275.275-.625.413t-.725.137M15.85 9q-.35 0-.6-.25t-.25-.6v-3.3q0-.35.25-.6t.6-.25H16V3q0-.825.588-1.412T18 1q.825 0 1.413.588T20 3v1h.15q.35 0 .6.25t.25.6v3.3q0 .35-.25.6t-.6.25z"/></svg>