<svg xmlns="http://www.w3.org/2000/svg" width="1em" height="1em" viewBox="0 0 24 24"><path fill="currentColor" d="M10 22q-.825 0-1.412-.587T8 20v-1q0-.425.288-.712T9 18q.425 0 .713.288T10 19v1h10V10h-1q-.425 0-.712-.288T18 9q0-.425.288-.712T19 8h1q.825 0 1.413.588T22 10v10q0 .825-.587 1.413T20 22zm-1-6q-2.925 0-4.962-2.037T2 9q0-2.925 2.038-4.962T9 2q2.925 0 4.963 2.038T16 9q0 2.925-2.037 4.963T9 16m0-2q2.075 0 3.538-1.463T14 9q0-2.075-1.463-3.537T9 4Q6.925 4 5.463 5.463T4 9q0 2.075 1.463 3.538T9 14m0-5"/></svg>