<svg xmlns="http://www.w3.org/2000/svg" width="1em" height="1em" viewBox="0 0 24 24"><path fill="currentColor" d="M6 23q-2.075 0-3.537-1.463T1 18q0-2.075 1.463-3.537T6 13q2.075 0 3.538 1.463T11 18q0 2.075-1.463 3.538T6 23m0-4.3l1.4 1.425q.15.15.35.15t.35-.15q.15-.15.15-.363T8.1 19.4L6.7 18l1.425-1.425q.15-.15.15-.35t-.15-.35q-.15-.15-.35-.15t-.35.15L6 17.3l-1.425-1.425q-.15-.15-.35-.15t-.35.15q-.15.15-.15.35t.15.35L5.3 18l-1.425 1.425q-.15.15-.15.35t.15.35q.15.15.35.15t.35-.15zm2.05-8.9l7.05-4.1q-.05-.15-.075-.338T15 5q0-1.25.875-2.125T18 2q1.25 0 2.125.875T21 5q0 1.25-.875 2.125T18 8q-.575 0-1.1-.213t-.95-.587L9.2 11.125q-.3.2-.65.225t-.7-.1q-.45-.125-.912-.187T6 11q-.55 0-1.062.088t-1.013.237q-.3.1-.525-.1t-.125-.475q.35-.775 1.088-1.262T6 9q.575 0 1.1.213t.95.587M18 22q-1.25 0-2.125-.875T15 19q0-.175.025-.363t.075-.337l-2.175-1.25q-.325-.2-.425-.525t.1-.65q.2-.325.537-.425t.663.1l2.15 1.25q.425-.375.95-.587T18 16q1.25 0 2.125.875T21 19q0 1.25-.875 2.125T18 22"/></svg>