<svg xmlns="http://www.w3.org/2000/svg" width="1em" height="1em" viewBox="0 0 24 24"><path fill="currentColor" d="M12 20q-.425 0-.712-.288T11 19v-4q0-.425.288-.712T12 14h2.5q.425 0 .713.288T15.5 15v4q0 .425-.288.713T14.5 20zm.5-1.5H14v-3h-1.5zm8.25 3.5H18q-.425 0-.712-.288T17 21v-1.75q0-.425.288-.712T18 18.25h2v-.75h-2.25q-.325 0-.537-.213T17 16.75q0-.325.213-.537T17.75 16h2.75q.425 0 .713.288T21.5 17v1.75q0 .425-.288.713t-.712.287h-2v.75h2.25q.325 0 .538.213t.212.537q0 .325-.213.538T20.75 22M10 2.35q.2 0 .363.063t.312.187q.9.8 1.838 1.7t1.8 1.888q.862.987 1.6 2.05t1.262 2.187q.175.375.013.75t-.563.5q-.4.125-.763-.05t-.562-.55q-.425-.9-1.037-1.762t-1.325-1.688q-.713-.825-1.463-1.575T10 4.65Q7.025 7.375 5.513 9.675T4 13.8q0 2.025 1.075 3.675t3.05 2.25q.425.125.675.488t.1.762q-.175.425-.612.6t-.913.025q-2.525-.8-3.95-3.012T2 13.8q0-1.625.725-3.213T4.55 7.564q1.1-1.438 2.388-2.713T9.325 2.6q.15-.125.313-.187T10 2.35M9.85 13.8"/></svg>