<svg xmlns="http://www.w3.org/2000/svg" width="1em" height="1em" viewBox="0 0 24 24"><path fill="currentColor" d="M9.1 14.225q-.55-.125-1.263-.312T6.326 13.4q-.6-.25-1.237-.55t-1.263-.725q-.375-.25-.437-.687t.212-.813q.25-.35.675-.4t.775.2q.9.65 1.838 1.037t1.7.588q.762.2 1.25.275l.487.075q.45.025.713.375t.187.8l-.1.7q-.1.7-.125 1.775t.088 2.387Q11.2 19.75 11.6 21q.125.35-.125.638t-.625.337q-.375.05-.762-.15t-.563-.85q-.275-1.025-.4-2.013t-.15-1.862q-.025-.875.025-1.612t.1-1.263q-.025 0 0 0m8.925-6.075q.475.725.725 1.55t.25 1.725V21q0 .425-.288.713T18 22q-.425 0-.712-.288T17 21v-9.575q0-1.2-.638-2.175T14.65 7.775L8.95 5.2q-.425-.2-.55-.65t.15-.85q.2-.3.55-.388t.7.063l5.675 2.575q.8.35 1.438.912t1.112 1.288M13.5 18.975q.225 0 .425-.1t.325-.25q.15.15.35.25t.4.1q.425 0 .713-.288t.287-.712q0-.425-.288-.712T15 16.975V13q.425 0 .713-.288T16 12q0-.425-.288-.712T15 11q-.2 0-.4.088t-.35.237q-.125-.15-.325-.237T13.5 11q-.425 0-.712.288T12.5 12q0 .425.288.713T13.5 13v3.975q-.425 0-.712.288t-.288.712q0 .425.288.713t.712.287M12 22q-.625-1.3-.825-2.775t-.187-2.725q.012-1.25.125-2.087l.112-.838q.075-.45-.187-.8t-.713-.375l-.6-.088q-.6-.087-1.5-.374t-1.962-.8Q5.2 10.625 4.225 9.75q.975.875 2.038 1.388t1.962.8q.9.287 1.5.374l.6.088q.45.025.713.375t.187.8l-.112.838q-.113.837-.125 2.087t.187 2.725Q11.375 20.7 12 22"/></svg>