<svg xmlns="http://www.w3.org/2000/svg" width="1em" height="1em" viewBox="0 0 24 24"><path fill="currentColor" d="M12 4.65q-1.9 1.725-3.2 3.3t-2 2.975q-.2.35-.575.513t-.75.012q-.375-.15-.55-.525t0-.725Q5.975 8 7.8 6.05t3.55-3.475q.15-.125.313-.188T12 2.325q.175 0 .35.063t.3.187q1.7 1.5 3.525 3.475t2.9 4.175q.175.35 0 .713t-.55.512q-.375.15-.737-.012t-.563-.513q-.7-1.4-2-2.975T12 4.65m7.85 10.8q-.225 1.225-.788 2.313t-1.437 1.962q-.875.875-1.963 1.425t-2.287.75zm-4.075-1.65h2.85l-8.1 8.1q-.575-.125-1.112-.287t-1.038-.438zm-5.725 0h2.85l-6.225 6.225q-.375-.35-.712-.725t-.613-.8zm-2.9 0L4.4 16.55q-.125-.4-.2-.788t-.125-.787q-.05-.475.263-.825t.812-.35zm4.85-2"/></svg>