<svg xmlns="http://www.w3.org/2000/svg" width="1em" height="1em" viewBox="0 0 24 24"><path fill="currentColor" d="M11 5H8q-.425 0-.712-.288T7 4q0-.425.288-.712T8 3h8q.425 0 .713.288T17 4q0 .425-.288.713T16 5h-3v2q0 .425-.288.713T12 8q-.425 0-.712-.288T11 7zM4 20.025v-6.05q0-.425.288-.712T5 12.975q.425 0 .713.288t.287.712V14h3v-3h-.025q-.425 0-.712-.288T7.974 10q0-.425.288-.712T8.975 9h6.05q.425 0 .713.288t.287.712q0 .425-.287.713t-.713.287H15v3h3v-.025q0-.425.288-.712t.712-.288q.425 0 .713.288t.287.712v6.05q0 .425-.288.713t-.712.287q-.425 0-.712-.287T18 20.025V20H6v.025q0 .425-.288.713T5 21.024q-.425 0-.712-.287T4 20.025M6 18h12v-2h-5v-5h-2v5H6zm6 0"/></svg>