<svg xmlns="http://www.w3.org/2000/svg" width="1em" height="1em" viewBox="0 0 24 24"><path fill="currentColor" d="M12 18q-.425 0-.712-.288T11 17q0-.425.288-.712T12 16q.425 0 .713.288T13 17q0 .425-.288.713T12 18m-1-4v-3.025l2 2V14q0 .425-.288.713T12 15q-.425 0-.712-.288T11 14m1-11q.275 0 .513.113t.362.387l5.2 8.975q.25.425.1.775t-.475.55q-.325.2-.725.125T16.3 13.4L12 6l-.525.9q-.25.425-.638.488t-.712-.138q-.325-.2-.475-.562t.1-.788l1.375-2.4q.15-.275.375-.387T12 3M4.45 19h11.725L8.75 11.575zm15.325 3.575L18.175 21H2.725q-.575 0-.85-.5t0-1L7.3 10.125L1.375 4.2q-.3-.3-.288-.712t.313-.713q.3-.3.713-.3t.712.3l18.375 18.4q.3.3.3.7t-.3.7q-.3.3-.712.3t-.713-.3m-6.175-11.8"/></svg>