<svg xmlns="http://www.w3.org/2000/svg" width="1em" height="1em" viewBox="0 0 100 100"><path fill="currentColor" d="M13.996 0a2.5 2.5 0 0 0-2.5 2.5V70H0v22h11.496v5.5a2.5 2.5 0 0 0 2.5 2.5h72a2.5 2.5 0 0 0 2.5-2.5V21.625c.027-1.113.004-1.777-.732-2.59L69.46.732A2.5 2.5 0 0 0 67.662 0zm2.5 5h48.902l1.252 14.568a2.5 2.5 0 0 0 2.278 2.278l14.568 1.252V95h-67v-3H80V70H16.496zm-6.324 67.938c1.385 0 2.386.372 3.004 1.115c.618.743.928 1.676.928 2.8a4.17 4.17 0 0 1-.377 1.793a3.916 3.916 0 0 1-1.137 1.407c.41.146.724.315.941.51c.353.312.625.726.819 1.24c.198.507.296 1.114.296 1.822c0 .889-.162 1.743-.486 2.563c-.323.812-.788 1.44-1.396 1.884c-.609.438-1.407.657-2.397.657c-.965 0-1.729-.162-2.289-.489c-.555-.326-1.013-.803-1.375-1.427c-.357-.632-.633-1.424-.826-2.376l2.947-.562c.116.854.294 1.448.535 1.781c.247.327.56.49.936.49c.396 0 .724-.208.984-.625c.266-.416.399-.973.399-1.667c0-.709-.13-1.256-.385-1.645c-.251-.389-.593-.584-1.027-.584c-.232 0-.552.083-.957.25l.152-3.031c.164.034.293.052.385.052c.386 0 .707-.177.963-.53c.26-.355.39-.776.39-1.262c0-.466-.096-.836-.289-1.114a.92.92 0 0 0-.797-.418c-.347 0-.63.154-.847.46c-.218.298-.365.826-.442 1.583l-2.789-.719c.232-1.277.678-2.256 1.334-2.937c.662-.68 1.596-1.022 2.803-1.022m7.596.26h4.873c.96 0 1.735.187 2.324.562c.594.375 1.084.914 1.47 1.615c.387.701.667 1.517.84 2.447c.174.93.262 1.918.262 2.96c0 1.631-.132 2.9-.392 3.802c-.256.896-.612 1.649-1.07 2.26c-.46.604-.953 1.007-1.48 1.209c-.719.278-1.37.416-1.954.416h-4.873zm12.136 0h9.973v3.77h-3.346v11.5H33.25v-11.5h-3.346zm12.76 0h2.947v2.886h-2.947zm6.322 0h2.955v15.27h-2.955zM21.05 76.655V85h.803c.685 0 1.173-.107 1.462-.322c.29-.222.518-.605.682-1.147c.164-.548.246-1.434.246-2.656c0-1.618-.184-2.725-.55-3.322c-.368-.597-.977-.897-1.827-.897zm38.14.5c1.101 0 1.97.24 2.608.719c.637.48 1.122 1.174 1.455 2.084c.333.91.5 2.092.5 3.55v.481h-5.91c.053.68.182 1.186.385 1.52c.284.479.656.719 1.115.719c.29 0 .565-.105.826-.313c.16-.132.33-.364.514-.697l2.904.385c-.444 1.11-.98 1.91-1.607 2.396c-.628.48-1.529.719-2.702.719c-1.018 0-1.82-.206-2.404-.615c-.584-.417-1.07-1.073-1.457-1.97c-.381-.902-.572-1.96-.572-3.175c0-1.73.384-3.13 1.152-4.2c.773-1.069 1.837-1.603 3.193-1.603m10.848 0c.917 0 1.593.102 2.027.303c.44.201.805.514 1.094.937c.295.424.54.997.733 1.72l-2.795.394c-.073-.354-.195-.615-.364-.781a1.168 1.168 0 0 0-.84-.333c-.333 0-.575.087-.73.26a.888.888 0 0 0-.225.615c0 .271.096.475.29.614c.193.139.612.264 1.26.375c.98.16 1.709.383 2.187.668a2.76 2.76 0 0 1 1.094 1.218c.255.528.382 1.107.382 1.739c0 .639-.134 1.26-.404 1.865a3.188 3.188 0 0 1-1.267 1.447c-.575.354-1.36.532-2.354.532c-1.405 0-2.407-.287-3.006-.864c-.594-.576-.975-1.396-1.144-2.459l2.925-.396c.121.5.291.859.508 1.074c.217.215.507.322.87.322c.395 0 .7-.122.917-.365a.95.95 0 0 0 .254-.676c0-.305-.11-.542-.332-.709c-.16-.118-.582-.264-1.267-.437c-1.024-.257-1.736-.494-2.137-.71c-.396-.221-.73-.592-1.006-1.113c-.27-.52-.406-1.114-.406-1.78c0-.73.147-1.36.441-1.887c.295-.528.7-.92 1.217-1.176c.517-.264 1.21-.397 2.078-.397m-27.373.25h2.947V88.47h-2.947zm16.649 2.26c-.469 0-.844.268-1.124.803c-.178.333-.291.83-.34 1.49h2.905c-.058-.82-.212-1.408-.463-1.762c-.246-.354-.573-.531-.978-.531" color="currentColor"/><path fill="currentColor" d="m70.771 9.115l8.61 8.61l-7.928-.682z" color="currentColor"/><path fill="currentColor" fill-rule="evenodd" d="M37.836 14.582a1.89 1.89 0 0 0-.576.09l-11.114 3.56a1.89 1.89 0 0 0-.117.063a1.89 1.89 0 0 0-.273.144a1.89 1.89 0 0 0-.305.223a1.89 1.89 0 0 0-.207.236a1.89 1.89 0 0 0-.201.32a1.89 1.89 0 0 0-.107.284a1.89 1.89 0 0 0-.073.377a1.89 1.89 0 0 0-.029.152v26.403a1.89 1.89 0 0 0 1.312 1.798l13.782 4.416a1.89 1.89 0 0 0 .422.079a1.89 1.89 0 0 0 .064.003a1.89 1.89 0 0 0 .625-.076a1.89 1.89 0 0 0 .041-.006l11.113-3.56a1.89 1.89 0 0 0 1.313-1.799V20.887a1.89 1.89 0 0 0-.012-.149a1.89 1.89 0 0 0-.008-.105a1.89 1.89 0 0 0-.082-.354a1.89 1.89 0 0 0-.043-.103a1.89 1.89 0 0 0-.123-.248a1.89 1.89 0 0 0-.062-.102a1.89 1.89 0 0 0-.237-.287a1.89 1.89 0 0 0-.048-.043a1.89 1.89 0 0 0-.25-.191a1.89 1.89 0 0 0-.106-.065a1.89 1.89 0 0 0-.33-.148a1.89 1.89 0 0 0-.012-.006l-13.78-4.414a1.89 1.89 0 0 0-.577-.09m0 3.875l7.586 2.43l-1.66.531l-3.258 1.043l-7.584-2.43zm-9.223 4.166l10.002 3.203V48.26l-10.002-3.205zm21.114.854V45.91l-7.332 2.348V25.824l3.806-1.219z" color="currentColor"/><path fill="currentColor" d="M64.85 34.191a1.89 1.89 0 0 0-2.041 1.725L61.41 52.682a1.89 1.89 0 0 0 1.727 2.039a1.89 1.89 0 0 0 2.039-1.725l1.4-16.766a1.89 1.89 0 0 0-1.726-2.039m-7.508 22.612l-20.076 2.234a1.89 1.89 0 0 0-1.67 2.086a1.89 1.89 0 0 0 2.088 1.67l20.076-2.234a1.89 1.89 0 0 0 1.67-2.088a1.89 1.89 0 0 0-2.088-1.668" color="currentColor"/><path fill="currentColor" d="M32.793 54.527c-3.395 0-6.19 2.793-6.19 6.188c0 3.395 2.795 6.187 6.19 6.187c3.395 0 6.187-2.792 6.187-6.187c0-3.395-2.792-6.188-6.187-6.188m0 3.78a2.38 2.38 0 0 1 2.408 2.408a2.38 2.38 0 0 1-2.408 2.408a2.382 2.382 0 0 1-2.41-2.408a2.382 2.382 0 0 1 2.41-2.408m29.747-7.051c-3.396 0-6.188 2.792-6.188 6.187c0 3.395 2.792 6.19 6.187 6.19c3.395 0 6.188-2.795 6.188-6.19c0-3.395-2.793-6.187-6.188-6.187m0 3.78a2.38 2.38 0 0 1 2.407 2.407a2.38 2.38 0 0 1-2.408 2.409a2.38 2.38 0 0 1-2.408-2.409a2.38 2.38 0 0 1 2.408-2.408m2.464-29.523c-3.395 0-6.188 2.792-6.188 6.187c0 3.395 2.793 6.19 6.188 6.19c3.395 0 6.187-2.795 6.187-6.19c0-3.395-2.792-6.187-6.187-6.187m0 3.779a2.38 2.38 0 0 1 2.408 2.408a2.382 2.382 0 0 1-2.408 2.41a2.382 2.382 0 0 1-2.408-2.41a2.38 2.38 0 0 1 2.408-2.408" color="currentColor"/></svg>