<svg xmlns="http://www.w3.org/2000/svg" width="1em" height="1em" viewBox="0 0 100 100"><path fill="currentColor" d="M49.953 5A45 45 0 0 0 7.758 34.498H2.5A3.002 3.002 0 0 0-.502 37.5v25A3.002 3.002 0 0 0 2.5 65.502h5.256A45 45 0 0 0 50 95a45 45 0 0 0 42.242-29.498H97.5a3.002 3.002 0 0 0 3.002-3.002v-25a3.002 3.002 0 0 0-3.002-3.002h-5.256A45 45 0 0 0 50 5a45 45 0 0 0-.047 0m2.297 5.113c4.74.807 9.271 4.713 12.84 11.194c1.15 2.089 2.18 4.433 3.068 6.974H52.25zm-4.5.178v17.99H32.676c.889-2.541 1.916-4.885 3.066-6.974c3.36-6.1 7.571-9.915 12.008-11.016M37.383 11.51c-2.092 2.116-3.971 4.698-5.584 7.627c-1.512 2.745-2.813 5.819-3.881 9.144h-12.11A40.522 40.522 0 0 1 37.384 11.51m26.469.416c8.457 3.07 15.586 8.88 20.34 16.355H72.91c-1.066-3.326-2.365-6.4-3.877-9.144c-1.509-2.74-3.251-5.174-5.181-7.211M13.33 32.78h13.328c-.135.561-.246 1.143-.367 1.717h-13.71a38.51 38.51 0 0 1 .75-1.717m17.977 0H47.75v1.717H30.908c.131-.574.253-1.158.399-1.717m20.943 0h17.275c.146.56.268 1.143.399 1.717H52.25zm21.92 0h12.5c.265.565.512 1.138.75 1.717H74.535c-.12-.574-.23-1.156-.365-1.717m-63.576 9.102c1.843 0 3.176.372 3.998 1.115c.822.743 1.232 1.678 1.232 2.803a3.31 3.31 0 0 1-.5 1.79c-.334.536-.84 1.004-1.513 1.407c.545.146.962.315 1.252.51c.468.312.832.726 1.09 1.24c.263.507.394 1.114.394 1.822a5.44 5.44 0 0 1-.645 2.563a4.527 4.527 0 0 1-1.859 1.887c-.81.437-1.873.656-3.19.656c-1.284 0-2.3-.164-3.044-.49a4.638 4.638 0 0 1-1.83-1.428c-.476-.632-.841-1.424-1.098-2.375l3.92-.563c.154.854.392 1.448.713 1.782c.327.326.743.49 1.244.49c.526 0 .962-.209 1.308-.625c.354-.417.532-.972.532-1.666c0-.709-.172-1.258-.512-1.647c-.334-.389-.79-.584-1.367-.584c-.309 0-.732.084-1.272.25l.201-3.03c.219.034.39.052.512.052c.514 0 .941-.177 1.281-.531a1.74 1.74 0 0 0 .52-1.26c0-.465-.128-.838-.385-1.115c-.257-.278-.61-.416-1.06-.416c-.463 0-.838.151-1.127.457c-.29.298-.485.827-.588 1.584l-3.71-.72c.31-1.277.9-2.256 1.774-2.937c.88-.68 2.123-1.021 3.729-1.021m10.105.262h6.483c1.278 0 2.31.187 3.093.562a5.09 5.09 0 0 1 1.955 1.613c.514.702.886 1.519 1.118 2.45c.23.93.347 1.915.347 2.957c0 1.632-.174 2.9-.521 3.802c-.34.896-.816 1.649-1.426 2.26c-.61.604-1.265 1.008-1.965 1.209c-.957.278-1.824.416-2.601.416h-6.483zm16.147 0H50.11v3.77h-4.45v11.5h-4.366v-11.5h-4.45zm16.974 0h3.92v2.884h-3.92zm8.41 0h3.93v15.27h-3.93zm-37.167 3.457v8.343h1.07c.912 0 1.56-.107 1.945-.322c.385-.222.688-.605.906-1.146c.219-.549.327-1.434.327-2.657c0-1.618-.243-2.725-.73-3.322c-.489-.597-1.298-.896-2.429-.896zm50.74.5c1.464 0 2.62.24 3.468.718c.848.48 1.493 1.175 1.936 2.084c.443.91.666 2.095.666 3.553v.479h-7.861c.07.68.24 1.188.51 1.521a1.8 1.8 0 0 0 1.484.719c.385 0 .75-.104 1.098-.313c.211-.132.44-.366.683-.699l3.863.387c-.59 1.11-1.303 1.908-2.138 2.394c-.835.48-2.031.72-3.592.72c-1.355 0-2.422-.204-3.2-.614c-.776-.417-1.421-1.073-1.935-1.969c-.507-.903-.762-1.962-.762-3.178c0-1.729.51-3.128 1.532-4.197c1.027-1.07 2.443-1.605 4.248-1.605m14.431 0c1.22 0 2.12.1 2.698.302c.584.202 1.07.514 1.455.938c.391.423.715.996.972 1.719l-3.718.396c-.097-.354-.256-.615-.48-.781c-.31-.222-.683-.334-1.12-.334c-.443 0-.767.086-.973.26a.774.774 0 0 0-.298.615c0 .27.13.476.386.615c.257.139.815.264 1.676.375c1.304.16 2.272.381 2.908.666c.636.285 1.121.691 1.455 1.219c.34.528.512 1.108.512 1.74c0 .639-.181 1.26-.541 1.863c-.353.604-.915 1.088-1.686 1.45c-.764.354-1.807.53-3.13.53c-1.87 0-3.202-.288-3.998-.864c-.79-.577-1.297-1.397-1.522-2.46l3.893-.394c.16.5.384.857.673 1.072c.29.216.675.323 1.157.323c.526 0 .933-.12 1.222-.364a.837.837 0 0 0 .338-.677c0-.306-.148-.543-.443-.71c-.212-.117-.774-.263-1.686-.437c-1.361-.257-2.308-.492-2.841-.707c-.527-.222-.974-.594-1.34-1.115a3.06 3.06 0 0 1-.54-1.781c0-.73.197-1.357.589-1.885c.391-.528.93-.921 1.617-1.178c.687-.264 1.61-.396 2.765-.396m-36.414.25h3.92v11.062h-3.92zm22.147 2.261c-.623 0-1.12.266-1.492.801c-.238.333-.39.83-.454 1.49h3.864c-.077-.82-.283-1.405-.617-1.76c-.328-.354-.762-.53-1.301-.53M12.58 65.502h13.524c.112.573.214 1.154.341 1.715H13.33a38.624 38.624 0 0 1-.75-1.715m18.129 0H47.75v1.715H31.082c-.137-.56-.25-1.142-.373-1.715m21.541 0h17.873c-.123.573-.236 1.155-.373 1.715h-17.5zm22.473 0H87.42a38.624 38.624 0 0 1-.75 1.715H74.38c.128-.561.23-1.142.343-1.715m-58.914 6.215h11.824c1.117 3.675 2.518 7.056 4.166 10.049c1.294 2.35 2.762 4.472 4.369 6.316c-8.466-3.07-15.603-8.884-20.36-16.365m16.554 0H47.75v18.719c-.277-.016-.55-.044-.826-.065c-4.132-1.35-8.032-5.057-11.182-10.777c-1.285-2.335-2.424-4.984-3.379-7.877m19.887 0h16.219c-.955 2.893-2.094 5.542-3.38 7.877c-3.084 5.602-6.888 9.278-10.925 10.695c-.634.065-1.272.112-1.914.147zm20.947 0h10.994a40.555 40.555 0 0 1-19.105 15.877c1.443-1.728 2.766-3.684 3.947-5.828c1.648-2.993 3.049-6.373 4.164-10.05" color="currentColor"/></svg>