<svg xmlns="http://www.w3.org/2000/svg" width="1em" height="1em" viewBox="0 0 100 100"><path fill="currentColor" d="M49.953 5A45 45 0 0 0 7.758 34.498H2.5A3.002 3.002 0 0 0-.502 37.5v25A3.002 3.002 0 0 0 2.5 65.502h5.256A45 45 0 0 0 50 95a45 45 0 0 0 42.242-29.498H97.5a3.002 3.002 0 0 0 3.002-3.002v-25a3.002 3.002 0 0 0-3.002-3.002h-5.256A45 45 0 0 0 50 5a45 45 0 0 0-.047 0m2.297 5.113c4.74.807 9.271 4.713 12.84 11.194c1.15 2.089 2.18 4.433 3.068 6.974H52.25zm-4.5.178v17.99H32.676c.889-2.541 1.916-4.885 3.066-6.974c3.36-6.1 7.571-9.915 12.008-11.016M37.383 11.51c-2.092 2.116-3.971 4.698-5.584 7.627c-1.512 2.745-2.813 5.819-3.881 9.144h-12.11A40.522 40.522 0 0 1 37.384 11.51m26.469.416c8.457 3.07 15.586 8.88 20.34 16.355H72.91c-1.066-3.326-2.365-6.4-3.877-9.144c-1.509-2.74-3.251-5.174-5.181-7.211M13.33 32.78h13.328c-.135.561-.246 1.143-.367 1.717h-13.71a38.51 38.51 0 0 1 .75-1.717m17.977 0H47.75v1.717H30.908c.131-.574.253-1.158.399-1.717m20.943 0h17.275c.146.56.268 1.143.399 1.717H52.25zm21.92 0h12.5c.265.565.512 1.138.75 1.717H74.535c-.12-.574-.23-1.156-.365-1.717m-46.861 9.065c2.125 0 3.795.388 5.007 1.166c1.22.777 2.126 1.973 2.717 3.584l-4.605.925c-.161-.465-.33-.804-.506-1.019a2.94 2.94 0 0 0-1.07-.834a3.345 3.345 0 0 0-1.416-.291c-1.182 0-2.088.43-2.717 1.291c-.476.639-.715 1.642-.715 3.01c0 1.694.286 2.858.853 3.49c.568.625 1.367.937 2.395.937c.998 0 1.75-.252 2.256-.76c.514-.506.887-1.243 1.117-2.208l4.568 1.25c-.307 1.16-.789 2.128-1.449 2.906a6.23 6.23 0 0 1-2.465 1.76c-.974.396-2.216.593-3.728.593c-1.834 0-3.336-.24-4.502-.718c-1.159-.486-2.16-1.336-3.004-2.551c-.844-1.215-1.266-2.772-1.266-4.668c0-2.528.74-4.468 2.221-5.822c1.489-1.361 3.592-2.041 6.309-2.041m19.523 0c2.157 0 3.8.364 4.928 1.093c1.136.723 1.81 1.874 2.025 3.457l-4.914.262c-.13-.687-.408-1.187-.83-1.5c-.414-.312-.99-.469-1.727-.469c-.606 0-1.062.118-1.369.354c-.307.23-.46.51-.46.844c0 .243.127.462.38.656c.246.201.827.389 1.748.562c2.28.445 3.91.896 4.893 1.354c.99.451 1.709 1.014 2.154 1.687c.453.674.678 1.429.678 2.262c0 .98-.298 1.88-.897 2.707c-.598.827-1.435 1.456-2.51 1.887c-1.074.424-2.43.635-4.064.635c-2.87 0-4.858-.5-5.963-1.5c-1.105-1-1.73-2.271-1.877-3.813l4.963-.281c.108.73.326 1.284.656 1.666c.538.618 1.304.928 2.301.928c.745 0 1.318-.157 1.717-.469c.407-.32.61-.687.61-1.104c0-.395-.193-.75-.577-1.062c-.383-.313-1.273-.609-2.67-.887c-2.287-.465-3.918-1.082-4.892-1.853c-.983-.771-1.475-1.753-1.475-2.948c0-.784.251-1.524.75-2.218c.507-.702 1.262-1.25 2.268-1.647c1.013-.403 2.397-.603 4.154-.603m10.604.26h4.949l1.785 8.53l2.601-8.53h4.94l2.611 8.53l1.785-8.53h4.928l-3.719 15.271h-5.11l-2.96-9.615l-2.947 9.615h-5.112zM12.58 65.501h13.524c.112.573.214 1.154.341 1.715H13.33a38.624 38.624 0 0 1-.75-1.715m18.129 0H47.75v1.715H31.082c-.137-.56-.25-1.142-.373-1.715m21.541 0h17.873c-.123.573-.236 1.155-.373 1.715h-17.5zm22.473 0H87.42a38.624 38.624 0 0 1-.75 1.715H74.38c.128-.561.23-1.142.343-1.715m-58.914 6.215h11.824c1.117 3.675 2.518 7.056 4.166 10.049c1.294 2.35 2.762 4.472 4.369 6.316c-8.466-3.07-15.603-8.884-20.36-16.365m16.554 0H47.75v18.719c-.277-.016-.55-.044-.826-.065c-4.132-1.35-8.032-5.057-11.182-10.777c-1.285-2.335-2.424-4.984-3.379-7.877m19.887 0h16.219c-.955 2.893-2.094 5.542-3.38 7.877c-3.084 5.602-6.888 9.278-10.925 10.695c-.634.065-1.272.112-1.914.147zm20.947 0h10.994a40.555 40.555 0 0 1-19.105 15.877c1.443-1.728 2.766-3.684 3.947-5.828c1.648-2.993 3.049-6.373 4.164-10.05" color="currentColor"/></svg>