<svg xmlns="http://www.w3.org/2000/svg" width="1em" height="1em" viewBox="0 0 100 100"><path fill="currentColor" d="M13.996 0a2.5 2.5 0 0 0-2.5 2.5V70H0v22h11.496v5.5a2.5 2.5 0 0 0 2.5 2.5h72a2.5 2.5 0 0 0 2.5-2.5V21.625c.027-1.113.004-1.777-.732-2.59L69.46.732A2.5 2.5 0 0 0 67.662 0zm2.5 5h48.902l1.252 14.568a2.5 2.5 0 0 0 2.278 2.278l14.568 1.252V95h-67v-3H80V70H16.496zm23.418 67.783c1.993 0 3.433.37 4.322 1.113c.89.744 1.334 1.678 1.334 2.803c0 .66-.18 1.257-.54 1.791c-.362.535-.908 1.004-1.637 1.406c.59.146 1.043.318 1.355.512c.507.313.898.725 1.176 1.238c.285.507.428 1.116.428 1.825c0 .889-.232 1.743-.698 2.562c-.465.813-1.136 1.44-2.011 1.885c-.875.437-2.024.656-3.448.656c-1.389 0-2.485-.164-3.29-.49a4.98 4.98 0 0 1-1.981-1.426c-.514-.632-.91-1.423-1.188-2.375l4.24-.562c.167.854.425 1.448.772 1.781c.354.326.802.488 1.344.488c.57 0 1.04-.208 1.416-.625c.382-.416.572-.971.572-1.666c0-.708-.183-1.257-.55-1.646c-.362-.39-.856-.582-1.481-.582c-.334 0-.792.083-1.375.25l.219-3.032c.236.035.42.051.552.051c.556 0 1.017-.177 1.385-.531c.375-.354.563-.774.563-1.26c0-.465-.139-.837-.416-1.115c-.278-.278-.66-.416-1.147-.416c-.5 0-.906.153-1.219.459c-.312.299-.523.825-.634 1.582l-4.01-.719c.333-1.278.971-2.257 1.916-2.937c.951-.68 2.295-1.02 4.031-1.02m17.104 0c1.951 0 3.438.365 4.459 1.094c1.027.722 1.64 1.874 1.834 3.457l-4.45.262c-.118-.688-.368-1.188-.75-1.5c-.375-.313-.896-.469-1.562-.469c-.549 0-.96.117-1.238.353c-.278.23-.418.51-.418.844c0 .243.114.462.343.656c.223.202.751.39 1.584.563c2.063.444 3.54.895 4.428 1.353c.896.452 1.545 1.014 1.947 1.688c.41.674.616 1.428.616 2.262c0 .979-.271 1.88-.813 2.707c-.542.826-1.3 1.456-2.271 1.886c-.973.424-2.199.635-3.678.635c-2.597 0-4.395-.5-5.395-1.5s-1.567-2.27-1.699-3.812l4.49-.282c.098.73.295 1.285.594 1.666c.486.619 1.181.928 2.084.928c.674 0 1.19-.156 1.55-.469c.369-.319.554-.686.554-1.103c0-.396-.175-.75-.522-1.063c-.347-.312-1.152-.608-2.416-.886c-2.07-.466-3.546-1.083-4.428-1.854c-.889-.77-1.332-1.753-1.332-2.947a4 4 0 0 1 .676-2.219c.458-.701 1.143-1.25 2.053-1.646c.916-.403 2.17-.604 3.76-.604m-32.582.26h4.728v15.271h-4.728z" color="currentColor"/><path fill="currentColor" d="m70.771 9.115l8.61 8.61l-7.928-.682z" color="currentColor"/><path fill="currentColor" fill-rule="evenodd" d="M37.836 14.582a1.89 1.89 0 0 0-.576.09l-11.114 3.56a1.89 1.89 0 0 0-.117.063a1.89 1.89 0 0 0-.273.144a1.89 1.89 0 0 0-.305.223a1.89 1.89 0 0 0-.207.236a1.89 1.89 0 0 0-.201.32a1.89 1.89 0 0 0-.107.284a1.89 1.89 0 0 0-.073.377a1.89 1.89 0 0 0-.029.152v26.403a1.89 1.89 0 0 0 1.312 1.798l13.782 4.416a1.89 1.89 0 0 0 .422.079a1.89 1.89 0 0 0 .064.003a1.89 1.89 0 0 0 .625-.076a1.89 1.89 0 0 0 .041-.006l11.113-3.56a1.89 1.89 0 0 0 1.313-1.799V20.887a1.89 1.89 0 0 0-.012-.149a1.89 1.89 0 0 0-.008-.105a1.89 1.89 0 0 0-.082-.354a1.89 1.89 0 0 0-.043-.103a1.89 1.89 0 0 0-.123-.248a1.89 1.89 0 0 0-.062-.102a1.89 1.89 0 0 0-.237-.287a1.89 1.89 0 0 0-.048-.043a1.89 1.89 0 0 0-.25-.191a1.89 1.89 0 0 0-.106-.065a1.89 1.89 0 0 0-.33-.148a1.89 1.89 0 0 0-.012-.006l-13.78-4.414a1.89 1.89 0 0 0-.577-.09m0 3.875l7.586 2.43l-1.66.531l-3.258 1.043l-7.584-2.43zm-9.223 4.166l10.002 3.203V48.26l-10.002-3.205zm21.114.854V45.91l-7.332 2.348V25.824l3.806-1.219z" color="currentColor"/><path fill="currentColor" d="M64.85 34.191a1.89 1.89 0 0 0-2.041 1.725L61.41 52.682a1.89 1.89 0 0 0 1.727 2.039a1.89 1.89 0 0 0 2.039-1.725l1.4-16.766a1.89 1.89 0 0 0-1.726-2.039m-7.508 22.612l-20.076 2.234a1.89 1.89 0 0 0-1.67 2.086a1.89 1.89 0 0 0 2.088 1.67l20.076-2.234a1.89 1.89 0 0 0 1.67-2.088a1.89 1.89 0 0 0-2.088-1.668" color="currentColor"/><path fill="currentColor" d="M32.793 54.527c-3.395 0-6.19 2.793-6.19 6.188c0 3.395 2.795 6.187 6.19 6.187c3.395 0 6.187-2.792 6.187-6.187c0-3.395-2.792-6.188-6.187-6.188m0 3.78a2.38 2.38 0 0 1 2.408 2.408a2.38 2.38 0 0 1-2.408 2.408a2.382 2.382 0 0 1-2.41-2.408a2.382 2.382 0 0 1 2.41-2.408m29.747-7.051c-3.396 0-6.188 2.792-6.188 6.187c0 3.395 2.792 6.19 6.187 6.19c3.395 0 6.188-2.795 6.188-6.19c0-3.395-2.793-6.187-6.188-6.187m0 3.78a2.38 2.38 0 0 1 2.407 2.407a2.38 2.38 0 0 1-2.408 2.409a2.38 2.38 0 0 1-2.408-2.409a2.38 2.38 0 0 1 2.408-2.408m2.464-29.523c-3.395 0-6.188 2.792-6.188 6.187c0 3.395 2.793 6.19 6.188 6.19c3.395 0 6.187-2.795 6.187-6.19c0-3.395-2.792-6.187-6.187-6.187m0 3.779a2.38 2.38 0 0 1 2.408 2.408a2.382 2.382 0 0 1-2.408 2.41a2.382 2.382 0 0 1-2.408-2.41a2.38 2.38 0 0 1 2.408-2.408" color="currentColor"/></svg>