<svg xmlns="http://www.w3.org/2000/svg" width="1em" height="1em" viewBox="0 0 100 100"><path fill="currentColor" d="M49.953 5A45 45 0 0 0 7.758 34.498H2.5A3.002 3.002 0 0 0-.502 37.5v25A3.002 3.002 0 0 0 2.5 65.502h5.256A45 45 0 0 0 50 95a45 45 0 0 0 42.242-29.498H97.5a3.002 3.002 0 0 0 3.002-3.002v-25a3.002 3.002 0 0 0-3.002-3.002h-5.256A45 45 0 0 0 50 5a45 45 0 0 0-.047 0m2.297 5.113c4.74.807 9.271 4.713 12.84 11.194c1.15 2.089 2.18 4.433 3.068 6.974H52.25zm-4.5.178v17.99H32.676c.889-2.541 1.916-4.885 3.066-6.974c3.36-6.1 7.571-9.915 12.008-11.016M37.383 11.51c-2.092 2.116-3.971 4.698-5.584 7.627c-1.512 2.745-2.813 5.819-3.881 9.144h-12.11A40.522 40.522 0 0 1 37.384 11.51m26.469.416c8.457 3.07 15.586 8.88 20.34 16.355H72.91c-1.066-3.326-2.365-6.4-3.877-9.144c-1.509-2.74-3.251-5.174-5.181-7.211M13.33 32.78h13.328c-.135.561-.246 1.143-.367 1.717h-13.71a38.51 38.51 0 0 1 .75-1.717m17.977 0H47.75v1.717H30.908c.131-.574.253-1.158.399-1.717m20.943 0h17.275c.146.56.268 1.143.399 1.717H52.25zm21.92 0h12.5c.265.565.512 1.138.75 1.717H74.535c-.12-.574-.23-1.156-.365-1.717m-29.623 8.905c3.172 0 5.466.372 6.88 1.115c1.416.743 2.122 1.678 2.122 2.803c0 .66-.287 1.256-.861 1.79c-.575.535-1.443 1.004-2.604 1.407c.94.146 1.659.315 2.156.51c.807.312 1.431.726 1.873 1.24c.453.507.68 1.114.68 1.822c0 .889-.37 1.743-1.111 2.563c-.741.812-1.807 1.442-3.2 1.886c-1.392.438-3.222.657-5.488.657c-2.21 0-3.958-.164-5.24-.49c-1.271-.327-2.321-.803-3.15-1.428a6.323 6.323 0 0 1-1.891-2.375l6.75-.563c.265.854.674 1.448 1.226 1.781c.564.327 1.277.49 2.14.49c.906 0 1.656-.208 2.253-.624c.608-.417.912-.972.912-1.666c0-.709-.293-1.258-.879-1.647c-.575-.389-1.358-.584-2.353-.584c-.53 0-1.261.083-2.19.25l.35-3.031c.376.035.669.053.879.053c.884 0 1.619-.178 2.205-.532c.597-.354.894-.773.894-1.26c0-.465-.22-.837-.662-1.115c-.442-.277-1.05-.416-1.824-.416c-.796 0-1.444.152-1.941.457c-.498.299-.833.827-1.01 1.584l-6.385-.718c.53-1.278 1.548-2.257 3.05-2.938c1.515-.68 3.655-1.021 6.419-1.021m27.224 0c3.107 0 5.473.364 7.098 1.093c1.636.723 2.609 1.876 2.918 3.46l-7.08.259c-.188-.687-.585-1.187-1.193-1.5c-.597-.312-1.427-.469-2.489-.469c-.873 0-1.53.12-1.972.356c-.442.229-.664.51-.664.844c0 .243.184.461.549.656c.353.201 1.193.389 2.519.562c3.283.445 5.632.895 7.047 1.354c1.426.451 2.458 1.014 3.1 1.687c.652.674.978 1.427.978 2.26c0 .98-.43 1.883-1.293 2.709c-.862.826-2.068 1.454-3.615 1.885c-1.548.423-3.497.637-5.852.637c-4.134 0-6.998-.5-8.59-1.5c-1.591-1-2.493-2.271-2.703-3.813l7.147-.281c.155.729.47 1.284.945 1.666c.774.618 1.88.928 3.317.928c1.072 0 1.895-.157 2.47-.47c.586-.319.88-.688.88-1.105c0-.396-.278-.75-.831-1.062c-.553-.313-1.834-.607-3.846-.885c-3.294-.465-5.643-1.083-7.047-1.853c-1.414-.771-2.123-1.755-2.123-2.95c0-.784.36-1.524 1.079-2.218c.73-.702 1.819-1.25 3.267-1.645c1.46-.403 3.453-.605 5.984-.605m-51.865.261h7.528v15.27h-7.528zM12.58 65.502h13.524c.112.573.214 1.154.341 1.715H13.33a38.624 38.624 0 0 1-.75-1.715m18.129 0H47.75v1.715H31.082c-.137-.56-.25-1.142-.373-1.715m21.541 0h17.873c-.123.573-.236 1.155-.373 1.715h-17.5zm22.473 0H87.42a38.624 38.624 0 0 1-.75 1.715H74.38c.128-.561.23-1.142.343-1.715m-58.914 6.215h11.824c1.117 3.675 2.518 7.056 4.166 10.049c1.294 2.35 2.762 4.472 4.369 6.316c-8.466-3.07-15.603-8.884-20.36-16.365m16.554 0H47.75v18.719c-.277-.016-.55-.044-.826-.065c-4.132-1.35-8.032-5.057-11.182-10.777c-1.285-2.335-2.424-4.984-3.379-7.877m19.887 0h16.219c-.955 2.893-2.094 5.542-3.38 7.877c-3.084 5.602-6.888 9.278-10.925 10.695c-.634.065-1.272.112-1.914.147zm20.947 0h10.994a40.555 40.555 0 0 1-19.105 15.877c1.443-1.728 2.766-3.684 3.947-5.828c1.648-2.993 3.049-6.373 4.164-10.05" color="currentColor"/></svg>