<svg xmlns="http://www.w3.org/2000/svg" width="1em" height="1em" viewBox="0 0 100 100"><path fill="currentColor" d="M49.953 5A45 45 0 0 0 7.758 34.498H2.5A3.002 3.002 0 0 0-.502 37.5v25A3.002 3.002 0 0 0 2.5 65.502h5.256A45 45 0 0 0 50 95a45 45 0 0 0 42.242-29.498H97.5a3.002 3.002 0 0 0 3.002-3.002v-25a3.002 3.002 0 0 0-3.002-3.002h-5.256A45 45 0 0 0 50 5a45 45 0 0 0-.047 0m2.297 5.113c4.74.807 9.271 4.713 12.84 11.194c1.15 2.089 2.18 4.433 3.068 6.974H52.25zm-4.5.178v17.99H32.676c.889-2.541 1.916-4.885 3.066-6.974c3.36-6.1 7.571-9.915 12.008-11.016M37.383 11.51c-2.092 2.116-3.971 4.698-5.584 7.627c-1.512 2.745-2.813 5.819-3.881 9.144h-12.11A40.522 40.522 0 0 1 37.384 11.51m26.469.416c8.457 3.07 15.586 8.88 20.34 16.355H72.91c-1.066-3.326-2.365-6.4-3.877-9.144c-1.509-2.74-3.251-5.174-5.181-7.211M13.33 32.78h13.328c-.135.561-.246 1.143-.367 1.717h-13.71a38.51 38.51 0 0 1 .75-1.717m17.977 0H47.75v1.717H30.908c.131-.574.253-1.158.399-1.717m20.943 0h17.275c.146.56.268 1.143.399 1.717H52.25zm21.92 0h12.5c.265.565.512 1.138.75 1.717H74.535c-.12-.574-.23-1.156-.365-1.717m-62.22 8.18c2.317 0 4.102.685 5.356 2.053c1.253 1.36 1.879 3.27 1.879 5.728c0 1.785-.276 3.25-.827 4.397c-.544 1.139-1.335 2.027-2.373 2.666c-1.031.632-2.32.947-3.865.947c-1.57 0-2.869-.274-3.9-.822c-1.026-.549-1.86-1.416-2.498-2.604c-.64-1.187-.96-2.674-.96-4.459c0-2.493.633-4.433 1.9-5.822c1.265-1.389 3.029-2.084 5.288-2.084m76.23 0c1.78 0 3.133.365 4.063 1.094c.937.722 1.495 1.875 1.672 3.459l-4.055.26c-.107-.688-.335-1.188-.683-1.5c-.342-.313-.816-.47-1.424-.47c-.5 0-.878.118-1.131.354c-.253.23-.379.51-.379.844c0 .243.104.462.313.656c.202.202.683.39 1.443.563c1.88.444 3.225.897 4.035 1.355c.817.452 1.408 1.014 1.776 1.688c.373.673.56 1.426.56 2.26a5.18 5.18 0 0 1-.74 2.708a4.796 4.796 0 0 1-2.07 1.885c-.887.424-2.004.635-3.352.635c-2.367 0-4.007-.5-4.918-1.5c-.911-1-1.427-2.27-1.547-3.812l4.092-.282c.089.73.269 1.286.541 1.668c.443.618 1.076.926 1.898.926c.614 0 1.085-.156 1.414-.469c.336-.32.504-.687.504-1.103c0-.396-.158-.75-.474-1.063c-.317-.312-1.051-.607-2.203-.885c-1.887-.465-3.232-1.084-4.036-1.855c-.81-.77-1.214-1.753-1.214-2.947c0-.785.205-1.525.617-2.219c.418-.701 1.042-1.25 1.87-1.647c.836-.402 1.98-.603 3.429-.603m-20.48.26h4.301v11.51h6.713v3.76H67.7zm-55.76 3.312c-.867 0-1.562.338-2.087 1.012c-.526.674-.79 1.788-.79 3.344c0 1.541.26 2.648.78 3.322c.525.674 1.238 1.01 2.136 1.01c.925 0 1.639-.329 2.145-.989c.506-.66.76-1.844.76-3.552c0-1.438-.265-2.487-.797-3.147c-.525-.666-1.241-1-2.147-1m18.012.647c1.348 0 2.389.565 3.123 1.697c.74 1.132 1.111 2.533 1.111 4.2c0 1.84-.403 3.246-1.207 4.218c-.803.965-1.818 1.447-3.046 1.447c-.595 0-1.14-.112-1.633-.334a3.899 3.899 0 0 1-1.31-.988V60.7h-3.903V45.428h3.617v1.635c.5-.688.96-1.152 1.377-1.395a3.666 3.666 0 0 1 1.871-.49m13.121 0c1.443 0 2.583.24 3.418.718c.836.48 1.472 1.175 1.908 2.084c.437.91.655 2.093.655 3.551v.48h-7.748c.07.681.238 1.187.504 1.52c.373.48.861.719 1.462.719c.38 0 .74-.104 1.082-.312c.21-.132.434-.364.674-.698l3.807.385c-.582 1.111-1.285 1.91-2.107 2.396c-.823.48-2.003.72-3.541.72c-1.336 0-2.387-.206-3.153-.616c-.766-.417-1.402-1.073-1.908-1.969c-.5-.903-.75-1.96-.75-3.176c0-1.729.503-3.13 1.51-4.199c1.012-1.07 2.409-1.603 4.187-1.603m16.822 0c1.07 0 1.907.351 2.508 1.052c.608.695.91 1.77.91 3.229v7.031h-3.882v-6.084c0-.694-.118-1.184-.352-1.468c-.234-.292-.562-.438-.986-.438c-.469 0-.85.195-1.14.584c-.292.389-.436 1.087-.436 2.094v5.312h-3.866V45.428h3.6v1.802c.538-.736 1.082-1.261 1.633-1.574c.55-.32 1.22-.478 2.011-.478m-16.662 2.51c-.614 0-1.103.268-1.47.802c-.235.334-.384.83-.448 1.49h3.809c-.076-.819-.28-1.407-.61-1.761c-.322-.354-.749-.532-1.28-.532m-14.545.605c-.493 0-.905.211-1.234.635c-.33.423-.494 1.11-.494 2.062c0 .875.168 1.524.504 1.947c.335.424.759.637 1.271.637c.45 0 .827-.202 1.131-.605c.304-.41.455-1.1.455-2.073c0-.895-.158-1.552-.474-1.968c-.317-.424-.703-.635-1.159-.635m-16.11 17.21h13.524c.112.573.214 1.154.341 1.715H13.33a38.624 38.624 0 0 1-.75-1.715m18.129 0H47.75v1.715H31.082c-.137-.56-.25-1.142-.373-1.715m21.541 0h17.873c-.123.573-.236 1.155-.373 1.715h-17.5zm22.473 0H87.42a38.624 38.624 0 0 1-.75 1.715H74.38c.128-.561.23-1.142.343-1.715m-58.914 6.215h11.824c1.117 3.675 2.518 7.056 4.166 10.049c1.294 2.35 2.762 4.472 4.369 6.316c-8.466-3.07-15.603-8.884-20.36-16.365m16.554 0H47.75v18.719c-.277-.016-.55-.044-.826-.065c-4.132-1.35-8.032-5.057-11.182-10.777c-1.285-2.335-2.424-4.984-3.379-7.877m19.887 0h16.219c-.955 2.893-2.094 5.542-3.38 7.877c-3.084 5.602-6.888 9.278-10.925 10.695c-.634.065-1.272.112-1.914.147zm20.947 0h10.994a40.555 40.555 0 0 1-19.105 15.877c1.443-1.728 2.766-3.684 3.947-5.828c1.648-2.993 3.049-6.373 4.164-10.05" color="currentColor"/></svg>