<svg xmlns="http://www.w3.org/2000/svg" width="1em" height="1em" viewBox="0 0 100 100"><path fill="currentColor" d="M49.854 2.887a2.5 2.5 0 0 0-.03.01a2.5 2.5 0 0 0-.209.044a2.5 2.5 0 0 0-.12-.005a2.5 2.5 0 0 0-.18.09a2.5 2.5 0 0 0-.311.093a2.5 2.5 0 0 0-.154.045a2.5 2.5 0 0 0-.098.088a2.5 2.5 0 0 0-.25.182a2.5 2.5 0 0 0-.275.252a2.5 2.5 0 0 0-.233.26a2.5 2.5 0 0 0-.139.216a2.5 2.5 0 0 0-.09.1l-24.599 49.06a2.5 2.5 0 0 0-.37.38a2.5 2.5 0 0 0-.357 1.068L9.023 81.525a2.5 2.5 0 0 0-.162.786a2.5 2.5 0 0 0-.183.205a2.5 2.5 0 0 0 1.11 3.357c29.084 14.647 53.584 15.356 81.403.277a2.5 2.5 0 0 0 1.143-3.076a2.5 2.5 0 0 0-.184-1.814L52.22 4.232a2.5 2.5 0 0 0-.02-.025a2.5 2.5 0 0 0-.092-.162a2.5 2.5 0 0 0-.109-.152a2.5 2.5 0 0 0-.13-.172a2.5 2.5 0 0 0-.003-.002a2.5 2.5 0 0 0-.021-.022a2.5 2.5 0 0 0-.13-.123a2.5 2.5 0 0 0-.097-.094a2.5 2.5 0 0 0-.013-.013a2.5 2.5 0 0 0-.083-.065a2.5 2.5 0 0 0-.144-.095a2.5 2.5 0 0 0-.22-.137a2.5 2.5 0 0 0-.036-.022a2.5 2.5 0 0 0-.025-.005a2.5 2.5 0 0 0-.326-.135A2.5 2.5 0 0 0 50.756 3a2.5 2.5 0 0 0-.031-.004a2.5 2.5 0 0 0-.338-.084a2.5 2.5 0 0 0-.215.024a2.5 2.5 0 0 0-.184-.022a2.5 2.5 0 0 0-.134-.027m.49 16.498l5.183 25.074a25.931 25.931 0 0 1-4.256.246a29.302 29.302 0 0 1-4.802-.525zm-5.287 1.433l-3.438 21.99c-2.076-.794-3.963-1.814-5.494-3.025a2.5 2.5 0 0 0-.445-.265zm11.056 1.786l9.024 17.408a2.5 2.5 0 0 0-.434.338c-1.091 1.17-2.584 2.12-4.336 2.836zM33.43 44.008c2.18 1.646 4.7 2.934 7.398 3.865l-1.633 10.445c-3.892-.943-7.603-2.33-10.87-4.13zm34.084.588l4.863 9.38c-2.38 1.831-5.432 3.265-8.9 4.249l-2.075-10.03c2.285-.822 4.37-2 6.112-3.6m-21.82 4.545c1.804.328 3.637.519 5.458.562c1.817.044 3.63-.059 5.393-.316l2.043 9.883c-2.418.368-4.95.55-7.53.527a52.55 52.55 0 0 1-6.947-.535zm29.015 9.334L79.906 68.5a2.5 2.5 0 0 0-.552.213c-3.562 2.25-7.916 3.896-12.684 4.965l-2.172-10.51c3.793-1.034 7.27-2.582 10.211-4.693m-48.627.187c3.785 2.07 7.978 3.617 12.336 4.635L36.82 73.52c-5.553-1.182-10.706-2.957-14.916-5.21a2.5 2.5 0 0 0-.574-.173zM59.607 64.2l2.141 10.354a69.51 69.51 0 0 1-10.791.603a76.368 76.368 0 0 1-9.21-.763l1.59-10.18a58.58 58.58 0 0 0 7.675.584c2.92.027 5.81-.17 8.595-.598m-40.425 8.223a2.5 2.5 0 0 0 .363.299c4.8 2.568 10.46 4.508 16.5 5.765l-1.627 10.41a2.5 2.5 0 0 0 .133 1.231c-6.53-1.65-13.269-4.22-20.399-7.676zm62.974.422l5.057 9.752c-5.968 3.121-11.705 5.483-17.332 7.095a2.5 2.5 0 0 0-.037-.662l-2.155-10.425c5.248-1.167 10.143-3.016 14.334-5.663a2.5 2.5 0 0 0 .133-.097m-41.183 6.5c3.248.463 6.563.74 9.879.81c4.015.085 8.028-.13 11.916-.672l2.181 10.559a2.5 2.5 0 0 0 .399.793c-8.93 1.939-17.676 1.977-26.752.193a2.5 2.5 0 0 0 .763-1.359z" color="currentColor"/></svg>