<svg xmlns="http://www.w3.org/2000/svg" width="1em" height="1em" viewBox="0 0 100 100"><path fill="currentColor" d="M13.996 0a2.5 2.5 0 0 0-2.5 2.5V70H0v22h11.496v5.5a2.5 2.5 0 0 0 2.5 2.5h72a2.5 2.5 0 0 0 2.5-2.5V21.625c.027-1.113.004-1.777-.732-2.59L69.46.732A2.5 2.5 0 0 0 67.662 0zm2.5 5h48.902l1.252 14.568a2.5 2.5 0 0 0 2.278 2.278l14.568 1.252V95h-67v-3H80V70H16.496zm12.32 67.004c2.196 0 3.868.41 5.016 1.23c1.156.813 1.844 2.11 2.063 3.891l-5.004.293c-.133-.773-.414-1.336-.844-1.688c-.422-.351-1.008-.527-1.758-.527c-.617 0-1.082.133-1.394.399c-.313.257-.47.574-.47.949c0 .273.13.52.387.738c.25.227.844.438 1.782.633c2.32.5 3.98 1.008 4.98 1.523c1.008.508 1.739 1.14 2.192 1.899c.46.758.691 1.605.691 2.543a5.447 5.447 0 0 1-.914 3.047c-.61.93-1.461 1.636-2.555 2.12c-1.093.477-2.472.716-4.136.716c-2.922 0-4.946-.563-6.07-1.688c-1.126-1.125-1.762-2.555-1.91-4.289l5.05-.316c.11.82.332 1.445.668 1.875c.547.695 1.328 1.043 2.344 1.043c.757 0 1.34-.176 1.746-.528c.414-.36.62-.773.62-1.242c0-.445-.195-.844-.585-1.195c-.39-.352-1.297-.684-2.719-.996c-2.328-.524-3.988-1.22-4.98-2.086c-1-.868-1.5-1.973-1.5-3.317c0-.883.254-1.715.761-2.496c.516-.789 1.286-1.406 2.309-1.851c1.031-.454 2.441-.68 4.23-.68m10.313.293h5.309v12.95h8.285v4.23H39.129zm16.078 0h7.887c1.554 0 2.808.21 3.761.633a6.116 6.116 0 0 1 2.38 1.816a7.538 7.538 0 0 1 1.359 2.754c.281 1.047.422 2.156.422 3.328c0 1.836-.211 3.262-.633 4.277c-.414 1.008-.992 1.856-1.735 2.543c-.742.68-1.539 1.133-2.39 1.36c-1.164.312-2.219.469-3.164.469h-7.887zm5.309 3.89v9.387h1.3c1.11 0 1.899-.12 2.368-.363c.468-.25.836-.68 1.101-1.29c.266-.616.399-1.612.399-2.987c0-1.82-.297-3.067-.891-3.739c-.594-.672-1.578-1.007-2.953-1.007z" color="currentColor"/><path fill="currentColor" d="m70.771 9.115l8.61 8.61l-7.928-.682z" color="currentColor"/><path fill="currentColor" d="M70.26 22.836c-2.904-.2-7.926 6.551-15.558 10.94c-1.034.595-2 1.236-2.898 1.907c1.044 3.17 3.138 5.749 7.368 7.344a73.697 73.697 0 0 0 1.796-2.601c4.98-7.492 12.986-14.517 10.41-17.05c-.33-.34-.702-.511-1.117-.54m-19.25 13.46a20.82 20.82 0 0 0-1.181 1.034c1.073 3.32 3.282 6.001 7.866 7.592c.301-.354.593-.718.878-1.087c-4.141-1.668-6.41-4.35-7.562-7.538m-1.926 1.784c-1.93 2.073-3.018 4.336-2.73 6.6h-.002c1.019 1.682 2.52 3.116 4.733 4.215c2.195.05 4.179-1.344 5.912-3.192c-4.352-1.644-6.718-4.368-7.913-7.623m-3.785 6.644l-.028.002c-7.274 2.415 1.329 4.933-8.503 15.17c7.53-2.169 13.699-5.436 14.293-8.847c.012-.39.012-.754.006-1.1c-2.76-1.304-4.59-3.108-5.768-5.225"/><path fill="currentColor" d="M33.66 23.467c-2.92.077-6.91 2.586-9.92 7.806a.501.501 0 0 0-.02.041c-3.136 6.871-4.91 12.518-4.308 17.692c.603 5.174 3.613 9.788 9.807 14.494a.514.514 0 0 0 .025.018c6.289 4.165 14.582 3.756 20.596 1.017c3.007-1.37 5.459-3.326 6.799-5.66c1.34-2.334 1.515-5.077-.034-7.758a.485.485 0 0 0-.546-.224c-.449.12-.797.16-1.81.271a.485.485 0 0 0-.435.477c-.03 3.086-1.263 4.63-3.013 5.619c-1.75.989-4.062 1.34-6.1 1.736a.485.485 0 0 0-.39.443c-.063.96-.941 1.84-2.202 2.456c-1.26.616-2.845.93-3.984.851c-2.251-.155-3.942-2.044-3.8-4.215c.076-1.174.303-2.101.775-2.85c.471-.748 1.196-1.348 2.373-1.847a.485.485 0 0 0 .103-.06c.992-.751 1.465-1.798 1.682-2.883c.217-1.086.202-2.232.238-3.319c.036-1.087.125-2.107.465-2.927c.34-.82.897-1.462 2.031-1.899a.485.485 0 0 0-.004-.908c-1.59-.596-2.455-.81-2.886-1.04a1.107 1.107 0 0 1-.457-.4c-.13-.19-.267-.489-.44-.95c-1.188-3.175-.468-5.615-.016-7.993c.227-1.189.387-2.364.145-3.568c-.242-1.204-.9-2.407-2.2-3.608c-.625-.578-1.5-.838-2.474-.812m-6.194 14.532c1.338.18 2.269.404 2.819.633c.558.233.673.431.687.51c.132.736-2.561 1.033-1.452 1.657c.832.47 1.9.736 2.662 1.107c.38.186.668.392.82.596c.151.204.21.394.129.754c-.012.05-.154.258-.477.46c-.322.203-.783.404-1.279.57c-.993.33-2.17.511-2.686.476c-.651-.045-2.234-.212-3.449-.688c-.607-.238-1.108-.553-1.373-.902c-.264-.35-.357-.708-.138-1.315c.331-.52.3-1.216.32-1.52c.013-.59.04-1.037.109-1.334c.068-.297.146-.427.304-.547c.313-.236 1.226-.392 3.004-.457m-.538 10.522c1.348-.03 1.166 1.173 2.75 1.32c1.162.081 1.854.445 2.277.929c.42.48.597 1.122.59 1.851c-.073 1.042-.77 1.414-1.626 1.803c-.859.39-1.884.729-3.038.512c-1.532-.289-2.61-.757-3.262-1.377c-.637-.607-.91-1.366-.855-2.44c.154-.49.465-1.136.982-1.652c.513-.512 1.212-.891 2.182-.946" color="currentColor"/></svg>