<svg xmlns="http://www.w3.org/2000/svg" width="1em" height="1em" viewBox="0 0 100 100"><path fill="currentColor" d="M49.953 5A45 45 0 0 0 7.758 34.498H2.5A3.002 3.002 0 0 0-.502 37.5v25A3.002 3.002 0 0 0 2.5 65.502h5.256A45 45 0 0 0 50 95a45 45 0 0 0 42.242-29.498H97.5a3.002 3.002 0 0 0 3.002-3.002v-25a3.002 3.002 0 0 0-3.002-3.002h-5.256A45 45 0 0 0 50 5a45 45 0 0 0-.047 0m2.297 5.113c4.74.807 9.271 4.713 12.84 11.194c1.15 2.089 2.18 4.433 3.068 6.974H52.25zm-4.5.178v17.99H32.676c.889-2.541 1.916-4.885 3.066-6.974c3.36-6.1 7.571-9.915 12.008-11.016M37.383 11.51c-2.092 2.116-3.971 4.698-5.584 7.627c-1.512 2.745-2.813 5.819-3.881 9.144h-12.11A40.522 40.522 0 0 1 37.384 11.51m26.469.416c8.457 3.07 15.586 8.88 20.34 16.355H72.91c-1.066-3.326-2.365-6.4-3.877-9.144c-1.509-2.74-3.251-5.174-5.181-7.211M13.33 32.78h13.328c-.135.561-.246 1.143-.367 1.717h-13.71a38.51 38.51 0 0 1 .75-1.717m17.977 0H47.75v1.717H30.908c.131-.574.253-1.158.399-1.717m20.943 0h17.275c.146.56.268 1.143.399 1.717H52.25zm21.92 0h12.5c.265.565.512 1.138.75 1.717H74.535c-.12-.574-.23-1.156-.365-1.717m-48.98 9.154c2.465 0 4.344.364 5.633 1.093c1.298.723 2.07 1.874 2.315 3.457l-5.618.262c-.149-.687-.464-1.187-.947-1.5c-.473-.312-1.132-.469-1.974-.469c-.693 0-1.214.118-1.565.354c-.35.229-.527.51-.527.844c0 .243.146.461.435.656c.281.201.948.389 2 .562c2.605.445 4.467.896 5.59 1.354c1.132.451 1.952 1.014 2.461 1.687c.518.674.777 1.429.777 2.262c0 .98-.343 1.88-1.027 2.707c-.684.827-1.64 1.456-2.867 1.887c-1.228.423-2.776.635-4.645.635c-3.28 0-5.553-.5-6.816-1.5s-1.978-2.271-2.145-3.813l5.672-.281c.123.729.373 1.284.75 1.666c.614.618 1.49.928 2.631.928c.851 0 1.505-.157 1.961-.47c.465-.319.697-.686.697-1.103c0-.395-.22-.75-.658-1.062c-.438-.313-1.456-.61-3.053-.887c-2.613-.465-4.477-1.083-5.591-1.853c-1.123-.771-1.684-1.753-1.684-2.948c0-.784.285-1.524.856-2.218c.578-.702 1.442-1.251 2.591-1.647c1.158-.403 2.74-.603 4.748-.603m23.315 0c3.21 0 5.685.682 7.422 2.05c1.736 1.361 2.605 3.273 2.605 5.73c0 1.786-.383 3.25-1.146 4.395c-.755 1.14-1.85 2.03-3.29 2.668c-1.43.632-3.213.948-5.353.948c-2.175 0-3.978-.274-5.408-.823c-1.421-.548-2.575-1.418-3.461-2.605c-.886-1.188-1.328-2.672-1.328-4.457c0-2.493.876-4.435 2.63-5.824c1.755-1.39 4.197-2.082 7.329-2.082m23.644 0c2.465 0 4.342.364 5.631 1.093c1.298.723 2.07 1.874 2.315 3.457l-5.617.262c-.15-.687-.465-1.187-.948-1.5c-.473-.312-1.13-.469-1.972-.469c-.693 0-1.216.118-1.567.354c-.35.229-.527.51-.527.844c0 .243.146.461.435.656c.281.201.948.389 2 .562c2.605.445 4.47.896 5.592 1.354c1.132.451 1.95 1.014 2.46 1.687c.517.674.777 1.429.777 2.262c0 .98-.344 1.88-1.028 2.707s-1.639 1.456-2.867 1.887c-1.228.423-2.776.635-4.645.635c-3.28 0-5.553-.5-6.816-1.5s-1.978-2.271-2.144-3.813l5.671-.281c.123.729.373 1.284.75 1.666c.614.618 1.491.928 2.631.928c.851 0 1.505-.157 1.961-.47c.465-.319.697-.686.697-1.103c0-.395-.22-.75-.658-1.062c-.438-.313-1.456-.61-3.052-.887c-2.614-.465-4.478-1.083-5.592-1.853c-1.123-.771-1.684-1.753-1.684-2.948c0-.784.285-1.524.856-2.218c.579-.702 1.442-1.251 2.591-1.647c1.158-.403 2.742-.603 4.75-.603m-23.656 3.572c-1.202 0-2.166.336-2.894 1.01c-.728.673-1.092 1.788-1.092 3.343c0 1.542.359 2.651 1.078 3.325c.728.673 1.715 1.01 2.96 1.01c1.281 0 2.272-.331 2.974-.99c.701-.66 1.052-1.843 1.052-3.552c0-1.437-.368-2.486-1.105-3.146c-.728-.667-1.719-1-2.973-1M12.58 65.502h13.524c.112.573.214 1.154.341 1.715H13.33a38.624 38.624 0 0 1-.75-1.715m18.129 0H47.75v1.715H31.082c-.137-.56-.25-1.142-.373-1.715m21.541 0h17.873c-.123.573-.236 1.155-.373 1.715h-17.5zm22.473 0H87.42a38.624 38.624 0 0 1-.75 1.715H74.38c.128-.561.23-1.142.343-1.715m-58.914 6.215h11.824c1.117 3.675 2.518 7.056 4.166 10.049c1.294 2.35 2.762 4.472 4.369 6.316c-8.466-3.07-15.603-8.884-20.36-16.365m16.554 0H47.75v18.719c-.277-.016-.55-.044-.826-.065c-4.132-1.35-8.032-5.057-11.182-10.777c-1.285-2.335-2.424-4.984-3.379-7.877m19.887 0h16.219c-.955 2.893-2.094 5.542-3.38 7.877c-3.084 5.602-6.888 9.278-10.925 10.695c-.634.065-1.272.112-1.914.147zm20.947 0h10.994a40.555 40.555 0 0 1-19.105 15.877c1.443-1.728 2.766-3.684 3.947-5.828c1.648-2.993 3.049-6.373 4.164-10.05" color="currentColor"/></svg>