<svg xmlns="http://www.w3.org/2000/svg" width="1em" height="1em" viewBox="0 0 100 100"><path fill="currentColor" d="M49.953 5A45 45 0 0 0 7.758 34.498H2.5A3.002 3.002 0 0 0-.502 37.5v25A3.002 3.002 0 0 0 2.5 65.502h5.256A45 45 0 0 0 50 95a45 45 0 0 0 42.242-29.498H97.5a3.002 3.002 0 0 0 3.002-3.002v-25a3.002 3.002 0 0 0-3.002-3.002h-5.256A45 45 0 0 0 50 5a45 45 0 0 0-.047 0m2.297 5.113c4.74.807 9.271 4.713 12.84 11.194c1.15 2.089 2.18 4.433 3.068 6.974H52.25zm-4.5.178v17.99H32.676c.889-2.541 1.916-4.885 3.066-6.974c3.36-6.1 7.571-9.915 12.008-11.016M37.383 11.51c-2.092 2.116-3.971 4.698-5.584 7.627c-1.512 2.745-2.813 5.819-3.881 9.144h-12.11A40.522 40.522 0 0 1 37.384 11.51m26.469.416c8.457 3.07 15.586 8.88 20.34 16.355H72.91c-1.066-3.326-2.365-6.4-3.877-9.144c-1.509-2.74-3.251-5.174-5.181-7.211M13.33 32.78h13.328c-.135.561-.246 1.143-.367 1.717h-13.71a38.51 38.51 0 0 1 .75-1.717m17.977 0H47.75v1.717H30.908c.131-.574.253-1.158.399-1.717m20.943 0h17.275c.146.56.268 1.143.399 1.717H52.25zm21.92 0h12.5c.265.565.512 1.138.75 1.717H74.535c-.12-.574-.23-1.156-.365-1.717m-46.426 9.153c2.465 0 4.344.364 5.633 1.093c1.298.723 2.069 1.874 2.314 3.457l-5.617.262c-.149-.687-.465-1.187-.947-1.5c-.474-.312-1.133-.469-1.975-.469c-.693 0-1.213.118-1.564.354c-.351.229-.527.51-.527.844c0 .243.144.461.433.656c.28.201.948.389 2 .562c2.605.445 4.47.896 5.592 1.354c1.131.451 1.952 1.014 2.46 1.687c.518.674.776 1.429.776 2.262c0 .98-.341 1.88-1.025 2.707c-.684.827-1.64 1.456-2.867 1.887c-1.228.423-2.777.635-4.645.635c-3.28 0-5.553-.5-6.816-1.5s-1.978-2.271-2.145-3.813l5.67-.281c.123.729.373 1.284.75 1.666c.614.618 1.493.928 2.633.928c.85 0 1.503-.157 1.959-.47c.465-.319.697-.686.697-1.103c0-.395-.217-.75-.656-1.062c-.439-.313-1.456-.61-3.053-.887c-2.614-.465-4.478-1.083-5.592-1.853c-1.122-.771-1.683-1.753-1.683-2.948c0-.784.283-1.524.853-2.218c.58-.702 1.445-1.251 2.594-1.647c1.158-.403 2.74-.603 4.748-.603m43.97 0c2.466 0 4.344.364 5.634 1.093c1.298.723 2.069 1.874 2.314 3.457l-5.617.262c-.15-.687-.465-1.187-.947-1.5c-.474-.312-1.133-.469-1.975-.469c-.693 0-1.214.118-1.564.354c-.351.229-.528.51-.528.844c0 .243.144.461.434.656c.28.201.947.389 2 .562c2.605.445 4.469.896 5.592 1.354c1.131.451 1.952 1.014 2.46 1.687c.518.674.778 1.429.778 2.262c0 .98-.343 1.88-1.027 2.707c-.685.827-1.64 1.456-2.868 1.887c-1.228.423-2.776.635-4.644.635c-3.28 0-5.553-.5-6.817-1.5c-1.263-1-1.977-2.271-2.144-3.813l5.67-.281c.123.729.373 1.284.75 1.666c.614.618 1.492.928 2.633.928c.85 0 1.503-.157 1.959-.47c.465-.319.697-.686.697-1.103c0-.395-.218-.75-.656-1.062c-.439-.313-1.457-.61-3.053-.887c-2.614-.465-4.478-1.083-5.592-1.853c-1.123-.771-1.683-1.753-1.683-2.948c0-.784.283-1.524.853-2.218c.579-.702 1.445-1.251 2.594-1.647c1.158-.403 2.74-.603 4.748-.603m-29.892.26h9.908c2.158 0 3.772.406 4.842 1.218c1.08.813 1.617 1.969 1.617 3.469c0 1.542-.586 2.747-1.761 3.615c-1.167.868-2.952 1.3-5.356 1.3H47.81v5.669h-5.987zm5.987 3.103v3.406h1.46c1.15 0 1.958-.156 2.422-.469c.465-.32.698-.725.698-1.218c0-.48-.202-.886-.606-1.22c-.403-.332-1.163-.5-2.277-.5zM12.58 65.502h13.524c.112.573.214 1.154.341 1.715H13.33a38.624 38.624 0 0 1-.75-1.715m18.129 0H47.75v1.715H31.082c-.137-.56-.25-1.142-.373-1.715m21.541 0h17.873c-.123.573-.236 1.155-.373 1.715h-17.5zm22.473 0H87.42a38.624 38.624 0 0 1-.75 1.715H74.38c.128-.561.23-1.142.343-1.715m-58.914 6.215h11.824c1.117 3.675 2.518 7.056 4.166 10.049c1.294 2.35 2.762 4.472 4.369 6.316c-8.466-3.07-15.603-8.884-20.36-16.365m16.554 0H47.75v18.719c-.277-.016-.55-.044-.826-.065c-4.132-1.35-8.032-5.057-11.182-10.777c-1.285-2.335-2.424-4.984-3.379-7.877m19.887 0h16.219c-.955 2.893-2.094 5.542-3.38 7.877c-3.084 5.602-6.888 9.278-10.925 10.695c-.634.065-1.272.112-1.914.147zm20.947 0h10.994a40.555 40.555 0 0 1-19.105 15.877c1.443-1.728 2.766-3.684 3.947-5.828c1.648-2.993 3.049-6.373 4.164-10.05" color="currentColor"/></svg>