<svg xmlns="http://www.w3.org/2000/svg" width="1em" height="1em" viewBox="0 0 100 100"><path fill="currentColor" d="M49.953 5A45 45 0 0 0 7.758 34.498H2.5A3.002 3.002 0 0 0-.502 37.5v25A3.002 3.002 0 0 0 2.5 65.502h5.256A45 45 0 0 0 50 95a45 45 0 0 0 42.242-29.498H97.5a3.002 3.002 0 0 0 3.002-3.002v-25a3.002 3.002 0 0 0-3.002-3.002h-5.256A45 45 0 0 0 50 5a45 45 0 0 0-.047 0m2.297 5.113c4.74.807 9.271 4.713 12.84 11.194c1.15 2.089 2.18 4.433 3.068 6.974H52.25zm-4.5.178v17.99H32.676c.889-2.541 1.916-4.885 3.066-6.974c3.36-6.1 7.571-9.915 12.008-11.016M37.383 11.51c-2.092 2.116-3.971 4.698-5.584 7.627c-1.512 2.745-2.813 5.819-3.881 9.144h-12.11A40.522 40.522 0 0 1 37.384 11.51m26.469.416c8.457 3.07 15.586 8.88 20.34 16.355H72.91c-1.066-3.326-2.365-6.4-3.877-9.144c-1.509-2.74-3.251-5.174-5.181-7.211M13.33 32.78h13.328c-.135.561-.246 1.143-.367 1.717h-13.71a38.51 38.51 0 0 1 .75-1.717m17.977 0H47.75v1.717H30.908c.131-.574.253-1.158.399-1.717m20.943 0h17.275c.146.56.268 1.143.399 1.717H52.25zm21.92 0h12.5c.265.565.512 1.138.75 1.717H74.535c-.12-.574-.23-1.156-.365-1.717m-4.094 9.028c2.437 0 4.292.364 5.567 1.093c1.283.723 2.048 1.876 2.29 3.46l-5.554.26c-.148-.688-.46-1.188-.938-1.5c-.468-.313-1.118-.47-1.95-.47c-.686 0-1.2.12-1.548.356c-.346.229-.52.51-.52.844c0 .243.142.461.429.656c.277.201.938.389 1.978.562c2.575.445 4.417.895 5.527 1.354c1.119.451 1.93 1.014 2.432 1.687c.512.674.768 1.427.768 2.26c0 .98-.338 1.883-1.014 2.71c-.676.825-1.622 1.453-2.836 1.884c-1.214.423-2.745.637-4.592.637c-3.243 0-5.49-.5-6.738-1.5c-1.249-1-1.954-2.271-2.12-3.813l5.606-.281c.122.729.37 1.284.742 1.666c.607.618 1.475.928 2.602.928c.841 0 1.487-.157 1.938-.47c.46-.319.689-.688.689-1.105c0-.395-.217-.75-.65-1.062c-.434-.313-1.44-.607-3.018-.885c-2.584-.465-4.426-1.083-5.527-1.853c-1.11-.771-1.666-1.755-1.666-2.95c0-.784.282-1.524.845-2.218c.573-.702 1.427-1.25 2.563-1.645c1.144-.403 2.71-.605 4.695-.605m-51.13.261h17.91v3.77h-6.008v11.5h-5.893v-11.5h-6.01zm31.01 0h5.903v8.301c0 1.743-.195 3.07-.586 3.98c-.381.91-1.157 1.681-2.328 2.313c-1.162.632-2.653.947-4.474.947c-1.925 0-3.415-.208-4.473-.625c-1.058-.416-1.878-1.023-2.459-1.822c-.572-.805-.912-1.8-1.016-2.98l5.633-.614c.009.674.082 1.174.221 1.5c.139.327.374.59.703.791c.226.132.547.198.963.198c.659 0 1.14-.194 1.443-.582c.312-.396.47-1.06.47-1.99zM12.58 65.502h13.524c.112.573.214 1.154.341 1.715H13.33a38.624 38.624 0 0 1-.75-1.715m18.129 0H47.75v1.715H31.082c-.137-.56-.25-1.142-.373-1.715m21.541 0h17.873c-.123.573-.236 1.155-.373 1.715h-17.5zm22.473 0H87.42a38.624 38.624 0 0 1-.75 1.715H74.38c.128-.561.23-1.142.343-1.715m-58.914 6.215h11.824c1.117 3.675 2.518 7.056 4.166 10.049c1.294 2.35 2.762 4.472 4.369 6.316c-8.466-3.07-15.603-8.884-20.36-16.365m16.554 0H47.75v18.719c-.277-.016-.55-.044-.826-.065c-4.132-1.35-8.032-5.057-11.182-10.777c-1.285-2.335-2.424-4.984-3.379-7.877m19.887 0h16.219c-.955 2.893-2.094 5.542-3.38 7.877c-3.084 5.602-6.888 9.278-10.925 10.695c-.634.065-1.272.112-1.914.147zm20.947 0h10.994a40.555 40.555 0 0 1-19.105 15.877c1.443-1.728 2.766-3.684 3.947-5.828c1.648-2.993 3.049-6.373 4.164-10.05" color="currentColor"/></svg>