<svg xmlns="http://www.w3.org/2000/svg" width="1em" height="1em" viewBox="0 0 100 100"><path fill="currentColor" d="M49.953 5A45 45 0 0 0 7.758 34.498H2.5A3.002 3.002 0 0 0-.502 37.5v25A3.002 3.002 0 0 0 2.5 65.502h5.256A45 45 0 0 0 50 95a45 45 0 0 0 42.242-29.498H97.5a3.002 3.002 0 0 0 3.002-3.002v-25a3.002 3.002 0 0 0-3.002-3.002h-5.256A45 45 0 0 0 50 5a45 45 0 0 0-.047 0m2.297 5.113c4.74.807 9.271 4.713 12.84 11.194c1.15 2.089 2.18 4.433 3.068 6.974H52.25zm-4.5.178v17.99H32.676c.889-2.541 1.916-4.885 3.066-6.974c3.36-6.1 7.571-9.915 12.008-11.016M37.383 11.51c-2.092 2.116-3.971 4.698-5.584 7.627c-1.512 2.745-2.813 5.819-3.881 9.144h-12.11A40.522 40.522 0 0 1 37.384 11.51m26.469.416c8.457 3.07 15.586 8.88 20.34 16.355H72.91c-1.066-3.326-2.365-6.4-3.877-9.144c-1.509-2.74-3.251-5.174-5.181-7.211M13.33 32.78h13.328c-.135.561-.246 1.143-.367 1.717h-13.71a38.51 38.51 0 0 1 .75-1.717m17.977 0H47.75v1.717H30.908c.131-.574.253-1.158.399-1.717m20.943 0h17.275c.146.56.268 1.143.399 1.717H52.25zm21.92 0h12.5c.265.565.512 1.138.75 1.717H74.535c-.12-.574-.23-1.156-.365-1.717m-28.453 8.803c1.923 0 3.434.388 4.531 1.166c1.104.778 1.924 1.973 2.459 3.584l-4.166.926c-.146-.466-.3-.804-.459-1.02a2.717 2.717 0 0 0-.969-.834a2.783 2.783 0 0 0-1.281-.29c-1.07 0-1.89.43-2.459 1.29c-.43.64-.644 1.642-.644 3.01c0 1.694.255 2.858.769 3.49c.514.625 1.237.938 2.168.938c.903 0 1.583-.253 2.041-.76c.465-.507.801-1.244 1.01-2.209l4.137 1.25c-.278 1.16-.716 2.128-1.313 2.906a5.69 5.69 0 0 1-2.23 1.76c-.882.396-2.007.594-3.375.594c-1.66 0-3.017-.24-4.073-.719c-1.048-.486-1.955-1.335-2.718-2.55c-.764-1.216-1.147-2.773-1.147-4.669c0-2.528.671-4.468 2.012-5.822c1.347-1.361 3.248-2.041 5.707-2.041m35.074 0c1.951 0 3.436.365 4.457 1.094c1.028.722 1.64 1.873 1.834 3.457l-4.447.261c-.118-.687-.368-1.187-.75-1.5c-.375-.312-.896-.468-1.563-.468c-.548 0-.962.117-1.24.353c-.278.23-.416.51-.416.844c0 .243.115.462.344.656c.222.202.748.39 1.582.563c2.062.444 3.539.895 4.428 1.353c.895.452 1.544 1.014 1.947 1.688c.41.673.615 1.428.615 2.261c0 .98-.27 1.881-.812 2.708c-.542.826-1.3 1.456-2.272 1.886c-.972.424-2.197.635-3.676.635c-2.597 0-4.396-.5-5.396-1.5s-1.566-2.27-1.697-3.812l4.488-.282c.097.73.295 1.284.594 1.666c.486.618 1.18.928 2.084.928c.673 0 1.191-.156 1.552-.469c.368-.32.551-.687.551-1.103c0-.396-.172-.75-.52-1.063c-.347-.312-1.154-.609-2.417-.886c-2.07-.466-3.544-1.083-4.426-1.854c-.89-.77-1.334-1.753-1.334-2.947c0-.785.226-1.525.678-2.219c.458-.701 1.14-1.25 2.05-1.647c.917-.402 2.172-.603 3.762-.603m-66.781.26h4.478l1.616 8.531l2.353-8.531h4.469l2.365 8.531l1.613-8.531h4.46l-3.366 15.271h-4.625L24.697 47.5l-2.668 9.615h-4.625zm43.113 0h7.844c1.708 0 2.987.406 3.834 1.218c.854.813 1.281 1.97 1.281 3.47c0 1.54-.466 2.746-1.396 3.614c-.924.869-2.336 1.301-4.239 1.301h-2.584v5.668h-4.74zm4.74 3.103v3.407h1.157c.91 0 1.547-.157 1.916-.47a1.54 1.54 0 0 0 .552-1.218c0-.48-.159-.885-.478-1.219c-.32-.333-.921-.5-1.803-.5zM12.58 65.502h13.524c.112.573.214 1.154.341 1.715H13.33a38.624 38.624 0 0 1-.75-1.715m18.129 0H47.75v1.715H31.082c-.137-.56-.25-1.142-.373-1.715m21.541 0h17.873c-.123.573-.236 1.155-.373 1.715h-17.5zm22.473 0H87.42a38.624 38.624 0 0 1-.75 1.715H74.38c.128-.561.23-1.142.343-1.715m-58.914 6.215h11.824c1.117 3.675 2.518 7.056 4.166 10.049c1.294 2.35 2.762 4.472 4.369 6.316c-8.466-3.07-15.603-8.884-20.36-16.365m16.554 0H47.75v18.719c-.277-.016-.55-.044-.826-.065c-4.132-1.35-8.032-5.057-11.182-10.777c-1.285-2.335-2.424-4.984-3.379-7.877m19.887 0h16.219c-.955 2.893-2.094 5.542-3.38 7.877c-3.084 5.602-6.888 9.278-10.925 10.695c-.634.065-1.272.112-1.914.147zm20.947 0h10.994a40.555 40.555 0 0 1-19.105 15.877c1.443-1.728 2.766-3.684 3.947-5.828c1.648-2.993 3.049-6.373 4.164-10.05" color="currentColor"/></svg>