<svg xmlns="http://www.w3.org/2000/svg" width="1em" height="1em" viewBox="0 0 100 100"><path fill="currentColor" d="M13.996 0a2.5 2.5 0 0 0-2.5 2.5V70H0v22h11.496v5.5a2.5 2.5 0 0 0 2.5 2.5h72a2.5 2.5 0 0 0 2.5-2.5V21.625c.027-1.113.004-1.777-.732-2.59L69.46.732A2.5 2.5 0 0 0 67.662 0zm2.5 5h48.902l1.252 14.568a2.5 2.5 0 0 0 2.278 2.278l14.568 1.252V95h-67v-3H80V70H16.496zm48.877 67.35c2.164 0 3.863.437 5.098 1.312c1.242.875 2.164 2.219 2.765 4.031l-4.687 1.043c-.164-.523-.336-.906-.516-1.148a3.054 3.054 0 0 0-1.09-.938a3.131 3.131 0 0 0-1.441-.328c-1.203 0-2.125.485-2.766 1.453c-.484.72-.726 1.848-.726 3.387c0 1.906.289 3.215.867 3.926c.578.703 1.39 1.055 2.437 1.055c1.016 0 1.782-.286 2.297-.856c.524-.57.903-1.398 1.137-2.484l4.652 1.406c-.312 1.305-.804 2.395-1.476 3.27a6.398 6.398 0 0 1-2.508 1.98c-.992.445-2.258.668-3.797.668c-1.867 0-3.394-.27-4.582-.809c-1.18-.547-2.2-1.504-3.058-2.87c-.86-1.368-1.29-3.118-1.29-5.25c0-2.844.754-5.028 2.262-6.552c1.516-1.53 3.656-2.296 6.422-2.296m-56.484.293h5.039l1.816 9.597l2.649-9.597h5.027l2.66 9.597l1.816-9.597h5.016l-3.785 17.18h-5.203l-3.012-10.817l-3 10.816H12.71zm25.71 0h6.985l2.695 10.453l2.684-10.453h6.96v17.18h-4.335V76.72l-3.363 13.101h-3.926L38.947 76.72v13.101H34.6z" color="currentColor"/><path fill="currentColor" d="m70.771 9.115l8.61 8.61l-7.928-.682zm-21.494 7.981a2.893 1.588 0 0 0-2.077.465L19.477 32.775a2.893 1.588 0 0 0 0 2.246L47.2 50.235a2.893 1.588 0 0 0 4.093 0L79.017 35.02a2.893 1.588 0 0 0 0-2.246L51.293 17.561a2.893 1.588 0 0 0-2.016-.465m-.03 3.833L72.88 33.9L49.247 46.866L25.615 33.898ZM21.524 39.643l-2.047 1.123a2.893 1.588 0 0 0 0 2.247L47.2 58.226a2.893 1.588 0 0 0 4.093 0l27.724-15.213a2.893 1.588 0 0 0-.001-2.247l-2.047-1.123l-4.092 2.245l.003.002l-23.633 12.969l-23.633-12.97h.003zm0 7.992l-2.047 1.123a2.893 1.588 0 0 0 0 2.246L47.2 66.218a2.893 1.588 0 0 0 4.092 0l27.724-15.214a2.893 1.588 0 0 0-.001-2.246l-2.047-1.123l-4.092 2.245l.003.001L49.247 62.85L25.614 49.881l.003-.001z" color="currentColor"/></svg>