<svg xmlns="http://www.w3.org/2000/svg" width="1em" height="1em" viewBox="0 0 24 24"><path fill="currentColor" d="M20.72 14.621a.799.799 0 0 1-.19.35a.72.72 0 0 1-.33.21a.78.78 0 0 1-.4 0l-5.81-1.46l-.27 4.8l1.06.8a.219.219 0 0 1 .1.2v1.75a.269.269 0 0 1-.09.2a.3.3 0 0 1-.16 0h-.06l-2.57-.69l-2.56.69a.25.25 0 0 1-.31-.24v-1.75a.25.25 0 0 1 .1-.2l1.06-.8l-.27-4.8l-5.81 1.46a.731.731 0 0 1-.39 0a.75.75 0 0 1-.34-.21a.73.73 0 0 1-.18-.35a.65.65 0 0 1 0-.39l.52-1.55a.61.61 0 0 1 .15-.27a.801.801 0 0 1 .27-.18l5.75-2.47v-5.23a2.001 2.001 0 0 1 .58-1.41a2.06 2.06 0 0 1 2.83 0a1.999 1.999 0 0 1 .58 1.42v5.22l5.76 2.47a.739.739 0 0 1 .42.45l.52 1.54a.913.913 0 0 1 .04.44"/></svg>