<svg xmlns="http://www.w3.org/2000/svg" width="1em" height="1em" viewBox="0 0 24 24"><path fill="currentColor" d="M9.84 12.4c0 .09 0 .09-.07.09H8c.33-1 .68-2.06 1-3.1c0 .08 0 .16.07.24c.07.08.09.33.13.49l.18.56c0 .19.11.37.17.56l.19.57z"/><path fill="currentColor" d="M17.08 11.77a1 1 0 0 0-.76-.67a1.697 1.697 0 0 0-.55 0a.929.929 0 0 0-.64.47a1.67 1.67 0 0 0-.2.58H17c.1 0 .13 0 .12-.14a1.098 1.098 0 0 0-.04-.24m0 0a1 1 0 0 0-.76-.67a1.697 1.697 0 0 0-.55 0a.929.929 0 0 0-.64.47a1.67 1.67 0 0 0-.2.58H17c.1 0 .13 0 .12-.14a1.098 1.098 0 0 0-.04-.24m0 0a1 1 0 0 0-.76-.67a1.697 1.697 0 0 0-.55 0a.929.929 0 0 0-.64.47a1.67 1.67 0 0 0-.2.58H17c.1 0 .13 0 .12-.14a1.098 1.098 0 0 0-.04-.24m0 0a1 1 0 0 0-.76-.67a1.697 1.697 0 0 0-.55 0a.929.929 0 0 0-.64.47a1.67 1.67 0 0 0-.2.58H17c.1 0 .13 0 .12-.14a1.098 1.098 0 0 0-.04-.24M17 2H7a5 5 0 0 0-5 5v10a5 5 0 0 0 5 5h10a5 5 0 0 0 5-5V7a5 5 0 0 0-5-5m-4.27 14h-1.62a.141.141 0 0 1-.142-.068a.137.137 0 0 1-.018-.052c-.08-.25-.17-.49-.25-.74c-.08-.25-.2-.57-.29-.86c0-.16-.13-.18-.27-.18H7.62c-.11 0-.11 0-.15.12c-.04.12-.1.33-.16.5l-.16.52l-.21.61a.24.24 0 0 1 0 .08c0 .13-.16.11-.26.11H5.39c-.15 0-.2-.07-.14-.21c.06-.14.11-.3.16-.44l.21-.64l.39-1.1c.11-.3.21-.61.31-.92c.1-.31.19-.53.29-.8l.21-.63l.37-1l.3-.88c.1-.28.2-.56.29-.85a1.84 1.84 0 0 0 0-.41c0-.21 0-.21.21-.21H9.8c.16 0 .15 0 .2.15c.05.15.18.49.26.73c.08.24.15.42.22.62l.24.65l.24.7c.1.27.2.53.29.8l.26.72c.08.24.17.48.26.73s.12.37.19.55c.07.18.14.4.22.6c.08.2.13.38.2.57l.29.81l.12.35c.04-.01.01.07-.06.07m6-3c.005.09.005.18 0 .27c0 .09-.15.12-.24.12h-3.53c.036.328.18.634.41.87a3 3 0 0 0 2.8.18c.08 0 .12 0 .12.08v1.13c0 .18-.07.2-.22.26l-.36.11a2.171 2.171 0 0 1-.35.07c-.25 0-.5.07-.75.08c-.25.01-.34 0-.51 0H16c-.2 0-.41 0-.6-.07a2.69 2.69 0 0 1-1.44-.8a2.64 2.64 0 0 1-.56-.88a2.77 2.77 0 0 1-.2-.75a8.61 8.61 0 0 1 0-.88c.015-.361.083-.718.2-1.06a3.18 3.18 0 0 1 .41-.8a2.53 2.53 0 0 1 .9-.82c.156-.09.32-.168.49-.23a5 5 0 0 1 .56-.1c.17-.01.34-.01.51 0c.25.004.498.037.74.1c.22.062.431.149.63.26a2 2 0 0 1 .74.74c.1.18.18.36.26.54c.043.127.076.258.1.39a3 3 0 0 1 .03 1.19zm-2.45-1.85a1.697 1.697 0 0 0-.55 0a.929.929 0 0 0-.64.47a1.67 1.67 0 0 0-.2.58H17c.1 0 .13 0 .12-.14a1.1 1.1 0 0 0-.06-.26a1 1 0 0 0-.74-.7zm.76.67a1 1 0 0 0-.76-.67a1.697 1.697 0 0 0-.55 0a.929.929 0 0 0-.64.47a1.67 1.67 0 0 0-.2.58H17c.1 0 .13 0 .12-.14c0-.098-.014-.196-.04-.29zm0 0a1 1 0 0 0-.76-.67a1.697 1.697 0 0 0-.55 0a.929.929 0 0 0-.64.47a1.67 1.67 0 0 0-.2.58H17c.1 0 .13 0 .12-.14c0-.098-.014-.196-.04-.29zm0 0a1 1 0 0 0-.76-.67a1.697 1.697 0 0 0-.55 0a.929.929 0 0 0-.64.47a1.67 1.67 0 0 0-.2.58H17c.1 0 .13 0 .12-.14c0-.098-.014-.196-.04-.29zm0 0a1 1 0 0 0-.76-.67a1.697 1.697 0 0 0-.55 0a.929.929 0 0 0-.64.47a1.67 1.67 0 0 0-.2.58H17c.1 0 .13 0 .12-.14c0-.098-.014-.196-.04-.29z"/></svg>