<svg xmlns="http://www.w3.org/2000/svg" width="1em" height="1em" viewBox="0 0 24 24"><path fill="currentColor" d="M19.89 8.748a4.217 4.217 0 0 0-2.227 4.086a4.463 4.463 0 0 0 2.744 3.828a.362.362 0 0 1 0 .094a11.778 11.778 0 0 1-2.45 4.11a3.121 3.121 0 0 1-1.66 1.06a2.885 2.885 0 0 1-1.448-.118c-.495-.153-.978-.353-1.484-.495a4.228 4.228 0 0 0-2.661.236c-.429.157-.865.29-1.308.4a1.99 1.99 0 0 1-1.566-.294a5.887 5.887 0 0 1-1.413-1.284a12.377 12.377 0 0 1-2.673-5.994a7.537 7.537 0 0 1 .435-4.44a5.064 5.064 0 0 1 3.734-3.062a4.263 4.263 0 0 1 2.272.189l1.555.53c.273.105.575.105.848 0a18.84 18.84 0 0 1 2.014-.648a4.864 4.864 0 0 1 5.11 1.59z"/><path fill="currentColor" d="M16.191 2a3.921 3.921 0 0 1-.235 1.814a4.934 4.934 0 0 1-2.143 2.496a3.097 3.097 0 0 1-1.614.436c-.153 0-.188 0-.2-.2a4.18 4.18 0 0 1 .907-2.709a4.71 4.71 0 0 1 3.05-1.813z"/></svg>