<svg xmlns="http://www.w3.org/2000/svg" width="1em" height="1em" viewBox="0 0 24 24"><path fill="currentColor" d="M15.25 2.02h-6.5A6.76 6.76 0 0 0 2 8.77v6.46a6.76 6.76 0 0 0 6.75 6.75h6.5A6.76 6.76 0 0 0 22 15.23v-6.5a6.76 6.76 0 0 0-6.75-6.71m2 13.12a.49.49 0 0 1-.08.23a.26.26 0 0 1-.15.12a.492.492 0 0 1-.24 0H7.23c-.18 0-.33 0-.37-.09a.8.8 0 0 1 0-.57a3.8 3.8 0 0 1 .47-.83a3.51 3.51 0 0 0 .78-1.92c0-2 0-2.28.82-3.26a3 3 0 0 1 .93-.72l.57-.28a1.24 1.24 0 0 0 .48-.4c.15-.178.25-.391.29-.62a.77.77 0 0 1 .26-.46a.74.74 0 0 1 .45-.15h.15a.86.86 0 0 1 .28 0a.76.76 0 0 1 .23.13a.68.68 0 0 1 .27.48c.044.2.126.39.24.56c.129.187.3.342.5.45l.55.27c.358.17.676.416.93.72c.82 1 .82 1.29.82 3.26c.078.735.37 1.43.84 2c.196.267.36.556.49.86a.34.34 0 0 1 .02.22zm-3.53 2.23c-.216.222-.48.392-.77.5a2.28 2.28 0 0 1-.94.17a2.998 2.998 0 0 1-.89-.16a2.32 2.32 0 0 1-1.21-1.16h4.25a2 2 0 0 1-.46.65z"/></svg>