<svg xmlns="http://www.w3.org/2000/svg" width="1em" height="1em" viewBox="0 0 24 24"><path fill="currentColor" d="M20.662 6.998a4.914 4.914 0 0 0-1.791-1.801l-4.414-2.552a5.004 5.004 0 0 0-4.914 0L5.139 5.197A4.924 4.924 0 0 0 2.677 9.45v5.085a4.914 4.914 0 0 0 2.452 4.253l4.414 2.552a4.904 4.904 0 0 0 4.914 0l4.414-2.552a4.884 4.884 0 0 0 1.791-1.791c.432-.75.66-1.598.66-2.463V9.45c0-.86-.228-1.707-.66-2.452m-4.854 6.255l-.81 1.402a2.492 2.492 0 0 1-.921.93c-.384.22-.819.338-1.261.34h-1.632a2.562 2.562 0 0 1-1.26-.34a2.492 2.492 0 0 1-.922-.93l-.81-1.402a2.492 2.492 0 0 1 0-2.512l.81-1.4c.216-.39.535-.712.921-.932c.384-.22.819-.337 1.261-.34h1.632c.442.003.877.12 1.26.34c.385.223.703.544.921.931l.811 1.401a2.491 2.491 0 0 1 0 2.512"/></svg>