<svg xmlns="http://www.w3.org/2000/svg" width="1em" height="1em" viewBox="0 0 24 24"><path fill="currentColor" d="M22 16.653c0 .25-.05.5-.15.73a2 2 0 0 1-.41.62c-.181.171-.391.31-.62.41a1.939 1.939 0 0 1-.74.14a15.22 15.22 0 0 0-3.37.32a9.312 9.312 0 0 0-3.71 1.27V5.233c1.091-.52 2.26-.858 3.46-1a17.43 17.43 0 0 1 3.71-.33a1.92 1.92 0 0 1 1.3.61c.33.352.513.817.51 1.3zM11 5.233v14.91a9.248 9.248 0 0 0-3.65-1.27a16.174 16.174 0 0 0-3.43-.32a1.87 1.87 0 0 1-.74-.14a2.16 2.16 0 0 1-.62-.41a1.81 1.81 0 0 1-.41-.62a1.83 1.83 0 0 1-.15-.73v-10.9a1.9 1.9 0 0 1 1.78-1.89a16.999 16.999 0 0 1 3.79.33A10.68 10.68 0 0 1 11 5.233"/></svg>