<svg xmlns="http://www.w3.org/2000/svg" width="1em" height="1em" viewBox="0 0 24 24"><path fill="none" stroke="currentColor" stroke-linecap="round" stroke-linejoin="round" stroke-width="1.5" d="M2.75 16.401a1.15 1.15 0 0 0 1.16 1.15a16.705 16.705 0 0 1 3.535.333c1.64.204 3.204.81 4.555 1.761V6.442A10.238 10.238 0 0 0 7.445 4.68a16.588 16.588 0 0 0-3.6-.322a1.15 1.15 0 0 0-1.074 1.15zm18.5 0a1.15 1.15 0 0 1-1.16 1.15a16.705 16.705 0 0 0-3.535.333c-1.64.204-3.204.81-4.555 1.761V6.442a10.238 10.238 0 0 1 4.555-1.762a16.588 16.588 0 0 1 3.6-.322a1.15 1.15 0 0 1 1.073 1.15z"/></svg>