<svg xmlns="http://www.w3.org/2000/svg" width="1em" height="1em" viewBox="0 0 24 24"><path fill="currentColor" d="M21.086 8.804v2.21a.75.75 0 1 1-1.5 0v-2.21a1.998 1.998 0 0 0-.13-.76l-7.3 4.38v8.19c.115-.034.225-.081.33-.14l2.53-1.4a.75.75 0 0 1 1 .29a.75.75 0 0 1-.3 1l-2.52 1.4a3.72 3.72 0 0 1-3.62 0l-6-3.3a3.79 3.79 0 0 1-1.92-3.27v-6.39c0-.669.18-1.325.52-1.9c.057-.103.124-.2.2-.29l.12-.15a3.45 3.45 0 0 1 1.08-.93l6-3.31a3.81 3.81 0 0 1 3.62 0l6 3.31c.42.231.788.548 1.08.93a.996.996 0 0 1 .12.15c.075.09.142.187.2.29a3.64 3.64 0 0 1 .49 1.9"/><path fill="currentColor" d="m22.196 17.624l-2 2a1.18 1.18 0 0 1-.39.26a1.06 1.06 0 0 1-.46.1c-.158 0-.314-.03-.46-.09a1.28 1.28 0 0 1-.4-.27l-2-2a.74.74 0 0 1 0-1.06a.75.75 0 0 1 1.06 0l1 1v-3.36a.75.75 0 0 1 1.5 0v3.38l1-1a.748.748 0 0 1 1.079-.02a.752.752 0 0 1-.02 1.08z"/></svg>