<svg xmlns="http://www.w3.org/2000/svg" width="1em" height="1em" viewBox="0 0 24 24"><path fill="currentColor" d="M21.026 8.804v2.21a.75.75 0 1 1-1.5 0v-2.21a2 2 0 0 0-.13-.76l-7.3 4.38v8.19c.115-.034.226-.081.33-.14l2.53-1.4a.75.75 0 0 1 1 .29a.75.75 0 0 1-.3 1l-2.52 1.4a3.72 3.72 0 0 1-3.62 0l-6-3.3a3.79 3.79 0 0 1-1.92-3.27v-6.39c0-.669.18-1.325.52-1.9c.057-.103.124-.2.2-.29a3.56 3.56 0 0 1 1.2-1.08l6-3.31a3.81 3.81 0 0 1 3.62 0l6 3.31c.42.231.789.548 1.08.93a.963.963 0 0 1 .12.15c.076.09.143.187.2.29a3.64 3.64 0 0 1 .49 1.9"/><path fill="currentColor" d="M22.136 16.804a.738.738 0 0 1-1.06 0l-1-1v3.38a.75.75 0 0 1-1.5 0v-3.38l-1 1a.739.739 0 0 1-.53.22a.71.71 0 0 1-.53-.22a.74.74 0 0 1 0-1.06l2-2a1.36 1.36 0 0 1 .39-.27c.1-.041.203-.068.31-.08h.32c.107.014.211.045.31.09a1 1 0 0 1 .38.26l2 2a.748.748 0 0 1-.09 1.06"/></svg>