<svg xmlns="http://www.w3.org/2000/svg" width="1em" height="1em" viewBox="0 0 24 24"><path fill="currentColor" d="M13.286 12.548v.997a.279.279 0 0 1-.269.28h-2.054a.29.29 0 0 1-.279-.28v-.997a.354.354 0 0 1 0-.11a.218.218 0 0 1 .07-.09a.27.27 0 0 1 .19-.079h2.083a.268.268 0 0 1 .26.28"/><path fill="currentColor" d="M21.003 6.616a3.31 3.31 0 0 0-2.343-.997h-2.84V4.313a1.725 1.725 0 0 0-.519-1.246a1.756 1.756 0 0 0-1.256-.529H9.946a1.785 1.785 0 0 0-1.774 1.775v1.306H5.34a3.33 3.33 0 0 0-2.343.997A3.26 3.26 0 0 0 2 8.96v1.495a1.745 1.745 0 0 0 .519 1.257c.153.154.336.276.538.359l.329 6.75a2.92 2.92 0 0 0 2.911 2.641h11.336c.737.01 1.45-.26 1.994-.757a2.99 2.99 0 0 0 .997-1.925l.33-6.71c.2-.085.382-.206.537-.358A1.8 1.8 0 0 0 22 10.455V8.96a3.299 3.299 0 0 0-.997-2.343M9.667 4.333a.28.28 0 0 1 .09-.19a.25.25 0 0 1 .19-.09h4.077a.25.25 0 0 1 .2.09c.05.05.079.119.08.19v1.306H9.646zm5.125 9.242a.17.17 0 0 1 0 .07a1.755 1.755 0 0 1-1.755 1.705h-2.054a1.765 1.765 0 0 1-1.765-1.705a.17.17 0 0 1 0-.07v-.997c0-.145.02-.29.06-.429a1.595 1.595 0 0 1 .23-.548a1.34 1.34 0 0 1 .209-.26c.247-.242.558-.408.897-.478c.12-.014.24-.014.36 0h2.053c.12-.014.24-.014.359 0c.336.07.644.237.887.479c.08.077.15.164.21.26c.06.09.11.187.15.288c.091.218.139.452.139.688z"/></svg>