<svg xmlns="http://www.w3.org/2000/svg" width="1em" height="1em" viewBox="0 0 24 24"><path fill="currentColor" d="M5.935 19.687a.74.74 0 0 1-.49-.19a9.252 9.252 0 0 1-1-1a9.87 9.87 0 0 1 0-13a9.248 9.248 0 0 1 1-1a.75.75 0 0 1 1.06.07a.76.76 0 0 1-.07 1.06a8.631 8.631 0 0 0-.86.85a8.41 8.41 0 0 0 0 11c.27.297.556.578.86.84a.75.75 0 0 1-.5 1.32z"/><path fill="currentColor" d="M8.405 17.127a.76.76 0 0 1-.47-.16a5.122 5.122 0 0 1-.93-.93a6.37 6.37 0 0 1 0-8.09a5.13 5.13 0 0 1 .94-.92a.74.74 0 0 1 1.05.13a.75.75 0 0 1-.13 1a4 4 0 0 0-.69.68a4.88 4.88 0 0 0 0 6.21c.205.257.44.488.7.69a.76.76 0 0 1 .13 1.06a.77.77 0 0 1-.6.33"/><path fill="currentColor" d="M14.955 11.997a2.9 2.9 0 0 1-.47 1.53a3 3 0 0 1-1 .95a2.9 2.9 0 0 1-1.54.44a3 3 0 0 1-1.54-.43a3.1 3.1 0 0 1-1-1a2.93 2.93 0 0 1 0-3.07a3 3 0 0 1 4.06-1a3.1 3.1 0 0 1 1 1a2.84 2.84 0 0 1 .49 1.58"/><path fill="currentColor" d="M15.605 17.127a.77.77 0 0 1-.59-.28a.75.75 0 0 1 .13-1.06a4 4 0 0 0 .68-.68a4.85 4.85 0 0 0 0-6.21a4.501 4.501 0 0 0-.69-.69a.75.75 0 1 1 .92-1.18c.352.268.668.58.94.93a6.35 6.35 0 0 1 0 8.09a5.073 5.073 0 0 1-.93.92a.74.74 0 0 1-.46.16"/><path fill="currentColor" d="M18.065 19.687a.75.75 0 0 1-.49-1.32c.303-.263.587-.547.85-.85a8.38 8.38 0 0 0 0-11a9.626 9.626 0 0 0-.85-.84a.76.76 0 0 1-.08-1.06a.75.75 0 0 1 1.06-.07a9.35 9.35 0 0 1 1 1a9.87 9.87 0 0 1 0 13a9.348 9.348 0 0 1-1 1a.7.7 0 0 1-.49.14"/></svg>