<svg xmlns="http://www.w3.org/2000/svg" width="1em" height="1em" viewBox="0 0 24 24"><path fill="currentColor" d="M17.75 3.935v-1.31a.75.75 0 1 0-1.5 0v1.25h-8.5v-1.25a.75.75 0 0 0-1.5 0v1.31a4.76 4.76 0 0 0-4 4.69v8.75A4.75 4.75 0 0 0 7 22.125h10a4.75 4.75 0 0 0 4.75-4.75v-8.75a4.76 4.76 0 0 0-4-4.69m-2.92 11.17a.731.731 0 0 1-.53.22a.74.74 0 0 1-.53-.22l-1-1v3.38a.75.75 0 1 1-1.5 0v-3.38l-1 1a.75.75 0 1 1-1.06-1.06l2-2c.116-.11.252-.198.4-.26a1.11 1.11 0 0 1 .3-.08c.106-.01.213-.01.32 0c.103.012.204.04.3.08c.148.062.284.15.4.26l2 2a.74.74 0 0 1-.1 1.06m5.43-6.23H3.76v-.25a3.24 3.24 0 0 1 2.5-3.15v1.15a.75.75 0 1 0 1.5 0v-1.25h8.5v1.25a.75.75 0 1 0 1.5 0v-1.15a3.24 3.24 0 0 1 2.5 3.15z"/></svg>