<svg xmlns="http://www.w3.org/2000/svg" width="1em" height="1em" viewBox="0 0 24 24"><path fill="currentColor" d="M21.992 14.506h-2.145c.01-.13.01-.26 0-.39V9.494h2.125a.747.747 0 0 0 .748-.75a.752.752 0 0 0-.748-.75h-2.335A5.435 5.435 0 0 0 15.976 4.2V2a.752.752 0 0 0-.749-.751a.747.747 0 0 0-.748.75V4H9.491V2a.751.751 0 0 0-.748-.751a.747.747 0 0 0-.749.75V4.25a5.426 5.426 0 0 0-3.512 3.742H2.018a.747.747 0 0 0-.748.75a.751.751 0 0 0 .748.75h2.265v4.613c-.01.13-.01.26 0 .39H1.998a.747.747 0 0 0-.748.75a.751.751 0 0 0 .748.75h2.674a5.434 5.434 0 0 0 3.362 3.282V22a.751.751 0 0 0 .748.75a.747.747 0 0 0 .749-.75v-2.442h4.988v2.432a.751.751 0 0 0 .748.75a.747.747 0 0 0 .749-.75v-2.672a5.374 5.374 0 0 0 3.512-3.331h2.474a.747.747 0 0 0 .748-.75a.751.751 0 0 0-.748-.75zm-5.448-1.5c0 .857-.339 1.68-.943 2.288a3.228 3.228 0 0 1-2.28.953h-2.473a3.229 3.229 0 0 1-2.254-.967a3.246 3.246 0 0 1-.929-2.274v-2.472c0-.857.34-1.679.944-2.285a3.218 3.218 0 0 1 2.279-.946h2.474c.854 0 1.674.34 2.278.946c.605.606.944 1.428.944 2.285z"/><path fill="currentColor" d="M15.048 10.534v2.471a1.734 1.734 0 0 1-1.726 1.741h-2.474a1.734 1.734 0 0 1-1.221-.513a1.743 1.743 0 0 1-.505-1.228v-2.47a1.724 1.724 0 0 1 1.726-1.73h2.474c.458-.001.897.18 1.22.505c.324.325.506.765.506 1.224"/></svg>