<svg xmlns="http://www.w3.org/2000/svg" width="1em" height="1em" viewBox="0 0 24 24"><path fill="currentColor" d="M20.893 12.84a3.23 3.23 0 0 0-1.796-.91l.639-.64c.3-.304.537-.664.698-1.06a3.207 3.207 0 0 0 0-2.48a3.16 3.16 0 0 0-.698-1.06l-2.564-2.56a2.993 2.993 0 0 0-.997-.71a3.244 3.244 0 0 0-2.484 0a3.113 3.113 0 0 0-.998.7l-.638.64a3.242 3.242 0 0 0-1.086-1.973A3.227 3.227 0 0 0 8.863 2H5.242a3.248 3.248 0 0 0-2.29.955A3.264 3.264 0 0 0 2 5.25v13.5c0 .862.342 1.689.95 2.298c.608.61 1.432.952 2.292.952h13.466a3.254 3.254 0 0 0 2.295-1A3.239 3.239 0 0 0 22 18.7v-3.58a3.246 3.246 0 0 0-1.107-2.28M6.928 19.35a2.34 2.34 0 0 1-2.166-1.45a2.356 2.356 0 0 1 .508-2.562A2.341 2.341 0 0 1 9.272 17a2.344 2.344 0 0 1-2.344 2.35m5.057-12.52l1.646-1.65c.162-.163.356-.293.569-.38c.426-.17.9-.17 1.326 0c.21.093.402.221.569.38l2.563 2.57a2 2 0 0 1 .38.57a1.788 1.788 0 0 1 0 1.34c-.09.21-.219.4-.38.56l-6.673 6.7z"/><path fill="currentColor" d="M7.795 17a.852.852 0 0 1-1.007.845a.847.847 0 0 1-.671-.665a.852.852 0 0 1 .83-1.02a.847.847 0 0 1 .848.84"/></svg>