<svg xmlns="http://www.w3.org/2000/svg" width="1em" height="1em" viewBox="0 0 24 24"><path fill="currentColor" d="M21.626 4.682a1.811 1.811 0 0 0-.93-.61a1.791 1.791 0 0 0-1.912.69l-2.561 2.471l-2.662-3.632a1.902 1.902 0 0 0-.62-.64a1.782 1.782 0 0 0-2.482.64L7.797 7.233L5.236 4.762a1.81 1.81 0 0 0-1.911-.69a1.791 1.791 0 0 0-1.321 1.79l1.59 11.198a4.853 4.853 0 0 0 4.814 4.242h7.274a4.854 4.854 0 0 0 4.823-4.242l1.491-11.207a.492.492 0 0 0 0-.12a1.801 1.801 0 0 0-.37-1.051M16.053 17.42H8.048a1 1 0 1 1 0-2.001h8.005a1 1 0 0 1 0 2"/></svg>