<svg xmlns="http://www.w3.org/2000/svg" width="1em" height="1em" viewBox="0 0 24 24"><path fill="currentColor" d="M20.406 10.377a2.754 2.754 0 0 0-1.928-.805H16.24v-.249a.756.756 0 0 0-.745-.745H3.564a.746.746 0 0 0-.746.745v7.954A4.723 4.723 0 0 0 7.541 22h3.977a4.662 4.662 0 0 0 1.8-.368a4.593 4.593 0 0 0 2.555-2.545v-.07h2.575a2.754 2.754 0 0 0 2.734-2.734v-3.977a2.714 2.714 0 0 0-.776-1.929m-.686 5.906a1.252 1.252 0 0 1-.368.875a1.213 1.213 0 0 1-.875.368H16.23a2.104 2.104 0 0 0 0-.249v-6.214h2.238a1.253 1.253 0 0 1 1.242 1.243zM5.94 7.573a.746.746 0 0 1-.527-1.272a.597.597 0 0 0 .14-.209a.557.557 0 0 0 0-.249a.577.577 0 0 0 0-.258a.596.596 0 0 0-.14-.209a2.217 2.217 0 0 1-.636-1.521a2.237 2.237 0 0 1 .636-1.531a.746.746 0 1 1 .994 1.064a.597.597 0 0 0-.139.208a.746.746 0 0 0 0 .259a.736.736 0 0 0 0 .248a.78.78 0 0 0 .15.22a2.108 2.108 0 0 1 .626 1.52a2.068 2.068 0 0 1-.637 1.522a.726.726 0 0 1-.467.208m3.231 0a.756.756 0 0 1-.527-.208a.746.746 0 0 1 0-1.054a.656.656 0 0 0 0-.945a2.068 2.068 0 0 1-.457-.696a2.078 2.078 0 0 1 0-1.64c.11-.263.268-.503.467-.706a.746.746 0 1 1 .995 1.064a.596.596 0 0 0-.14.208a.746.746 0 0 0 0 .259a.736.736 0 0 0 0 .248a.802.802 0 0 0 .15.22a2.147 2.147 0 0 1 0 3.032a.736.736 0 0 1-.488.218m3.47 0a.746.746 0 0 1-.527-1.272a.597.597 0 0 0 .14-.209a.558.558 0 0 0 0-.249a.579.579 0 0 0 0-.258a.597.597 0 0 0-.14-.209a2.178 2.178 0 0 1-.636-1.521a2.108 2.108 0 0 1 .636-1.531a.746.746 0 0 1 1.054 1.054a.477.477 0 0 0-.149.218a.658.658 0 0 0 0 .249a.74.74 0 0 0 0 .249a.616.616 0 0 0 .15.218a2.068 2.068 0 0 1 .625 1.521c.002.283-.052.564-.159.826a2.377 2.377 0 0 1-.467.696a.765.765 0 0 1-.527.218"/></svg>