<svg xmlns="http://www.w3.org/2000/svg" width="1em" height="1em" viewBox="0 0 24 24"><path fill="none" stroke="currentColor" stroke-linecap="round" stroke-linejoin="round" stroke-width="1.5" d="M19.318 2.75H4.682A1.932 1.932 0 0 0 2.75 4.682v3.885A1.932 1.932 0 0 0 4.682 10.5h14.636a1.932 1.932 0 0 0 1.932-1.932V4.682a1.932 1.932 0 0 0-1.932-1.932M8.567 13.5H4.682a1.932 1.932 0 0 0-1.932 1.933v3.885a1.932 1.932 0 0 0 1.932 1.932h3.885a1.932 1.932 0 0 0 1.932-1.932v-3.885A1.942 1.942 0 0 0 8.567 13.5m10.751 0h-3.885a1.942 1.942 0 0 0-1.932 1.933v3.885a1.932 1.932 0 0 0 1.932 1.932h3.885a1.933 1.933 0 0 0 1.932-1.932v-3.885a1.932 1.932 0 0 0-1.932-1.932"/></svg>