<svg xmlns="http://www.w3.org/2000/svg" width="1em" height="1em" viewBox="0 0 24 24"><path fill="none" stroke="currentColor" stroke-linecap="round" stroke-linejoin="round" stroke-width="1.5" d="M8.557 2.75H4.682A1.932 1.932 0 0 0 2.75 4.682v3.875a1.942 1.942 0 0 0 1.932 1.942h3.875a1.942 1.942 0 0 0 1.942-1.942V4.682A1.942 1.942 0 0 0 8.558 2.75m10.76 0h-3.875a1.942 1.942 0 0 0-1.942 1.932v3.875a1.943 1.943 0 0 0 1.942 1.942h3.875a1.942 1.942 0 0 0 1.932-1.942V4.682a1.932 1.932 0 0 0-1.932-1.932M8.557 13.5H4.682a1.943 1.943 0 0 0-1.932 1.943v3.875a1.932 1.932 0 0 0 1.932 1.932h3.875a1.942 1.942 0 0 0 1.942-1.932v-3.875a1.943 1.943 0 0 0-1.942-1.942m5.892 3.794l1.647 1.647a.622.622 0 0 0 .886 0l3.32-3.319"/></svg>