<svg xmlns="http://www.w3.org/2000/svg" width="1em" height="1em" viewBox="0 0 24 24"><path fill="currentColor" d="m22.031 10.875l-2.136-3.543a1.764 1.764 0 0 0-1.497-.846h-1.677v-.249a2.73 2.73 0 0 0-.804-1.935a2.748 2.748 0 0 0-1.94-.802H3.994a2.732 2.732 0 0 0-2.541 1.687a2.71 2.71 0 0 0-.204 1.05v8.958a1.739 1.739 0 0 0 1.507 1.722c-.005.09-.005.18 0 .269a3.147 3.147 0 0 0 .948 2.279A3.242 3.242 0 0 0 6 20.46a3.279 3.279 0 0 0 2.285-.956a3.26 3.26 0 0 0 .96-2.279a2.074 2.074 0 0 0 0-.248h5.509a2.065 2.065 0 0 0 0 .248a3.146 3.146 0 0 0 .948 2.28A3.241 3.241 0 0 0 18 20.5a3.278 3.278 0 0 0 2.285-.956a3.26 3.26 0 0 0 .959-2.279a2.065 2.065 0 0 0 0-.249H22a.76.76 0 0 0 .749-.746v-2.876c0-.89-.25-1.762-.719-2.519m-14.293 6.31a1.688 1.688 0 0 1-.519 1.225a1.79 1.79 0 0 1-2.466 0a1.732 1.732 0 0 1-.508-1.234a1.608 1.608 0 0 1 .14-.687c.132-.313.359-.577.648-.757a1.74 1.74 0 0 1 .998-.288c.338 0 .668.1.948.288c.287.183.513.446.65.757c.098.215.15.45.149.687zm3.244-4.976h-4.99a1 1 0 0 1-.999-.995a.994.994 0 0 1 .998-.996h4.991a1 1 0 0 1 .998.996a.994.994 0 0 1-.998.995m0-3.424h-4.99a1 1 0 0 1-.999-.995a.994.994 0 0 1 .998-.995h4.991a1 1 0 0 1 .998.995a.994.994 0 0 1-.998.995m8.734 8.4a1.687 1.687 0 0 1-.52 1.225a1.79 1.79 0 0 1-2.465 0a1.732 1.732 0 0 1-.509-1.234a1.64 1.64 0 0 1 .33-1.006c.246-.327.599-.56.998-.657h.25a.32.32 0 0 1 .139 0h.2c.303.035.592.148.838.329c.247.181.44.425.559.707c.099.215.15.45.15.686z"/><path fill="currentColor" d="M17.96 15.434a.318.318 0 0 0-.14 0z"/></svg>