<svg xmlns="http://www.w3.org/2000/svg" width="1em" height="1em" viewBox="0 0 24 24"><path fill="currentColor" d="M2 12a10 10 0 1 1 10 10A10.011 10.011 0 0 1 2 12m11.395 1.125a11.023 11.023 0 0 0-6.48 5.41l.113.09a8.256 8.256 0 0 0 4.106 1.598a8.379 8.379 0 0 0 3.633-.349c.135 0 .18-.101.158-.247a29.975 29.975 0 0 0-1.058-4.984c-.146-.506-.315-.99-.472-1.518M12.27 10.48a25.117 25.117 0 0 1-8.616 1.125a8.313 8.313 0 0 0 2.07 5.883a12.745 12.745 0 0 1 7.086-5.759zm-8.358-.56c2.57.153 5.146-.14 7.616-.866a20.025 20.025 0 0 0-3.206-4.387a.146.146 0 0 0-.214 0a8.211 8.211 0 0 0-3.16 2.925a8.065 8.065 0 0 0-1.013 2.362zm16.356 2.97a35.184 35.184 0 0 0-5.107 0c.259 1.012.562 2.002.787 3.003c.225 1.001.383 2.036.574 3.06a8.402 8.402 0 0 0 3.768-6.03zm-2.947-7.3a8.313 8.313 0 0 0-7.368-1.654a20.81 20.81 0 0 1 3.273 4.5a10.518 10.518 0 0 0 4.095-2.847m-3.375 4.308c.214.528.416 1.034.641 1.54c0 0 .113.068.169.068c.45 0 .9-.079 1.35-.09h4.173a8.055 8.055 0 0 0-1.946-4.78a10.27 10.27 0 0 1-4.376 3.262z"/></svg>