<svg xmlns="http://www.w3.org/2000/svg" width="1em" height="1em" viewBox="0 0 24 24"><path fill="none" stroke="currentColor" stroke-linecap="round" stroke-linejoin="round" stroke-width="1.5" d="m4.144 16.735l.493-3.425a.973.973 0 0 1 .293-.587l9.665-9.664a1.032 1.032 0 0 1 .973-.281a5.114 5.114 0 0 1 2.346 1.372a5.079 5.079 0 0 1 1.384 2.346a1.068 1.068 0 0 1-.282.973l-9.664 9.664a1.173 1.173 0 0 1-.598.294l-3.437.492a1.044 1.044 0 0 1-1.173-1.184m8.633-11.846l4.41 4.398M3.79 21.25h16.42"/></svg>