<svg xmlns="http://www.w3.org/2000/svg" width="1em" height="1em" viewBox="0 0 24 24"><path fill="currentColor" d="M16.698 21.996h-11.6a3.06 3.06 0 0 1-2.2-.92a3.09 3.09 0 0 1-.9-2.21V7.276a3 3 0 0 1 .91-2.19a3 3 0 0 1 1-.67a3.06 3.06 0 0 1 1.2-.24h4.44a.75.75 0 0 1 0 1.5h-4.44a2 2 0 0 0-.63.12a1.62 1.62 0 0 0-.99 1.5v11.59a1.62 1.62 0 0 0 .47 1.16a1.62 1.62 0 0 0 1.15.47h11.6c.213 0 .423-.04.62-.12a1.54 1.54 0 0 0 .52-.35a1.49 1.49 0 0 0 .35-.52a1.51 1.51 0 0 0 .13-.63v-4.44a.75.75 0 1 1 1.5 0v4.47a3.06 3.06 0 0 1-.92 2.2a3.16 3.16 0 0 1-1 .68c-.387.14-.798.205-1.21.19"/><path fill="currentColor" d="M21.808 5.456a1.86 1.86 0 0 0-.46-.68l-2.15-2.15a1.86 1.86 0 0 0-.68-.46a2.1 2.1 0 0 0-2.31.46l-1.71 1.71v.05l-7.74 7.73a2.11 2.11 0 0 0-.61 1.48v2.17a2.12 2.12 0 0 0 2.11 2.11h2.17a2.07 2.07 0 0 0 1.48-.62l7.74-7.74l1.72-1.72c.202-.19.36-.422.46-.68a2 2 0 0 0 0-1.63zm-1.38 1.05a.56.56 0 0 1-.14.2l-1.22 1.22l-3-3l1.23-1.23a.64.64 0 0 1 .44-.18a.59.59 0 0 1 .23.05c.076.032.145.08.2.14l2.16 2.15a.69.69 0 0 1 .13.2a.59.59 0 0 1 0 .23a.6.6 0 0 1-.03.22"/></svg>