<svg xmlns="http://www.w3.org/2000/svg" width="1em" height="1em" viewBox="0 0 24 24"><path fill="currentColor" d="M12.01 4.256a9.64 9.64 0 0 0-5.813 1.74a11.284 11.284 0 0 0-3.988 5a2.556 2.556 0 0 0-.209 1c.004.343.072.682.2 1a11.561 11.561 0 0 0 2.641 3.84l3.59-3.69a3.76 3.76 0 0 1 1.36-4.22a3.733 3.733 0 0 1 3.365-.52l3.23-3.24a9.328 9.328 0 0 0-4.376-.91m9.78 6.72a11.275 11.275 0 0 0-3.639-4.73l-3.34 3.31a3.66 3.66 0 0 1 .918 2.44c0 .996-.394 1.95-1.095 2.656a3.744 3.744 0 0 1-2.644 1.105c-.9.005-1.77-.322-2.443-.92l-3.23 3.24a9.511 9.511 0 0 0 5.643 1.67h.3a9.67 9.67 0 0 0 5.543-1.75a11.274 11.274 0 0 0 3.988-5c.136-.316.207-.656.209-1a2.707 2.707 0 0 0-.21-1.02"/></svg>