<svg xmlns="http://www.w3.org/2000/svg" width="1em" height="1em" viewBox="0 0 24 24"><g fill="none" stroke="currentColor" stroke-linecap="round" stroke-linejoin="round" stroke-width="1.5"><path d="M2.899 12.735a1.872 1.872 0 0 1 0-1.47c.808-1.92 2.1-3.535 3.716-4.647C8.232 5.506 10.103 4.945 12 5.004c1.897-.059 3.768.502 5.385 1.614C19 7.73 20.293 9.345 21.1 11.265a1.872 1.872 0 0 1 0 1.47c-.808 1.92-2.1 3.535-3.716 4.647c-1.617 1.112-3.488 1.673-5.385 1.614c-1.897.059-3.768-.502-5.385-1.614C5 16.27 3.707 14.655 2.9 12.735"/><path d="M12 15.5a3.5 3.5 0 1 0 0-7a3.5 3.5 0 0 0 0 7"/></g></svg>