<svg xmlns="http://www.w3.org/2000/svg" width="1em" height="1em" viewBox="0 0 24 24"><path fill="currentColor" d="M22 12.02a2.17 2.17 0 0 1-.76 1.66l-6.4 5.48a2.14 2.14 0 0 1-1.11.49c-.096.01-.194.01-.29 0a2.08 2.08 0 0 1-.91-.2a2.24 2.24 0 0 1-.92-.78a2.28 2.28 0 0 1-.35-1.16v-3.22l-5.68 4.85a2.11 2.11 0 0 1-1.11.49c-.096.01-.194.01-.29 0a2.08 2.08 0 0 1-.91-.2a2.15 2.15 0 0 1-.91-.78A2.2 2.2 0 0 1 2 17.49v-11a2.21 2.21 0 0 1 1.27-1.95a2.18 2.18 0 0 1 2.31.31l5.68 4.86V6.5a2.179 2.179 0 0 1 2.47-2.13a2.21 2.21 0 0 1 1.1.49l6.41 5.49c.239.204.43.456.56.74c.133.293.201.61.2.93"/></svg>