<svg xmlns="http://www.w3.org/2000/svg" width="1em" height="1em" viewBox="0 0 24 24"><path fill="currentColor" d="M22 6.477v11a2.2 2.2 0 0 1-.36 1.16a2.15 2.15 0 0 1-.91.78a2.08 2.08 0 0 1-.91.2a1.42 1.42 0 0 1-.29 0a2.18 2.18 0 0 1-1.11-.48l-5.68-4.86v3.22a2.28 2.28 0 0 1-.35 1.16a2.24 2.24 0 0 1-.92.78a2.08 2.08 0 0 1-.91.2c-.097.01-.194.01-.29 0a2.11 2.11 0 0 1-1.1-.48l-6.41-5.49a2.19 2.19 0 0 1-.56-2.57a2 2 0 0 1 .56-.74l6.4-5.48a2.17 2.17 0 0 1 3.58 1.63v3.23l5.68-4.86c.315-.267.7-.44 1.11-.5a2.25 2.25 0 0 1 1.2.18c.371.172.686.446.91.79c.223.335.348.727.36 1.13"/></svg>