<svg xmlns="http://www.w3.org/2000/svg" width="1em" height="1em" viewBox="0 0 24 24"><path fill="currentColor" d="M20.65 7.03a3.849 3.849 0 0 0-.92-1.22c-1.66-1.36-3.41-3.738-5.39-3.798a.39.39 0 0 0-.19 0H8.21A5.001 5.001 0 0 0 3 6.87v10.296a4.997 4.997 0 0 0 3.31 4.528a4.741 4.741 0 0 0 1.92.3h7.56A5.002 5.002 0 0 0 21 17.136V8.569a3.746 3.746 0 0 0-.35-1.54m-5.51 7.997h-2.57v2.549a1 1 0 1 1-2 0v-2.55H8a1 1 0 1 1 0-1.999h2.55v-2.569a1 1 0 0 1 2 0v2.57h2.57a1 1 0 0 1 .02 1.948zm.89-7.557a1.08 1.08 0 0 1-1.09-1.08V3.761c.67.13 3.24 2.789 3.79 3.219c.166.14.308.305.42.49z"/></svg>