<svg xmlns="http://www.w3.org/2000/svg" width="1em" height="1em" viewBox="0 0 24 24"><path fill="currentColor" d="m21.861 17.43l-3.52-13.24a2.73 2.73 0 0 0-1.26-1.64a2.65 2.65 0 0 0-2-.26l-3.77 1a2.06 2.06 0 0 0-.57.25a2.66 2.66 0 0 0-2.15-1.07h-3.9a2.69 2.69 0 0 0-2.69 2.69v13.63a2.69 2.69 0 0 0 2.69 2.7h3.9a2.7 2.7 0 0 0 2.7-2.7v-5.12l1.64 6.14a2.63 2.63 0 0 0 1.26 1.63c.407.236.87.36 1.34.36c.236.003.471-.024.7-.08l3.77-1a2.669 2.669 0 0 0 1.9-3.3zm-15.26.26a1.81 1.81 0 1 1 1.8-1.81a1.81 1.81 0 0 1-1.8 1.78zm10-.11a1.84 1.84 0 1 1 1.84-1.84a1.84 1.84 0 0 1-1.82 1.81z"/></svg>