<svg xmlns="http://www.w3.org/2000/svg" width="1em" height="1em" viewBox="0 0 24 24"><path fill="currentColor" d="M20.65 7.048c-.4-.998-3.13-3.133-3.89-3.932a4.154 4.154 0 0 0-2.39-1.067c.09-.11-6 0-6.16 0a5.01 5.01 0 0 0-3.622 1.336A4.989 4.989 0 0 0 3 6.898v10.277a4.98 4.98 0 0 0 1.605 3.501a5.001 5.001 0 0 0 3.625 1.319h7.56a5.01 5.01 0 0 0 3.623-1.337A4.99 4.99 0 0 0 21 17.145v-8.55a3.784 3.784 0 0 0-.35-1.547m-5.43 8.79c.93.908-.51 2.325-1.42 1.407l-1.81-1.806c-.82.619-2.11 2.874-3.22 1.796c-1.11-1.078 1.22-2.424 1.8-3.213c-.62-.818-2.89-2.115-1.8-3.213c1.09-1.097 2.4 1.178 3.22 1.796c.83-.628 2.13-2.893 3.23-1.806c1.1 1.088-1.19 2.395-1.81 3.223zm.81-8.401c-1.67 0-.94-2.624-1.09-3.702c.3.106.577.272.81.489c.31.33 3.26 2.864 3.4 3.213z"/></svg>