<svg xmlns="http://www.w3.org/2000/svg" width="1em" height="1em" viewBox="0 0 24 24"><path fill="currentColor" d="M20.68 7.014a3.85 3.85 0 0 0-.92-1.22l-3-2.72a4.15 4.15 0 0 0-2.39-1.07H8.21A5 5 0 0 0 3 6.864v10.3a5 5 0 0 0 3.31 4.53a4.74 4.74 0 0 0 1.92.3h7.56a5 5 0 0 0 5.21-4.86v-8.57a3.75 3.75 0 0 0-.32-1.55m-4.84 8.08l-2.66 2.67a1.69 1.69 0 0 1-.53.35c-.133.06-.275.097-.42.11a.9.9 0 0 1-.4 0a1.308 1.308 0 0 1-.42-.11a1.69 1.69 0 0 1-.53-.35l-2.66-2.67a1 1 0 0 1 1.41-1.41l1.4 1.4v-4.61a1 1 0 1 1 2 0v4.61l1.4-1.4a1 1 0 0 1 1.41 1.41m.22-7.69a1.08 1.08 0 0 1-1.09-1.08v-2.65c.28.152.551.322.81.51l3 2.73c.166.14.307.305.42.49z"/></svg>