<svg xmlns="http://www.w3.org/2000/svg" width="1em" height="1em" viewBox="0 0 24 24"><path fill="currentColor" d="M20.65 7.041c-.4-.999-3.12-3.136-3.89-3.936a4.132 4.132 0 0 0-2.42-1.078c0-.06-5.95 0-6.13 0a5.005 5.005 0 0 0-4.77 2.937A4.99 4.99 0 0 0 3 6.88v10.29a4.99 4.99 0 0 0 3.285 4.528a5.005 5.005 0 0 0 1.945.297h7.56a5.005 5.005 0 0 0 4.77-2.937A4.99 4.99 0 0 0 21 17.14V8.58a3.79 3.79 0 0 0-.35-1.539M11.5 18.32a1.001 1.001 0 0 1-1-1a.999.999 0 0 1 1.707-.706a.999.999 0 0 1-.707 1.706m2.61-5.264a2.537 2.537 0 0 1-1.52 1.418c0 .68-.22 1.518-1.06 1.508c-1.81-.18-1-3.046.38-3.386a.55.55 0 0 0 .35-.77a.87.87 0 0 0-1.49.11a1.002 1.002 0 0 1-1.82-.838c1.38-3.157 6.48-1.379 5.16 1.918zm1.92-5.584c-1.67 0-.94-2.627-1.09-3.726a25.06 25.06 0 0 1 4.21 3.726z"/></svg>