<svg xmlns="http://www.w3.org/2000/svg" width="1em" height="1em" viewBox="0 0 24 24"><g fill="none" stroke="currentColor" stroke-linecap="round" stroke-linejoin="round" stroke-width="1.5"><path d="M9.278 14.611a2.86 2.86 0 0 0-.308-1.476c-1.231-2.482 1.712-5.187 4.213-4.132c3.51 1.439 2.931 8.016 1.391 10.82m.666-16.268C8.587.354.631 7.278 3.267 14.165"/><path d="M7.061 7.662A6.847 6.847 0 0 1 10.13 5.94a6.811 6.811 0 0 1 3.513.033a6.849 6.849 0 0 1 3.036 1.78a6.923 6.923 0 0 1 1.763 3.062m-6.639.893c.615 1.659.802 3.448.542 5.199a10.9 10.9 0 0 1-2.192 4.343M5.916 10.305A5.811 5.811 0 0 0 6.1 13.88a3.818 3.818 0 0 1-.1 2.565a3.787 3.787 0 0 1-1.698 1.915M17.95 5.119c1.723.893 2.857 3.35 3.3 4.963m-2.39 3.4a14.587 14.587 0 0 1-.27 5.162m-9.521-1.352a5.4 5.4 0 0 1-1.983 2.394"/></g></svg>