<svg xmlns="http://www.w3.org/2000/svg" width="1em" height="1em" viewBox="0 0 24 24"><path fill="currentColor" d="M19.046 8.744a8.375 8.375 0 0 1-2.096-5.99a.738.738 0 0 0-.28-.589a.72.72 0 0 0-.648-.14c-6.609 1.628-7.457 4.872-7.537 9.983A10.75 10.75 0 0 1 6.49 9.432l-.27-.419a.729.729 0 0 0-.599-.35a.689.689 0 0 0-.629.29a8.205 8.205 0 0 0-1.168 8.585C5.231 20.373 8.295 22 12.248 22a8.705 8.705 0 0 0 6.11-2.535a8.565 8.565 0 0 0 2.535-6.11a6.908 6.908 0 0 0-1.847-4.611m-1.727 6.818a6.07 6.07 0 0 1-3.883 3.244a6.29 6.29 0 0 1-1.607.21a5.501 5.501 0 0 1-.998-.08a1.012 1.012 0 0 1 .33-1.997c.578.09 1.17.06 1.736-.09a4.184 4.184 0 0 0 1.547-.808a3.993 3.993 0 0 0 1.068-1.378c.257-.53.393-1.109.4-1.697a.998.998 0 0 1 1.996 0a5.992 5.992 0 0 1-.609 2.596z"/></svg>