<svg xmlns="http://www.w3.org/2000/svg" width="1em" height="1em" viewBox="0 0 24 24"><path fill="currentColor" d="M20.87 7.175a3.821 3.821 0 0 0-2.71-1.12h-4.35a1 1 0 0 1-.47-.11a1.001 1.001 0 0 1-.36-.32l-.87-1.33a3.801 3.801 0 0 0-3.2-1.71H5.83A3.82 3.82 0 0 0 2 6.415v11.16a3.84 3.84 0 0 0 3.83 3.84h12.33a3.86 3.86 0 0 0 3.84-3.84v-7.65a3.85 3.85 0 0 0-1.13-2.75m-4.61 4.83l-4 4a1.702 1.702 0 0 1-1.25.52a1.701 1.701 0 0 1-.67-.13a1.651 1.651 0 0 1-.58-.39l-2-2a1 1 0 0 1 1.41-1.41l1.83 1.83l3.86-3.86a.998.998 0 0 1 1.42 0a1.002 1.002 0 0 1-.02 1.44"/></svg>