<svg xmlns="http://www.w3.org/2000/svg" width="1em" height="1em" viewBox="0 0 24 24"><path fill="currentColor" d="M20.99 7.325v-2.15a2.29 2.29 0 0 0-1.66-2.21a2.31 2.31 0 0 0-1-.05l-6.51 1a3.67 3.67 0 0 0-1.09-.87a3.8 3.8 0 0 0-1.81-.46H5.84A3.82 3.82 0 0 0 2 6.425v11.16a3.82 3.82 0 0 0 3.84 3.83h12.33a3.82 3.82 0 0 0 2.71-1.12a3.88 3.88 0 0 0 1.12-2.71v-7.7a3.73 3.73 0 0 0-1.01-2.56m-4.34 9.76H7.4a1 1 0 0 1 0-2h9.25a1 1 0 0 1 0 2m2.88-10.71a3.78 3.78 0 0 0-1.3-.23h-4.4a1 1 0 0 1-.47-.12a1 1 0 0 1-.35-.32l-.23-.34l5.8-.93a.77.77 0 0 1 .34 0a.73.73 0 0 1 .3.16a.6.6 0 0 1 .2.27a.71.71 0 0 1 .07.33z"/></svg>