<svg xmlns="http://www.w3.org/2000/svg" width="1em" height="1em" viewBox="0 0 24 24"><path fill="currentColor" d="m19.276 10.394l-5.728-7.877a1.849 1.849 0 0 0-3 0l-5.727 7.877a2.71 2.71 0 0 0-.53 1.62a1.09 1.09 0 0 0 0 .18c0 .102.02.204.06.3c.057.411.215.803.46 1.139l5.728 7.877a2 2 0 0 0 .66.56a2 2 0 0 0 .68.18h.3a1.83 1.83 0 0 0 1.329-.74l5.728-7.877a2.62 2.62 0 0 0 .47-1.16a.14.14 0 0 0 0-.07a.603.603 0 0 0 0-.18a.683.683 0 0 0 0-.2a2.72 2.72 0 0 0-.43-1.629M6.76 13.713l4.558 1.88v4.378zm6.058 6.248v-4.369l4.548-1.879z"/></svg>