<svg xmlns="http://www.w3.org/2000/svg" width="1em" height="1em" viewBox="0 0 24 24"><path fill="currentColor" d="m19.25 10.377l-5.732-7.882a1.77 1.77 0 0 0-.66-.55a1.85 1.85 0 0 0-2.31.55l-5.732 7.882a2.73 2.73 0 0 0-.53 1.62c-.005.06-.005.12 0 .18c0 .103.02.206.06.3c.058.413.216.804.46 1.14l5.732 7.883a1.81 1.81 0 0 0 1.49.75a1.87 1.87 0 0 0 .83-.19a1.93 1.93 0 0 0 .65-.55l5.732-7.882c.248-.347.41-.748.47-1.17a.141.141 0 0 0 0-.07a.544.544 0 0 0 0-.18a.684.684 0 0 0 0-.2a2.74 2.74 0 0 0-.46-1.631m-7.002 10.242a.27.27 0 0 1-.11.1a.42.42 0 0 1-.31 0a.36.36 0 0 1-.11-.1l-5.001-6.921l5.001 2.07a.72.72 0 0 0 .57 0l5.001-2.07z"/></svg>