<svg xmlns="http://www.w3.org/2000/svg" width="1em" height="1em" viewBox="0 0 24 24"><path fill="currentColor" d="m19.294 10.377l-5.74-7.896a1.913 1.913 0 0 0-.652-.55a1.603 1.603 0 0 0-.681-.181h-.301c-.238.01-.47.072-.681.18c-.26.13-.487.319-.662.551l-5.74 7.896A2.735 2.735 0 0 0 4.304 12c-.005.06-.005.12 0 .18a.39.39 0 0 0 0 .15a.33.33 0 0 0 0 .14c.057.414.216.806.461 1.143l5.751 7.896c.17.235.394.427.652.56c.214.1.445.162.68.181h.301a1.833 1.833 0 0 0 1.333-.741l5.741-7.886c.249-.347.41-.75.471-1.172a.14.14 0 0 0 0-.07c.01-.06.01-.12 0-.18a.68.68 0 0 0 0-.201a2.745 2.745 0 0 0-.4-1.623m-1.212 2.364l-.701 1.002l-4.56 1.884v4.379l-.49.67a.2.2 0 0 1-.11.091a.341.341 0 0 1-.311 0a.24.24 0 0 1-.11-.09l-.481-.661v-4.389l-4.57-1.884l-.7-1.002A1.232 1.232 0 0 1 5.807 12a1.002 1.002 0 0 1 0-.3l5.47 2.264v-9.94l.472-.65a.29.29 0 0 1 .12-.101a.41.41 0 0 1 .16 0a.4.4 0 0 1 .15 0a.22.22 0 0 1 .11.1l.492.671v9.92l5.46-2.265a.761.761 0 0 1 .05.301c.01.263-.063.523-.21.741"/></svg>