<svg xmlns="http://www.w3.org/2000/svg" width="1em" height="1em" viewBox="0 0 24 24"><path fill="currentColor" d="M8.478 21.439a10.103 10.103 0 0 1-6.504-8.573h4.32a17.54 17.54 0 0 0 2.184 8.573m7.505-8.573c-.182 5.465-2.174 9.208-3.973 9.208c-1.8 0-3.791-3.743-3.974-9.208zm6.043 0a10.055 10.055 0 0 1-6.514 8.573a17.434 17.434 0 0 0 2.194-8.573zm0-1.732h-4.32c.02-3-.735-5.952-2.194-8.573a10.054 10.054 0 0 1 6.514 8.573m-6.043 0H8.036c.183-5.475 2.174-9.208 3.974-9.208c1.799 0 3.781 3.733 3.973 9.208M8.478 2.61a17.483 17.483 0 0 0-2.184 8.572h-4.32A10.074 10.074 0 0 1 8.478 2.61"/></svg>