<svg xmlns="http://www.w3.org/2000/svg" width="1em" height="1em" viewBox="0 0 24 24"><g fill="none" stroke="currentColor" stroke-linecap="round" stroke-linejoin="round" stroke-width="1.5"><path d="M14.572 12.51h2.125a2.362 2.362 0 0 1 1.527.5c.432.345.731.829.848 1.37l.898 4.89c.04.174.04.355 0 .53a1.11 1.11 0 0 1-.24.47a1.095 1.095 0 0 1-.418.32c-.163.076-.34.114-.52.11a1.175 1.175 0 0 1-.758-.25a1.12 1.12 0 0 1-.429-.67l-.698-4.08H15.13"/><path d="M8.135 10.5c-6.127 1.55-5.269 10.88 1.407 11c4.62.06 6.986-5.41 4.6-8.81"/><path d="M14.332 8.71V13a5.54 5.54 0 0 0-3.183-2.49v4.56a1.194 1.194 0 0 1-1.188 1.2a1.196 1.196 0 0 1-1.197-1.2l-.599-4.38a2.004 2.004 0 0 1 .828-1.88l1.597-1.13c1.247-.96 3.742-.82 3.742 1.03"/><path d="M13.195 7.06a2.272 2.272 0 0 0 2.102-1.408a2.284 2.284 0 0 0-.494-2.484A2.274 2.274 0 0 0 10.92 4.78c0 .604.24 1.184.667 1.612a2.273 2.273 0 0 0 1.608.668"/></g></svg>