<svg xmlns="http://www.w3.org/2000/svg" width="1em" height="1em" viewBox="0 0 24 24"><path fill="currentColor" d="m20.726 19.115l-.909-4.912a3.186 3.186 0 0 0-1.118-1.797a3.125 3.125 0 0 0-1.997-.66h-1.637V8.703a2.297 2.297 0 0 0-.39-1.308a.81.81 0 0 0 .18-.1a2.996 2.996 0 0 0 1.288-3.105a3.085 3.085 0 0 0-.829-1.548a3.045 3.045 0 0 0-1.547-.828a2.995 2.995 0 0 0-3.605 2.995c-.005.69.228 1.36.66 1.897c-.243.1-.47.231-.68.39L8.555 8.221A2.716 2.716 0 0 0 7.447 9.95a6.34 6.34 0 0 0 2.076 12.3h.08a6.06 6.06 0 0 0 5.422-3.325a6.479 6.479 0 0 0 .748-2.466h.48l.599 3.485c.092.438.34.829.699 1.098c.326.26.73.404 1.148.41c.29.014.577-.044.838-.17c.269-.115.505-.293.69-.52a1.86 1.86 0 0 0 .399-.788c.092-.277.126-.569.1-.859m-6.99-.918a4.543 4.543 0 0 1-4.093 2.525h-.07a4.852 4.852 0 0 1-1.996-9.235l.489 3.624c.02.495.222.965.569 1.318a1.936 1.936 0 0 0 1.388.57a1.906 1.906 0 0 0 1.358-.57c.36-.368.564-.862.569-1.377v-3.425a4.783 4.783 0 0 1 1.777 1.737a4.992 4.992 0 0 1 .02 4.833z"/></svg>