<svg xmlns="http://www.w3.org/2000/svg" width="1em" height="1em" viewBox="0 0 24 24"><path fill="currentColor" d="M22.24 11.33a10.197 10.197 0 0 0-3.343-6.93a10.28 10.28 0 0 0-7.247-2.644a10.274 10.274 0 0 0-7.047 3.138a10.191 10.191 0 0 0-2.853 7.143v.23c.011.484.058.967.14 1.444a10.205 10.205 0 0 0 3.72 6.308a10.283 10.283 0 0 0 13.691-.804a10.194 10.194 0 0 0 2.949-6.7v-.468c0-.16 0-.488-.01-.717m-1.53 1.594h-3.142l-2.702 4.504a.998.998 0 0 1-.86.478h-.06a1.004 1.004 0 0 1-.86-.588l-3.212-7.214l-2 3.338a1 1 0 0 1-.861.479H3.47a8.357 8.357 0 0 1-.21-1.884v-.11h3.182l2.71-4.493a.999.999 0 0 1 .921-.478a1.003 1.003 0 0 1 .85.588l3.222 7.214l2.001-3.338a.999.999 0 0 1 .86-.489h3.682c.05.367.073.737.07 1.106a6.59 6.59 0 0 1-.05.887"/></svg>