<svg xmlns="http://www.w3.org/2000/svg" width="1em" height="1em" viewBox="0 0 24 24"><path fill="currentColor" d="M22 9.95v4.11a1.78 1.78 0 0 1-1.78 1.78h-4.39v4.39a1.731 1.731 0 0 1-.52 1.25a1.8 1.8 0 0 1-1.26.52H9.94a1.8 1.8 0 0 1-1.26-.52a1.81 1.81 0 0 1-.52-1.25v-4.39H3.78A1.78 1.78 0 0 1 2 14.06V9.95a1.78 1.78 0 0 1 1.78-1.78h4.38V3.78a1.8 1.8 0 0 1 1.103-1.646A1.75 1.75 0 0 1 9.94 2H14a1.8 1.8 0 0 1 1.26.52a1.768 1.768 0 0 1 .52 1.26v4.39h4.39c.472.003.924.19 1.26.52A1.78 1.78 0 0 1 22 9.95"/></svg>