<svg xmlns="http://www.w3.org/2000/svg" width="1em" height="1em" viewBox="0 0 24 24"><path fill="currentColor" d="M21.918 10.37v4.88a6.775 6.775 0 0 1-1.972 4.77a6.718 6.718 0 0 1-4.75 1.98H8.721a6.718 6.718 0 0 1-4.75-1.98A6.774 6.774 0 0 1 2 15.25v-6.5a6.774 6.774 0 0 1 1.972-4.77A6.718 6.718 0 0 1 8.722 2h4.85a.746.746 0 0 1 .747.75a.751.751 0 0 1-.747.75h-4.85a5.218 5.218 0 0 0-3.697 1.538A5.261 5.261 0 0 0 3.494 8.75v2.5h2.49a2.697 2.697 0 0 1 1.932.8c.51.52.799 1.22.806 1.95a1.25 1.25 0 0 0 1.245 1.25h3.984a1.21 1.21 0 0 0 .876-.37c.233-.234.365-.55.368-.88a2.74 2.74 0 0 1 .797-1.95a2.719 2.719 0 0 1 1.942-.8h2.49v-.88a.752.752 0 0 1 .747-.75a.745.745 0 0 1 .747.75"/><path fill="currentColor" d="M18.88 8.5a.745.745 0 0 1-.737-.75v-5a.742.742 0 0 1 1.026-.696a.746.746 0 0 1 .468.696v5a.761.761 0 0 1-.757.75"/><path fill="currentColor" d="M21.748 5.11a.745.745 0 0 0-1.055 0l-.996 1l-.747.75l-1.763-1.77a.745.745 0 0 0-1.256.535a.752.752 0 0 0 .2.525l1.992 2c.12.112.258.204.409.27a1.161 1.161 0 0 0 .916-.01c.146-.06.278-.148.388-.26l1.992-2a.752.752 0 0 0-.08-1.04"/></svg>