<svg xmlns="http://www.w3.org/2000/svg" width="1em" height="1em" viewBox="0 0 24 24"><g fill="none" stroke="currentColor" stroke-linecap="round" stroke-width="1.5"><path stroke-linejoin="round" d="M2.75 12H6a2 2 0 0 1 2 2a2 2 0 0 0 2 2h4a2 2 0 0 0 2-2a2 2 0 0 1 2-2h3.25"/><path d="M21.25 10.375v4.875a6 6 0 0 1-6 6h-6.5a6 6 0 0 1-6-6v-6.5a6 6 0 0 1 6-6h4.875"/><path stroke-miterlimit="10" d="M17.614 3.527a1.332 1.332 0 0 1 1.451-.755a1.292 1.292 0 0 1 .948.675a1.12 1.12 0 0 1-.653 1.543a.828.828 0 0 0-.534.748v.308"/><path stroke-linejoin="round" d="M18.802 7.75h.003"/></g></svg>