<svg xmlns="http://www.w3.org/2000/svg" width="1em" height="1em" viewBox="0 0 24 24"><path fill="currentColor" d="M22 10.412v4.862a6.724 6.724 0 0 1-1.98 4.753A6.772 6.772 0 0 1 15.25 22h-6.5a6.772 6.772 0 0 1-4.77-1.973A6.723 6.723 0 0 1 2 15.274V8.797a6.724 6.724 0 0 1 1.98-4.753a6.772 6.772 0 0 1 4.77-1.972h4.87a.751.751 0 0 1 .75.747a.746.746 0 0 1-.75.747H8.75a5.26 5.26 0 0 0-3.712 1.532a5.222 5.222 0 0 0-1.538 3.7v2.49H6a2.728 2.728 0 0 1 1.94.798c.512.518.803 1.215.81 1.943A1.251 1.251 0 0 0 10 15.274h4a1.224 1.224 0 0 0 .88-.368c.234-.233.367-.548.37-.877a2.71 2.71 0 0 1 .8-1.944A2.73 2.73 0 0 1 18 11.29h2.5v-.877a.746.746 0 0 1 .75-.748a.751.751 0 0 1 .75.748"/><path fill="currentColor" d="M18.83 6.844a.751.751 0 0 1-.75-.747v-.299a1.6 1.6 0 0 1 1-1.445a.57.57 0 0 0 .16-.09a.379.379 0 0 0 .09-.129c.01-.05.01-.1 0-.15a.259.259 0 0 0 0-.149a.44.44 0 0 0-.15-.16a.521.521 0 0 0-.23-.099a.602.602 0 0 0-.4 0a.638.638 0 0 0-.26.28a.746.746 0 0 1-.716.459a.752.752 0 0 1-.686-.503a.745.745 0 0 1 .042-.585c.19-.426.517-.776.93-.996a2.157 2.157 0 0 1 1.34-.2c.308.053.599.175.85.36a1.844 1.844 0 0 1 .22 2.899a1.902 1.902 0 0 1-.67.399v.338a.734.734 0 0 1-.458.764a.742.742 0 0 1-.312.053m0 1.704a.751.751 0 0 1-.75-.747a.746.746 0 0 1 .75-.747a.751.751 0 0 1 .75.747a.746.746 0 0 1-.75.747"/></svg>