<svg xmlns="http://www.w3.org/2000/svg" width="1em" height="1em" viewBox="0 0 24 24"><g fill="none" stroke="currentColor" stroke-linecap="round" stroke-linejoin="round" stroke-width="1.5"><path d="M18.131 16.26c-2.565 2.07-5.13 1.478-6.413 1.478c-1.283 0-1.36.27-2.296 1.287a1.284 1.284 0 0 1-1.436.296a1.284 1.284 0 0 1-.424-.296l-2.565-2.573a1.287 1.287 0 0 1 0-1.865c1.026-.94 1.282-1.12 1.282-2.303c0-1.505-.705-4.348 2.22-7.28a7.425 7.425 0 0 1 5.535-2.2A7.41 7.41 0 0 1 19.4 5.39a7.455 7.455 0 0 1 1.75 5.707a7.463 7.463 0 0 1-2.993 5.162zm-13.429-.014l-1.5 1.505c-.411.412-.527.978-.245 1.287l2.091 2.006c.282.283.847.168 1.283-.244l1.41-1.505"/><path d="M15.912 6.508a3.103 3.103 0 0 0-3.39-.678a3.112 3.112 0 0 0-1.01.678"/></g></svg>