<svg xmlns="http://www.w3.org/2000/svg" width="1em" height="1em" viewBox="0 0 24 24"><path fill="currentColor" d="M21.657 7.843a8.167 8.167 0 0 0-4.293-5.023a8.167 8.167 0 0 0-6.585-.242a8.144 8.144 0 0 0-2.815 1.86a8.349 8.349 0 0 0-2.473 7.143v.703c0 .804 0 .834-.915 1.638l-.14.13a2.068 2.068 0 0 0-.643 1.487c-.002.156.019.312.06.462l-1.237 1.246a1.698 1.698 0 0 0-.242 2.371l2.091 2.01A1.307 1.307 0 0 0 5.41 22a2.132 2.132 0 0 0 1.428-.633l1.136-1.206c.161.04.327.06.493.06a2.011 2.011 0 0 0 1.488-.643l.301-.331c.634-.704.644-.714 1.448-.714h.673a8.318 8.318 0 0 0 6.143-1.597l.11-.07a8.191 8.191 0 0 0 3.308-5.707a8.033 8.033 0 0 0-.281-3.316M5.802 20.312a.733.733 0 0 1-.311.19l-2.01-1.878a.653.653 0 0 1 .18-.292l1.005-1.004l2.011 2.01zM16.66 7.25a1.006 1.006 0 0 1-1.417 0a2.222 2.222 0 0 0-.684-.462a2.173 2.173 0 0 0-1.629 0c-.254.11-.486.267-.683.462a1.006 1.006 0 0 1-1.428-1.416c.38-.389.835-.697 1.337-.905a4.214 4.214 0 0 1 3.167 0c.505.209.963.516 1.347.905a1.005 1.005 0 0 1-.01 1.376z"/></svg>