<svg xmlns="http://www.w3.org/2000/svg" width="1em" height="1em" viewBox="0 0 24 24"><g fill="none" stroke="currentColor" stroke-linecap="round" stroke-linejoin="round" stroke-width="1.5"><path d="M10.522 13.48a4.094 4.094 0 0 0 2.892 1.199a4.74 4.74 0 0 0 1.063-.136a4.176 4.176 0 0 0 1.828-1.063l.969-.968l2.878-2.888a4.085 4.085 0 0 0-2.922-6.873a4.095 4.095 0 0 0-2.862 1.096L11.49 6.736"/><path d="m12.445 17.336l-2.892 2.888a4.094 4.094 0 0 1-6.801-2.944a4.085 4.085 0 0 1 1.031-2.833l2.892-2.888l.969-.968A4.175 4.175 0 0 1 9.47 9.53a4.096 4.096 0 0 1 3.956 1.062"/></g></svg>