<svg xmlns="http://www.w3.org/2000/svg" width="1em" height="1em" viewBox="0 0 24 24"><path fill="currentColor" d="M21.265 8.18a9.659 9.659 0 0 0-2.17-3.25a10 10 0 0 0-10.9-2.17a10.18 10.18 0 0 0-3.25 2.17a10 10 0 0 0-2.16 3.25a9.83 9.83 0 0 0-.76 3.82a9.56 9.56 0 0 0 .74 3.77l-.5 3.65a2 2 0 0 0 0 .94c.093.304.25.583.46.82a2 2 0 0 0 .79.5a2 2 0 0 0 .93.07l3.65-.54a9.719 9.719 0 0 0 3.88.79a9.88 9.88 0 0 0 3.83-.76a10.001 10.001 0 0 0 3.24-2.17a9.72 9.72 0 0 0 2.17-3.24a10 10 0 0 0 0-7.65zM15.925 13h-7.8a1 1 0 1 1 0-2h7.8a1 1 0 0 1 0 2"/></svg>