<svg xmlns="http://www.w3.org/2000/svg" width="1em" height="1em" viewBox="0 0 24 24"><path fill="currentColor" d="M21.25 8.18a9.78 9.78 0 0 0-2.16-3.25a10 10 0 0 0-14.15 0a9.76 9.76 0 0 0-2.17 3.25A10 10 0 0 0 2.01 12a9.74 9.74 0 0 0 .74 3.77l-.5 3.65a1.95 1.95 0 0 0 1.29 2.26c.297.098.613.122.92.07l3.65-.54a9.758 9.758 0 0 0 3.88.79a10 10 0 0 0 9.24-13.82zM7.73 13.61a1.61 1.61 0 1 1 .001-3.22a1.61 1.61 0 0 1 0 3.22m4.28 0a1.61 1.61 0 1 1 .001-3.22a1.61 1.61 0 0 1 0 3.22m4.28 0a1.61 1.61 0 1 1 .001-3.22a1.61 1.61 0 0 1 0 3.22"/></svg>