<svg xmlns="http://www.w3.org/2000/svg" width="1em" height="1em" viewBox="0 0 24 24"><path fill="currentColor" d="M20.615 4.17a4.69 4.69 0 0 0-3.33-1.38H6.705a4.71 4.71 0 0 0-4.71 4.72v6.6a4.71 4.71 0 0 0 4.71 4.72h2.34l1.94 1.94a1.34 1.34 0 0 0 1.55.32a1.11 1.11 0 0 0 .44-.3l2-2h2.34a4.73 4.73 0 0 0 3.33-1.38a4.77 4.77 0 0 0 1-1.53a4.68 4.68 0 0 0 .36-1.81v-6.6a4.71 4.71 0 0 0-1.39-3.3m-8.72 12.85a1.25 1.25 0 1 1 0-2.499a1.25 1.25 0 0 1 0 2.499m3.31-6.8a3.21 3.21 0 0 1-1.92 1.79a.65.65 0 0 0-.26.2a.61.61 0 0 0-.11.35v.57a1 1 0 1 1-2 0v-.6a2.64 2.64 0 0 1 1.69-2.41a1.22 1.22 0 0 0 .76-.68a1.16 1.16 0 0 0 .09-.49c0-.17-.038-.337-.11-.49a1.629 1.629 0 0 0-.45-.5a1.65 1.65 0 0 0-.66-.27a1.69 1.69 0 0 0-1.07.15a1.65 1.65 0 0 0-.72.76a1 1 0 1 1-1.82-.83a3.61 3.61 0 0 1 1.62-1.7a3.66 3.66 0 0 1 2.32-.35a3.51 3.51 0 0 1 2.56 1.84a3.2 3.2 0 0 1 .08 2.66"/></svg>