<svg xmlns="http://www.w3.org/2000/svg" width="1em" height="1em" viewBox="0 0 24 24"><path fill="currentColor" d="M21.27 8.181a9.76 9.76 0 0 0-2.17-3.25a10.001 10.001 0 0 0-14.15 0a10.18 10.18 0 0 0-2.17 3.25a9.82 9.82 0 0 0-.75 3.82a9.56 9.56 0 0 0 .74 3.77l-.5 3.65a1.87 1.87 0 0 0 0 .94c.08.306.239.585.46.81a2 2 0 0 0 .79.51c.296.098.612.122.92.07l3.66-.54a9.71 9.71 0 0 0 3.87.79a9.91 9.91 0 0 0 3.83-.76a10 10 0 0 0 3.24-2.17a9.72 9.72 0 0 0 2.17-3.24a10 10 0 0 0 0-7.65zm-9.35 10.08a1.25 1.25 0 1 1 0-2.5a1.25 1.25 0 0 1 0 2.5m3.55-7.39a3.339 3.339 0 0 1-.83 1.17a3.43 3.43 0 0 1-1.23.74a.79.79 0 0 0-.33.26a.77.77 0 0 0-.14.44v.63a1 1 0 0 1-2 0v-.66a2.75 2.75 0 0 1 .51-1.57a2.87 2.87 0 0 1 1.29-1a1.425 1.425 0 0 0 .89-.8a1.65 1.65 0 0 0 .11-.59a1.501 1.501 0 0 0-.14-.58a1.8 1.8 0 0 0-.53-.58a1.74 1.74 0 0 0-.77-.31a2 2 0 0 0-1.24.17a1.91 1.91 0 0 0-.84.89a1 1 0 0 1-1.64.263A1 1 0 0 1 8.4 8.24a3.89 3.89 0 0 1 1.74-1.82a3.93 3.93 0 0 1 2.5-.38a3.84 3.84 0 0 1 2.75 2a3.409 3.409 0 0 1 .08 2.84z"/></svg>