<svg xmlns="http://www.w3.org/2000/svg" width="1em" height="1em" viewBox="0 0 24 24"><path fill="currentColor" d="M11.772 2.013A9.695 9.695 0 0 0 4.774 4.89a9.624 9.624 0 0 0-2.77 7.019a9.379 9.379 0 0 0 3.12 6.96a.835.835 0 0 1 .291.65v1.45c0 .487.21 1.032.827 1.032a.864.864 0 0 0 .384-.104l1.863-.824a.9.9 0 0 1 .652 0c5.204 1.415 11.049-1.31 12.469-6.67a9.652 9.652 0 0 0-1.708-8.726a9.716 9.716 0 0 0-3.618-2.816a9.753 9.753 0 0 0-4.512-.847m4.494 9.187c-2.55 4.49-2.561 3.48-5.763 1.346c-.373 0-.559.278-1.805 1.16c-1.246.882-1.455 1.253-1.828.858c-.372-.394.78-1.705 2.329-4.234c1.35-2.227 3.213.859 4.4 1.044a11.341 11.341 0 0 0 2.096-1.508c.816-.626 1.048-.87 1.374-.614c.326.255.047.614-.803 1.948"/></svg>