<svg xmlns="http://www.w3.org/2000/svg" width="1em" height="1em" viewBox="0 0 24 24"><g fill="none" stroke="currentColor" stroke-linecap="round" stroke-width="1.5"><path stroke-linejoin="round" d="M21.25 12a9.35 9.35 0 0 1-.7 3.54a9.31 9.31 0 0 1-5 5a9.31 9.31 0 0 1-7.34-.11L4.34 21c-.19.045-.39.045-.58 0a1.28 1.28 0 0 1-.48-.31A1.15 1.15 0 0 1 3 19.58l.53-3.92A8.86 8.86 0 0 1 2.75 12a9.35 9.35 0 0 1 .7-3.54a9.31 9.31 0 0 1 5-5A9.31 9.31 0 0 1 12 2.75"/><path stroke-miterlimit="10" d="M17.768 2.75v5.5m-2.744-2.744h5.5"/><path stroke-linejoin="round" d="M12 12.61a.61.61 0 1 0 0-1.221a.61.61 0 0 0 0 1.221m4.279 0a.61.61 0 1 0 0-1.221a.61.61 0 0 0 0 1.221m-8.558 0a.61.61 0 1 0 .001-1.221a.61.61 0 0 0 0 1.221"/></g></svg>