<svg xmlns="http://www.w3.org/2000/svg" width="1em" height="1em" viewBox="0 0 24 24"><path fill="currentColor" d="M13.986 14.776a.731.731 0 0 1-.66-.4a.74.74 0 0 1 .3-1a2.452 2.452 0 0 0 1-1.001a.739.739 0 0 1 1.359.127a.75.75 0 0 1-.048.563a3.852 3.852 0 0 1-1.611 1.61a.73.73 0 0 1-.34.1"/><path fill="currentColor" d="M19.409 10.644a7.545 7.545 0 0 1-.7 3.141a7.475 7.475 0 0 1-4.823 4.003a6.439 6.439 0 0 1-1.151.2v2.511h2.892a.75.75 0 0 1 0 1.501H8.342a.75.75 0 0 1 0-1.5h2.892v-2.512a5.523 5.523 0 0 1-.57-.07a.752.752 0 0 1 .27-1.481c.294.052.592.078.89.08h.33a5.499 5.499 0 0 0 1.341-.19a5.924 5.924 0 0 0 2.282-1.18a5.903 5.903 0 0 0 2.13-4.543a.75.75 0 0 1 1.502 0zM20.52 4.56l-4.363 4.353l-5.623 5.623l-6.004 6.003a.79.79 0 0 1-.53.22a.75.75 0 0 1-.53-.22a.741.741 0 0 1 0-1.06l3.462-3.462l-.18-.2a7.293 7.293 0 0 1-2.172-5.183a.751.751 0 0 1 .74-.76a.76.76 0 0 1 .751.75a5.923 5.923 0 0 0 1.771 4.172l.14.16l.85-.84a4.004 4.004 0 0 1-.65-.77a3.662 3.662 0 0 1-.59-1.892V5.851a4.132 4.132 0 0 1 1.45-2.872a4.923 4.923 0 0 1 5.894 0a4.132 4.132 0 0 1 1.441 2.802v.79l3.092-3.091a.74.74 0 0 1 1.06 0a.751.751 0 0 1-.01 1.08"/></svg>