<svg xmlns="http://www.w3.org/2000/svg" width="1em" height="1em" viewBox="0 0 24 24"><path fill="currentColor" d="M12 1.75A10.25 10.25 0 1 0 22.25 12A10.26 10.26 0 0 0 12 1.75m5.42 7.64a2.22 2.22 0 0 1-.22.92a2.12 2.12 0 0 1-.6.73a2.06 2.06 0 0 1-.85.39c-.14.015-.28.015-.42 0c-.175 0-.35-.02-.52-.06l-2.06-.58v4.34a3.09 3.09 0 1 1-3.08-3.09a2.94 2.94 0 0 1 1.58.45v-6a.639.639 0 0 1 0-.2v-.08a.72.72 0 0 1 .54-.44h.44l3.61 1a2.09 2.09 0 0 1 1.09.75c.27.362.42.799.43 1.25z"/><path fill="currentColor" d="M11.25 15.17a1.59 1.59 0 1 1-1.58-1.59a1.58 1.58 0 0 1 1.58 1.59m4.67-6.34v.56a.77.77 0 0 1-.07.26a.45.45 0 0 1-.16.2a.74.74 0 0 1-.24.11a.53.53 0 0 1-.25 0l-2.45-.69V7.49l2.74.78a.66.66 0 0 1 .31.21c.068.105.11.225.12.35"/></svg>