<svg xmlns="http://www.w3.org/2000/svg" width="1em" height="1em" viewBox="0 0 24 24"><path fill="currentColor" d="M21.161 16.656a2.26 2.26 0 0 1-.41 1.088a2.27 2.27 0 0 1-1.89 1h-2.94a4.44 4.44 0 0 1-.23.788a3.996 3.996 0 0 1-2.18 2.178c-.495.2-1.026.298-1.56.29h-.08a3.862 3.862 0 0 1-1.44-.29a3.751 3.751 0 0 1-1.32-.87a3.846 3.846 0 0 1-.87-1.308a4.44 4.44 0 0 1-.23-.789h-2.82a2.242 2.242 0 0 1-1.94-.849a2.784 2.784 0 0 1-.26-2.367a6.72 6.72 0 0 1 .88-1.618a3.833 3.833 0 0 0 .82-1.768c0-2.886 0-3.865 1.58-5.743a5.719 5.719 0 0 1 1.9-1.478l.78-.38a.41.41 0 0 0 .1-.09a.31.31 0 0 0 .06-.13a2.995 2.995 0 0 1 1.905-2.142a3.003 3.003 0 0 1 2.835.434a2.716 2.716 0 0 1 1 1.758v.1a.35.35 0 0 0 .11.1l.72.35c.73.35 1.378.85 1.9 1.468c1.58 1.888 1.58 2.867 1.58 5.753c.134.69.44 1.336.89 1.878c.36.481.652 1.009.87 1.568c.164.332.247.698.24 1.069"/></svg>