<svg xmlns="http://www.w3.org/2000/svg" width="1em" height="1em" viewBox="0 0 24 24"><path fill="currentColor" d="M21.003 15.578a7.056 7.056 0 0 0-.87-1.57a4.09 4.09 0 0 1-.89-1.88c0-2.89 0-3.87-1.58-5.76a5.79 5.79 0 0 0-1.9-1.47l-.73-.35a.32.32 0 0 1-.1-.1a.23.23 0 0 1-.05-.1a2.77 2.77 0 0 0-2.93-2.34a2.77 2.77 0 0 0-2.84 2.29a.31.31 0 0 1-.07.14a.34.34 0 0 1-.09.08l-.78.38a5.63 5.63 0 0 0-1.91 1.48c-1.57 1.88-1.57 2.86-1.57 5.75a3.84 3.84 0 0 1-.82 1.77a6.569 6.569 0 0 0-.88 1.62a2.79 2.79 0 0 0 .26 2.37a2.24 2.24 0 0 0 1.94.85h2.82c.043.268.117.53.22.78c.198.497.498.947.88 1.32c.37.38.816.677 1.31.87c.46.188.953.287 1.45.29h.16a3.89 3.89 0 0 0 1.47-.29a3.75 3.75 0 0 0 1.32-.87a4 4 0 0 0 .87-1.31c.101-.255.178-.52.23-.79h2.94a2.372 2.372 0 0 0 1-.23a2.4 2.4 0 0 0 .88-.76c.226-.322.364-.698.4-1.09a2.2 2.2 0 0 0-.14-1.08m-11.35-6.68h4.24a.87.87 0 0 1 .52.16a.89.89 0 0 1 .34.4a1 1 0 0 1 .07.54a1.089 1.089 0 0 1-.24.48l-3.12 3.12h2.89a.75.75 0 1 1 0 1.5h-4.24a.87.87 0 0 1-.52-.16a.84.84 0 0 1-.34-.4a.91.91 0 0 1-.07-.53a1.07 1.07 0 0 1 .24-.49l3.12-3.12h-2.89a.75.75 0 0 1 0-1.5"/></svg>