<svg xmlns="http://www.w3.org/2000/svg" width="1em" height="1em" viewBox="0 0 24 24"><path fill="currentColor" d="M21.005 15.606a7.079 7.079 0 0 0-.87-1.574a4.103 4.103 0 0 1-.89-1.884c0-2.896 0-3.878-1.58-5.772a5.792 5.792 0 0 0-1.9-1.473l-.73-.35a.32.32 0 0 1-.1-.101a.232.232 0 0 1 0-.1a2.777 2.777 0 0 0-1.009-1.745a2.766 2.766 0 0 0-1.921-.6a2.686 2.686 0 0 0-1.85.611a2.737 2.737 0 0 0-1 1.684a.311.311 0 0 1-.06.13a.41.41 0 0 1-.1.09l-.78.38a5.632 5.632 0 0 0-1.91 1.484c-1.57 1.884-1.57 2.866-1.57 5.762a3.852 3.852 0 0 1-.82 1.774a6.586 6.586 0 0 0-.92 1.583a2.802 2.802 0 0 0 .26 2.376a2.24 2.24 0 0 0 1.94.851h2.82c.043.269.117.531.22.782c.2.495.495.944.87 1.323c.375.38.824.676 1.32.872c.46.188.953.287 1.45.29h.08a3.92 3.92 0 0 0 1.55-.29c.497-.194.947-.49 1.32-.872a3.81 3.81 0 0 0 .87-1.323c.1-.253.178-.514.23-.782h2.94c.346-.001.688-.08 1-.23c.351-.178.653-.44.88-.762c.226-.323.364-.7.4-1.092a2.209 2.209 0 0 0-.14-1.042m-6.5-3.337h-1.76v1.743a.752.752 0 0 1-.75.752a.749.749 0 0 1-.75-.752V12.27h-1.74a.75.75 0 0 1-.75-.752a.752.752 0 0 1 .75-.752h1.74V9.002a.752.752 0 0 1 .75-.752a.749.749 0 0 1 .75.752v1.763h1.76a.749.749 0 0 1 .75.752a.752.752 0 0 1-.75.752"/></svg>