<svg xmlns="http://www.w3.org/2000/svg" width="1em" height="1em" viewBox="0 0 24 24"><g fill="none" stroke="currentColor" stroke-linecap="round" stroke-linejoin="round" stroke-width="1.5"><path d="m4.988 17.452l5.75 3.448a2.45 2.45 0 0 0 2.524 0l5.75-3.448c.366-.219.67-.53.88-.901c.205-.37.315-.786.318-1.21V8.278a2.462 2.462 0 0 0-1.198-2.122l-5.75-3.065a2.514 2.514 0 0 0-2.524 0l-5.75 3.065A2.461 2.461 0 0 0 3.79 8.277v7.065c.003.423.113.839.318 1.209c.21.371.514.682.88.901M19.881 7.078L12 11.81"/><path d="M4.119 7.078L12 11.81v9.44m4.38-8.316V9.179L8.066 4.522"/></g></svg>