<svg xmlns="http://www.w3.org/2000/svg" width="1em" height="1em" viewBox="0 0 24 24"><path fill="currentColor" d="M21.935 18.844a2.58 2.58 0 0 1-.897 1.468a5.278 5.278 0 0 1-1.897 1.255a5.496 5.496 0 0 1-1.948.357h-.357a11.31 11.31 0 0 1-4.304-1.02a20.428 20.428 0 0 1-.949-.47a20.19 20.19 0 0 1-4.314-3.283a18.9 18.9 0 0 1-4.08-5.437a11.699 11.699 0 0 1-1.02-3.59a6.487 6.487 0 0 1 .419-3.794A7.018 7.018 0 0 1 3.76 2.831c.2-.226.442-.41.714-.54c.289-.131.6-.204.918-.215c.358.026.706.13 1.02.306c.283.17.532.392.734.653c.377.408.805.836 1.234 1.275l.938.959c.364.34.595.8.653 1.295v.102a1.928 1.928 0 0 1-.48 1.101c-.173.215-.377.419-.57.633l-.286.296c-.12.114-.214.253-.276.408a1.295 1.295 0 0 0-.06.397c.157.461.42.88.764 1.224l.061.092c.49.643 1.02 1.305 1.51 1.907a13.536 13.536 0 0 0 3.417 2.815c.12.097.264.157.418.174a.74.74 0 0 0 .397-.051c.36-.214.678-.49.939-.817c.37-.448.9-.733 1.479-.795a2.039 2.039 0 0 1 1.468.622c.204.174.418.398.633.622c.214.225.224.245.346.357l.317.316c.193.184.367.357.55.561c.33.293.64.606.928.939c.164.199.289.427.367.673c.05.23.064.468.041.704"/><path fill="currentColor" d="M19.63 5.136v3.427a.765.765 0 0 1-1.53 0v-1.56l-4.395 4.395a.747.747 0 0 1-.54.225a.755.755 0 0 1-.54-.225a.765.765 0 0 1 0-1.08L17.03 5.91h-1.58a.765.765 0 0 1 0-1.53h3.579c.1.012.196.05.275.113l.113.102a.816.816 0 0 1 .224.52z"/></svg>