<svg xmlns="http://www.w3.org/2000/svg" width="1em" height="1em" viewBox="0 0 24 24"><path fill="none" stroke="currentColor" stroke-linecap="round" stroke-miterlimit="10" stroke-width="1.5" d="M6.89 13.042c.254-.1.513-.186.776-.259a14.937 14.937 0 0 1 4.092-.557a14.227 14.227 0 0 1 5.138.736c.88.307 1.707.75 2.45 1.315a4.72 4.72 0 0 1 1.752 2.17c.104.434.154.879.15 1.324a1.426 1.426 0 0 1-.379 1.056a1.563 1.563 0 0 1-1.155.308h-2.46a1.195 1.195 0 0 1-.836-.268a1.095 1.095 0 0 1-.278-.677v-.996a1.206 1.206 0 0 0-.439-.996a2.838 2.838 0 0 0-1.324-.328a20.5 20.5 0 0 0-1.991-.23a11.138 11.138 0 0 0-3.585.34a1.046 1.046 0 0 0-.786.616c-.107.383-.144.78-.11 1.175a1.314 1.314 0 0 1-.279.996c-.23.206-.527.32-.836.319H4.709a8.843 8.843 0 0 1-.996 0a1.085 1.085 0 0 1-.736-.398a1.662 1.662 0 0 1-.22-.996a3.853 3.853 0 0 1 1.285-2.918a8.495 8.495 0 0 1 2.848-1.732Zm8.642-3.744a4.978 4.978 0 0 0-7.05 0m9.161-2.111a7.966 7.966 0 0 0-11.271 0"/></svg>