<svg xmlns="http://www.w3.org/2000/svg" width="1em" height="1em" viewBox="0 0 24 24"><g fill="none" stroke="currentColor" stroke-linecap="round" stroke-width="1.5"><path stroke-miterlimit="10" d="m6.889 12.731l.777-.269c1.332-.37 2.71-.557 4.092-.557a14.46 14.46 0 0 1 5.139.746a8.903 8.903 0 0 1 2.45 1.394a4.73 4.73 0 0 1 1.752 2.171c.104.434.155.879.15 1.325a1.456 1.456 0 0 1-.38 1.055a1.6 1.6 0 0 1-1.154.309h-2.46a1.235 1.235 0 0 1-.836-.26a1.116 1.116 0 0 1-.28-.676v-.996a1.225 1.225 0 0 0-.437-.996a2.986 2.986 0 0 0-1.325-.318c-.647-.1-1.294-.2-1.991-.24a10.87 10.87 0 0 0-3.585.35a.997.997 0 0 0-.787.617a3.35 3.35 0 0 0-.11 1.175a1.305 1.305 0 0 1-.278.995a1.156 1.156 0 0 1-.837.319H4.708a8.845 8.845 0 0 1-.996 0a1.135 1.135 0 0 1-.736-.398a1.703 1.703 0 0 1-.22-.996a3.853 3.853 0 0 1 1.305-2.988a8.495 8.495 0 0 1 2.828-1.762Z"/><path stroke-linejoin="round" d="m16.986 5.084l-3.923 3.923a1.504 1.504 0 0 1-2.111 0L7.028 5.084"/><path stroke-linejoin="round" d="M7.028 9.067V5.083h3.984"/></g></svg>