<svg xmlns="http://www.w3.org/2000/svg" width="1em" height="1em" viewBox="0 0 24 24"><path fill="currentColor" d="M21.958 18.858a2.617 2.617 0 0 1-.9 1.471a5.375 5.375 0 0 1-1.9 1.257a5.508 5.508 0 0 1-1.952.358h-.347a11.308 11.308 0 0 1-4.313-1.022a20.607 20.607 0 0 1-.95-.47a20.239 20.239 0 0 1-4.323-3.29a18.855 18.855 0 0 1-4.088-5.447a11.445 11.445 0 0 1-1.021-3.597a6.418 6.418 0 0 1 .408-3.802a7.03 7.03 0 0 1 1.175-1.502a1.983 1.983 0 0 1 2.637-.44c.286.164.536.383.736.644c.378.409.807.838 1.236 1.278l.94.96c.372.352.598.83.634 1.339v.102c-.038.41-.207.796-.48 1.104a10.91 10.91 0 0 1-.573.633l-.286.297c-.12.113-.211.253-.265.408a1.093 1.093 0 0 0-.072.399c.159.462.42.881.767 1.226l.071.092c.48.644 1.022 1.308 1.502 1.911a13.562 13.562 0 0 0 3.424 2.82a.79.79 0 0 0 .419.174c.135.02.272.002.398-.05a3.32 3.32 0 0 0 .94-.818c.371-.45.903-.735 1.482-.797a2.046 2.046 0 0 1 1.472.623c.204.174.419.399.633.624c.215.224.225.245.348.357l.316.317c.195.184.368.358.552.562c.328.295.638.61.93.94c.164.2.29.429.368.675c.06.216.087.44.082.664M18.83 7.423a.766.766 0 0 1-.766.766h-5.242a.766.766 0 1 1 0-1.533h5.283a.777.777 0 0 1 .726.767"/></svg>