<svg xmlns="http://www.w3.org/2000/svg" width="1em" height="1em" viewBox="0 0 24 24"><path fill="none" stroke="currentColor" stroke-linecap="round" stroke-miterlimit="10" stroke-width="1.5" d="M12.531 20.217c-.3-.137-.599-.274-.898-.437a18.564 18.564 0 0 1-4.005-3.044a17.568 17.568 0 0 1-3.743-5.078a10.979 10.979 0 0 1-.998-3.243a5.776 5.776 0 0 1 .362-3.381a6.238 6.238 0 0 1 1.01-1.248A1.759 1.759 0 0 1 5.508 3.2c.493.074.94.332 1.248.723c.674.749 1.397 1.423 2.108 2.134c.28.24.455.58.487.948c-.012.31-.131.605-.337.836c-.237.3-.524.574-.798.86a1.497 1.497 0 0 0-.45 1.248c.172.535.467 1.023.861 1.423a34.17 34.17 0 0 0 1.485 1.883a13.248 13.248 0 0 0 3.38 2.795a1.25 1.25 0 0 0 1.249.15c.423-.237.8-.55 1.11-.923a1.635 1.635 0 0 1 1.073-.587c.374.02.726.18.986.45c.336.286.623.623.935.935c.312.312.562.537.824.823a10 10 0 0 1 .885.886c.214.277.317.625.287.973a2.045 2.045 0 0 1-.686 1.06a4.666 4.666 0 0 1-3.668 1.423a10.432 10.432 0 0 1-3.955-1.023Zm5.22-9.019a5.059 5.059 0 0 0-5.059-5.059m8.527 4.705a8.094 8.094 0 0 0-8.095-8.094"/></svg>