<svg xmlns="http://www.w3.org/2000/svg" width="1em" height="1em" viewBox="0 0 24 24"><path fill="currentColor" d="M21.988 18.053c.012.254-.026.509-.113.749a1.907 1.907 0 0 1-.41.677c-.382.314-.86.487-1.354.492h-2.729a1.488 1.488 0 0 1-1.661-1.457V17.49a.667.667 0 0 0-.062-.36a.75.75 0 0 0-.164-.235a2.391 2.391 0 0 0-1.026-.246a19.175 19.175 0 0 0-2.051-.236c-1.183-.082-2.37.03-3.518.328a.565.565 0 0 0-.298.123a.595.595 0 0 0-.174.215a3.508 3.508 0 0 0-.072.954a1.76 1.76 0 0 1-.051.729a2.051 2.051 0 0 1-.339.666c-.338.329-.79.512-1.261.513H4.51a8.78 8.78 0 0 1-1.026 0a1.537 1.537 0 0 1-.636-.184a1.754 1.754 0 0 1-.492-.41a2.297 2.297 0 0 1-.339-1.396a4.472 4.472 0 0 1 1.488-3.323a9.047 9.047 0 0 1 3.077-1.877c.274-.11.555-.203.84-.277a15.82 15.82 0 0 1 4.34-.595c1.844-.074 3.686.19 5.436.78c.952.339 1.847.82 2.656 1.425a5.374 5.374 0 0 1 1.96 2.452c.122.496.18 1.006.174 1.518m-6.38-7.93a.76.76 0 0 1-.544-.225a4.506 4.506 0 0 0-1.405-.944a4.43 4.43 0 0 0-3.323 0a4.564 4.564 0 0 0-1.416.944a.76.76 0 0 1-1.087 0a.77.77 0 0 1 0-1.088a5.888 5.888 0 0 1 8.318 0a.76.76 0 0 1 0 1.088a.75.75 0 0 1-.543.225"/><path fill="currentColor" d="M17.772 7.96a.76.76 0 0 1-.544-.226a7.416 7.416 0 0 0-8.062-1.6a7.334 7.334 0 0 0-2.41 1.6a.759.759 0 0 1-1.087 0a.77.77 0 0 1 0-1.087a8.934 8.934 0 0 1 12.688.03a.76.76 0 0 1 0 1.088a.75.75 0 0 1-.585.195"/></svg>