<svg xmlns="http://www.w3.org/2000/svg" width="1em" height="1em" viewBox="0 0 24 24"><path fill="currentColor" d="M21.981 17.81c.017.255-.022.511-.113.75c-.09.249-.23.476-.411.669a2.232 2.232 0 0 1-1.368.504h-2.726a1.81 1.81 0 0 1-1.183-.38a1.718 1.718 0 0 1-.483-1.03v-1.028a.647.647 0 0 0-.062-.35a.545.545 0 0 0-.164-.236a2.397 2.397 0 0 0-1.029-.247c-.75-.113-1.388-.206-2.057-.247a10.727 10.727 0 0 0-3.528.34a.617.617 0 0 0-.298.123a.545.545 0 0 0-.165.206c-.077.32-.101.65-.072.977c.03.242.01.487-.061.72a1.79 1.79 0 0 1-.34.669a1.708 1.708 0 0 1-1.275.524H4.517c-.343.02-.686.02-1.028 0a1.728 1.728 0 0 1-1.122-.597a2.242 2.242 0 0 1-.35-1.398a4.412 4.412 0 0 1 .37-1.852a4.515 4.515 0 0 1 1.143-1.563a9.165 9.165 0 0 1 3.085-1.913l.802-.278a16.28 16.28 0 0 1 4.372-.596a15.17 15.17 0 0 1 5.45.792a9.69 9.69 0 0 1 2.675 1.522a5.225 5.225 0 0 1 1.964 2.437c.095.488.13.986.103 1.482M6.296 4.439l.113-.082a.452.452 0 0 0-.113.092zm.699-.216a1.026 1.026 0 0 0-.308 0z"/><path fill="currentColor" d="M17.63 5.54L13.6 9.57c-.437.43-1.024.67-1.636.669a2.283 2.283 0 0 1-1.625-.669L7.613 6.856v2.232a.771.771 0 0 1-1.543 0V4.974a.782.782 0 0 1 .34-.638a.679.679 0 0 1 .277-.123h4.259a.771.771 0 0 1 0 1.542H8.714l2.715 2.716a.792.792 0 0 0 1.028 0l4.032-4.032a.771.771 0 0 1 1.09 0a.792.792 0 0 1 .052 1.1"/></svg>