<svg xmlns="http://www.w3.org/2000/svg" width="1em" height="1em" viewBox="0 0 24 24"><path fill="none" stroke="currentColor" stroke-linecap="round" stroke-miterlimit="10" stroke-width="1.5" d="M12.744 20.255c-.313-.145-.615-.29-.906-.447a19.33 19.33 0 0 1-4.113-3.132a18.008 18.008 0 0 1-3.89-5.201c-.5-1.06-.83-2.193-.973-3.356a5.91 5.91 0 0 1 .37-3.467c.287-.48.637-.92 1.039-1.31a1.755 1.755 0 0 1 1.263-.592a1.888 1.888 0 0 1 1.285.738c.705.76 1.431 1.466 2.169 2.237c.283.25.463.597.503.973c-.029.299-.15.58-.347.806c-.257.313-.547.593-.827.895a1.532 1.532 0 0 0-.458 1.23c.178.546.48 1.044.883 1.454c.492.66.984 1.32 1.52 1.935a13.828 13.828 0 0 0 3.476 2.864a1.297 1.297 0 0 0 1.241.156a4.004 4.004 0 0 0 1.118-.95a1.72 1.72 0 0 1 1.118-.604c.39.014.758.178 1.028.458c.336.302.638.649.962.973c.324.325.57.548.838.84c.319.288.62.594.906.916a1.332 1.332 0 0 1 .29.996c-.1.44-.344.833-.693 1.118a4.793 4.793 0 0 1-3.767 1.454a10.702 10.702 0 0 1-4.035-.984ZM17.182 5.68l-3.633 3.636m0-3.636l3.633 3.636"/></svg>