<svg xmlns="http://www.w3.org/2000/svg" width="1em" height="1em" viewBox="0 0 24 24"><path fill="currentColor" d="M22.024 18.905a2.634 2.634 0 0 1-.906 1.482a5.32 5.32 0 0 1-1.914 1.265a5.524 5.524 0 0 1-1.955.36h-.36a11.414 11.414 0 0 1-4.343-1.028c-.329-.155-.648-.31-.957-.474a20.377 20.377 0 0 1-4.353-3.313a18.894 18.894 0 0 1-4.116-5.485A11.804 11.804 0 0 1 2.091 8.09a6.452 6.452 0 0 1 .412-3.828a7.49 7.49 0 0 1 1.183-1.523a2.49 2.49 0 0 1 .73-.536c.288-.133.6-.206.917-.216a2.47 2.47 0 0 1 1.029.31c.286.17.537.394.74.658c.381.411.814.843 1.246 1.286l.947.967c.372.34.606.806.658 1.307v.103A1.945 1.945 0 0 1 9.47 7.73c-.175.217-.37.422-.576.638l-.278.299a1.1 1.1 0 0 0-.35.813c.164.463.427.885.772 1.235c.546.72 1.03 1.4 1.585 2.058a13.655 13.655 0 0 0 3.447 2.84a.854.854 0 0 0 .834.123c.36-.215.677-.494.936-.823c.374-.452.91-.74 1.492-.803a2.059 2.059 0 0 1 1.482.628c.206.175.422.402.638.628c.216.226.227.247.35.36l.32.32c.195.184.37.36.555.565c.332.295.645.611.936.947c.166.2.291.431.37.679c.047.22.06.445.042.669"/><path fill="currentColor" d="M17.877 8.717a.763.763 0 0 1 0 1.091a.792.792 0 0 1-.546.226a.813.813 0 0 1-.545-.226l-1.317-1.327l-1.328 1.327a.772.772 0 0 1-1.09-1.09l1.327-1.328l-1.328-1.328a.772.772 0 0 1 1.091-1.09l1.328 1.327l1.317-1.327a.772.772 0 0 1 1.09 0a.763.763 0 0 1 0 1.09L16.55 7.39z"/></svg>