<svg xmlns="http://www.w3.org/2000/svg" width="1em" height="1em" viewBox="0 0 24 24"><path fill="currentColor" d="m10.16 12.267l-.74.73l-2.478 2.416l-.73.72A17.999 17.999 0 0 1 3.13 11.68A12.222 12.222 0 0 1 2.1 8.104a6.568 6.568 0 0 1 .421-3.834a6.866 6.866 0 0 1 1.182-1.48a2.2 2.2 0 0 1 .73-.535c.287-.136.598-.213.915-.226a2.6 2.6 0 0 1 1.737.956c.473.535 1.028 1.028 1.532 1.573l.647.637a1.758 1.758 0 0 1 .175 2.58a7.605 7.605 0 0 1-.627.689l-.226.226c-.121.12-.216.263-.278.422a1.1 1.1 0 0 0 0 .483c.166.447.425.854.761 1.192c.319.524.689.997 1.09 1.48"/><path fill="currentColor" d="M18.681 6.08L4.126 20.294a.812.812 0 0 1-.545.226a.76.76 0 0 1-.545-.236a.77.77 0 0 1 0-1.09l3.084-3.083l.73-.72l2.477-2.415l.74-.73l7.442-7.288a.77.77 0 0 1 1.09 0a.773.773 0 0 1 .082 1.12m3.331 12.799a2.682 2.682 0 0 1-.915 1.47a5.21 5.21 0 0 1-1.902 1.254a5.324 5.324 0 0 1-1.963.37h-.35a11.605 11.605 0 0 1-4.306-1.028c-.32-.154-.648-.298-1.028-.483a16.873 16.873 0 0 1-2.056-1.337a15.091 15.091 0 0 1-.792-.627a.503.503 0 0 1-.082-.688l.103-.113l.195-.196l2.426-2.456l.411-.422l.082-.082a.524.524 0 0 1 .638 0c.28.233.574.446.884.637c.19.14.39.267.596.38c.13.1.281.167.442.196c.14.011.28-.01.411-.062a3.55 3.55 0 0 0 1.028-.832a2.242 2.242 0 0 1 1.46-.802a2.159 2.159 0 0 1 1.47.627c.216.185.442.421.668.658l.308.329l.319.308a10 10 0 0 1 .565.576c.337.285.65.598.936.935c.321.388.483.884.452 1.388"/></svg>