<svg xmlns="http://www.w3.org/2000/svg" width="1em" height="1em" viewBox="0 0 24 24"><path fill="currentColor" d="M21.963 18.855a2.736 2.736 0 0 1-.898 1.47a5.36 5.36 0 0 1-3.848 1.602h-.358a11.363 11.363 0 0 1-4.287-1.082c-.326-.153-.643-.296-1.02-.47A19.792 19.792 0 0 1 7.253 17.1a18.58 18.58 0 0 1-4.012-5.451A11.902 11.902 0 0 1 2.15 8.106a6.523 6.523 0 0 1 .418-3.808a6.88 6.88 0 0 1 1.174-1.48a2.304 2.304 0 0 1 1.634-.745a2.542 2.542 0 0 1 1.725.95c.47.52 1.02 1.02 1.52 1.55l.644.634c.38.333.615.802.653 1.306c.001.464-.17.911-.48 1.256a9.287 9.287 0 0 1-.622.694l-.215.225a1.147 1.147 0 0 0-.286.418c-.052.154-.07.318-.05.48c.164.444.421.848.755 1.184c.52.704 1.02 1.317 1.582 2.042a13.27 13.27 0 0 0 3.4 2.807c.123.1.27.167.428.194c.14.021.281 0 .408-.062a3.52 3.52 0 0 0 1.021-.826c.36-.444.882-.726 1.45-.787a2.042 2.042 0 0 1 1.46.623c.233.201.455.416.663.643l.306.327l.317.306c.193.194.377.368.56.572c.333.286.644.596.93.929c.293.374.441.842.418 1.317"/></svg>