<svg xmlns="http://www.w3.org/2000/svg" width="1em" height="1em" viewBox="0 0 24 24"><path fill="none" stroke="currentColor" stroke-linecap="round" stroke-miterlimit="10" stroke-width="1.5" d="M7.254 16.205a17.147 17.147 0 0 1-3.424-4.74a11.244 11.244 0 0 1-.971-3.322a5.916 5.916 0 0 1 .37-3.463a6.389 6.389 0 0 1 1.035-1.278a1.802 1.802 0 0 1 1.278-.6c.505.075.962.34 1.278.741C7.51 4.31 8.25 5 8.979 5.728c.287.246.466.594.498.97c-.012.318-.134.62-.345.857c-.242.307-.536.588-.817.882a1.533 1.533 0 0 0-.46 1.277c.175.548.477 1.047.881 1.457c.486.664.971 1.278 1.52 1.93l.09.089m1.866 1.648c.472.387.976.733 1.507 1.035a1.277 1.277 0 0 0 1.278.153c.434-.243.82-.563 1.137-.945c.275-.335.669-.55 1.099-.601c.383.02.744.184 1.01.46c.344.294.638.639.958.958c.319.32.575.55.843.843c.321.283.624.586.907.908c.22.283.324.639.294.996c-.114.427-.36.807-.703 1.086a4.778 4.778 0 0 1-3.756 1.457a10.682 10.682 0 0 1-4.012-.958c-.307-.14-.614-.281-.92-.448a16.813 16.813 0 0 1-2.696-1.852m-5.264 1.622L18.012 5.72"/></svg>