<svg xmlns="http://www.w3.org/2000/svg" width="1em" height="1em" viewBox="0 0 24 24"><g fill="none" stroke="currentColor" stroke-linecap="round" stroke-width="1.5"><path stroke-miterlimit="10" d="M12.744 20.255c-.313-.145-.615-.29-.906-.447a19.328 19.328 0 0 1-4.114-3.132a18.008 18.008 0 0 1-3.891-5.201c-.5-1.06-.829-2.193-.973-3.356a5.908 5.908 0 0 1 .37-3.467c.288-.48.637-.92 1.04-1.31a1.756 1.756 0 0 1 1.262-.592a1.89 1.89 0 0 1 1.286.738c.705.76 1.431 1.466 2.17 2.237c.283.25.462.597.502.973c-.028.299-.15.58-.346.806c-.257.313-.548.593-.828.895a1.533 1.533 0 0 0-.458 1.23c.178.546.48 1.044.883 1.454c.492.66.984 1.32 1.52 1.935a13.82 13.82 0 0 0 3.478 2.864a1.296 1.296 0 0 0 1.241.156a4.003 4.003 0 0 0 1.118-.95a1.721 1.721 0 0 1 1.118-.604c.39.014.758.178 1.029.458c.335.302.637.649.961.973c.325.325.57.548.839.84c.318.288.62.594.905.916a1.33 1.33 0 0 1 .291.996c-.1.44-.344.833-.693 1.118a4.799 4.799 0 0 1-3.768 1.454a10.707 10.707 0 0 1-4.036-.984Zm5.97-14.988l-5.59 5.592"/><path stroke-linejoin="round" d="M18.714 8.611V5.255H15.36"/></g></svg>