<svg xmlns="http://www.w3.org/2000/svg" width="1em" height="1em" viewBox="0 0 24 24"><path fill="currentColor" d="M11.12 6.96v2.595a1.574 1.574 0 0 1-.968 1.484a1.584 1.584 0 0 1-.612.123h-2.6a1.591 1.591 0 0 1-1.59-1.577V6.99a1.585 1.585 0 0 1 1.59-1.587h2.6a1.592 1.592 0 0 1 1.58 1.557m0 7.495v2.595a1.585 1.585 0 0 1-1.58 1.587h-2.6a1.592 1.592 0 0 1-1.59-1.587v-2.595a1.585 1.585 0 0 1 1.59-1.577h2.6a1.582 1.582 0 0 1 1.58 1.577m7.54-7.495v2.595a1.585 1.585 0 0 1-1.54 1.607h-2.59a1.591 1.591 0 0 1-1.59-1.577V6.99a1.585 1.585 0 0 1 1.59-1.587h2.59a1.592 1.592 0 0 1 1.54 1.557m0 7.515v2.595a1.585 1.585 0 0 1-1.54 1.587h-2.59a1.592 1.592 0 0 1-1.59-1.587v-2.595a1.586 1.586 0 0 1 1.59-1.577h2.59a1.591 1.591 0 0 1 1.54 1.577"/><path fill="currentColor" d="M21.25 9.695a.76.76 0 0 1-.75-.749V5.862a2.31 2.31 0 0 0-.68-1.686a2.352 2.352 0 0 0-1.65-.679h-3.05a.75.75 0 0 1-.75-.748a.748.748 0 0 1 .75-.749h3.08a3.864 3.864 0 0 1 2.68 1.178A3.79 3.79 0 0 1 22 5.882v3.084a.748.748 0 0 1-.75.729M18.17 22h-3.05a.75.75 0 0 1-.75-.748a.748.748 0 0 1 .75-.749h3.08a2.324 2.324 0 0 0 2.137-1.462a2.31 2.31 0 0 0 .163-.893v-3.054a.748.748 0 0 1 .75-.749a.75.75 0 0 1 .75.749v3.054a3.806 3.806 0 0 1-2.363 3.534c-.465.191-.964.29-1.467.288zm-9.25 0H5.84a3.848 3.848 0 0 1-2.722-1.13A3.832 3.832 0 0 1 2 18.149v-3.054a.748.748 0 0 1 .75-.749a.751.751 0 0 1 .75.749v3.054a2.334 2.334 0 0 0 2.34 2.325h3.08a.75.75 0 0 1 .75.749a.747.747 0 0 1-.75.748zM2.75 9.695A.76.76 0 0 1 2 8.946V5.862a3.799 3.799 0 0 1 1.12-2.684A3.864 3.864 0 0 1 5.83 2.06h3.08a.75.75 0 0 1 .75.749a.748.748 0 0 1-.75.748H5.83a2.333 2.333 0 0 0-2.34 2.325v3.084a.748.748 0 0 1-.74.729"/></svg>