<svg xmlns="http://www.w3.org/2000/svg" width="1em" height="1em" viewBox="0 0 24 24"><path fill="currentColor" d="M15.25 2h-6.5A6.76 6.76 0 0 0 2 8.75v6.5A6.76 6.76 0 0 0 8.75 22h6.5A6.76 6.76 0 0 0 22 15.25v-6.5A6.76 6.76 0 0 0 15.25 2m-3.28 16.58a1 1 0 1 1 0-2a1 1 0 0 1 0 2m3.79-7.59a3.69 3.69 0 0 1-.91 1.29a3.59 3.59 0 0 1-1.35.81a1 1 0 0 0-.63.93v.73a1 1 0 0 1-2 0v-.77a3.06 3.06 0 0 1 .56-1.7a3.13 3.13 0 0 1 1.39-1.07a1.77 1.77 0 0 0 .67-.39c.186-.17.332-.378.43-.61a1.77 1.77 0 0 0 .13-.72a1.8 1.8 0 0 0-.16-.72a2.32 2.32 0 0 0-.65-.72c-.279-.2-.6-.33-.94-.38a2.29 2.29 0 0 0-2.51 1.29a1.002 1.002 0 0 1-1.82-.84a4.35 4.35 0 0 1 1.92-2a4.27 4.27 0 0 1 2.74-.41a4.08 4.08 0 0 1 1.77.72c.53.379.964.875 1.27 1.45c.24.493.37 1.032.38 1.58a3.551 3.551 0 0 1-.29 1.53"/></svg>