<svg xmlns="http://www.w3.org/2000/svg" width="1em" height="1em" viewBox="0 0 24 24"><path fill="currentColor" d="M12 2a10 10 0 1 0 0 20a10 10 0 0 0 0-20m6.235 11.43c-.072 0-.155.123-.145.196a3.58 3.58 0 0 1-1.676 3.26a6.688 6.688 0 0 1-3.025 1.184a8.231 8.231 0 0 1-4.115-.36a5.412 5.412 0 0 1-2.799-2.058a3.086 3.086 0 0 1-.514-1.996a.267.267 0 0 0-.154-.298a1.534 1.534 0 1 1 1.687-2.49a.195.195 0 0 0 .288 0a7.202 7.202 0 0 1 3.56-1.162c.4 0 .4 0 .483-.422c.226-1.029.453-2.058.669-3.086c.062-.289.185-.37.463-.31l2.253.474a.216.216 0 0 0 .257-.092a1.029 1.029 0 0 1 1.204-.433a1.101 1.101 0 0 1 .782 1.03a1.132 1.132 0 0 1-.659 1.028a1.111 1.111 0 0 1-1.45-.607c0-.113-.062-.226-.103-.35l-2.212-.463c-.226 1.03-.453 2.14-.69 3.22a7.66 7.66 0 0 1 4.054 1.297a1.523 1.523 0 0 1 1.163-.412a1.492 1.492 0 0 1 1.378 1.142a1.554 1.554 0 0 1-.69 1.708z"/><path fill="currentColor" d="M14.53 16.105a3.951 3.951 0 0 1-2.345.751a4.023 4.023 0 0 1-2.736-.792a.236.236 0 0 1 0-.36a.259.259 0 0 1 .303-.067a.259.259 0 0 1 .088.067a4.116 4.116 0 0 0 3.827.35c.19-.084.37-.192.535-.32c.298-.298.648.103.329.37m-3.837-2.921a1.08 1.08 0 0 1-1.348 1.029h-.093a1.029 1.029 0 0 1-.7-.977a1.029 1.029 0 0 1 1.03-1.091a1.101 1.101 0 0 1 1.11 1.04m4.774-.001a1.028 1.028 0 1 1-2.05-.164a1.028 1.028 0 0 1 2.05.164"/></svg>