<svg xmlns="http://www.w3.org/2000/svg" width="1em" height="1em" viewBox="0 0 24 24"><path fill="currentColor" d="M21.778 5.024a3.667 3.667 0 0 0-1.364-1.321a3.506 3.506 0 0 0-1.845-.45a3.625 3.625 0 0 0-1.815.54l-2.277 1.421a2.59 2.59 0 0 0-1.524-.49h-1.876c-.553 0-1.093.17-1.544.49L7.266 3.793a3.625 3.625 0 0 0-1.815-.54a3.525 3.525 0 0 0-1.845.45A3.617 3.617 0 0 0 1.75 6.856v3.003c-.007.51.096 1.015.301 1.481c.204.468.51.885.893 1.222c.376.342.82.6 1.304.76c.146.051.297.088.45.11l-1.273 4.775a.86.86 0 0 0 0 .51c.056.176.164.33.311.441c.145.11.32.177.502.19a.923.923 0 0 0 .541-.12l2.457-1.411L8.64 20.25a.882.882 0 0 0 .411.4c.132.063.276.098.422.1h.12a.92.92 0 0 0 .782-.7l1.796-6.708l1.785 6.667a.94.94 0 0 0 .27.49c.149.135.334.222.532.251h.12c.154-.005.304-.042.442-.11a.993.993 0 0 0 .38-.37l1.385-2.453l2.417 1.401a.994.994 0 0 0 .521.14a.87.87 0 0 0 .522-.17a.891.891 0 0 0 .33-.44a.91.91 0 0 0 0-.57l-1.293-4.826c.28-.078.549-.19.802-.33A3.608 3.608 0 0 0 22.25 9.87V6.866a3.638 3.638 0 0 0-.472-1.842m-6.167 2.593h1.153a.753.753 0 0 1 .752.75a.75.75 0 0 1-.752.751H15.61zm-8.375 0H8.39v1.471H7.236a.753.753 0 0 1-.752-.75a.75.75 0 0 1 .752-.751zm2.006 10.75l-1.112-1.93a.752.752 0 0 0-1.003-.28l-1.936 1.12l1.003-3.883c.357-.091.695-.24 1.003-.441l2.257-1.411c.13.091.267.172.41.24c.318.14.658.22 1.004.24zm1.765-7.847a1.125 1.125 0 0 1-.481-.1a1.143 1.143 0 0 1-.391-.3l-.08-.121a1.12 1.12 0 0 1-.191-.64V7.355a1.16 1.16 0 0 1 1.153-1.15h1.906a1.145 1.145 0 0 1 .812.34c.215.215.337.506.341.81v2.002c-.003.249-.054.49-.202.691l-.029.06a1.004 1.004 0 0 1-.39.3a1.125 1.125 0 0 1-.482.1zm6.138 5.635a.753.753 0 0 0-.572-.07a.743.743 0 0 0-.461.35l-1.073 1.913l-1.705-6.357a2.678 2.678 0 0 0 1.123-.46l2.267 1.411c.4.25.847.418 1.313.49l1.003 3.834z"/></svg>