<svg xmlns="http://www.w3.org/2000/svg" width="1em" height="1em" viewBox="0 0 24 24"><path fill="currentColor" d="M22.078 8.347a1.368 1.368 0 0 0-.488-.325V4.647a.717.717 0 1 0-1.434 0V7.85h-.21a5.479 5.479 0 0 0-5.25-3.92H9.427a5.48 5.48 0 0 0-5.25 3.92H3.9V4.647a.717.717 0 1 0-1.434 0v3.385a1.501 1.501 0 0 0-.469.315A1.722 1.722 0 0 0 1.5 9.552v4.896a1.702 1.702 0 0 0 1.702 1.702h.956a5.48 5.48 0 0 0 5.25 3.92h5.183a5.48 5.48 0 0 0 5.25-3.92h.955a1.702 1.702 0 0 0 1.702-1.702V9.552c.02-.44-.131-.872-.42-1.205M3.996 14.716H3.24a.267.267 0 0 1-.191-.077a.287.287 0 0 1-.076-.191V9.552a.258.258 0 0 1 .248-.268h.775a.545.545 0 0 0 0 .125v5.182a.545.545 0 0 0 0 .125m3.07-3.184A2.448 2.448 0 0 1 6.443 9.8a.717.717 0 0 1 .707-.717a.727.727 0 0 1 .727.717c0 .688.344.956.65.956c.306 0 .66-.249.66-.956a.717.717 0 0 1 1.434 0a2.162 2.162 0 0 1-2.094 2.371a2.008 2.008 0 0 1-1.463-.64m7.525 4.962a2.085 2.085 0 0 1-1.291.411a2.486 2.486 0 0 1-1.244-.325a2.409 2.409 0 0 1-2.533-.086a1.779 1.779 0 0 1-.65-1.434a.717.717 0 1 1 1.434 0c0 .239.076.315.22.363a1.031 1.031 0 0 0 .822-.095a.717.717 0 0 1 1.415 0a1.034 1.034 0 0 0 .822.095c.144-.048.22-.124.22-.363a.717.717 0 0 1 1.435 0a1.78 1.78 0 0 1-.65 1.434m.803-4.322a2.047 2.047 0 0 1-1.473-.64A2.448 2.448 0 0 1 13.3 9.8a.717.717 0 1 1 1.434 0c0 .688.354.956.66.956c.306 0 .65-.249.65-.956a.717.717 0 1 1 1.434 0a2.161 2.161 0 0 1-2.084 2.371m5.737 2.276a.287.287 0 0 1-.076.191a.267.267 0 0 1-.192.077h-.755a.538.538 0 0 0 0-.125V9.37a.538.538 0 0 0 0-.125h.765a.249.249 0 0 1 .181.077c.049.052.076.12.077.19z"/></svg>