<svg xmlns="http://www.w3.org/2000/svg" width="1em" height="1em" viewBox="0 0 24 24"><path fill="currentColor" d="M22.078 8.347a1.368 1.368 0 0 0-.488-.325V4.647a.717.717 0 1 0-1.434 0V7.85h-.21a5.479 5.479 0 0 0-5.25-3.92H9.427a5.48 5.48 0 0 0-5.25 3.92H3.9V4.647a.717.717 0 1 0-1.434 0v3.385a1.501 1.501 0 0 0-.469.315A1.722 1.722 0 0 0 1.5 9.552v4.896a1.702 1.702 0 0 0 1.702 1.702h.956a5.48 5.48 0 0 0 5.25 3.92h5.183a5.48 5.48 0 0 0 5.25-3.92h.955a1.702 1.702 0 0 0 1.702-1.702V9.552c.02-.44-.131-.872-.42-1.205M3.996 14.716H3.24a.267.267 0 0 1-.191-.077a.287.287 0 0 1-.076-.191V9.552a.258.258 0 0 1 .248-.268h.775a.545.545 0 0 0 0 .125v5.182a.545.545 0 0 0 0 .125m12.89-1.272a3.394 3.394 0 0 1-3.386 3.385h-2.868a3.394 3.394 0 0 1-3.385-3.385v-2.869a3.395 3.395 0 0 1 3.385-3.385H13.5a3.395 3.395 0 0 1 3.385 3.385zm4.255.956a.287.287 0 0 1-.077.191a.265.265 0 0 1-.191.077h-.756a.55.55 0 0 0 0-.124V9.37a.55.55 0 0 0 0-.124h.765a.248.248 0 0 1 .182.077c.048.052.076.12.076.19z"/><path fill="currentColor" d="M13.5 8.605h-2.887a1.95 1.95 0 0 0-1.951 1.951v2.888a1.95 1.95 0 0 0 1.95 1.95H13.5a1.95 1.95 0 0 0 1.951-1.95v-2.888a1.95 1.95 0 0 0-1.95-1.95"/></svg>