<svg xmlns="http://www.w3.org/2000/svg" width="1em" height="1em" viewBox="0 0 24 24"><path fill="currentColor" d="M22.078 8.347a1.368 1.368 0 0 0-.488-.325V4.647a.717.717 0 1 0-1.434 0V7.85h-.21a5.479 5.479 0 0 0-5.25-3.92H9.427a5.48 5.48 0 0 0-5.25 3.92H3.9V4.647a.717.717 0 1 0-1.434 0v3.385a1.501 1.501 0 0 0-.469.315A1.722 1.722 0 0 0 1.5 9.552v4.896a1.702 1.702 0 0 0 1.702 1.702h.956a5.48 5.48 0 0 0 5.25 3.92h5.183a5.48 5.48 0 0 0 5.25-3.92h.955a1.702 1.702 0 0 0 1.702-1.702V9.552c.02-.44-.131-.872-.42-1.205M3.996 14.716H3.24a.267.267 0 0 1-.191-.077a.287.287 0 0 1-.076-.191V9.552a.258.258 0 0 1 .248-.268h.775a.545.545 0 0 0 0 .125v5.182a.545.545 0 0 0 0 .125m4.695-3.118a.813.813 0 0 1-1.386-.578c0-.217.086-.425.238-.579l.956-.956a.813.813 0 0 1 1.148 0l.956.956a.812.812 0 0 1-.574 1.387a.813.813 0 0 1-.573-.23l-.412-.41zm5.9 4.074a3.605 3.605 0 0 1-5.068 0a.813.813 0 0 1 .885-1.326a.804.804 0 0 1 .262.178a2.017 2.017 0 0 0 2.773 0a.804.804 0 0 1 1.148 0a.813.813 0 0 1 0 1.148m1.912-4.074a.813.813 0 0 1-1.148 0l-.41-.41l-.402.41a.822.822 0 0 1-.574.23a.812.812 0 0 1-.574-.23a.822.822 0 0 1 0-1.157l.957-.956a.813.813 0 0 1 1.147 0l.956.956a.822.822 0 0 1 .077 1.157zm4.609 2.869a.287.287 0 0 1-.077.191a.268.268 0 0 1-.191.077h-.755a.55.55 0 0 0 0-.125V9.37a.55.55 0 0 0 0-.124h.765a.248.248 0 0 1 .181.077c.049.052.076.12.077.19z"/></svg>