<svg xmlns="http://www.w3.org/2000/svg" width="1em" height="1em" viewBox="0 0 24 24"><path fill="currentColor" d="M22.078 8.347a1.368 1.368 0 0 0-.488-.325V4.647a.717.717 0 1 0-1.434 0V7.85h-.21a5.479 5.479 0 0 0-5.25-3.92H9.427a5.48 5.48 0 0 0-5.25 3.92H3.9V4.647a.717.717 0 1 0-1.434 0v3.385a1.501 1.501 0 0 0-.469.315A1.722 1.722 0 0 0 1.5 9.552v4.896a1.702 1.702 0 0 0 1.702 1.702h.956a5.48 5.48 0 0 0 5.25 3.92h5.183a5.48 5.48 0 0 0 5.25-3.92h.955a1.702 1.702 0 0 0 1.702-1.702V9.552c.02-.44-.131-.872-.42-1.205M3.996 14.716H3.24a.267.267 0 0 1-.191-.077a.287.287 0 0 1-.076-.191V9.552a.258.258 0 0 1 .248-.268h.775a.545.545 0 0 0 0 .125v5.182a.545.545 0 0 0 0 .125m4.618-2.64a.841.841 0 0 1-1.157 0a.822.822 0 0 1 0-1.157l.43-.43l-.43-.43a.813.813 0 0 1 .579-1.385c.216 0 .424.085.578.237l.43.43l.43-.43a.812.812 0 1 1 1.148 1.148l-.43.43l.43.43a.812.812 0 0 1-.573 1.387a.813.813 0 0 1-.574-.23l-.43-.43zm5.355 4.657h-3.92a.813.813 0 1 1 0-1.625h3.92a.813.813 0 1 1 0 1.625m2.687-5.814a.822.822 0 0 1 0 1.157a.841.841 0 0 1-1.157 0l-.43-.43l-.43.43a.812.812 0 0 1-.574.23a.813.813 0 0 1-.574-1.386l.43-.43l-.43-.431a.812.812 0 1 1 1.147-1.148l.43.43l.43-.43a.822.822 0 0 1 1.158 0a.812.812 0 0 1 0 1.148l-.43.43zm4.485 3.529a.287.287 0 0 1-.077.191a.265.265 0 0 1-.191.077h-.756a.55.55 0 0 0 0-.125v-5.22a.55.55 0 0 0 0-.125h.765a.248.248 0 0 1 .182.077c.048.052.076.12.076.19z"/></svg>