<svg xmlns="http://www.w3.org/2000/svg" width="1em" height="1em" viewBox="0 0 24 24"><path fill="currentColor" d="M21.818 3.55a2.593 2.593 0 0 0-1.394-1.37A2.534 2.534 0 0 0 19.49 2h-.08a7.801 7.801 0 0 0-3.158.68c-.624.268-1.2.636-1.705 1.09l-.27.28l-.07.06l-4.774 4.768l-2.005-.41a3.48 3.48 0 0 0-1.695.09a3.672 3.672 0 0 0-1.454.87l-1.875 1.869a1.289 1.289 0 0 0-.37.66c-.062.253-.04.519.06.76c.099.238.266.443.48.589c.213.144.465.221.723.22h2.476a3.99 3.99 0 0 0 .612 3.049l-1.845 1.83a.749.749 0 0 0 .532 1.279a.734.734 0 0 0 .53-.22l1.846-1.83a3.94 3.94 0 0 0 2.266.7c.266 0 .531-.027.792-.08v2.44a1.316 1.316 0 0 0 .792 1.199c.162.069.336.102.512.1c.08.01.16.01.24 0a1.36 1.36 0 0 0 .672-.35l1.895-1.9c.412-.4.712-.899.873-1.449a3.448 3.448 0 0 0 .08-1.69l-.401-1.999l4.733-4.718l.21-.2l.21-.21a6.216 6.216 0 0 0 1.003-1.7a7.588 7.588 0 0 0 .672-3.188a2.523 2.523 0 0 0-.18-1.04M7.9 16.094a3.048 3.048 0 0 1-.461-.61l4.01-3.998a.753.753 0 0 1 1.284.53c0 .198-.08.389-.22.53l-4.011 3.998a2.435 2.435 0 0 1-.602-.45M20.514 4.539a6.28 6.28 0 0 1-.541 2.59a4.552 4.552 0 0 1-.652 1.089a16.662 16.662 0 0 1-3.56-3.509c.336-.27.707-.492 1.103-.66a6.234 6.234 0 0 1 2.567-.55c.137.007.272.034.401.08c.128.05.244.125.341.22c.1.092.179.205.23.33c.052.127.08.263.081.4z"/></svg>