<svg xmlns="http://www.w3.org/2000/svg" width="1em" height="1em" viewBox="0 0 24 24"><path fill="currentColor" d="m21.01 6.62l-3-3.42a3.77 3.77 0 0 0-1.27-.92a3.38 3.38 0 0 0-.75-.22a.41.41 0 0 0-.19 0c-.2 0-.39-.05-.59-.06H6.86a4.82 4.82 0 0 0-3.44 1.42A4.89 4.89 0 0 0 2 6.85v10.29A4.85 4.85 0 0 0 6.86 22h10.28A4.87 4.87 0 0 0 22 17.14v-8a3.77 3.77 0 0 0-.99-2.52M8.94 3.42h6.1v3.49a.76.76 0 0 1-.23.55a.81.81 0 0 1-.54.24H9.71a.82.82 0 0 1-.55-.24a.8.8 0 0 1-.22-.55zm8.8 16.94c-.2.04-.405.06-.61.06h-.89V15.9a1.26 1.26 0 0 0-1.25-1.25h-6a1.25 1.25 0 0 0-1.25 1.25v4.52h-.89a4.059 4.059 0 0 1-.61 0v-4.47a2.75 2.75 0 0 1 2.75-2.75h6a2.77 2.77 0 0 1 2.75 2.75zm-8.36-2.59a.76.76 0 0 1 .75-.75h3.71a.76.76 0 0 1 .696 1.039a.741.741 0 0 1-.696.461h-3.71a.74.74 0 0 1-.75-.71z"/></svg>