<svg xmlns="http://www.w3.org/2000/svg" width="1em" height="1em" viewBox="0 0 24 24"><path fill="currentColor" d="M21.221 8.623a.75.75 0 0 1-.749-.748V5.83a2.333 2.333 0 0 0-2.326-2.334H15.1A.75.75 0 1 1 15.1 2h3.076a3.827 3.827 0 0 1 2.706 1.127A3.75 3.75 0 0 1 22 5.83v2.045a.738.738 0 0 1-.779.748m-18.472 0A.75.75 0 0 1 2 7.875V5.83a3.757 3.757 0 0 1 1.118-2.703A3.824 3.824 0 0 1 5.824 2H8.9a.75.75 0 1 1 0 1.496H5.824A2.358 2.358 0 0 0 3.488 5.83v2.045a.738.738 0 0 1-.739.748m19.231 7.452v2.105a3.798 3.798 0 0 1-1.128 2.703A3.876 3.876 0 0 1 18.166 22H5.814a3.876 3.876 0 0 1-2.696-1.167A3.828 3.828 0 0 1 2.01 18.18v-2.105a.748.748 0 0 1 1.498 0v2.105a2.313 2.313 0 0 0 1.607 2.174c.55-2.992 3.905-5.187 6.84-5.187c2.936 0 6.28 2.205 6.83 5.187a2.28 2.28 0 0 0 .998-.578a2.326 2.326 0 0 0 .69-1.646v-2.055a.748.748 0 0 1 1.497 0zm-6.1-6.315a3.888 3.888 0 0 1-2.4 3.603a3.897 3.897 0 0 1-5.315-2.836a3.887 3.887 0 0 1 1.663-3.995a3.897 3.897 0 0 1 4.91.488a3.888 3.888 0 0 1 1.141 2.74"/></svg>