<svg xmlns="http://www.w3.org/2000/svg" width="1em" height="1em" viewBox="0 0 24 24"><path fill="currentColor" d="M20.92 5.037a2.629 2.629 0 0 0-1.314-.966l-4.939-1.643a8.563 8.563 0 0 0-5.344 0L4.393 4.07a2.658 2.658 0 0 0-1.816 2.522v5.297a8.525 8.525 0 0 0 1.053 4.088a8.399 8.399 0 0 0 2.9 3.064l4.059 2.561a2.707 2.707 0 0 0 2.822 0l4.06-2.561a8.438 8.438 0 0 0 3.952-7.152V6.593a2.652 2.652 0 0 0-.502-1.556m-5.025 4.755l-3.673 3.644a1.809 1.809 0 0 1-.531.367c-.204.08-.42.123-.638.126a1.787 1.787 0 0 1-.638-.126a1.73 1.73 0 0 1-.541-.367L8.066 11.63a.966.966 0 1 1 1.373-1.363l1.614 1.614l3.45-3.46a.967.967 0 0 1 1.363 1.372z"/></svg>