<svg xmlns="http://www.w3.org/2000/svg" width="1em" height="1em" viewBox="0 0 24 24"><g fill="none" stroke="currentColor" stroke-linecap="round" stroke-width="1.5"><path stroke-miterlimit="10" d="M11.992 7.451v7.098m-3.541-3.541h7.098"/><path stroke-linejoin="round" d="M20.672 11.89V6.61a1.928 1.928 0 0 0-1.32-1.831L14.438 3.14a7.805 7.805 0 0 0-4.876 0L4.648 4.778a1.927 1.927 0 0 0-1.32 1.83v5.28a7.709 7.709 0 0 0 3.603 6.524l4.048 2.544a1.927 1.927 0 0 0 2.042 0l4.047-2.544a7.708 7.708 0 0 0 3.604-6.523"/></g></svg>