<svg xmlns="http://www.w3.org/2000/svg" width="1em" height="1em" viewBox="0 0 24 24"><path fill="currentColor" d="M20.92 5.037a2.629 2.629 0 0 0-1.314-.966l-4.939-1.643a8.563 8.563 0 0 0-5.344 0L4.393 4.07a2.658 2.658 0 0 0-1.816 2.522v5.297a8.525 8.525 0 0 0 1.053 4.088a8.399 8.399 0 0 0 2.9 3.064l4.059 2.561a2.707 2.707 0 0 0 2.822 0l4.06-2.561a8.438 8.438 0 0 0 3.952-7.152V6.593a2.652 2.652 0 0 0-.502-1.556m-5.798 7.732a.967.967 0 1 1-1.363 1.373l-1.75-1.75l-1.73 1.74a.966.966 0 0 1-.686.28a.967.967 0 0 1-.686-1.653l1.74-1.73l-1.74-1.74a.97.97 0 0 1 1.373-1.372l1.73 1.74l1.749-1.75a.966.966 0 1 1 1.363 1.373l-1.74 1.75z"/></svg>