<svg xmlns="http://www.w3.org/2000/svg" width="1em" height="1em" viewBox="0 0 24 24"><g fill="none" stroke="currentColor" stroke-linecap="round" stroke-width="1.5"><path stroke-miterlimit="10" d="M10.278 8.634a1.83 1.83 0 0 1 1.994-1.037a1.774 1.774 0 0 1 1.301.927a1.542 1.542 0 0 1-.897 2.119a1.137 1.137 0 0 0-.733 1.027v.423"/><path stroke-linejoin="round" d="M11.91 14.433h.005m8.757-2.543V6.61a1.928 1.928 0 0 0-1.32-1.831L14.438 3.14a7.805 7.805 0 0 0-4.876 0L4.648 4.778a1.927 1.927 0 0 0-1.32 1.83v5.28a7.709 7.709 0 0 0 3.603 6.524l4.048 2.544a1.927 1.927 0 0 0 2.042 0l4.047-2.544a7.708 7.708 0 0 0 3.604-6.523"/></g></svg>