<svg xmlns="http://www.w3.org/2000/svg" width="1em" height="1em" viewBox="0 0 24 24"><path fill="currentColor" d="M20.92 5.037a2.629 2.629 0 0 0-1.314-.966l-4.939-1.643a8.563 8.563 0 0 0-5.344 0L4.393 4.07a2.658 2.658 0 0 0-1.816 2.522v5.297a8.437 8.437 0 0 0 3.953 7.152l4.059 2.561a2.707 2.707 0 0 0 2.822 0l4.06-2.561a8.438 8.438 0 0 0 3.952-7.152V6.593a2.652 2.652 0 0 0-.502-1.556m-9.007 10.448a.967.967 0 1 1 .01 0zm2.523-5.248a2.453 2.453 0 0 1-.59.84a2.53 2.53 0 0 1-.89.532v.484a.967.967 0 1 1-1.932 0v-.416a2.088 2.088 0 0 1 1.334-1.933a.454.454 0 0 0 .222-.126a.57.57 0 0 0 .126-.174a.551.551 0 0 0 0-.212a.522.522 0 0 0 0-.213a.657.657 0 0 0-.213-.222a.667.667 0 0 0-.32-.135a.802.802 0 0 0-.908.454a.967.967 0 0 1-1.582.252a.966.966 0 0 1-.167-1.064a2.716 2.716 0 0 1 2.977-1.546c.405.065.788.224 1.121.464c.344.255.625.585.822.966c.155.327.24.682.25 1.044c-.007.348-.09.691-.24 1.005z"/></svg>