<svg xmlns="http://www.w3.org/2000/svg" width="1em" height="1em" viewBox="0 0 24 24"><g fill="none" stroke="currentColor" stroke-linecap="round" stroke-linejoin="round"><path stroke-width="2.5" d="M7.537 21.25h.01m10.391 0h.011"/><path stroke-width="1.5" d="M4.628 6.526h13.097a4.001 4.001 0 0 1 1.543.237A1.734 1.734 0 0 1 20.29 7.88a3.716 3.716 0 0 1-.213 1.686c-.131.57-.25 1.188-.369 1.71a94.616 94.616 0 0 0-.736 3.562a2.92 2.92 0 0 1-.629 1.567a2.243 2.243 0 0 1-1.686.582H9.805a8.643 8.643 0 0 1-1.662 0a1.637 1.637 0 0 1-1.33-.985a16.623 16.623 0 0 1-.463-2.019c-.095-.534-.214-1.068-.332-1.603c-.416-1.983-.89-3.942-1.39-5.853m0 0C4.32 5.267 4 4.009 3.69 2.75M19.553 12H5.934"/></g></svg>