<svg xmlns="http://www.w3.org/2000/svg" width="1em" height="1em" viewBox="0 0 24 24"><path fill="currentColor" d="M20.165 6.041a.29.29 0 0 0 0-.1a.357.357 0 0 0 0-.09a.657.657 0 0 0-.12-.17l-3.14-3.13a1.81 1.81 0 0 0-.62-.41a1.49 1.49 0 0 0-.73-.14h-7.12a1.86 1.86 0 0 0-.73.14a1.81 1.81 0 0 0-.62.41l-3.13 3.13a.78.78 0 0 0-.22.52v12.15a3.64 3.64 0 0 0 3.64 3.65h9.25a3.65 3.65 0 0 0 3.64-3.65V6.192a.768.768 0 0 0-.1-.15m-3.89 4.08l-.36.7a3.91 3.91 0 0 1-3.48 2.16h-1a3.91 3.91 0 0 1-2-.59a3.83 3.83 0 0 1-1.43-1.58l-.36-.69a1 1 0 1 1 1.78-.91l.36.71a1.91 1.91 0 0 0 1.7 1.06h1a1.91 1.91 0 0 0 1.7-1.06l.36-.71a1.001 1.001 0 1 1 1.78.91zm-10.06-4.68l1.85-1.85a.41.41 0 0 1 .13-.08a.651.651 0 0 1 .16 0h7.28a.41.41 0 0 1 .13.08l1.86 1.85z"/></svg>