<svg xmlns="http://www.w3.org/2000/svg" width="1em" height="1em" viewBox="0 0 24 24"><path fill="currentColor" d="M21.74 5.457a3.378 3.378 0 0 0 0-.55A3.089 3.089 0 0 0 18.6 2.25H5.42a3.96 3.96 0 0 0-.906.128a3.081 3.081 0 0 0-2.264 3.06v13.075c-.004.268.023.535.079.797a3.1 3.1 0 0 0 3.14 2.44H18.53a3.43 3.43 0 0 0 1.142-.187a3.032 3.032 0 0 0 2.067-2.951c.01-4.418 0-8.786 0-13.155m-3.326 10.914c-.314.18-.536.24-.877.361a.464.464 0 0 0-.315.276a1.074 1.074 0 0 1-.984.708l-.817.05a2.835 2.835 0 0 0-1.24.491a3.84 3.84 0 0 1-3.672.305a3.08 3.08 0 0 1-.64-.344a2.954 2.954 0 0 0-1.693-.492a2.516 2.516 0 0 1-.542-.05a.985.985 0 0 1-.777-.648a.442.442 0 0 0-.345-.305a2.628 2.628 0 0 1-1.142-.581a.876.876 0 0 1 .197-1.505c.355-.207.709-.404 1.044-.64c.41-.297.747-.684.984-1.131c.148-.295.138-.325-.128-.502a7.699 7.699 0 0 1-.807-.59a1.17 1.17 0 0 1-.364-1.28a1.22 1.22 0 0 1 1.437-.855h.187a4.11 4.11 0 0 1 1.26-3.542a4.195 4.195 0 0 1 2.815-.984a4.166 4.166 0 0 1 3.18 1.318a4.298 4.298 0 0 1 .984 3.267c.223-.02.447-.02.67 0a1.142 1.142 0 0 1 .984.866a1.2 1.2 0 0 1-.374 1.25a8.99 8.99 0 0 1-.847.629c-.226.147-.236.177-.118.423a3.876 3.876 0 0 0 1.585 1.574l.433.236a.905.905 0 0 1 .03 1.633z"/><path fill="currentColor" d="M17.832 15.316c0 .068-.098.167-.177.196c-.315.128-.63.256-.984.355a.542.542 0 0 0-.463.521a.296.296 0 0 1-.315.295l-.984.069c-.503.084-.98.279-1.398.57a2.896 2.896 0 0 1-3.258-.058a3.585 3.585 0 0 0-1.969-.561h-.05c-.383 0-.432-.06-.491-.433a.383.383 0 0 0-.256-.335c-.168-.068-.335-.108-.502-.177c-.168-.068-.433-.157-.64-.255c-.207-.099-.187-.119-.187-.197c0-.079.098-.148.177-.187a5.176 5.176 0 0 0 1.723-1.309c.3-.36.52-.779.65-1.23a.423.423 0 0 0-.168-.53c-.266-.178-.541-.355-.797-.542a2.391 2.391 0 0 1-.374-.325a.403.403 0 0 1 0-.462a.354.354 0 0 1 .393-.187c.203.042.404.095.6.157l.13.03l.133.056c.276.099.27-.036.26-.322a13.846 13.846 0 0 1 0-1.918a2.675 2.675 0 0 1 1.88-2.214a3.447 3.447 0 0 1 2.598.069a2.765 2.765 0 0 1 1.782 2.656v1.575c0 .255.05.285.276.206l.669-.226a.743.743 0 0 1 .256 0a.386.386 0 0 1 .374.197a.364.364 0 0 1 0 .442a2.33 2.33 0 0 1-.364.335c-.227.157-.463.295-.7.453c-.235.157-.373.344-.245.728a3.59 3.59 0 0 0 1.27 1.77c.315.246.506.347.862.59c.151.102.3.129.29.198"/></svg>