<svg xmlns="http://www.w3.org/2000/svg" width="1em" height="1em" viewBox="0 0 24 24"><path fill="currentColor" d="M12.053 2A10 10 0 1 0 22 12.053A10.01 10.01 0 0 0 12.053 2m3.892 14.57a.72.72 0 0 1-1.018.18a5.303 5.303 0 0 0-2.715-.741a5.123 5.123 0 0 0-2.704.742a.72.72 0 0 1-1.06-.18a.732.732 0 0 1 .18-1.06a6.542 6.542 0 0 1 3.552-1.061a6.68 6.68 0 0 1 3.563 1.06a.731.731 0 0 1 .149 1.06zm1.283-2.937a.806.806 0 0 1-.636.34a.732.732 0 0 1-.456-.149a7.974 7.974 0 0 0-8.166 0a.788.788 0 0 1-.901-1.294a9.448 9.448 0 0 1 9.968 0a.784.784 0 0 1 .138 1.103zm1.495-2.937a.859.859 0 0 1-.679.329a.902.902 0 0 1-.509-.18a9.756 9.756 0 0 0-10.965 0a.858.858 0 0 1-1.06-1.348a11.463 11.463 0 0 1 13.043 0a.87.87 0 0 1 .117 1.199z"/></svg>