<svg xmlns="http://www.w3.org/2000/svg" width="1em" height="1em" viewBox="0 0 24 24"><path fill="none" stroke="currentColor" stroke-linecap="round" stroke-linejoin="round" stroke-width="1.5" d="m14.92 8.797l-.624 1.86a4.75 4.75 0 0 1-3.029 3.03l-1.882.626a.316.316 0 0 0 0 .601l1.882.626a4.744 4.744 0 0 1 3.005 3.007l.625 1.883a.317.317 0 0 0 .6 0l.649-1.86a4.749 4.749 0 0 1 3.005-3.007l1.881-.625a.316.316 0 0 0 0-.601l-1.858-.65a4.744 4.744 0 0 1-3.028-3.03l-.625-1.884a.317.317 0 0 0-.6.024M6.859 3.516l-.446 1.329A3.392 3.392 0 0 1 4.25 7.01l-1.345.446a.226.226 0 0 0 0 .43l1.345.447a3.388 3.388 0 0 1 2.146 2.148l.446 1.345a.226.226 0 0 0 .43 0l.462-1.328A3.392 3.392 0 0 1 9.88 8.35l1.345-.447a.226.226 0 0 0 0-.43L9.897 7.01a3.388 3.388 0 0 1-2.163-2.165l-.446-1.346a.226.226 0 0 0-.43.017"/></svg>