<svg xmlns="http://www.w3.org/2000/svg" width="1em" height="1em" viewBox="0 0 24 24"><path fill="none" stroke="currentColor" stroke-linecap="round" stroke-linejoin="round" stroke-width="1.5" d="m14.524 17.649l3.513 1.84a.867.867 0 0 0 .941-.063a.92.92 0 0 0 .307-.392a.962.962 0 0 0 .053-.486l-.677-3.904a.995.995 0 0 1 0-.434a.92.92 0 0 1 .233-.37l2.835-2.762a.93.93 0 0 0 .233-.92a.899.899 0 0 0-.72-.614l-3.925-.56a.92.92 0 0 1-.677-.498L14.884 4.91a.889.889 0 0 0-.783-.508a.836.836 0 0 0-.476.138a.804.804 0 0 0-.328.37l-1.799 3.576a.931.931 0 0 1-.666.498l-3.872.56a.931.931 0 0 0-.455.201a.868.868 0 0 0-.275.413a.952.952 0 0 0 .253.92L9.32 13.84c.102.106.182.232.233.37a.995.995 0 0 1 0 .434l-.677 3.904a.857.857 0 0 0 0 .486a.92.92 0 0 0 .306.392a.867.867 0 0 0 .942.063l3.513-1.84a.898.898 0 0 1 .846 0zM8 5.4H2m3 12.07H2m1.5-5.773H2"/></svg>