<svg xmlns="http://www.w3.org/2000/svg" width="1em" height="1em" viewBox="0 0 24 24"><path fill="currentColor" d="M9.057 13.698a2.078 2.078 0 0 0-.74.14l.983.382c.214.089.423.19.625.305a1.54 1.54 0 0 1 .639 1.272a1.56 1.56 0 0 1-.465 1.098c-.294.29-.692.454-1.106.454a2.087 2.087 0 0 1-.817-.23l-1.111-.444a2.165 2.165 0 0 0 1.966 1.272c.566 0 1.108-.224 1.508-.622a2.12 2.12 0 0 0 0-3.005a2.137 2.137 0 0 0-1.508-.622zM11.994 2.25a9.779 9.779 0 0 0-6.646 2.59a9.703 9.703 0 0 0-3.098 6.403l5.274 2.239c.46-.284.993-.425 1.533-.407h.14l2.325-3.282a1.166 1.166 0 0 1 0-.216c0-.755.224-1.493.645-2.12a3.828 3.828 0 0 1 1.72-1.406a3.846 3.846 0 0 1 4.175.827a3.811 3.811 0 0 1 .83 4.16a3.82 3.82 0 0 1-1.41 1.712c-.63.42-1.371.643-2.129.643H15.2l-3.359 2.404v.102a2.768 2.768 0 0 1-.734 1.834a2.788 2.788 0 0 1-3.687.367a2.772 2.772 0 0 1-1.083-1.654L2.62 14.88a9.74 9.74 0 0 0 2.896 4.45a9.818 9.818 0 0 0 10.099 1.717a9.778 9.778 0 0 0 4.213-3.241a9.71 9.71 0 0 0 .886-10.166a9.758 9.758 0 0 0-3.59-3.915a9.812 9.812 0 0 0-5.117-1.463z"/><path fill="currentColor" d="M15.302 7.033a2.561 2.561 0 0 0-2.36 1.57a2.535 2.535 0 0 0 .554 2.773a2.559 2.559 0 0 0 3.93-.386a2.537 2.537 0 0 0-.318-3.212a2.56 2.56 0 0 0-1.806-.745m0 4.44a1.934 1.934 0 0 1-1.79-1.178a1.913 1.913 0 0 1 .409-2.097a1.931 1.931 0 0 1 3.297 1.353a1.92 1.92 0 0 1-1.916 1.921"/></svg>