<svg xmlns="http://www.w3.org/2000/svg" width="1em" height="1em" viewBox="0 0 24 24"><path fill="currentColor" d="M13.374 9.668h1.217l.07.331l.251-.18a1.619 1.619 0 0 1 1.88.14c.435.38.717.906.794 1.478a3.66 3.66 0 0 1-.19 2.01a1.74 1.74 0 0 1-1.348 1.137a1.508 1.508 0 0 1-1.116-.221l-.15-.09v1.557l-1.388.292zm1.387 2.433v.945a.201.201 0 0 0 .07.16a.814.814 0 0 0 1.217-.17a1.77 1.77 0 0 0 .242-1.006a1.577 1.577 0 0 0-.262-.895a.783.783 0 0 0-1.206-.16a.222.222 0 0 0-.06.14c-.01.352 0 .674 0 .986m4.524.512a.795.795 0 0 0 .382.674c.289.155.622.208.945.15c.366-.02.725-.112 1.055-.27v.974a.17.17 0 0 1-.11.181a3.286 3.286 0 0 1-1.75.282a2.121 2.121 0 0 1-1.287-.613a2.202 2.202 0 0 1-.552-1.086a3.327 3.327 0 0 1 .24-2.202a1.92 1.92 0 0 1 3.6.231c.118.323.183.662.191 1.006v.683h-2.714zm1.407-1.005a.845.845 0 0 0-.342-.774a.623.623 0 0 0-.714 0a.876.876 0 0 0-.372.784zM2.134 12.985l.252.12c.34.166.708.268 1.086.303c.153.014.308.014.462 0a.301.301 0 0 0 .11-.533c-.1-.07-.209-.131-.321-.181c-.322-.131-.644-.242-1.005-.392a1.377 1.377 0 0 1-.252-2.242a2.01 2.01 0 0 1 1.257-.453c.489-.03.978.041 1.438.211a.12.12 0 0 1 .09.131v1.176c-.221-.07-.432-.17-.653-.22c-.222-.051-.533-.071-.795-.101a.542.542 0 0 0-.22 0a.251.251 0 0 0-.071.452c.107.072.222.133.342.181c.341.113.677.244 1.005.392a1.267 1.267 0 0 1 .684 1.428a1.428 1.428 0 0 1-1.197 1.236c-.726.171-1.489.1-2.171-.2a.1.1 0 0 1-.06-.081v-1.207a.08.08 0 0 1 .02-.02m3.719-4.222l1.347-.292v1.197h1.006v1.176H7.2v2.01a.523.523 0 0 0 .654.543c.132-.013.263-.037.392-.07v1.015c0 .07 0 .111-.08.131a2.08 2.08 0 0 1-1.458 0a1.317 1.317 0 0 1-.865-1.156a1.337 1.337 0 0 1 0-.201V8.763zm2.846.915h1.095c.08 0 .1 0 .11.09c.018.102.041.203.071.302l.04-.1a.925.925 0 0 1 1.006-.312v1.246a3.498 3.498 0 0 0-.463 0a.915.915 0 0 0-.332.1a.442.442 0 0 0-.261.433v3.066H8.699zm2.774 0h1.377v4.835h-1.377zm-.01-.423V8.25c0-.06 0-.09.07-.1l1.287-.272v1.086z"/></svg>