<svg xmlns="http://www.w3.org/2000/svg" width="1em" height="1em" viewBox="0 0 24 24"><path fill="currentColor" d="M21.785 8.9a10.18 10.18 0 0 0-9.76-7.15c-1.058 0-2.11.158-3.12.47a10.28 10.28 0 0 0-6.69 6.69a10.11 10.11 0 0 0-.46 3.09a10.22 10.22 0 0 0 10.22 10.25a9.884 9.884 0 0 0 3.12-.48a10.28 10.28 0 0 0 6.69-6.69a10.09 10.09 0 0 0 .46-3.08v-.09a10.22 10.22 0 0 0-.46-3.01M12.005 3a10.39 10.39 0 0 1 2.42.28l-.65 3.23a6.73 6.73 0 0 0-3.59 0l-.65-3.23a10.13 10.13 0 0 1 2.47-.28m-5.56 10.68l-3.08.61a10.05 10.05 0 0 1 0-4.67l3.09.61a6.32 6.32 0 0 0 0 3.45zm5.55 7.3a9.866 9.866 0 0 1-2.46-.3l.65-3.25c.59.16 1.199.24 1.81.24a6.21 6.21 0 0 0 1.82-.26l.65 3.26a11.44 11.44 0 0 1-2.47.35zm4.09-7.3a4.273 4.273 0 0 1-2.36 2.36a4.399 4.399 0 0 1-3.45 0a4.317 4.317 0 0 1-2.37-2.36a4.46 4.46 0 0 1-.35-1.73a4.5 4.5 0 0 1 2.72-4.09a4.44 4.44 0 0 1 1.72-.35a4.5 4.5 0 0 1 4.1 2.72c.23.547.35 1.136.35 1.73a4.28 4.28 0 0 1-.36 1.72m1.48 0c.151-.561.229-1.14.23-1.72a5.94 5.94 0 0 0-.25-1.73l3.11-.61c.36 1.536.36 3.134 0 4.67z"/></svg>