<svg xmlns="http://www.w3.org/2000/svg" width="1em" height="1em" viewBox="0 0 24 24"><path fill="currentColor" d="M20.837 5.695a4.111 4.111 0 0 0-2.93-1.21h-9.2a4.1 4.1 0 0 0-2.92 1.22l-.08.08l-3.08 4.21a3.74 3.74 0 0 0 0 4.05l3 4.17l.08.09a4.089 4.089 0 0 0 2.92 1.21h9.2a4.13 4.13 0 0 0 4.14-4.13v-6.77a4.11 4.11 0 0 0-1.13-2.92m-8.18 11a1 1 0 1 1 0-2a1 1 0 0 1 0 2m2.67-5.52a2.61 2.61 0 0 1-.63.9a2.73 2.73 0 0 1-.93.55v.05a.19.19 0 0 0 0 .1v.41a1 1 0 1 1-2 0v-.49a2.161 2.161 0 0 1 1.4-2a.66.66 0 0 0 .25-.14a.6.6 0 0 0 .14-.21a.49.49 0 0 0 0-.24a.54.54 0 0 0-.06-.25a.76.76 0 0 0-.23-.25a.82.82 0 0 0-.36-.15a1 1 0 0 0-.61.08a.9.9 0 0 0-.41.43a1 1 0 0 1-1.841-.073a1 1 0 0 1 .031-.767a2.91 2.91 0 0 1 1.3-1.36a2.86 2.86 0 0 1 1.86-.28a2.802 2.802 0 0 1 2.05 1.49a2.611 2.611 0 0 1 .07 2.16z"/></svg>