<svg xmlns="http://www.w3.org/2000/svg" width="1em" height="1em" viewBox="0 0 24 24"><path fill="currentColor" d="M20.9 3.665a3.7 3.7 0 0 0-2.65-1.1H5.75A3.76 3.76 0 0 0 2 6.315v7.87a3.76 3.76 0 0 0 3.75 3.75h5.5v2H8.53a.75.75 0 0 0 0 1.5h6.94a.75.75 0 1 0 0-1.5h-2.72v-2h5.5a3.719 3.719 0 0 0 2.65-1.1a3.76 3.76 0 0 0 1.1-2.65v-7.87a3.721 3.721 0 0 0-1.1-2.65m-5.62 6.64a.73.73 0 0 1-.53.22a.74.74 0 0 1-.53-.22l-1.47-1.47v4.41a.75.75 0 1 1-1.5 0v-4.38l-1.47 1.47a.75.75 0 0 1-1.06-1.06l2.36-2.36a1.34 1.34 0 0 1 .42-.28c.11-.05.229-.08.35-.09a.76.76 0 0 1 .3 0c.12.01.24.04.35.09c.156.066.299.16.42.28l2.36 2.36a.741.741 0 0 1 0 1.06z"/></svg>