<svg xmlns="http://www.w3.org/2000/svg" width="1em" height="1em" viewBox="0 0 24 24"><path fill="currentColor" d="M20.9 3.665a3.7 3.7 0 0 0-2.65-1.1H5.75A3.76 3.76 0 0 0 2 6.315v7.87a3.76 3.76 0 0 0 3.75 3.75h5.5v2H8.53a.75.75 0 0 0 0 1.5h6.94a.75.75 0 1 0 0-1.5h-2.72v-2h5.5a3.719 3.719 0 0 0 2.65-1.1a3.76 3.76 0 0 0 1.1-2.65v-7.87a3.721 3.721 0 0 0-1.1-2.65m-5.37 5.32l-3.4 3.4a1.409 1.409 0 0 1-.99.41a1.449 1.449 0 0 1-.54-.11a1.347 1.347 0 0 1-.45-.31l-1.68-1.68a.75.75 0 1 1 1.06-1.06l1.62 1.62l3.32-3.33a.75.75 0 1 1 1.06 1.06"/></svg>