<svg xmlns="http://www.w3.org/2000/svg" width="1em" height="1em" viewBox="0 0 24 24"><path fill="currentColor" d="m21.89 11.6l-1.42-7.09a3.12 3.12 0 0 0-1.1-1.83a3.19 3.19 0 0 0-2-.68H9.89a3.11 3.11 0 0 0-2.21.91A2.48 2.48 0 0 0 5.75 2H4.56a2.52 2.52 0 0 0-2.52 2.52v8.29a2.52 2.52 0 0 0 2.52 2.52h1.2a2.48 2.48 0 0 0 1.85-.82c.12.167.257.321.41.46l.94 5.65a1.65 1.65 0 0 0 .87 1.2c.23.114.483.175.74.18a1.68 1.68 0 0 0 .74-.18l1.1-.54a4.29 4.29 0 0 0 2.26-4.91l-.26-1h4.44c.46.004.915-.1 1.33-.3a3.13 3.13 0 0 0 1.72-3.44zM6.76 12.81a1 1 0 0 1-1 1H4.57a1 1 0 0 1-1-1V4.52a1 1 0 0 1 1-1h1.19a1 1 0 0 1 1 1z"/></svg>