<svg xmlns="http://www.w3.org/2000/svg" width="1em" height="1em" viewBox="0 0 24 24"><path fill="currentColor" d="M21.98 4.003a16.56 16.56 0 0 1-2.66 1.015a4.216 4.216 0 0 0-3.698-1.28a4.316 4.316 0 0 0-3.477 4.945a.393.393 0 0 0 0 .11a11.878 11.878 0 0 1-8.666-4.338a4.184 4.184 0 0 0 1.292 5.597a4.14 4.14 0 0 1-1.899-.519v.056a4.228 4.228 0 0 0 3.312 4.117c-.361.09-.732.135-1.104.133a3.744 3.744 0 0 1-.795-.066a4.228 4.228 0 0 0 3.919 2.914a8.467 8.467 0 0 1-5.2 1.788A7.562 7.562 0 0 1 2 18.42a11.734 11.734 0 0 0 6.425 1.888A11.855 11.855 0 0 0 20.457 8.374v-.54a4.549 4.549 0 0 0 1.524-3.831"/></svg>