<svg xmlns="http://www.w3.org/2000/svg" width="1em" height="1em" viewBox="0 0 24 24"><path fill="currentColor" d="M21.987 18.73a1.999 1.999 0 0 1-.34.85a1.9 1.9 0 0 1-1.56.8h-1.651a.741.741 0 0 1-.6-.31a.758.758 0 0 1-.11-.67c.37-1.18.29-2.51-3.061-4.64a.77.77 0 0 1-.32-.85a.76.76 0 0 1 .72-.54a7.614 7.614 0 0 1 6.792 4.39a2 2 0 0 1 .13.97M19.486 7.7a4.43 4.43 0 0 1-4.421 4.42a.761.761 0 0 1-.65-1.13a6.158 6.158 0 0 0 0-6.53a.75.75 0 0 1 .61-1.18a4.292 4.292 0 0 1 3.13 1.34a4.46 4.46 0 0 1 1.291 3.12z"/><path fill="currentColor" d="M16.675 18.7a2.649 2.649 0 0 1-1.26 2.48c-.418.257-.9.392-1.39.39H4.652a2.631 2.631 0 0 1-1.39-.39A2.62 2.62 0 0 1 2.01 18.7a2.62 2.62 0 0 1 .5-1.35a8.792 8.792 0 0 1 6.812-3.51a8.775 8.775 0 0 1 6.842 3.5a2.7 2.7 0 0 1 .51 1.36M14.245 7.32a4.92 4.92 0 0 1-4.902 4.91a4.903 4.903 0 0 1-4.797-5.858a4.9 4.9 0 0 1 6.678-3.57a4.902 4.902 0 0 1 3.03 4.518z"/></svg>