<svg xmlns="http://www.w3.org/2000/svg" width="1em" height="1em" viewBox="0 0 24 24"><path fill="currentColor" d="M12.865 21.25a.75.75 0 0 1-.22.53a.79.79 0 0 1-.53.22H4.481a.75.75 0 0 1-.75-.75c0-4.102 4.491-7.282 8.372-7.282a.76.76 0 0 1 .75.75zm4.001-12.174a5.072 5.072 0 0 1-4.711 3.141a5.122 5.122 0 0 1-5.102-5.112a5.08 5.08 0 0 1 .87-2.84a5.081 5.081 0 0 1 5.252-2.161c.991.192 1.902.68 2.61 1.4a5.051 5.051 0 0 1 1.4 2.621a5.14 5.14 0 0 1-.32 2.951m-.389 11.534a1.38 1.38 0 0 1-.48-.09a1.3 1.3 0 0 1-.41-.28l-1.33-1.33a.75.75 0 1 1 1.06-1.061l1.17 1.17l2.52-2.53a.75.75 0 0 1 1.06 1.06l-2.7 2.69a1.09 1.09 0 0 1-.4.27a1.191 1.191 0 0 1-.49.1"/></svg>