<svg xmlns="http://www.w3.org/2000/svg" width="1em" height="1em" viewBox="0 0 24 24"><path fill="currentColor" d="M11.967 1.752c-2.15.01-4.244.695-5.984 1.957a10.234 10.234 0 0 0-.126 16.493c.05.049.107.09.17.12a10.228 10.228 0 0 0 11.95 0a.831.831 0 0 0 .18-.13a10.235 10.235 0 0 0-.172-16.506a10.278 10.278 0 0 0-5.998-1.934zm0 3.76a4.162 4.162 0 0 1 3.878 2.534a4.144 4.144 0 0 1-.882 4.543A4.158 4.158 0 0 1 7.86 9.632a4.147 4.147 0 0 1 1.21-2.898a4.16 4.16 0 0 1 2.897-1.222m4.627 13.92a8.754 8.754 0 0 1-9.245 0a8.094 8.094 0 0 1-1.212-.9a7.126 7.126 0 0 1 2.144-2a7.23 7.23 0 0 1 7.382 0a7.125 7.125 0 0 1 2.143 2c-.375.337-.78.638-1.212.9"/></svg>