<svg xmlns="http://www.w3.org/2000/svg" width="1em" height="1em" viewBox="0 0 24 24"><g fill="none" stroke="currentColor" stroke-linecap="round" stroke-linejoin="round" stroke-width="1.5"><path d="m12.717 3.656l1.137-.904a1.134 1.134 0 0 1 1.808.584l.432 1.51a1.137 1.137 0 0 0 1.137.836h1.467a1.13 1.13 0 0 1 .96.449a1.149 1.149 0 0 1 .178 1.05l-.546 1.626a1.152 1.152 0 0 0 .41 1.293l1.33.973a1.143 1.143 0 0 1 .47.927a1.15 1.15 0 0 1-.47.927l-1.33.973a1.145 1.145 0 0 0-.41 1.293l.546 1.626a1.152 1.152 0 0 1-.602 1.394a1.13 1.13 0 0 1-.536.105h-1.467a1.132 1.132 0 0 0-.712.22a1.144 1.144 0 0 0-.425.616l-.432 1.51a1.147 1.147 0 0 1-.748.782a1.13 1.13 0 0 1-1.06-.198l-1.137-.904a1.132 1.132 0 0 0-1.434 0l-1.137.904a1.135 1.135 0 0 1-1.808-.584l-.432-1.51a1.145 1.145 0 0 0-.425-.617a1.132 1.132 0 0 0-.712-.219H5.302a1.13 1.13 0 0 1-.96-.449a1.148 1.148 0 0 1-.178-1.05l.546-1.626A1.152 1.152 0 0 0 4.3 13.9l-1.33-.973A1.143 1.143 0 0 1 2.5 12a1.15 1.15 0 0 1 .47-.927L4.3 10.1a1.144 1.144 0 0 0 .41-1.293l-.477-1.66a1.152 1.152 0 0 1 .602-1.394a1.13 1.13 0 0 1 .535-.105h1.467a1.145 1.145 0 0 0 1.137-.836l.432-1.51A1.145 1.145 0 0 1 9.17 2.6a1.13 1.13 0 0 1 1.011.209l1.138.904a1.132 1.132 0 0 0 1.399-.057"/><path d="m8.106 11.894l2.192 2.192a.829.829 0 0 0 1.18 0l4.417-4.418"/></g></svg>