<svg xmlns="http://www.w3.org/2000/svg" width="1em" height="1em" viewBox="0 0 24 24"><path fill="currentColor" d="M21.93 8.33a2.06 2.06 0 0 0-.86-.77a2.11 2.11 0 0 0-2.2.24l-2.52 2v-.9a4.37 4.37 0 0 0-2.68-4A4.4 4.4 0 0 0 12 4.57H6.1a4.33 4.33 0 0 0-1.67.33a4.38 4.38 0 0 0-2.35 2.36a4.31 4.31 0 0 0-.33 1.66v6.17a4.34 4.34 0 0 0 4.35 4.34h5.83a4.37 4.37 0 0 0 4.017-2.677a4.32 4.32 0 0 0 .333-1.663v-.9l2.52 2c.324.256.718.41 1.13.44h.25a2 2 0 0 0 .9-.21a2.13 2.13 0 0 0 .85-.79a2.05 2.05 0 0 0 .32-1.11V9.37a2.12 2.12 0 0 0-.32-1.04m-9.85 2.68l-2.84 2.84a1.31 1.31 0 0 1-.91.38a1.38 1.38 0 0 1-.49-.1a1.42 1.42 0 0 1-.41-.28l-1.41-1.41a.739.739 0 0 1 0-1.06a.75.75 0 0 1 1.06 0l1.25 1.26l2.69-2.69a.75.75 0 0 1 1.06 1.06"/></svg>