<svg xmlns="http://www.w3.org/2000/svg" width="1em" height="1em" viewBox="0 0 24 24"><path fill="currentColor" d="M21.93 8.33a2.06 2.06 0 0 0-.86-.77a2.11 2.11 0 0 0-2.2.24l-2.52 2v-.9a4.37 4.37 0 0 0-2.68-4A4.4 4.4 0 0 0 12 4.57H6.1a4.33 4.33 0 0 0-1.67.33a4.38 4.38 0 0 0-2.35 2.36a4.31 4.31 0 0 0-.33 1.66v6.17a4.34 4.34 0 0 0 4.35 4.34h5.83a4.37 4.37 0 0 0 4.017-2.677a4.32 4.32 0 0 0 .333-1.663v-.9l2.52 2c.289.23.634.378 1 .43h.25a2 2 0 0 0 .9-.21a2.13 2.13 0 0 0 .98-.78a2.05 2.05 0 0 0 .32-1.11V9.37a2.12 2.12 0 0 0-.32-1.04M11.87 12.9l-2 2a1.049 1.049 0 0 1-.39.27a1.22 1.22 0 0 1-.46.09a1.1 1.1 0 0 1-.47-.1a1.27 1.27 0 0 1-.39-.26l-2-2a.75.75 0 0 1 1.06-1.06l1 1V9.46a.75.75 0 0 1 1.5 0v3.38l1-1a.75.75 0 0 1 1.06 1.06z"/></svg>