<svg xmlns="http://www.w3.org/2000/svg" width="1em" height="1em" viewBox="0 0 24 24"><path fill="currentColor" d="M20.935 3.521a1.79 1.79 0 0 0-.98-1.11a1.7 1.7 0 0 0-.74-.16H4.825a1.49 1.49 0 0 0-.74.15a1.76 1.76 0 0 0-.62.46a1.79 1.79 0 0 0-.37.66a1.75 1.75 0 0 0-.07.75l1.64 14c.11.958.57 1.84 1.29 2.48a3.85 3.85 0 0 0 2.57 1h7a3.87 3.87 0 0 0 2.58-1a4 4 0 0 0 1.28-2.48l.89-7.87v-.12l.69-6a2 2 0 0 0-.03-.76m-10.1 15.35h-1a2.88 2.88 0 0 1-1.75-.72a2.82 2.82 0 0 1-.9-1.67l-.24-1.72a1.01 1.01 0 0 1 2-.28l.24 1.7a.79.79 0 0 0 .26.48a.8.8 0 0 0 .51.21h1a1 1 0 1 1 0 2zm8-9.23c-2.11.41-3.91.49-5.82-1c-2.37-1.87-5.24-1.27-8-.29l-.5-4.24a.29.29 0 0 1 0-.13a.26.26 0 0 1 .07-.11a.2.2 0 0 1 .1-.08a.22.22 0 0 1 .12 0h14.52a.39.39 0 0 1 .1.08c.03.03.05.069.06.11a.22.22 0 0 1 0 .14z"/></svg>