<svg xmlns="http://www.w3.org/2000/svg" width="1em" height="1em" viewBox="0 0 24 24"><path fill="none" stroke="currentColor" stroke-linecap="round" stroke-linejoin="round" stroke-width="1.5" d="M19.252 14.407a6.823 6.823 0 0 1-6.532 1.776a2.016 2.016 0 0 0-1.95.487l-4.28 4.294a.974.974 0 0 1-1.385 0l-2.067-2.069a.976.976 0 0 1 0-1.385l4.28-4.284a1.952 1.952 0 0 0 .488-1.951a6.835 6.835 0 0 1 1.912-6.65a6.823 6.823 0 0 1 6.736-1.566l-2.925 2.927c-.75.752-1.112 2.342-.341 3.103l1.715 1.727c.76.761 2.35.41 3.11-.351l2.925-2.927a6.836 6.836 0 0 1-1.686 6.869"/></svg>