<svg xmlns="http://www.w3.org/2000/svg" width="1em" height="1em" viewBox="0 0 24 24"><path fill="currentColor" d="M21.763 11.382a7.573 7.573 0 0 1-3.47 4.693a7.56 7.56 0 0 1-5.772.827a1.27 1.27 0 0 0-.67 0a1.178 1.178 0 0 0-.57.31l-4.266 4.29a1.88 1.88 0 0 1-.56.37a1.683 1.683 0 0 1-.669.13a1.648 1.648 0 0 1-.659-.13a1.759 1.759 0 0 1-.56-.37L2.5 19.432a1.61 1.61 0 0 1-.37-.56a1.771 1.771 0 0 1 0-1.33a1.61 1.61 0 0 1 .37-.56l4.277-4.28a1.17 1.17 0 0 0 .32-.56c.06-.209.06-.43 0-.64a7.586 7.586 0 0 1 2.117-7.42a7.522 7.522 0 0 1 3.497-1.88a7.428 7.428 0 0 1 3.997.15a.74.74 0 0 1 .31 1.24L14.1 6.522a2.131 2.131 0 0 0-.56 1.41a.91.91 0 0 0 .21.63l1.719 1.73a1.1 1.1 0 0 0 .91.18a2.128 2.128 0 0 0 1.138-.53l2.918-2.93a.78.78 0 0 1 .71-.2a.749.749 0 0 1 .539.51a7.606 7.606 0 0 1 .08 4.06"/></svg>