<svg xmlns="http://www.w3.org/2000/svg" width="1em" height="1em" viewBox="0 0 24 24"><g fill="none" stroke="currentColor" stroke-linecap="round" stroke-linejoin="round" stroke-width="1.5"><path d="M8.196 20.731a9.511 9.511 0 0 1 0-17.424m7.609 17.424a9.511 9.511 0 0 0 0-17.424"/><path d="m12.859 4.333l-6.476 8.76a.57.57 0 0 0-.098.228a.514.514 0 0 0 0 .253a.465.465 0 0 0 .155.196a.408.408 0 0 0 .22.065h4.894l-.742 5.71a.171.171 0 0 0 0 .105a.163.163 0 0 0 .073.074a.139.139 0 0 0 .098 0a.128.128 0 0 0 .09-.057l6.475-8.76a.562.562 0 0 0 .098-.236a.496.496 0 0 0-.195-.44a.408.408 0 0 0-.22-.066h-4.894l.742-5.71a.171.171 0 0 0 0-.105a.163.163 0 0 0-.074-.074a.139.139 0 0 0-.097 0a.13.13 0 0 0-.05.057"/></g></svg>