<svg xmlns="http://www.w3.org/2000/svg" width="1em" height="1em" viewBox="0 0 24 24"><path fill="currentColor" d="M21.25 8.632a.738.738 0 0 1-.75-.752V5.875a2.369 2.369 0 0 0-.691-1.653a2.357 2.357 0 0 0-1.649-.693h-3.08a.75.75 0 0 1-.75-.752a.753.753 0 0 1 .75-.752h3.08a3.822 3.822 0 0 1 2.71 1.133A3.78 3.78 0 0 1 22 5.875V7.88a.753.753 0 0 1-.75.752m-3.09 13.393h-3.08a.75.75 0 0 1-.75-.752a.753.753 0 0 1 .75-.752h3.08c.619 0 1.213-.245 1.651-.683a2.349 2.349 0 0 0 .689-1.653V16.11a.753.753 0 0 1 .75-.752a.749.749 0 0 1 .75.752v2.065a3.807 3.807 0 0 1-1.13 2.717a3.855 3.855 0 0 1-2.71 1.133m-9.25 0H5.83a3.855 3.855 0 0 1-2.71-1.123A3.79 3.79 0 0 1 2 18.185V16.11a.753.753 0 0 1 .75-.752a.749.749 0 0 1 .75.752v2.065a2.33 2.33 0 0 0 .68 1.654c.44.436 1.032.681 1.65.682h3.08a.75.75 0 0 1 .75.752a.753.753 0 0 1-.75.752zM2.75 8.632A.738.738 0 0 1 2 7.88V5.875a3.778 3.778 0 0 1 1.12-2.717a3.83 3.83 0 0 1 2.71-1.133h3.08a.75.75 0 0 1 .75.752a.753.753 0 0 1-.75.752H5.83a2.337 2.337 0 0 0-1.648.69A2.349 2.349 0 0 0 3.5 5.875V7.88a.753.753 0 0 1-.75.752m15.64 2.105a1.32 1.32 0 0 1-.24.611l-6.51 8.772a1.205 1.205 0 0 1-.23.22a.92.92 0 0 1-.36.131h-.15a.999.999 0 0 1-.32 0a1.002 1.002 0 0 1-.47-.44a.378.378 0 0 1 0-.111a.836.836 0 0 1 0-.471l.63-4.833h-4a1.167 1.167 0 0 1-1.07-.721a.493.493 0 0 1 0-.11a1.306 1.306 0 0 1 0-.622c.039-.174.114-.338.22-.481l6.48-8.792a.81.81 0 0 1 .39-.311a.998.998 0 0 1 .63 0a1 1 0 0 1 .47.431c.004.04.004.08 0 .12a.804.804 0 0 1 0 .461l-.62 4.843h4c.22 0 .435.062.62.18c.198.132.351.32.44.541c.077.184.108.384.09.582"/></svg>