<svg xmlns="http://www.w3.org/2000/svg" width="1em" height="1em" viewBox="0 0 24 24"><path fill="none" stroke="currentColor" stroke-linecap="round" stroke-linejoin="round" stroke-width="1.5" d="m13.058 2.577l-7.941 10.74a.612.612 0 0 0-.068.597a.543.543 0 0 0 .188.235a.468.468 0 0 0 .273.084h5.986l-.907 7.023a.243.243 0 0 0 .027.135a.21.21 0 0 0 .094.09c.04.02.083.024.125.013a.2.2 0 0 0 .107-.07l7.941-10.741a.612.612 0 0 0 .068-.597a.544.544 0 0 0-.188-.234a.468.468 0 0 0-.273-.085h-5.986l.907-7.023a.243.243 0 0 0-.027-.135a.21.21 0 0 0-.094-.09a.183.183 0 0 0-.125-.013a.199.199 0 0 0-.107.07"/></svg>