<svg xmlns="http://www.w3.org/2000/svg" width="1em" height="1em" viewBox="0 0 24 24"><g fill="none" fill-rule="evenodd"><path d="M24 0v24H0V0zM12.594 23.258l-.012.002l-.071.035l-.02.004l-.014-.004l-.071-.036c-.01-.003-.019 0-.024.006l-.004.01l-.017.428l.005.02l.01.013l.104.074l.015.004l.012-.004l.104-.074l.012-.016l.004-.017l-.017-.427c-.002-.01-.009-.017-.016-.018m.264-.113l-.014.002l-.184.093l-.01.01l-.003.011l.018.43l.005.012l.008.008l.201.092c.012.004.023 0 .029-.008l.004-.014l-.034-.614c-.003-.012-.01-.02-.02-.022m-.715.002a.023.023 0 0 0-.027.006l-.006.014l-.034.614c0 .012.007.02.017.024l.015-.002l.201-.093l.01-.008l.003-.011l.018-.43l-.003-.012l-.01-.01z"/><path fill="currentColor" d="M11.5 3.7a2.3 2.3 0 0 1 2.057 1.272l2.733 5.465a6.167 6.167 0 0 0 1.314-2.84a2.3 2.3 0 0 1 4.529.806a10.795 10.795 0 0 1-3.68 6.361l1.104 2.208a2.3 2.3 0 1 1-4.114 2.057l-1.059-2.118a10.8 10.8 0 0 1-2.884.39a10.8 10.8 0 0 1-2.884-.39l-1.059 2.118a2.3 2.3 0 0 1-4.114-2.057l1.104-2.208a10.846 10.846 0 0 1-2.21-2.544a2.3 2.3 0 1 1 3.9-2.44c.144.23.302.45.473.657l2.733-5.465A2.3 2.3 0 0 1 11.5 3.7m-.756 8.955a6.285 6.285 0 0 0 1.512 0l-.756-1.512z"/></g></svg>