<svg xmlns="http://www.w3.org/2000/svg" width="1em" height="1em" viewBox="0 0 24 24"><g fill="none" fill-rule="evenodd"><path d="M24 0v24H0V0zM12.594 23.258l-.012.002l-.071.035l-.02.004l-.014-.004l-.071-.036c-.01-.003-.019 0-.024.006l-.004.01l-.017.428l.005.02l.01.013l.104.074l.015.004l.012-.004l.104-.074l.012-.016l.004-.017l-.017-.427c-.002-.01-.009-.017-.016-.018m.264-.113l-.014.002l-.184.093l-.01.01l-.003.011l.018.43l.005.012l.008.008l.201.092c.012.004.023 0 .029-.008l.004-.014l-.034-.614c-.003-.012-.01-.02-.02-.022m-.715.002a.023.023 0 0 0-.027.006l-.006.014l-.034.614c0 .012.007.02.017.024l.015-.002l.201-.093l.01-.008l.003-.011l.018-.43l-.003-.012l-.01-.01z"/><path fill="currentColor" d="M7 2a1 1 0 0 0-.997.917l-.428 5.142a1 1 0 0 1-.372.698L3.751 9.919A2 2 0 0 0 3 11.48V20a2 2 0 0 0 2 2h6a2 2 0 0 0 2-2v-8.52a2 2 0 0 0-.75-1.561l-1.453-1.162a1 1 0 0 1-.372-.698l-.428-5.142A1 1 0 0 0 9 2zm8.495 6a1.57 1.57 0 0 0-1.555 1.348l-.506 3.54A3.604 3.604 0 0 0 16 16.86V20h-.5a1 1 0 1 0 0 2h3a1 1 0 1 0 0-2H18v-3.14a3.604 3.604 0 0 0 2.566-3.971l-.506-3.54A1.57 1.57 0 0 0 18.505 8z"/></g></svg>