<svg xmlns="http://www.w3.org/2000/svg" width="1em" height="1em" viewBox="0 0 24 24"><g fill="none" fill-rule="evenodd"><path d="M24 0v24H0V0zM12.594 23.258l-.012.002l-.071.035l-.02.004l-.014-.004l-.071-.036c-.01-.003-.019 0-.024.006l-.004.01l-.017.428l.005.02l.01.013l.104.074l.015.004l.012-.004l.104-.074l.012-.016l.004-.017l-.017-.427c-.002-.01-.009-.017-.016-.018m.264-.113l-.014.002l-.184.093l-.01.01l-.003.011l.018.43l.005.012l.008.008l.201.092c.012.004.023 0 .029-.008l.004-.014l-.034-.614c-.003-.012-.01-.02-.02-.022m-.715.002a.023.023 0 0 0-.027.006l-.006.014l-.034.614c0 .012.007.02.017.024l.015-.002l.201-.093l.01-.008l.003-.011l.018-.43l-.003-.012l-.01-.01z"/><path fill="currentColor" d="M5 13.744a4.501 4.501 0 0 1 2.852-8.537A4.994 4.994 0 0 1 12 3c1.728 0 3.25.877 4.148 2.207A4.5 4.5 0 0 1 19 13.744V18a3 3 0 0 1-3 3H8a3 3 0 0 1-3-3zM9.22 6.87a3.001 3.001 0 0 1 5.56 0a1 1 0 0 0 1.44.481a2.5 2.5 0 1 1 1.639 4.623a1 1 0 0 0-.859.99V16H7v-3.035a1 1 0 0 0-.858-.99A2.5 2.5 0 1 1 7.78 7.352a1 1 0 0 0 1.44-.481M17 18a1 1 0 0 1-1 1H8a1 1 0 0 1-1-1z"/></g></svg>