<svg xmlns="http://www.w3.org/2000/svg" width="1em" height="1em" viewBox="0 0 24 24"><g fill="none" fill-rule="evenodd"><path d="M24 0v24H0V0zM12.594 23.258l-.012.002l-.071.035l-.02.004l-.014-.004l-.071-.036c-.01-.003-.019 0-.024.006l-.004.01l-.017.428l.005.02l.01.013l.104.074l.015.004l.012-.004l.104-.074l.012-.016l.004-.017l-.017-.427c-.002-.01-.009-.017-.016-.018m.264-.113l-.014.002l-.184.093l-.01.01l-.003.011l.018.43l.005.012l.008.008l.201.092c.012.004.023 0 .029-.008l.004-.014l-.034-.614c-.003-.012-.01-.02-.02-.022m-.715.002a.023.023 0 0 0-.027.006l-.006.014l-.034.614c0 .012.007.02.017.024l.015-.002l.201-.093l.01-.008l.003-.011l.018-.43l-.003-.012l-.01-.01z"/><path fill="currentColor" d="M12 2a8.5 8.5 0 0 1 5.331 15.12l-.226.177l.71 2.84a1.5 1.5 0 0 1-1.324 1.857L16.36 22H7.64a1.5 1.5 0 0 1-1.481-1.735l.026-.129l.71-2.84A8.5 8.5 0 0 1 12 2m3.22 16H8.78l-.5 2h7.44zm.89-8.44a.12.12 0 0 0-.22 0a2.895 2.895 0 0 1-.854 1.101l-.177.129l-.177.107a.118.118 0 0 0-.038.171l.038.035l.177.107a2.828 2.828 0 0 1 1.03 1.23a.12.12 0 0 0 .193.04l.028-.04l.073-.155a2.87 2.87 0 0 1 .958-1.075a2.81 2.81 0 0 1 .176-.107a.118.118 0 0 0 0-.206A2.809 2.809 0 0 1 16.28 9.89l-.097-.175zM13.184 5.6a.201.201 0 0 0-.368 0a4.781 4.781 0 0 1-.887 1.347a4.715 4.715 0 0 1-1.125.882a.196.196 0 0 0 0 .342a4.714 4.714 0 0 1 2.012 2.228c.07.16.297.16.368 0a4.78 4.78 0 0 1 .887-1.347a4.712 4.712 0 0 1 1.124-.88a.196.196 0 0 0 0-.343A4.711 4.711 0 0 1 13.184 5.6"/></g></svg>