<svg xmlns="http://www.w3.org/2000/svg" width="1em" height="1em" viewBox="0 0 24 24"><g fill="none" fill-rule="evenodd"><path d="M24 0v24H0V0zM12.594 23.258l-.012.002l-.071.035l-.02.004l-.014-.004l-.071-.036c-.01-.003-.019 0-.024.006l-.004.01l-.017.428l.005.02l.01.013l.104.074l.015.004l.012-.004l.104-.074l.012-.016l.004-.017l-.017-.427c-.002-.01-.009-.017-.016-.018m.264-.113l-.014.002l-.184.093l-.01.01l-.003.011l.018.43l.005.012l.008.008l.201.092c.012.004.023 0 .029-.008l.004-.014l-.034-.614c-.003-.012-.01-.02-.02-.022m-.715.002a.023.023 0 0 0-.027.006l-.006.014l-.034.614c0 .012.007.02.017.024l.015-.002l.201-.093l.01-.008l.003-.011l.018-.43l-.003-.012l-.01-.01z"/><path fill="currentColor" d="M6.195 5.71c.23.193.62.412 1.192.616C8.52 6.731 10.15 7 12 7c1.85 0 3.48-.27 4.613-.674c.571-.204.962-.423 1.192-.617c.211-.179.211-.24 0-.418c-.23-.194-.62-.413-1.192-.617C15.48 4.269 13.85 4 12 4c-1.85 0-3.48.27-4.613.674c-.571.204-.962.423-1.192.617c-.211.179-.211.24 0 .418M18 7.916a8.063 8.063 0 0 1-.714.293c-1.4.5-3.27.79-5.286.79c-2.017 0-3.886-.29-5.286-.79A8.064 8.064 0 0 1 6 7.917v10.569c.01.024.049.1.195.223c.23.194.62.413 1.192.617C8.52 19.731 10.15 20 12 20c1.85 0 3.48-.27 4.613-.674c.571-.204.962-.423 1.192-.617c.146-.124.186-.2.195-.223zM20 5.5v13c0 .754-.43 1.337-.905 1.737c-.479.405-1.113.724-1.809.973c-1.4.5-3.27.79-5.286.79c-2.017 0-3.886-.29-5.286-.79c-.696-.249-1.33-.568-1.81-.973C4.43 19.837 4 19.254 4 18.5v-13c0-.754.43-1.337.905-1.737c.479-.405 1.113-.724 1.809-.973C8.114 2.29 9.984 2 12 2c2.017 0 3.886.29 5.286.79c.696.249 1.33.568 1.81.973c.474.4.904.983.904 1.737"/></g></svg>