<svg xmlns="http://www.w3.org/2000/svg" width="1em" height="1em" viewBox="0 0 24 24"><g fill="none" fill-rule="evenodd"><path d="M24 0v24H0V0zM12.594 23.258l-.012.002l-.071.035l-.02.004l-.014-.004l-.071-.036c-.01-.003-.019 0-.024.006l-.004.01l-.017.428l.005.02l.01.013l.104.074l.015.004l.012-.004l.104-.074l.012-.016l.004-.017l-.017-.427c-.002-.01-.009-.017-.016-.018m.264-.113l-.014.002l-.184.093l-.01.01l-.003.011l.018.43l.005.012l.008.008l.201.092c.012.004.023 0 .029-.008l.004-.014l-.034-.614c-.003-.012-.01-.02-.02-.022m-.715.002a.023.023 0 0 0-.027.006l-.006.014l-.034.614c0 .012.007.02.017.024l.015-.002l.201-.093l.01-.008l.003-.011l.018-.43l-.003-.012l-.01-.01z"/><path fill="currentColor" d="M12 4a8 8 0 0 0-8 8c0 1.638.28 3.208.796 4.667a1 1 0 1 1-1.885.666A15.954 15.954 0 0 1 2 12C2 6.477 6.477 2 12 2s10 4.477 10 10a4 4 0 0 1-4 4a3.951 3.951 0 0 1-3.897-3.302l-.178-1.068A1.951 1.951 0 0 0 12 10a2 2 0 0 0-2 2a8.004 8.004 0 0 0 5.364 7.556a1 1 0 1 1-.659 1.888A10.003 10.003 0 0 1 8 12a4 4 0 0 1 4-4a3.951 3.951 0 0 1 3.897 3.302l.178 1.068c.157.94.971 1.63 1.925 1.63a2 2 0 0 0 2-2a8 8 0 0 0-8-8m0 3a5 5 0 0 0-5 5c0 3.285 1.439 6.233 3.724 8.25a1 1 0 0 1-1.323 1.5A12.971 12.971 0 0 1 5 12a7 7 0 0 1 14 0a1 1 0 1 1-2 0a5 5 0 0 0-5-5m0 4a1 1 0 0 1 1 1a5 5 0 0 0 5.834 4.93a1 1 0 0 1 .332 1.973A7 7 0 0 1 11 12a1 1 0 0 1 1-1"/></g></svg>