<svg xmlns="http://www.w3.org/2000/svg" width="1em" height="1em" viewBox="0 0 24 24"><g fill="none" fill-rule="evenodd"><path d="M24 0v24H0V0zM12.594 23.258l-.012.002l-.071.035l-.02.004l-.014-.004l-.071-.036c-.01-.003-.019 0-.024.006l-.004.01l-.017.428l.005.02l.01.013l.104.074l.015.004l.012-.004l.104-.074l.012-.016l.004-.017l-.017-.427c-.002-.01-.009-.017-.016-.018m.264-.113l-.014.002l-.184.093l-.01.01l-.003.011l.018.43l.005.012l.008.008l.201.092c.012.004.023 0 .029-.008l.004-.014l-.034-.614c-.003-.012-.01-.02-.02-.022m-.715.002a.023.023 0 0 0-.027.006l-.006.014l-.034.614c0 .012.007.02.017.024l.015-.002l.201-.093l.01-.008l.003-.011l.018-.43l-.003-.012l-.01-.01z"/><path fill="currentColor" d="M16.95 4a1 1 0 0 0-1.414-1.414l-3.89 3.889a.5.5 0 0 1-.707 0L8.464 4A1 1 0 1 0 7.05 5.414L8.636 7H5a2 2 0 0 0-2 2v10a2 2 0 0 0 2 2h14a2 2 0 0 0 2-2V9a2 2 0 0 0-2-2h-5.05zm-7.487 7.92a1.045 1.045 0 0 1 1.458-.842c.355.154 1.028.467 1.868.952c.84.485 1.449.912 1.76 1.142a1.045 1.045 0 0 1 0 1.683c-.31.229-.914.652-1.76 1.14c-.847.49-1.515.8-1.868.954a1.045 1.045 0 0 1-1.458-.842a19.106 19.106 0 0 1-.109-2.094c0-.966.066-1.708.11-2.092"/></g></svg>