<svg xmlns="http://www.w3.org/2000/svg" width="1em" height="1em" viewBox="0 0 24 24"><g fill="none" fill-rule="evenodd"><path d="M24 0v24H0V0zM12.594 23.258l-.012.002l-.071.035l-.02.004l-.014-.004l-.071-.036c-.01-.003-.019 0-.024.006l-.004.01l-.017.428l.005.02l.01.013l.104.074l.015.004l.012-.004l.104-.074l.012-.016l.004-.017l-.017-.427c-.002-.01-.009-.017-.016-.018m.264-.113l-.014.002l-.184.093l-.01.01l-.003.011l.018.43l.005.012l.008.008l.201.092c.012.004.023 0 .029-.008l.004-.014l-.034-.614c-.003-.012-.01-.02-.02-.022m-.715.002a.023.023 0 0 0-.027.006l-.006.014l-.034.614c0 .012.007.02.017.024l.015-.002l.201-.093l.01-.008l.003-.011l.018-.43l-.003-.012l-.01-.01z"/><path fill="currentColor" d="M9.5 4A1.5 1.5 0 0 1 11 2.5h3a1.5 1.5 0 0 1 0 3h-3A1.5 1.5 0 0 1 9.5 4m0 4A1.5 1.5 0 0 1 11 6.5h3a1.5 1.5 0 0 1 0 3h-3A1.5 1.5 0 0 1 9.5 8m7 0A1.5 1.5 0 0 1 18 6.5h3a1.5 1.5 0 0 1 0 3h-3A1.5 1.5 0 0 1 16.5 8m-14 4A1.5 1.5 0 0 1 4 10.5h3a1.5 1.5 0 0 1 0 3H4A1.5 1.5 0 0 1 2.5 12m7 0a1.5 1.5 0 0 1 1.5-1.5h3a1.5 1.5 0 0 1 0 3h-3A1.5 1.5 0 0 1 9.5 12m7 0a1.5 1.5 0 0 1 1.5-1.5h3a1.5 1.5 0 0 1 0 3h-3a1.5 1.5 0 0 1-1.5-1.5m-14 4A1.5 1.5 0 0 1 4 14.5h3a1.5 1.5 0 0 1 0 3H4A1.5 1.5 0 0 1 2.5 16m7 0a1.5 1.5 0 0 1 1.5-1.5h3a1.5 1.5 0 0 1 0 3h-3A1.5 1.5 0 0 1 9.5 16m7 0a1.5 1.5 0 0 1 1.5-1.5h3a1.5 1.5 0 0 1 0 3h-3a1.5 1.5 0 0 1-1.5-1.5m-14 4A1.5 1.5 0 0 1 4 18.5h3a1.5 1.5 0 0 1 0 3H4A1.5 1.5 0 0 1 2.5 20m7 0a1.5 1.5 0 0 1 1.5-1.5h3a1.5 1.5 0 0 1 0 3h-3A1.5 1.5 0 0 1 9.5 20m7 0a1.5 1.5 0 0 1 1.5-1.5h3a1.5 1.5 0 0 1 0 3h-3a1.5 1.5 0 0 1-1.5-1.5"/></g></svg>