<svg xmlns="http://www.w3.org/2000/svg" width="1em" height="1em" viewBox="0 0 24 24"><g fill="none" fill-rule="evenodd"><path d="M24 0v24H0V0zM12.594 23.258l-.012.002l-.071.035l-.02.004l-.014-.004l-.071-.036c-.01-.003-.019 0-.024.006l-.004.01l-.017.428l.005.02l.01.013l.104.074l.015.004l.012-.004l.104-.074l.012-.016l.004-.017l-.017-.427c-.002-.01-.009-.017-.016-.018m.264-.113l-.014.002l-.184.093l-.01.01l-.003.011l.018.43l.005.012l.008.008l.201.092c.012.004.023 0 .029-.008l.004-.014l-.034-.614c-.003-.012-.01-.02-.02-.022m-.715.002a.023.023 0 0 0-.027.006l-.006.014l-.034.614c0 .012.007.02.017.024l.015-.002l.201-.093l.01-.008l.003-.011l.018-.43l-.003-.012l-.01-.01z"/><path fill="currentColor" d="M17.243 3.222a2.5 2.5 0 0 1 3.535 3.536l-2.121 2.12a2.5 2.5 0 0 1-2.681.56l-1.69 1.69l.556.832a5 5 0 0 1-.625 6.309l-3.338 3.338a2 2 0 0 1-2.829 0L2.393 15.95a2 2 0 0 1 0-2.828l3.339-3.339a5 5 0 0 1 6.309-.624l.832.554l1.688-1.688a2.5 2.5 0 0 1 .56-2.682zm2.121 1.414a.5.5 0 0 0-.707 0l-2.122 2.122a.5.5 0 0 0 .708.707l2.121-2.122a.5.5 0 0 0 0-.707m-8.433 6.187a3 3 0 0 0-3.785.375l-3.338 3.338l5.656 5.656l3.339-3.338a3 3 0 0 0 .374-3.785l-.787-1.181a1 1 0 0 0-.277-.278zM9.818 12.06a1 1 0 0 1 0 1.414l-2.121 2.121a1 1 0 0 1-1.415-1.414l2.122-2.121a1 1 0 0 1 1.414 0m2.121 2.121a1 1 0 0 1 0 1.414l-2.121 2.122a1 1 0 0 1-1.414-1.415l2.121-2.12a1 1 0 0 1 1.414 0"/></g></svg>