<svg xmlns="http://www.w3.org/2000/svg" width="1em" height="1em" viewBox="0 0 24 24"><g fill="none" fill-rule="evenodd"><path d="M24 0v24H0V0zM12.594 23.258l-.012.002l-.071.035l-.02.004l-.014-.004l-.071-.036c-.01-.003-.019 0-.024.006l-.004.01l-.017.428l.005.02l.01.013l.104.074l.015.004l.012-.004l.104-.074l.012-.016l.004-.017l-.017-.427c-.002-.01-.009-.017-.016-.018m.264-.113l-.014.002l-.184.093l-.01.01l-.003.011l.018.43l.005.012l.008.008l.201.092c.012.004.023 0 .029-.008l.004-.014l-.034-.614c-.003-.012-.01-.02-.02-.022m-.715.002a.023.023 0 0 0-.027.006l-.006.014l-.034.614c0 .012.007.02.017.024l.015-.002l.201-.093l.01-.008l.003-.011l.018-.43l-.003-.012l-.01-.01z"/><path fill="currentColor" d="M12.864 1.497a1 1 0 0 0-1.728 0L9.095 5l-3.965.86a1 1 0 0 0-.534 1.643l2.702 3.024l-.408 4.035a1 1 0 0 0 1.398 1.016l1.042-.459l-1.305 5.656A1 1 0 0 0 9 22h6a1 1 0 0 0 .974-1.225L14.67 15.12l1.042.46a1 1 0 0 0 1.398-1.017l-.408-4.035l2.702-3.024a1 1 0 0 0-.534-1.643L14.905 5zm-1.248 12.615l.384-.17l.384.17L13.743 20h-3.486z"/></g></svg>