<svg xmlns="http://www.w3.org/2000/svg" width="1em" height="1em" viewBox="0 0 24 24"><g fill="none" fill-rule="evenodd"><path d="M24 0v24H0V0zM12.594 23.258l-.012.002l-.071.035l-.02.004l-.014-.004l-.071-.036c-.01-.003-.019 0-.024.006l-.004.01l-.017.428l.005.02l.01.013l.104.074l.015.004l.012-.004l.104-.074l.012-.016l.004-.017l-.017-.427c-.002-.01-.009-.017-.016-.018m.264-.113l-.014.002l-.184.093l-.01.01l-.003.011l.018.43l.005.012l.008.008l.201.092c.012.004.023 0 .029-.008l.004-.014l-.034-.614c-.003-.012-.01-.02-.02-.022m-.715.002a.023.023 0 0 0-.027.006l-.006.014l-.034.614c0 .012.007.02.017.024l.015-.002l.201-.093l.01-.008l.003-.011l.018-.43l-.003-.012l-.01-.01z"/><path fill="currentColor" d="M6.414 16.172a1 1 0 0 1 1.498 1.32l-.084.094l-.414.414H18a1 1 0 0 1 .117 1.993L18 20H7.414l.414.414a1 1 0 0 1-1.32 1.498l-.094-.084l-2.121-2.12A.98.98 0 0 1 4 19c0-.226.07-.433.205-.607l.088-.1zM17 2a1 1 0 1 1 0 2h-1v11a1 1 0 1 1-2 0V4h-1v11a1 1 0 1 1-2 0v-3h-1a5 5 0 0 1 0-10zm-6 2h-1a3 3 0 0 0-.176 5.995L10 10h1z"/></g></svg>