<svg xmlns="http://www.w3.org/2000/svg" width="1em" height="1em" viewBox="0 0 24 24"><path fill="currentColor" d="M11.3 13.467a1.2 1.2 0 0 0 0-2.38a1.2 1.2 0 0 0 0 2.38m6.459-11.012c0-.01-.008-.02-.022-.03a.843.843 0 0 0-.547-.325a.759.759 0 0 0-.127-.011l-.456-.037H7.516A1.423 1.423 0 0 0 6.1 3.469v17.409a1.024 1.024 0 0 0 1.028 1.012h9.934a.841.841 0 0 0 .843-.837V2.924a.825.825 0 0 0-.146-.469m-3.468 1.869a.068.068 0 0 0-.058-.026h-.072v-.155h.072a.056.056 0 0 0 .047-.023a.112.112 0 0 0 .017-.065v-.014a.088.088 0 0 0-.019-.061a.064.064 0 0 0-.051-.021a.074.074 0 0 0-.056.024a.138.138 0 0 0-.032.07h-.165a.269.269 0 0 1 .083-.184a.249.249 0 0 1 .175-.066a.243.243 0 0 1 .175.058a.212.212 0 0 1 .062.163v.026a.178.178 0 0 1-.03.1a.184.184 0 0 1-.085.066a.145.145 0 0 1 .1.064a.22.22 0 0 1 .034.128v.026a.225.225 0 0 1-.066.173a.257.257 0 0 1-.184.061a.317.317 0 0 1-.137-.028a.223.223 0 0 1-.1-.081a.249.249 0 0 1-.04-.129h.166a.1.1 0 0 0 .029.061a.085.085 0 0 0 .061.022a.094.094 0 0 0 .07-.026a.1.1 0 0 0 .025-.071V4.4a.122.122 0 0 0-.021-.076m-.11 5.129a.2.2 0 0 1-.156-.068a.265.265 0 0 1-.06-.181a.267.267 0 0 1 .065-.192a.242.242 0 0 1 .185-.068a.238.238 0 0 1 .183.068a.27.27 0 0 1 .065.2a.424.424 0 0 1-.017.112q-.018.059-.042.12l-.153.364h-.169l.156-.358a.2.2 0 0 1-.057.003m.219-2.285a.245.245 0 0 1-.184.068a.249.249 0 0 1-.184-.067a.264.264 0 0 1-.065-.19a.449.449 0 0 1 .016-.116a.772.772 0 0 1 .043-.119l.173-.367h.181l-.168.349a.155.155 0 0 1 .031 0a.205.205 0 0 1 .164.066a.274.274 0 0 1 .058.187a.27.27 0 0 1-.065.189m-.584 4.721a.043.043 0 0 1 .04-.045h.039v-.132a.223.223 0 1 1 .443 0v.132h.039a.043.043 0 0 1 .04.045v.5a.042.042 0 0 1-.04.044h-.521a.042.042 0 0 1-.04-.044zm-2.1-2.448a.216.216 0 0 1 .036.12v.014a.222.222 0 0 1-.034.124a.218.218 0 0 1-.094.083a.327.327 0 0 1-.142.029a.333.333 0 0 1-.142-.029a.219.219 0 0 1-.127-.207v-.014a.215.215 0 0 1 .035-.12a.218.218 0 0 1 .093-.085a.2.2 0 0 1-.08-.071a.165.165 0 0 1-.031-.1v-.019A.205.205 0 0 1 11.3 9a.3.3 0 0 1 .366 0a.206.206 0 0 1 .07.162v.022a.175.175 0 0 1-.031.1a.2.2 0 0 1-.082.07a.22.22 0 0 1 .092.087zm-.306-2.387a.079.079 0 0 0 .063.026a.078.078 0 0 0 .065-.028a.113.113 0 0 0 .023-.077V6.9a.125.125 0 0 0-.02-.078a.07.07 0 0 0-.059-.027a.1.1 0 0 0-.058.017a.086.086 0 0 0-.034.049h-.15v-.485h.46v.155h-.3v.15a.142.142 0 0 1 .05-.028a.2.2 0 0 1 .062-.01a.189.189 0 0 1 .155.068a.306.306 0 0 1 .055.193v.071a.267.267 0 0 1-.066.193a.246.246 0 0 1-.185.068a.235.235 0 0 1-.172-.067a.278.278 0 0 1-.078-.188h.161a.119.119 0 0 0 .027.073zm-.2-3a.273.273 0 0 1 .077-.188a.246.246 0 0 1 .18-.067a.271.271 0 0 1 .186.058a.207.207 0 0 1 .066.164a.352.352 0 0 1-.02.115a.389.389 0 0 1-.057.1l-.209.264h.29v.155h-.5v-.137l.292-.384a.222.222 0 0 0 .031-.053a.142.142 0 0 0 .011-.05a.067.067 0 0 0-.023-.054a.1.1 0 0 0-.063-.018a.083.083 0 0 0-.064.026a.129.129 0 0 0-.03.074h-.167Zm.09 6.776a1.452 1.452 0 0 1 0 2.894a1.452 1.452 0 0 1 0-2.894M9 6.426l-.255.565H8.9v-.215h.16v.215h.067v.154h-.07v.132H8.9v-.132h-.346V7l.262-.572Zm.065 5.38v.387A.239.239 0 0 1 9 12.37a.312.312 0 0 1-.381 0a.246.246 0 0 1-.063-.177v-.387a.239.239 0 0 1 .064-.177a.316.316 0 0 1 .381 0a.241.241 0 0 1 .061.177zm-.522-7.888l.127-.057h.137v.85h-.161v-.662l-.1.039zM8.542 9h.486v.107l-.191.744h-.173l.184-.7H8.7v.128h-.16Zm7.636 12.322H7.225A.625.625 0 0 1 6.6 20.7v-6.51h9.578zm1.389-.375a.375.375 0 0 1-.375.375h-.4V2.554h.347a.431.431 0 0 1 .431.43zm-8.76-9.228a.079.079 0 0 0-.072.034a.17.17 0 0 0-.022.094v.3a.17.17 0 0 0 .022.094a.079.079 0 0 0 .072.034a.077.077 0 0 0 .072-.034a.17.17 0 0 0 .022-.094v-.3a.17.17 0 0 0-.022-.094a.077.077 0 0 0-.072-.034m2.674-2.272a.119.119 0 0 0-.079.026a.09.09 0 0 0-.03.071v.008a.1.1 0 0 0 .03.076a.111.111 0 0 0 .079.028a.108.108 0 0 0 .08-.029a.1.1 0 0 0 .03-.076v-.008a.089.089 0 0 0-.03-.07a.12.12 0 0 0-.08-.026m2.777 2.265a.145.145 0 1 0-.287 0v.132h.287zm-.044-4.836a.079.079 0 0 0-.065.029a.122.122 0 0 0-.023.081a.1.1 0 0 0 .023.07a.085.085 0 0 0 .065.024a.086.086 0 0 0 .066-.024a.1.1 0 0 0 .023-.071a.127.127 0 0 0-.023-.08a.079.079 0 0 0-.066-.029M14.3 9.2a.111.111 0 0 0-.023-.074a.084.084 0 0 0-.065-.026a.081.081 0 0 0-.066.027a.1.1 0 0 0-.023.074a.111.111 0 0 0 .023.077a.093.093 0 0 0 .131 0A.118.118 0 0 0 14.3 9.2m-2.819.091a.087.087 0 0 0 .067-.026a.1.1 0 0 0 .025-.07v-.008a.085.085 0 0 0-.025-.065a.1.1 0 0 0-.133 0a.086.086 0 0 0-.026.065V9.2a.1.1 0 0 0 .026.069a.086.086 0 0 0 .066.022"/></svg>