<svg xmlns="http://www.w3.org/2000/svg" width="1em" height="1em" viewBox="0 0 24 24"><path fill="currentColor" d="m11.573 9.448l2.916 1.015a.1.1 0 0 0 .034.005a.1.1 0 0 0 .1-.063l.231-.522a.1.1 0 0 0 0-.085a.109.109 0 0 0-.063-.058l-2.854-.979a.105.105 0 0 0-.125.045l-.293.487a.108.108 0 0 0-.008.091a.107.107 0 0 0 .062.064m-.026-.137l.292-.487a.072.072 0 0 1 .085-.031l2.854.98a.07.07 0 0 1 .042.1l-.231.523a.072.072 0 0 1-.089.038l-2.915-1.019a.071.071 0 0 1-.038-.104m.053.072l2.911 1.017a.039.039 0 0 0 .047-.02l.231-.522a.039.039 0 0 0 0-.03a.038.038 0 0 0-.022-.021l-2.854-.98h-.012a.036.036 0 0 0-.032.019l-.293.487a.037.037 0 0 0 .02.054zm.316-.252l2.568.869l-.022.065L11.89 9.2Zm-.711.319l3.395 1.213a.152.152 0 0 0 .188-.077l.39-.81a.152.152 0 0 0-.087-.209L11.77 8.413a.15.15 0 0 0-.178.064l-.465.751a.152.152 0 0 0 .078.222m-.048-.2l.464-.751a.115.115 0 0 1 .1-.056a.107.107 0 0 1 .039.007l3.319 1.15a.117.117 0 0 1 .07.066a.115.115 0 0 1 0 .1l-.39.81a.117.117 0 0 1-.145.06l-3.397-1.218a.115.115 0 0 1-.071-.072a.114.114 0 0 1 .011-.1zM9.073 7.993V8l.03-.011v-.013l-.033.004Zm-.129.052a.076.076 0 0 1-.017-.013l-.035.013l.012.014Zm.163-.052v-.008l-.063.1a.1.1 0 0 0 .063-.092m-.199 0a.076.076 0 0 1 .082-.066a.086.086 0 0 1 .074.037l.036-.012a.12.12 0 0 0-.107-.059a.109.109 0 0 0-.116.1a.085.085 0 0 0 .009.038l.032-.012a.059.059 0 0 1-.01-.026m.198-.008h.014l.018.042a.143.143 0 0 0 0-.029v-.014l-.01-.026h-.012l-.012.019ZM9.1 7.968l.015-.006l.013-.019l-.028.009Zm-.21.124l-.016-.04l.018-.007l-.009-.014l-.032.011v.006a.127.127 0 0 0 .039.044m.121.032l.028-.041a.13.13 0 0 1-.049.009a.127.127 0 0 1-.09-.033h-.008l.019.046a.169.169 0 0 0 .075.018Zm.053-.16l-.149.055a.074.074 0 0 0 .012.013l.143-.052a.076.076 0 0 0-.006-.016M9.072 8l-.128.048a.1.1 0 0 0 .046.013A.077.077 0 0 0 9.072 8m.028.557l-.112-.272l-.011.015l.11.269Zm-.185-.449l-.025-.016l.055.133l.011-.017Zm.341.205l.012-.018l-.11-.269l-.012.018Zm-.116-.329l.018.042l.011-.017l-.03-.073a.143.143 0 0 1 .001.048m-.163.318l-.032-.077l-.011.018l.031.077Zm.301.018l-.178.287l-.015-.036l-.014.011l.026.063l.2-.324l-.018-.044l-.011.023Zm-.14-.298a.144.144 0 0 1-.127.1l-.055.084l.032.077l.158-.241Zm.12.296l-.14.223l-.018.016l.005.012Zm1.097.092l.034-.013V8.38l-.033.012Zm-.13.052l-.016-.012l-.035.013l.012.013Zm.164-.052V8.4l-.062.094a.1.1 0 0 0 .062-.084m-.199 0a.075.075 0 0 1 .082-.065a.085.085 0 0 1 .073.036l.034-.012a.12.12 0 0 0-.107-.059a.109.109 0 0 0-.116.1a.085.085 0 0 0 .009.038l.032-.012a.059.059 0 0 1-.007-.026m.21-.01l.018.042a.143.143 0 0 0 0-.029V8.4l-.01-.026h-.007l-.016.024Zm-.228.109l-.016-.04l.018-.006l-.009-.015l-.032.011v.007a.151.151 0 0 0 .039.043m.213-.124l.02-.008l.009-.013v-.007l-.032.012Zm-.085.156l.028-.044a.119.119 0 0 1-.054.012a.127.127 0 0 1-.086-.033h-.008l.019.046a.158.158 0 0 0 .075.019zm.045-.16l-.148.055a.075.075 0 0 0 .012.014l.143-.053a.056.056 0 0 0-.007-.016m.009.034l-.129.047a.1.1 0 0 0 .047.013a.077.077 0 0 0 .082-.06m.029.563l-.112-.272l-.011.017l.11.268Zm.158-.246l.012-.018l-.111-.267l-.012.017Zm-.341-.207l-.025-.016l.056.137l.012-.017Zm.06.198l-.032-.077l-.011.018l.032.077zm.303.016l-.179.285l-.014-.033l-.014.009l.024.058l.2-.32l-.016-.038l-.011.018Zm-.141-.339l.02.046l.011-.017l-.032-.077l-.007.011a.117.117 0 0 1 .008.037m-.002.039a.146.146 0 0 1-.122.1l-.058.088l.031.077l.159-.242Zm.124.298v-.005l-.141.224a.184.184 0 0 1-.017.022v.009zm5.223 1.668a.109.109 0 0 1-.017-.013l-.035.013l.013.014zm.126-.065l.034-.013l-.007-.015l-.033.012a.044.044 0 0 1 .006.016m-.064.075l-.021.036h.006a.11.11 0 0 0 .117-.1v-.007l-.035.012a.071.071 0 0 1-.067.059m-.097-.063a.074.074 0 0 1 .082-.065a.087.087 0 0 1 .07.033l.018-.032a.124.124 0 0 0-.088-.035a.109.109 0 0 0-.117.1a.079.079 0 0 0 .009.038l.033-.012a.046.046 0 0 1-.007-.027m.211-.012v.009l.011-.02l-.005-.011l-.026.009v.018zm.018-.016v.005l.006.017zm-.248.128l-.016-.04l.018-.007l-.009-.015l-.031.012v.006a.151.151 0 0 0 .038.044m.095-.001a.121.121 0 0 1-.08-.032h-.008l.019.046a.163.163 0 0 0 .05.016zm.065.024a.138.138 0 0 0 .087-.091l-.013-.035Zm.047-.163l.033-.012a.123.123 0 0 0-.033-.042l-.018.03a.084.084 0 0 1 .018.024m-.067.061l.042-.016v-.012l-.026.009zm.027-.047l-.141.052a.053.053 0 0 0 .011.014l.117-.043zm-.051.089l.024-.042l-.086.032a.1.1 0 0 0 .047.013zm.058-.091l-.003-.004l-.004.006zm-.148.144a.226.226 0 0 1-.026-.016l.039.094l.011-.018zm.185.475l.157-.292l-.117-.3v.006a.113.113 0 0 1 0 .032l.107.28l-.14.262l-.131-.318l-.011.018l.133.324zm.162-.278l-.161.3l-.007-.017l-.012.016l.017.041l.182-.341l-.013-.035l-.011.02zm-.117-.355l-.006-.014h-.01a.135.135 0 0 1 .008.024zm-.184.316l-.033-.08l-.01.019l.033.08zm.029-.14h-.025l-.026.044l.033.08l.077-.133a.163.163 0 0 1-.059.009m1.249.322a.048.048 0 0 1-.016-.012l-.036.013l.013.014zm.127-.063l.001-.002h-.002zm.001-.002l.032-.012l-.007-.016h-.012zm-.04.068l-.025.043a.107.107 0 0 0 .1-.1v-.008l-.035.013a.062.062 0 0 1-.04.052m-.123-.055a.075.075 0 0 1 .082-.065a.086.086 0 0 1 .073.036l.021-.008l.007-.012a.12.12 0 0 0-.1-.051a.11.11 0 0 0-.117.1a.085.085 0 0 0 .009.038l.033-.012a.048.048 0 0 1-.008-.026m.211-.013l.013.032l.009-.016v-.009l-.011-.029l-.026.01v.017zm-.229.112l-.017-.039l.018-.007l-.011-.015l-.031.012v.006a.137.137 0 0 0 .041.043m.19.007a.13.13 0 0 0 .055-.075v-.012Zm-.074-.008h-.016a.125.125 0 0 1-.086-.032h-.008l.019.046a.153.153 0 0 0 .071.018zm.09-.139l.033-.012a.173.173 0 0 0-.019-.028l-.019.032zm-.025.046v-.011l-.013.021zm-.008-.034l-.148.055a.053.053 0 0 0 .012.014l.142-.053a.052.052 0 0 0-.006-.016m-.032.084l.026-.045l-.114.042a.09.09 0 0 0 .088 0zm-.116.06a.107.107 0 0 1-.025-.016l.048.117l.011-.019zm.347.198l-.119-.313a.126.126 0 0 1 0 .028l.108.281l-.141.262l-.122-.3l-.01.019l.13.318zm-.119-.313l.011-.019l-.015-.038h-.01a.124.124 0 0 1 .011.047zm-.044.654l.182-.34l-.005-.014l-.183.34zm-.128-.358l-.033-.08l-.011.019l.033.08zm.019-.162l-.037.064l.032.08l.1-.171a.166.166 0 0 1-.095.027m.463-.164a.15.15 0 0 0 .012-.154a.119.119 0 0 0-.1-.05h-.012a.144.144 0 0 0-.121.082l-.075.13l.122.319zM6.571 8.016l12.746 4.519h.007v-.006l.4-1.569a.01.01 0 0 0-.006-.011L7.586 6.78h-.007L6.567 8v.01zm10.337 3.213l.139-.238l-.074-.179a.119.119 0 0 1-.014-.056a.144.144 0 0 1 .151-.134a.159.159 0 0 1 .12.053l.059-.1a.212.212 0 0 1 .178-.12a.193.193 0 0 1 .176.08a.213.213 0 0 1-.009.224l-.361.672a.246.246 0 0 1-.212.116a.226.226 0 0 1-.113-.029c-.074-.045-.123-.143-.04-.289m-1.289-.453l.123-.211l-.065-.157a.119.119 0 0 1-.014-.056a.143.143 0 0 1 .151-.133a.155.155 0 0 1 .106.039l.08-.138a.209.209 0 0 1 .178-.12a.191.191 0 0 1 .176.08a.211.211 0 0 1-.009.223l-.361.673a.248.248 0 0 1-.212.116a.226.226 0 0 1-.113-.029c-.074-.043-.123-.142-.04-.287M11.1 9.21l.464-.751a.185.185 0 0 1 .22-.078L15.1 9.535a.186.186 0 0 1 .106.256l-.39.81a.186.186 0 0 1-.167.1a.174.174 0 0 1-.063-.011l-3.392-1.207a.188.188 0 0 1-.113-.114a.186.186 0 0 1 .019-.159m-1.01-.352l.127-.194l-.082-.2a.132.132 0 0 1-.014-.056a.144.144 0 0 1 .151-.134a.152.152 0 0 1 .139.081h.01l.1-.158a.248.248 0 0 1 .205-.131a.171.171 0 0 1 .162.067a.177.177 0 0 1-.01.189l-.424.672a.29.29 0 0 1-.242.129a.192.192 0 0 1-.1-.025c-.026-.018-.112-.085-.022-.24m-1.284-.421l.128-.194l-.08-.2a.116.116 0 0 1-.015-.055a.144.144 0 0 1 .151-.134a.151.151 0 0 1 .139.081h.005l.107-.163a.247.247 0 0 1 .205-.131a.174.174 0 0 1 .162.066a.179.179 0 0 1-.01.19l-.424.672a.29.29 0 0 1-.243.129a.2.2 0 0 1-.1-.025c-.031-.013-.114-.08-.025-.236m6.873 2.373c-.05.088-.045.159.015.2a.179.179 0 0 0 .212-.039l-.131-.321ZM9.538 7.866a.126.126 0 0 0 .013-.118a.1.1 0 0 0-.087-.036h-.013a.181.181 0 0 0-.149.1l-.13.2l.11.268zM6.2 8.114l-.157.164l13.53 4.967l1.9-2.132l-.646-.9L8.168 5.888l-.631.562l-1.03 1.363Zm1.323-1.375a.078.078 0 0 1 .086-.024l12.139 4.169a.078.078 0 0 1 .05.093l-.4 1.569a.074.074 0 0 1-.039.049a.077.077 0 0 1-.036.009a.075.075 0 0 1-.026 0L6.548 8.081a.081.081 0 0 1-.048-.053a.082.082 0 0 1 .015-.071Zm9.445 4.524c-.05.088-.045.159.015.2a.178.178 0 0 0 .23-.062l-.133-.325Zm-6.146-2.977a.126.126 0 0 0 .013-.118a.1.1 0 0 0-.087-.036h-.013a.177.177 0 0 0-.149.094l-.131.2l.111.266zm5.462 1.986a.153.153 0 0 0 .013-.154a.121.121 0 0 0-.1-.049h-.011a.146.146 0 0 0-.122.082l-.091.156l.123.321zm-7.42-1.799c-.022.039-.053.112 0 .144a.2.2 0 0 0 .207-.035l-.106-.262Zm1.284.42c-.022.039-.053.112 0 .144A.2.2 0 0 0 10.356 9l-.107-.262Zm9.202 4.379L5.93 8.324l-.228.201l13.453 4.931Zm-.264.305L5.602 8.607l-.228.201l13.514 4.96Zm-.304.328L5.247 8.917l-.227.202l13.566 4.988Zm-.31.323L4.935 9.215l-.228.201l13.591 5zm-.268.298L4.609 9.5l-.227.201l13.644 5.019Zm-.273.317L4.259 9.828l-.228.201l13.705 5.024Zm-.295.34l-13.73-5.045l-.199.176l13.746 5.074zm-.305.337L3.54 10.436l-.228.201l13.831 5.106Zm-.264.322L3.215 10.721l-.228.201l13.89 5.142zm-14.362-4.66a.362.362 0 0 0-.1.366l.282.955l12.8 4.964c.169.066.358.072.412-.1l.168-.5a1.1 1.1 0 0 1 .215-.328l.341-.356l-13.936-5.172Zm19.221-.228l-.615-.217l.074.137l.282.152l-4.96 5.509a1.892 1.892 0 0 0-.332.515l-.088.2l-.119.319a.233.233 0 0 1-.276.12L2.8 12.61l-.069-.21l-.107-.353l-.156-.513a.669.669 0 0 1-.025-.126a.226.226 0 0 1 .077-.2l3.027-2.629l.941-.879l.478-.64l-4.472 3.862l-.364.334a.274.274 0 0 0-.112.331l.377.991l.02.048a.692.692 0 0 0 .166.244l.148.12l.183.094l12.641 4.883l.312.112l.192.033h.156l.141-.03l.045-.037l5.119-5.965l.472-.984a.1.1 0 0 0-.064-.142"/></svg>