<svg xmlns="http://www.w3.org/2000/svg" width="1em" height="1em" viewBox="0 0 24 24"><path fill="currentColor" d="M11.112 12.534a1.24 1.24 0 0 0 0-1.458a.8.8 0 0 0-1.307 0a1.244 1.244 0 0 0 0 1.458a.8.8 0 0 0 1.307 0m-.974-.729c0-.295.169-.5.321-.5s.32.206.32.5c0 .294-.169.5-.32.5s-.321-.205-.321-.5m1.83 1.84a3.16 3.16 0 0 0 0-3.68a1.822 1.822 0 0 0-3.018 0a3.16 3.16 0 0 0 0 3.68a1.822 1.822 0 0 0 3.018 0M9.4 13.3a2.591 2.591 0 0 1 0-2.985a1.256 1.256 0 0 1 2.116 0a2.591 2.591 0 0 1 0 2.985a1.255 1.255 0 0 1-2.116 0m3.308 1.305a4.591 4.591 0 0 0 .9-2.8a4.6 4.6 0 0 0-.9-2.8a2.84 2.84 0 0 0-2.249-1.2A2.839 2.839 0 0 0 8.21 9a4.6 4.6 0 0 0-.9 2.8a4.591 4.591 0 0 0 .9 2.8a2.839 2.839 0 0 0 2.249 1.2a2.84 2.84 0 0 0 2.249-1.195m-4.826-2.8c0-1.892 1.156-3.43 2.577-3.43s2.577 1.538 2.577 3.43c0 1.892-1.156 3.43-2.577 3.43s-2.577-1.535-2.577-3.43m4.285 4.911a4.407 4.407 0 0 0 1.376-1.158a6.006 6.006 0 0 0 1.247-3.753a6.011 6.011 0 0 0-1.247-3.754a4.4 4.4 0 0 0-1.376-1.157a3.607 3.607 0 0 0-3.416 0a4.392 4.392 0 0 0-1.376 1.157a6.011 6.011 0 0 0-1.247 3.754a6.006 6.006 0 0 0 1.247 3.753a4.4 4.4 0 0 0 1.376 1.158a3.607 3.607 0 0 0 3.416 0M6.7 11.805c0-2.631 1.688-4.772 3.762-4.772s3.762 2.141 3.762 4.772c0 2.631-1.688 4.772-3.762 4.772S6.7 14.436 6.7 11.805m4.178 8.481c1.926.1 4.885.439 7.722.879a.641.641 0 0 0 .449-.058a.108.108 0 0 0 .033-.095c-.15-1.54-.413-4.727-.482-8.774a52.754 52.754 0 0 1 .457-7.494c.163-1.363.28-2.348.043-2.447a3.813 3.813 0 0 0-1.168.152a36.209 36.209 0 0 1-6.471.735c-3.782.1-6.546-.049-7.248-.093l-.147-.01C4 3.192 3.7 4.116 3.621 11.8a32.283 32.283 0 0 0 .539 6.32c.148.777.3 1.376.41 1.77c.072.257.127.427.152.5a15.346 15.346 0 0 1 2.915-.2c.839-.003 1.894.025 3.241.096m7.345-2.422a.236.236 0 1 1-.231-.284a.262.262 0 0 1 .231.284m-.138-1a.236.236 0 1 1-.231-.284a.262.262 0 0 1 .231.281zm-.324-1.343a.291.291 0 1 1-.23.285a.262.262 0 0 1 .23-.288zm-12.31-3.642c0-3.33 2.246-6.039 5.008-6.039s5.008 2.709 5.008 6.039c0 3.33-2.247 6.039-5.008 6.039s-5.008-2.709-5.008-6.039m6.085-9.085a36.252 36.252 0 0 0 6.453-.734L18.3 2l-13.619.61a.526.526 0 0 0-.28.1c.838.046 3.521.179 7.135.084m8.757.341a.525.525 0 0 0-.55-.523l-.209.009c.236.216.14 1.024-.039 2.521a52.745 52.745 0 0 0-.456 7.479c.069 4.044.331 7.228.481 8.766a.221.221 0 0 1-.066.186a.535.535 0 0 1-.355.1a1.307 1.307 0 0 1-.187-.014c-2.834-.439-5.789-.775-7.712-.877a26.308 26.308 0 0 0-6.145.1a.527.527 0 0 0 .342.158l13.936.96a.981.981 0 0 0 1.047-.983z"/></svg>