<svg xmlns="http://www.w3.org/2000/svg" width="1em" height="1em" viewBox="0 0 24 24"><path fill="currentColor" d="M4.682 11.525v-1.514c0-.18.072-.241.294-.143c.258.112.324.133.324.348c0 .818 0 1.732-.008 2.573c0 .166.008.236-.194.327c-.041.019-.124.061-.186.083c-.121.05-.233 0-.23-.177v-1.063c-.003-.138-.003-.29 0-.434m12.087.002V13c0 .115-.041.16-.153.155a2.371 2.371 0 0 0-.292 0c-.133.008-.175-.053-.175-.173v-2.9c0-.165.023-.191.188-.193h.279c.113 0 .153.045.153.155c-.003.5 0 .993 0 1.483m-5.927.464a1.186 1.186 0 1 1 1.169 1.2a1.186 1.186 0 0 1-1.169-1.2m1.761 0a.573.573 0 0 0-.541-.6h-.056a.589.589 0 0 0-.563.612a.184.184 0 0 0 0 .041a.6.6 0 0 0 .6.579a.585.585 0 0 0 .561-.606v-.021zm-4.646.003a1.192 1.192 0 0 1-2.383.055v-.076a1.191 1.191 0 0 1 1.2-1.175a1.177 1.177 0 0 1 1.183 1.169zm-.623.027a.578.578 0 1 0-1.154-.076v.028a.6.6 0 0 0 .556.647h.017a.586.586 0 0 0 .581-.592zm11.481-.955c.03-.215 0-.217.236-.215h.212c.119-.013.156.054.156.157V13c0 .112-.048.174-.169.163h-.187c-.212 0-.254 0-.254-.234a.84.84 0 0 1-.613.278a.953.953 0 0 1-.7-.248a1.242 1.242 0 0 1-.158-1.749a1.226 1.226 0 0 1 .259-.234a.933.933 0 0 1 1.113.024ZM17.672 12a.571.571 0 1 0 1.14.044V12a.585.585 0 0 0-.558-.611h-.02a.575.575 0 0 0-.56.59v.013zm-3.549.953v.933c0 .223 0 .223-.23.223h-.239c-.1 0-.133-.048-.133-.144v-2.974c0-.1.037-.148.141-.134h.252c.183 0 .172.054.172.228a1.063 1.063 0 0 1 1.75.626a1.215 1.215 0 0 1-.615 1.385a.916.916 0 0 1-.955-.052c-.045-.024-.077-.05-.143-.091m-.01-.959a.581.581 0 0 0 .543.619h.028a.569.569 0 0 0 .579-.559V12a.547.547 0 0 0-.549-.606a.568.568 0 0 0-.6.536a.442.442 0 0 0 0 .063zm-5.254-.955a.91.91 0 0 1 .607-.243a1.1 1.1 0 0 1 .877.437a1.333 1.333 0 0 1-.032 1.58a1.036 1.036 0 0 1-1.456.159l-.045-.038c-.014-.013 0 .133-.032.174c-.039.075-.488.069-.533 0A.218.218 0 0 1 8.221 13v-2.968c0-.119.052-.165.165-.165a2.844 2.844 0 0 0 .292 0c.133 0 .169.056.169.174c.005.288.012.988.012.998m.547.354a.6.6 0 1 0 .569.69a.508.508 0 0 0 0-.078a.567.567 0 0 0-.522-.61a.346.346 0 0 0-.046 0zm10.265 2.618c-.082-.041-.057-.133-.018-.2c.014-.026.029-.053.045-.079c.11-.212.11-.215.335-.162a.275.275 0 0 0 .333-.133a2.426 2.426 0 0 0 .187-.357s-.611-1.392-.889-2.029c-.079-.18-.071-.191.124-.191h.371a.151.151 0 0 1 .166.115c.165.418.519 1.332.519 1.332c.068-.2.146-.4.209-.581c.087-.248.18-.5.267-.748a.157.157 0 0 1 .183-.126c.113.008.227 0 .344 0c.157 0 .183.041.123.188c-.133.353-.28.708-.423 1.066c-.176.437-.4.97-.573 1.4a.949.949 0 0 1-.8.656a.772.772 0 0 1-.503-.151M3.1 14.178a1.6 1.6 0 0 1-.973-.3c-.1-.08-.116-.142-.062-.239c.037-.069.07-.141.1-.209c.061-.124.12-.144.241-.072a1.361 1.361 0 0 0 .748.207a.554.554 0 0 0 .581-.644a.765.765 0 0 1-.605.23a1.174 1.174 0 0 1-.667-.219a1.108 1.108 0 0 1-.444-1.113a1.143 1.143 0 0 1 .849-.987a.89.89 0 0 1 .918.236c0-.105.008-.172.052-.207a.432.432 0 0 1 .213-.031c.341 0 .334-.014.331.222v1.683c0 .641-.201 1.443-1.282 1.443M3.762 12a.562.562 0 0 0-.519-.605H3.2a.559.559 0 0 0-.585.531v.07a.572.572 0 1 0 1.143.055V12Z"/></svg>