<svg xmlns="http://www.w3.org/2000/svg" width="1em" height="1em" viewBox="0 0 24 24"><path fill="currentColor" d="M7.763 2.29a5.3 5.3 0 0 0 1.06-.143c.054-.068-.63-.124-.93-.124c-.225 0-.966.014-.975.113c-.007.078.415.174.845.154m.188 17.703a6.418 6.418 0 0 1-.033.774c-.028.3-.04.45.085.548a1.86 1.86 0 0 0 .952-.068c.273-.1.51-.194.55-.37c.03-.126-.049-.216-.157-.34a1.215 1.215 0 0 1-.315-.566a2.986 2.986 0 0 1-.068-.582c0-.089-.009-.19-.018-.323v-.165a.429.429 0 0 0-.022-.2a.019.019 0 0 0-.014 0a3.086 3.086 0 0 0-.938.127c-.01.107-.036.54-.022 1.165m1.924 1.32h.007l-.11-.22a.224.224 0 0 0-.02-.04a.511.511 0 0 0-.17-.152c-.054.213-.318.314-.6.421a2.462 2.462 0 0 1-.727.11a.572.572 0 0 1-.3-.054c-.158-.125-.142-.3-.114-.615l.015-.168a2.319 2.319 0 0 0-1.6.457l-.008.015l-.17.3a.156.156 0 0 0-.019.042a.155.155 0 0 0-.006.04c0 .272.783.563 1.948.563s1.947-.29 1.947-.564a.173.173 0 0 0-.03-.093zm-2.782-1.27l-.18.458a4.642 4.642 0 0 1 .765-.09v-.368l.093-.006v-1.096c.007-.16.014-.25.014-.252v-.026l.025-.007a3.072 3.072 0 0 1 .92-.138l.07-16.28l-.15.032a4.433 4.433 0 0 1-.548.083l-.355.033h-.07a3.037 3.037 0 0 1-.4-.024a1.054 1.054 0 0 1-.284-.08l-.109-.053l-.119 17.606v.03l.02.023a.562.562 0 0 0 .308.154M7.04 2.462a1.278 1.278 0 0 0 .217.051a3.285 3.285 0 0 0 .344.024c0 2.9 0 5.835-.007 8.677c-.007 2.842-.01 5.783-.007 8.683a1.01 1.01 0 0 1-.668-.094zm8.926-.173a5.272 5.272 0 0 0 1.06-.143c.055-.068-.632-.124-.932-.124c-.225 0-.966.014-.975.113c-.004.078.417.174.847.154m.188 17.703a6.418 6.418 0 0 1-.033.774c-.027.3-.04.45.085.548a1.86 1.86 0 0 0 .952-.068c.273-.1.51-.194.551-.37c.03-.126-.049-.216-.158-.34a1.215 1.215 0 0 1-.315-.566a2.986 2.986 0 0 1-.068-.582c0-.089-.009-.19-.018-.323V18.9a.415.415 0 0 0-.022-.2a.019.019 0 0 0-.014 0a3.092 3.092 0 0 0-.939.127c-.01.107-.035.54-.02 1.165m1.958 1.373l-.033-.054h.006l-.11-.219a.223.223 0 0 0-.02-.04a.511.511 0 0 0-.17-.152c-.053.213-.318.314-.6.421a2.462 2.462 0 0 1-.727.11a.568.568 0 0 1-.3-.054c-.159-.125-.143-.3-.114-.615c0-.052.01-.108.014-.168a2.32 2.32 0 0 0-1.6.457l-.008.015l-.17.3a.152.152 0 0 0-.019.042a.155.155 0 0 0-.006.04c0 .272.782.563 1.947.563s1.948-.29 1.948-.564a.175.175 0 0 0-.038-.082m-2.818-1.324l-.182.46a4.656 4.656 0 0 1 .766-.09v-.369l.093-.006v-.079c0-.338 0-.678.006-1.017c.006-.16.013-.25.013-.252v-.026l.025-.007a3.072 3.072 0 0 1 .92-.138l.063-16.28l-.15.032a4.376 4.376 0 0 1-.548.083l-.355.033h-.07a3.047 3.047 0 0 1-.4-.024a1.064 1.064 0 0 1-.278-.08l-.103-.053l-.122 17.606v.03l.021.023a.556.556 0 0 0 .301.154m-.055-17.58a1.3 1.3 0 0 0 .217.052a3.3 3.3 0 0 0 .345.024c0 2.9 0 5.835-.008 8.677c-.008 2.842-.01 5.783-.007 8.683a1.006 1.006 0 0 1-.667-.094z"/></svg>