<svg xmlns="http://www.w3.org/2000/svg" width="1em" height="1em" viewBox="0 0 24 24"><path fill="currentColor" d="m8.052 14.928l-.024-.583l-1.229-.123l-.202.088l1.247.109l.022.603Zm-1.887-.756l-1.229-.124l-.202.089l1.247.108l.022.603l.186-.094Zm12.994-5.594l-2.756-.17l-.066.074l2.763.176ZM18.185 9.9l-2.943-.188l-.055.062l2.94.205Zm.554-.752L15.9 8.973l-.067.074l2.847.182Zm-.42.57l-2.922-.18l-.055.061l2.927.187zm.977-1.326l-2.73-.168l-.062.07l2.74.169zm-.84 1.141l-2.896-.178l-.062.07l2.905.179zm.56-.76l-2.78-.178l-.072.081l2.796.172zm-.483.655l.062-.085l-2.862-.182l-.072.08l2.872.177zm.343-.465l-2.813-.173l-.062.07l2.822.174Zm.601 5.327l2.34-4.267L22 8.048a.33.33 0 0 0-.308-.336L7.347 6.738a.649.649 0 0 0-.38.091l-4.642 2.8c-.074.045-.316.209-.312.447l.031 2.346zm-5.255-3.308a.679.679 0 0 0-.182.364l.029 1.452l-9.536-1.033l-.09-1.387v-.035a.243.243 0 0 1 .142-.262l.754-.381l9.334.734ZM2.51 9.931l4.642-2.795a.294.294 0 0 1 .171-.036l9.7.659l-.318.357l2.713.167l.254-.344l1.967.133l-.109 1.864l-2.179 4.031l-2.236-.246l.048-2.26a.379.379 0 0 1 .073-.216l.845-1.147l-2.956-.207l-.212.239l-9.6-.79h-.051l-.852.435l-.01-.002a.589.589 0 0 0-.317.577l.117 1.74l9.91 1.044v.251L2.4 12.1l-.027-2.028a.325.325 0 0 1 .137-.141m3.54 4.96l.1.011a.038.038 0 0 0 .032-.01a.039.039 0 0 0 .012-.031v-.04zm-1.116-.903l1.234.124v-.037a.04.04 0 0 0-.035-.039L4.7 13.9a.04.04 0 0 0-.027.011a.039.039 0 0 0-.012.03l.007.155l.259-.113zm1.866.174l1.236.124v-.036a.042.042 0 0 0-.038-.041l-1.463-.137a.04.04 0 0 0-.029.012a.044.044 0 0 0-.013.033l.008.173l.3-.129zm7.934 1.607l.341.039a.18.18 0 0 0 .142-.044a.184.184 0 0 0 .065-.134l.017-.52a.186.186 0 0 0-.051-.134l-.392-.415a.164.164 0 0 0-.118-.05a.161.161 0 0 0-.11.043a.185.185 0 0 0-.059.136v.894a.186.186 0 0 0 .165.185m-.615.993l2.825.354l.047-2.95l-2.9-.308zm1.711-1.907a.278.278 0 0 1 .087-.2a.252.252 0 0 1 .355.011l.392.414a.278.278 0 0 1 .076.2l-.018.52a.274.274 0 0 1-.1.2a.281.281 0 0 1-.18.067h-.032l-.341-.04a.275.275 0 0 1-.244-.273Zm-1.35-.165a.277.277 0 0 1 .086-.2a.252.252 0 0 1 .355.011l.392.414a.279.279 0 0 1 .076.2l-.018.52a.274.274 0 0 1-.1.2a.279.279 0 0 1-.18.067h-.032l-.341-.039a.275.275 0 0 1-.243-.274ZM2 12.562l.028.337a.705.705 0 0 0 .053.216l.907 2.115a.412.412 0 0 0 .332.249l10.71 1.283L14 13.85Zm4.238 2.4a.125.125 0 0 1-.087.035h-.014l-1.415-.156a.127.127 0 0 1-.1-.069l1.329.148l-.022-.62l-1.429-.124l.085-.037l-.009-.189a.128.128 0 0 1 .039-.1a.125.125 0 0 1 .1-.035l1.428.132a.129.129 0 0 1 .117.125l.024.787a.127.127 0 0 1-.046.098zm1.866.206a.134.134 0 0 1-.089.034H8l-1.45-.166a.13.13 0 0 1-.111-.1l1.375.152l-.022-.614l-1.422-.13l.036-.015l-.01-.208a.135.135 0 0 1 .04-.1a.133.133 0 0 1 .1-.036L8 14.12a.132.132 0 0 1 .119.128l.024.813a.134.134 0 0 1-.043.102Zm8.976-.988l-.046 2.941l1.164.14a.414.414 0 0 0 .416-.221l3.167-6.154a.569.569 0 0 0 .062-.256v-.484l-2.3 4.3zm-9.218.911l.148.017a.044.044 0 0 0 .033-.011a.045.045 0 0 0 .014-.033v-.07zm8.222.843l.341.039a.187.187 0 0 0 .208-.178l.017-.52a.186.186 0 0 0-.051-.134l-.392-.415a.164.164 0 0 0-.118-.05a.161.161 0 0 0-.11.043a.185.185 0 0 0-.059.136v.894a.187.187 0 0 0 .164.185"/></svg>