<svg xmlns="http://www.w3.org/2000/svg" width="1em" height="1em" viewBox="0 0 24 24"><path fill="currentColor" d="M12 2C6.477 2 2 6.477 2 12s4.477 10 10 10s10-4.477 10-10S17.523 2 12 2m0 2c.135.01.27.018.404.032c-.009.027-.023.054-.027.083a2.74 2.74 0 0 0-.032.177l-.003.022l-.013.133l-.002.04a2.168 2.168 0 0 0 .017.382c.028.226.1.476.245.72c.014.028.032.053.048.079c.05.075.107.143.168.21c.022.022.04.045.063.064c.036.037.071.067.11.1c.004.004.013.008.022.017c.301.243.691.403 1.17.47c.195.028.383.049.564.068c.117.013.223.023.323.036l.032.003a10.894 10.894 0 0 1 .276.043c.518.092.74.242.872.655l.027.103l.004.019a.502.502 0 0 1 .011.118a.766.766 0 0 1-.012.17a3.543 3.543 0 0 0-.374-.117a28.963 28.963 0 0 0-.164-.041c-.014-.004-.027-.005-.04-.01a3.157 3.157 0 0 0-.213-.036c-.145-.018-.286-.036-.424-.047h-.018a5.033 5.033 0 0 0-.381-.019h-.013a8.519 8.519 0 0 0-.237 0c-2.41.045-3.6 1.447-3.6 1.447c-.21.042-.423.097-.642.173c-.438.15-.853.396-1.238.695a1.053 1.053 0 1 0-1.262 1.262a12.887 12.887 0 0 0-1.42 2.173l.912-.305c-.002.066-.009.329.077.535c.097.232.175.297.175.297h-1.98v2.77a8 8 0 0 1-1.418-4.525a8 8 0 0 1 8-8Zm1.514.162A8 8 0 0 1 20 11.983l-1.405 1.774l-.003 2.75a8.505 8.505 0 0 1-.17.212v-2.965h-1.32l.136-.15l1.173-.002l1.305-1.648c-.07-.122.032.06.003-.031c-.005-.019-.005-.019-.014-.041c-.014-.046-.032-.094-.053-.151L17.58 8.484c-.124-.143-.023-.04-.226-.25c.061-.247.107-.703.049-.998l.004-.001l-.053-.248c-.423-1.322-1.583-1.45-2.503-1.547c-.171-.019-.348-.037-.522-.062c-.3-.041-.519-.134-.655-.27c-.01-.01-.019-.018-.028-.032c-.013-.018-.027-.032-.04-.05a.544.544 0 0 1-.057-.102c-.014-.037-.027-.07-.036-.106a.768.768 0 0 1-.023-.202a.88.88 0 0 1 .018-.213a.54.54 0 0 0 .01-.24zm1.12 1.372s.26.009.591.06c.295.046.647.123.928.255c.099.046.189.1.264.16c.53.43.742 1.065.742 1.065s-.473-.661-1.072-.989a1.948 1.948 0 0 0-.155-.075a13.433 13.433 0 0 0-1.297-.476Zm-.493.991l.003.001zm.657 1.207a4.29 4.29 0 0 1 .866.084c.15.065.305.142.462.228c-.023.027-.045.056-.068.082a4.192 4.192 0 0 0-.963-.143c-.071-.002-.143-.002-.215-.002c-.292 0-.59.014-.869.032a5.006 5.006 0 0 0-.453-.134a5.57 5.57 0 0 1 1.24-.147m.596 1.102a1.053 1.053 0 1 1-.08 2.102l-.013-.047s-.056.605-.205.906c-.149.3-.663.165-.663.165s.573.291.573.476c0 .184-.389.766-.389.766s.42-.267.664-.783l.805.402a2.039 2.039 0 0 1-.162.38a2.13 2.13 0 0 1-.44.554h-1.806a.943.943 0 0 0-.109-.835c-.206-.291-.586-.43-.865-.494a.258.258 0 0 0-.101-.214a.339.339 0 0 0-.139-.067c.018-.23.054-.536.13-.834c-.228-.237-.75-.76-.935-.76c-.164 0-.643.385-.928.625c.072.301.1.71.112 1.004a.215.215 0 0 0-.152.106a.208.208 0 0 0-.032.085c-.004.002-.606.159-.826.731c-.097.252-.093.473-.018.653H8.476l-.39-.607a.351.351 0 0 1 .076-.464l.604-.481s-.815.262-.95.067c-.09-.128-.074-.496-.052-.741c.045-.15.104-.3.188-.436c.067-.087.142-.183.184-.23c.269-.3.499-.37.747-.483a1.8 1.8 0 0 1 .747-.144c.516-.396 1.675-1.26 1.957-1.26c.312 0 1.593.896 1.977 1.169a1.63 1.63 0 0 1 .788-.096a1.053 1.053 0 0 1 1.043-1.215zm1.763.287s.758.595 1.21 1.767c.454 1.172.44 1.482.44 1.482L16.88 9.951l1.28 1.177s-.051-.687-1.003-2.007m-1.765.18a.586.586 0 1 0-.004 1.174a.586.586 0 0 0 .004-1.176Zm-3.806.055c-.212 0-1.021.647-1.462 1.013c.196.107.337.261.435.411c.338-.268.891-.682 1.099-.682c.226 0 .837.43 1.142.654a1.07 1.07 0 0 1 .315-.374c.004-.002.005-.004.01-.004c-.467-.366-1.327-1.016-1.54-1.016Zm-3.7.086a.586.586 0 0 1 .563.753a7.943 7.943 0 0 0-.39.394l-.052.013a.586.586 0 1 1-.123-1.16zm1.945 1.79a.467.467 0 0 0-.16.027a.186.186 0 0 1-.123.328a.194.194 0 0 1-.141-.065a.453.453 0 1 0 .426-.293zm3.602 0a.472.472 0 0 0-.16.027a.187.187 0 1 1-.264.263a.453.453 0 1 0 .426-.293zm-5.89 1.557c.245.54.932.965.932.965h-.703s-.252-.187-.414-.453a2.154 2.154 0 0 1-.197-.385Zm8.705.113l.813.406l-.407.446h-.589s.103-.123.168-.413c.023-.11.023-.275.014-.439zm-6.67.852h.236a.676.676 0 0 0 .136.206l-.013.041l-.002.01c-.004.013-.005.031-.01.045v.014a.418.418 0 0 0-.002.05v.014l.005.04l.002.014c.003.019.005.032.01.048l.002.01c.01.031.028.066.041.098c.004.005.01.014.01.018c.013.028.031.05.048.075l.014.018c.022.027.04.051.065.074l.018.018c.023.019.041.037.063.056c.004.003.009.004.013.009a.46.46 0 0 0 .07.048c.003.001.005.004.01.004a1.255 1.255 0 0 1-.371-.25a.925.925 0 0 1-.22-.447Zm4.099 0h.278c-.113.25-.522.55-.522.55s-.032.065-.214.207a1.06 1.06 0 0 1-.358.162l.004-.002c.022-.014.047-.028.073-.047c.003-.002.005-.004.01-.004a.886.886 0 0 0 .077-.065a1.029 1.029 0 0 0 .076-.081l.014-.014a.56.56 0 0 0 .057-.083c.004-.004.005-.009.01-.013l.027-.055a.932.932 0 0 0 .465-.547zm-2.03.195s.014.009.027.027c.01.009.018.018.032.027c.138.115.51.386.97.405l-.001.028a1.204 1.204 0 0 0-.003.12v.003a2.502 2.502 0 0 1-.535-.11c-.31-.103-.492-.336-.492-.336s-.35.214-.815.298a1.967 1.967 0 0 1-.323.037h-.003v-.005a2.204 2.204 0 0 0-.024-.2l-.002-.017c.414.06.936-.165 1.105-.245l.018-.009a.075.075 0 0 0 .028-.014zm5.324.283l.715.813h-.34v.637h-.75v-.637h-.34zm-.716 1.644h1.431v.246h-1.43z" class="cls-1"/></svg>