<svg xmlns="http://www.w3.org/2000/svg" width="1em" height="1em" viewBox="0 0 24 24"><path fill="currentColor" d="M20.313 3.492c0-.482-.723-.964-2.409-1.2a35.593 35.593 0 0 0-5.061-.241a35.586 35.586 0 0 0-5.06.241c-1.687.241-2.41.482-2.41 1.205v.964L3.687 4.7c-.241 0-.241.241-.241.481l.241 13.494a.236.236 0 0 0 .241.241l4.819 2.651c1.205.241 2.651.241 3.855.482h.723c2.41 0 3.856-.482 4.338-1.2v-4.827h.237a11.732 11.732 0 0 0 1.69-.722c.241-.241.723-.482.723-.723s.241-3.855.241-5.3c0-1.445-.241-5.542-.241-5.783m-2.891 7.952a27.788 27.788 0 0 1-4.579.24a29.28 29.28 0 0 1-4.578-.24a3.887 3.887 0 0 1-2.165-.725V8.07h.241a15.359 15.359 0 0 0 1.687.482a35.955 35.955 0 0 0 5.06.482a35.955 35.955 0 0 0 5.061-.482a4.463 4.463 0 0 0 1.686-.482v2.892a7.124 7.124 0 0 1-2.409.482m2.164-4.338a7.031 7.031 0 0 1-2.168.482a29.528 29.528 0 0 1-4.579.482a29.16 29.16 0 0 1-4.578-.241L6.1 7.106V4.215a15.359 15.359 0 0 1 1.683.485a35.586 35.586 0 0 0 5.06.241A35.593 35.593 0 0 0 17.9 4.7a4.463 4.463 0 0 0 1.686-.482v2.888M8.265 3.01c1.446 0 3.133-.241 4.578-.241a29.166 29.166 0 0 1 4.579.241a5.661 5.661 0 0 1 1.927.482a5.3 5.3 0 0 1-1.927.241a26.693 26.693 0 0 1-4.579.482a29.16 29.16 0 0 1-4.578-.241a5.672 5.672 0 0 1-1.928-.482c.723-.241 1.205-.241 1.928-.482M19.59 14.576l-2.168.723a26.693 26.693 0 0 1-4.579.482a15.131 15.131 0 0 1-4.578-.723a2.737 2.737 0 0 1-1.928-.723a14.314 14.314 0 0 0-.237-2.651a3.483 3.483 0 0 0 1.687.482a35.955 35.955 0 0 0 5.06.482a35.955 35.955 0 0 0 5.061-.482a3.479 3.479 0 0 0 1.686-.482v2.892"/></svg>